<svg width="79" height="63" viewBox="0 0 79 63" fill="none" xmlns="http://www.w3.org/2000/svg">
<g clip-path="url(#clip0_107_72563)">
<path d="M0 5.77445V20.1492C0 24.5273 5.33468 26.8623 8.59477 23.7977L24.1543 9.42287C27.5625 6.28523 25.3397 0.739624 20.6719 0.739624H5.1124C2.29688 0.739624 0 3.00165 0 5.77445Z" fill="#043873"/>
<path d="M73.6473 0.739624H58.0879C53.4941 0.739624 51.1972 6.28523 54.6055 9.42287L70.165 23.7977C73.4251 26.7894 78.7597 24.5273 78.7597 20.1492V5.77445C78.7597 3.00165 76.4629 0.739624 73.6473 0.739624Z" fill="#043873"/>
<path d="M42.8997 35.8374L70.1659 61.0845C73.426 64.0762 78.7607 61.8142 78.7607 57.4361V42.9153C78.7607 41.5289 78.1679 40.2155 77.1306 39.2669L42.8997 7.52563C40.8992 5.70142 37.8614 5.70142 35.8609 7.52563L1.63004 39.2669C0.592742 40.2155 0 41.5289 0 42.9153V57.4361C0 61.8142 5.33468 64.1492 8.59476 61.0845L35.8609 35.8374C37.8614 34.0132 40.8992 34.0132 42.8997 35.8374Z" fill="#043873"/>
</g>
<defs>
<clipPath id="clip0_107_72563">
<rect width="78.7607" height="61.7313" fill="white" transform="translate(0 0.739624)"/>
</clipPath>
</defs>
</svg>
