<svg width="56" height="69" viewBox="0 0 56 69" fill="none" xmlns="http://www.w3.org/2000/svg">
<path d="M46.6329 38.7201C44.7624 29.3063 53.6977 23.7852 53.6977 23.7852C53.6977 23.7852 50.2164 18.7486 44.3656 17.4529C38.5177 16.1543 35.5909 17.7767 32.6697 18.9936C29.7458 20.2134 28.2868 20.2134 28.2868 20.2134C24.0672 20.2134 20.9827 15.7457 12.9433 17.7797C7.40478 19.1774 1.5743 25.5711 0.520864 33.202C-0.53257 40.8358 1.74069 50.5764 6.12367 58.1257C10.5066 65.6807 14.9715 68.52 18.1404 68.6017C21.3095 68.6804 24.4728 66.3314 28.2868 65.7594C32.1037 65.1933 34.4527 67.1427 38.1967 68.1961C41.9259 69.2467 43.2333 68.272 47.5288 64.6185C51.8358 60.965 55.7345 50.4861 55.7345 50.4861C55.7345 50.4861 48.5034 48.1398 46.6329 38.7201Z" fill="black"/>
<path d="M38.3514 11.3626C42.4951 7.14016 41.0916 0.603516 41.0916 0.603516C41.0916 0.603516 35.2729 1.62489 31.3742 5.68102C27.4785 9.74013 28.1234 16.1512 28.1234 16.1512C28.1234 16.1512 34.2077 15.5822 38.3514 11.3626Z" fill="black"/>
</svg>
