<svg width="1499" height="1125" viewBox="0 0 1499 1125" fill="none" xmlns="http://www.w3.org/2000/svg">
<path d="M1085.76 984.136L1000.41 982.261L992.913 916.973L964.188 666.661L950.8 890.967L881.2 896.03L884.744 490.036L1029.08 498.436L1077.93 916.973L1085.76 984.136Z" fill="#B8C1D0"/>
<path d="M1034.82 486.698C1034.82 486.961 1045.08 576.867 1045.08 576.867L1020.7 577.448C1013.93 577.616 1007.34 575.206 1002.27 570.706C997.205 566.207 994.035 559.951 993.4 553.204L987.438 490.017L1034.82 486.698Z" fill="#4B764A"/>
<path d="M1049.05 511.542C1039.67 511.542 1036.64 501.061 1038.7 492.286C1040.76 483.511 1056.53 488.536 1056.53 488.536L1049.05 511.542Z" fill="black"/>
<path d="M961.6 244.486C968.182 266.573 975.269 287.198 987.588 280.955C995.669 276.848 986.988 259.992 963.213 241.58L961.6 244.486Z" fill="black"/>
<path d="M1097.03 503.423C1074.53 508.542 1049.05 511.523 1049.05 511.523C1050.48 491.817 1050.74 457.036 1042.94 447.961L1056.23 447.023L1040.2 417.923L988.825 418.823L916.319 420.08L854.238 421.148C854.238 421.148 866.313 352.486 869.238 336.53C872.163 320.573 885.682 302.78 906.25 299.255C913.9 297.905 920.107 297.117 924.869 296.63C927.325 296.405 929.407 296.236 931.094 296.142C933.719 296.011 935.463 295.992 936.307 295.992H936.907L967.638 292.448C969.85 292.711 972.007 292.955 974.107 293.161L981.4 293.93C1023.87 298.261 1038.46 297.68 1054.09 314.405C1071.29 332.892 1076.14 348.155 1086.12 371.536C1096.09 394.917 1113.04 434.104 1118.41 450.923C1123.77 467.742 1119.61 498.323 1097.03 503.423Z" fill="#4B764A"/>
<path d="M989.519 424.842C989.519 424.842 916.225 427.186 915.719 426.605C915.719 426.605 915.888 424.167 916.319 420.098C916.407 419.286 916.5 418.405 916.6 417.455L922.038 417.998L936.382 296.011H936.982L967.713 292.467L971.463 292.88L981.532 412.092C981.532 412.092 985.413 411.886 988.057 411.811L988.882 418.823L989.519 424.842Z" fill="#B7AD7A"/>
<path d="M992.425 403.823H992.313C992.223 403.803 992.137 403.766 992.061 403.712C991.986 403.659 991.921 403.591 991.873 403.512C991.824 403.433 991.791 403.346 991.776 403.254C991.762 403.163 991.766 403.069 991.788 402.979C994.975 389.217 1000.84 363.604 1001.71 359.854L987.007 349.673C986.914 349.609 986.838 349.524 986.786 349.424C986.733 349.325 986.706 349.214 986.706 349.101C986.706 348.989 986.733 348.878 986.786 348.778C986.838 348.679 986.914 348.593 987.007 348.529L1000.36 338.967L985.188 304.186C985.142 304.02 985.158 303.844 985.232 303.689C985.306 303.535 985.434 303.412 985.591 303.343C985.748 303.275 985.925 303.266 986.089 303.317C986.252 303.368 986.392 303.477 986.482 303.623L1001.88 338.929C1001.94 339.077 1001.95 339.241 1001.9 339.395C1001.86 339.549 1001.76 339.682 1001.63 339.773L988.619 349.148L1002.85 359.048C1002.97 359.128 1003.05 359.24 1003.1 359.37C1003.15 359.501 1003.16 359.643 1003.13 359.779C1003.13 359.779 996.532 388.411 993.1 403.298C993.063 403.449 992.976 403.582 992.853 403.677C992.731 403.772 992.58 403.824 992.425 403.823Z" fill="black"/>
<path d="M913.225 405.698C913.063 405.698 912.906 405.642 912.779 405.539C912.653 405.437 912.566 405.295 912.532 405.136L903.719 361.43C903.695 361.301 903.707 361.168 903.753 361.046C903.799 360.923 903.878 360.816 903.982 360.736L916.75 351.061L903.944 339.436C903.832 339.334 903.755 339.199 903.725 339.051C903.695 338.903 903.712 338.748 903.775 338.611L920.8 303.567C920.9 303.434 921.043 303.34 921.205 303.302C921.366 303.263 921.536 303.282 921.685 303.356C921.834 303.429 921.953 303.552 922.021 303.704C922.088 303.855 922.101 304.026 922.057 304.186L905.182 338.761L918.307 350.592C918.386 350.659 918.449 350.742 918.493 350.836C918.536 350.93 918.559 351.032 918.559 351.136C918.559 351.239 918.536 351.342 918.493 351.435C918.449 351.529 918.386 351.613 918.307 351.68L905.182 361.598L913.9 404.873C913.934 405.054 913.896 405.242 913.795 405.395C913.693 405.549 913.536 405.658 913.357 405.698H913.225Z" fill="black"/>
<path d="M967.713 292.505C966.719 294.155 949.3 314.461 949.3 314.461C946.6 311.311 939.925 296.93 939.925 296.93C939.925 296.086 939.119 290.705 938.275 285.923C937.563 281.836 936.888 278.198 936.888 278.198C924.194 279.098 915.325 271.898 915.625 246.098C915.757 234.023 917.632 223.973 921.25 216.773C925.432 208.58 931.994 204.023 940.994 204.286C957.869 204.773 965.163 223.411 964.582 241.542C966.307 243.717 965.725 250.917 961.094 252.905C961.282 252.886 963.607 279.848 967.713 292.505Z" fill="#F88D7A"/>
<path d="M922.087 241.735C922.272 240.558 921.874 239.519 921.199 239.413C920.524 239.307 919.827 240.175 919.642 241.351C919.457 242.528 919.855 243.567 920.53 243.673C921.205 243.779 921.902 242.911 922.087 241.735Z" fill="black"/>
<path d="M937.879 241.353C937.927 240.162 937.412 239.175 936.728 239.147C936.045 239.12 935.452 240.063 935.404 241.254C935.357 242.445 935.872 243.432 936.556 243.46C937.239 243.487 937.832 242.544 937.879 241.353Z" fill="black"/>
<path d="M964.769 241.523C961.019 237.323 957.55 239.517 957.55 239.517C953.8 236.723 948.607 229.505 949.15 228.886C956.65 220.28 947.969 215.405 947.969 215.405C936.382 220.842 928.169 220.467 921.438 216.755C925.619 208.561 932.182 204.005 941.182 204.267C958.113 204.755 965.35 223.392 964.769 241.523Z" fill="black"/>
<path d="M942.813 237.023C942.642 237.02 942.478 236.956 942.351 236.843C942.224 236.729 942.141 236.574 942.119 236.405C941.988 236.001 941.778 235.627 941.501 235.305C941.224 234.983 940.886 234.72 940.506 234.53C939.738 234.06 938.873 233.77 937.977 233.683C937.081 233.595 936.176 233.711 935.331 234.023C935.241 234.07 935.141 234.097 935.04 234.102C934.938 234.107 934.836 234.09 934.742 234.053C934.647 234.015 934.561 233.958 934.491 233.884C934.42 233.811 934.366 233.723 934.332 233.627C934.298 233.531 934.286 233.429 934.295 233.327C934.304 233.226 934.334 233.127 934.385 233.039C934.435 232.95 934.504 232.873 934.586 232.813C934.669 232.754 934.763 232.712 934.863 232.692C935.909 232.313 937.028 232.175 938.135 232.288C939.242 232.402 940.309 232.764 941.256 233.348C941.822 233.641 942.32 234.049 942.717 234.547C943.114 235.044 943.402 235.62 943.563 236.236C943.584 236.422 943.531 236.609 943.415 236.757C943.299 236.904 943.13 237 942.944 237.023H942.813Z" fill="black"/>
<path d="M958.132 246.904C957.972 246.915 957.813 246.87 957.683 246.777C957.553 246.684 957.459 246.548 957.417 246.394C957.375 246.239 957.388 246.075 957.453 245.929C957.518 245.783 957.632 245.664 957.775 245.592C959.163 244.786 961.188 243.342 961.207 243.323C961.358 243.214 961.547 243.169 961.732 243.199C961.916 243.229 962.082 243.331 962.191 243.483C962.3 243.634 962.345 243.823 962.315 244.008C962.285 244.192 962.183 244.358 962.032 244.467C962.032 244.467 959.932 245.967 958.488 246.811C958.38 246.873 958.257 246.906 958.132 246.904Z" fill="black"/>
<path d="M927.682 252.436H927.532C925.446 252.028 923.409 251.399 921.457 250.561C921.198 250.411 920.977 250.205 920.808 249.959C920.639 249.712 920.528 249.431 920.482 249.136C920.257 247.711 921.363 245.648 924.232 242.255C925.038 238.936 924.625 236.03 923.163 234.755C922.765 234.396 922.275 234.156 921.748 234.064C921.22 233.971 920.678 234.028 920.182 234.23C920.005 234.287 919.813 234.271 919.648 234.187C919.482 234.103 919.357 233.956 919.3 233.78C919.243 233.603 919.258 233.411 919.343 233.246C919.427 233.08 919.574 232.955 919.75 232.898C920.485 232.618 921.283 232.548 922.055 232.697C922.827 232.846 923.542 233.208 924.119 233.742C925.994 235.505 926.538 238.898 925.544 242.855C925.517 242.959 925.465 243.055 925.394 243.136C922.3 246.886 921.775 248.367 921.888 249.023C921.904 249.12 921.944 249.211 922.002 249.289C922.061 249.367 922.137 249.43 922.225 249.473C924.038 250.229 925.923 250.801 927.85 251.18C928.034 251.199 928.203 251.292 928.319 251.436C928.435 251.58 928.489 251.764 928.469 251.948C928.449 252.132 928.357 252.301 928.213 252.417C928.069 252.533 927.884 252.587 927.7 252.567L927.682 252.436Z" fill="black"/>
<path d="M929.782 259.148C929.615 259.121 929.463 259.035 929.354 258.907C929.244 258.778 929.184 258.614 929.184 258.445C929.184 258.276 929.244 258.113 929.354 257.984C929.463 257.855 929.615 257.769 929.782 257.742C933.813 257.742 934.713 256.261 934.825 253.992C934.84 253.808 934.923 253.636 935.058 253.511C935.194 253.386 935.372 253.317 935.557 253.317C935.649 253.32 935.741 253.34 935.825 253.379C935.91 253.417 935.986 253.472 936.049 253.54C936.112 253.608 936.16 253.688 936.192 253.776C936.223 253.863 936.237 253.956 936.232 254.048C936.063 258.623 932.444 259.148 929.782 259.148Z" fill="black"/>
<path d="M950.2 271.842C949.68 275.062 948.285 278.078 946.169 280.561C944.054 283.044 941.297 284.898 938.2 285.923C937.582 282.342 936.982 278.198 936.982 278.198C941.94 277.501 946.56 275.28 950.2 271.842Z" fill="black"/>
<path d="M617.518 195.117C331.9 195.117 400.731 445.336 391.768 982.804H843.268C834.306 445.298 903.137 195.117 617.518 195.117Z" fill="white"/>
<path d="M617.538 983.742C617.289 983.742 617.051 983.643 616.875 983.467C616.699 983.292 616.6 983.053 616.6 982.804V195.117C616.6 194.868 616.699 194.63 616.875 194.454C617.051 194.278 617.289 194.179 617.538 194.179C617.786 194.179 618.025 194.278 618.201 194.454C618.377 194.63 618.475 194.868 618.475 195.117V982.804C618.475 983.053 618.377 983.292 618.201 983.467C618.025 983.643 617.786 983.742 617.538 983.742Z" fill="#C4DEFD"/>
<path d="M617.537 380.854H402.081C401.832 380.854 401.594 380.756 401.418 380.58C401.242 380.404 401.143 380.166 401.143 379.917C401.143 379.668 401.242 379.43 401.418 379.254C401.594 379.078 401.832 378.979 402.081 378.979H617.537C617.786 378.979 618.024 379.078 618.2 379.254C618.376 379.43 618.475 379.668 618.475 379.917C618.475 380.166 618.376 380.404 618.2 380.58C618.024 380.756 617.786 380.854 617.537 380.854Z" fill="#C4DEFD"/>
<path d="M617.537 673.804H391.037C390.788 673.804 390.55 673.706 390.374 673.53C390.198 673.354 390.1 673.116 390.1 672.867C390.1 672.618 390.198 672.38 390.374 672.204C390.55 672.028 390.788 671.929 391.037 671.929H617.537C617.786 671.929 618.024 672.028 618.2 672.204C618.376 672.38 618.475 672.618 618.475 672.867C618.475 673.116 618.376 673.354 618.2 673.53C618.024 673.706 617.786 673.804 617.537 673.804Z" fill="#C4DEFD"/>
<path d="M832.938 380.854H617.538C617.289 380.854 617.051 380.756 616.875 380.58C616.699 380.404 616.6 380.166 616.6 379.917C616.6 379.668 616.699 379.43 616.875 379.254C617.051 379.078 617.289 378.979 617.538 378.979H832.938C833.186 378.979 833.425 379.078 833.601 379.254C833.777 379.43 833.875 379.668 833.875 379.917C833.875 380.166 833.777 380.404 833.601 380.58C833.425 380.756 833.186 380.854 832.938 380.854Z" fill="#C4DEFD"/>
<path d="M844.019 673.804H617.538C617.289 673.804 617.051 673.706 616.875 673.53C616.699 673.354 616.6 673.116 616.6 672.867C616.6 672.618 616.699 672.38 616.875 672.204C617.051 672.028 617.289 671.929 617.538 671.929H844.038C844.287 671.929 844.525 672.028 844.701 672.204C844.877 672.38 844.975 672.618 844.975 672.867C844.975 673.116 844.877 673.354 844.701 673.53C844.525 673.706 844.287 673.804 844.038 673.804H844.019Z" fill="#C4DEFD"/>
<path d="M876.925 488.573V577.467H893.163C897.889 577.468 902.446 575.704 905.939 572.52C909.432 569.335 911.609 564.961 912.044 560.254L918.7 488.573H876.925Z" fill="#4B764A"/>
<path d="M1085.76 984.136L1000.41 982.261L998.05 961.73L997.713 958.711L992.913 916.973H1077.93L1082.8 958.711L1084.68 974.855L1085.76 984.136Z" fill="#F88D7A"/>
<path d="M1085.76 984.136L1000.41 982.261L998.05 961.729L1084.68 974.854L1085.76 984.136Z" fill="black"/>
<path d="M1042.15 515.273L973.563 515.536L787.938 516.248L787.525 409.823L812.313 409.673L839.538 409.561H861.419L888.644 409.448H910.544L937.769 409.354H959.463H973.094H986.688L1041.68 409.148L1041.83 448.373C1033.35 448.852 1024.85 448.852 1016.37 448.373C1008.25 447.848 1000.11 447.848 991.994 448.373C986.8 448.842 984.494 449.761 985.357 453.136C986.219 456.511 1000.71 457.167 1004.35 459.511C1007.99 461.854 1011.04 465.417 1003.83 470.048C999.1 473.086 986.744 476.554 973.3 478.523C971.107 478.861 968.894 479.142 966.682 479.386C959.182 480.192 957.663 485.986 969.269 487.036C965.744 488.911 966.607 494.179 973.375 495.136C973.788 495.136 974.219 495.248 974.669 495.267C974.092 495.558 973.634 496.043 973.375 496.636C973.199 497.054 973.107 497.503 973.107 497.958C973.107 498.412 973.199 498.861 973.375 499.279C974.125 501.154 976.582 503.142 981.194 503.198C979.45 504.604 983.613 508.823 991.113 508.261C1004.08 506.783 1016.8 503.632 1028.95 498.886C1031.9 498.095 1034.92 497.592 1037.97 497.386C1037.77 499.562 1038.03 501.756 1038.72 503.828C1039.41 505.9 1040.53 507.806 1042 509.423L1042.15 515.273Z" fill="#E4D0C0"/>
<path d="M833.431 396.354L818.431 396.412C815.055 396.425 812.329 399.172 812.342 402.548L812.391 415.447C812.404 418.823 815.151 421.549 818.527 421.536L833.527 421.479C836.903 421.466 839.629 418.719 839.616 415.343L839.566 402.443C839.554 399.067 836.806 396.341 833.431 396.354Z" fill="#E4D0C0"/>
<path d="M882.536 396.166L867.536 396.223C864.16 396.236 861.434 398.983 861.447 402.359L861.496 415.259C861.509 418.635 864.257 421.361 867.632 421.348L882.632 421.29C886.008 421.277 888.734 418.53 888.721 415.154L888.672 402.254C888.659 398.879 885.912 396.153 882.536 396.166Z" fill="#E4D0C0"/>
<path d="M931.641 395.977L916.641 396.035C913.265 396.048 910.539 398.795 910.552 402.171L910.602 415.07C910.615 418.446 913.362 421.172 916.738 421.159L931.737 421.102C935.113 421.089 937.839 418.342 937.826 414.966L937.777 402.066C937.764 398.69 935.017 395.964 931.641 395.977Z" fill="#E4D0C0"/>
<path d="M980.577 395.789L965.577 395.847C962.202 395.86 959.475 398.607 959.488 401.983L959.538 414.882C959.551 418.258 962.298 420.984 965.674 420.971L980.674 420.914C984.05 420.901 986.776 418.154 986.763 414.778L986.713 401.878C986.7 398.502 983.953 395.776 980.577 395.789Z" fill="#E4D0C0"/>
<path d="M787.507 410.517C787.34 410.49 787.188 410.404 787.079 410.275C786.969 410.146 786.909 409.983 786.909 409.814C786.909 409.645 786.969 409.481 787.079 409.353C787.188 409.224 787.34 409.138 787.507 409.111L1041.74 408.117C1041.9 408.144 1042.06 408.23 1042.17 408.359C1042.28 408.488 1042.34 408.651 1042.34 408.82C1042.34 408.989 1042.28 409.153 1042.17 409.281C1042.06 409.41 1041.9 409.496 1041.74 409.523L787.507 410.517Z" fill="#C4DEFD"/>
<path d="M973.413 515.517C973.23 515.512 973.057 515.438 972.927 515.309C972.798 515.179 972.724 515.006 972.719 514.823L972.456 409.092C972.456 408.906 972.529 408.728 972.659 408.595C972.788 408.462 972.965 408.384 973.15 408.379L1041.74 408.117C1041.9 408.144 1042.06 408.23 1042.17 408.359C1042.28 408.488 1042.34 408.651 1042.34 408.82C1042.34 408.989 1042.28 409.153 1042.17 409.281C1042.06 409.41 1041.9 409.496 1041.74 409.523L973.844 409.786L974.106 514.786C974.106 514.971 974.034 515.15 973.904 515.283C973.775 515.416 973.598 515.493 973.413 515.498V515.517Z" fill="#C4DEFD"/>
<path d="M780.457 863.067H765.457C762.081 863.067 759.344 865.804 759.344 869.18V882.08C759.344 885.455 762.081 888.192 765.457 888.192H780.457C783.832 888.192 786.569 885.455 786.569 882.08V869.18C786.569 865.804 783.832 863.067 780.457 863.067Z" fill="#E4D0C0"/>
<path d="M829.563 863.067H814.563C811.187 863.067 808.45 865.804 808.45 869.18V882.08C808.45 885.455 811.187 888.192 814.563 888.192H829.563C832.939 888.192 835.675 885.455 835.675 882.08V869.18C835.675 865.804 832.939 863.067 829.563 863.067Z" fill="#E4D0C0"/>
<path d="M878.669 863.067H863.669C860.293 863.067 857.557 865.804 857.557 869.18V882.08C857.557 885.455 860.293 888.192 863.669 888.192H878.669C882.045 888.192 884.782 885.455 884.782 882.08V869.18C884.782 865.804 882.045 863.067 878.669 863.067Z" fill="#E4D0C0"/>
<path d="M988.694 876.361H734.463V982.805H988.694V876.361Z" fill="#E4D0C0"/>
<path d="M988.713 877.054H734.463C734.296 877.027 734.144 876.941 734.035 876.813C733.926 876.684 733.866 876.52 733.866 876.351C733.866 876.182 733.926 876.019 734.035 875.89C734.144 875.761 734.296 875.676 734.463 875.648H988.713C988.899 875.648 989.078 875.722 989.21 875.854C989.342 875.986 989.416 876.165 989.416 876.351C989.416 876.538 989.342 876.717 989.21 876.849C989.078 876.98 988.899 877.054 988.713 877.054Z" fill="#C4DEFD"/>
<path d="M988.713 876.361H920.125V982.805H988.713V876.361Z" fill="#E4D0C0"/>
<path d="M920.125 983.423C919.943 983.418 919.769 983.344 919.64 983.215C919.511 983.086 919.436 982.912 919.432 982.729V876.361C919.459 876.194 919.545 876.042 919.673 875.933C919.802 875.824 919.966 875.763 920.135 875.763C920.304 875.763 920.467 875.824 920.596 875.933C920.725 876.042 920.811 876.194 920.838 876.361V982.804C920.815 982.977 920.73 983.135 920.599 983.249C920.468 983.363 920.299 983.425 920.125 983.423Z" fill="#C4DEFD"/>
<path d="M302.312 982.786C302.312 982.786 331.075 970.655 327.325 914.405C326.247 898.989 322.484 883.881 316.206 869.761C315.193 867.455 314.162 865.242 313.093 863.142C310.814 858.645 308.311 854.264 305.593 850.017C301.772 843.901 297.378 838.162 292.468 832.88H226.131C221.838 837.478 217.96 842.447 214.543 847.73C210.409 853.923 206.755 860.423 203.612 867.173C198.586 877.908 194.986 889.254 192.906 900.923C192.121 905.372 191.576 909.86 191.275 914.367C187.525 970.617 216.287 982.748 216.287 982.748L302.312 982.786Z" fill="white"/>
<path d="M248.2 874.111C233.026 874.339 217.905 872.272 203.35 867.98C203.101 867.905 202.892 867.735 202.769 867.506C202.646 867.278 202.619 867.009 202.693 866.761C202.768 866.512 202.938 866.303 203.167 866.18C203.395 866.057 203.664 866.03 203.912 866.105C217.75 870.511 234.906 872.573 253.543 872.086C257.293 872.086 261.043 871.786 264.981 871.467C281.221 870.111 297.262 866.967 312.812 862.092C313.061 862.017 313.329 862.045 313.557 862.168C313.786 862.291 313.956 862.5 314.031 862.748C314.106 862.997 314.078 863.265 313.955 863.494C313.832 863.722 313.623 863.892 313.375 863.967C297.687 868.857 281.508 872.001 265.131 873.342C261.231 873.661 257.35 873.867 253.581 873.961C251.768 874.061 249.975 874.111 248.2 874.111Z" fill="#C4DEFD"/>
<path d="M199.187 901.973C197.087 901.973 194.975 901.973 192.85 901.973C192.727 901.971 192.605 901.944 192.492 901.895C192.38 901.845 192.278 901.774 192.192 901.685C192.107 901.597 192.04 901.492 191.995 901.377C191.95 901.263 191.928 901.14 191.931 901.017C191.925 900.892 191.946 900.766 191.993 900.65C192.039 900.533 192.11 900.428 192.201 900.341C192.291 900.254 192.399 900.187 192.518 900.145C192.636 900.103 192.762 900.087 192.887 900.098C213.177 900.642 233.459 898.753 253.3 894.473C257.275 893.611 261.137 892.598 264.737 891.661C284.443 886.261 302.031 878.536 315.606 869.161C315.81 869.034 316.055 868.991 316.29 869.039C316.525 869.088 316.733 869.225 316.87 869.422C317.007 869.619 317.063 869.862 317.027 870.099C316.991 870.337 316.865 870.551 316.675 870.698C302.931 880.167 285.137 888.061 265.243 893.517C261.606 894.529 257.743 895.392 253.693 896.367C235.78 900.193 217.505 902.073 199.187 901.973Z" fill="#C4DEFD"/>
<path d="M333.531 750.286C337.281 754.036 357.681 741.267 349.093 733.879C340.506 726.492 328.562 745.486 333.531 750.286Z" fill="#4B764A"/>
<path d="M327.081 761.723C331.075 756.098 328.581 737.911 319.281 742.298C309.025 747.173 323.087 767.386 327.081 761.723Z" fill="#4B764A"/>
<path d="M312.25 782.798C317.612 776.217 310.787 757.523 303.756 759.267C292.768 762.042 307.431 788.723 312.25 782.798Z" fill="#4B764A"/>
<path d="M245.95 711.286C247.225 707.255 232.243 690.436 227.481 695.18C218.631 704.048 240.869 727.205 245.95 711.286Z" fill="#4B764A"/>
<path d="M326.856 762.173C329.95 754.842 343.15 747.961 346.843 757.223C350.65 766.767 324.231 768.361 326.856 762.173Z" fill="#4B764A"/>
<path d="M314.443 780.248C317.706 774.117 338.087 771.548 335.068 780.736C332.725 787.973 309.568 789.436 314.443 780.248Z" fill="#4B764A"/>
<path d="M302.312 796.092C305.406 789.867 328.768 790.467 325.6 799.617C321.7 810.717 298.731 803.217 302.312 796.092Z" fill="#4B764A"/>
<path d="M293.2 809.367C298.3 804.661 316.337 815.667 310.075 823.073C302.575 832.073 287.312 814.673 293.2 809.367Z" fill="#4B764A"/>
<path d="M284.443 828.998C287.65 821.123 313.768 830.461 307.937 839.311C301.468 849.136 281.443 836.329 284.443 828.998Z" fill="#4B764A"/>
<path d="M244.543 674.423C244.937 666.923 233.631 652.786 226.731 656.836C213.531 664.673 243.962 685.786 244.543 674.423Z" fill="#4B764A"/>
<path d="M243.512 648.548C246.193 641.873 231.737 619.617 226.262 626.648C219.381 635.461 240.793 655.298 243.512 648.548Z" fill="#4B764A"/>
<path d="M249.587 740.892C249.7 734.911 233.593 724.204 229.356 727.354C216.775 736.729 249.287 755.311 249.587 740.892Z" fill="#4B764A"/>
<path d="M254.068 764.048C254.079 764.091 254.079 764.136 254.068 764.18C253.752 765.027 253.208 765.77 252.497 766.329C251.786 766.888 250.935 767.241 250.037 767.348C242.106 769.355 226 764.067 231.587 755.273C234.437 750.792 242.837 753.08 248.462 756.792C250.583 758.026 252.372 759.757 253.675 761.836C254.069 762.502 254.208 763.287 254.068 764.048Z" fill="#4B764A"/>
<path d="M263.95 717.736C263.135 719.064 262.207 720.319 261.175 721.486C259.356 723.569 257.254 725.387 254.931 726.886C251.556 729.023 248.481 729.623 247.637 727.223C245.931 722.386 251.8 707.686 258.718 706.13C259.75 705.93 260.816 706.011 261.805 706.364C262.795 706.717 263.671 707.329 264.343 708.136C266.781 710.573 266.068 714.192 263.95 717.736Z" fill="#4B764A"/>
<path d="M272.931 751.28C272.285 754.225 270.723 756.89 268.468 758.892C263.387 764.011 255.643 767.555 254.068 764.067C254.068 763.936 254.068 763.805 253.937 763.655C253.785 763.039 253.685 762.412 253.637 761.78C253.464 758.763 254.112 755.757 255.512 753.08C256.431 751.192 257.646 749.464 259.112 747.961C259.506 747.567 259.9 747.192 260.312 746.855C263.95 743.817 268.393 743.105 271.806 747.08C272.341 747.695 272.709 748.437 272.875 749.236C273.025 749.907 273.044 750.601 272.931 751.28Z" fill="#4B764A"/>
<path d="M245.275 702.754C244.112 689.629 254.031 673.448 258.962 680.442C266.462 691.073 245.893 709.767 245.275 702.754Z" fill="#4B764A"/>
<path d="M297.962 801.848C294.887 804.398 289.618 800.667 286.862 795.754C284.462 791.517 283.937 786.379 288.231 783.661C288.828 783.245 289.52 782.984 290.243 782.903C290.967 782.821 291.699 782.92 292.375 783.192C298.093 785.386 302.012 798.473 297.962 801.848Z" fill="#4B764A"/>
<path d="M262.206 790.598C261.287 799.505 235.525 795.998 238.543 783.098C239.762 777.923 245.631 777.736 251.237 779.817C256.281 781.692 261.118 785.442 262.056 788.93C262.209 789.472 262.26 790.038 262.206 790.598Z" fill="#4B764A"/>
<path d="M284.743 827.405C282.4 829.28 278.668 827.273 276.043 823.917C272.837 819.811 271.281 813.83 275.912 810.792C279.1 808.748 282.212 811.317 284.162 815.048C286.45 819.492 287.181 825.38 284.743 827.405Z" fill="#4B764A"/>
<path d="M245.143 564.605C248.8 556.092 236.8 534.605 230.237 539.423C218.8 547.992 241.975 571.955 245.143 564.605Z" fill="#4B764A"/>
<path d="M242.837 612.905C245.819 603.923 228.887 589.317 223.956 594.605C214.787 604.448 241.187 617.798 242.837 612.905Z" fill="#4B764A"/>
<path d="M243.606 586.561C245.087 577.655 237.212 562.411 230.931 565.936C220.693 571.805 242.312 594.08 243.606 586.561Z" fill="#4B764A"/>
<path d="M245.143 564.605C244.15 557.78 256.262 542.742 261.625 549.492C266.987 556.242 246.4 573.267 245.143 564.605Z" fill="#4B764A"/>
<path d="M243.606 611.273C242.368 604.298 254.856 582.379 261.212 589.711C267.568 597.042 246.062 624.811 243.606 611.273Z" fill="#4B764A"/>
<path d="M243.606 586.561C243.606 579.061 253.281 562.317 258.925 569.367C266.068 578.311 243.7 596.067 243.606 586.561Z" fill="#4B764A"/>
<path d="M243.943 637.936C241.693 630.023 260.818 611.086 265.975 622.111C270.793 632.423 246.55 647.011 243.943 637.936Z" fill="#4B764A"/>
<path d="M244.768 669.023C241.693 662.892 250.281 639.473 258.681 648.398C264.531 654.773 248.162 675.811 244.768 669.023Z" fill="#4B764A"/>
<path d="M284.162 815.161C282.617 818.978 279.73 822.099 276.043 823.936C272.837 819.829 271.281 813.848 275.912 810.811C279.1 808.842 282.212 811.411 284.162 815.161Z" fill="black"/>
<path d="M286.862 795.754C284.462 791.517 283.937 786.379 288.231 783.661C288.828 783.245 289.52 782.984 290.243 782.903C290.967 782.821 291.699 782.92 292.375 783.192C293.556 788.948 289.693 793.373 286.862 795.754Z" fill="black"/>
<path d="M262.056 788.948L255.287 794.048C255.287 794.048 244.037 788.03 251.237 779.836C256.281 781.711 261.062 785.423 262.056 788.948Z" fill="black"/>
<path d="M272.931 751.28C268.081 751.844 263.187 750.697 259.093 748.036C259.487 747.642 259.881 747.267 260.293 746.93C263.931 743.892 268.375 743.18 271.787 747.155C272.322 747.77 272.69 748.512 272.856 749.311C273.003 749.957 273.029 750.624 272.931 751.28Z" fill="black"/>
<path d="M261.175 721.486C258.908 716.713 258.055 711.39 258.718 706.148C259.75 705.949 260.816 706.029 261.805 706.382C262.795 706.735 263.671 707.347 264.343 708.154C267.643 711.436 265.15 716.967 261.175 721.486Z" fill="black"/>
<path d="M261.625 790.542C261.483 790.541 261.345 790.497 261.228 790.417C261.111 790.337 261.021 790.224 260.968 790.092C249.718 760.392 243.756 712.28 243.756 680.086C243.756 671.348 243.493 660.736 243.231 649.523C242.537 620.723 241.75 588.061 244.45 564.548C244.49 564.378 244.591 564.227 244.735 564.127C244.879 564.026 245.054 563.982 245.228 564.003C245.403 564.024 245.563 564.108 245.679 564.24C245.794 564.372 245.858 564.542 245.856 564.717C243.156 588.136 243.981 620.742 244.637 649.505C244.918 660.755 245.162 671.348 245.162 680.105C245.162 712.167 251.05 760.073 262.281 789.605C262.342 789.779 262.334 789.97 262.257 790.138C262.18 790.306 262.04 790.437 261.868 790.505L261.625 790.542Z" fill="black"/>
<path d="M268.318 821.479C266.05 826.504 260.818 825.342 256.262 822.08C251.706 818.817 248.256 813.998 248.293 810.604C248.282 809.764 248.579 808.949 249.128 808.313C249.678 807.677 250.441 807.265 251.275 807.154C251.833 807.018 252.406 806.949 252.981 806.948C256.354 807.098 259.611 808.225 262.356 810.192C266.818 813.136 270.062 817.636 268.318 821.479Z" fill="#8EBF8C"/>
<path d="M270.081 796.411C270.11 796.716 270.11 797.024 270.081 797.329C269.974 798.266 269.681 799.171 269.218 799.992C268.913 800.538 268.462 800.988 267.916 801.293C267.37 801.598 266.75 801.744 266.125 801.717C263.668 801.521 261.328 800.587 259.412 799.036C257.933 797.99 256.574 796.782 255.362 795.436C254.171 794.145 253.168 792.693 252.381 791.123C250.506 787.373 250.825 783.773 255.25 781.861C261.156 779.292 270.175 788.929 270.081 796.411Z" fill="#8EBF8C"/>
<path d="M278.256 718.373C280.562 712.392 270.043 696.229 263.556 701.629C255.437 708.436 275.462 725.648 278.256 718.373Z" fill="#8EBF8C"/>
<path d="M271.468 787.28C274.225 780.455 295.112 775.073 292.956 785.067C291.231 792.923 267.343 797.498 271.468 787.28Z" fill="#8EBF8C"/>
<path d="M268.562 815.236C269.668 807.342 291.456 795.679 291.793 806.742C292.112 815.442 266.95 827.048 268.562 815.236Z" fill="#8EBF8C"/>
<path d="M292.581 631.148C297.831 631.805 304.187 610.055 296.631 608.911C285.85 607.261 286.356 630.38 292.581 631.148Z" fill="#8EBF8C"/>
<path d="M287.706 651.098C291.456 645.661 286.75 628.392 279.85 631.167C270.437 634.973 283.881 656.517 287.706 651.098Z" fill="#8EBF8C"/>
<path d="M281.818 677.573C287.181 670.992 280.356 652.298 273.325 654.042C262.318 656.817 276.981 683.423 281.818 677.573Z" fill="#8EBF8C"/>
<path d="M280.112 696.173C282.793 689.498 272.706 675.548 267.381 678.905C257.481 685.017 277.393 702.961 280.112 696.173Z" fill="#8EBF8C"/>
<path d="M275.425 747.023C277.693 739.692 265.356 727.655 259.206 730.823C248.125 736.523 272.612 756.136 275.425 747.023Z" fill="#8EBF8C"/>
<path d="M272.312 775.298C274.581 767.967 262.693 753.811 256.318 757.692C244.45 764.929 269.518 784.429 272.312 775.298Z" fill="#8EBF8C"/>
<path d="M290.762 638.723C291.793 631.917 305.181 623.611 308.368 631.636C311.556 639.661 289.45 647.386 290.762 638.723Z" fill="#8EBF8C"/>
<path d="M285.118 665.105C286.243 657.361 299.95 645.923 303.137 653.855C306.325 661.786 283.731 674.517 285.118 665.105Z" fill="#8EBF8C"/>
<path d="M278.481 714.83C276.325 708.698 291.981 693.417 296.031 701.498C300.962 711.342 280.956 721.861 278.481 714.83Z" fill="#8EBF8C"/>
<path d="M281.95 684.023C281.425 677.892 299.387 667.598 301.187 675.98C303.381 686.161 282.55 691.055 281.95 684.023Z" fill="#8EBF8C"/>
<path d="M276.906 736.955C273.868 730.711 289.637 716.63 294.925 724.711C301.375 734.573 280.393 744.117 276.906 736.955Z" fill="#8EBF8C"/>
<path d="M273.868 769.036C271.037 763.205 285.756 750.023 290.743 757.598C296.687 766.804 277.112 775.73 273.868 769.036Z" fill="#8EBF8C"/>
<path d="M270.006 797.311C269.899 798.247 269.606 799.152 269.143 799.973C268.838 800.519 268.387 800.97 267.841 801.274C267.295 801.579 266.674 801.726 266.05 801.698C263.593 801.503 261.253 800.568 259.337 799.017C257.858 797.971 256.499 796.764 255.287 795.417C258.156 792.773 264.193 790.861 270.006 797.311Z" fill="black"/>
<path d="M262.412 810.173C262.056 814.373 258.925 818.911 256.262 822.061C251.95 818.967 248.256 813.979 248.293 810.586C249.769 809.259 251.335 808.037 252.981 806.929C256.374 807.068 259.652 808.196 262.412 810.173Z" fill="black"/>
<path d="M231.062 794.367C224.968 785.198 198.831 781.786 195.437 791.573C190.937 804.698 235.375 800.723 231.062 794.367Z" fill="#8EBF8C"/>
<path d="M194.106 749.967C191.106 744.342 168.006 746.217 165.981 757.973C163.843 770.873 199.6 760.298 194.106 749.967Z" fill="#8EBF8C"/>
<path d="M246.718 831.248C250.843 820.955 277.787 822.417 273.512 833.33C269.237 844.242 244.562 836.611 246.718 831.248Z" fill="#8EBF8C"/>
<path d="M211.806 770.104C208.337 762.604 180.306 764.611 174.812 775.842C165.306 795.248 214.543 775.992 211.806 770.104Z" fill="#8EBF8C"/>
<path d="M177.362 729.736C175.656 721.748 154.412 723.567 149.856 732.117C140.706 749.255 179.012 737.555 177.362 729.736Z" fill="#8EBF8C"/>
<path d="M197.65 754.073C190.637 745.861 202.112 711.567 213.662 720.117C225.212 728.667 201.175 758.198 197.65 754.073Z" fill="#8EBF8C"/>
<path d="M212.762 771.211C208.825 759.961 225.193 738.492 232.618 747.792C238.562 755.292 215.237 778.242 212.762 771.211Z" fill="#8EBF8C"/>
<path d="M234.55 799.673C228.718 793.505 235.093 766.43 244.318 770.611C254.35 775.092 239.668 805.017 234.55 799.673Z" fill="#8EBF8C"/>
<path d="M164.181 707.067C162.1 700.617 145 700.111 140.331 705.529C131.387 715.936 167.087 716.011 164.181 707.067Z" fill="#8EBF8C"/>
<path d="M155.593 687.173C155.312 682.504 142.056 669.473 137.968 671.836C127.937 677.798 156.475 701.854 155.593 687.173Z" fill="#8EBF8C"/>
<path d="M152.987 671.798C158.2 668.873 157.862 643.43 149.837 644.855C138.831 646.805 144.231 676.711 152.987 671.798Z" fill="#8EBF8C"/>
<path d="M167.144 712.523C162.644 706.73 172.768 681.38 180.681 688.711C188.143 695.573 173.425 720.642 167.144 712.523Z" fill="#8EBF8C"/>
<path d="M157.806 692.03C152.312 685.692 160.093 666.192 165.775 670.298C174.812 676.955 162.212 697.111 157.806 692.03Z" fill="#8EBF8C"/>
<path d="M178.393 730.055C174.381 720.867 189.043 700.523 194.931 707.686C202.037 716.33 181.075 736.205 178.393 730.055Z" fill="#8EBF8C"/>
<path d="M244.187 820.505C240.55 803.423 265.037 789.773 268.056 799.542C270.981 808.936 245.162 824.948 244.187 820.505Z" fill="#8EBF8C"/>
<path d="M245.8 826.448C244.937 818.236 224.537 806.911 219.137 813.323C209.106 825.436 246.587 833.855 245.8 826.448Z" fill="#8EBF8C"/>
<path d="M283.375 833.423H283.206C283.025 833.375 282.871 833.257 282.776 833.096C282.681 832.934 282.654 832.742 282.7 832.561C287.5 813.811 296.8 801.83 307.581 787.955C315.981 777.136 325.506 764.892 334.168 747.398C334.268 747.265 334.411 747.172 334.573 747.133C334.734 747.094 334.904 747.113 335.053 747.187C335.202 747.26 335.321 747.383 335.389 747.535C335.456 747.687 335.469 747.857 335.425 748.017C326.687 765.642 317.125 778.017 308.687 788.817C298 802.561 288.793 814.448 284.05 832.898C284.012 833.049 283.925 833.182 283.803 833.277C283.68 833.372 283.53 833.424 283.375 833.423Z" fill="black"/>
<path d="M268.206 825.923C268.02 825.918 267.844 825.841 267.714 825.708C267.585 825.575 267.512 825.396 267.512 825.211C267.962 808.617 269.95 790.917 272.275 770.442C274.318 752.329 276.643 731.817 278.406 707.611C281.012 671.686 293.968 622.486 294.1 621.998C294.147 621.819 294.263 621.666 294.423 621.573C294.583 621.48 294.774 621.454 294.953 621.501C295.132 621.549 295.285 621.665 295.378 621.825C295.471 621.985 295.497 622.175 295.45 622.354C295.318 622.842 282.325 671.929 279.812 707.723C278.05 731.948 275.725 752.498 273.681 770.611C271.375 791.067 269.368 808.729 268.937 825.267C268.923 825.449 268.839 825.619 268.703 825.741C268.567 825.863 268.389 825.929 268.206 825.923Z" fill="black"/>
<path d="M246.943 833.423C246.776 833.421 246.614 833.36 246.487 833.25C246.36 833.14 246.276 832.989 246.25 832.823C242.5 805.673 224.387 785.217 205.15 763.561C181.881 737.311 155.5 707.63 149.143 659.873C149.131 659.782 149.137 659.69 149.16 659.601C149.184 659.512 149.225 659.428 149.28 659.355C149.336 659.282 149.406 659.221 149.485 659.174C149.565 659.128 149.652 659.098 149.743 659.086C149.835 659.073 149.927 659.079 150.016 659.103C150.105 659.126 150.188 659.167 150.261 659.223C150.335 659.278 150.396 659.348 150.442 659.427C150.489 659.507 150.519 659.595 150.531 659.686C156.812 707.03 183.043 736.561 206.181 762.642C225.55 784.467 243.85 805.073 247.618 832.655C247.632 832.746 247.626 832.839 247.603 832.928C247.58 833.017 247.54 833.101 247.484 833.174C247.428 833.247 247.358 833.309 247.278 833.355C247.198 833.401 247.11 833.431 247.018 833.442L246.943 833.423Z" fill="black"/>
<path d="M284.556 982.786C277.056 982.786 274.525 976.823 275.762 966.436C277 956.048 277.787 942.061 277 938.686C276.212 935.311 303.625 935.873 303.625 935.873C303.625 935.873 307.937 982.786 284.556 982.786Z" fill="black"/>
<path d="M1107.87 597.848C1108.65 608.255 1121.89 608.048 1123.37 601.13C1127.55 607.692 1137 603.717 1136.63 596.405C1140.49 599.236 1147.65 594.905 1142.61 589.748C1155.74 583.223 1145.37 559.617 1133.5 564.005C1134.34 551.63 1111.41 551.011 1112.65 564.398C1110.77 555.173 1097.07 560.742 1102.05 569.011L1107.87 597.848Z" fill="black"/>
<path d="M860.575 830.911C858.813 831.417 848.969 839.742 842.95 845.292C831.888 855.492 828.775 849.398 832.732 844.336C842.369 831.98 855.438 814.88 875.519 799.336C881.482 794.705 899.894 784.223 917.069 776.836C989.5 746.086 992.65 744.661 1007.43 732.886C1016.65 725.536 1047.83 695.011 1047.83 695.011L1052.93 694.261L1088.31 722.592L1067.69 751.055L1014.25 791.48C1014.25 791.48 977.463 804.904 955.844 815.311C934.225 825.717 926.013 829.055 926.013 829.055C926.013 829.055 909.438 841.692 901.863 846.736C894.288 851.78 883.825 854.086 881.838 852.736C871.3 845.592 866.725 841.973 866.725 841.973C861.494 842.067 857.913 839.236 860.575 830.911Z" fill="#C15D31"/>
<path d="M875.2 847.28C873.213 853.111 877.394 855.792 882.588 853.561C889.132 850.748 894.832 841.505 893.838 838.411C892.844 835.317 887.332 835.73 881.725 838.805C878.607 840.759 876.292 843.765 875.2 847.28Z" fill="#C15D31"/>
<path d="M879.119 855.042C877.78 855.093 876.472 854.63 875.463 853.748C873.888 852.286 873.588 849.998 874.525 847.055C875.673 843.381 878.093 840.236 881.35 838.186C885.625 835.842 889.825 834.998 892.3 835.955C892.806 836.137 893.263 836.43 893.64 836.813C894.016 837.196 894.302 837.659 894.475 838.167C895.694 841.917 889.413 851.292 882.869 854.18C881.69 854.718 880.415 855.011 879.119 855.042ZM875.857 847.542C875.069 849.83 875.275 851.686 876.419 852.755C877.286 853.33 878.294 853.654 879.334 853.69C880.373 853.726 881.402 853.474 882.307 852.961C888.813 850.167 893.969 841.186 893.144 838.673C893.036 838.358 892.856 838.072 892.619 837.837C892.381 837.603 892.092 837.427 891.775 837.323C889.713 836.517 885.888 837.323 882.025 839.48C879.076 841.356 876.889 844.221 875.857 847.561V847.542Z" fill="black"/>
<path d="M896.313 932.123C896.538 934.336 900.063 935.704 904.225 931.786C913.713 923.086 926.519 916.523 932.482 913.655C938.444 910.786 947.482 908.03 961.732 901.336C975.982 894.642 1046.56 860.948 1047.33 860.948C1048.09 860.948 1029.23 808.448 1029.23 808.448C1014.23 817.823 981.963 836.255 928.9 861.68C922.675 864.661 892.994 869.517 882.775 871.055C876.7 872.011 875.95 873.867 876.119 876.061L899.819 876.286C892.182 881.572 885.136 887.663 878.8 894.454C866.425 907.186 861.513 917.386 863.8 919.673C866.088 921.961 872.444 914.873 878.932 908.873C885.419 902.873 890.182 899.498 890.894 899.742C891.213 899.873 888.082 904.786 886.788 907.542C883.488 914.517 880.732 919.805 880.057 927.605C879.382 935.405 885.138 933.83 886.694 931.223C887.613 935.048 892.15 937.13 896.313 932.123Z" fill="#C15D31"/>
<path d="M1264.34 976.992C1263.85 977.438 1263.33 977.845 1262.78 978.211C1257.15 981.961 1247.09 983.142 1231.02 981.548C1232.64 978.459 1235.12 975.906 1238.16 974.198L1239.51 973.411C1243.9 970.955 1247.22 962.161 1248.55 956.536C1248.84 955.357 1249.04 954.161 1249.17 952.955C1249.49 948.567 1250.7 937.036 1245.51 930.455C1243.11 927.417 1234 927.042 1234 927.042L1231.56 884.236L1256.39 878.723C1259.99 878.892 1264.34 879.286 1268.8 879.886C1280.69 881.461 1293.42 884.517 1295.05 888.998C1297.75 896.986 1269.55 972.305 1264.34 976.992Z" fill="#C15D31"/>
<path d="M1264.34 976.992C1263.85 977.438 1263.33 977.845 1262.78 978.211C1257.15 982.092 1246.97 983.836 1230.74 982.242C1230.82 982.006 1230.91 981.774 1231.02 981.548C1232.64 978.459 1235.12 975.906 1238.16 974.198L1239.51 973.411C1243.9 970.955 1247.22 962.161 1248.55 956.536C1253.35 955.711 1259.8 954.323 1263.3 952.298C1263.3 952.298 1271.85 925.58 1271.85 922.842C1271.85 920.63 1268.93 891.623 1268.8 879.923C1280.69 881.498 1293.42 884.555 1295.05 889.036C1297.75 896.986 1269.55 972.305 1264.34 976.992Z" fill="#F09400"/>
<path d="M1240.81 886.917C1241.88 898.58 1243.36 920.236 1241.88 927.848C1240.39 935.461 1228.3 955.186 1163.65 968.217C1099 981.248 1073.24 982.805 1073.24 982.805C1073.24 982.805 1033.26 990.68 1019.29 968.217C1004.78 944.855 1008.18 916.336 1070.31 884.198C1130.01 853.336 1176.79 841.561 1176.79 841.561L1240.81 886.917Z" fill="#5B77C9"/>
<path d="M1201.02 982.786H1073.52C1074.3 980.742 1077.77 976.748 1092.02 972.454L1093.75 971.948C1105 968.742 1112.76 966.323 1118.12 964.092C1124.31 961.579 1127.25 959.423 1128.36 956.854C1129.11 955.111 1118.29 944.78 1103.99 934.692L1177.94 929.292L1184.61 942.998C1187.85 946.106 1190.61 949.683 1192.79 953.611C1193.52 954.904 1194.17 956.217 1194.79 957.529C1198.35 965.513 1200.45 974.065 1201.02 982.786Z" fill="#C15D31"/>
<path d="M1092.9 715.786L1144.65 763.861L1111.2 795.473C1111.2 795.473 1051.8 745.298 1052.65 745.298C1053.49 745.298 1092.9 715.786 1092.9 715.786Z" fill="#C15D31"/>
<path d="M1067.78 751.767C1067.65 751.764 1067.52 751.725 1067.42 751.656C1067.31 751.587 1067.22 751.489 1067.16 751.373C1067.1 751.258 1067.08 751.129 1067.09 751C1067.1 750.871 1067.14 750.747 1067.22 750.642L1085.2 725.948C1085.32 725.825 1085.48 725.749 1085.65 725.734C1085.82 725.719 1085.99 725.766 1086.13 725.866C1086.27 725.966 1086.36 726.113 1086.4 726.279C1086.44 726.446 1086.42 726.621 1086.34 726.773L1068.36 751.467C1068.3 751.56 1068.21 751.635 1068.11 751.688C1068.01 751.74 1067.89 751.767 1067.78 751.767Z" fill="black"/>
<path d="M1275.01 877.898C1243.47 918.717 1152.23 872.123 1141.53 865.861C1154.52 878.219 1165.66 892.398 1174.58 907.954C1188.36 932.592 1185.14 941.48 1184.54 942.998L1118.26 944.873C1118.26 944.873 1102.79 942.886 1083.04 918.098C1063.3 893.311 1017.21 828.53 1008.64 813.698C1007.63 811.936 1006.47 809.63 1005.19 806.93C1001.62 799.325 1000.03 790.94 1000.57 782.555C1001.1 774.17 1003.75 766.057 1008.27 758.971C1012.78 751.885 1019.02 746.056 1026.39 742.026C1033.76 737.997 1042.04 735.897 1050.44 735.923C1069.05 735.858 1087.6 738.19 1105.62 742.861L1047.72 695.011C1047.72 695.011 1085.84 659.386 1106.5 631.261H1120.17C1130.54 638.461 1164.21 662.33 1188.25 684.08C1208.88 702.83 1240.36 734.704 1260.76 763.786C1263.44 767.536 1265.95 771.436 1268.26 775.148C1268.82 776.061 1269.36 776.98 1269.89 777.905C1273.18 783.55 1276.17 789.371 1278.83 795.342C1291.21 823.167 1294.53 852.661 1275.01 877.898Z" fill="#8EBF8C"/>
<path d="M1099.75 687.305C1100.25 679.673 1104.6 650.198 1104.6 650.198L1090.3 636.511L1082.31 628.861L1081.92 628.486L1101.1 609.736C1106.72 620.63 1120.28 631.43 1120.28 631.43L1099.75 687.305Z" fill="#C15D31"/>
<path d="M1096.07 618.098C1094.99 624.463 1093.05 630.651 1090.3 636.492L1082.31 628.861L1096.07 618.098Z" fill="black"/>
<path d="M1109.5 598.88C1107.48 603.594 1104.96 608.081 1102 612.267C1101.45 613.055 1100.91 613.805 1100.35 614.555C1096.41 619.972 1091.81 624.879 1086.66 629.161C1075.41 637.411 1056.66 629.798 1059.12 607.973C1060.6 594.998 1066.24 580.242 1074.83 571.617C1080.23 566.198 1086.77 563.198 1094.18 564.53C1097.39 565.169 1100.45 566.41 1103.2 568.186C1114.73 575.705 1114.34 587.517 1109.5 598.88Z" fill="#C15D31"/>
<path d="M1278.89 795.417L1256.69 806.836L1239.23 797.292L1215.44 784.955C1215.44 784.955 1240.56 771.267 1260.81 763.861C1263.49 767.611 1266 771.511 1268.31 775.223C1268.87 776.136 1269.42 777.055 1269.94 777.98C1273.24 783.625 1276.22 789.447 1278.89 795.417Z" fill="#4B764A"/>
<path d="M1275.01 877.898C1243.47 918.717 1152.23 872.123 1141.53 865.861C1154.52 878.219 1165.66 892.398 1174.58 907.954C1188.36 932.592 1185.14 941.479 1184.54 942.998L1118.26 944.873C1118.26 944.873 1102.79 942.886 1083.04 918.098C1063.3 893.311 1017.21 828.529 1008.64 813.698C1007.63 811.936 1006.47 809.629 1005.19 806.929C1001.62 799.325 1000.03 790.94 1000.57 782.555C1001.1 774.17 1003.75 766.057 1008.27 758.971C1012.78 751.885 1019.02 746.056 1026.39 742.026C1033.76 737.996 1042.04 735.897 1050.44 735.923C1069.05 735.858 1087.6 738.19 1105.62 742.861H1105.73C1204.19 766.167 1245.44 783.998 1245.44 783.998L1268.31 775.298C1268.88 776.211 1269.42 777.129 1269.94 778.054C1288.77 810.436 1298.67 847.261 1275.01 877.898Z" fill="#5B77C9"/>
<path d="M595.282 938.573C593.2 944.198 579.719 946.636 554.032 932.686L569.407 914.273C569.407 914.273 600.213 925.111 595.282 938.573Z" fill="black"/>
<path d="M518.462 887.217C518.462 887.686 447.793 982.842 447.793 982.842C428.687 984.023 347.837 983.142 321.043 983.442C294.25 983.742 284.556 982.842 284.556 982.842C298.693 977.648 296.2 946.88 296.2 946.88C275.35 943.523 252.85 943.673 250.506 944.536L249.887 944.798C247.15 946.111 244.487 949.43 242.65 955.13C241.208 959.366 240.368 963.784 240.156 968.255C239.95 972.905 239.668 974.105 244.543 977.048C249.418 979.992 250.562 982.936 250.562 982.936H221.818C218.856 982.936 211.975 973.786 211.375 970.88C210.775 967.973 213.118 940.111 215.35 915.305C217.225 895.617 218.425 877.598 220.731 875.723C223.975 873.098 232.787 875.611 247.993 879.286C262.036 882.77 276.257 885.492 290.593 887.442L292.468 887.686C332.743 892.823 420.418 898.223 420.418 898.223C420.418 898.223 428.425 801.455 429.325 754.542C430.562 690.08 435.381 672.511 439.487 654.08L521.2 739.992C522.925 758.742 518.462 886.748 518.462 887.217Z" fill="#F09400"/>
<path d="M585.55 982.786H447.793C453.118 971.236 459.25 959.686 465.456 948.83C477.246 928.44 490.114 908.693 504.006 889.673C532.787 866.161 577.712 909.23 577.712 909.23C577.206 909.98 550.206 940.973 541.093 954.117C535.187 962.573 566.95 975.192 576.062 975.923C582.156 976.411 585.568 977.142 585.55 982.786Z" fill="#FFDCAE"/>
<path d="M536.818 652.355C536.818 652.355 543.812 663.38 546.4 664.992C547.581 665.742 650.575 687.398 692.012 697.336C739.037 708.586 759.006 746.086 707.237 802.917C684.868 827.442 628.487 888.211 595.281 938.573C593.631 932.198 582.756 927.417 569.537 918.792C548.912 905.386 520.787 887.836 504.025 889.598C504.025 889.598 538.412 841.148 605.05 769.955C605.05 769.955 522.381 757.13 494.425 753.192C462.25 748.655 433.206 731.086 436.037 681.942C437.084 664.318 440.231 646.882 445.412 630.005L536.818 652.355Z" fill="#F09400"/>
<path d="M494.443 753.886H494.35C481.525 752.011 439.15 742.242 432.118 691.636C432.105 691.544 432.11 691.452 432.133 691.362C432.157 691.273 432.197 691.189 432.253 691.116C432.309 691.043 432.379 690.981 432.459 690.935C432.539 690.889 432.627 690.86 432.718 690.848C432.81 690.835 432.902 690.84 432.992 690.863C433.081 690.886 433.165 690.927 433.238 690.983C433.311 691.039 433.373 691.109 433.419 691.189C433.465 691.269 433.494 691.357 433.506 691.448C440.406 741.079 481.975 750.736 494.556 752.498C494.742 752.511 494.916 752.597 495.039 752.737C495.162 752.878 495.225 753.062 495.212 753.248C495.2 753.435 495.114 753.609 494.973 753.732C494.832 753.855 494.649 753.917 494.462 753.904L494.443 753.886Z" fill="black"/>
<path d="M581.332 499.298C581.332 499.298 598.582 528.286 620.069 548.817C641.557 569.348 676.319 598.561 687.794 605.442L683.932 625.692C683.932 625.692 619.619 576.942 575.688 522.567C575.688 522.53 576.607 500.742 581.332 499.298Z" fill="#EA4338"/>
<path d="M725.486 590.163L710.613 588.216C707.266 587.777 704.197 590.136 703.759 593.483L702.084 606.274C701.646 609.621 704.004 612.69 707.351 613.128L722.224 615.076C725.571 615.514 728.64 613.156 729.079 609.808L730.753 597.018C731.192 593.67 728.834 590.602 725.486 590.163Z" fill="#E4D0C0"/>
<path d="M774.196 596.544L759.323 594.596C755.976 594.158 752.907 596.516 752.469 599.864L750.794 612.654C750.356 616.002 752.714 619.07 756.061 619.509L770.934 621.456C774.282 621.894 777.35 619.536 777.789 616.189L779.464 603.398C779.902 600.051 777.544 596.982 774.196 596.544Z" fill="#E4D0C0"/>
<path d="M822.888 602.924L808.015 600.977C804.668 600.539 801.599 602.897 801.16 606.244L799.486 619.035C799.047 622.382 801.405 625.451 804.753 625.889L819.626 627.837C822.973 628.275 826.042 625.917 826.48 622.57L828.155 609.779C828.593 606.432 826.235 603.363 822.888 602.924Z" fill="#E4D0C0"/>
<path d="M871.396 609.281L856.523 607.333C853.176 606.895 850.107 609.253 849.668 612.601L847.994 625.391C847.555 628.739 849.913 631.807 853.261 632.246L868.134 634.193C871.481 634.632 874.55 632.273 874.988 628.926L876.663 616.135C877.101 612.788 874.743 609.719 871.396 609.281Z" fill="#E4D0C0"/>
<path d="M930.254 630.388L678.175 597.38L664.355 702.923L916.434 735.931L930.254 630.388Z" fill="#E4D0C0"/>
<path d="M930.269 631.092L678.082 598.073C677.924 598.021 677.79 597.915 677.702 597.774C677.614 597.633 677.579 597.466 677.601 597.302C677.623 597.137 677.702 596.986 677.824 596.873C677.946 596.761 678.103 596.695 678.269 596.686L930.438 629.705C930.605 629.732 930.756 629.818 930.866 629.946C930.975 630.075 931.035 630.239 931.035 630.408C931.035 630.577 930.975 630.74 930.866 630.869C930.756 630.998 930.605 631.083 930.438 631.111L930.269 631.092Z" fill="#C4DEFD"/>
<path d="M762.419 721.317C766.675 724.692 771.307 724.317 772.975 721.129C773.407 720.304 776.594 724.204 780.119 723.417C784.638 722.423 777.494 712.167 779.032 711.623C781.732 710.536 788.088 724.167 792.925 723.211C798.269 722.161 789.963 705.511 789.963 705.511C790.542 702.44 790.424 699.278 789.615 696.26C788.807 693.241 787.33 690.443 785.294 688.073C776.088 676.823 751.544 664.223 741.738 661.148L723.307 703.617C731.853 707.077 739.723 712.015 746.557 718.204C758.369 728.723 761.688 722.798 762.419 721.317Z" fill="#FFDCAE"/>
<path d="M655.657 452.048C655.282 465.979 642.907 485.798 629.088 492.436C614.838 499.317 604.507 488.536 604.507 480.454C602.395 481.179 600.334 482.043 598.338 483.042C591.569 486.286 584.013 490.879 584.013 490.879L570.232 472.729C583.113 466.992 606.982 454.786 606.982 454.786C607.225 450.679 609.869 446.873 613.525 446.611C613.525 446.611 621.775 431.498 639.082 433.317C656.388 435.136 655.657 452.048 655.657 452.048Z" fill="#FFDCAE"/>
<path d="M445.393 629.948C463.412 553.298 508.281 509.104 533.612 491.611C552.587 478.486 577.487 467.742 577.487 467.742L591.381 491.967C591.381 491.967 582.118 498.398 581.331 499.317C580.543 500.236 580.543 518.442 581.068 519.942C581.593 521.442 612.362 556.073 636.325 577.429C660.287 598.786 709.45 635.067 723.925 641.592C735.043 646.598 744.868 654.717 748.543 662.929C748.543 662.929 738.456 690.173 727.468 706.523C727.468 706.523 716.462 710.836 703.9 702.079C691.337 693.323 643.9 661.673 626.125 648.398C605.181 632.723 583.3 609.717 565.393 593.592C565.393 593.592 540.231 647.086 536.425 652.992C533.312 652.298 445.393 629.948 445.393 629.948Z" fill="#EA4338"/>
<path d="M780.1 724.13C779.916 724.149 779.732 724.095 779.588 723.979C779.444 723.863 779.351 723.695 779.332 723.511C779.312 723.327 779.366 723.142 779.482 722.998C779.598 722.854 779.766 722.762 779.95 722.742C780.115 722.72 780.273 722.66 780.41 722.565C780.547 722.471 780.659 722.345 780.738 722.198C781.394 720.942 780.138 717.867 779.219 715.636C778.3 713.405 777.869 712.28 778.188 711.53C778.241 711.406 778.318 711.295 778.414 711.201C778.511 711.108 778.625 711.035 778.75 710.986C780.438 710.292 782.294 712.655 784.863 715.898C787.432 719.142 790.488 722.986 792.775 722.536C792.978 722.504 793.171 722.423 793.334 722.298C793.498 722.174 793.628 722.011 793.713 721.823C795.175 718.842 791.05 709.28 789.325 705.848C789.266 705.691 789.266 705.518 789.325 705.361C789.871 702.388 789.748 699.33 788.963 696.411C788.178 693.492 786.751 690.784 784.788 688.486C777.625 679.767 760.713 669.736 748.038 664.298C747.869 664.228 747.736 664.094 747.666 663.925C747.595 663.757 747.594 663.568 747.663 663.398L747.832 662.948C744.288 655.261 735.063 647.348 723.682 642.23C708.457 635.367 659.125 598.636 635.913 577.955C612.7 557.273 581.163 522.267 580.45 520.167C580.424 520.001 580.457 519.83 580.544 519.686C580.631 519.542 580.766 519.433 580.926 519.379C581.085 519.325 581.259 519.329 581.415 519.391C581.572 519.453 581.702 519.569 581.782 519.717C582.738 521.592 613.207 555.848 636.832 576.905C661.45 598.842 710.482 634.748 724.244 640.955C736.057 646.261 745.619 654.586 749.219 662.648C749.286 662.817 749.286 663.005 749.219 663.173V663.267C761.969 668.892 778.675 678.83 785.875 687.642C787.956 690.061 789.473 692.913 790.316 695.99C791.159 699.068 791.307 702.294 790.75 705.436C791.782 707.536 796.975 718.561 795.025 722.442C794.851 722.819 794.59 723.149 794.265 723.407C793.939 723.664 793.557 723.841 793.15 723.923C790.057 724.523 786.757 720.417 783.775 716.78C782.407 715.055 780.419 712.542 779.519 712.298C779.784 713.266 780.123 714.213 780.532 715.13C781.657 717.905 782.95 721.036 781.994 722.873C781.817 723.2 781.568 723.483 781.266 723.701C780.964 723.918 780.617 724.065 780.25 724.13H780.1Z" fill="black"/>
<path d="M678.775 612.173C678.628 612.173 678.483 612.127 678.363 612.042C661.732 599.648 646.244 587.236 635.875 577.992C612.682 557.367 581.125 522.305 580.413 520.205C579.993 515.774 579.874 511.32 580.057 506.873C580.04 506.771 580.046 506.667 580.073 506.567C580.101 506.468 580.15 506.375 580.217 506.297C580.284 506.218 580.367 506.155 580.461 506.111C580.554 506.068 580.656 506.046 580.76 506.046C580.863 506.046 580.965 506.068 581.059 506.111C581.153 506.155 581.236 506.218 581.303 506.297C581.37 506.375 581.419 506.468 581.446 506.567C581.474 506.667 581.48 506.771 581.463 506.873C581.295 511.163 581.395 515.459 581.763 519.736C582.719 521.611 613.188 555.867 636.813 576.923C647.144 586.13 662.613 598.523 679.207 610.898C679.322 610.988 679.408 611.111 679.451 611.251C679.494 611.391 679.493 611.541 679.448 611.68C679.403 611.82 679.316 611.942 679.199 612.03C679.082 612.118 678.941 612.168 678.794 612.173H678.775Z" fill="black"/>
<path d="M674.444 454.973C666.944 449.592 662.069 436.223 660.063 428.723C658.188 421.655 647.463 419.836 642.907 424.486C624.513 414.83 614.688 436.617 613.525 446.517C618.438 446.123 621.475 449.442 620.482 454.411C629.857 453.68 635.913 448.355 640.675 438.173C640.675 438.173 641.182 447.098 645.419 452.78C650.725 459.98 660.944 458.855 674.444 454.973Z" fill="#C15D31"/>
<path d="M1109.5 598.88C1107.48 603.594 1104.96 608.081 1102 612.267C1107.62 603.229 1100.37 598.148 1096.5 600.755C1091.42 597.698 1091.03 588.023 1095.62 584.367C1090 585.548 1086.25 580.973 1089.68 574.505C1082.99 577.467 1077.12 576.604 1074.68 571.786C1080.08 566.367 1086.62 563.367 1094.03 564.698C1097.24 565.338 1100.3 566.578 1103.05 568.355C1114.73 575.705 1114.34 587.517 1109.5 598.88Z" fill="black"/>
<path d="M1094.87 608.273C1094.78 608.284 1094.69 608.277 1094.6 608.253C1094.51 608.228 1094.43 608.186 1094.36 608.13C1094.29 608.073 1094.23 608.003 1094.18 607.923C1094.14 607.843 1094.11 607.755 1094.1 607.664C1094.08 607.573 1094.09 607.48 1094.12 607.392C1094.14 607.304 1094.18 607.221 1094.24 607.149C1094.3 607.076 1094.37 607.016 1094.45 606.971C1094.53 606.926 1094.61 606.897 1094.7 606.886L1100.33 605.442C1100.51 605.395 1100.7 605.422 1100.87 605.516C1101.03 605.611 1101.15 605.767 1101.19 605.948C1101.24 606.13 1101.21 606.323 1101.12 606.484C1101.02 606.646 1100.87 606.764 1100.69 606.811L1095.06 608.254L1094.87 608.273Z" fill="black"/>
<path d="M1109.5 598.88C1111.37 580.13 1104.59 569.442 1093.95 564.698C1097.16 565.338 1100.22 566.578 1102.97 568.355C1114.73 575.705 1114.34 587.517 1109.5 598.88Z" fill="#F09400"/>
<path d="M1087.02 595.617C1086.86 595.619 1086.72 595.57 1086.59 595.478C1086.47 595.387 1086.38 595.258 1086.34 595.111C1085.79 594.124 1084.91 593.353 1083.87 592.925C1082.82 592.496 1081.66 592.434 1080.57 592.748C1080.4 592.757 1080.23 592.704 1080.09 592.597C1079.95 592.491 1079.86 592.339 1079.83 592.169C1079.8 592 1079.83 591.825 1079.92 591.676C1080 591.527 1080.14 591.415 1080.3 591.361C1081.73 590.981 1083.25 591.106 1084.59 591.714C1085.94 592.322 1087.03 593.376 1087.69 594.698C1087.75 594.877 1087.73 595.07 1087.64 595.235C1087.55 595.399 1087.4 595.523 1087.22 595.58L1087.02 595.617Z" fill="black"/>
<path d="M1066.24 607.805C1066.07 607.8 1065.9 607.731 1065.77 607.61C1065.64 607.489 1065.56 607.324 1065.55 607.148C1065.43 606.031 1064.95 604.981 1064.2 604.148C1063.64 603.544 1063.21 602.83 1062.95 602.052C1062.68 601.274 1062.58 600.449 1062.64 599.63C1062.87 597.473 1065.14 596.48 1067.33 595.523C1069.24 594.983 1070.9 593.797 1072.04 592.167C1072.29 591.606 1072.36 590.98 1072.24 590.375C1072.13 589.771 1071.82 589.218 1071.38 588.792C1070.76 588.097 1069.97 587.578 1069.08 587.288C1068.19 586.999 1067.25 586.948 1066.34 587.142C1066.16 587.204 1065.97 587.194 1065.8 587.113C1065.63 587.032 1065.5 586.887 1065.44 586.711C1065.37 586.534 1065.38 586.34 1065.47 586.171C1065.55 586.003 1065.69 585.873 1065.87 585.811C1067.04 585.528 1068.27 585.566 1069.42 585.923C1070.57 586.279 1071.6 586.94 1072.41 587.836C1073.05 588.464 1073.47 589.272 1073.63 590.151C1073.79 591.029 1073.68 591.936 1073.31 592.748C1072.35 594.867 1069.97 595.898 1067.89 596.817C1065.81 597.736 1064.14 598.448 1064.03 599.78C1063.98 600.424 1064.07 601.07 1064.29 601.677C1064.51 602.285 1064.86 602.839 1065.3 603.305C1066.23 604.352 1066.8 605.664 1066.94 607.055C1066.94 607.147 1066.93 607.24 1066.9 607.329C1066.87 607.417 1066.83 607.499 1066.77 607.569C1066.71 607.638 1066.63 607.695 1066.55 607.736C1066.46 607.777 1066.37 607.8 1066.28 607.805H1066.24Z" fill="black"/>
<path d="M1080.28 597.257C1080.81 596.189 1080.74 595.078 1080.12 594.776C1079.51 594.473 1078.59 595.094 1078.06 596.162C1077.53 597.229 1077.6 598.34 1078.21 598.643C1078.83 598.945 1079.75 598.325 1080.28 597.257Z" fill="black"/>
<path d="M635.326 466.815C635.973 465.815 636.033 464.703 635.459 464.332C634.886 463.961 633.896 464.47 633.249 465.47C632.601 466.469 632.542 467.581 633.116 467.952C633.689 468.324 634.679 467.814 635.326 466.815Z" fill="black"/>
<path d="M645.874 474.831C646.586 473.877 646.72 472.772 646.172 472.363C645.624 471.954 644.603 472.396 643.891 473.35C643.178 474.305 643.045 475.41 643.592 475.819C644.14 476.227 645.162 475.785 645.874 474.831Z" fill="black"/>
<path d="M1069.76 592.051C1070.28 590.983 1070.21 589.873 1069.6 589.57C1068.99 589.268 1068.07 589.888 1067.54 590.956C1067.01 592.024 1067.08 593.135 1067.69 593.437C1068.31 593.74 1069.23 593.119 1069.76 592.051Z" fill="black"/>
<path d="M1067.14 614.405C1070.79 614.67 1074.47 614.437 1078.05 613.711C1076.57 619.805 1068.45 624.08 1067.14 614.405Z" fill="white"/>
<path d="M1141.52 866.573C1141.36 866.572 1141.2 866.513 1141.07 866.405C1140.91 866.255 1123.6 851.761 1116.47 844.823C1116.41 844.759 1116.35 844.683 1116.32 844.598C1116.28 844.514 1116.26 844.423 1116.26 844.33C1116.26 844.238 1116.27 844.146 1116.31 844.06C1116.34 843.974 1116.39 843.896 1116.46 843.83C1116.52 843.763 1116.6 843.71 1116.68 843.673C1116.76 843.636 1116.86 843.616 1116.95 843.614C1117.04 843.613 1117.13 843.629 1117.22 843.663C1117.3 843.696 1117.38 843.747 1117.45 843.811C1124.54 850.711 1141.82 865.167 1141.97 865.317C1142.09 865.408 1142.17 865.532 1142.21 865.672C1142.25 865.812 1142.25 865.961 1142.2 866.098C1142.15 866.235 1142.05 866.353 1141.93 866.435C1141.81 866.517 1141.67 866.559 1141.52 866.555V866.573Z" fill="black"/>
<path d="M1177.94 943.898C1177.82 943.899 1177.7 943.868 1177.59 943.809C1177.49 943.75 1177.4 943.664 1177.34 943.561L1166.29 925.298C1166.2 925.139 1166.17 924.949 1166.22 924.77C1166.26 924.59 1166.38 924.436 1166.54 924.342C1166.7 924.247 1166.89 924.22 1167.06 924.266C1167.24 924.311 1167.4 924.427 1167.49 924.586L1178.46 942.886C1178.52 942.993 1178.56 943.114 1178.56 943.238C1178.56 943.361 1178.53 943.483 1178.47 943.591C1178.4 943.699 1178.32 943.789 1178.21 943.853C1178.11 943.916 1177.98 943.952 1177.86 943.954L1177.94 943.898Z" fill="black"/>
<path d="M1161.15 944.367C1161.03 944.366 1160.92 944.335 1160.81 944.276C1160.71 944.217 1160.62 944.132 1160.55 944.029L1149.81 926.123C1149.72 925.964 1149.69 925.774 1149.73 925.595C1149.78 925.415 1149.9 925.261 1150.05 925.167C1150.21 925.073 1150.4 925.045 1150.58 925.091C1150.76 925.137 1150.92 925.252 1151.01 925.411L1161.72 943.317C1161.78 943.424 1161.81 943.545 1161.81 943.669C1161.81 943.793 1161.78 943.914 1161.72 944.022C1161.66 944.13 1161.57 944.22 1161.47 944.284C1161.36 944.348 1161.24 944.383 1161.12 944.386L1161.15 944.367Z" fill="black"/>
<path d="M1142.97 944.854C1142.86 944.854 1142.75 944.828 1142.65 944.779C1142.56 944.731 1142.47 944.66 1142.4 944.573L1129.28 927.511C1129.2 927.441 1129.14 927.355 1129.1 927.26C1129.06 927.164 1129.04 927.06 1129.04 926.956C1129.05 926.852 1129.07 926.75 1129.12 926.657C1129.17 926.564 1129.24 926.483 1129.32 926.419C1129.4 926.355 1129.5 926.309 1129.6 926.286C1129.7 926.263 1129.8 926.262 1129.91 926.284C1130.01 926.306 1130.1 926.35 1130.19 926.413C1130.27 926.476 1130.34 926.556 1130.39 926.648L1143.51 943.711C1143.59 943.814 1143.64 943.939 1143.66 944.07C1143.67 944.202 1143.65 944.334 1143.59 944.452C1143.53 944.571 1143.44 944.669 1143.32 944.737C1143.21 944.805 1143.08 944.839 1142.95 944.836L1142.97 944.854Z" fill="black"/>
<path d="M1127.69 945.286C1127.59 945.284 1127.49 945.262 1127.4 945.22C1127.31 945.178 1127.23 945.117 1127.16 945.042L1112.82 928.298C1112.74 928.231 1112.68 928.148 1112.64 928.055C1112.59 927.962 1112.57 927.861 1112.57 927.758C1112.57 927.656 1112.59 927.555 1112.64 927.461C1112.68 927.368 1112.74 927.286 1112.82 927.219C1112.9 927.152 1112.99 927.103 1113.09 927.074C1113.18 927.046 1113.29 927.039 1113.39 927.055C1113.49 927.07 1113.59 927.107 1113.67 927.163C1113.76 927.219 1113.83 927.293 1113.89 927.38L1128.23 944.123C1128.32 944.223 1128.38 944.348 1128.4 944.482C1128.43 944.616 1128.41 944.754 1128.35 944.878C1128.29 945.002 1128.2 945.106 1128.09 945.179C1127.97 945.251 1127.84 945.288 1127.7 945.286H1127.69Z" fill="black"/>
<path d="M1085.76 727.073C1085.62 727.076 1085.48 727.037 1085.37 726.961C1085.22 726.855 1085.11 726.693 1085.08 726.511C1085.04 726.329 1085.08 726.141 1085.18 725.986C1085.37 725.723 1103.44 699.08 1106.35 693.942C1106.38 693.844 1106.44 693.754 1106.51 693.68C1106.59 693.605 1106.67 693.548 1106.77 693.512C1106.87 693.475 1106.97 693.46 1107.08 693.469C1107.18 693.477 1107.28 693.508 1107.37 693.56C1107.46 693.611 1107.54 693.682 1107.6 693.767C1107.66 693.852 1107.7 693.95 1107.72 694.052C1107.74 694.155 1107.74 694.26 1107.71 694.361C1107.68 694.462 1107.63 694.556 1107.57 694.636C1104.62 699.83 1087.07 725.686 1086.32 726.773C1086.26 726.865 1086.18 726.94 1086.08 726.992C1085.98 727.044 1085.87 727.072 1085.76 727.073Z" fill="black"/>
<path d="M1115.74 676.467C1115.6 676.47 1115.47 676.431 1115.35 676.355C1115.19 676.251 1115.09 676.091 1115.05 675.909C1115.01 675.727 1115.04 675.537 1115.14 675.38C1122.89 663.586 1131.12 658.298 1139.52 659.667C1139.61 659.681 1139.7 659.713 1139.78 659.761C1139.86 659.809 1139.92 659.872 1139.98 659.948C1140.03 660.023 1140.07 660.108 1140.09 660.198C1140.11 660.289 1140.11 660.382 1140.1 660.473C1140.07 660.656 1139.96 660.819 1139.81 660.928C1139.66 661.036 1139.48 661.082 1139.29 661.055C1131.42 659.78 1123.67 664.805 1116.25 676.148C1116.19 676.235 1116.12 676.308 1116.03 676.363C1115.94 676.418 1115.84 676.454 1115.74 676.467Z" fill="black"/>
<path d="M1148.8 750.098C1148.67 750.102 1148.54 750.068 1148.42 750C1148.31 749.932 1148.22 749.833 1148.16 749.715C1148.1 749.597 1148.08 749.464 1148.09 749.333C1148.1 749.201 1148.15 749.077 1148.24 748.973C1148.35 748.823 1159.84 733.092 1164.02 726.004C1164.13 725.869 1164.28 725.777 1164.45 725.744C1164.62 725.712 1164.79 725.742 1164.94 725.829C1165.09 725.916 1165.2 726.054 1165.26 726.217C1165.31 726.38 1165.31 726.558 1165.24 726.717C1161.02 733.861 1149.49 749.629 1149.38 749.798C1149.32 749.892 1149.23 749.969 1149.13 750.021C1149.03 750.073 1148.91 750.1 1148.8 750.098Z" fill="black"/>
<path d="M1096.07 711.755C1095.98 711.75 1095.89 711.727 1095.81 711.686C1095.72 711.645 1095.65 711.589 1095.59 711.519C1095.53 711.449 1095.48 711.367 1095.45 711.279C1095.42 711.19 1095.41 711.097 1095.42 711.005C1095.89 702.939 1097.14 694.939 1099.17 687.117C1099.23 686.959 1099.35 686.829 1099.5 686.752C1099.66 686.674 1099.83 686.654 1100 686.695C1100.16 686.736 1100.31 686.835 1100.41 686.975C1100.51 687.114 1100.55 687.284 1100.54 687.455C1098.55 695.192 1097.33 703.105 1096.88 711.08C1096.88 711.179 1096.86 711.278 1096.81 711.368C1096.77 711.458 1096.71 711.538 1096.63 711.602C1096.56 711.666 1096.47 711.713 1096.37 711.739C1096.27 711.766 1096.17 711.771 1096.07 711.755Z" fill="black"/>
<path d="M1201.02 984.23H1073.24C1073.13 983.741 1073.2 983.231 1073.42 982.786C1074.21 980.742 1077.68 976.748 1091.93 972.455L1093.65 971.948C1104.9 968.742 1112.67 966.323 1118.03 964.092C1122.57 966.984 1126.37 970.894 1129.13 975.511C1129.13 975.511 1159.52 973.392 1161.15 973.092C1162.41 972.867 1183.22 959.667 1192.71 953.611C1193.44 954.905 1194.1 956.217 1194.72 957.53C1198.17 965.546 1200.27 974.081 1200.92 982.786C1201 983.705 1201.02 984.23 1201.02 984.23Z" fill="#F09400"/>
<path d="M1222.8 911.142C1222.65 911.131 1222.5 911.068 1222.38 910.964C1222.27 910.861 1222.19 910.721 1222.16 910.567C1222.13 910.414 1222.15 910.255 1222.22 910.115C1222.29 909.974 1222.4 909.861 1222.54 909.792L1241.74 902.292C1241.91 902.257 1242.08 902.282 1242.23 902.363C1242.38 902.444 1242.49 902.575 1242.55 902.733C1242.61 902.891 1242.62 903.065 1242.56 903.225C1242.51 903.385 1242.39 903.519 1242.25 903.605L1223.05 911.105L1222.8 911.142Z" fill="black"/>
<path d="M1222.81 927.811C1222.65 927.8 1222.51 927.74 1222.39 927.641C1222.27 927.541 1222.19 927.406 1222.16 927.257C1222.13 927.107 1222.14 926.951 1222.2 926.811C1222.27 926.671 1222.37 926.555 1222.51 926.48L1242.19 916.973C1242.36 916.913 1242.54 916.917 1242.7 916.983C1242.87 917.049 1243 917.174 1243.08 917.332C1243.15 917.491 1243.17 917.672 1243.12 917.841C1243.07 918.01 1242.96 918.155 1242.81 918.248L1223.12 927.755C1223.02 927.798 1222.91 927.817 1222.81 927.811Z" fill="black"/>
<path d="M892.507 898.823C892.373 898.826 892.241 898.791 892.127 898.72C892.013 898.65 891.922 898.548 891.864 898.427C891.807 898.307 891.785 898.172 891.803 898.039C891.82 897.906 891.876 897.781 891.963 897.679C894.138 894.967 896.624 892.519 899.369 890.386C899.526 890.323 899.699 890.318 899.859 890.371C900.019 890.424 900.155 890.533 900.242 890.676C900.33 890.82 900.364 890.991 900.338 891.157C900.312 891.323 900.228 891.475 900.1 891.586C897.498 893.641 895.133 895.98 893.05 898.561C892.985 898.643 892.903 898.709 892.809 898.754C892.714 898.8 892.611 898.823 892.507 898.823Z" fill="black"/>
<path d="M886.694 931.992H886.488C886.31 931.936 886.161 931.812 886.073 931.647C885.986 931.482 885.966 931.29 886.019 931.111C889.282 920.311 898.038 905.048 906.494 899.236C906.647 899.167 906.82 899.154 906.981 899.2C907.143 899.245 907.283 899.346 907.377 899.485C907.471 899.624 907.513 899.792 907.496 899.959C907.478 900.126 907.402 900.282 907.282 900.398C899.969 905.423 891.063 919.373 887.313 931.486C887.274 931.624 887.194 931.746 887.084 931.837C886.973 931.928 886.837 931.982 886.694 931.992Z" fill="black"/>
<path d="M896.313 932.798C896.134 932.794 895.962 932.722 895.834 932.597C895.705 932.472 895.629 932.303 895.619 932.123C895.488 927.417 901.432 917.255 918.588 904.167C918.662 904.11 918.746 904.069 918.836 904.045C918.926 904.021 919.02 904.015 919.112 904.027C919.204 904.039 919.293 904.069 919.374 904.116C919.454 904.162 919.525 904.224 919.582 904.298C919.638 904.372 919.68 904.456 919.704 904.546C919.728 904.636 919.734 904.73 919.722 904.822C919.71 904.915 919.679 905.004 919.633 905.084C919.586 905.165 919.524 905.235 919.45 905.292C901.544 918.942 896.95 928.561 896.95 932.086C896.956 932.272 896.888 932.452 896.762 932.589C896.636 932.725 896.461 932.807 896.275 932.817L896.313 932.798Z" fill="black"/>
<path d="M1290.66 224.63H1155.81V417.942H1290.66V224.63Z" fill="#E4D0C0"/>
<path d="M1274.87 239.461H1171.6V403.111H1274.87V239.461Z" fill="#C4DEFD"/>
<path d="M1249.37 279.867H1197.08V362.723H1249.37V279.867Z" fill="white"/>
<path d="M1368.77 452.498H1230.74V528.117H1368.77V452.498Z" fill="#E4D0C0"/>
<path d="M1355.74 465.192H1243.77V515.442H1355.74V465.192Z" fill="white"/>
<path d="M623.95 483.155C623.069 482.573 620.5 480.848 621.1 475.355C621.11 475.263 621.137 475.175 621.181 475.094C621.225 475.013 621.284 474.942 621.356 474.885C621.427 474.827 621.509 474.784 621.597 474.759C621.686 474.733 621.778 474.725 621.869 474.736C621.96 474.745 622.049 474.772 622.13 474.816C622.21 474.86 622.281 474.919 622.339 474.991C622.397 475.062 622.439 475.145 622.465 475.233C622.49 475.321 622.498 475.413 622.488 475.505C621.982 480.155 623.95 481.467 624.7 481.955L623.95 483.155Z" fill="black"/>
<path d="M639.082 461.086C638.899 461.081 638.725 461.006 638.596 460.877C638.467 460.748 638.393 460.575 638.388 460.392C638.411 459.896 638.306 459.403 638.082 458.959C637.859 458.516 637.525 458.138 637.113 457.861C636.363 457.483 635.534 457.287 634.694 457.287C633.854 457.287 633.026 457.483 632.275 457.861C632.19 457.896 632.099 457.915 632.007 457.916C631.915 457.916 631.824 457.898 631.738 457.864C631.653 457.829 631.575 457.777 631.51 457.713C631.444 457.648 631.392 457.571 631.357 457.486C631.321 457.401 631.302 457.31 631.302 457.218C631.301 457.125 631.319 457.034 631.354 456.949C631.389 456.863 631.44 456.786 631.505 456.72C631.57 456.655 631.647 456.603 631.732 456.567C632.699 456.109 633.762 455.888 634.832 455.924C635.902 455.96 636.947 456.251 637.882 456.773C638.493 457.182 638.987 457.743 639.315 458.4C639.644 459.058 639.796 459.789 639.757 460.523C639.757 460.709 639.684 460.887 639.555 461.021C639.425 461.154 639.249 461.231 639.063 461.236L639.082 461.086Z" fill="black"/>
<path d="M635.163 481.636C633.939 481.492 632.784 480.989 631.844 480.192C631.308 479.817 630.75 479.473 630.175 479.161C630.011 479.074 629.888 478.925 629.834 478.747C629.779 478.57 629.798 478.378 629.885 478.214C629.972 478.05 630.12 477.927 630.298 477.872C630.476 477.818 630.667 477.836 630.832 477.923C631.478 478.255 632.104 478.624 632.707 479.029C633.832 479.798 634.732 480.398 635.613 480.192C636.494 479.986 637.657 478.748 638.894 476.442C642.832 469.242 644.144 467.779 645.832 467.236C646.822 466.891 647.904 466.918 648.877 467.311C649.849 467.704 650.646 468.437 651.119 469.373C651.168 469.452 651.202 469.54 651.217 469.631C651.232 469.723 651.229 469.817 651.209 469.907C651.188 469.998 651.149 470.083 651.095 470.159C651.041 470.235 650.973 470.299 650.894 470.348C650.815 470.397 650.728 470.431 650.636 470.446C650.544 470.461 650.451 470.458 650.36 470.438C650.269 470.417 650.184 470.378 650.108 470.324C650.033 470.27 649.968 470.202 649.919 470.123C649.606 469.438 649.045 468.898 648.348 468.613C647.652 468.327 646.873 468.318 646.169 468.586C644.988 468.961 643.769 470.329 640.038 477.136C638.557 479.854 637.263 481.204 635.857 481.542C635.63 481.6 635.397 481.631 635.163 481.636Z" fill="black"/>
<path d="M614.819 456.286C614.654 456.284 614.495 456.225 614.368 456.119C614.242 456.013 614.156 455.867 614.125 455.704L613.132 450.079C613.099 449.982 613.088 449.879 613.098 449.777C613.109 449.675 613.142 449.576 613.194 449.488C613.247 449.4 613.318 449.324 613.402 449.266C613.486 449.207 613.583 449.168 613.684 449.15C613.785 449.132 613.888 449.137 613.988 449.163C614.087 449.189 614.179 449.236 614.259 449.301C614.338 449.366 614.403 449.448 614.447 449.54C614.492 449.632 614.517 449.733 614.519 449.836L615.513 455.461C615.54 455.644 615.495 455.831 615.386 455.982C615.278 456.133 615.115 456.235 614.932 456.267L614.819 456.286Z" fill="black"/>
<path d="M605.65 470.929C604.87 474.037 604.486 477.231 604.507 480.436C602.395 481.16 600.334 482.025 598.338 483.023C598 477.942 602.163 471.998 605.65 470.929Z" fill="black"/>
<path d="M789.963 706.223C789.828 706.224 789.696 706.185 789.583 706.112C789.469 706.039 789.38 705.934 789.325 705.811C786.214 699.841 782.204 694.384 777.438 689.63C777.309 689.495 777.238 689.315 777.241 689.129C777.245 688.942 777.322 688.765 777.457 688.636C777.591 688.506 777.771 688.436 777.957 688.439C778.144 688.443 778.321 688.52 778.45 688.655C783.327 693.516 787.425 699.101 790.6 705.211C790.641 705.294 790.665 705.385 790.67 705.478C790.675 705.571 790.662 705.664 790.63 705.751C790.599 705.838 790.55 705.919 790.487 705.987C790.424 706.055 790.348 706.11 790.263 706.148C790.17 706.196 790.067 706.221 789.963 706.223Z" fill="black"/>
<path d="M585.55 982.786H447.793C453.118 971.236 459.25 959.686 465.456 948.83C470.224 954.552 474.609 960.584 478.581 966.886L515.743 968.348C515.743 968.348 522.418 958.88 524.312 956.236C526.206 953.592 528.887 954.023 541.056 954.023C535.187 962.573 566.95 975.192 576.062 975.923C582.156 976.411 585.568 977.142 585.55 982.786Z" fill="#C15D31"/>
<path d="M296.2 946.823C275.35 943.467 252.85 943.617 250.506 944.48L249.887 944.742C247.15 946.054 244.487 949.373 242.65 955.073C241.208 959.31 240.368 963.728 240.156 968.198C239.95 972.848 239.668 974.048 244.543 976.992C249.418 979.936 250.562 982.879 250.562 982.879H221.818C218.856 982.879 211.975 973.729 211.375 970.823C210.775 967.917 213.118 940.055 215.35 915.248C217.225 895.561 218.425 877.542 220.731 875.667C223.975 873.042 232.787 875.554 247.993 879.229C262.036 882.713 276.257 885.436 290.593 887.386L292.468 887.629C298.093 905.273 296.293 935.873 296.2 946.823Z" fill="#FFDCAE"/>
<path d="M250.562 982.786H221.818C218.856 982.786 211.975 973.636 211.375 970.73C210.775 967.823 213.118 939.961 215.35 915.155C217.225 895.467 218.425 877.448 220.731 875.573C223.975 872.948 232.787 875.461 247.993 879.136C243.512 884.48 234.756 895.073 234.268 896.517C233.631 898.392 233.05 911.517 232.393 920.142C231.662 930.83 232.75 929.517 234.793 931.767C236.837 934.017 245.837 929.405 246.437 933.192C247.218 937.137 248.354 941.002 249.831 944.742C247.093 946.055 244.431 949.373 242.593 955.073C241.152 959.31 240.312 963.728 240.1 968.198C239.893 972.848 239.612 974.048 244.487 976.992C249.362 979.936 250.562 982.786 250.562 982.786Z" fill="#C15D31"/>
<path d="M1116.79 945.286H1116.53C1105.28 940.917 1091.95 930.417 1082.48 918.548C1078.62 913.711 1073.67 907.298 1067.72 899.255C1067.61 899.105 1067.56 898.918 1067.59 898.733C1067.62 898.549 1067.72 898.382 1067.86 898.27C1068.01 898.158 1068.2 898.11 1068.39 898.137C1068.57 898.163 1068.74 898.262 1068.85 898.411C1074.77 906.361 1079.72 912.848 1083.57 917.686C1092.94 929.367 1106.07 939.698 1117.02 943.936C1117.16 944.005 1117.27 944.118 1117.34 944.258C1117.41 944.398 1117.43 944.558 1117.4 944.711C1117.37 944.865 1117.29 945.004 1117.18 945.108C1117.06 945.212 1116.91 945.274 1116.76 945.286H1116.79Z" fill="black"/>
<path d="M1184.54 943.711C1184.44 943.706 1184.35 943.683 1184.27 943.642C1184.19 943.602 1184.11 943.545 1184.05 943.475C1183.99 943.405 1183.94 943.323 1183.91 943.235C1183.88 943.147 1183.87 943.054 1183.88 942.961C1184.76 930.417 1180.56 920.03 1174.02 908.311C1165.11 892.837 1154.03 878.724 1141.11 866.405C1140.96 866.295 1140.86 866.131 1140.83 865.948C1140.81 865.765 1140.85 865.579 1140.96 865.43C1141.07 865.28 1141.23 865.181 1141.42 865.153C1141.6 865.125 1141.79 865.17 1141.94 865.28C1156 873.511 1204.47 896.386 1241.4 893.536C1241.58 893.546 1241.74 893.618 1241.86 893.739C1241.98 893.859 1242.06 894.019 1242.07 894.19C1242.08 894.361 1242.04 894.531 1241.93 894.669C1241.83 894.808 1241.68 894.904 1241.52 894.942C1204.45 897.773 1159.82 876.323 1145.72 868.936C1157.2 880.504 1167.13 893.513 1175.25 907.636C1181.93 919.58 1186.2 930.136 1185.3 943.073C1185.29 943.259 1185.19 943.43 1185.05 943.549C1184.91 943.669 1184.72 943.727 1184.54 943.711Z" fill="black"/>
<path d="M875.144 848.123C869.95 850.355 865.282 846.248 866.707 841.954C867.026 841.024 867.434 840.126 867.925 839.273C867.961 839.833 868.121 840.377 868.394 840.867C869.95 843.042 873.607 842.367 876.119 835.804C876.813 833.929 877.413 832.242 877.994 830.667C882.063 829.261 885.307 829.73 885.832 832.261C886.132 834.098 881.688 845.311 875.144 848.123Z" fill="#C15D31"/>
<path d="M872.219 849.454C870.531 849.479 868.896 848.862 867.644 847.73C866.823 846.998 866.234 846.041 865.951 844.978C865.667 843.915 865.702 842.792 866.05 841.748C866.385 840.772 866.811 839.83 867.325 838.936C867.398 838.807 867.51 838.705 867.645 838.644C867.78 838.583 867.931 838.567 868.075 838.598C868.221 838.625 868.354 838.698 868.455 838.806C868.556 838.914 868.62 839.051 868.638 839.198C868.655 839.635 868.763 840.063 868.957 840.455C869.148 840.743 869.416 840.973 869.731 841.119C870.045 841.264 870.394 841.32 870.738 841.28C872.425 841.055 874.188 838.936 875.482 835.655C876.082 834.117 876.663 832.448 877.357 830.555C877.39 830.452 877.446 830.358 877.52 830.28C877.595 830.202 877.687 830.142 877.788 830.105C878.895 829.595 880.094 829.316 881.312 829.283C882.531 829.251 883.743 829.467 884.875 829.917C885.305 830.157 885.677 830.487 885.965 830.886C886.253 831.284 886.451 831.74 886.544 832.223C887.032 834.604 882.194 846.004 875.519 848.873C874.471 849.293 873.347 849.491 872.219 849.454ZM867.775 841.186C867.638 841.523 867.513 841.855 867.4 842.18C867.136 842.966 867.111 843.813 867.328 844.614C867.545 845.415 867.994 846.134 868.619 846.68C869.475 847.41 870.525 847.874 871.642 848.014C872.758 848.154 873.891 847.964 874.9 847.467C881.257 844.729 885.382 833.779 885.1 832.467C885.054 832.177 884.939 831.902 884.767 831.664C884.594 831.426 884.368 831.233 884.107 831.098C882.278 830.428 880.261 830.495 878.482 831.286C877.9 833.067 877.338 834.642 876.775 836.123C875.275 840.023 873.138 842.442 870.907 842.723C870.316 842.801 869.715 842.712 869.172 842.467C868.629 842.222 868.165 841.83 867.832 841.336L867.775 841.186Z" fill="black"/>
<path d="M870.438 842.686C869.916 842.684 869.402 842.555 868.942 842.31C868.481 842.065 868.087 841.711 867.794 841.279C867.446 840.712 867.241 840.069 867.194 839.404C866.707 835.842 866.988 827.686 867.663 814.804C867.668 814.713 867.69 814.624 867.73 814.542C867.769 814.459 867.824 814.386 867.892 814.325C867.96 814.264 868.04 814.217 868.126 814.186C868.212 814.156 868.303 814.143 868.394 814.148C868.485 814.153 868.575 814.176 868.657 814.215C868.739 814.254 868.813 814.31 868.874 814.378C868.935 814.446 868.982 814.525 869.012 814.611C869.042 814.697 869.055 814.788 869.05 814.879C868.394 827.686 868.094 835.767 868.582 839.254C868.599 839.691 868.707 840.119 868.9 840.511C869.092 840.799 869.36 841.029 869.674 841.175C869.989 841.321 870.337 841.376 870.682 841.336C872.369 841.111 874.132 838.992 875.425 835.711C876.025 834.173 876.607 832.504 877.3 830.611C878.632 826.504 879.325 823.504 879.325 823.467C879.371 823.287 879.486 823.132 879.644 823.036C879.813 822.969 880 822.969 880.169 823.036C883.658 823.612 887.24 823.033 890.369 821.386C894.248 819.215 897.876 816.625 901.188 813.661C901.325 813.534 901.506 813.467 901.692 813.474C901.879 813.481 902.055 813.561 902.182 813.698C902.308 813.835 902.376 814.016 902.369 814.203C902.362 814.389 902.281 814.565 902.144 814.692C898.749 817.752 895.019 820.419 891.025 822.642C887.806 824.324 884.147 824.979 880.544 824.517C880.263 825.623 879.625 828.079 878.669 831.117C878.05 832.992 877.469 834.717 876.794 836.292C875.294 840.192 873.157 842.611 870.925 842.892L870.438 842.686Z" fill="black"/>
<path d="M848.425 727.73C848.243 727.702 848.078 727.604 847.966 727.457C847.854 727.31 847.804 727.125 847.825 726.942L861.644 621.398C861.672 621.216 861.77 621.051 861.917 620.939C862.064 620.827 862.248 620.777 862.432 620.798L930.438 629.705C930.595 629.757 930.729 629.863 930.817 630.004C930.905 630.144 930.941 630.312 930.919 630.476C930.897 630.64 930.818 630.792 930.696 630.904C930.573 631.017 930.416 631.083 930.25 631.092L862.938 622.28L849.213 727.13C849.201 727.221 849.172 727.309 849.126 727.389C849.08 727.469 849.018 727.539 848.945 727.595C848.872 727.651 848.788 727.691 848.699 727.714C848.609 727.738 848.517 727.743 848.425 727.73Z" fill="#C4DEFD"/>
<path d="M973.563 496.242V494.742C973.975 494.742 974.407 494.854 974.857 494.873C974.279 495.165 973.821 495.649 973.563 496.242Z" fill="#E4D0C0"/>
<path d="M787.694 456.548V460.973C793.732 463.655 808 468.23 804.738 473.78C808.619 474.417 811.544 480.005 805.45 483.023C806.463 486.773 802.169 490.43 798.363 490.092C798.7 493.28 795.082 496.542 789.569 495.942C783.475 495.267 782.669 488.948 785.5 488.142C784.49 487.813 783.584 487.222 782.874 486.431C782.165 485.639 781.677 484.674 781.46 483.633C781.243 482.593 781.305 481.513 781.639 480.504C781.973 479.495 782.568 478.592 783.363 477.886C780.363 477.661 779.838 470.198 784.113 468.23C780.438 466.111 780.269 457.111 787.694 456.548Z" fill="#F88D7A"/>
<path d="M569.444 480.23C569.293 480.233 569.146 480.187 569.023 480.099C568.901 480.01 568.811 479.885 568.766 479.741C568.721 479.597 568.725 479.442 568.776 479.3C568.828 479.158 568.924 479.037 569.05 478.955C572.618 476.453 576.431 474.324 580.432 472.598C580.608 472.536 580.802 472.547 580.971 472.628C581.14 472.708 581.269 472.853 581.332 473.03C581.394 473.206 581.383 473.4 581.302 473.569C581.222 473.738 581.077 473.867 580.9 473.93C577.023 475.621 573.324 477.694 569.857 480.117C569.734 480.197 569.59 480.236 569.444 480.23Z" fill="black"/>
<path d="M574.057 486.361C573.916 486.355 573.78 486.307 573.666 486.224C573.553 486.14 573.466 486.025 573.418 485.893C573.37 485.76 573.362 485.616 573.396 485.479C573.429 485.342 573.503 485.219 573.607 485.123C576.588 482.573 583.769 479.067 584.594 479.236C584.696 479.257 584.792 479.3 584.876 479.361C584.96 479.423 585.03 479.501 585.082 479.592C585.171 479.754 585.193 479.945 585.144 480.123C585.095 480.302 584.979 480.454 584.819 480.548C584.72 480.57 584.618 480.57 584.519 480.548C580.952 481.982 577.587 483.873 574.507 486.173C574.384 486.288 574.224 486.355 574.057 486.361Z" fill="black"/>
<path d="M579.269 493.205C579.131 493.198 578.997 493.152 578.885 493.071C578.772 492.99 578.686 492.878 578.636 492.749C578.586 492.619 578.575 492.478 578.604 492.343C578.634 492.207 578.702 492.083 578.8 491.986C581.774 489.825 584.908 487.895 588.175 486.211C588.339 486.124 588.531 486.105 588.709 486.16C588.887 486.214 589.035 486.337 589.122 486.501C589.209 486.666 589.228 486.857 589.173 487.035C589.119 487.213 588.996 487.361 588.832 487.448C585.687 489.102 582.667 490.982 579.794 493.073C579.72 493.129 579.635 493.17 579.545 493.192C579.455 493.215 579.361 493.219 579.269 493.205Z" fill="black"/>
<path d="M566.688 506.311C566.504 506.309 566.329 506.235 566.2 506.105C562.63 502.705 557.953 500.707 553.028 500.476C548.104 500.245 543.261 501.798 539.388 504.848C539.318 504.926 539.232 504.987 539.137 505.028C539.041 505.069 538.937 505.088 538.833 505.084C538.729 505.081 538.627 505.054 538.534 505.007C538.441 504.96 538.36 504.893 538.296 504.81C538.232 504.728 538.186 504.633 538.163 504.532C538.14 504.43 538.139 504.325 538.161 504.223C538.183 504.121 538.227 504.025 538.29 503.942C538.353 503.859 538.433 503.791 538.525 503.742C542.668 500.481 547.849 498.824 553.115 499.075C558.382 499.327 563.381 501.47 567.194 505.111C567.296 505.207 567.367 505.331 567.397 505.468C567.428 505.605 567.415 505.748 567.363 505.878C567.31 506.008 567.219 506.119 567.102 506.196C566.985 506.274 566.847 506.314 566.707 506.311H566.688Z" fill="black"/>
<path d="M565.394 594.323C565.22 594.322 565.053 594.255 564.925 594.136C546.419 577.092 532.169 559.467 530.032 555.192C529.95 555.025 529.937 554.833 529.997 554.657C530.057 554.481 530.184 554.336 530.35 554.254C530.517 554.172 530.709 554.16 530.885 554.22C531.061 554.279 531.206 554.407 531.288 554.573C532.994 557.967 546.288 574.973 565.882 593.104C565.99 593.198 566.066 593.322 566.101 593.461C566.136 593.599 566.127 593.745 566.076 593.879C566.025 594.012 565.933 594.126 565.815 594.206C565.696 594.285 565.556 594.326 565.413 594.323H565.394Z" fill="black"/>
<path d="M745.188 672.173C745.063 672.174 744.94 672.142 744.832 672.08C739.207 668.648 727.957 660.68 727.769 660.605C727.654 660.485 727.584 660.33 727.572 660.165C727.559 659.999 727.604 659.835 727.7 659.7C727.795 659.564 727.935 659.466 728.095 659.423C728.254 659.379 728.424 659.393 728.575 659.461C728.688 659.461 739.825 667.467 745.563 670.88C745.691 670.961 745.789 671.082 745.844 671.223C745.899 671.365 745.907 671.52 745.867 671.667C745.827 671.813 745.742 671.943 745.623 672.038C745.504 672.132 745.358 672.186 745.207 672.192L745.188 672.173Z" fill="black"/>
<path d="M739.038 686.123C738.933 686.148 738.824 686.148 738.719 686.123C732.33 682.79 726.173 679.032 720.288 674.873C720.176 674.749 720.112 674.589 720.106 674.422C720.1 674.255 720.153 674.091 720.256 673.959C720.359 673.827 720.505 673.736 720.668 673.701C720.832 673.666 721.002 673.689 721.15 673.767C726.977 677.848 733.065 681.544 739.375 684.83C739.527 684.893 739.651 685.009 739.725 685.156C739.799 685.302 739.819 685.471 739.781 685.63C739.742 685.79 739.649 685.931 739.516 686.028C739.383 686.126 739.221 686.172 739.057 686.161L739.038 686.123Z" fill="black"/>
<path d="M732.625 698.742H732.382C728.632 697.43 719.519 693.886 713.632 689.254C713.485 689.14 713.39 688.972 713.367 688.788C713.344 688.603 713.395 688.417 713.51 688.27C713.624 688.123 713.792 688.028 713.977 688.005C714.161 687.982 714.347 688.034 714.494 688.148C720.183 692.085 726.392 695.209 732.944 697.43C733.093 697.492 733.217 697.604 733.294 697.746C733.371 697.888 733.398 698.052 733.37 698.211C733.341 698.371 733.26 698.516 733.138 698.622C733.016 698.729 732.862 698.791 732.7 698.798L732.625 698.742Z" fill="black"/>
<path d="M536.013 967.598C535.861 967.593 535.715 967.538 535.596 967.444C535.478 967.349 535.392 967.219 535.352 967.073C535.313 966.926 535.321 966.771 535.375 966.63C535.43 966.488 535.529 966.367 535.657 966.286C539.03 964.616 542.7 963.628 546.457 963.38C546.549 963.372 546.642 963.383 546.731 963.412C546.819 963.441 546.901 963.488 546.971 963.549C547.041 963.61 547.097 963.685 547.138 963.768C547.179 963.852 547.202 963.943 547.207 964.036C547.214 964.128 547.203 964.222 547.174 964.31C547.145 964.398 547.098 964.48 547.037 964.55C546.976 964.62 546.901 964.677 546.818 964.717C546.734 964.758 546.643 964.781 546.55 964.786C543.014 965.032 539.557 965.955 536.369 967.505C536.261 967.567 536.138 967.599 536.013 967.598Z" fill="black"/>
<path d="M544.657 971.986C544.493 971.997 544.33 971.951 544.197 971.853C544.065 971.756 543.971 971.615 543.933 971.455C543.894 971.296 543.914 971.127 543.988 970.981C544.063 970.834 544.186 970.718 544.338 970.655C547.365 969.37 550.503 968.366 553.713 967.655C553.894 967.612 554.085 967.644 554.243 967.742C554.402 967.841 554.514 967.998 554.557 968.18C554.599 968.361 554.567 968.552 554.469 968.71C554.37 968.868 554.213 968.981 554.032 969.023C550.959 969.721 547.954 970.688 545.05 971.911C544.929 971.974 544.792 972 544.657 971.986Z" fill="black"/>
<path d="M243.362 953.817C243.263 953.838 243.161 953.838 243.062 953.817C240.552 952.611 237.926 951.663 235.225 950.986C235.12 950.991 235.015 950.974 234.918 950.934C234.821 950.895 234.734 950.834 234.663 950.757C234.592 950.68 234.539 950.588 234.507 950.488C234.476 950.388 234.467 950.283 234.481 950.179C234.495 950.075 234.532 949.976 234.589 949.888C234.646 949.799 234.721 949.725 234.81 949.67C234.899 949.614 234.999 949.579 235.103 949.567C235.207 949.554 235.313 949.565 235.412 949.598C238.258 950.285 241.024 951.272 243.662 952.542C243.811 952.606 243.934 952.72 244.007 952.864C244.081 953.009 244.102 953.174 244.067 953.333C244.031 953.491 243.941 953.632 243.812 953.73C243.684 953.829 243.524 953.88 243.362 953.873V953.817Z" fill="black"/>
<path d="M241.15 961.317H240.906C238.595 960.43 236.193 959.801 233.744 959.442C233.651 959.437 233.56 959.414 233.476 959.373C233.392 959.333 233.318 959.276 233.257 959.206C233.195 959.136 233.149 959.055 233.12 958.966C233.091 958.878 233.08 958.785 233.087 958.692C233.102 958.506 233.188 958.334 233.328 958.211C233.469 958.088 233.651 958.025 233.837 958.036C236.4 958.375 238.916 959.004 241.337 959.911C241.519 959.943 241.68 960.046 241.785 960.197C241.891 960.349 241.932 960.536 241.9 960.717C241.867 960.899 241.764 961.06 241.613 961.165C241.462 961.271 241.275 961.312 241.094 961.28L241.15 961.317Z" fill="black"/>
<path d="M1028.29 339.623C1028.2 339.616 1028.11 339.591 1028.03 339.548C1027.94 339.505 1027.87 339.446 1027.81 339.374C1027.75 339.303 1027.71 339.22 1027.68 339.13C1027.65 339.041 1027.64 338.947 1027.65 338.855V337.898C1028.01 333.248 1029.08 319.148 1034.97 309.623C1035.08 309.487 1035.23 309.396 1035.4 309.367C1035.58 309.338 1035.75 309.373 1035.9 309.465C1036.05 309.558 1036.16 309.701 1036.21 309.869C1036.26 310.036 1036.24 310.216 1036.17 310.373C1030.54 319.598 1029.42 333.455 1029.06 338.011V338.986C1029.04 339.172 1028.95 339.343 1028.81 339.462C1028.66 339.581 1028.48 339.639 1028.29 339.623Z" fill="black"/>
<path d="M1056.23 447.755C1056.04 447.755 1055.86 447.681 1055.73 447.549C1055.6 447.417 1055.53 447.238 1055.53 447.051C1055.53 446.865 1055.6 446.686 1055.73 446.554C1055.86 446.422 1056.04 446.348 1056.23 446.348C1056.51 446.348 1084.84 444.473 1097.59 445.805C1097.78 445.828 1097.94 445.921 1098.06 446.065C1098.17 446.208 1098.23 446.39 1098.21 446.573C1098.18 446.754 1098.09 446.917 1097.95 447.032C1097.8 447.146 1097.62 447.204 1097.44 447.192C1084.81 445.823 1056.61 447.717 1056.32 447.736L1056.23 447.755Z" fill="black"/>
<path d="M964.338 668.667C964.167 668.664 964.003 668.6 963.876 668.486C963.749 668.373 963.667 668.217 963.644 668.048L952.563 575.217L939.944 571.167C939.768 571.11 939.621 570.985 939.537 570.82C939.452 570.654 939.437 570.462 939.494 570.286C939.551 570.109 939.676 569.963 939.842 569.878C940.007 569.794 940.199 569.779 940.375 569.836L953.5 574.017C953.629 574.056 953.744 574.132 953.831 574.235C953.917 574.338 953.972 574.465 953.988 574.598L965.125 667.88C965.147 668.066 965.094 668.253 964.978 668.4C964.862 668.548 964.693 668.644 964.507 668.667H964.338Z" fill="black"/>
<path d="M800.5 474.717C794.385 474.553 788.479 472.459 783.625 468.736C783.533 468.687 783.453 468.619 783.39 468.536C783.327 468.453 783.283 468.357 783.261 468.255C783.239 468.153 783.24 468.048 783.263 467.946C783.286 467.845 783.332 467.75 783.396 467.667C783.46 467.585 783.541 467.518 783.634 467.471C783.727 467.423 783.829 467.397 783.933 467.393C784.037 467.39 784.141 467.409 784.237 467.45C784.333 467.491 784.418 467.552 784.488 467.63C789.104 471.136 794.705 473.104 800.5 473.255C800.667 473.282 800.819 473.368 800.928 473.496C801.038 473.625 801.098 473.789 801.098 473.958C801.098 474.127 801.038 474.29 800.928 474.419C800.819 474.548 800.667 474.633 800.5 474.661V474.717Z" fill="black"/>
<path d="M800.594 482.911C794.441 483.12 788.356 481.579 783.044 478.467C782.962 478.426 782.888 478.37 782.827 478.301C782.767 478.232 782.72 478.151 782.69 478.064C782.661 477.977 782.649 477.885 782.655 477.793C782.661 477.702 782.685 477.612 782.725 477.529C782.766 477.447 782.822 477.373 782.892 477.313C782.961 477.252 783.041 477.206 783.128 477.176C783.215 477.146 783.307 477.134 783.399 477.14C783.491 477.146 783.58 477.17 783.663 477.211C788.976 480.305 795.071 481.796 801.213 481.504C801.569 481.504 801.925 481.804 801.925 482.198C801.928 482.291 801.912 482.383 801.878 482.469C801.844 482.556 801.794 482.635 801.729 482.701C801.664 482.767 801.587 482.82 801.501 482.856C801.416 482.892 801.324 482.911 801.232 482.911H800.594Z" fill="black"/>
<path d="M798.382 490.748C793.982 490.607 789.614 489.946 785.369 488.78C785.19 488.732 785.037 488.616 784.944 488.456C784.851 488.296 784.825 488.105 784.872 487.926C784.919 487.747 785.036 487.595 785.196 487.501C785.356 487.408 785.546 487.382 785.725 487.43C789.88 488.554 794.154 489.183 798.457 489.305C798.623 489.332 798.775 489.418 798.884 489.546C798.994 489.675 799.054 489.839 799.054 490.008C799.054 490.177 798.994 490.34 798.884 490.469C798.775 490.598 798.623 490.684 798.457 490.711L798.382 490.748Z" fill="black"/>
<path d="M1049.76 495.923C1043.76 496.317 1032.16 497.217 1029.14 498.398C1016.98 503.145 1004.26 506.296 991.3 507.773C983.8 508.392 979.638 504.023 981.382 502.711H980.575C972.869 502.223 971.838 496.336 974.838 494.817C966.888 494.367 965.707 488.63 969.438 486.586C957.832 485.536 959.275 479.742 966.85 478.936C982.694 477.248 998.5 473.123 1003.99 469.561C1011.21 464.93 1008.16 461.367 1004.52 459.023C1000.88 456.68 986.444 456.023 985.525 452.648C984.607 449.273 986.969 448.355 992.163 447.886C1000.28 447.361 1008.42 447.361 1016.54 447.886C1025.37 448.402 1034.22 448.402 1043.05 447.886C1048.94 454.955 1050.16 477.173 1049.76 495.923Z" fill="#F88D7A"/>
<path d="M970.957 487.411C970.357 487.411 969.813 487.411 969.325 487.411C969.234 487.404 969.145 487.379 969.064 487.337C968.982 487.295 968.91 487.238 968.851 487.168C968.791 487.099 968.746 487.018 968.718 486.931C968.691 486.844 968.68 486.752 968.688 486.661C968.707 486.478 968.795 486.31 968.935 486.192C969.075 486.073 969.255 486.013 969.438 486.023C974.8 486.473 986.313 484.354 1000.3 480.398C1000.48 480.346 1000.67 480.367 1000.84 480.457C1001 480.546 1001.12 480.697 1001.17 480.876C1001.22 481.055 1001.2 481.248 1001.11 481.411C1001.02 481.575 1000.87 481.696 1000.69 481.748C987.832 485.311 976.957 487.411 970.957 487.411Z" fill="black"/>
<path d="M975.832 495.605H974.763C974.577 495.59 974.404 495.504 974.282 495.363C974.159 495.223 974.096 495.04 974.106 494.855C974.111 494.762 974.135 494.671 974.175 494.587C974.216 494.503 974.273 494.429 974.343 494.368C974.413 494.306 974.494 494.26 974.582 494.231C974.671 494.202 974.764 494.191 974.856 494.198C979.3 494.461 997 492.661 1004.76 487.992C1004.84 487.944 1004.93 487.912 1005.02 487.898C1005.11 487.884 1005.2 487.887 1005.29 487.909C1005.38 487.931 1005.47 487.97 1005.54 488.025C1005.62 488.079 1005.68 488.148 1005.73 488.226C1005.78 488.305 1005.81 488.393 1005.82 488.484C1005.84 488.575 1005.83 488.668 1005.81 488.758C1005.79 488.847 1005.75 488.932 1005.7 489.006C1005.64 489.081 1005.57 489.144 1005.49 489.192C997.938 493.748 981.738 495.605 975.832 495.605Z" fill="black"/>
<path d="M980.519 503.423C980.352 503.396 980.201 503.31 980.091 503.181C979.982 503.053 979.922 502.889 979.922 502.72C979.922 502.551 979.982 502.388 980.091 502.259C980.201 502.13 980.352 502.044 980.519 502.017C990.963 502.017 1005.38 497.705 1007.14 496.561C1007.3 496.459 1007.49 496.423 1007.67 496.462C1007.86 496.501 1008.02 496.61 1008.12 496.767C1008.22 496.924 1008.26 497.114 1008.22 497.297C1008.18 497.48 1008.07 497.64 1007.91 497.742C1005.85 499.13 991.188 503.423 980.519 503.423Z" fill="black"/>
</svg>
