<svg width="140" height="47" viewBox="0 0 140 47" fill="none" xmlns="http://www.w3.org/2000/svg">
<path d="M59.9483 24.8936C59.9483 31.5342 54.78 36.4275 48.4373 36.4275C42.0946 36.4275 36.9263 31.5342 36.9263 24.8936C36.9263 18.2062 42.0946 13.3596 48.4373 13.3596C54.78 13.3596 59.9483 18.2062 59.9483 24.8936ZM54.9093 24.8936C54.9093 20.7439 51.9139 17.9046 48.4373 17.9046C44.9607 17.9046 41.9652 20.7439 41.9652 24.8936C41.9652 29.0017 44.9607 31.8826 48.4373 31.8826C51.9139 31.8826 54.9093 28.9965 54.9093 24.8936Z" fill="#EA4335"/>
<path d="M84.7808 24.8936C84.7808 31.5342 79.6125 36.4275 73.2698 36.4275C66.9271 36.4275 61.7588 31.5342 61.7588 24.8936C61.7588 18.2114 66.9271 13.3596 73.2698 13.3596C79.6125 13.3596 84.7808 18.2062 84.7808 24.8936ZM79.7418 24.8936C79.7418 20.7439 76.7464 17.9046 73.2698 17.9046C69.7932 17.9046 66.7978 20.7439 66.7978 24.8936C66.7978 29.0017 69.7932 31.8826 73.2698 31.8826C76.7464 31.8826 79.7418 28.9965 79.7418 24.8936Z" fill="#FBBC05"/>
<path d="M108.579 14.0564V34.7635C108.579 43.2813 103.582 46.7603 97.6735 46.7603C92.112 46.7603 88.7648 43.0213 87.5024 39.9636L91.8895 38.128C92.6707 40.0052 94.5849 42.2205 97.6683 42.2205C101.45 42.2205 103.794 39.8752 103.794 35.4603V33.8014H103.618C102.49 35.2003 100.317 36.4223 97.5752 36.4223C91.8378 36.4223 86.5815 31.399 86.5815 24.9352C86.5815 18.4246 91.8378 13.3596 97.5752 13.3596C100.312 13.3596 102.485 14.5817 103.618 15.9389H103.794V14.0616H108.579V14.0564ZM104.151 24.9352C104.151 20.8739 101.455 17.9046 98.0253 17.9046C94.5487 17.9046 91.636 20.8739 91.636 24.9352C91.636 28.9549 94.5487 31.8826 98.0253 31.8826C101.455 31.8826 104.151 28.9549 104.151 24.9352Z" fill="#4285F4"/>
<path d="M116.468 1.91895V35.72H111.554V1.91895H116.468Z" fill="#34A853"/>
<path d="M135.621 28.6895L139.532 31.3104C138.27 33.1877 135.228 36.4222 129.971 36.4222C123.453 36.4222 118.584 31.3572 118.584 24.8882C118.584 18.0292 123.494 13.3542 129.407 13.3542C135.362 13.3542 138.275 18.1176 139.227 20.6917L139.749 22.0021L124.41 28.3879C125.584 30.702 127.41 31.8824 129.971 31.8824C132.537 31.8824 134.317 30.6136 135.621 28.6895ZM123.582 24.5398L133.836 20.2601C133.272 18.8196 131.575 17.816 129.578 17.816C127.017 17.816 123.453 20.0885 123.582 24.5398Z" fill="#EA4335"/>
<path d="M18.322 21.893V16.9996H34.7271C34.8875 17.8524 34.9703 18.8613 34.9703 19.9533C34.9703 23.6246 33.9718 28.1644 30.7539 31.3989C27.6239 34.675 23.6248 36.4222 18.3272 36.4222C8.50787 36.4222 0.250977 28.3828 0.250977 18.5129C0.250977 8.64296 8.50787 0.603516 18.3272 0.603516C23.7593 0.603516 27.6291 2.74598 30.5366 5.53847L27.1014 8.99137C25.0165 7.02571 22.1918 5.49687 18.322 5.49687C11.1515 5.49687 5.54346 11.3054 5.54346 18.5129C5.54346 25.7203 11.1515 31.5289 18.322 31.5289C22.9729 31.5289 25.6218 29.6516 27.3187 27.946C28.6948 26.5627 29.6002 24.5867 29.9572 21.8878L18.322 21.893Z" fill="#4285F4"/>
</svg>
