<svg width="6663" height="6259" viewBox="0 0 6663 6259" fill="none" xmlns="http://www.w3.org/2000/svg">
<path d="M3449.66 2060.47C3476.45 2101.71 3520.45 2129.36 3524.78 2193.07C3456.26 2140.82 3399.84 2094.56 3339.47 2053.39C3316.03 2037.4 3287.66 1994.13 3256.05 2028.77C3224.32 2063.56 3273.54 2082.41 3294.55 2102.35C3343.19 2148.53 3401.86 2185.25 3441.16 2240.32C3450.7 2253.68 3467.52 2264.21 3457.62 2288.34C3410.22 2286.98 3392.14 2244.11 3359.59 2223.3C3322.89 2199.84 3292.41 2167.94 3258.08 2141C3245.03 2130.75 3228.75 2116.29 3211.13 2132.84C3194.08 2148.84 3206.69 2165.64 3218.59 2177.32C3254.15 2212.19 3292.66 2244.42 3328.09 2279.4C3359.45 2310.36 3398.74 2337.43 3403.31 2392.51C3311.24 2389.19 3263.37 2306.05 3183.57 2289.61C3163.01 2322.42 3185.6 2337.81 3203.69 2351.81C3321.7 2443.09 3427.45 2544.44 3509.43 2666.74C3536.01 2706.39 3590.03 2724.36 3615.26 2761.88C3688.01 2870.1 3752.42 2983.16 3752.13 3117.2C3752 3177.19 3718.89 3207.26 3656.99 3207.39C3377.19 3208 3097.37 3208.43 2817.58 3206.91C2740.43 3206.49 2714.8 3183.48 2713.76 3112.25C2711.41 2950.4 2693.77 2785.79 2718.81 2627.38C2743.51 2471.19 2781.36 2307.76 2922.37 2193.78C2934.15 2184.26 2945.93 2173.49 2953.77 2161.1C3043.64 2018.97 3159.36 1897.48 3288.86 1786.65C3305.1 1772.75 3325.17 1752.7 3303.9 1733.04C3281.15 1712.02 3264.51 1738.19 3247.66 1749.59C3191.1 1787.84 3143.69 1840.18 3071.43 1855.59C3051.6 1824.81 3073.17 1807.76 3086.31 1789.83C3127.19 1734.08 3182.13 1690.08 3229.9 1640.07C3248.67 1620.42 3292.59 1602.01 3257.27 1569.83C3225.42 1540.8 3206.33 1579.71 3188.03 1596.61C3140.19 1640.76 3083.67 1676.18 3041.64 1726.21C3032.52 1737.07 3020.59 1748.94 2996.65 1740.13C3001.23 1700.93 3031.83 1675.35 3057.32 1648.93C3099.33 1605.36 3144.86 1564.78 3188.87 1522.91C3206.27 1506.35 3215.74 1487.32 3197.24 1467.43C3179.45 1448.31 3160.23 1460.13 3143.46 1471.07C3084.5 1509.53 3030.27 1553.28 2979.81 1601.28C2964.9 1615.46 2953.56 1635.18 2929.11 1638.73C2910.67 1612.47 2931.66 1597.79 2943.28 1581.56C2968.23 1546.7 2994.43 1512.63 3019.48 1477.83C3034.37 1457.13 3056.39 1433.37 3025.78 1412.12C2996.83 1392.03 2975.91 1416.24 2957.66 1434.32C2895.92 1495.51 2838.7 1559.87 2800.64 1637.38C2792.61 1653.74 2789.98 1674.58 2765.47 1682.1C2731.61 1667.93 2732.86 1629.43 2709.5 1607.83C2695.08 1594.49 2681.03 1576.67 2658.62 1585.74C2632.58 1596.28 2642.72 1617.06 2650.48 1634.54C2679.51 1699.91 2653.26 1762.8 2640.87 1826.12C2634.83 1857 2621.76 1886.77 2624.61 1918.97C2640.08 2093.53 2552.31 2235.49 2461.25 2376.51C2444.58 2402.34 2421.35 2413.48 2388.91 2413.29C2245.65 2412.45 2102.39 2413.46 1959.13 2412.37C1897.29 2411.91 1863.99 2381.89 1863.97 2322.01C1863.86 2052.89 1862.91 1783.77 1863.87 1514.65C1864.08 1457.05 1894.08 1434.79 1966.87 1434.52C2172.8 1433.75 2378.74 1434.37 2584.68 1434.12C2707.93 1433.97 2711.92 1430.45 2712.17 1312.21C2712.57 1125.08 2711.92 937.961 2712.05 750.838C2712.11 654.873 2728.05 639.438 2827.25 639.365C3100.34 639.165 3373.43 639.117 3646.53 639.34C3734.02 639.411 3752.41 656.999 3752.99 739.71C3754.39 941.38 3755.07 1143.06 3757.04 1344.72C3757.76 1419.23 3771.74 1432.8 3850.79 1433.1C4065.68 1433.89 4280.57 1433.5 4495.47 1432.93C4576.56 1432.72 4599.35 1451.88 4599.45 1528.96C4599.8 1791.78 4599.64 2054.59 4598.93 2317.4C4598.75 2386.28 4572.27 2412.64 4497.36 2413.07C4289.2 2414.29 4081.01 2412.85 3872.84 2413.43C3835.74 2413.53 3814.15 2401.23 3807.29 2365.43C3794.17 2296.84 3747.3 2231.55 3786.93 2158.04C3793.81 2145.27 3787.66 2132.4 3772.2 2128.17C3755.07 2123.48 3742.68 2133.42 3730.87 2143.8C3708.06 2163.85 3712.28 2201.03 3680.81 2214.96C3660.13 2214.96 3652.94 2200.27 3646.55 2187.76C3608.04 2112.38 3547.71 2053.09 3486.12 1994.93C3468.6 1978.39 3449.31 1947.33 3420.36 1969.52C3392.82 1990.64 3417.81 2015.24 3431.29 2036.37C3435.87 2043.55 3441.64 2050.06 3449.66 2060.47Z" fill="#FF3131"/>
<path d="M3810.36 4340.37C3810.41 4212.22 3812.82 4090.31 3809.43 3968.54C3807.96 3915.48 3833.23 3905.68 3881.73 3906.18C3929.27 3906.67 3966.33 3908.83 3963 3968.07C3959.85 4024.15 3962.32 4080.51 3962.32 4137.59C4033.15 4155.34 4100.03 4133.68 4166.35 4141.74C4197.85 4145.56 4199.97 4120.66 4200.13 4098.57C4200.47 4050.25 4202.09 4001.89 4200.4 3953.63C4198.91 3911.12 4225.86 3904.2 4260.86 3907.52C4296.91 3910.94 4350.99 3889.8 4351.69 3951.44C4353.7 4127.89 4353.53 4304.38 4352.3 4480.83C4351.93 4534.64 4305.04 4520.29 4272.24 4521.22C4239.88 4522.13 4200.94 4528.31 4200.97 4478.73C4201.01 4424.11 4199.31 4369.47 4200.55 4314.88C4201.34 4279.81 4184.63 4268.07 4148.64 4265.2C3965.07 4250.57 3966.68 4249.89 3960.98 4422.91C3959.63 4463.97 3986.44 4526.56 3895.25 4522.72C3811.41 4519.18 3810.9 4522.46 3810.43 4441.2C3810.24 4409.68 3810.38 4378.17 3810.36 4340.37Z" fill="white"/>
<path d="M959.208 4277.33C959.228 4358.99 959.228 4434.35 959.228 4506.69C931.786 4529.21 903.78 4519.42 878.039 4521.83C833.593 4525.99 811.694 4510.01 814.407 4464.91C817.175 4418.88 812.917 4372.48 815.383 4326.42C817.635 4284.33 802.34 4266.86 754.935 4265.02C569.501 4257.81 568.604 4256.54 569.433 4434.38C569.677 4486.7 571.611 4527.94 491.629 4523.98C431.889 4521.02 414.794 4502.25 415.854 4449.18C418.706 4306.48 417.032 4163.7 417.552 4020.96C418.008 3896.2 426.491 3890.07 568.895 3916.22C568.895 3970.54 570.58 4026.69 568.33 4082.7C566.706 4123.14 584.09 4137.47 626.689 4139.93C813.384 4150.7 813.32 4151.67 814.914 3983.27C815.699 3900.35 828.898 3893.58 959.188 3916.07C959.188 4033.11 959.188 4152.07 959.208 4277.33Z" fill="white"/>
<path d="M2068.78 4381.85C1988.57 4371.38 1940.79 4389.92 1924.3 4468.43C1911.44 4529.64 1874.81 4536.14 1758.93 4511.37C1768.35 4440.78 1801.54 4376.34 1825.14 4309.87C1866.16 4194.33 1913 4080.62 1954.58 3965.24C1969.03 3925.12 1985.21 3896.94 2038.23 3905.18C2089.83 3913.19 2152.19 3877.79 2179.68 3959.07C2235.84 4125.12 2301.79 4288.25 2363.21 4452.74C2369.73 4470.19 2372.94 4488.73 2377.56 4506.31C2272.84 4545.23 2224.08 4529.51 2201.49 4439.28C2182.5 4363.44 2124.8 4385.56 2068.78 4381.85ZM2072.72 4056.02C2032.68 4115.6 2018 4181.97 2006.77 4245.6C2026.32 4262.08 2042.4 4259.73 2057.73 4260.13C2135.35 4262.2 2140.44 4256.49 2118.84 4187.04C2105.78 4145.02 2091.05 4103.45 2072.72 4056.02Z" fill="white"/>
<path d="M5320.53 3906.99C5413.55 3906.99 5499.98 3906.99 5584.41 3906.99C5606.87 4017.43 5600.3 4025.34 5494.24 4026.26C5474.14 4026.43 5453.9 4027.88 5433.96 4026.24C5383.58 4022.12 5362.53 4038.88 5362.6 4090.11C5362.67 4142.67 5390.81 4148.8 5434.11 4146.4C5458.59 4145.05 5483.25 4146.78 5507.79 4146.04C5549.11 4144.79 5580.45 4147.47 5580.99 4201.08C5581.53 4254.05 5555.7 4266.8 5507.89 4264.39C5487.84 4263.38 5467.42 4266.02 5447.64 4263.62C5384.04 4255.93 5359.69 4278.71 5362.69 4340.71C5364.94 4387.34 5380.85 4405.61 5429.7 4402.41C5463.04 4400.23 5496.71 4403.08 5530.17 4401.94C5572.18 4400.51 5597.63 4409.66 5595.11 4457.82C5592.94 4499.55 5586.53 4524.59 5532.19 4522.36C5445.25 4518.78 5358 4520.42 5270.93 4522.07C5228.47 4522.87 5209.67 4507.28 5209.81 4466.99C5210.4 4297.07 5209.23 4127.15 5209.96 3957.23C5210.3 3880.41 5274.86 3915.8 5320.53 3906.99Z" fill="white"/>
<path d="M1219.64 3939.39C1226.92 3904.51 1252.01 3907.51 1273.67 3907.38C1365.42 3906.84 1457.21 3908.55 1548.91 3906.68C1596.2 3905.71 1603.65 3929.04 1603.66 3965.92C1603.67 4002.57 1596.72 4027.73 1549.44 4026.13C1507 4024.69 1464.42 4027.11 1421.91 4026.52C1371.21 4025.82 1373.58 4058.28 1372.71 4091.19C1371.78 4125.95 1381.15 4148.45 1424.72 4146.3C1458.19 4144.65 1491.92 4147.72 1525.38 4146.04C1569.11 4143.83 1590.99 4156.47 1590.3 4202.57C1589.65 4245.37 1573.21 4265.35 1527.81 4264.33C1505.45 4263.83 1483.06 4264.26 1460.69 4264.31C1374.97 4264.5 1365.22 4276.19 1372.58 4356.87C1375.49 4388.81 1389.87 4402.13 1422.73 4401.75C1460.76 4401.31 1498.89 4403.39 1536.83 4401.57C1584.72 4399.29 1604.04 4415.93 1604.39 4463.5C1604.75 4513.66 1580.8 4523.5 1534.77 4522.33C1452.04 4520.22 1369.08 4519.4 1286.43 4522.72C1232.27 4524.89 1216.87 4504.26 1217.51 4456.19C1219.77 4285.96 1218.74 4115.69 1219.64 3939.39Z" fill="white"/>
<path d="M4796.29 3895.32C4841.79 3901.33 4882.03 3904.76 4920.7 3913.99C4999.44 3932.8 5006.1 3952.25 4968.48 4020.15C4953.76 4046.72 4936.27 4050.86 4908.96 4041.56C4873.39 4029.45 4837.91 4016.19 4798.87 4017.59C4767.33 4018.72 4740.44 4028.1 4732.37 4059.58C4725.22 4087.46 4739.52 4109.13 4765.24 4122.59C4808.14 4145.05 4852.23 4165.5 4895.19 4187.86C4973.57 4228.66 5010.66 4290.62 5000.27 4375.35C4991.25 4448.9 4936.82 4499.89 4847.25 4522.77C4771.11 4542.21 4696.38 4534.84 4623.01 4513.16C4562.02 4495.13 4553.39 4467.88 4574.57 4378.32C4607.34 4363.72 4633.99 4385.5 4662.32 4393.98C4701.01 4405.56 4739.53 4415.14 4780.49 4411.38C4811.3 4408.56 4838.16 4398.99 4845.82 4367.17C4852.66 4338.71 4837.3 4317.45 4812.67 4303.91C4772.23 4281.69 4729.63 4262.93 4689.12 4240.81C4621.37 4203.82 4576.65 4152.55 4576.52 4074.37C4576.35 3967.4 4646.37 3908.36 4796.29 3895.32Z" fill="white"/>
<path d="M5857.27 4426.38C5789.44 4311.41 5780.48 4195.97 5824.35 4076.67C5890.22 3897.52 6096.42 3859.42 6271.14 3928.9C6293.97 3937.98 6300.18 3953.75 6291.12 3974.7C6280.36 3999.57 6268.76 4024.11 6255.15 4054.03C6159.79 4023.96 6057.97 3974.91 5989.52 4080.73C5935.61 4164.07 5933.99 4260.57 5985.11 4345.51C6053.6 4459.32 6165.56 4397.92 6261.35 4389.53C6299.34 4477.39 6284.91 4505 6192.2 4522.47C6064.52 4546.54 5947.13 4536.24 5857.27 4426.38Z" fill="white"/>
<path d="M4403.07 1089.95C4397 1097.74 4393.82 1102.72 4390.28 1102.96C4311.42 1108.34 4245.39 1123.95 4257.58 1221.62C4259.95 1240.68 4234.8 1251.47 4212.98 1252.16C4183.95 1253.08 4154.84 1251.86 4125.78 1252.42C4083.72 1253.21 4062.68 1234.91 4066.18 1194.99C4071.27 1137 4047.43 1107.05 3981.67 1112.73C3937.25 1116.57 3914.21 1097.88 3917.64 1053.75C3919.26 1032.84 3919.42 1011.62 3917.58 990.746C3913.45 944.119 3935.86 924.204 3984.43 929.019C4045.36 935.057 4072.91 910.297 4065.57 852.587C4059.6 805.675 4082.95 786.995 4131.59 790.509C4153.83 792.115 4176.4 791.794 4198.68 790.365C4244.12 787.449 4265.65 805.528 4262.89 849.122C4259.24 906.719 4283.95 936.853 4350.08 928.506C4393.83 922.982 4411.4 945.416 4409.83 984.346C4408.48 1017.87 4407.15 1051.4 4403.07 1089.95Z" fill="#FF3131"/>
<path d="M3441.48 4488.76C3407.11 4543.3 3355.87 4522.28 3314.63 4515.84C3279.61 4510.36 3290.43 4470.98 3290.19 4445.19C3289.15 4333.92 3289.95 4222.64 3289.79 4111.36C3289.67 4028.59 3289.43 4026.55 3200.67 4027.95C3145.68 4028.82 3107.7 4020.89 3114.67 3956.82C3118.22 3924.18 3129.98 3906.66 3167.52 3906.88C3299.4 3907.65 3431.3 3908.23 3563.17 3906.77C3610.14 3906.25 3618.43 3929.48 3618.21 3966.26C3618 4001.57 3613.77 4025.71 3565.54 4028.19C3443.23 4034.47 3443.41 4036.33 3443.18 4148.94C3442.95 4260.22 3442.57 4371.49 3441.48 4488.76Z" fill="white"/>
<path d="M2561.66 4075.61C2561.68 4039.97 2561.5 4010.62 2561.77 3981.27C2562.38 3914.74 2627.63 3880.13 2692.98 3911.41C2721.31 3924.98 2715.4 3950.34 2715.56 3972.3C2716.47 4093.88 2718.13 4215.51 2715.49 4337.04C2714.42 4386.31 2732.5 4405.95 2785.04 4402.46C2827.23 4399.66 2869.9 4403.74 2912.19 4401.72C2958.99 4399.48 2974.51 4418.56 2974.07 4461.39C2973.66 4502.15 2963.47 4523.53 2914.25 4522.29C2818.35 4519.87 2722.28 4519.89 2626.38 4522.4C2576.02 4523.72 2560.42 4504.3 2561.12 4459.23C2563.06 4333.47 2561.71 4207.67 2561.66 4075.61Z" fill="white"/>
<path d="M4801.9 4874.03C4874.9 4866.96 4941.71 4871.85 5008 4880.18C5130.28 4895.55 5212.47 4982.1 5216.32 5098.44C5217.57 5136.04 5219.62 5174.52 5213.02 5211.29C5192.76 5324.02 5096.39 5398.44 4966.96 5404.04C4920.21 5406.07 4873.17 5402.78 4826.45 5405.19C4778.76 5407.65 4764.57 5386.93 4765.03 5345.11C4766.56 5206.81 4765.55 5068.5 4765.85 4930.19C4765.9 4907.43 4762.81 4882.31 4801.9 4874.03ZM5049.68 4964.06C5000.21 4940.95 4947.57 4936.23 4893.06 4937.26C4858.89 4937.9 4845.94 4949.38 4846.26 4982.34C4847.32 5091.44 4845.97 5200.56 4844.87 5309.68C4844.62 5333.79 4856.71 5344.39 4881.05 5344.78C4966.36 5346.17 5075.09 5328.06 5116.5 5243.13C5163.24 5147.26 5140.75 5034.17 5049.68 4964.06Z" fill="white"/>
<path d="M3520.01 5309.3C3443.51 5403.15 3337.75 5435.15 3219.3 5403.58C3123.6 5378.07 3058.34 5300.57 3047.16 5192.27C3042.88 5150.84 3042.33 5107.56 3050.16 5066.83C3076.68 4929.03 3175.83 4859.42 3327.6 4866.79C3460.73 4873.25 3551.38 4961.63 3563.25 5097.95C3569.55 5170.24 3561.71 5240.54 3520.01 5309.3ZM3384.34 5334C3477.68 5297.59 3507.82 5151.11 3465.95 5036.2C3428.15 4932.45 3270.47 4897.44 3183.39 4972.29C3119.57 5027.15 3103.87 5180.65 3153.07 5268.8C3191.71 5338.05 3261.34 5359.81 3384.34 5334Z" fill="white"/>
<path d="M1016.51 5328.65C993.481 5292.05 970.823 5260.54 952.822 5226.83C930.872 5185.72 893.356 5186.14 855.143 5191.48C811.472 5197.59 825.968 5232.42 824.481 5257.26C822.349 5292.87 823.528 5328.66 823.48 5364.38C823.446 5389.36 813.194 5404.17 783.773 5403.15C757.833 5402.26 748.508 5388.12 748.488 5366.48C748.344 5215.21 748.648 5063.94 748.36 4912.68C748.301 4882.07 767.861 4873.45 795.497 4871.66C862.848 4867.3 929.804 4873.3 995.63 4884.53C1049.51 4893.73 1090.61 4923.81 1103.86 4976.32C1118.4 5033.89 1114.59 5089.54 1065.1 5133.84C1050.63 5146.8 1034.2 5157.82 1011.25 5175.43C1054.91 5246.18 1098.96 5317.58 1144.2 5390.89C1063.44 5430.78 1046.63 5372.35 1016.51 5328.65ZM978.325 4951.69C836.44 4914.18 818.847 4927.07 824.163 5064.64C824.486 5073.01 824.617 5081.39 825.212 5089.74C825.991 5100.65 830.548 5109.53 840.65 5115.93C873.33 5136.62 983.684 5118.41 1009.04 5087.91C1042.67 5047.46 1035.03 4999.84 978.325 4951.69Z" fill="white"/>
<path d="M4343.6 5021.89C4347.15 5075.31 4328.99 5116.36 4286.6 5141.34C4243.65 5166.64 4250.92 5191.26 4272.86 5224.03C4309.37 5278.55 4343.39 5334.52 4380.15 5392.55C4325.11 5416.52 4293.11 5401.05 4269.27 5360.34C4244.5 5318.04 4216.23 5277.43 4193.49 5234.23C4171.5 5192.44 4135.92 5184.2 4093.08 5191.19C4045.34 5198.99 4063.84 5236.33 4061.46 5262.54C4058.63 5293.82 4060.71 5325.48 4060.44 5356.98C4060.23 5381.75 4057.07 5403.97 4021.43 5403.08C3990.65 5402.32 3985.5 5383.73 3985.5 5360.69C3985.49 5203.44 3985.49 5046.2 3985.49 4883.37C4082.28 4862.82 4174.51 4867.47 4263.66 4896.86C4319.83 4915.38 4344.38 4960.36 4343.6 5021.89ZM4061.57 5085.06C4076.24 5147.08 4128.5 5121.44 4165.15 5120.17C4230.84 5117.9 4268.11 5078.6 4265.63 5025.07C4262.97 4967.49 4209.14 4938.64 4119.55 4936.94C4042.46 4935.48 4064.33 4985.55 4061.14 5023.55C4059.74 5040.22 4061.04 5057.09 4061.57 5085.06Z" fill="white"/>
<path d="M1531.9 5370.57C1530.74 5225.98 1532.87 5087.17 1529.18 4948.49C1527.61 4889.58 1553.13 4869.09 1611.89 4871.03C1676.73 4873.17 1741.7 4871.53 1806.56 4873.31C1828.56 4873.91 1854.12 4876.55 1853.62 4906.36C1853.13 4935.98 1829.14 4937.46 1805.9 4937.69C1761.14 4938.13 1716.31 4939.43 1671.62 4937.78C1632.44 4936.33 1616.13 4949.8 1614.01 4988.29C1608.34 5091.27 1609.28 5093.73 1720.06 5093.86C1746.91 5093.89 1773.78 5093.95 1800.61 5094.83C1823.16 5095.57 1840.14 5104.03 1840.59 5128.06C1841.04 5152.02 1824.8 5161.78 1801.99 5162.34C1759.49 5163.39 1716.88 5164.81 1674.45 5163.1C1632.12 5161.39 1615.38 5176.26 1613.81 5217.57C1609.24 5337.5 1607.57 5337.16 1733.26 5337.72C1764.48 5337.86 1795.84 5339.2 1826.85 5342.4C1843.92 5344.17 1854.27 5355.98 1854.44 5373.13C1854.57 5386.83 1849.34 5400.43 1833.78 5401.14C1738.04 5405.51 1642.12 5411.95 1546.82 5396.59C1541.1 5395.67 1537.45 5383.4 1531.9 5370.57Z" fill="white"/>
<path d="M5690.6 4990.68C5683.31 5043.19 5713.62 5068.61 5754.92 5086.36C5797.49 5104.66 5840.95 5121.17 5883.29 5139.91C5940.52 5165.25 5964.85 5212.04 5962.42 5267.89C5959.89 5326.27 5929.49 5372.07 5868.84 5394.67C5793.03 5422.91 5715.81 5420.25 5639.02 5399.05C5602.07 5388.86 5589.22 5366.35 5610.87 5329.52C5665.67 5330.6 5718.47 5352.55 5774.62 5346.64C5820.87 5341.77 5865.92 5335.88 5878.85 5285.3C5892.62 5231.38 5856.7 5204.06 5810.25 5184.79C5773.53 5169.57 5735.42 5156.84 5700.13 5139.15C5629.37 5103.68 5598.15 5046.61 5612.52 4978.15C5626.63 4910.91 5681.77 4882.95 5745.58 4869.88C5801.13 4858.51 5856.63 4868.7 5910.52 4883.98C5931.37 4889.89 5946.7 4900.58 5940.22 4925.08C5933.11 4951.95 5913.84 4957.52 5889.17 4949.91C5854.75 4939.29 5819.83 4935.38 5783.78 4935.93C5742.75 4936.55 5708.99 4947.4 5690.6 4990.68Z" fill="white"/>
<path d="M2523.98 4935.98C2384.15 4941.31 2323.17 5014.26 2327.87 5163.55C2331.66 5284.2 2402.5 5348.09 2531.32 5345.68C2555.61 5345.22 2579.85 5340.7 2604.05 5337.63C2622.07 5335.34 2640.98 5331.26 2647.29 5354.19C2653.27 5375.89 2643.89 5392.3 2621.69 5398.7C2496.96 5434.63 2320.08 5422.44 2263.32 5257.92C2244.17 5202.38 2239.12 5144.87 2248 5084.63C2274.97 4901.61 2450.6 4830.2 2631.94 4883.38C2654.37 4889.96 2674.27 4900.45 2662.49 4928.65C2652.17 4953.38 2633.03 4956.24 2608.07 4950.38C2582.29 4944.32 2555.84 4940.8 2523.98 4935.98Z" fill="white"/>
</svg>
