<svg width="320" height="835" viewBox="0 0 320 835" fill="none" xmlns="http://www.w3.org/2000/svg">
<g opacity="0.3">
<path d="M-23.2861 645.258C-26.7839 644.165 -29.9839 642.625 -32.8479 640.653C-38.8536 636.516 -43.4357 630.445 -46.4667 622.607C-49.7255 614.185 -51.2217 603.629 -50.9158 591.233C-50.3001 566.318 -43.3604 538.419 -36.6491 511.438C-35.3318 506.14 -33.9693 500.662 -32.6869 495.334C-23.9527 459.019 -18.6742 426.468 -16.5485 395.82C-12.3083 334.683 -19.4276 279.151 -37.1383 235.226C-57.6213 184.429 -89.3476 152.397 -126.474 145.031C-148.296 140.703 -184.862 152.981 -212.529 184.824C-228.948 203.722 -239.64 227.048 -243.446 252.276L-243.612 252.336C-241.615 239.105 -237.77 226.417 -232.183 214.625C-227.057 203.808 -220.467 193.728 -212.593 184.666C-200.069 170.251 -184.713 158.807 -168.183 151.568C-152.909 144.88 -138.064 142.474 -126.381 144.792C-106.952 148.648 -89.0455 159.166 -73.1607 176.057C-58.7618 191.37 -46.5886 211.215 -36.9803 235.044C-19.2587 278.994 -12.1343 334.557 -16.3777 395.73C-18.5061 426.398 -23.7876 458.967 -32.5258 495.302C-33.8069 500.63 -35.1703 506.111 -36.489 511.408C-43.1963 538.369 -50.1307 566.249 -50.7445 591.127C-51.3394 615.19 -45.2754 631.775 -32.7222 640.421C-15.3385 652.395 13.9604 647.877 45.6517 628.332C91.3209 600.169 135.259 552.131 177.75 505.677C185.199 497.534 192.899 489.114 200.424 481.011C219.961 459.969 245.819 432.873 272.584 409.898C299.941 386.416 324.326 370.502 347.133 361.246C361.093 355.58 374.421 352.989 386.746 353.546C398.131 354.058 409.031 357.277 419.147 363.108C436.498 373.112 452.158 390.946 467.026 417.626C496.299 470.163 522.01 530.861 543.442 598.037C563.813 661.886 580.509 732.148 593.067 806.867L592.901 807.012C566.87 652.123 524.469 521.18 466.876 417.818C434.337 359.422 396.28 341.517 347.104 361.473C297.076 381.774 247.069 431.002 200.481 481.175C192.959 489.276 185.258 497.696 177.81 505.839C135.305 552.31 91.3529 600.363 45.6523 628.545C30.884 637.653 16.0635 643.725 2.79484 646.103C-4.21459 647.36 -10.7381 647.575 -16.5968 646.743C-18.9348 646.419 -21.1658 645.921 -23.2861 645.258Z" fill="#FFE492"/>
<path d="M-14.2259 633.201C-23.1456 630.413 -30.144 624.889 -35.0336 616.776C-40.4859 607.729 -43.2811 595.478 -43.3439 580.364C-43.3488 579.026 -43.3326 577.648 -43.2948 576.267C-42.6256 551.478 -36.0315 523.862 -29.6526 497.154C-28.3647 491.756 -27.0309 486.174 -25.7782 480.744C-18.3206 448.411 -13.579 419.341 -11.2864 391.877C-11.0047 388.496 -10.7565 385.097 -10.552 381.774C-6.80076 321.021 -14.3977 266.015 -32.521 222.7C-53.5602 172.487 -85.7466 141.225 -123.152 134.676C-145.029 130.875 -181.614 143.536 -209.216 175.088C-225.744 193.981 -236.705 217.276 -240.918 242.454L-241.083 242.509C-238.875 229.312 -234.858 216.652 -229.143 204.884C-223.894 194.076 -217.212 183.998 -209.28 174.929C-196.712 160.561 -181.376 149.092 -164.933 141.762C-149.735 134.987 -134.866 132.386 -123.064 134.438C-103.477 137.868 -85.3712 147.978 -69.2482 164.486C-54.6446 179.44 -42.2358 198.965 -32.3667 222.52C-14.2326 265.859 -6.6328 320.899 -10.385 381.685C-10.5905 385.01 -10.8383 388.413 -11.121 391.796C-13.4153 419.278 -18.1588 448.363 -25.6208 480.713C-26.8722 486.143 -28.2059 491.726 -29.4949 497.126C-35.868 523.817 -42.4582 551.413 -43.1265 576.168C-43.1636 577.544 -43.1798 578.922 -43.1752 580.257C-43.0491 611.497 -31.4442 627.818 -14.184 633.214C-14.0892 633.244 -13.9959 633.273 -13.9012 633.303C-14.0084 633.266 -14.1177 633.235 -14.2259 633.201ZM-10.4736 634.188C6.18617 637.777 27.3331 632.274 48.3645 620.828C93.7914 595.997 138.65 549.735 182.032 504.997C183.819 503.153 185.605 501.313 187.39 499.474C191.309 495.435 195.952 490.656 200.662 485.846C221.786 464.28 246.852 439.339 272.597 417.885C299.989 395.057 324.3 379.362 346.918 369.9C360.811 364.096 374.139 361.115 386.532 361.039C398.014 360.968 409.075 363.391 419.405 368.239C437.249 376.617 453.555 392.326 469.256 416.268C484.574 439.585 496.329 460.7 506.248 482.72C520.29 513.937 531.636 548.395 540.885 577.984C562.317 646.93 579.708 723.048 592.574 804.225L592.408 804.367C579.544 723.202 562.155 647.09 540.725 578.152C531.478 548.566 520.134 514.115 506.095 482.906C496.178 460.892 484.426 439.783 469.11 416.472C434.908 364.316 396.071 349.589 346.889 370.13C295.829 391.486 244.663 441.148 200.711 486.021C196 490.83 191.359 495.608 187.439 499.648C185.655 501.486 183.869 503.328 182.081 505.172C138.685 549.924 93.8105 596.202 48.3509 621.052C37.0944 627.178 26.102 631.403 15.6785 633.607C5.97781 635.654 -2.80028 635.848 -10.4736 634.188Z" fill="#FFE492"/>
<path d="M-4.9378 621.556C-6.01082 621.221 -7.05997 620.847 -8.08286 620.435C-16.7014 616.967 -23.427 610.848 -28.07 602.243C-33.148 592.832 -35.7256 580.439 -35.729 565.405C-35.7276 564.066 -35.7076 562.687 -35.6671 561.307C-34.9455 536.656 -28.6948 509.329 -22.6498 482.905C-21.3898 477.397 -20.0872 471.701 -18.8665 466.16C-11.7333 433.843 -7.26436 404.932 -5.20638 377.775C-4.953 374.417 -4.73214 371.038 -4.55397 367.734C-1.29264 307.368 -9.36725 252.887 -27.9031 210.182C-49.4973 160.554 -82.1427 130.06 -119.828 124.327C-141.067 121.146 -177.052 132.62 -205.871 165.325C-222.521 184.22 -233.765 207.498 -238.388 232.641L-238.551 232.689C-236.13 219.516 -231.935 206.879 -226.088 195.129C-220.71 184.321 -213.93 174.242 -205.934 165.167C-193.322 150.855 -178.013 139.372 -161.661 131.955C-146.543 125.099 -131.655 122.307 -119.741 124.091C-99.9971 127.097 -81.6899 136.797 -65.3301 152.922C-50.5214 167.52 -37.8773 186.723 -27.7488 210.002C-9.20312 252.734 -1.12468 307.245 -4.38692 367.645C-4.5661 370.952 -4.78562 374.331 -5.04102 377.694C-7.10098 404.866 -11.5729 433.794 -18.7105 466.129C-19.9321 471.672 -21.2348 477.369 -22.4947 482.876C-28.5351 509.285 -34.7817 536.593 -35.5031 561.214C-35.5436 562.595 -35.5653 563.97 -35.5647 565.305C-35.5504 626.392 7.96557 633.437 51.0832 613.323C96.4857 591.924 142.616 547.19 187.227 503.929L187.685 503.485C192.007 499.291 196.476 494.956 200.907 490.682C247.654 445.59 297.42 399.788 346.712 378.553C360.542 372.61 373.873 369.238 386.33 368.531C397.916 367.873 409.135 369.501 419.674 373.369C438.048 380.113 454.999 393.7 471.497 414.908C488.858 437.144 500.861 456.346 510.416 477.173C524.01 506.892 534.333 542.303 543.44 573.546C563.588 643.407 579.957 720.128 592.093 801.573L591.927 801.713C579.792 720.276 563.424 643.563 543.279 573.708C534.173 542.471 523.852 507.066 510.262 477.356C500.711 456.536 488.712 437.34 471.357 415.112C435.596 369.141 395.982 357.595 346.687 378.776C297.426 399.998 247.681 445.779 200.952 490.855C196.521 495.13 192.051 499.466 187.73 503.658L187.272 504.102C165.041 525.66 142.053 547.952 119.314 567.174C93.7592 588.775 71.4342 603.942 51.0625 613.542C29.8046 623.458 10.0885 626.253 -4.9378 621.556Z" fill="#FFE492"/>
<path d="M591.438 799.054C580.031 717.344 564.684 640.031 545.825 569.262C545.018 566.283 544.214 563.29 543.405 560.289C535.187 529.749 526.689 498.171 514.422 471.804C502.498 446.278 487.093 428.134 473.596 413.752C436.406 373.9 396.013 365.534 346.477 387.419C295.583 409.986 243.241 457.505 201.185 495.69C198.66 497.981 196.137 500.279 193.609 502.578C191.744 504.275 189.877 505.973 188.012 507.668C164.054 529.436 142.434 548.835 120.452 565.832C95.3408 585.248 73.528 598.398 53.7636 606.035C35.2408 613.193 18.0985 614.685 4.56638 610.457C2.10101 609.687 -0.242225 608.728 -2.4549 607.576C-10.5335 603.374 -16.8154 596.697 -21.1252 587.731C-25.8284 577.948 -28.1845 565.403 -28.1305 550.443C-28.124 549.103 -28.099 547.723 -28.0547 546.341C-27.2796 521.837 -21.3732 494.815 -15.6608 468.683C-14.4303 463.055 -13.1577 457.232 -11.9669 451.567C-5.15909 419.257 -0.9631 390.503 0.863965 363.662C1.09104 360.323 1.28225 356.967 1.43446 353.683C4.20451 293.703 -4.34645 239.749 -23.2925 197.652C-45.4416 148.607 -78.5467 118.887 -116.509 113.964C-142.498 110.68 -177.857 127.767 -202.497 155.513C-219.284 174.416 -230.821 197.688 -235.862 222.812L-236.024 222.854C-233.385 209.699 -229.01 197.076 -223.023 185.335C-217.51 174.524 -210.625 164.437 -202.559 155.353C-189.908 141.106 -174.629 129.614 -158.376 122.121C-143.343 115.19 -128.444 112.208 -116.423 113.727C-96.521 116.307 -78.0153 125.598 -61.4187 141.34C-46.4062 155.582 -33.5251 174.466 -23.1362 197.467C-4.17794 239.589 4.37683 293.574 1.60486 353.59C1.45299 356.876 1.2608 360.235 1.03372 363.574C-0.793974 390.431 -4.99333 419.2 -11.8031 451.525C-12.995 457.193 -14.2665 463.013 -15.498 468.644C-21.207 494.76 -27.1092 521.766 -27.884 546.241C-27.9273 547.62 -27.9526 548.997 -27.9595 550.335C-28.1924 614.683 15.9376 620.432 53.797 605.804C98.9675 588.349 146.254 545.387 187.977 507.481C189.843 505.784 191.709 504.086 193.574 502.391C196.1 500.092 198.625 497.795 201.15 495.503C225.156 473.708 248.688 452.591 272.64 433.841C300.185 412.278 324.346 397.02 346.503 387.194C360.276 381.108 373.606 377.345 386.121 376.013C397.819 374.765 409.196 375.6 419.938 378.49C438.883 383.588 456.48 395.054 473.733 413.54C487.234 427.928 502.646 446.08 514.576 471.621C526.85 497.998 535.348 529.585 543.568 560.13C544.376 563.131 545.182 566.124 545.989 569.104C564.85 639.878 580.197 717.2 591.605 798.917L591.438 799.054Z" fill="#FFE492"/>
<path d="M590.954 796.398C580.069 712.858 565.746 634.942 548.377 564.818C547.337 560.622 546.286 556.303 545.268 552.128C537.979 522.224 530.442 491.302 518.588 466.253C506.722 441.306 490.322 425.025 475.842 412.391C437.378 378.577 396.206 373.389 346.272 396.064C298.594 417.809 251.24 458.118 205.446 497.099L200.418 501.378C196.446 504.759 192.341 508.252 188.301 511.676C142.597 550.379 98.126 586.142 56.4737 598.524C46.3662 601.529 36.7673 602.8 27.9385 602.308C18.4587 601.777 10.1321 599.208 3.18975 594.672C-4.35026 589.745 -10.1896 582.52 -14.1655 573.199C-18.4926 563.055 -20.6305 550.363 -20.5189 535.48C-20.5066 534.133 -20.4766 532.752 -20.4293 531.374C-19.604 507.032 -14.04 480.328 -8.65857 454.502C-7.45785 448.739 -6.21681 442.779 -5.05609 436.978C1.42185 404.671 5.34758 376.074 6.94442 349.555C7.14352 346.241 7.30843 342.903 7.43298 339.638C9.7131 280.044 0.685804 226.616 -18.6731 185.127C-41.3805 136.67 -74.9447 107.719 -113.188 103.608C-139.181 100.919 -174.503 118.214 -199.083 145.67C-216.02 164.588 -227.864 187.867 -233.334 212.992L-233.496 213.03C-230.634 199.883 -226.073 187.265 -219.942 175.529C-214.289 164.709 -207.292 154.609 -199.147 145.512C-186.457 131.339 -171.217 119.85 -155.071 112.287C-140.127 105.286 -125.224 102.121 -113.105 103.373C-93.0455 105.529 -74.3403 114.41 -57.5056 129.769C-42.288 143.654 -29.1716 162.216 -18.5219 184.943C0.848898 226.455 9.88035 279.916 7.59932 339.543C7.47376 342.811 7.3092 346.152 7.1101 349.465C5.51363 375.999 1.58592 404.61 -4.89637 436.934C-6.05709 442.736 -7.29912 448.699 -8.49984 454.461C-13.8779 480.272 -19.4396 506.964 -20.2633 531.277C-20.3099 532.65 -20.339 534.029 -20.3526 535.375C-20.828 598.752 19.0419 609.432 56.5136 598.292C98.1322 585.921 142.586 550.171 188.27 511.486C192.309 508.062 196.415 504.568 200.386 501.187L205.415 496.908C227.893 477.775 251.137 457.987 274.784 440.214C301.567 420.084 324.958 405.569 346.293 395.837C360.016 389.605 373.347 385.452 385.915 383.495C397.731 381.654 409.267 381.693 420.203 383.61C439.773 387.04 458.012 396.383 475.97 412.171C490.456 424.812 506.866 441.099 518.739 466.066C530.601 491.126 538.14 522.057 545.43 551.969C546.448 556.144 547.5 560.461 548.539 564.658C565.91 634.789 580.235 712.711 591.119 796.258L590.954 796.398Z" fill="#FFE492"/>
<path d="M590.467 793.741C580.274 709.527 566.97 631.01 550.925 560.374C549.719 555.066 548.51 549.56 547.341 544.237C540.896 514.895 534.232 484.554 522.748 460.705C510.837 436.109 493.487 421.793 478.083 411.033C438.542 383.145 396.591 381.138 346.062 404.711C301.912 425.412 257.871 460.541 215.279 494.512C210.797 498.087 206.163 501.782 201.658 505.358C196.367 509.558 192.335 512.745 188.585 515.688C168.509 531.439 144.931 549.431 122.28 563.446C98.2774 578.296 77.6367 587.315 59.1771 591.019C49.4703 592.966 40.3332 593.252 32.0192 591.865C23.0919 590.377 15.2883 586.98 8.82831 581.768C1.82896 576.122 -3.56657 568.35 -7.21166 558.67C-11.1643 548.173 -13.0812 535.334 -12.912 520.517C-12.894 519.175 -12.8602 517.792 -12.8095 516.41C-11.9344 492.248 -6.71106 465.876 -1.66127 440.372C-0.490065 434.456 0.721112 428.341 1.85097 422.386C7.99903 390.072 11.6521 361.635 13.0198 335.445C13.1916 332.152 13.3282 328.837 13.4264 325.59C15.2166 266.383 5.71161 213.481 -14.0588 172.599C-37.3208 124.73 -71.3461 96.5509 -109.866 93.2496C-131.826 91.4676 -166.862 103.929 -195.631 135.783C-212.736 154.722 -224.9 178.024 -230.807 203.167L-230.965 203.197C-227.878 190.05 -223.124 177.431 -216.839 165.689C-211.037 154.852 -203.923 144.736 -195.69 135.621C-182.966 121.533 -167.77 110.057 -151.74 102.431C-136.889 95.3663 -121.989 92.0224 -109.783 93.0125C-89.5654 94.7445 -70.6593 103.215 -53.5891 118.19C-38.1678 131.719 -24.8157 149.961 -13.9066 172.413C5.87573 213.317 15.3859 266.25 13.5948 325.491C13.4965 328.738 13.3593 332.058 13.1865 335.353C11.8178 361.556 8.16274 390.008 2.0127 422.338C0.883192 428.296 -0.327985 434.411 -1.49919 440.327C-6.548 465.818 -11.7666 492.176 -12.6412 516.311C-12.6908 517.691 -12.7249 519.071 -12.7419 520.411C-13.3523 573.636 13.5543 599.942 59.2328 590.778C100.599 582.481 145.807 549.032 188.567 515.485C192.316 512.542 196.347 509.355 201.637 505.155C206.142 501.579 210.777 497.884 215.259 494.309C236.227 477.585 257.907 460.292 279.845 444.61C304.654 426.875 326.322 413.749 346.087 404.483C359.769 398.1 373.099 393.556 385.71 390.98C397.655 388.539 409.349 387.784 420.47 388.733C440.718 390.463 459.604 397.683 478.208 410.804C493.619 421.571 510.983 435.894 522.903 460.512C534.395 484.376 541.06 514.725 547.506 544.076C548.676 549.399 549.884 554.905 551.091 560.213C567.136 630.857 580.442 709.38 590.637 793.6L590.467 793.741Z" fill="#FFE492"/>
<path d="M589.976 791.085C580.479 706.192 568.197 627.072 553.47 555.929C552.216 549.877 550.979 543.549 549.78 537.43C544.071 508.28 538.169 478.141 526.907 455.153C514.888 430.773 496.614 418.481 480.324 409.672C440.502 387.874 396.515 389.079 345.852 413.355C305.457 432.813 264.988 463.086 225.851 492.363C217.946 498.277 209.773 504.393 201.888 510.193C197.064 513.743 192.805 516.854 188.866 519.7C170.552 532.918 146.536 549.7 123.186 562.25C99.7239 574.858 79.6688 581.814 61.8762 583.511C42.4698 585.364 26.0737 580.297 14.46 568.861C8.00331 562.502 3.04925 554.185 -0.264356 544.14C-3.8419 533.295 -5.53891 520.313 -5.31233 505.559C-5.28925 504.216 -5.25039 502.832 -5.19701 501.451C-4.27329 477.49 0.608021 451.471 5.32897 426.311C6.47094 420.224 7.65222 413.932 8.74979 407.802C14.5646 375.474 17.9471 347.191 19.0883 321.343C19.2328 318.07 19.3421 314.776 19.413 311.55C20.7133 252.729 10.7329 200.351 -9.45106 160.082C-33.2686 112.802 -67.7539 85.3935 -106.553 82.901C-132.9 81.3369 -167.298 98.6025 -192.143 125.861C-209.433 144.83 -221.931 168.168 -228.286 193.352L-228.443 193.375C-225.122 180.215 -220.17 167.584 -213.726 155.833C-207.77 144.973 -200.528 134.833 -192.201 125.697C-179.447 111.703 -164.3 100.249 -148.397 92.5725C-133.647 85.4526 -118.755 81.9307 -106.471 82.6608C-86.0958 83.9688 -66.9898 92.0309 -49.6818 106.621C-34.0554 119.794 -20.4677 137.716 -9.29819 159.89C10.8967 200.184 20.8832 252.591 19.5824 311.449C19.5114 314.675 19.4011 317.971 19.257 321.246C18.1138 347.111 14.7303 375.406 8.91354 407.749C7.81597 413.879 6.63372 420.174 5.49175 426.261C0.773124 451.408 -4.10589 477.415 -5.02866 501.352C-5.08205 502.733 -5.12022 504.112 -5.1433 505.455C-5.95972 558.27 19.1185 587.36 61.9414 583.274C100.981 579.547 146.01 550.418 188.852 519.497C192.79 516.65 197.05 513.542 201.872 509.991C209.755 504.191 217.929 498.077 225.833 492.164C264.978 462.881 305.455 432.6 345.868 413.134C359.522 406.591 372.854 401.66 385.494 398.471C397.583 395.424 409.437 393.874 420.725 393.864C441.719 393.848 461.25 398.946 480.434 409.446C496.736 418.261 515.027 430.561 527.057 454.969C538.328 477.972 544.232 508.123 549.943 537.284C551.141 543.403 552.38 549.729 553.634 555.78C568.361 626.929 580.645 706.055 590.143 790.953L589.976 791.085Z" fill="#FFE492"/>
<path d="M589.491 788.428C580.696 702.852 569.434 623.134 556.02 551.486C554.788 544.902 553.59 537.964 552.433 531.254C547.399 502.085 542.195 471.921 531.07 449.604C518.901 425.352 499.722 415.122 482.566 408.313C442.227 392.045 397.439 396.521 345.644 422.001C309.268 439.993 272.679 465.718 237.294 490.594C225.127 499.149 213.634 507.229 202.125 515.027C197.442 518.202 193.199 521.044 189.152 523.711C163.049 540.898 142.378 552.762 124.099 561.046C101.167 571.441 81.6987 576.334 64.5831 576.002C57.9437 575.873 51.6956 574.89 45.9218 573.085C35.6869 569.885 26.9355 564.108 20.1001 555.948C7.72996 541.179 1.7403 519.191 2.29719 490.595C2.32665 489.24 2.36955 487.858 2.42633 486.483C3.39634 462.747 7.93677 437.11 12.3289 412.315C13.4413 406.033 14.5922 399.54 15.6594 393.209C21.1395 360.856 24.2481 332.733 25.1676 307.232C25.2848 303.98 25.3667 300.707 25.4104 297.501C26.2207 239.067 15.7627 187.215 -4.83287 147.553C-29.207 100.865 -64.15 74.2253 -103.227 72.5416C-129.922 71.5254 -163.432 88.5368 -188.596 115.882C-206.087 134.889 -218.935 158.28 -225.753 183.527L-225.909 183.544C-222.349 170.361 -217.191 157.709 -210.579 145.939C-204.458 135.045 -197.083 124.878 -188.653 115.718C-175.874 101.831 -160.786 90.4114 -145.018 82.6923C-130.372 75.5213 -115.503 71.8331 -103.148 72.3033C-82.6152 73.1874 -63.3083 80.8391 -45.7649 95.0452C-29.9343 107.865 -16.1123 125.467 -4.68001 147.362C15.9264 187.048 26.3906 238.929 25.5807 297.398C25.5361 300.606 25.4541 303.879 25.3373 307.133C24.4182 332.647 21.3076 360.786 15.8252 393.152C14.7579 399.482 13.6074 405.978 12.4937 412.26C8.10385 437.043 3.56475 462.669 2.59603 486.384C2.54026 487.757 2.496 489.139 2.46754 490.491C1.42575 543.895 24.0941 574.975 64.6608 575.761C103.278 576.508 149.259 549.761 189.149 523.497C193.194 520.83 197.436 517.991 202.119 514.816C213.626 507.017 225.119 498.939 237.285 490.384C272.676 465.502 309.273 439.774 345.663 421.776C359.309 415.063 372.641 409.74 385.291 405.954C397.543 402.288 409.556 399.942 420.994 398.985C442.806 397.162 462.983 400.136 482.673 408.078C499.844 414.892 519.04 425.132 531.223 449.412C542.358 471.746 547.563 501.923 552.599 531.104C553.757 537.814 554.954 544.751 556.185 551.333C569.6 622.986 580.862 702.712 589.658 788.294L589.491 788.428Z" fill="#FFE492"/>
<path d="M589.011 785.774C580.809 698.293 570.853 620.204 558.576 547.042C557.403 540.062 556.342 532.976 555.218 525.473C550.824 496.145 546.28 465.821 535.238 444.056C522.816 419.733 501.766 411.452 484.815 406.955C444.358 395.977 398.768 403.728 345.441 430.652C313.398 446.917 281.049 468.367 249.764 489.112C233.322 500.015 217.794 510.31 202.364 519.865C197.782 522.705 193.554 525.275 189.441 527.724C163.959 542.875 143.488 553.079 125.016 559.841C102.595 568.049 83.7144 570.879 67.2937 568.494C58.8569 567.268 51.1095 564.581 44.2666 560.506C37.0217 556.192 30.7902 550.312 25.7449 543.033C14.5624 526.897 9.23448 504.223 9.90968 475.637C9.94422 474.281 9.99219 472.898 10.0517 471.524C11.0647 448.048 15.2663 422.821 19.3288 398.426C20.4128 391.917 21.5339 385.185 22.5711 378.625C27.7118 346.24 30.5501 318.274 31.2476 293.129C31.3361 289.898 31.3907 286.645 31.4097 283.461C31.7302 225.414 20.7958 174.088 -0.211273 135.034C-19.6478 99.0969 -45.4546 75.4492 -74.5316 66.3595C-82.7517 63.7899 -91.2267 62.3846 -99.8998 62.1908C-126.507 61.731 -159.91 78.8743 -184.999 105.866C-202.709 124.919 -215.926 148.38 -223.22 173.711L-223.375 173.722C-219.569 160.503 -214.197 147.82 -207.41 136.025C-201.119 125.091 -193.597 114.888 -185.056 105.699C-172.257 91.9291 -157.237 80.5552 -141.615 72.8039C-126.868 65.486 -112.417 61.7337 -99.8254 61.9535C-79.1352 62.4137 -59.6284 69.6574 -41.8471 83.4779C-25.8118 95.9392 -11.7519 113.219 -0.0601102 134.839C20.9589 173.915 31.9007 225.27 31.5808 283.353C31.5631 286.537 31.5088 289.792 31.4193 293.026C30.7209 318.184 27.8816 346.163 22.7389 378.563C21.7017 385.124 20.5819 391.855 19.4969 398.366C15.4358 422.752 11.2355 447.969 10.2227 471.426C10.1643 472.798 10.1163 474.181 10.0814 475.534C8.81973 528.988 29.7056 562.781 67.3846 568.254C105.512 573.791 152.646 549.384 189.45 527.504C193.563 525.055 197.79 522.484 202.37 519.647C217.797 510.096 233.325 499.798 249.765 488.897C281.053 468.15 313.408 446.694 345.462 430.424C372.917 416.563 397.712 407.957 421.266 404.113C443.982 400.406 464.803 401.258 484.918 406.716C496.42 409.767 505.277 413.482 512.795 418.405C522.5 424.762 529.892 433.089 535.394 443.863C546.447 465.647 550.992 495.988 555.389 525.33C556.512 532.832 557.575 539.916 558.744 546.896C571.022 620.06 580.979 698.155 589.182 785.641L589.011 785.774Z" fill="#FFE492"/>
<path d="M588.52 783.115C581.039 694.93 572.075 616.257 561.12 542.595C560.036 535.307 559.084 527.851 558.075 519.957C554.297 490.379 550.392 459.793 539.396 438.502C526.772 414.211 504.792 408.154 487.055 405.589C447.007 399.58 400.614 410.605 345.23 439.291C317.901 453.521 290.221 470.93 263.452 487.768C242.291 501.077 222.304 513.649 202.598 524.691C198.142 527.19 193.81 529.557 189.724 531.725C165.107 544.775 144.24 553.571 125.929 558.619C104.003 564.663 85.7074 565.435 69.9971 560.975C62.0042 558.705 54.719 555.024 48.3502 550.032C41.6741 544.798 35.9661 538.093 31.3854 530.1C21.3873 512.655 16.7198 489.294 17.5145 460.665C17.5548 459.314 17.6065 457.929 17.6704 456.548C18.7238 433.376 22.5858 408.603 26.3197 384.647C27.3765 377.869 28.4691 370.858 29.4761 364.024C34.276 331.597 36.8417 303.79 37.3223 279.011C37.3835 275.8 37.4108 272.568 37.4025 269.405C37.233 211.744 25.821 160.944 4.40232 122.498C-21.0846 76.995 -56.9491 51.8965 -96.5813 51.8258C-123.073 51.9046 -156.35 69.159 -181.356 95.7802C-199.304 114.889 -212.907 138.437 -220.697 163.882L-220.849 163.885C-216.788 150.622 -211.194 137.896 -204.221 126.064C-197.747 115.081 -190.073 104.834 -181.411 95.6116C-168.6 81.973 -153.655 70.6555 -138.189 62.8819C-123.561 55.5295 -109.148 51.6242 -96.5059 51.5862C-75.6577 51.6252 -55.9504 58.4558 -37.9337 71.8927C-21.6953 84.0028 -7.40104 100.963 4.55215 122.303C25.985 160.769 37.4022 211.6 37.5708 269.296C37.5805 272.459 37.5535 275.694 37.4913 278.907C37.0111 303.7 34.443 331.519 29.6421 363.959C28.6365 370.793 27.5426 377.804 26.4861 384.585C22.7535 408.531 18.8929 433.293 17.8401 456.45C17.7772 457.828 17.7255 459.213 17.6849 460.562C16.1707 515.136 34.7825 550.717 70.0971 560.736C98.7501 568.869 136.768 559.577 189.739 531.498C193.823 529.33 198.153 526.965 202.608 524.466C222.31 513.425 242.295 500.857 263.453 487.547C290.226 470.708 317.91 453.295 345.247 439.062C373.172 424.598 398.121 414.842 421.525 409.231C445.234 403.548 466.7 402.275 487.147 405.344C504.903 407.91 526.908 413.978 539.551 438.306C550.558 459.621 554.466 490.222 558.246 519.813C559.253 527.707 560.207 535.161 561.29 542.446C572.247 616.111 581.21 694.789 588.69 782.98L588.52 783.115Z" fill="#FFE492"/>
<path d="M588.036 780.46C581.282 691.568 573.314 612.308 563.672 538.153C562.694 530.624 561.869 522.862 560.996 514.644C557.822 484.748 554.538 453.834 543.563 432.954C530.718 408.669 507.818 404.846 489.303 404.229C449.839 402.725 403.995 416.614 345.026 447.938C322.878 459.761 300.384 473.293 278.631 486.38C252.21 502.274 227.254 517.288 202.836 529.526C198.435 531.734 194.12 533.825 190.012 535.736C165.83 546.981 145.169 554.069 126.849 557.401C116.587 559.268 106.962 559.936 98.2408 559.387C88.9386 558.799 80.3474 556.807 72.7056 553.467C57.2017 546.688 45.1997 534.477 37.0335 517.176C28.2143 498.49 24.2075 474.446 25.1273 445.705C25.1743 444.345 25.2311 442.959 25.2946 441.586C26.3849 418.77 29.9064 394.508 33.3123 371.048C34.3427 363.945 35.4094 356.601 36.3866 349.437C40.8406 316.957 43.1348 289.308 43.4012 264.906C43.436 261.713 43.4347 258.502 43.3994 255.362C42.741 198.085 30.8526 147.811 9.02041 109.977C-17.0227 65.0688 -53.346 40.7414 -93.2573 41.4739C-136.075 42.4515 -196.005 85.7749 -218.165 154.064L-218.316 154.06C-212.773 136.977 -204.822 120.926 -194.686 106.348C-185.429 93.0341 -174.534 81.1864 -162.307 71.1377C-150.939 61.7936 -138.943 54.408 -126.654 49.1847C-114.967 44.2174 -103.392 41.4664 -93.1847 41.2334C-72.1789 40.8486 -52.2716 47.2711 -34.0182 60.3248C-17.5756 72.0814 -3.04575 88.7214 9.16787 109.784C31.011 147.643 42.9068 197.945 43.5667 255.255C43.6024 258.397 43.6037 261.609 43.5692 264.804C43.3028 289.217 41.0067 316.882 36.5517 349.374C35.5744 356.539 34.5078 363.882 33.4764 370.987C30.0722 394.441 26.552 418.692 25.4627 441.495C25.3978 442.868 25.3397 444.253 25.2936 445.61C23.5279 500.845 40.4053 539.066 72.8134 553.237C100.251 565.231 138.593 559.435 190.033 535.514C194.139 533.602 198.452 531.513 202.852 529.305C227.264 517.071 252.217 502.058 278.634 486.165C300.389 473.077 322.886 459.542 345.038 447.718C404.03 416.38 449.895 402.487 489.381 403.99C501.823 404.405 511.454 406.305 519.693 409.973C530.226 414.661 538.082 422.115 543.713 432.761C554.701 453.664 557.986 484.597 561.163 514.51C562.036 522.726 562.86 530.488 563.838 538.013C573.481 612.174 581.449 691.437 588.203 780.334L588.036 780.46Z" fill="#FFE492"/>
<path d="M587.554 777.805C581.535 688.197 574.557 608.353 566.226 533.709C565.363 525.986 564.678 517.964 563.955 509.468C561.372 479.204 558.702 447.908 547.729 427.403C534.502 402.829 509.333 401.63 491.551 402.866C443.376 406.021 390.345 431.79 344.822 456.586C328.439 465.548 311.768 475.255 295.645 484.641C263.301 503.471 232.752 521.256 203.076 534.362C198.71 536.291 194.414 538.103 190.302 539.75C166.487 549.263 146.033 554.639 127.774 556.183C107.074 557.935 89.4591 554.496 75.4165 545.959C60.9909 537.189 49.9778 523.155 42.6859 504.248C35.0368 484.418 31.6907 459.69 32.7387 430.747C32.7911 429.389 32.8516 428.001 32.9198 426.624C34.0398 404.243 37.2217 380.572 40.298 357.678C41.3071 350.175 42.3481 342.419 43.2982 334.851C47.4614 301.855 49.425 275.149 49.4824 250.801C49.49 247.629 49.4616 244.441 49.3987 241.319C48.2466 184.43 35.8806 134.683 13.6379 97.4539C-12.9625 53.1424 -49.7448 29.5832 -89.934 31.1194C-133.27 32.9504 -192.137 75.7636 -215.636 144.246L-215.783 144.234C-209.953 127.244 -201.816 111.27 -191.601 96.7561C-182.241 83.4588 -171.311 71.6063 -159.114 61.5321C-147.74 52.1365 -135.753 44.6655 -123.484 39.322C-111.801 34.2336 -100.174 31.3155 -89.8613 30.879C-68.6966 30.0706 -48.5908 36.0847 -30.1009 48.7524C-13.4542 60.1554 1.31127 76.4757 13.7863 97.2584C36.0433 134.507 48.4155 184.284 49.5653 241.207C49.6273 244.331 49.6559 247.522 49.6497 250.694C49.5937 275.053 47.6267 301.773 43.4625 334.782C42.5125 342.351 41.4704 350.109 40.4614 357.612C37.3868 380.498 34.2066 404.163 33.0852 426.533C33.0169 427.91 32.9561 429.294 32.9037 430.652C30.8672 486.914 46.0061 527.783 75.5324 545.733C102.013 561.831 139.565 559.798 190.332 539.52C194.441 537.875 198.737 536.065 203.099 534.136C232.769 521.033 263.313 503.251 295.651 484.422C311.775 475.036 328.448 465.327 344.834 456.363C375.444 439.692 399.983 427.976 422.056 419.493C448.041 409.507 470.794 403.991 491.619 402.627C504.336 401.743 514.65 402.766 523.149 405.758C534.092 409.609 542.182 416.626 547.879 427.211C558.868 447.741 561.538 479.056 564.122 509.339C564.847 517.833 565.53 525.854 566.393 533.573C574.726 608.22 581.702 688.068 587.723 777.68L587.554 777.805Z" fill="#FFE492"/>
<path d="M587.064 775.146C581.783 684.82 575.8 604.391 568.772 529.261C568.034 521.383 567.498 513.136 566.931 504.405C564.936 473.732 562.874 442.014 551.888 421.851C538.414 397.247 512.28 398.453 493.793 401.503C448.208 408.867 399.261 434.721 344.612 465.229C334.744 470.76 324.695 476.511 314.975 482.074C277.596 503.469 238.946 525.591 203.308 539.194C198.977 540.849 194.695 542.384 190.583 543.757C167.402 551.482 146.579 555.25 128.69 554.956C108.426 554.623 91.4121 549.068 78.1163 538.447C64.7612 527.777 54.7394 511.919 48.3283 491.312C41.8408 470.458 39.1518 445.047 40.3367 415.785C40.3942 414.426 40.4597 413.038 40.5307 411.662C41.6753 389.82 44.5137 366.844 47.2585 344.625C48.2474 336.619 49.2701 328.342 50.1943 320.265C53.9993 287.192 55.6998 260.638 55.5469 236.698C55.5268 233.555 55.4708 230.384 55.3812 227.278C53.7463 170.77 40.9053 121.549 18.2473 84.9291C-8.909 41.2147 -46.15 18.4267 -86.6187 20.7633C-128.93 23.3532 -187.642 64.0668 -213.114 134.423L-213.258 134.404C-207.14 117.504 -198.818 101.609 -188.525 87.16C-179.061 73.8763 -168.095 62.0218 -155.93 51.9217C-133.487 33.2903 -108.199 21.8459 -86.5487 20.522C-65.2274 19.2921 -44.9207 24.8958 -26.193 37.178C-9.34324 48.2298 5.65755 64.2276 18.394 84.7304C41.0649 121.37 53.9125 170.622 55.5522 227.159C55.6421 230.268 55.6981 233.438 55.7185 236.584C55.8705 260.537 54.1701 287.102 50.3627 320.188C49.4375 328.267 48.4162 336.544 47.4272 344.55C44.6832 366.764 41.8453 389.735 40.7007 411.566C40.6284 412.942 40.5639 414.328 40.5064 415.687C38.1353 474.231 51.1843 516.603 78.2417 538.223C103.297 558.241 141.104 560.025 190.619 543.524C194.73 542.151 199.008 540.617 203.336 538.964C238.962 525.365 277.607 503.247 314.979 481.855C324.699 476.291 334.748 470.54 344.617 465.01C368.539 451.655 396.244 436.421 422.313 424.62C449.582 412.277 472.981 404.638 493.847 401.267C507.003 399.098 517.716 399.188 526.594 401.543C537.792 404.512 546.349 411.281 552.033 421.66C556.955 430.692 560.529 442.993 562.958 459.266C565.105 473.635 566.116 489.216 567.096 504.281C567.663 513.01 568.199 521.256 568.936 529.132C575.965 604.265 581.949 684.696 587.23 775.025L587.064 775.146Z" fill="#FFE492"/>
<path d="M586.582 772.491C582.046 681.44 577.055 600.426 571.325 524.819C570.717 516.814 570.336 508.371 569.931 499.435C568.522 468.321 567.066 436.147 556.054 416.305C545.746 397.806 526.115 392.52 496.04 400.144C454.041 410.687 409.514 436.363 362.37 463.55C356.5 466.935 350.431 470.435 344.407 473.881C342.046 475.235 339.682 476.594 337.32 477.95C292.459 503.718 246.071 530.365 203.547 544.032C199.248 545.415 194.983 546.674 190.873 547.771C167.951 553.879 147.343 555.884 129.623 553.731C109.78 551.319 93.363 543.651 80.8302 530.94C68.5311 518.463 59.5006 500.78 53.9899 478.382C48.6486 456.671 46.617 430.58 47.9525 400.828C48.0151 399.468 48.0857 398.079 48.1604 396.701C49.3172 375.56 51.8114 353.438 54.2213 332.045C55.1982 323.382 56.207 314.422 57.1113 305.677C60.5528 272.514 61.9915 246.112 61.6336 222.592C61.5859 219.466 61.5029 216.32 61.386 213.234C59.2561 157.113 45.9384 108.416 22.8679 72.4063C-4.84392 29.2918 -42.5454 7.27156 -83.2922 10.4092C-125.17 13.7489 -184.013 54.9052 -210.582 124.605L-210.725 124.581C-204.316 107.769 -195.81 91.9532 -185.441 77.5729C-175.872 64.3032 -164.869 52.4416 -152.737 42.3207C-130.328 23.6255 -104.993 11.9085 -83.2256 10.1721C-61.7453 8.51871 -41.2391 13.7116 -22.2759 25.6102C-5.22104 36.3061 10.0167 51.9845 23.0147 72.2076C46.0971 108.239 59.4247 156.964 61.553 213.113C61.6699 216.199 61.7535 219.351 61.8012 222.476C62.1582 246.01 60.7219 272.421 57.278 305.596C56.3751 314.342 55.3639 323.303 54.3884 331.967C51.9778 353.355 49.4856 375.472 48.3291 396.605C48.2544 397.983 48.1835 399.369 48.1209 400.729C45.4061 461.224 56.7634 506.172 80.9651 530.719C104.856 554.95 141.85 560.606 190.921 547.531C195.028 546.433 199.29 545.176 203.588 543.795C246.097 530.134 292.476 503.492 337.329 477.727C339.693 476.369 342.055 475.012 344.415 473.658C350.44 470.211 356.508 466.712 362.378 463.329C409.531 436.137 454.07 410.454 496.088 399.907C509.676 396.461 520.786 395.62 530.054 397.329C541.655 399.469 550.452 405.79 556.204 416.11C561.136 424.997 564.593 437.312 566.773 453.759C568.695 468.271 569.41 484.054 570.101 499.316C570.506 508.249 570.887 516.689 571.495 524.691C577.225 600.301 582.216 681.318 586.752 772.371L586.582 772.491Z" fill="#FFE492"/>
<path d="M586.09 769.833C582.599 685.218 578.487 601.286 573.868 520.372C573.38 512.175 573.15 503.461 572.906 494.238C572.116 464.234 571.218 430.227 560.21 410.754C549.703 392.219 529.445 388.302 498.277 398.778C461.248 411.164 423.165 434.492 382.845 459.189C370.219 466.923 357.161 474.923 344.192 482.522C321.538 495.827 297.214 509.795 272.84 521.823C246.735 534.706 224.144 543.548 203.773 548.861C199.493 549.977 195.246 550.959 191.149 551.776C168.483 556.288 148.101 556.517 130.57 552.456C111.163 547.958 95.3353 538.193 83.5279 523.422C61.8197 495.923 52.4059 449.642 55.5497 385.863C55.6173 384.502 55.693 383.111 55.7704 381.734C56.9222 361.541 59.0635 340.526 61.1352 320.202C62.1097 310.637 63.1188 300.744 64.0066 291.088C67.0824 257.819 68.2556 231.57 67.6986 208.484C67.6232 205.377 67.5129 202.251 67.369 199.189C64.7553 143.451 50.9589 95.2819 27.4768 59.8802C-0.790924 17.3629 -38.9521 -3.88396 -79.9774 0.0517975C-122.452 4.20973 -180.087 44.9542 -208.062 114.783L-208.201 114.75C-201.501 98.0241 -192.808 82.2876 -182.365 67.9755C-172.69 54.7179 -161.651 42.8516 -149.554 32.7091C-138.157 23.1531 -126.194 15.4223 -113.997 9.7292C-102.155 4.20391 -90.6878 0.866522 -79.9125 -0.188443C-58.2743 -2.263 -37.5672 2.51951 -18.3675 14.0321C-1.11059 24.3792 14.3625 39.7351 27.6218 59.6783C51.1182 95.1004 64.9221 143.299 67.5393 199.064C67.6822 202.129 67.7941 205.258 67.8695 208.365C68.4256 231.464 67.2525 257.723 64.1767 291.003C63.2879 300.662 62.2788 310.554 61.3032 320.122C59.2325 340.443 57.0909 361.455 55.9394 381.641C55.8597 383.02 55.7864 384.408 55.7174 385.769C52.5765 449.498 61.9804 495.742 83.6682 523.214C106.107 551.282 143.292 561.077 191.204 551.537C195.298 550.72 199.544 549.74 203.82 548.626C249.365 536.751 298.141 509.352 344.197 482.303C357.166 474.704 370.222 466.706 382.848 458.972C423.176 434.27 461.267 410.936 498.314 398.545C529.531 388.053 549.827 391.981 560.358 410.558C565.289 419.28 568.621 431.577 570.549 448.148C572.248 462.76 572.668 478.705 573.075 494.123C573.319 503.347 573.548 512.058 574.037 520.249C578.657 601.166 582.769 685.098 586.259 769.715L586.09 769.833Z" fill="#FFE492"/>
<path d="M585.609 767.178C582.83 682.323 579.739 597.791 576.422 515.928C576.078 507.689 576.012 498.875 575.94 489.543C575.709 459.02 575.446 424.422 564.378 405.201C553.667 386.629 532.78 384.082 500.527 397.411C466.748 411.345 431.137 434.797 396.697 457.48C379.428 468.853 361.571 480.613 343.99 491.166C316.232 507.843 293.631 520.12 272.862 529.803C247.252 541.742 224.731 549.556 204.015 553.692C199.762 554.543 195.531 555.246 191.44 555.782C170.127 558.575 150.902 557.35 134.245 552.146C133.319 551.856 132.405 551.555 131.496 551.241C112.472 544.678 97.2468 532.789 86.2416 515.908C80.9432 507.728 76.4715 498.05 72.9522 487.14C69.6437 476.887 67.0743 465.225 65.3145 452.478C62.1478 429.547 61.4432 402.86 63.1616 370.9C63.2366 369.525 63.314 368.148 63.3961 366.768C64.5138 347.943 66.2922 328.455 68.013 309.609C69.0054 298.73 70.0331 287.48 70.9197 276.494C73.6582 242.649 74.5421 217.32 73.78 194.372C73.6772 191.286 73.5397 188.18 73.3685 185.139C70.2641 129.793 55.9914 82.1496 32.0978 47.3556C3.27457 5.43814 -35.3467 -15.038 -76.6504 -10.3041C-118.663 -5.44617 -176.421 35.7064 -205.528 104.961L-205.664 104.921C-192.107 72.6633 -171.598 44.3703 -146.357 23.102C-134.948 13.4888 -122.994 5.67265 -110.823 -0.134916C-98.9801 -5.78473 -87.4617 -9.28697 -76.5856 -10.5444C-54.7897 -13.0428 -33.8828 -8.66835 -14.4467 2.45829C3.01337 12.4542 18.7221 27.4903 32.2425 47.151C56.1507 81.9681 70.431 129.64 73.5381 185.019C73.7083 188.063 73.8476 191.171 73.9503 194.258C74.7114 217.219 73.8286 242.556 71.0878 276.414C70.2002 287.402 69.1738 298.653 68.1801 309.531C66.4603 328.375 64.6815 347.86 63.5645 366.68C63.4824 368.06 63.4037 369.436 63.3296 370.809C59.6776 438.725 67.2197 486.122 86.387 515.709C113.001 556.534 158.238 559.907 191.501 555.546C195.589 555.009 199.817 554.307 204.069 553.457C251.715 543.943 303.875 515.055 343.993 490.951C361.571 480.403 379.427 468.642 396.693 457.271C431.14 434.585 466.76 411.125 500.555 397.185C514.987 391.221 526.895 388.51 536.955 388.901C549.362 389.382 558.638 394.802 564.524 405.01C569.481 413.618 572.706 425.972 574.386 442.776C575.866 457.583 575.989 473.776 576.108 489.438C576.179 498.767 576.245 507.579 576.59 515.813C579.907 597.676 582.998 682.208 585.778 767.064L585.609 767.178Z" fill="#FFE492"/>
<path d="M585.123 764.523L578.972 511.486C578.771 503.223 578.867 494.328 578.967 484.915C579.299 453.847 579.675 418.636 568.541 399.655C557.772 381.301 535.645 380.089 502.771 396.052C471.168 411.397 438.352 434.684 406.616 457.205C385.929 471.885 364.539 487.063 343.782 499.817C281.394 538.153 233.077 557.211 191.727 559.796C174.573 560.867 158.829 559.183 144.75 554.781C140.482 553.447 136.371 551.864 132.417 550.033C113.768 541.396 99.1433 527.387 88.9498 508.4C79.5032 490.799 73.6178 468.283 70.9633 439.563C68.8429 416.628 68.7808 390.058 70.7693 355.944C71.818 337.94 73.3244 319.364 74.7812 301.4C78.0762 260.748 81.4841 218.712 79.8588 180.27C77.3643 121.308 62.4444 71.0165 36.7125 34.8317C7.33412 -6.48303 -31.7462 -26.1909 -73.3284 -20.6588C-113.587 -15.3031 -171.337 23.2178 -203.001 95.1419L-203.134 95.0949C-188.981 62.9465 -168.244 34.7301 -143.166 13.4958C-120.491 -5.70387 -95.6674 -17.9181 -73.2659 -20.8972C-51.3121 -23.8168 -30.2043 -19.8527 -10.5331 -9.11243C7.13104 0.529878 23.0744 15.2486 36.8563 34.6295C49.5888 52.5339 59.7475 74.0386 67.0512 98.5478C74.4156 123.262 78.7826 150.716 80.0281 180.147C81.6552 218.603 78.2473 260.65 74.9509 301.312C73.4951 319.274 71.9898 337.847 70.9407 355.848C68.0382 405.624 67.4812 467.923 89.1033 508.203C113.9 554.396 158.635 561.624 191.798 559.552C233.126 556.971 281.422 537.92 343.786 499.598C364.535 486.848 385.923 471.67 406.606 456.995C438.349 434.47 471.173 411.178 502.792 395.825C535.722 379.834 557.895 381.055 568.69 399.457C573.675 407.956 576.794 420.375 578.224 437.429C579.482 452.44 579.307 468.896 579.137 484.808C579.037 494.222 578.942 503.111 579.142 511.372L585.294 764.408L585.123 764.523Z" fill="#FFE492"/>
<path d="M591.618 747.249C592.315 677.548 591.68 620.613 589.62 568.077C588.627 542.558 587.26 517.318 585.556 493.057C585.041 485.719 584.729 477.987 584.399 469.8C583.571 449.223 582.714 427.947 578.476 411.031C576.206 401.935 573.238 395.002 569.401 389.836C557.668 373.874 535.358 375.028 503.092 393.271C486.401 402.693 469.942 414.207 456.043 424.228C441.328 434.836 426.143 446.86 411.458 458.487C390.349 475.202 368.523 492.485 347.033 506.469C333.943 515.012 321.248 522.334 309.301 528.232C285.397 540.033 261.561 548.462 238.454 553.286C224.209 556.194 210.589 557.5 197.976 557.167C187.109 556.869 176.722 555.411 167.1 552.831C152.699 548.973 139.835 542.498 128.867 533.58C117.207 524.097 107.608 511.779 100.341 496.965C93.8607 483.756 89.0721 468.178 85.7036 449.339C79.4161 414.256 78.901 375.802 79.1552 346.22C79.3059 331.628 79.6935 316.82 80.068 302.5C81.1494 261.26 82.1699 222.308 78.0821 186.049C74.6774 156.642 67.8083 130.036 57.6628 106.964C49.8668 89.2339 39.8247 73.5874 27.8169 60.4578C24.9556 57.333 21.9666 54.3199 18.9338 51.5083C5.87129 39.4154 -10.2739 29.1527 -29.0513 21.0046C-47.9625 12.7429 -65.8646 9.18015 -83.7794 10.1193C-93.8966 10.625 -104.532 13.0554 -115.394 17.3399C-153.74 32.4673 -189.01 66.9596 -209.743 109.609L-209.901 109.53C-204.374 98.1608 -197.827 87.3068 -190.44 77.2652C-183.424 67.7275 -175.606 58.8579 -167.202 50.9023C-151.325 35.8751 -133.396 24.169 -115.354 17.0518C-104.476 12.7594 -93.8235 10.3262 -83.6908 9.82C-65.7577 8.88129 -47.841 12.4459 -28.9146 20.7151C-10.1263 28.8666 6.02626 39.1369 19.0976 51.2379C22.1334 54.053 25.1238 57.0666 27.9868 60.1946C40.0047 73.3326 50.055 88.9924 57.8568 106.738C68.0094 129.825 74.884 156.454 78.2885 185.88C82.379 222.16 81.3572 261.123 80.2772 302.374C79.9013 316.694 79.5147 331.499 79.3637 346.089C79.1091 375.657 79.6245 414.092 85.9092 449.153C89.274 467.973 94.0568 483.536 100.53 496.729C114.753 525.72 137.19 544.497 167.22 552.537C176.834 555.114 187.215 556.57 198.072 556.867C210.677 557.198 224.287 555.894 238.521 552.988C261.614 548.167 285.435 539.744 309.324 527.95C321.263 522.057 333.95 514.738 347.03 506.203C368.508 492.224 390.329 474.946 411.43 458.237C426.118 446.608 441.307 434.579 456.027 423.967C469.933 413.941 486.4 402.424 503.103 392.996C517.469 384.873 530.054 380.093 540.51 378.787C553.354 377.182 563.135 380.814 569.578 389.58C573.426 394.763 576.404 401.715 578.679 410.832C582.923 427.773 583.781 449.063 584.611 469.653C584.941 477.837 585.253 485.57 585.767 492.902C587.473 517.166 588.84 542.409 589.832 567.933C591.892 620.475 592.526 677.415 591.83 747.121L591.618 747.249Z" fill="#FFE492"/>
<path d="M598.117 729.97C601.14 659.813 601.237 600.346 598.413 548.171C597.05 522.69 594.941 497.947 592.144 474.628C591.401 468.441 590.786 462.061 590.133 455.307C588.179 435.08 586.158 414.165 580.604 398.396C577.812 390.407 574.43 384.395 570.264 380.014C554.312 363.235 525.109 376.446 503.418 390.483C488.065 400.389 472.833 412.255 457.283 424.559C443.672 435.328 430.097 447.247 415.728 459.864C394.398 478.594 372.343 497.96 350.288 513.117C337.174 522.173 324.379 529.548 312.261 535.037C289.685 545.264 267.05 551.61 243.059 554.44C229.634 556.023 216.567 556.056 204.224 554.534C193.818 553.229 183.904 550.826 174.758 547.385C161.148 542.275 148.985 534.623 138.606 524.645C127.706 514.164 118.663 501.002 111.732 485.525C105.658 471.967 101.009 456.047 97.5169 436.858C91.1583 402.048 88.8441 364.938 87.5403 336.496C87.0577 325.967 86.6697 315.404 86.2949 305.185C84.8015 264.493 83.3925 226.054 76.3073 191.828C71.0124 166.248 62.556 143.375 51.1753 123.846C42.5643 109.07 32.0151 96.7181 18.9272 86.0846C15.9056 83.6328 12.7655 81.2927 9.59539 79.1294C-4.33883 69.6509 -20.547 62.6462 -40.286 54.4713C-54.487 48.5141 -73.4511 41.5863 -94.2306 40.8908C-104.052 40.516 -114.333 41.9835 -124.786 45.2472C-161.593 56.7433 -195.872 86.2103 -216.486 124.075L-216.661 123.954C-211.195 113.913 -204.773 104.396 -197.575 95.665C-190.716 87.3462 -183.111 79.6912 -174.969 72.9058C-159.498 60.0165 -142.124 50.3301 -124.725 44.8969C-114.251 41.6262 -103.952 40.1567 -94.1131 40.5315C-73.3129 41.2254 -54.335 48.1602 -40.1245 54.1204C-20.3787 62.2974 -4.16512 69.3038 9.77891 78.7881C12.9507 80.9545 16.0936 83.2954 19.1192 85.7485C32.219 96.3937 42.7787 108.757 51.3995 123.55C62.7918 143.098 71.2556 165.99 76.5564 191.595C83.6461 225.847 85.0578 264.296 86.5505 305.004C86.925 315.22 87.313 325.783 87.7965 336.31C89.1017 364.742 91.4142 401.838 97.768 436.63C101.255 455.799 105.899 471.702 111.966 485.244C125.596 515.676 146.778 536.464 174.918 547.031C184.056 550.467 193.96 552.87 204.357 554.171C216.688 555.692 229.743 555.661 243.157 554.078C267.127 551.251 289.744 544.91 312.299 534.693C324.403 529.21 337.181 521.845 350.281 512.798C372.316 497.654 394.363 478.295 415.683 459.576C430.058 446.953 443.635 435.032 457.254 424.257C472.813 411.946 488.051 400.076 503.419 390.159C517.481 381.058 529.986 375.259 540.59 372.917C553.447 370.078 563.501 372.357 570.471 379.688C574.652 384.087 578.046 390.119 580.847 398.132C586.409 413.93 588.431 434.864 590.388 455.107C591.04 461.858 591.657 468.237 592.399 474.421C595.197 497.748 597.306 522.499 598.669 547.988C601.493 600.176 601.397 659.654 598.372 729.826L598.117 729.97Z" fill="#FFE492"/>
<path d="M604.614 712.692C609.984 641.121 610.832 580.795 607.204 528.268C605.47 502.826 602.618 478.581 598.73 456.203C597.9 451.419 597.099 446.368 596.325 441.484C593.128 421.308 589.823 400.446 582.735 385.766C579.422 378.84 575.627 373.745 571.131 370.195C553.877 356.563 524.962 372.188 503.746 387.694C489.388 398.15 475.022 410.598 461.128 422.638L458.526 424.892C445.915 435.812 433.192 448.136 419.721 461.185C398.269 481.963 376.09 503.447 353.543 519.765C340.387 529.348 327.493 536.777 315.219 541.845C293.818 550.682 272.35 555.051 247.661 555.595C234.894 555.876 222.382 554.633 210.47 551.899C200.526 549.585 191.086 546.235 182.413 541.937C156.147 528.944 136.199 506.115 123.12 474.085C117.467 460.238 112.955 443.981 109.331 424.378C103.172 391.263 99.331 358.003 95.926 326.775C95.4685 322.589 95.0227 318.433 94.5797 314.309C89.98 271.538 85.6368 231.138 74.5338 197.617C67.2856 175.733 57.2423 156.596 44.6861 140.735C35.4672 129.091 24.1329 119.599 10.0382 111.716C6.85978 109.943 3.56949 108.274 0.257683 106.755C-8.08168 102.952 -17.3338 99.8653 -27.1299 96.5983C-34.9981 93.9738 -43.1335 91.2605 -51.5238 87.9438C-67.6852 81.4375 -86.0027 74.0658 -104.687 71.6701C-114.328 70.4347 -124.252 70.9371 -134.185 73.1645C-169.437 81.0715 -202.728 105.517 -223.238 138.558L-223.42 138.376C-218.012 129.664 -211.717 121.486 -204.709 114.067C-198.007 106.972 -190.615 100.527 -182.737 94.9105C-167.671 84.1702 -150.851 76.509 -134.096 72.751C-124.141 70.5173 -114.196 70.0134 -104.537 71.252C-85.8336 73.6508 -67.5077 81.0278 -51.3394 87.5362C-42.9535 90.8489 -34.8191 93.5646 -26.9537 96.1882C-17.1535 99.4565 -7.8987 102.544 0.447781 106.352C3.76129 107.874 7.05563 109.544 10.2367 111.318C24.3494 119.209 35.6969 128.714 44.9284 140.375C57.4998 156.254 67.5536 175.413 74.8101 197.321C85.9232 230.871 90.2689 271.29 94.8696 314.081C95.3127 318.204 95.7609 322.359 96.216 326.547C99.6203 357.769 103.459 391.021 109.616 424.125C113.237 443.705 117.744 459.947 123.391 473.776C136.452 505.766 156.375 528.563 182.606 541.54C191.27 545.833 200.7 549.179 210.634 551.49C222.533 554.221 235.034 555.462 247.786 555.182C272.45 554.638 293.893 550.275 315.265 541.45C327.514 536.393 340.383 528.977 353.517 519.411C376.035 503.113 398.202 481.641 419.64 460.875C433.118 447.82 445.848 435.491 458.468 424.563L461.07 422.308C474.971 410.263 489.345 397.807 503.719 387.339C525.003 371.783 554.013 356.116 571.348 369.811C575.864 373.378 579.675 378.491 582.999 385.444C590.102 400.156 593.412 421.041 596.611 441.239C597.385 446.122 598.186 451.173 599.015 455.954C602.905 478.344 605.758 502.602 607.493 528.058C611.122 580.607 610.274 640.954 604.902 712.547L604.614 712.692Z" fill="#FFE492"/>
<path d="M611.112 695.41C618.733 623.437 620.377 560.506 615.995 508.368C613.889 482.966 610.296 459.218 605.318 437.783C604.6 434.687 603.879 431.482 603.18 428.382C598.569 407.905 593.801 386.727 584.869 373.142C581.053 367.267 576.844 363.094 572.002 360.379C553.428 349.968 524.812 367.97 504.076 384.905C491.228 395.355 478.484 407.459 466.158 419.165C464.026 421.191 461.896 423.213 459.768 425.225C448.08 436.276 436.137 448.971 423.494 462.41C402 485.256 379.774 508.879 356.797 526.418C343.304 536.717 330.671 543.991 318.173 548.66C292.032 558.423 270.183 558.231 252.257 556.758C240.134 555.76 228.175 553.244 216.712 549.273C207.234 545.951 198.269 541.651 190.065 536.498C165.732 521.232 147.039 496.387 134.508 462.652C129.292 448.618 124.921 432.019 121.141 411.908C117.305 391.633 113.951 372.229 110.706 353.462C108.501 340.707 106.418 328.66 104.31 317.067C96.3413 273.245 88.4666 234.444 72.7618 203.414C63.5619 185.24 51.9338 169.834 38.199 157.626C28.3553 148.876 16.5822 142.434 1.15228 137.347C-2.1799 136.258 -5.62165 135.259 -9.0769 134.381C-14.3331 133.065 -19.9015 132.007 -25.7959 130.89C-37.1068 128.745 -49.9294 126.313 -62.7635 121.418C-67.6502 119.553 -72.5861 117.534 -77.3592 115.579C-89.6364 110.553 -102.332 105.356 -115.146 102.448C-124.557 100.314 -134.127 99.8535 -143.587 101.08C-177.267 105.452 -209.569 124.879 -229.998 153.048L-230.171 152.79C-224.822 145.413 -218.654 138.574 -211.839 132.461C-205.293 126.591 -198.114 121.357 -190.505 116.907C-175.841 108.332 -159.576 102.696 -143.466 100.605C-133.983 99.3749 -124.391 99.8347 -114.959 101.975C-102.131 104.885 -89.431 110.086 -77.147 115.114C-72.3752 117.068 -67.4394 119.087 -62.554 120.952C-49.732 125.843 -36.92 128.274 -25.6144 130.418C-19.7174 131.536 -14.1476 132.594 -8.88598 133.911C-5.42667 134.791 -1.98221 135.791 1.35403 136.881C16.8066 141.972 28.5957 148.428 38.4566 157.191C52.2076 169.414 63.8524 184.839 73.0632 203.038C80.1579 217.053 86.2135 233.894 91.5776 254.519C96.3801 272.983 100.272 292.76 104.638 316.774C106.746 328.369 108.829 340.416 111.035 353.171C114.279 371.935 117.634 391.34 121.468 411.611C125.244 431.703 129.611 448.284 134.819 462.303C147.333 495.993 165.999 520.803 190.298 536.047C198.492 541.195 207.447 545.488 216.914 548.807C228.363 552.774 240.309 555.288 252.419 556.282C270.321 557.756 292.141 557.947 318.236 548.201C330.7 543.545 343.3 536.29 356.757 526.017C379.696 508.508 401.904 484.904 423.381 462.077C436.032 448.63 447.981 435.929 459.681 424.865C461.809 422.853 463.938 420.831 466.069 418.807C478.403 407.093 491.156 394.981 504.02 384.518C517.511 373.5 529.87 365.644 540.754 361.167C553.647 355.864 564.235 355.447 572.225 359.928C577.091 362.656 581.32 366.849 585.152 372.747C594.109 386.368 598.882 407.572 603.499 428.075C604.198 431.175 604.919 434.38 605.637 437.473C610.618 458.925 614.212 482.695 616.322 508.116C618.648 535.801 619.292 566.717 618.235 600.003C617.301 629.423 615.013 661.474 611.437 695.262L611.112 695.41Z" fill="#FFE492"/>
<path d="M617.613 678.125C627.572 604.751 629.987 540.941 624.789 488.466C622.309 463.104 617.976 439.855 611.91 419.362C611.622 418.386 611.334 417.411 611.045 416.433C604.747 395.101 598.235 373.043 587.009 360.519C582.66 355.667 578.038 352.411 572.88 350.565C552.984 343.447 524.665 363.793 504.414 382.113C492.53 392.819 480.841 404.971 469.539 416.723C466.744 419.63 463.854 422.634 461.021 425.555C450.228 436.68 439.057 449.672 427.231 463.429C405.717 488.452 383.473 514.325 360.059 533.068C346.513 543.911 333.78 551.239 321.132 555.473C296.216 563.812 275.515 561.575 256.858 557.917C245.353 555.661 233.948 551.867 222.958 546.642C213.949 542.311 205.459 537.065 197.721 531.052C175.341 513.688 157.905 486.828 145.9 451.215C141.092 436.955 136.979 420.501 132.959 399.434C125.279 359.488 119.032 331.09 112.705 307.359C100.119 260.161 87.6474 230.809 71.0039 209.215C59.8611 194.759 46.6471 183.086 31.727 174.52C21.3752 168.577 9.2097 165.016 -7.71996 162.98C-11.1921 162.57 -14.7839 162.242 -18.3978 162.008C-21.8163 161.798 -25.3308 161.683 -29.0518 161.559C-42.7918 161.105 -58.3661 160.591 -73.9949 154.892C-82.2329 151.889 -90.3689 148.173 -98.2372 144.581C-107.18 140.499 -116.426 136.277 -125.602 133.227C-134.802 130.17 -144.018 128.746 -152.987 128.999C-185.069 129.899 -216.388 144.312 -236.764 167.553L-236.906 167.198C-231.613 161.159 -225.573 155.66 -218.953 150.852C-212.562 146.21 -205.601 142.189 -198.259 138.899C-183.998 132.506 -168.285 128.896 -152.824 128.463C-143.831 128.212 -134.594 129.637 -125.372 132.701C-116.188 135.753 -106.937 139.976 -97.9914 144.062C-90.1258 147.653 -81.9938 151.368 -73.7626 154.369C-58.1612 160.057 -42.6038 160.571 -28.8793 161.026C-25.156 161.148 -21.6397 161.266 -18.2189 161.474C-14.601 161.709 -11.0064 162.038 -7.53057 162.447C9.42444 164.488 21.6112 168.053 31.9844 174.01C46.9254 182.588 60.1584 194.277 71.3168 208.755C87.9834 230.377 100.468 259.76 113.065 306.999C119.395 330.738 125.644 359.145 133.326 399.102C137.344 420.152 141.452 436.589 146.254 450.834C158.243 486.396 175.653 513.22 198 530.557C205.728 536.561 214.209 541.799 223.204 546.126C234.182 551.344 245.572 555.134 257.062 557.388C275.692 561.04 296.356 563.276 321.215 554.956C333.815 550.74 346.504 543.435 360.003 532.63C383.366 513.928 405.588 488.082 427.077 463.086C438.912 449.32 450.091 436.318 460.899 425.177C463.731 422.258 466.622 419.254 469.416 416.347C480.728 404.585 492.424 392.425 504.329 381.701C517.545 369.744 529.832 360.86 540.849 355.292C553.754 348.77 564.608 347.009 573.109 350.047C578.296 351.902 582.942 355.175 587.312 360.05C598.575 372.617 605.097 394.705 611.402 416.069C611.691 417.047 611.98 418.025 612.268 418.998C618.34 439.514 622.679 462.791 625.162 488.181C630.363 540.702 627.947 604.562 617.981 677.987L617.613 678.125Z" fill="#FFE492"/>
<path d="M263.699 559.78C262.94 559.542 262.193 559.306 261.46 559.069C250.554 555.569 239.701 550.502 229.205 544.004C220.67 538.665 212.654 532.472 205.38 525.601C194.981 515.795 185.622 503.449 177.559 488.905C169.773 474.859 162.956 458.331 157.297 439.774C151.751 421.594 147.694 401.999 144.778 386.959C137.923 351.848 129.956 321.801 121.101 297.652C106.758 258.542 90.2838 232.282 69.2523 215.013C56.5645 204.595 41.6188 196.52 25.9877 191.634C25.7455 191.558 25.5046 191.483 25.2614 191.41C11.7989 187.291 -2.80701 187.627 -16.5837 188.605C-20.1731 188.868 -23.9165 189.211 -27.7116 189.627C-29.7948 189.864 -31.8908 190.123 -34.1084 190.398C-49.7535 192.341 -67.4859 194.542 -85.224 188.361C-96.0263 184.596 -106.366 179.136 -116.365 173.855C-122.82 170.444 -129.496 166.919 -136.054 163.999C-145.069 159.987 -153.927 157.601 -162.385 156.911C-192.841 154.419 -223.177 163.82 -243.538 182.06L-243.626 181.594C-233.183 172.24 -220.527 165.271 -206.007 160.878C-192.141 156.685 -176.985 155.106 -162.18 156.319C-153.7 157.013 -144.818 159.402 -135.783 163.425C-129.218 166.346 -122.539 169.875 -116.081 173.287C-106.089 178.566 -95.756 184.024 -84.9675 187.782C-67.2754 193.948 -49.5728 191.749 -33.9543 189.81C-31.7344 189.534 -29.6384 189.275 -27.5538 189.039C-23.756 188.623 -20.0089 188.279 -16.4168 188.017C-2.6168 187.038 12.0138 186.702 25.5098 190.828C41.4312 195.696 56.6637 203.871 69.5677 214.468C80.4214 223.383 89.8931 234.47 98.5211 248.364C106.83 261.746 114.345 277.727 121.492 297.222C130.355 321.389 138.327 351.458 145.186 386.592C148.098 401.623 152.152 421.203 157.692 439.364C169.176 477.017 185.33 505.851 205.704 525.068C212.969 531.929 220.974 538.114 229.497 543.447C239.98 549.935 250.817 554.998 261.709 558.49C278.752 563.956 299.031 569.163 324.196 561.705C336.934 557.93 349.708 550.58 363.249 539.238C387.03 519.318 409.225 491.148 430.691 463.905C441.733 449.891 452.163 436.654 462.117 425.486C465.306 421.908 468.561 418.212 471.709 414.637C482.344 402.56 493.339 390.074 504.633 378.885C517.583 366 529.8 356.084 540.941 349.412C553.859 341.677 564.977 338.565 573.985 340.163C579.546 341.149 584.61 343.5 589.465 347.352C602.449 357.647 610.795 378.376 618.895 400.518C625.957 419.824 631.18 443.241 633.999 468.241C637.157 495.942 637.763 527.47 635.797 561.947C634.045 592.664 630.251 625.893 624.522 660.712L624.111 660.849C636.416 586.074 639.603 521.383 633.58 468.576C630.766 443.612 625.553 420.229 618.5 400.955C610.414 378.852 602.084 358.163 589.149 347.905C584.32 344.074 579.284 341.737 573.758 340.757C557.204 337.823 532.696 351.518 504.75 379.326C493.476 390.494 482.49 402.97 471.865 415.034C468.716 418.612 465.459 422.309 462.27 425.887C452.334 437.035 441.912 450.261 430.882 464.262C420.349 477.629 409.458 491.453 398.175 504.487C385.383 519.264 373.983 530.788 363.319 539.723C349.718 551.115 336.887 558.497 324.089 562.291C312.802 565.637 301.748 566.724 290.295 565.621C280.6 564.677 271.51 562.221 263.699 559.78Z" fill="#FFE492"/>
<path d="M284.888 567.735C277.988 565.578 271.667 562.794 266.048 560.219C255.716 555.484 245.416 549.141 235.438 541.364C227.381 535.02 219.838 527.883 213.024 520.146C194.35 498.989 179.845 468.953 168.678 428.329C163.807 410.614 160.032 392.012 156.585 374.479C149.744 339.949 140.628 310.836 129.488 287.942C113.105 254.273 93.4071 232.939 67.4973 220.804C52.7345 213.89 35.8927 209.564 18.792 208.29C4.47865 207.224 -10.9137 210.637 -25.454 214.22C-29.0956 215.126 -32.9914 216.141 -37.0306 217.237C-38.0413 217.513 -39.0628 217.798 -40.0972 218.083C-57.0951 222.796 -76.3286 228.129 -95.4968 222.137C-95.8202 222.036 -96.1412 221.933 -96.4643 221.824C-109.335 217.543 -121.197 210.198 -132.67 203.092C-137.218 200.275 -141.923 197.363 -146.518 194.76C-155.496 189.678 -163.763 186.421 -171.796 184.808C-201.013 178.944 -229.639 183.223 -250.336 196.555L-250.341 195.971C-240.11 189.381 -227.458 184.838 -213.757 182.832C-200.28 180.859 -185.683 181.317 -171.542 184.156C-163.486 185.773 -155.198 189.037 -146.2 194.131C-141.599 196.736 -136.895 199.65 -132.344 202.466C-120.882 209.563 -109.03 216.902 -96.184 221.175C-76.7657 227.639 -57.2172 222.216 -39.973 217.433C-38.94 217.147 -37.9171 216.864 -36.9054 216.585C-32.8625 215.488 -28.9654 214.473 -25.3211 213.568C-10.7558 209.976 4.66361 206.561 19.0161 207.629C36.1433 208.906 53.0131 213.238 67.8006 220.163C80.6408 226.176 91.8165 234.391 101.967 245.273C112.421 256.481 121.561 270.267 129.907 287.422C141.059 310.346 150.188 339.495 157.037 374.06C160.482 391.586 164.254 410.177 169.122 427.875C180.274 468.444 194.757 498.435 213.4 519.559C220.205 527.282 227.737 534.411 235.784 540.747C245.747 548.513 256.032 554.849 266.349 559.574C283.711 567.527 302.707 574.762 327.172 568.435C340.046 565.104 352.906 557.71 366.488 545.828C390.682 524.663 413.812 492.707 434.219 464.513C444.487 450.327 454.186 436.928 463.325 425.778C466.622 421.756 469.993 417.586 473.253 413.554C483.45 400.938 493.995 387.894 504.93 376.051C517.628 362.242 529.774 351.293 541.029 343.509C553.957 334.569 565.339 330.11 574.854 330.259C580.802 330.35 586.283 331.782 591.611 334.628C606.495 342.585 616.703 362.103 625.517 382.013C633.656 400.395 639.642 423.309 642.831 448.279C646.408 475.985 646.993 507.821 644.572 542.895C642.406 574.261 637.861 608.079 631.06 643.413L630.614 643.537C645.07 568.43 649.137 501.04 642.374 448.652C639.193 423.73 633.217 400.859 625.095 382.513C616.302 362.651 606.121 343.181 591.3 335.256C586.004 332.426 580.556 331.005 574.647 330.912C557.077 330.637 532.376 346.827 505.092 376.5C494.178 388.318 483.645 401.35 473.458 413.953C470.197 417.987 466.826 422.157 463.525 426.184C454.406 437.308 444.717 450.694 434.46 464.865C414.02 493.102 390.853 525.109 366.579 546.345C352.922 558.292 339.99 565.727 327.043 569.078C315.809 571.983 304.905 572.291 293.708 570.011C290.675 569.409 287.734 568.625 284.888 567.735Z" fill="#FFE492"/>
<path d="M297.424 574.532C297.325 574.501 297.228 574.47 297.129 574.439C287.397 571.349 278.711 566.29 270.649 561.371C260.864 555.404 251.122 547.784 241.687 538.726C234.107 531.383 227.041 523.296 220.683 514.695C203.818 491.912 190.915 460.836 180.075 416.89C176.17 401.067 172.84 384.302 169.617 368.092C169.215 366.063 168.811 364.035 168.406 362.008C161.463 327.455 151.197 299.271 137.893 278.242C119.674 249.449 96.08 232.556 65.7621 226.601C49.1377 223.337 30.6654 222.844 12.3423 225.176C-2.11555 227.018 -16.717 232.658 -34.3045 239.841C-37.8735 241.306 -41.696 242.897 -46.3325 244.85L-46.5918 244.961C-55.5536 248.768 -65.7106 253.081 -76.0782 255.534C-87.9853 258.351 -98.326 258.266 -107.693 255.301C-122.294 250.664 -135.197 241.282 -147.673 232.207C-150.729 229.983 -153.892 227.684 -156.974 225.535C-165.816 219.376 -173.74 215.184 -181.199 212.722C-208.665 203.658 -236.343 203.055 -257.135 211.064L-257.039 210.376C-246.854 206.452 -234.563 204.526 -221.493 204.805C-208.399 205.083 -194.36 207.579 -180.894 212.023C-173.413 214.492 -165.469 218.692 -156.608 224.865C-153.523 227.015 -150.361 229.314 -147.303 231.538C-134.842 240.601 -121.956 249.973 -107.39 254.598C-107.325 254.618 -107.258 254.639 -107.193 254.659C-86.3189 261.185 -64.253 251.814 -46.5106 244.279L-46.2501 244.169C-41.6111 242.214 -37.7887 240.623 -34.2183 239.158C-16.6011 231.964 -1.97365 226.312 12.5291 224.466C30.8839 222.128 49.3863 222.622 66.0388 225.893C80.8746 228.808 93.7554 234.148 105.418 242.222C117.986 250.923 128.753 262.511 138.331 277.651C151.661 298.719 161.946 326.949 168.9 361.559C169.304 363.586 169.708 365.616 170.11 367.645C173.331 383.849 176.66 400.609 180.561 416.42C191.386 460.311 204.27 491.344 221.106 514.088C227.455 522.678 234.512 530.751 242.08 538.086C251.502 547.132 261.231 554.74 271 560.697C288.495 571.371 306.186 580.511 330.155 575.202C343.163 572.319 356.11 564.88 369.732 552.455C394.341 530.011 417.367 495.45 437.685 464.954C447.196 450.678 456.18 437.191 464.539 426.111C467.756 421.848 471.044 417.427 474.225 413.15C484.171 399.777 494.454 385.952 505.234 373.255C517.695 358.519 529.771 346.535 541.124 337.638C554.065 327.499 565.707 321.696 575.724 320.394C581.936 319.587 587.719 320.055 593.388 321.827C593.512 321.866 593.635 321.904 593.758 321.945C611.315 327.615 623.494 347.154 632.145 363.543C641.358 381.004 648.11 403.413 651.671 428.35C655.666 456.065 656.233 488.205 653.354 523.881C650.77 555.895 645.471 590.304 637.601 626.155L637.119 626.262C648.829 572.918 660.769 495.355 651.171 428.771C647.62 403.89 640.883 381.533 631.692 364.114C623.068 347.77 610.928 328.288 593.455 322.648C587.704 320.784 581.844 320.286 575.539 321.107C556.978 323.521 532.082 342.204 505.436 373.714C494.68 386.382 484.409 400.192 474.474 413.549C471.292 417.829 468.001 422.252 464.784 426.518C456.446 437.569 447.472 451.038 437.972 465.3C417.619 495.85 394.549 530.477 369.844 553.009C356.131 565.517 343.097 573.006 330.002 575.906C318.904 578.362 308.242 577.913 297.424 574.532Z" fill="#FFE492"/>
<path d="M306.834 581.217C304.734 580.56 302.638 579.772 300.541 578.851C291.363 574.82 283.336 568.826 275.24 562.52C265.855 555.211 256.92 546.564 247.925 536.086C240.828 527.748 234.236 518.717 228.333 509.24C213.348 485.224 201.977 453.212 191.465 405.447C188.854 393.586 186.449 381.249 184.125 369.318C182.858 362.824 181.551 356.107 180.222 349.532C173.133 314.715 161.717 287.466 146.292 268.539C125.913 243.531 99.0042 231.706 64.026 232.388C45.5461 232.749 25.4433 236.091 5.8929 242.05C-9.81247 246.838 -25.4525 255.568 -42.0113 264.81L-43.1562 265.449C-45.7454 266.899 -48.3657 268.371 -51.0178 269.86C-52.5459 270.72 -54.0838 271.584 -55.6352 272.455C-65.3251 277.924 -75.6723 283.555 -86.2717 287.065C-98.5779 291.14 -109.258 291.699 -118.926 288.772C-135.018 283.895 -148.6 272.329 -161.731 261.137C-163.604 259.539 -165.544 257.888 -167.435 256.305C-176.298 248.882 -183.661 243.903 -190.608 240.631C-216.244 228.558 -242.971 223.063 -263.941 225.557L-263.737 224.786C-242.712 222.285 -215.928 227.788 -190.248 239.882C-183.282 243.163 -175.9 248.156 -167.019 255.592C-165.128 257.177 -163.188 258.828 -161.314 260.427C-148.344 271.481 -134.936 282.906 -119.114 287.852C-118.943 287.905 -118.773 287.959 -118.6 288.01C-98.0588 294.229 -77.0807 283.864 -55.6055 271.746C-54.0541 270.876 -52.5162 270.011 -50.9881 269.152C-48.3351 267.66 -45.7171 266.19 -43.1255 264.738L-41.9806 264.099C-25.3938 254.842 -9.72712 246.097 6.02958 241.293C25.6161 235.321 45.7534 231.974 64.2658 231.613C99.3321 230.929 126.312 242.787 146.747 267.863C162.209 286.838 173.652 314.149 180.757 349.043C182.086 355.62 183.395 362.335 184.66 368.831C186.984 380.76 189.387 393.093 191.998 404.947C202.496 452.657 213.851 484.624 228.81 508.599C234.705 518.061 241.287 527.08 248.374 535.405C257.356 545.868 266.277 554.503 275.649 561.8C289.875 572.88 307.578 586.67 333.14 581.944C346.282 579.515 359.312 572.03 372.976 559.06C398.004 535.304 420.888 498.04 441.078 465.165C449.849 450.883 458.134 437.393 465.749 426.429C468.716 422.157 471.753 417.729 474.69 413.444C484.541 399.078 494.727 384.223 505.532 370.444C517.775 354.772 529.78 341.754 541.214 331.75C554.171 320.414 566.072 313.27 576.588 310.515C583.337 308.746 589.653 308.331 595.899 309.244C604.264 310.466 612.042 314.386 619.681 321.219C626.144 327.003 632.388 334.798 638.769 345.052C649.059 361.59 656.575 383.496 660.506 408.403C664.922 436.124 665.468 468.575 662.131 504.849C659.126 537.513 653.074 572.513 644.139 608.879L643.624 608.963C662.485 532.186 668.289 461.123 659.966 408.867C656.046 384.027 648.55 362.183 638.29 345.695C624.542 323.602 610.983 312.263 595.612 310.016C589.409 309.108 583.136 309.521 576.435 311.275C551.417 317.828 524.204 347.318 505.782 370.902C495.004 384.647 484.83 399.484 474.991 413.834C472.052 418.12 469.013 422.55 466.045 426.825C458.453 437.756 450.179 451.231 441.419 465.495C421.185 498.441 398.253 535.783 373.11 559.647C359.338 572.719 346.204 580.265 332.957 582.713C323.979 584.373 315.373 583.886 306.834 581.217Z" fill="#FFE492"/>
<path d="M314.586 587.931C300.277 583.457 289.256 572.79 279.827 563.664C270.956 555.08 262.56 545.193 254.158 533.44C247.545 524.116 241.428 514.138 235.978 503.782C219.63 472.763 210.393 432.689 202.848 394.002C201.308 386.104 199.809 377.99 198.361 370.145C196.35 359.25 194.27 347.985 192.031 337.056C184.773 301.864 172.21 275.546 154.693 258.833C132.03 237.216 101.805 230.455 62.2899 238.167C41.9445 242.137 20.2125 249.313 -0.557685 258.918C-16.5764 266.325 -32.0883 277.149 -48.5101 288.609C-49.6737 289.42 -50.8406 290.236 -52.0116 291.05L-52.6478 291.494C-56.6414 294.284 -60.7703 297.166 -64.9404 300.052C-74.949 307.007 -85.7151 314.069 -96.6163 318.629C-109.271 323.921 -120.243 325.103 -130.164 322.241C-147.579 317.219 -161.556 303.32 -175.07 289.879C-176.018 288.937 -176.961 287.999 -177.901 287.07C-186.826 278.235 -193.649 272.518 -200.022 268.532C-223.708 253.722 -249.488 243.334 -270.752 240.034L-270.441 239.203C-249.141 242.507 -223.323 252.909 -199.607 267.74C-193.215 271.737 -186.377 277.466 -177.436 286.316C-176.496 287.246 -175.553 288.184 -174.605 289.129C-161.116 302.543 -147.164 316.411 -129.819 321.418C-108.273 327.633 -85.049 313.273 -64.9716 299.325C-60.8015 296.439 -56.6726 293.556 -52.68 290.769L-52.0439 290.325C-50.8718 289.508 -49.7059 288.695 -48.5423 287.884C-32.0918 276.404 -16.5536 265.561 -0.480915 258.129C20.3274 248.506 42.0996 241.319 62.4804 237.341C81.2139 233.686 97.5061 233.287 112.286 236.121C128.773 239.284 143.195 246.671 155.152 258.078C172.726 274.843 185.327 301.237 192.606 336.526C194.847 347.461 196.927 358.728 198.938 369.626C200.386 377.472 201.883 385.582 203.424 393.478C210.962 432.123 220.185 472.153 236.504 503.114C241.947 513.455 248.055 523.419 254.658 532.73C263.047 544.465 271.43 554.337 280.288 562.91C293.888 576.072 310.815 592.454 336.111 588.692C349.386 586.717 362.5 579.186 376.205 565.67C401.661 540.562 424.361 500.508 444.39 465.166C452.437 450.967 460.038 437.555 466.946 426.75C469.501 422.753 472.12 418.617 474.653 414.616C484.56 398.967 494.807 382.783 505.817 367.635C517.856 351.017 529.792 336.959 541.291 325.856C554.267 313.327 566.428 304.843 577.438 300.637C584.588 297.906 591.321 296.568 598.026 296.546C607.057 296.516 615.843 299.359 624.14 304.993C631.405 309.928 638.552 317.184 645.378 326.562C656.743 342.175 665.026 363.577 669.331 388.454C674.167 416.185 674.694 448.94 670.898 485.815C667.469 519.128 660.662 554.722 650.667 591.604L650.121 591.663C671.303 513.511 677.919 441.524 668.752 388.964C664.461 364.169 656.206 342.837 644.88 327.275C630.197 307.105 614.785 297.324 597.764 297.381C591.108 297.403 584.423 298.731 577.324 301.441C551.128 311.448 524.144 343.206 506.118 368.088C495.135 383.196 484.903 399.358 475.008 414.987C472.476 418.989 469.855 423.127 467.297 427.128C460.412 437.898 452.821 451.291 444.784 465.473C435.148 482.475 424.229 501.745 412.794 519.437C399.692 539.707 387.777 555.031 376.367 566.287C369.768 572.795 363.154 578.022 356.706 581.822C349.771 585.909 342.772 588.501 335.902 589.522C328.04 590.693 320.984 589.93 314.586 587.931Z" fill="#FFE492"/>
<path d="M321.267 594.727C316.536 593.248 311.922 590.902 307.371 587.674C298.406 581.318 290.98 572.547 284.425 564.812C276.165 555.06 268.082 543.615 260.404 530.797C254.277 520.497 248.634 509.573 243.636 498.323C229.276 466.063 221.83 426.809 214.245 382.559C213.571 378.626 212.892 374.618 212.238 370.74C209.657 355.475 206.99 339.691 203.853 324.584C196.413 288.95 182.703 263.565 163.103 249.133C138.38 230.928 103.881 229.182 60.5662 243.947C38.3396 251.524 14.978 262.531 -6.99372 275.783C-23.5372 285.761 -39.1972 298.727 -55.7772 312.455C-57.4619 313.85 -59.1527 315.249 -60.8519 316.653C-65.0831 320.152 -69.6336 323.906 -74.2307 327.649C-83.8852 335.533 -95.3239 344.379 -106.946 350.191C-119.957 356.699 -131.224 358.506 -141.389 355.714C-159.998 350.607 -174.147 334.253 -187.831 318.438L-188.353 317.837C-195.054 310.096 -202.244 302.143 -209.421 296.436C-231.299 279.04 -255.492 264.149 -277.541 254.505L-277.133 253.638C-255.061 263.292 -230.846 278.196 -208.949 295.608C-201.751 301.332 -194.548 309.297 -187.836 317.049L-187.315 317.651C-173.66 333.43 -159.537 349.746 -141.02 354.83C-119.634 360.702 -96.3245 344.883 -74.3204 326.912C-69.7243 323.17 -65.1765 319.416 -60.9463 315.919C-59.2481 314.517 -57.5564 313.116 -55.8727 311.723C-39.2643 297.972 -23.576 284.983 -6.97818 274.972C15.0357 261.693 38.4415 250.665 60.7093 243.074C81.0308 236.149 99.5448 232.787 115.733 233.083C134.229 233.424 150.325 238.541 163.572 248.293C183.246 262.78 197.008 288.256 204.472 324.012C207.61 339.132 210.28 354.922 212.862 370.196C213.517 374.072 214.195 378.08 214.869 382.012C222.447 426.22 229.885 465.432 244.218 497.636C249.211 508.868 254.845 519.776 260.962 530.062C268.63 542.861 276.699 554.289 284.947 564.026C297.876 579.291 313.968 598.285 339.105 595.444C352.513 593.928 365.71 586.354 379.454 572.287C405.348 545.784 428.803 500.968 447.651 464.958C454.992 450.931 461.925 437.682 468.161 427.085C470.126 423.743 472.142 420.298 474.091 416.965C484.217 399.651 494.69 381.747 506.122 364.841C523.868 338.518 550.796 304.302 578.304 290.776C585.899 287.042 593.052 284.78 600.169 283.863C618.834 281.358 636.275 289.509 652.006 308.082C664.447 322.772 673.496 343.669 678.174 368.517C683.431 396.254 683.94 429.317 679.684 466.795C677.732 483.985 674.764 502.07 670.865 520.546C667.14 538.194 662.546 556.294 657.211 574.343L656.636 574.37C680.146 494.841 687.576 421.932 677.556 369.07C672.895 344.316 663.88 323.499 651.488 308.864C635.831 290.375 618.486 282.262 599.938 284.75C592.873 285.66 585.775 287.904 578.236 291.611C550.919 305.042 524.136 339.085 506.477 365.279C495.074 382.14 484.617 400.021 474.503 417.312C472.553 420.645 470.538 424.093 468.57 427.436C462.356 437.998 455.431 451.227 448.101 465.234C438.617 483.355 427.869 503.893 416.426 522.872C403.278 544.68 391.246 561.055 379.642 572.931C373.023 579.706 366.373 585.086 359.882 588.921C352.887 593.053 345.816 595.548 338.867 596.332C332.766 597.024 326.931 596.497 321.267 594.727Z" fill="#FFE492"/>
<path d="M327.169 601.544C321.499 599.772 316.067 596.63 310.777 592.081C302.203 584.715 295.194 574.745 289.009 565.948C281.223 554.875 273.695 542.157 266.636 528.145C260.994 516.877 255.827 505.006 251.279 492.858C238.756 459.45 232.832 419.584 226.559 377.382C226.248 375.294 225.939 373.203 225.626 371.112C222.701 351.504 219.678 331.228 215.66 312.108C208.031 275.992 193.175 251.538 171.504 239.426C144.285 224.21 106.375 227.674 58.8299 249.716C35.0479 260.741 9.38068 275.985 -13.4435 292.639C-30.6775 305.214 -46.6987 320.417 -63.6611 336.513C-65.6694 338.419 -67.6835 340.331 -69.7076 342.244C-73.7543 346.075 -78.5614 350.615 -83.5385 355.24C-92.7677 363.83 -104.944 374.607 -117.281 381.722C-130.645 389.429 -142.208 391.873 -152.631 389.186C-161.177 386.927 -169.471 381.79 -177.988 373.478C-185.301 366.343 -191.751 357.99 -198.826 348.601C-205.254 339.959 -212.094 330.97 -218.845 324.335C-238.842 304.681 -260.882 286.055 -284.348 268.968L-283.855 268.078C-260.374 285.171 -238.323 303.812 -218.314 323.475C-211.545 330.129 -204.695 339.131 -198.259 347.781C-186.402 363.522 -171.647 383.117 -152.243 388.244C-130.003 393.973 -106.154 375.415 -83.6941 354.505C-78.7203 349.885 -73.9156 345.347 -69.8713 341.518C-67.8471 339.604 -65.8331 337.692 -63.8271 335.789C-46.8367 319.666 -30.7876 304.438 -13.4976 291.822C9.37311 275.135 35.0899 259.861 58.9175 248.816C106.607 226.707 144.642 223.243 171.966 238.515C182.442 244.371 191.423 253.173 198.655 264.674C206.417 277.013 212.358 292.771 216.316 311.502C220.34 330.643 223.365 350.93 226.291 370.551C226.602 372.645 226.914 374.734 227.225 376.822C233.491 418.987 239.411 458.815 251.909 492.16C256.451 504.29 261.61 516.145 267.244 527.394C274.294 541.384 281.809 554.085 289.584 565.142C301.804 582.519 317.012 604.146 342.076 602.196C355.653 601.139 368.936 593.521 382.679 578.905C409.036 551.024 432.195 503.085 450.805 464.568C457.461 450.792 463.747 437.78 469.351 427.421C470.508 425.283 471.669 423.134 472.835 420.974C483.373 401.457 494.271 381.274 506.403 362.046C523.815 334.377 550.568 297.841 579.145 280.915C587.118 276.193 594.687 273.008 602.288 271.179C612.872 268.589 623.228 269.054 633.068 272.555C642.051 275.751 650.645 281.487 658.611 289.599C672.127 303.36 681.942 323.752 686.995 348.571C692.675 376.313 693.163 409.689 688.447 447.767C686.284 465.239 683.014 483.62 678.727 502.398C674.621 520.382 669.577 538.779 663.731 557.078L663.13 557.071C688.603 477.334 697.062 401.558 686.338 349.174C681.306 324.463 671.533 304.155 658.077 290.451C641.485 273.551 622.125 267.212 602.09 272.114C594.547 273.93 587.036 277.089 579.126 281.775C550.746 298.585 524.136 334.934 506.811 362.465C494.712 381.643 483.829 401.796 473.305 421.288C472.139 423.449 470.976 425.6 469.82 427.737C464.236 438.058 457.958 451.053 451.312 464.809C432.649 503.437 409.423 551.514 382.896 579.574C376.271 586.619 369.589 592.159 363.037 596.036C355.988 600.207 348.845 602.6 341.807 603.148C336.728 603.538 331.867 603.013 327.169 601.544Z" fill="#FFE492"/>
<path d="M332.535 608.396C326.075 606.377 320.008 602.428 314.193 596.49C305.966 588.089 299.397 576.93 293.602 567.088C286.278 554.649 279.305 540.653 272.875 525.495C267.718 513.276 263.027 500.456 258.929 487.397C248.836 455.245 244.279 418.297 239.454 379.179C238.665 372.784 237.849 366.173 237.017 359.663C234.091 336.791 231.348 317.828 227.475 299.633C219.651 263.01 203.651 239.487 179.916 229.718C150.091 217.441 108.77 226.109 57.1022 255.481C31.4341 270.073 4.09302 289.252 -19.8849 309.488C-37.9485 324.733 -54.498 342.301 -72.0185 360.9C-74.1889 363.204 -76.3674 365.517 -78.5536 367.829C-82.4514 371.956 -87.5988 377.392 -92.8331 382.819C-114.888 405.718 -140.576 428.362 -163.863 422.651C-164.588 422.47 -165.306 422.266 -166.015 422.045C-183.735 416.505 -196.607 398.703 -209.288 379.356L-210.077 378.141C-216.332 368.498 -222.241 359.391 -228.255 352.226C-250.919 325.225 -273.766 301.272 -291.139 283.422L-290.568 282.513C-273.192 300.37 -250.339 324.328 -227.667 351.339C-221.636 358.522 -215.721 367.642 -209.457 377.296L-208.669 378.51C-195.524 398.566 -182.176 416.963 -163.456 421.651C-140.427 427.298 -114.946 404.826 -93.056 382.098C-87.825 376.675 -82.6823 371.244 -78.7855 367.119C-76.5983 364.804 -74.4221 362.493 -72.2518 360.189C-54.7037 341.562 -38.1279 323.964 -20.0066 308.671C4.02053 288.392 31.4166 269.175 57.1357 254.553C81.0061 240.982 103.032 231.719 122.603 227.015C145.058 221.617 164.494 222.196 180.371 228.73C204.229 238.549 220.312 262.187 228.172 298.982C232.05 317.204 234.795 336.187 237.726 359.079C238.558 365.589 239.374 372.203 240.164 378.598C244.984 417.677 249.537 454.589 259.612 486.677C263.702 499.721 268.386 512.52 273.536 524.721C279.956 539.86 286.918 553.834 294.232 566.254C305.712 585.752 319.999 610.018 345.061 608.939C358.76 608.348 372.124 600.686 385.915 585.515C412.737 556.133 435.568 504.987 453.913 463.89C459.898 450.482 465.553 437.815 470.555 427.748L470.67 427.518C481.873 404.977 493.459 381.67 506.696 359.239C518.224 339.667 529.944 322.496 541.533 308.196C554.6 292.075 567.541 279.575 579.999 271.042C588.334 265.333 596.322 261.224 604.417 258.483C626.321 251.005 647.35 255.367 665.229 271.103C672.425 277.435 678.705 285.584 683.899 295.321C689.122 305.115 693.136 316.32 695.831 328.62C701.934 356.369 702.404 390.053 697.225 428.736C692.572 463.506 683.249 501.915 670.267 539.808L669.64 539.763C697.427 458.663 706.72 381.941 695.135 329.271C689.731 304.609 679.2 284.814 664.679 272.037C646.901 256.391 626.008 252.047 604.257 259.475C596.224 262.195 588.301 266.271 580.03 271.935C556.77 287.868 531.571 318.198 507.158 359.646C493.955 382.019 482.386 405.295 471.198 427.803L471.084 428.033C466.099 438.062 460.452 450.711 454.475 464.101C436.072 505.323 413.173 556.623 386.163 586.211C379.513 593.527 372.795 599.221 366.199 603.135C359.086 607.355 351.873 609.649 344.757 609.957C340.52 610.138 336.455 609.622 332.535 608.396Z" fill="#FFE492"/>
<path d="M-177.486 455.471C-185.41 452.994 -192.89 447.623 -200.282 439.118C-207.626 430.668 -213.977 420.187 -219.748 410.121C-220.79 408.291 -221.82 406.467 -222.844 404.655C-227.939 395.638 -232.752 387.121 -237.663 380.123C-257.25 352.226 -276.368 326.679 -294.859 301.976L-297.922 297.882L-297.285 296.962L-294.221 301.057C-275.731 325.764 -256.608 351.312 -237.019 379.216C-232.093 386.231 -227.274 394.759 -222.174 403.788C-221.151 405.599 -220.121 407.423 -219.08 409.251C-207.233 429.914 -194.048 450.472 -174.666 455.066C-150.805 460.633 -123.519 433.743 -102.415 409.698C-97.0133 403.55 -91.7112 397.398 -87.6957 392.725C-85.4812 390.15 -83.2744 387.576 -81.0733 385.007C-62.8234 363.717 -45.5855 343.608 -26.5112 325.529C-1.3354 301.669 27.7392 278.502 55.3572 260.301C80.9801 243.413 104.771 231.179 126.07 223.939C150.5 215.634 171.598 213.957 188.777 218.953C214.697 226.306 231.944 249.024 240.031 286.469C244.505 307.247 247.158 329.039 249.164 347.618C250.254 357.728 251.252 368.054 252.218 378.04C255.635 413.392 259.169 449.945 267.316 481.204C270.954 495.171 275.165 508.917 279.831 522.059C285.617 538.294 292.025 553.541 298.882 567.376C309.599 588.999 322.935 615.91 348.047 615.69C361.868 615.568 375.314 607.863 389.154 592.132C416.457 561.189 438.912 506.732 456.953 462.976C462.288 450.036 467.328 437.812 471.762 428.089C481.756 406.17 493.546 380.75 506.993 356.446C518.375 335.848 530.023 317.635 541.613 302.315C554.723 284.985 567.926 271.148 580.854 261.185C589.421 254.583 598.066 249.409 606.548 245.803C618.664 240.632 630.585 238.726 641.981 240.14C652.654 241.464 662.702 245.663 671.846 252.618C679.558 258.485 686.297 266.275 691.873 275.775C697.485 285.334 701.79 296.404 704.667 308.676C707.99 322.809 709.749 338.823 709.893 356.272C710.031 372.804 708.722 390.785 706.005 409.713C700.922 445.125 690.823 484.145 676.802 522.547L676.15 522.463C706.259 439.996 716.384 362.331 703.932 309.379C698.239 285.105 686.646 265.302 671.285 253.618C652.291 239.171 629.864 236.823 606.428 246.826C598.013 250.403 589.437 255.537 580.938 262.086C556.578 280.857 531.873 312.73 507.51 356.823C494.097 381.06 482.329 406.437 472.351 428.322C467.934 438.01 462.901 450.214 457.574 463.138C448.673 484.724 438.584 509.192 427.213 532.34C414.018 559.201 401.661 578.992 389.437 592.845C382.764 600.43 376.011 606.281 369.367 610.233C362.191 614.502 354.906 616.699 347.714 616.761C344.086 616.793 340.701 616.264 337.536 615.275C318.583 609.35 307.426 586.834 298.199 568.218C291.334 554.362 284.914 539.093 279.121 522.834C274.448 509.674 270.232 495.907 266.589 481.921C258.425 450.598 254.887 414.006 251.467 378.621C250.501 368.638 249.503 358.315 248.413 348.21C246.412 329.654 243.763 307.892 239.296 287.154C231.254 249.909 214.108 227.323 188.335 220.005C147.966 208.268 93.7518 235.951 55.3789 261.243C27.8162 279.409 -1.19837 302.526 -26.3216 326.338C-45.3389 344.363 -62.5508 364.44 -80.7725 385.697C-82.9736 388.265 -85.1817 390.839 -87.3973 393.416C-91.4151 398.091 -96.7206 404.248 -102.126 410.403C-110.986 420.497 -124.337 435.048 -137.943 444.83C-144.551 449.581 -150.864 452.964 -156.708 454.888C-163.224 457.032 -169.41 457.448 -175.09 456.122C-175.896 455.936 -176.694 455.719 -177.486 455.471Z" fill="#FFE492"/>
<path d="M-188.961 488.891C-196.895 486.411 -204.268 480.839 -211.43 471.933C-218.845 462.714 -225.085 451.061 -230.209 440.875C-231.782 437.742 -233.335 434.576 -234.837 431.515C-239.037 422.958 -243.004 414.873 -247.073 408.013C-261.681 383.376 -276.325 359.204 -290.488 335.826C-295.172 328.093 -300.016 320.098 -304.705 312.337L-304.004 311.406C-299.315 319.166 -294.471 327.161 -289.786 334.894C-275.624 358.272 -260.978 382.448 -246.369 407.087C-242.291 413.966 -238.318 422.059 -234.114 430.627C-232.613 433.688 -231.058 436.851 -229.488 439.984C-218.858 461.102 -205.844 484.007 -185.879 488.475C-161.346 493.917 -133.39 463.98 -111.774 437.294C-106.235 430.457 -100.759 423.567 -96.6074 418.328C-94.476 415.64 -92.351 412.952 -90.2304 410.271C-71.1614 386.153 -53.1511 363.374 -33.0171 342.386C-6.83075 315.089 23.9231 287.978 53.5762 266.048C94.8013 235.671 153.179 201.148 197.177 209.179C225.195 214.2 243.603 235.995 251.886 273.96C255.604 291.025 258.29 310.207 260.595 336.162C261.76 349.278 262.703 362.79 263.615 375.854C265.99 409.844 268.444 444.991 275.014 475.741C278.195 490.641 281.931 505.331 286.118 519.405C291.193 536.434 297.05 552.955 303.524 568.509C313.515 592.29 325.947 621.89 351.024 622.451C364.742 622.832 378.656 614.86 392.382 598.762C420.192 566.191 443.153 505.858 459.916 461.806C464.621 449.443 469.064 437.766 472.958 428.443C481.61 407.723 493.329 380.5 507.28 353.666C531.44 307.162 556.48 272.733 581.7 251.341C590.56 243.797 599.635 237.673 608.67 233.136C621.529 226.672 634.229 223.589 646.416 223.978C657.897 224.345 668.676 227.765 678.454 234.145C686.682 239.583 693.872 247.025 699.828 256.261C705.841 265.589 710.439 276.516 713.496 288.74C717.033 302.866 718.892 318.964 719.02 336.589C719.141 353.291 717.713 371.496 714.776 390.701C709.259 426.756 698.385 466.384 683.328 505.3L682.656 505.172C715.094 421.336 726.053 342.724 712.723 289.496C706.685 265.35 694.312 246.072 677.885 235.216C657.574 221.968 633.614 221.616 608.592 234.197C599.63 238.695 590.63 244.77 581.841 252.255C556.787 273.504 531.895 307.74 507.854 354.015C493.941 380.776 482.246 407.946 473.61 428.626C469.732 437.916 465.293 449.578 460.594 461.925C451.929 484.696 442.105 510.507 430.786 535.165C417.603 563.877 405.145 584.92 392.699 599.496C385.994 607.361 379.205 613.373 372.518 617.365C365.269 621.694 357.914 623.786 350.658 623.586C339.378 623.332 329.686 617.362 321.027 605.333C313.501 594.875 307.808 581.324 302.785 569.371C296.301 553.795 290.437 537.251 285.354 520.198C281.16 506.103 277.419 491.392 274.233 476.472C267.649 445.659 265.192 410.474 262.815 376.449C261.904 363.389 260.959 349.884 259.796 336.779C257.494 310.87 254.813 291.724 251.103 274.699C242.872 236.952 224.584 215.29 196.744 210.301C152.934 202.307 94.745 236.728 53.6436 267.013C24.0498 288.898 -6.63962 315.952 -32.7707 343.191C-52.8484 364.12 -70.8329 386.867 -89.8726 410.949C-91.9942 413.632 -94.1192 416.32 -96.2506 419.009C-100.405 424.252 -105.886 431.149 -111.431 437.991C-133.238 464.916 -161.459 495.115 -186.329 489.597C-187.212 489.398 -188.091 489.163 -188.961 488.891Z" fill="#FFE492"/>
<path d="M-200.389 522.331C-222.066 515.555 -234.903 485.387 -246.281 458.642C-249.778 450.424 -253.081 442.661 -256.486 435.905L-311.491 326.794L-310.732 325.854L-255.728 434.965C-252.312 441.737 -249.006 449.509 -245.505 457.739C-233.686 485.518 -220.289 517.004 -197.095 521.888C-171.912 527.195 -143.274 494.216 -121.138 464.895C-113.899 455.305 -106.675 445.502 -99.6882 436.022C-80.5802 410.096 -60.8223 383.285 -39.5272 359.242C-22.6182 340.151 -3.39994 320.594 16.0483 302.688C37.384 283.043 58.7008 265.564 79.4029 250.737C102.228 234.392 123.75 221.696 143.37 213.004C165.07 203.391 184.384 198.724 200.78 199.13C233.623 199.947 254.806 220.911 263.736 261.442C271.159 295.123 272.874 334.438 274.532 372.46C275.976 405.555 277.47 439.774 282.71 470.266C288.763 505.482 297.327 538.913 308.167 569.627C317.3 595.505 328.665 627.715 354.007 629.196C375.408 630.447 396.223 611.53 417.638 571.358C435.853 537.189 450.803 494.574 462.816 460.334C466.909 448.665 470.777 437.643 474.158 428.782C492.794 379.932 511.215 340.555 530.471 308.404C542.486 288.345 554.945 271.01 567.5 256.882C581.524 241.101 596.091 228.843 610.794 220.451C623.515 213.191 636.144 208.978 648.335 207.93C659.939 206.932 670.899 208.808 680.911 213.506C700.601 222.745 715.309 242.378 722.325 268.786C726.076 282.902 728.034 299.087 728.146 316.887C728.252 333.758 726.705 352.188 723.546 371.669C717.596 408.368 705.945 448.606 689.853 488.03L689.159 487.859C723.425 403.903 735.52 322.308 721.511 269.592C706.636 213.611 660.056 193.4 610.752 221.541C561.913 249.418 517.464 317.247 474.868 428.906C471.497 437.738 467.636 448.746 463.548 460.401C451.509 494.715 436.527 537.421 418.228 571.745C408.261 590.44 398.195 604.823 388.309 614.495C382.749 619.932 377.103 624.031 371.527 626.674C365.593 629.487 359.563 630.736 353.602 630.388C351.166 630.245 348.809 629.819 346.531 629.108C338.233 626.513 330.955 620.115 324.433 609.724C317.086 598.017 311.7 582.755 307.372 570.492C296.518 539.735 287.941 506.259 281.879 470.992C276.626 440.436 275.132 406.176 273.686 373.046C272.03 335.073 270.317 295.806 262.913 262.211C254.041 221.956 233.006 201.131 200.388 200.321C134.409 198.681 29.9304 281.965 -39.222 360.039C-60.4592 384.016 -80.1905 410.789 -99.2729 436.681C-106.263 446.166 -113.491 455.975 -120.738 465.573C-135.433 485.04 -147.472 498.505 -158.622 507.944C-165.581 513.834 -172.225 518.115 -178.369 520.669C-185.2 523.507 -191.66 524.316 -197.569 523.072C-198.521 522.867 -199.464 522.621 -200.389 522.331Z" fill="#FFE492"/>
</g>
</svg>
