<svg width="1500" height="1125" viewBox="0 0 1500 1125" fill="none" xmlns="http://www.w3.org/2000/svg">
<g clip-path="url(#clip0_2208_247)">
<path d="M551.025 994.219C550.842 994.214 550.669 994.139 550.54 994.01C550.41 993.881 550.336 993.708 550.331 993.525V717.394C550.358 717.227 550.444 717.075 550.573 716.966C550.702 716.857 550.865 716.796 551.034 716.796C551.203 716.796 551.367 716.857 551.495 716.966C551.624 717.075 551.71 717.227 551.737 717.394V993.506C551.737 993.695 551.662 993.876 551.529 994.01C551.395 994.144 551.214 994.219 551.025 994.219Z" fill="black"/>
<path d="M462.638 710.006C462.483 710.007 462.332 709.955 462.21 709.86C462.087 709.765 462 709.632 461.963 709.481L435.188 607.069C435.142 606.887 435.169 606.695 435.264 606.534C435.359 606.372 435.513 606.255 435.694 606.206C435.875 606.16 436.068 606.188 436.229 606.283C436.39 606.377 436.508 606.532 436.556 606.713L463.313 709.125C463.358 709.307 463.331 709.499 463.236 709.66C463.142 709.821 462.987 709.939 462.806 709.988L462.638 710.006Z" fill="black"/>
<path d="M649.031 709.294H462.638C458.765 709.294 455.625 712.429 455.625 716.297C455.625 720.165 458.765 723.3 462.638 723.3H649.031C652.904 723.3 656.044 720.165 656.044 716.297C656.044 712.429 652.904 709.294 649.031 709.294Z" fill="#E4D0C0"/>
<path d="M423.579 525.718C422.287 520.706 417.177 517.69 412.164 518.982C407.152 520.274 404.136 525.384 405.428 530.396L435.048 645.323C436.34 650.336 441.451 653.352 446.463 652.06C451.475 650.768 454.491 645.657 453.199 640.645L423.579 525.718Z" fill="#E4D0C0"/>
<path d="M351.262 742.088C349.875 733.05 349.481 729.544 349.968 729.206C350.868 728.588 363.093 735.731 363.093 735.731C363.093 735.731 359.625 743.663 351.262 742.088Z" fill="black"/>
<path d="M562.031 137.119H237.637C231.414 137.119 226.369 142.164 226.369 148.388V384.656C226.369 390.88 231.414 395.925 237.637 395.925H562.031C568.255 395.925 573.3 390.88 573.3 384.656V148.388C573.3 142.164 568.255 137.119 562.031 137.119Z" fill="white"/>
<path d="M544.969 189.019H408.019V290.119H544.969V189.019Z" fill="#C4DEFD"/>
<path d="M544.969 217.013H522.15V290.119H544.969V217.013Z" fill="#E4D0C0"/>
<path d="M522.15 217.013H499.331V290.119H522.15V217.013Z" fill="#E4D0C0"/>
<path d="M499.312 217.013H476.494V290.119H499.312V217.013Z" fill="#E4D0C0"/>
<path d="M476.494 217.013H453.675V290.119H476.494V217.013Z" fill="#E4D0C0"/>
<path d="M453.675 217.013H430.856V290.119H453.675V217.013Z" fill="#E4D0C0"/>
<path d="M430.837 217.013H408.019V290.119H430.837V217.013Z" fill="#E4D0C0"/>
<path d="M544.969 235.294H408.019V253.575H544.969V235.294Z" fill="#E4D0C0"/>
<path d="M544.969 253.575H408.019V271.856H544.969V253.575Z" fill="#E4D0C0"/>
<path d="M522.15 291.056C521.901 291.056 521.663 290.958 521.487 290.782C521.311 290.606 521.212 290.367 521.212 290.119V216.994C521.212 216.745 521.311 216.507 521.487 216.331C521.663 216.155 521.901 216.056 522.15 216.056C522.399 216.056 522.637 216.155 522.813 216.331C522.989 216.507 523.087 216.745 523.087 216.994V290.119C523.087 290.367 522.989 290.606 522.813 290.782C522.637 290.958 522.399 291.056 522.15 291.056Z" fill="#C4DEFD"/>
<path d="M522.15 291.056C521.901 291.056 521.663 290.958 521.487 290.782C521.311 290.606 521.212 290.367 521.212 290.119V216.994C521.212 216.745 521.311 216.507 521.487 216.331C521.663 216.155 521.901 216.056 522.15 216.056C522.399 216.056 522.637 216.155 522.813 216.331C522.989 216.507 523.087 216.745 523.087 216.994V290.119C523.087 290.367 522.989 290.606 522.813 290.782C522.637 290.958 522.399 291.056 522.15 291.056Z" fill="#C4DEFD"/>
<path d="M499.331 291.056C499.082 291.056 498.844 290.958 498.668 290.782C498.492 290.606 498.394 290.367 498.394 290.119V216.994C498.394 216.745 498.492 216.507 498.668 216.331C498.844 216.155 499.082 216.056 499.331 216.056C499.58 216.056 499.818 216.155 499.994 216.331C500.17 216.507 500.269 216.745 500.269 216.994V290.119C500.269 290.367 500.17 290.606 499.994 290.782C499.818 290.958 499.58 291.056 499.331 291.056Z" fill="#C4DEFD"/>
<path d="M499.331 291.056C499.082 291.056 498.844 290.958 498.668 290.782C498.492 290.606 498.394 290.367 498.394 290.119V216.994C498.394 216.745 498.492 216.507 498.668 216.331C498.844 216.155 499.082 216.056 499.331 216.056C499.58 216.056 499.818 216.155 499.994 216.331C500.17 216.507 500.269 216.745 500.269 216.994V290.119C500.269 290.367 500.17 290.606 499.994 290.782C499.818 290.958 499.58 291.056 499.331 291.056Z" fill="#C4DEFD"/>
<path d="M476.494 291.056C476.245 291.056 476.007 290.958 475.831 290.782C475.655 290.606 475.556 290.367 475.556 290.119V216.994C475.556 216.745 475.655 216.507 475.831 216.331C476.007 216.155 476.245 216.056 476.494 216.056C476.742 216.056 476.981 216.155 477.157 216.331C477.332 216.507 477.431 216.745 477.431 216.994V290.119C477.431 290.367 477.332 290.606 477.157 290.782C476.981 290.958 476.742 291.056 476.494 291.056Z" fill="#C4DEFD"/>
<path d="M453.675 291.056C453.426 291.056 453.188 290.958 453.012 290.782C452.836 290.606 452.737 290.367 452.737 290.119V216.994C452.737 216.745 452.836 216.507 453.012 216.331C453.188 216.155 453.426 216.056 453.675 216.056C453.923 216.056 454.162 216.155 454.338 216.331C454.514 216.507 454.612 216.745 454.612 216.994V290.119C454.612 290.367 454.514 290.606 454.338 290.782C454.162 290.958 453.923 291.056 453.675 291.056Z" fill="#C4DEFD"/>
<path d="M476.494 291.056C476.245 291.056 476.007 290.958 475.831 290.782C475.655 290.606 475.556 290.367 475.556 290.119V216.994C475.556 216.745 475.655 216.507 475.831 216.331C476.007 216.155 476.245 216.056 476.494 216.056C476.742 216.056 476.981 216.155 477.157 216.331C477.332 216.507 477.431 216.745 477.431 216.994V290.119C477.431 290.367 477.332 290.606 477.157 290.782C476.981 290.958 476.742 291.056 476.494 291.056Z" fill="#C4DEFD"/>
<path d="M430.875 291.056C430.626 291.056 430.388 290.958 430.212 290.782C430.036 290.606 429.938 290.367 429.938 290.119V216.994C429.938 216.745 430.036 216.507 430.212 216.331C430.388 216.155 430.626 216.056 430.875 216.056C431.124 216.056 431.362 216.155 431.538 216.331C431.714 216.507 431.812 216.745 431.812 216.994V290.119C431.812 290.367 431.714 290.606 431.538 290.782C431.362 290.958 431.124 291.056 430.875 291.056Z" fill="#C4DEFD"/>
<path d="M453.675 291.056C453.426 291.056 453.188 290.958 453.012 290.782C452.836 290.606 452.737 290.367 452.737 290.119V216.994C452.737 216.745 452.836 216.507 453.012 216.331C453.188 216.155 453.426 216.056 453.675 216.056C453.923 216.056 454.162 216.155 454.338 216.331C454.514 216.507 454.612 216.745 454.612 216.994V290.119C454.612 290.367 454.514 290.606 454.338 290.782C454.162 290.958 453.923 291.056 453.675 291.056Z" fill="#C4DEFD"/>
<path d="M430.875 291.056C430.626 291.056 430.388 290.958 430.212 290.782C430.036 290.606 429.938 290.367 429.938 290.119V216.994C429.938 216.745 430.036 216.507 430.212 216.331C430.388 216.155 430.626 216.056 430.875 216.056C431.124 216.056 431.362 216.155 431.538 216.331C431.714 216.507 431.812 216.745 431.812 216.994V290.119C431.812 290.367 431.714 290.606 431.538 290.782C431.362 290.958 431.124 291.056 430.875 291.056Z" fill="#C4DEFD"/>
<path d="M544.969 236.25H408.094C407.845 236.25 407.607 236.151 407.431 235.975C407.255 235.8 407.156 235.561 407.156 235.312C407.156 235.064 407.255 234.825 407.431 234.65C407.607 234.474 407.845 234.375 408.094 234.375H544.969C545.217 234.375 545.456 234.474 545.632 234.65C545.807 234.825 545.906 235.064 545.906 235.312C545.906 235.561 545.807 235.8 545.632 235.975C545.456 236.151 545.217 236.25 544.969 236.25Z" fill="#C4DEFD"/>
<path d="M544.969 254.513H408.094C407.845 254.513 407.607 254.414 407.431 254.238C407.255 254.062 407.156 253.824 407.156 253.575C407.156 253.326 407.255 253.088 407.431 252.912C407.607 252.736 407.845 252.638 408.094 252.638H544.969C545.217 252.638 545.456 252.736 545.632 252.912C545.807 253.088 545.906 253.326 545.906 253.575C545.906 253.824 545.807 254.062 545.632 254.238C545.456 254.414 545.217 254.513 544.969 254.513Z" fill="#C4DEFD"/>
<path d="M544.969 254.513H408.094C407.845 254.513 407.607 254.414 407.431 254.238C407.255 254.062 407.156 253.824 407.156 253.575C407.156 253.326 407.255 253.088 407.431 252.912C407.607 252.736 407.845 252.638 408.094 252.638H544.969C545.217 252.638 545.456 252.736 545.632 252.912C545.807 253.088 545.906 253.326 545.906 253.575C545.906 253.824 545.807 254.062 545.632 254.238C545.456 254.414 545.217 254.513 544.969 254.513Z" fill="#C4DEFD"/>
<path d="M544.969 272.775H408.094C407.845 272.775 407.607 272.676 407.431 272.5C407.255 272.325 407.156 272.086 407.156 271.838C407.156 271.589 407.255 271.35 407.431 271.175C407.607 270.999 407.845 270.9 408.094 270.9H544.969C545.217 270.9 545.456 270.999 545.632 271.175C545.807 271.35 545.906 271.589 545.906 271.838C545.906 272.086 545.807 272.325 545.632 272.5C545.456 272.676 545.217 272.775 544.969 272.775Z" fill="#C4DEFD"/>
<path d="M401.156 433.331C398.644 434.156 395.287 432.281 395.531 427.706C395.775 423.131 395.813 413.306 393.75 410.831C393.75 410.831 403.575 407.325 411.056 408.713C411.056 408.713 412.931 429.338 401.681 433.238" fill="black"/>
<path d="M263.081 350.794C259.031 344.306 267.506 336.244 271.744 327.956C273.938 323.207 275.386 318.147 276.037 312.956L289.969 343.538C289.969 343.538 271.181 363.75 263.081 350.794Z" fill="black"/>
<path d="M350.775 258.094C347.831 259.669 328.031 270.038 312.919 277.969L295.275 287.213C291.525 282.075 287.437 275.456 283.125 268.219C267.525 241.969 250.312 207.788 250.312 207.788C250.312 207.788 280.031 192.375 307.256 179.963C329.25 223.313 350.775 258.094 350.775 258.094Z" fill="#EA4338"/>
<path d="M306 318.75C301.234 330.822 295.213 342.36 288.038 353.175C278.55 331.987 262.238 288.394 260.588 282.131C258.15 273.019 259.744 264.844 266.85 249.319C271.838 238.406 273.731 237.975 283.575 232.969C293.419 227.962 301.088 224.287 301.781 225.319C303.281 227.512 301.538 231.131 285.994 241.087C292.11 239.893 298.324 239.265 304.556 239.212C309.375 239.025 305.1 244.556 301.688 245.119C305.756 246.431 301.444 251.719 297.338 252.937C301.781 253.425 300.338 257.212 295.05 260.437C292.088 262.2 287.325 265.312 285.338 266.625H285.131L283.125 268.35C287.438 275.587 291.619 282.206 295.275 287.344L305.306 282.094L307.763 287.719C310.38 297.998 309.764 308.833 306 318.75Z" fill="#FFC36C"/>
<path d="M367.837 284.381C369.075 273.975 375 271.05 380.381 272.362C387.356 274.069 384.131 258.037 405.356 265.894L403.706 284.775L367.837 284.381Z" fill="#C15D31"/>
<path d="M426.9 227.063C419.85 219.056 405.393 219.019 397.594 228.694C390.731 237.188 392.531 250.369 398.55 260.719C398.531 260.719 438.15 239.831 426.9 227.063Z" fill="#C15D31"/>
<path d="M412.369 278.7C449.044 279.544 468.019 277.406 479.231 300.487C490.444 323.569 514.594 384.169 507.488 398.512C500.381 412.856 410.663 433.35 401.156 433.35C401.156 433.35 407.269 428.025 407.85 422.887C408.675 415.387 411.019 398.85 399.844 372.956L370.406 395.925H346.706V374.325C346.706 374.325 340.275 389.981 333.356 396.825C327.863 402.188 307.913 402.075 299.344 393.956C290.775 385.838 265.163 356.119 263.1 350.831C263.1 350.831 267.863 352.894 275.175 349.556C282.488 346.219 310.631 301.238 307.763 287.55L318.581 320.456C318.581 320.456 327.638 303.225 331.988 296.775C338.55 287.044 353.119 280.069 372.019 279.356C391.5 278.606 395.063 278.306 412.369 278.7Z" fill="#B7AD7A"/>
<path d="M408.637 411.994C398.662 412.125 391.762 414.431 389.681 417.806C385.973 424.849 382.777 432.149 380.119 439.65C377.944 445.931 375.581 454.931 371.569 453.113C370.35 458.194 365.944 458.606 365.475 451.744C365.475 451.744 362.062 456.394 359.719 455.494C355.8 453.9 355.969 435.281 355.969 435.281C355.969 435.281 351.169 442.331 349.144 441.825C347.119 441.319 345.262 439.669 352.669 420.469C355.791 412.077 359.442 403.892 363.6 395.963C366.316 390.58 369.901 385.683 374.212 381.469C382.875 373.613 391.294 373.969 399.825 372.994C407.194 390 408.712 402.956 408.637 411.994Z" fill="#FFC36C"/>
<path d="M424.181 280.125C424.181 280.125 423.169 284.944 422.437 290.119C422.325 290.794 422.231 291.45 422.156 292.125C421.275 299.362 414.019 302.587 406.781 300.206C399.544 297.825 397.406 293.062 398.494 289.125C399.581 285.187 402.45 266.494 402.45 266.494C391.406 266.494 393.431 250.594 402 255.412C403.087 253.969 403.679 252.213 403.687 250.406C402.169 240.469 404.962 231.656 408.037 231.656C409.8 231.656 415.65 234.637 421.275 231.656C426.9 228.675 426.9 227.062 426.9 227.062C426.9 227.062 433.294 233.156 437.812 250.65C442.331 268.144 438.769 280.744 424.181 280.125Z" fill="#FFC36C"/>
<path d="M424.181 280.125C424.181 280.125 423.169 284.944 422.438 290.119C416.89 286.512 412.88 280.972 411.188 274.575C415.005 277.451 419.464 279.356 424.181 280.125V280.125Z" fill="black"/>
<path d="M427.65 264.487C425.331 264.487 423.045 263.941 420.975 262.894C420.842 262.794 420.749 262.651 420.71 262.49C420.671 262.328 420.69 262.158 420.764 262.009C420.837 261.86 420.96 261.741 421.112 261.674C421.263 261.606 421.434 261.593 421.594 261.637C423.973 262.839 426.655 263.309 429.3 262.987C429.487 262.97 429.672 263.027 429.817 263.147C429.961 263.267 430.052 263.439 430.069 263.625C430.086 263.811 430.029 263.997 429.909 264.141C429.79 264.286 429.618 264.376 429.431 264.394C428.888 264.375 428.306 264.487 427.65 264.487Z" fill="black"/>
<path d="M402.525 261.431C402.438 261.448 402.349 261.448 402.262 261.431L398.287 259.762C398.116 259.69 397.98 259.553 397.909 259.381C397.839 259.209 397.84 259.015 397.912 258.844C397.984 258.672 398.122 258.536 398.294 258.466C398.466 258.396 398.659 258.397 398.831 258.469L402.806 260.138C402.965 260.191 403.1 260.301 403.184 260.446C403.269 260.591 403.298 260.762 403.266 260.927C403.233 261.092 403.143 261.24 403.01 261.343C402.877 261.446 402.711 261.497 402.543 261.488L402.525 261.431Z" fill="black"/>
<path d="M414.825 247.65C414.726 247.671 414.624 247.671 414.525 247.65C414.357 247.569 414.228 247.425 414.165 247.25C414.102 247.075 414.11 246.882 414.188 246.713C416.063 242.7 419.119 240.694 421.05 240.844C421.232 240.863 421.4 240.951 421.519 241.091C421.638 241.231 421.698 241.411 421.688 241.594C421.68 241.685 421.655 241.774 421.614 241.855C421.572 241.937 421.515 242.009 421.445 242.069C421.375 242.128 421.295 242.173 421.208 242.201C421.12 242.229 421.029 242.239 420.938 242.231C419.756 242.1 417.188 243.675 415.444 247.294C415.381 247.402 415.291 247.492 415.182 247.555C415.074 247.618 414.95 247.65 414.825 247.65Z" fill="black"/>
<path d="M432.413 259.762C432.274 259.756 432.14 259.71 432.028 259.629C431.916 259.548 431.829 259.436 431.779 259.306C431.73 259.177 431.719 259.036 431.748 258.901C431.777 258.765 431.845 258.641 431.944 258.544C432.394 258.112 433.65 256.669 433.406 255.675C433.015 254.97 432.508 254.336 431.906 253.8C429.423 251.644 427.717 248.733 427.05 245.512C426.803 243.566 427.328 241.601 428.513 240.038C429.092 239.254 429.821 238.594 430.658 238.095C431.495 237.596 432.423 237.268 433.388 237.131C433.572 237.106 433.758 237.156 433.906 237.268C434.053 237.381 434.15 237.547 434.175 237.731C434.2 237.915 434.151 238.102 434.038 238.249C433.926 238.397 433.759 238.494 433.575 238.519C432.792 238.63 432.039 238.897 431.359 239.302C430.68 239.708 430.089 240.245 429.619 240.881C428.648 242.146 428.216 243.743 428.419 245.325C429.047 248.25 430.622 250.886 432.9 252.825C433.712 253.482 434.355 254.325 434.775 255.281C435.281 257.287 433.144 259.312 432.9 259.537C432.838 259.606 432.763 259.66 432.679 259.699C432.595 259.738 432.505 259.759 432.413 259.762V259.762Z" fill="black"/>
<path d="M422.242 252.212C422.856 251.913 422.933 250.803 422.413 249.731C421.893 248.66 420.973 248.034 420.358 248.332C419.743 248.631 419.666 249.741 420.186 250.812C420.707 251.884 421.627 252.51 422.242 252.212Z" fill="black"/>
<path d="M433.293 248.875C433.908 248.577 433.985 247.466 433.465 246.395C432.944 245.324 432.024 244.697 431.41 244.996C430.795 245.294 430.718 246.405 431.238 247.476C431.758 248.547 432.678 249.174 433.293 248.875Z" fill="black"/>
<path d="M346.706 375C346.602 375.024 346.493 375.024 346.388 375C346.223 374.916 346.098 374.771 346.039 374.596C345.979 374.421 345.99 374.23 346.069 374.062C351.394 363.262 363.431 337.894 363.544 337.631C363.639 337.489 363.781 337.386 363.946 337.341C364.11 337.295 364.285 337.31 364.44 337.383C364.594 337.455 364.717 337.581 364.787 337.736C364.856 337.892 364.868 338.068 364.819 338.231C364.706 338.494 352.65 363.862 347.325 374.681C347.258 374.783 347.166 374.865 347.057 374.921C346.949 374.977 346.828 375.004 346.706 375V375Z" fill="black"/>
<path d="M323.831 335.006C323.697 335.005 323.566 334.965 323.453 334.892C323.34 334.819 323.25 334.716 323.194 334.594C323.194 334.594 320.963 329.569 317.925 320.662C317.898 320.496 317.931 320.326 318.018 320.181C318.105 320.037 318.241 319.928 318.4 319.874C318.56 319.821 318.734 319.825 318.89 319.887C319.047 319.949 319.177 320.064 319.256 320.212C322.275 329.062 324.469 333.975 324.488 334.031C324.564 334.203 324.569 334.398 324.502 334.573C324.436 334.749 324.302 334.891 324.131 334.969C324.035 335.002 323.933 335.015 323.831 335.006V335.006Z" fill="black"/>
<path d="M399.825 373.65C399.639 373.65 399.46 373.576 399.328 373.444C399.196 373.312 399.122 373.133 399.122 372.947C399.122 372.76 399.196 372.582 399.328 372.45C399.46 372.318 399.639 372.244 399.825 372.244C407.756 371.325 418.181 370.369 428.269 369.581C443.869 368.25 461.55 366.75 463.256 365.531C463.332 365.477 463.417 365.438 463.507 365.417C463.597 365.396 463.69 365.392 463.782 365.407C463.873 365.422 463.961 365.455 464.039 365.503C464.118 365.552 464.187 365.616 464.241 365.691C464.295 365.766 464.334 365.851 464.355 365.941C464.376 366.031 464.38 366.124 464.365 366.216C464.35 366.307 464.318 366.395 464.269 366.474C464.22 366.552 464.157 366.621 464.081 366.675C462.206 368.044 449.269 369.206 428.456 370.969C418.388 371.831 407.963 372.712 400.05 373.612L399.825 373.65Z" fill="black"/>
<path d="M452.7 368.738H452.531C452.351 368.689 452.196 368.571 452.101 368.41C452.007 368.249 451.979 368.056 452.025 367.875C459.731 336.994 461.4 328.669 461.4 323.325C461.383 323.223 461.389 323.119 461.417 323.019C461.444 322.92 461.493 322.827 461.56 322.749C461.627 322.67 461.71 322.607 461.804 322.563C461.898 322.52 462 322.497 462.103 322.497C462.207 322.497 462.309 322.52 462.402 322.563C462.496 322.607 462.579 322.67 462.646 322.749C462.713 322.827 462.762 322.92 462.79 323.019C462.817 323.119 462.823 323.223 462.806 323.325C462.956 328.95 461.288 336.863 453.431 368.325C453.371 368.464 453.267 368.58 453.135 368.654C453.003 368.729 452.85 368.758 452.7 368.738V368.738Z" fill="black"/>
<path d="M371.569 453.75C370.781 453.75 369.15 453.562 370.913 423.394C370.915 423.3 370.936 423.208 370.976 423.123C371.015 423.038 371.072 422.962 371.143 422.9C371.213 422.839 371.296 422.792 371.386 422.764C371.475 422.736 371.569 422.727 371.663 422.737C371.755 422.742 371.846 422.765 371.93 422.806C372.014 422.847 372.088 422.904 372.15 422.973C372.211 423.043 372.257 423.125 372.286 423.213C372.315 423.302 372.326 423.395 372.319 423.487C371.569 436.331 371.213 450.694 371.981 452.475C372.102 452.56 372.194 452.682 372.243 452.821C372.292 452.961 372.296 453.113 372.255 453.255C372.214 453.398 372.129 453.524 372.013 453.616C371.896 453.708 371.754 453.761 371.606 453.769L371.569 453.75Z" fill="black"/>
<path d="M365.475 452.456C365.307 452.454 365.146 452.393 365.019 452.283C364.892 452.173 364.808 452.022 364.781 451.856C363.3 441.562 362.794 426.187 364.781 417.937C364.826 417.756 364.941 417.6 365.101 417.503C365.261 417.406 365.453 417.377 365.634 417.422C365.816 417.467 365.972 417.582 366.069 417.742C366.166 417.902 366.195 418.093 366.15 418.275C364.275 426.356 364.688 441.506 366.15 451.669C366.163 451.76 366.158 451.853 366.135 451.942C366.112 452.031 366.071 452.115 366.015 452.188C365.959 452.262 365.889 452.323 365.81 452.369C365.73 452.415 365.641 452.445 365.55 452.456H365.475Z" fill="black"/>
<path d="M355.969 435.938C355.878 435.938 355.787 435.92 355.703 435.885C355.619 435.85 355.543 435.799 355.478 435.734C355.414 435.67 355.363 435.593 355.328 435.509C355.293 435.425 355.275 435.335 355.275 435.244C355.275 426.675 357.375 415.181 359.269 410.644C359.304 410.559 359.356 410.482 359.422 410.417C359.487 410.352 359.565 410.301 359.65 410.266C359.736 410.231 359.827 410.214 359.919 410.214C360.011 410.214 360.102 410.233 360.187 410.269C360.272 410.304 360.349 410.357 360.414 410.422C360.479 410.488 360.53 410.565 360.565 410.651C360.6 410.736 360.618 410.827 360.617 410.919C360.617 411.011 360.598 411.103 360.562 411.188C358.037 418.958 356.727 427.073 356.681 435.244C356.684 435.336 356.668 435.429 356.634 435.515C356.6 435.601 356.549 435.68 356.485 435.747C356.42 435.813 356.343 435.866 356.257 435.902C356.172 435.938 356.08 435.956 355.987 435.956L355.969 435.938Z" fill="black"/>
<path d="M275.869 246.112C275.709 246.123 275.55 246.078 275.42 245.985C275.29 245.892 275.196 245.757 275.154 245.602C275.112 245.447 275.124 245.283 275.19 245.137C275.255 244.991 275.369 244.872 275.512 244.8C278.764 242.927 282.243 241.478 285.862 240.487C285.953 240.471 286.047 240.474 286.137 240.494C286.227 240.514 286.313 240.551 286.389 240.605C286.464 240.658 286.529 240.725 286.579 240.803C286.628 240.881 286.662 240.968 286.678 241.059C286.694 241.15 286.692 241.244 286.672 241.334C286.652 241.424 286.614 241.51 286.561 241.586C286.508 241.661 286.44 241.726 286.362 241.776C286.284 241.825 286.197 241.859 286.106 241.875C282.648 242.85 279.322 244.248 276.206 246.037C276.102 246.091 275.986 246.116 275.869 246.112V246.112Z" fill="black"/>
<path d="M276.619 254.494C276.446 254.518 276.271 254.476 276.128 254.376C275.985 254.277 275.884 254.127 275.847 253.957C275.809 253.787 275.836 253.609 275.924 253.458C276.011 253.307 276.152 253.195 276.319 253.144C277.144 252.769 296.794 243.769 301.763 244.425C301.856 244.434 301.946 244.462 302.028 244.507C302.11 244.552 302.182 244.613 302.24 244.687C302.298 244.76 302.34 244.845 302.364 244.935C302.389 245.025 302.395 245.12 302.381 245.212C302.358 245.398 302.262 245.568 302.115 245.684C301.967 245.799 301.78 245.852 301.594 245.831C297.844 245.325 282.488 251.887 276.9 254.437C276.811 254.476 276.716 254.495 276.619 254.494V254.494Z" fill="black"/>
<path d="M277.237 262.5C277.077 262.511 276.919 262.465 276.789 262.372C276.658 262.279 276.564 262.144 276.522 261.989C276.48 261.835 276.493 261.671 276.559 261.524C276.624 261.378 276.738 261.259 276.881 261.188C284.7 256.763 293.362 252.094 297.356 252.262C297.542 252.272 297.716 252.354 297.842 252.491C297.968 252.627 298.036 252.808 298.031 252.994C298.029 253.087 298.008 253.178 297.969 253.262C297.931 253.347 297.876 253.423 297.808 253.486C297.74 253.549 297.66 253.597 297.572 253.629C297.485 253.66 297.392 253.674 297.3 253.669C293.437 253.444 283.087 259.294 277.575 262.425C277.47 262.478 277.354 262.504 277.237 262.5V262.5Z" fill="black"/>
<path d="M284.437 298.125C284.314 298.126 284.193 298.094 284.086 298.033C283.98 297.971 283.891 297.882 283.83 297.776C283.769 297.669 283.738 297.547 283.739 297.424C283.74 297.301 283.774 297.181 283.837 297.075C287.587 290.494 283.837 282.319 281.644 277.931L281.231 277.069C279.056 272.419 279.731 269.906 284.025 266.663C284.175 266.584 284.347 266.562 284.512 266.599C284.677 266.637 284.823 266.731 284.925 266.867C285.026 267.002 285.076 267.169 285.066 267.337C285.055 267.506 284.986 267.666 284.869 267.788C280.837 270.825 280.744 272.7 282.506 276.469L282.919 277.331C285.131 281.963 289.256 290.569 285.056 297.788C284.992 297.894 284.902 297.981 284.793 298.041C284.684 298.1 284.561 298.129 284.437 298.125V298.125Z" fill="black"/>
<path d="M573.3 310.5H520.106V347.719H573.3V310.5Z" fill="#E4D0C0"/>
<path d="M516.506 416.119C508.8 422.887 508.013 428.381 508.631 431.475C509.25 434.569 518.194 439.444 517.031 446.869C515.869 454.294 498.525 497.494 498.525 497.494C498.525 497.494 469.238 501.244 468.881 485.719C468.881 481.969 472.631 489 478.538 486.938C484.444 484.875 482.663 481.95 476.85 478.594C471.038 475.238 469.913 471.188 476.85 466.256C485.438 460.2 492.169 457.725 490.819 452.681C489.469 447.637 472.538 447.656 469.819 437.831C467.7 430.2 472.744 416.531 485.194 405.844C497.25 395.512 508.725 391.256 513.319 398.044L516.506 416.119Z" fill="black"/>
<path d="M518.344 420.656C510.263 416.7 507.525 407.531 510.844 395.587C513.281 386.944 519.731 379.931 528.394 378.862C535.669 377.962 546.113 376.987 551.644 378.337C558.656 379.931 559.931 384.413 557.119 387.844C554.869 390.581 555.45 393.75 560.006 395.925C564.563 398.1 568.594 403.425 555.319 414.056C542.775 424.144 518.344 420.656 518.344 420.656Z" fill="black"/>
<path d="M440.006 849.525C440.362 878.194 429.712 901.35 423.375 917.644C423.375 917.644 424.744 926.063 420.956 952.144C417.169 978.225 413.925 991.519 413.456 996.244C412.987 1000.97 412.256 1006.88 413.119 1007.74C413.981 1008.6 417.281 1010.98 417.112 1012.86C416.944 1014.73 416.25 1016.61 411.187 1016.61C406.125 1016.61 400.556 1015.44 399.694 1011.62C398.831 1007.79 398.362 978.431 398.362 977.494C398.362 977.494 389.419 1005.94 389.775 1008.26C389.925 1009.28 395.719 1014.47 389.775 1015.76C383.831 1017.06 380.4 1016.29 379.462 1015.76C378.327 1014.74 377.441 1013.47 376.872 1012.06C376.304 1010.64 376.067 1009.11 376.181 1007.59C376.5 1003.44 380.175 985.313 381.112 975.225C382.05 965.138 382.275 950.381 380.081 942.881C378.576 938.383 377.631 933.717 377.269 928.988C377.269 928.988 373.687 926.1 372.431 928.444C371.175 930.787 365.137 944.175 344.85 962.494C321.187 983.888 297.712 993.563 284.062 984.994C279.469 982.088 274.687 974.513 304.931 963.731C326.662 956.006 339.412 945.15 354.937 927.319C370.462 909.488 386.587 879.169 390.862 860.681C394.144 846.544 388.125 820.988 380.869 802.406C376.043 790.183 370.191 778.391 363.375 767.156C361.65 764.194 356.025 758.944 351.112 750.131C346.2 741.319 343.406 736.2 344.081 735.506C345.487 734.062 356.644 738.281 356.644 738.281C362.494 732.131 373.744 723.281 384.994 725.906C385.828 726.095 386.648 726.339 387.45 726.638C389.1 727.193 390.618 728.079 391.912 729.244C395.662 732.713 394.894 737.55 393.787 740.644C392.269 744.975 394.8 748.313 397.819 750.3C400.837 752.288 411.862 752.963 415.819 750.825C419.775 748.688 427.931 741.938 435.825 727.575C443.719 713.213 446.831 707.213 450.469 708.825C451.519 706.725 457.706 706.219 457.687 720.769C457.687 737.644 450.187 773.4 429.75 796.519C436.087 813.496 439.553 831.409 440.006 849.525V849.525Z" fill="#B8C1D0"/>
<path d="M685.406 591.319C697.725 587.719 694.331 574.725 689.381 543L669.881 555.581C669.881 555.581 672.956 594.956 685.406 591.319Z" fill="black"/>
<path d="M670.294 494.212C681.694 490.462 675 461.812 675.769 451.519L658.65 459.019C658.65 459.019 654.881 499.219 670.294 494.212Z" fill="black"/>
<path d="M665.419 932.306C663.413 938.962 642.731 934.181 624.169 915.263L640.425 896.1C640.425 896.1 671.231 913.031 665.419 932.306Z" fill="black"/>
<path d="M737.606 933.131C739.837 944.381 766.819 933.956 786.225 939.525L779.381 906.975C779.381 906.975 733.406 912 737.606 933.131Z" fill="black"/>
<path d="M877.95 1016.59H786.844C784.564 1010.97 783.197 1005.03 782.794 998.981C782.794 998.981 782.794 998.775 782.794 998.681C781.237 984.109 778.928 969.627 775.875 955.294C774 947.025 767.85 919.106 767.85 919.106C756.094 922.106 737.006 925.05 737.569 933.131C736.912 926.981 728.887 850.462 725.025 810.581C720.994 769.012 718.725 740.137 718.725 740.137C711.075 766.781 681.225 872.887 674.475 897.169C667.725 921.45 665.381 932.306 665.381 932.306C665.887 920.419 640.35 907.031 640.35 907.031C640.35 907.031 632.006 918.394 619.35 942.169C606.694 965.944 606.469 990.469 606.975 993C607.167 993.763 607.437 994.505 607.781 995.213C609.575 999.164 611.896 1002.85 614.681 1006.18C616.762 1008.06 627.694 1013.48 626.175 1014.73C624.656 1015.99 607.219 1016.25 602.925 1013.48C598.631 1010.7 558.919 978.319 552.094 972.506C545.269 966.694 542.719 963.469 555.056 943.969L555.394 943.425C568.031 923.456 580.162 893.362 584.456 882.75C584.625 882.319 584.906 881.625 585.262 880.688C593.569 858.994 648.187 709.294 648.187 709.294H550.369C524.831 709.294 506.625 704.494 497.006 691.35C488.25 679.35 479.7 650.1 478.65 599.475C478.65 596.569 478.65 593.588 478.65 590.531C478.65 588.45 478.65 586.331 478.65 584.194C478.65 583.331 478.65 582.45 478.65 581.587C479.644 522.881 497.4 485.006 497.4 485.006C509.719 475.519 532.762 467.531 541.706 471.45C550.65 475.369 559.181 490.556 574.087 512.906C588.994 535.256 603.075 558.975 606.337 558.581C609.6 558.188 639.937 535.406 652.95 526.331C659.137 522.019 669.187 515.719 679.35 509.456C690.356 502.706 701.512 496.05 708 492.112L708.356 491.888C720.694 484.388 728.006 482.681 737.775 488.138C747.544 493.594 772.462 510.506 781.256 515.25C790.05 519.994 796.031 522.75 796.256 524.625C796.481 526.5 792.206 528.019 786.244 526.5C780.281 524.981 757.912 513.506 757.106 513.506C759.707 516.408 762.468 519.162 765.375 521.756C769.575 525.506 770.662 533.006 762.656 536.569C762.015 537.624 761.124 538.505 760.061 539.133C758.998 539.761 757.796 540.117 756.562 540.169C756.562 540.169 757.106 544.8 746.531 545.213C735.956 545.625 732.712 545.213 732.581 543.169C732.45 541.125 741.956 538.969 747.581 537.75C747.581 537.75 741.487 531.656 740.4 530.7C739.312 529.744 728.887 523.8 725.081 523.2C721.275 522.6 717.094 525.225 712.481 529.294C711.937 529.763 711.037 530.588 709.856 531.675C700.987 539.813 676.725 562.481 676.725 562.481C676.725 562.481 677.4 579.356 678.881 584.025C680.362 588.694 682.95 591.075 685.387 591.356C685.387 591.356 668.512 596.494 649.481 603.544C630.45 610.594 612.919 616.2 599.756 615.056C585.619 613.838 578.981 608.906 555.712 578.475C555.712 578.475 555.431 579.694 555.019 581.569C555.019 581.869 554.887 582.188 554.812 582.506C554.662 583.144 554.512 583.856 554.344 584.588L553.819 586.894L553.369 588.994C553.181 589.913 552.975 590.869 552.806 591.694C552.637 592.519 552.562 592.856 552.45 593.419C552.262 594.356 552.094 595.294 551.962 596.006L551.794 596.963C551.794 597.281 551.681 597.581 551.644 597.844C551.606 598.106 551.644 598.275 551.644 598.462C551.636 598.575 551.636 598.688 551.644 598.8C551.635 598.9 551.635 599 551.644 599.1C551.635 599.181 551.635 599.263 551.644 599.344C551.635 599.381 551.635 599.419 551.644 599.456C552.262 602.681 576.881 628.425 577.894 628.781C578.906 629.138 610.256 627.844 647.006 627.844C683.756 627.844 692.7 628.2 706.556 628.2C724.012 628.2 736.912 641.813 738.075 651.469C762.881 649.819 777.45 654.919 787.312 684.712C793.875 704.644 798.806 750.112 803.587 775.931C808.369 801.75 819.75 872.269 822.544 889.481C823.256 893.869 824.269 900.525 825.45 908.231C828.937 930.619 833.812 961.631 836.494 969.694C839.4 978.394 846.675 992.194 854.85 1000.2C856.646 1002.02 858.691 1003.58 860.925 1004.83C871.2 1010.31 877.819 1011.71 877.95 1016.59Z" fill="#F09400"/>
<path d="M626.213 1014.73C624.694 1016.01 607.256 1016.25 602.963 1013.48C598.669 1010.7 558.956 978.319 552.131 972.506C545.306 966.694 542.756 963.469 555.094 943.969L555.431 943.425C568.069 923.456 580.2 893.362 584.494 882.75C584.663 882.319 584.944 881.625 585.3 880.688C602.794 881.887 628.931 899.625 640.388 906.938C640.388 906.938 632.044 918.3 619.388 942.075C606.731 965.85 606.506 990.375 607.013 992.906C607.204 993.67 607.474 994.411 607.819 995.119C609.612 999.07 611.934 1002.76 614.719 1006.09C616.8 1008.11 627.75 1013.47 626.213 1014.73Z" fill="#C15D31"/>
<path d="M877.95 1016.59H786.844C784.564 1010.97 783.197 1005.03 782.794 998.981C782.794 998.981 782.794 998.775 782.794 998.681C781.237 984.109 778.928 969.627 775.875 955.294C774 947.025 767.85 919.106 767.85 919.106C780.281 915.994 797.85 909.9 825.206 908.138C828.694 930.525 833.569 961.538 836.25 969.6C839.156 978.3 846.431 992.1 854.606 1000.11C856.402 1001.93 858.448 1003.49 860.681 1004.74C871.2 1010.31 877.819 1011.71 877.95 1016.59Z" fill="#C15D31"/>
<path d="M777.3 386.869C777.3 386.869 763.106 393.619 757.65 395.719C756.169 396.281 754.35 399.469 732.656 416.512C710.963 433.556 703.687 438.75 661.894 462.056C661.894 462.056 660.731 478.2 661.575 483.787C662.419 489.375 665.156 495.15 670.312 494.212C670.312 494.212 670.2 496.2 632.812 498.094C595.425 499.987 524.062 494.1 524.062 493.369C524.062 492.638 527.981 449.212 527.981 449.212C553.631 458.137 619.462 435.15 663.487 412.519C704.737 391.312 716.287 375.169 723.075 369.131C729.862 363.094 733.894 363.075 746.719 360.319C759.544 357.562 766.669 353.4 767.7 354.975C769.294 357.431 764.7 360.862 760.687 363.075C756.675 365.287 750.187 368.7 749.925 373.237L777.3 386.869Z" fill="#F88D7A"/>
<path d="M539.925 438.375L539.625 438.262C539.194 439.875 538.463 443.531 537.75 447.919C535.763 458.85 533.269 474.337 533.269 474.337L497.419 484.95C505.819 463.894 514.069 448.931 522.188 424.05C520.485 424.249 518.766 423.859 517.316 422.945C515.866 422.03 514.773 420.647 514.219 419.025C512.138 412.537 519.581 405.544 526.181 413.081C526.181 413.081 532.181 395.25 527.025 387.675C527.025 387.675 539.644 383.925 548.325 393.3C562.313 408.75 564.656 448.125 539.925 438.375Z" fill="#C15D31"/>
<path d="M685.406 591.319C685.406 591.319 668.531 596.456 649.5 603.506C630.469 610.556 612.937 616.163 599.775 615.019C585.637 613.8 579 608.869 555.731 578.437C555.731 578.437 555.45 579.656 555.037 581.531C554.512 583.894 553.725 587.269 553.162 590.475H478.556C478.556 588.394 478.556 586.275 478.556 584.138C478.556 583.275 478.556 582.394 478.556 581.531C479.55 522.825 497.306 484.95 497.306 484.95C509.625 475.463 532.669 467.475 541.612 471.394C550.556 475.312 559.087 490.5 573.994 512.85C588.9 535.2 602.981 558.919 606.244 558.525C609.506 558.131 639.844 535.35 652.856 526.275C659.044 521.962 669.094 515.662 679.256 509.4C690.262 502.65 701.419 495.994 707.906 492.056L709.781 531.619C700.912 539.756 676.65 562.425 676.65 562.425C676.65 562.425 677.325 579.3 678.806 583.969C680.287 588.638 682.969 591.037 685.406 591.319Z" fill="#F88D7A"/>
<path d="M563.381 497.363C563.266 497.36 563.153 497.33 563.051 497.275C562.95 497.219 562.864 497.14 562.8 497.044C554.363 484.219 547.8 474.9 541.369 472.031C541.284 471.994 541.207 471.941 541.143 471.874C541.078 471.808 541.028 471.729 540.994 471.643C540.96 471.557 540.943 471.465 540.945 471.372C540.947 471.279 540.966 471.188 541.003 471.103C541.04 471.018 541.094 470.941 541.16 470.877C541.227 470.813 541.305 470.762 541.392 470.728C541.478 470.694 541.57 470.678 541.662 470.679C541.755 470.681 541.847 470.701 541.931 470.737C548.813 473.756 555.413 483.225 563.981 496.256C564.081 496.413 564.116 496.604 564.077 496.786C564.039 496.968 563.93 497.128 563.775 497.231C563.66 497.314 563.523 497.36 563.381 497.363V497.363Z" fill="black"/>
<path d="M796.237 524.644C796.519 526.519 792.187 528.038 786.225 526.519C780.262 525 757.894 513.525 757.087 513.525C759.688 516.426 762.449 519.181 765.356 521.775C769.556 525.525 770.644 533.025 762.637 536.588C761.996 537.643 761.105 538.524 760.042 539.152C758.979 539.78 757.777 540.135 756.544 540.188C756.544 540.188 757.087 544.819 746.512 545.231C735.937 545.644 732.694 545.231 732.562 543.188C732.431 541.144 741.937 538.988 747.562 537.769C747.562 537.769 741.469 531.675 740.381 530.719C739.294 529.763 728.869 523.819 725.062 523.219C721.256 522.619 717.075 525.244 712.462 529.313C707.85 533.381 676.744 562.5 676.744 562.5C675.75 546.9 677.681 524.325 679.294 509.475C690.544 502.594 701.794 495.825 708.3 491.906C720.637 484.406 727.95 482.7 737.719 488.156C747.487 493.613 772.406 510.525 781.2 515.269C789.994 520.013 795.975 522.75 796.237 524.644Z" fill="#C15D31"/>
<path d="M777.3 386.869C777.3 386.869 763.106 393.619 757.65 395.719C756.169 396.281 754.35 399.469 732.656 416.512C710.962 433.556 703.687 438.75 661.894 462.056C662.437 447.056 661.744 416.887 663.544 412.519C704.794 391.312 716.344 375.169 723.131 369.131C729.919 363.094 733.95 363.075 746.775 360.319C759.6 357.562 766.725 353.4 767.756 354.975C769.35 357.431 764.756 360.862 760.744 363.075C756.731 365.287 750.244 368.7 749.981 373.237L777.3 386.869Z" fill="#C15D31"/>
<path d="M752.756 358.856L784.106 381.263C781.693 384.048 778.706 386.281 775.35 387.806L736.069 369.056L752.756 358.856Z" fill="#C15D31"/>
<path d="M1198.5 200.1H901.969C895.745 200.1 890.7 205.145 890.7 211.369V434.456C890.7 440.68 895.745 445.725 901.969 445.725H1198.5C1204.72 445.725 1209.77 440.68 1209.77 434.456V211.369C1209.77 205.145 1204.72 200.1 1198.5 200.1Z" fill="white"/>
<path d="M1209.75 328.2H1139.61V400.669H1209.75V328.2Z" fill="#E4D0C0"/>
<path d="M1209.75 384.581H1139.61V400.65H1209.75V384.581Z" fill="#C4DEFD"/>
<path d="M1209.75 401.606H1139.62C1139.38 401.606 1139.14 401.507 1138.96 401.332C1138.79 401.156 1138.69 400.917 1138.69 400.669V384.6C1138.69 384.351 1138.79 384.113 1138.96 383.937C1139.14 383.761 1139.38 383.662 1139.62 383.662H1209.75C1210 383.662 1210.24 383.761 1210.41 383.937C1210.59 384.113 1210.69 384.351 1210.69 384.6V400.669C1210.69 400.917 1210.59 401.156 1210.41 401.332C1210.24 401.507 1210 401.606 1209.75 401.606ZM1140.54 399.731H1208.81V385.537H1140.54V399.731Z" fill="#E4D0C0"/>
<path d="M911.944 294.525C911.695 294.525 911.457 294.426 911.281 294.25C911.105 294.075 911.006 293.836 911.006 293.588V235.763C911.006 235.514 911.105 235.275 911.281 235.1C911.457 234.924 911.695 234.825 911.944 234.825C912.192 234.825 912.431 234.924 912.607 235.1C912.783 235.275 912.881 235.514 912.881 235.763V293.588C912.881 293.836 912.783 294.075 912.607 294.25C912.431 294.426 912.192 294.525 911.944 294.525Z" fill="#E4D0C0"/>
<path d="M930.244 296.25C929.995 296.25 929.757 296.151 929.581 295.975C929.405 295.8 929.306 295.561 929.306 295.313V235.763C929.306 235.514 929.405 235.275 929.581 235.1C929.757 234.924 929.995 234.825 930.244 234.825C930.492 234.825 930.731 234.924 930.907 235.1C931.082 235.275 931.181 235.514 931.181 235.763V295.238C931.192 295.367 931.175 295.497 931.133 295.619C931.09 295.742 931.023 295.854 930.935 295.949C930.846 296.045 930.74 296.12 930.621 296.172C930.502 296.224 930.373 296.25 930.244 296.25Z" fill="#E4D0C0"/>
<path d="M953.569 294.525C953.329 294.525 953.099 294.434 952.925 294.271C952.751 294.107 952.646 293.883 952.631 293.644L949.35 235.819C949.342 235.696 949.359 235.572 949.399 235.455C949.44 235.339 949.502 235.231 949.584 235.139C949.666 235.047 949.765 234.971 949.876 234.917C949.987 234.864 950.108 234.832 950.231 234.825C950.356 234.809 950.483 234.82 950.603 234.857C950.723 234.894 950.834 234.956 950.928 235.04C951.023 235.123 951.098 235.226 951.149 235.341C951.2 235.456 951.226 235.58 951.225 235.706L954.506 293.531C954.514 293.654 954.497 293.778 954.457 293.895C954.417 294.011 954.354 294.119 954.272 294.211C954.19 294.303 954.091 294.379 953.98 294.433C953.869 294.486 953.748 294.518 953.625 294.525H953.569Z" fill="#E4D0C0"/>
<path d="M972.056 293.531C971.808 293.531 971.569 293.432 971.393 293.257C971.217 293.081 971.119 292.842 971.119 292.594V235.763C971.119 235.514 971.217 235.275 971.393 235.1C971.569 234.924 971.808 234.825 972.056 234.825C972.305 234.825 972.543 234.924 972.719 235.1C972.895 235.275 972.994 235.514 972.994 235.763V292.594C972.994 292.842 972.895 293.081 972.719 293.257C972.543 293.432 972.305 293.531 972.056 293.531Z" fill="#E4D0C0"/>
<path d="M985.013 296.25C984.764 296.25 984.526 296.151 984.35 295.975C984.174 295.8 984.075 295.561 984.075 295.313V235.763C984.075 235.514 984.174 235.275 984.35 235.1C984.526 234.924 984.764 234.825 985.013 234.825C985.261 234.825 985.5 234.924 985.676 235.1C985.851 235.275 985.95 235.514 985.95 235.763V295.238C985.961 295.367 985.944 295.497 985.902 295.619C985.859 295.742 985.792 295.854 985.704 295.949C985.615 296.045 985.509 296.12 985.39 296.172C985.271 296.224 985.142 296.25 985.013 296.25Z" fill="#E4D0C0"/>
<path d="M980.006 356.1C979.758 356.1 979.519 356.001 979.343 355.825C979.168 355.65 979.069 355.411 979.069 355.163V293.588C979.069 293.339 979.168 293.1 979.343 292.925C979.519 292.749 979.758 292.65 980.006 292.65C980.255 292.65 980.493 292.749 980.669 292.925C980.845 293.1 980.944 293.339 980.944 293.588V355.181C980.939 355.427 980.838 355.66 980.663 355.832C980.487 356.004 980.252 356.1 980.006 356.1V356.1Z" fill="#E4D0C0"/>
<path d="M960.994 348C960.745 348 960.507 347.901 960.331 347.725C960.155 347.55 960.056 347.311 960.056 347.063V294.806C960.056 294.558 960.155 294.319 960.331 294.143C960.507 293.968 960.745 293.869 960.994 293.869C961.242 293.869 961.481 293.968 961.657 294.143C961.832 294.319 961.931 294.558 961.931 294.806V347.063C961.931 347.311 961.832 347.55 961.657 347.725C961.481 347.901 961.242 348 960.994 348Z" fill="#E4D0C0"/>
<path d="M938.55 355.181C938.427 355.179 938.305 355.152 938.192 355.103C938.08 355.053 937.978 354.982 937.892 354.893C937.807 354.805 937.74 354.7 937.695 354.585C937.65 354.47 937.629 354.348 937.631 354.225L939.187 293.569C939.187 293.32 939.286 293.082 939.462 292.906C939.638 292.73 939.876 292.631 940.125 292.631C940.373 292.631 940.612 292.73 940.788 292.906C940.964 293.082 941.062 293.32 941.062 293.569L939.506 354.225C939.509 354.351 939.486 354.477 939.438 354.594C939.391 354.711 939.321 354.818 939.232 354.907C939.142 354.996 939.036 355.066 938.919 355.114C938.802 355.161 938.676 355.184 938.55 355.181Z" fill="#E4D0C0"/>
<path d="M922.125 356.1C921.876 356.1 921.638 356.001 921.462 355.825C921.286 355.65 921.188 355.411 921.188 355.163V293.588C921.188 293.339 921.286 293.1 921.462 292.925C921.638 292.749 921.876 292.65 922.125 292.65C922.374 292.65 922.612 292.749 922.788 292.925C922.964 293.1 923.062 293.339 923.062 293.588V355.181C923.058 355.427 922.957 355.66 922.781 355.832C922.606 356.004 922.37 356.1 922.125 356.1V356.1Z" fill="#E4D0C0"/>
<path d="M902.606 354.112C902.361 354.113 902.125 354.016 901.95 353.845C901.774 353.673 901.673 353.439 901.669 353.194L900.975 296.006C900.972 295.883 900.994 295.761 901.039 295.646C901.084 295.531 901.151 295.427 901.236 295.338C901.321 295.249 901.423 295.178 901.536 295.128C901.649 295.079 901.77 295.052 901.894 295.05C902.137 295.063 902.367 295.162 902.543 295.331C902.719 295.5 902.828 295.726 902.85 295.969L903.544 353.156C903.546 353.279 903.524 353.402 903.479 353.516C903.435 353.631 903.368 353.736 903.282 353.825C903.197 353.913 903.095 353.985 902.982 354.034C902.869 354.083 902.748 354.11 902.625 354.112H902.606Z" fill="#E4D0C0"/>
<path d="M890.7 230.925V242.175H1001.63V287.944H890.7V299.194H1001.63V348.6H890.7V359.85H1001.63V409.256H890.7V420.506H1001.63V445.725H1012.88V230.925H890.7Z" fill="#E4D0C0"/>
<path d="M1131.3 274.388C1143.42 274.388 1153.24 264.566 1153.24 252.45C1153.24 240.334 1143.42 230.513 1131.3 230.513C1119.18 230.513 1109.36 240.334 1109.36 252.45C1109.36 264.566 1119.18 274.388 1131.3 274.388Z" fill="#C4DEFD"/>
<path d="M1145.36 253.125H1131.3C1131.12 253.128 1130.94 253.061 1130.81 252.937L1123.67 246.075C1123.58 246.016 1123.51 245.94 1123.46 245.851C1123.41 245.762 1123.37 245.663 1123.36 245.56C1123.35 245.457 1123.36 245.353 1123.4 245.255C1123.43 245.157 1123.49 245.068 1123.56 244.993C1123.63 244.919 1123.72 244.861 1123.81 244.823C1123.91 244.786 1124.01 244.77 1124.12 244.776C1124.22 244.783 1124.32 244.812 1124.41 244.861C1124.5 244.911 1124.58 244.979 1124.64 245.062L1131.58 251.719H1145.36C1145.53 251.746 1145.68 251.832 1145.79 251.961C1145.9 252.089 1145.96 252.253 1145.96 252.422C1145.96 252.591 1145.9 252.754 1145.79 252.883C1145.68 253.012 1145.53 253.098 1145.36 253.125V253.125Z" fill="black"/>
<path d="M1186.63 401.606C1186.38 401.606 1186.14 401.507 1185.97 401.332C1185.79 401.156 1185.69 400.917 1185.69 400.669V384.6C1185.69 384.351 1185.79 384.113 1185.97 383.937C1186.14 383.761 1186.38 383.662 1186.63 383.662C1186.88 383.662 1187.12 383.761 1187.29 383.937C1187.47 384.113 1187.57 384.351 1187.57 384.6V400.669C1187.57 400.917 1187.47 401.156 1187.29 401.332C1187.12 401.507 1186.88 401.606 1186.63 401.606Z" fill="#E4D0C0"/>
<path d="M1201.14 365.756C1191.09 365.756 1187.23 361.144 1185.77 357.937C1182.91 359.664 1179.62 360.564 1176.28 360.538C1172.94 360.511 1169.67 359.559 1166.83 357.787C1164.39 356.299 1162.32 354.264 1160.79 351.844C1159.92 352.331 1159.02 352.763 1158.09 353.137C1148.48 357.037 1133.34 352.594 1124.25 346.031C1124.17 345.979 1124.11 345.912 1124.06 345.834C1124.01 345.757 1123.98 345.67 1123.96 345.579C1123.95 345.488 1123.95 345.395 1123.97 345.306C1123.99 345.216 1124.03 345.131 1124.08 345.056C1124.19 344.907 1124.35 344.806 1124.53 344.775C1124.72 344.743 1124.9 344.784 1125.06 344.887C1133.66 351.094 1148.53 355.5 1157.55 351.825C1158.45 351.466 1159.33 351.046 1160.18 350.569C1159.71 349.485 1159.5 348.313 1159.54 347.136C1159.59 345.959 1159.89 344.807 1160.44 343.762C1161.66 341.437 1163.96 339.9 1165.37 340.444C1165.93 340.723 1166.39 341.164 1166.69 341.709C1167 342.254 1167.13 342.878 1167.08 343.5C1167.08 345.731 1165.69 348.637 1161.99 351.094C1163.41 353.349 1165.34 355.238 1167.62 356.606C1170.27 358.263 1173.33 359.141 1176.45 359.141C1179.57 359.141 1182.63 358.263 1185.28 356.606C1184.1 352.856 1184.93 348.919 1186.65 347.569C1187.04 347.234 1187.53 347.049 1188.05 347.049C1188.56 347.049 1189.06 347.234 1189.44 347.569C1191.54 349.275 1191.69 351.806 1189.8 354.375C1189.01 355.425 1188.05 356.343 1186.97 357.094L1187.08 357.356C1188.75 360.975 1193.91 366.581 1209.58 363.431C1209.67 363.412 1209.76 363.411 1209.85 363.428C1209.94 363.445 1210.03 363.48 1210.11 363.53C1210.18 363.581 1210.25 363.646 1210.3 363.723C1210.35 363.799 1210.39 363.885 1210.41 363.975C1210.43 364.065 1210.43 364.158 1210.41 364.248C1210.39 364.338 1210.36 364.424 1210.31 364.501C1210.26 364.578 1210.19 364.644 1210.11 364.695C1210.04 364.747 1209.95 364.782 1209.86 364.8C1206.99 365.404 1204.07 365.724 1201.14 365.756V365.756ZM1188.02 348.431C1187.84 348.436 1187.67 348.503 1187.53 348.619C1186.43 349.481 1185.66 352.519 1186.52 355.725C1187.34 355.106 1188.07 354.374 1188.69 353.55C1189.02 353.232 1189.28 352.848 1189.46 352.425C1189.63 352.001 1189.72 351.546 1189.7 351.088C1189.69 350.63 1189.59 350.179 1189.4 349.764C1189.2 349.349 1188.92 348.978 1188.58 348.675C1188.41 348.518 1188.19 348.43 1187.96 348.431H1188.02ZM1164.75 341.662C1164.08 341.859 1163.46 342.201 1162.93 342.664C1162.41 343.127 1161.99 343.701 1161.71 344.344C1161.29 345.17 1161.04 346.076 1160.99 347.004C1160.95 347.932 1161.09 348.859 1161.43 349.725C1164.54 347.587 1165.71 345.15 1165.71 343.425C1165.75 343.086 1165.69 342.742 1165.55 342.431C1165.41 342.121 1165.18 341.855 1164.9 341.662H1164.75Z" fill="black"/>
<path d="M880.012 439.575C886.256 439.838 892.987 438.375 889.931 419.625L867.3 408.75C867.3 408.75 867.862 439.069 880.012 439.575Z" fill="black"/>
<path d="M1132.56 415.969C1111.93 427.8 1091.96 401.475 1091.96 401.475L1110.11 451.669H1021.16L1010.25 418.237C1005.47 414.619 997.669 408.3 994.5 402.619C991.331 396.937 990.994 387.769 990.994 387.769C978.975 399.019 964.969 409.519 945.469 422.175C925.969 434.831 917.812 439.406 901.519 439.931C894.338 440.299 887.14 440.18 879.975 439.575C882.769 439.444 888.019 435.825 887.925 433.256C887.812 430.369 887.381 424.781 887.381 424.781C872.943 417.796 859.469 408.973 847.294 398.531C844.444 396.131 841.687 393.7 839.025 391.238C826.94 379.969 815.779 367.749 805.65 354.694C805.65 354.694 791.231 335.625 796.275 331.575C801.319 327.525 824.4 320.325 824.4 320.325C830.831 321.3 833.062 323.456 847.2 336.713C850.012 339.338 852.956 342.225 856.012 345.206C858.262 347.4 860.55 349.65 862.912 351.919C865.275 354.188 867.506 356.306 869.869 358.481C878.625 366.544 887.906 374.175 897.281 379.106C913.234 372.333 928.588 364.23 943.181 354.881C957.694 345.188 976.931 331.669 995.681 322.856C1003.47 319.603 1011.52 317.037 1019.76 315.188C1033.03 311.752 1046.87 311.158 1060.39 313.444C1067.51 314.794 1072.99 317.006 1076.08 319.481C1077.26 320.438 1080.73 323.606 1083.92 326.55C1084.65 327.206 1085.34 327.863 1086 328.425L1090.14 332.269C1089.56 330.3 1089.02 328.519 1088.49 326.644L1088.04 325.163C1087.07 321.919 1086.17 319.069 1085.42 316.556C1078.99 295.819 1078.65 297.806 1077 294.694C1075.38 291.632 1072.84 289.153 1069.74 287.606C1067.23 286.131 1064.47 285.103 1061.61 284.569C1060.49 284.281 1059.52 283.598 1058.87 282.645C1058.22 281.693 1057.94 280.537 1058.08 279.394C1057.61 279.183 1057.19 278.864 1056.86 278.462C1056.54 278.059 1056.31 277.585 1056.2 277.079C1056.1 276.572 1056.11 276.047 1056.24 275.547C1056.38 275.047 1056.63 274.585 1056.97 274.2C1056.39 273.992 1055.88 273.636 1055.48 273.167C1055.08 272.699 1054.8 272.133 1054.69 271.527C1054.57 270.921 1054.62 270.295 1054.82 269.712C1055.02 269.128 1055.37 268.607 1055.83 268.2C1053.54 265.181 1059.81 259.556 1069.59 257.55C1081.95 255.038 1085.94 257.175 1095.09 269.831C1100.72 277.575 1105.48 287.588 1111.97 302.606L1115.02 309.656L1118.25 317.156C1120.95 323.381 1123.87 330.281 1127.32 338.025C1144.03 375.919 1153.16 404.138 1132.56 415.969Z" fill="#5B77C9"/>
<path d="M1073.77 338.081C1071.63 338.133 1069.51 337.645 1067.61 336.662C1065.71 335.679 1064.08 334.233 1062.88 332.456C1062.68 332.191 1062.49 331.915 1062.32 331.631C1060.73 332.232 1058.98 332.232 1057.39 331.631C1051.56 329.381 1053.39 320.25 1055.51 309.675C1055.78 308.419 1056.02 307.125 1056.28 305.831C1056.34 305.668 1056.45 305.529 1056.6 305.442C1056.75 305.355 1056.92 305.324 1057.09 305.356C1057.26 305.388 1057.41 305.481 1057.52 305.616C1057.62 305.752 1057.68 305.922 1057.67 306.094C1057.42 307.388 1057.16 308.681 1056.9 309.956C1054.89 319.894 1053.15 328.481 1057.89 330.319C1059.11 330.748 1060.43 330.748 1061.64 330.319C1060.24 327.206 1060.54 323.85 1062.04 322.388C1062.27 322.152 1062.55 321.966 1062.86 321.838C1063.17 321.711 1063.5 321.645 1063.83 321.645C1064.16 321.645 1064.49 321.711 1064.8 321.838C1065.1 321.966 1065.38 322.152 1065.62 322.388C1066.45 323.071 1066.99 324.046 1067.14 325.114C1067.28 326.183 1067.01 327.265 1066.39 328.144C1065.71 329.287 1064.75 330.236 1063.59 330.9L1063.99 331.462C1067.32 335.794 1072.69 339.356 1087.16 332.887C1087.33 332.831 1087.51 332.839 1087.68 332.91C1087.84 332.98 1087.97 333.109 1088.04 333.271C1088.11 333.432 1088.12 333.615 1088.07 333.783C1088.01 333.952 1087.9 334.093 1087.74 334.181C1083.41 336.434 1078.65 337.762 1073.77 338.081V338.081ZM1063.69 323.231C1063.56 323.233 1063.44 323.26 1063.32 323.312C1063.2 323.364 1063.1 323.438 1063.01 323.531C1062.04 324.488 1061.7 327.281 1062.92 329.888C1063.85 329.347 1064.62 328.579 1065.17 327.656C1065.6 327.062 1065.8 326.327 1065.72 325.594C1065.64 324.862 1065.29 324.186 1064.74 323.7C1064.45 323.427 1064.08 323.261 1063.69 323.231V323.231Z" fill="black"/>
<path d="M1076.74 260.925C1078.78 248.794 1070.12 245.55 1064.16 246.338C1057.54 247.219 1057.16 259.463 1058.53 264.394C1058.53 264.394 1065.26 268.144 1064.04 278.531C1062.82 288.919 1060.84 291.881 1053.77 291.45C1049.53 291.206 1046.57 305.869 1050.21 307.669C1053.84 309.469 1066.31 309.75 1068.52 302.044C1070.94 293.606 1076.74 260.925 1076.74 260.925Z" fill="#EA4338"/>
<path d="M887.419 424.781C872.981 417.796 859.506 408.973 847.331 398.531C844.481 396.131 841.725 393.7 839.062 391.238C844.688 375.956 851.681 356.831 855.938 345.263C858.188 347.456 860.475 349.706 862.837 351.975C865.2 354.244 867.431 356.363 869.794 358.538C877.808 379.993 883.711 402.18 887.419 424.781V424.781Z" fill="#8EBF8C"/>
<path d="M847.331 398.475C831.992 385.321 818.038 370.632 805.688 354.637C805.688 354.637 791.269 335.569 796.313 331.519C801.356 327.469 824.438 320.269 824.438 320.269C830.869 321.244 833.1 323.4 847.238 336.656C852.094 341.212 857.381 346.5 862.95 351.862C863.794 368.306 859.406 378.919 847.331 398.475Z" fill="#F88D7A"/>
<path d="M849 350.625C827.194 363.956 781.725 389.194 781.725 389.194L777.225 386.925L766.088 381.3L750 373.125C750.356 368.606 756.544 365.4 760.744 363.075C764.944 360.75 769.35 357.45 767.756 354.975C766.725 353.4 759.6 357.581 746.775 360.319C741.608 361.205 736.499 362.401 731.475 363.9C713.513 355.088 695.081 346.444 677.1 339.169C702.338 323.888 728.325 315.281 745.406 306.244C793.031 328.819 849 350.625 849 350.625Z" fill="white"/>
<path d="M1118.34 317.288C1115.57 322.519 1108.76 331.613 1092.73 340.744C1090.86 341.794 1088.98 342.825 1086.86 343.875C1074.96 349.838 1074.98 336.863 1086 328.519C1086.8 327.905 1087.63 327.336 1088.49 326.813C1087.33 322.95 1086.32 319.613 1085.42 316.725C1094.89 313.311 1103.86 308.618 1112.06 302.775C1113.97 307.163 1116.06 311.963 1118.34 317.288Z" fill="#8EBF8C"/>
<path d="M1115.12 309.825C1106.49 318.412 1094.61 323.156 1088.04 325.331C1087.07 322.087 1086.17 319.237 1085.42 316.725C1078.99 295.987 1078.65 297.975 1077 294.862C1075.38 291.8 1072.84 289.322 1069.74 287.775C1067.23 286.299 1064.47 285.272 1061.61 284.737C1060.49 284.45 1059.52 283.766 1058.87 282.814C1058.22 281.862 1057.94 280.706 1058.08 279.562C1057.61 279.352 1057.19 279.033 1056.86 278.63C1056.54 278.228 1056.31 277.754 1056.2 277.248C1056.1 276.741 1056.11 276.216 1056.24 275.716C1056.38 275.215 1056.63 274.754 1056.97 274.369C1056.39 274.161 1055.88 273.805 1055.48 273.336C1055.08 272.867 1054.8 272.302 1054.69 271.696C1054.57 271.09 1054.62 270.464 1054.82 269.88C1055.02 269.297 1055.37 268.776 1055.83 268.369C1053.54 265.35 1059.81 259.725 1069.59 257.719C1081.95 255.206 1085.94 257.344 1095.09 270C1100.72 277.744 1105.48 287.756 1111.97 302.775L1115.12 309.825Z" fill="#F88D7A"/>
<path d="M1038.06 300.881L1022.7 307.5C1022.51 306.938 1022.32 306.356 1022.16 305.625C1021.15 301.471 1020.52 297.235 1020.28 292.969C1020 288.694 1020.02 285.469 1020.02 285.469L1038.92 280.275C1037.91 282.319 1037.49 294.375 1038.06 300.881Z" fill="#F88D7A"/>
<path d="M1032.43 291.788C1032.66 300.188 1024.8 304.481 1022.16 305.681C1021.15 301.528 1020.52 297.292 1020.28 293.025C1024.99 289.444 1032.24 285 1032.43 291.788Z" fill="black"/>
<path d="M1027.56 363.075C1040.98 322.519 1042.69 312.131 1042.69 312.131C1039.09 310.144 1038.06 300.881 1038.06 300.881C1031.27 300.94 1024.58 302.442 1018.42 305.287C1018.81 308.498 1019.44 311.676 1020.3 314.794C1018.69 316.725 1017.75 323.812 1027.56 363.075Z" fill="#8EBF8C"/>
<path d="M1033.2 247.2C1026.02 244.987 1023.53 239.925 1025.49 233.925C1027.37 228.3 1035.92 225.187 1043.36 229.875C1057.12 238.5 1043.1 250.256 1033.2 247.2Z" fill="#FFC36C"/>
<path d="M1050.51 272.962C1050.38 273.917 1050.05 274.833 1049.54 275.648C1049.02 276.462 1048.34 277.156 1047.53 277.681C1046.72 278.207 1045.81 278.551 1044.86 278.692C1043.91 278.832 1042.94 278.764 1042.01 278.494C1042.01 278.494 1036.72 298.369 1020.88 298.744C1005.04 299.119 1006.5 278.006 1008.37 268.369C1009.31 263.287 1011.22 258.435 1014 254.081C1017.75 248.456 1023.75 244.256 1032.43 246.225C1044.23 248.887 1046.34 260.1 1045.56 267.525C1045.48 267.525 1051.16 267.675 1050.51 272.962Z" fill="#F88D7A"/>
<path d="M545.913 408.914C546.528 408.615 546.605 407.505 546.085 406.434C545.565 405.363 544.645 404.736 544.03 405.035C543.415 405.333 543.338 406.444 543.858 407.515C544.379 408.586 545.299 409.213 545.913 408.914Z" fill="black"/>
<path d="M379.969 734.004C380.583 733.705 380.66 732.595 380.14 731.524C379.62 730.452 378.7 729.826 378.085 730.125C377.47 730.423 377.393 731.534 377.914 732.605C378.434 733.676 379.354 734.302 379.969 734.004Z" fill="black"/>
<path d="M1025.41 268.93C1025.61 267.755 1025.22 266.711 1024.55 266.598C1023.87 266.485 1023.17 267.345 1022.97 268.519C1022.77 269.693 1023.16 270.737 1023.83 270.851C1024.51 270.964 1025.21 270.104 1025.41 268.93Z" fill="black"/>
<path d="M1013.25 268.93C1013.45 267.756 1013.06 266.712 1012.39 266.598C1011.71 266.485 1011.01 267.345 1010.81 268.519C1010.61 269.694 1011 270.738 1011.67 270.851C1012.35 270.964 1013.05 270.104 1013.25 268.93Z" fill="black"/>
<path d="M1151.66 797.494C1123.91 807.169 1104.38 745.556 1113.21 713.569C1113.67 711.878 1114.24 710.219 1114.91 708.6C1116.47 704.638 1119.06 701.166 1122.41 698.55C1132.16 691.331 1151.89 722.212 1159.91 751.519L1160.31 752.981C1165.71 773.419 1165.28 792.75 1151.66 797.494Z" fill="#8EBF8C"/>
<path d="M1170.41 872.175C1170.26 872.177 1170.11 872.128 1169.99 872.036C1169.87 871.945 1169.78 871.816 1169.74 871.669C1169.47 870.788 1143.37 782.756 1135.69 755.419C1135.67 755.253 1135.72 755.087 1135.81 754.951C1135.91 754.814 1136.05 754.715 1136.21 754.67C1136.37 754.625 1136.54 754.638 1136.69 754.707C1136.84 754.775 1136.96 754.894 1137.04 755.044C1144.71 782.381 1170.79 870.413 1171.07 871.294C1171.1 871.382 1171.11 871.476 1171.1 871.569C1171.09 871.661 1171.06 871.752 1171.02 871.834C1170.98 871.916 1170.92 871.989 1170.85 872.047C1170.77 872.106 1170.69 872.149 1170.6 872.175H1170.41Z" fill="black"/>
<path d="M1160.25 752.981C1142.23 760.2 1125.68 731.381 1114.86 708.6C1116.41 704.638 1119 701.166 1122.36 698.55C1132.11 691.331 1151.83 722.212 1159.86 751.519L1160.25 752.981Z" fill="black"/>
<path d="M1193.14 882.3C1192.96 882.3 1192.78 882.23 1192.65 882.103C1192.52 881.977 1192.45 881.806 1192.44 881.625C1192.44 880.613 1187.29 780.187 1188.52 727.594C1188.52 727.499 1188.53 727.405 1188.57 727.317C1188.6 727.229 1188.65 727.149 1188.72 727.084C1188.79 727.018 1188.87 726.967 1188.96 726.936C1189.05 726.904 1189.14 726.892 1189.24 726.9C1189.42 726.905 1189.6 726.982 1189.73 727.115C1189.86 727.248 1189.93 727.427 1189.93 727.612C1188.69 780.112 1193.79 880.519 1193.85 881.531C1193.85 881.717 1193.79 881.898 1193.66 882.034C1193.54 882.171 1193.36 882.253 1193.17 882.263L1193.14 882.3Z" fill="black"/>
<path d="M1155.34 758.081C1175.7 749.681 1163.89 582.919 1133.72 587.831C1096.16 593.963 1124.98 770.625 1155.34 758.081Z" fill="#8EBF8C"/>
<path d="M1220.94 813.956L1220.7 813.806C1216.71 811.5 1214.61 806.944 1214.06 801.038C1211.61 774.581 1239.96 720.806 1265.85 717.563C1270.04 717.009 1274.29 717.931 1277.87 720.169C1279.62 721.251 1281.22 722.549 1282.65 724.031C1304.19 746.063 1241.79 825.394 1220.94 813.956Z" fill="#8EBF8C"/>
<path d="M1265.85 717.562C1232.44 740.681 1224.6 779.175 1214.06 801.037C1211.61 774.581 1239.96 720.806 1265.85 717.562Z" fill="black"/>
<path d="M1204.84 850.706H1204.61C1204.44 850.643 1204.29 850.513 1204.21 850.344C1204.13 850.176 1204.12 849.983 1204.18 849.806C1219.18 806.456 1247.48 762.75 1254.38 754.781C1254.43 754.694 1254.5 754.621 1254.59 754.565C1254.67 754.508 1254.77 754.472 1254.87 754.456C1254.97 754.441 1255.08 754.448 1255.18 754.476C1255.27 754.504 1255.36 754.554 1255.44 754.621C1255.52 754.687 1255.58 754.77 1255.63 754.863C1255.67 754.956 1255.69 755.057 1255.69 755.16C1255.69 755.262 1255.67 755.364 1255.63 755.457C1255.58 755.55 1255.52 755.633 1255.44 755.7C1248.58 763.612 1220.53 807.094 1205.51 850.256C1205.46 850.393 1205.37 850.509 1205.25 850.59C1205.13 850.671 1204.98 850.712 1204.84 850.706V850.706Z" fill="black"/>
<path d="M1231.82 512.081C1230.74 522.731 1229.36 534.137 1227.66 546.3C1219.41 604.837 1212.41 640.856 1206.04 662.437C1198.65 687.525 1192.09 693.112 1185.41 691.912C1182.77 691.425 1180.22 688.781 1177.91 684.412C1165.11 660.581 1157.02 585.281 1165.24 518.25C1174.16 445.5 1202.57 412.256 1221.21 419.175C1221.78 419.383 1222.32 419.653 1222.84 419.981C1234.12 426.881 1236.94 460.125 1231.82 512.081Z" fill="#4B764A"/>
<path d="M1191.36 680.85C1191.18 680.846 1191.02 680.78 1190.89 680.662C1190.76 680.545 1190.68 680.385 1190.66 680.212C1184.48 615.956 1192.01 513 1206.17 468.337C1206.2 468.25 1206.24 468.169 1206.3 468.099C1206.36 468.029 1206.43 467.972 1206.52 467.93C1206.6 467.888 1206.69 467.863 1206.78 467.856C1206.87 467.848 1206.96 467.859 1207.05 467.887C1207.14 467.916 1207.22 467.961 1207.29 468.021C1207.36 468.08 1207.42 468.153 1207.46 468.235C1207.5 468.317 1207.52 468.406 1207.53 468.498C1207.54 468.589 1207.53 468.681 1207.5 468.769C1193.38 513.262 1185.88 615.937 1192.05 680.044C1192.06 680.136 1192.05 680.23 1192.03 680.319C1192 680.409 1191.95 680.492 1191.89 680.563C1191.84 680.635 1191.76 680.694 1191.68 680.737C1191.6 680.78 1191.51 680.805 1191.41 680.812L1191.36 680.85Z" fill="black"/>
<path d="M1231.82 512.081C1230.74 522.731 1229.36 534.137 1227.66 546.3C1219.41 604.837 1212.41 640.856 1206.04 662.438L1193.18 661.725C1192.58 611.419 1198.69 548.887 1231.82 512.081Z" fill="black"/>
<path d="M1213.07 788.794C1207.95 793.819 1203.36 794.981 1199.44 792.919C1188.68 787.294 1182.81 757.688 1184.01 717.919C1186.63 630.581 1212.52 550.088 1239.6 537.094C1241.96 535.849 1244.6 535.219 1247.27 535.262C1249.94 535.304 1252.56 536.018 1254.88 537.338C1272.75 547.088 1261.2 741.525 1213.07 788.794Z" fill="#4B764A"/>
<path d="M1201.28 867.638C1201.1 867.633 1200.92 867.561 1200.8 867.436C1200.67 867.311 1200.59 867.142 1200.58 866.963C1197.38 756.638 1222.67 596.963 1234.33 563.363C1234.39 563.186 1234.52 563.041 1234.69 562.96C1234.86 562.88 1235.05 562.869 1235.23 562.931C1235.41 562.993 1235.55 563.123 1235.63 563.292C1235.71 563.461 1235.72 563.655 1235.66 563.831C1223.94 597.356 1198.72 756.731 1201.91 866.925C1201.92 867.111 1201.85 867.291 1201.72 867.428C1201.6 867.565 1201.42 867.647 1201.24 867.656L1201.28 867.638Z" fill="black"/>
<path d="M1182.75 880.35C1182.59 880.349 1182.43 880.293 1182.3 880.191C1182.18 880.089 1182.09 879.946 1182.06 879.787C1181.72 878.194 1148.14 718.538 1135.67 629.063C1135.66 628.971 1135.66 628.878 1135.68 628.789C1135.71 628.7 1135.75 628.616 1135.8 628.543C1135.86 628.47 1135.93 628.408 1136.01 628.362C1136.09 628.316 1136.18 628.286 1136.27 628.275C1136.36 628.259 1136.45 628.262 1136.54 628.284C1136.63 628.306 1136.72 628.347 1136.79 628.403C1136.87 628.459 1136.93 628.53 1136.97 628.612C1137.02 628.693 1137.05 628.782 1137.06 628.875C1149.51 718.35 1183.09 877.894 1183.42 879.506C1183.46 879.687 1183.42 879.875 1183.32 880.028C1183.22 880.182 1183.06 880.291 1182.88 880.331L1182.75 880.35Z" fill="black"/>
<path d="M1116.26 839.569H1261.2L1226.76 1017.52H1149.32L1116.26 839.569Z" fill="#E4D0C0"/>
<path d="M1249.57 900.544H1249.33C1248.67 900.356 1183.86 882.675 1124.08 882.562C1123.83 882.562 1123.59 882.464 1123.42 882.288C1123.24 882.112 1123.14 881.874 1123.14 881.625C1123.14 881.376 1123.24 881.138 1123.42 880.962C1123.59 880.786 1123.83 880.688 1124.08 880.688C1184.08 880.8 1249.18 898.556 1249.84 898.725C1250.09 898.757 1250.31 898.887 1250.46 899.086C1250.62 899.284 1250.69 899.536 1250.65 899.784C1250.62 900.033 1250.49 900.259 1250.29 900.412C1250.09 900.565 1249.84 900.632 1249.59 900.6L1249.57 900.544Z" fill="#C4DEFD"/>
<path d="M1141.63 923.906C1138.07 923.906 1134.73 923.906 1131.69 923.7C1131.57 923.695 1131.45 923.666 1131.34 923.614C1131.23 923.563 1131.13 923.49 1131.04 923.399C1130.96 923.309 1130.89 923.202 1130.85 923.087C1130.81 922.971 1130.79 922.848 1130.79 922.725C1130.8 922.601 1130.82 922.479 1130.87 922.366C1130.92 922.253 1131 922.151 1131.09 922.067C1131.18 921.983 1131.29 921.918 1131.4 921.876C1131.52 921.835 1131.65 921.817 1131.77 921.825C1167.6 923.456 1245.62 914.569 1246.41 914.475C1246.65 914.453 1246.9 914.527 1247.09 914.681C1247.28 914.834 1247.4 915.056 1247.44 915.3C1247.46 915.546 1247.39 915.792 1247.24 915.986C1247.08 916.179 1246.86 916.303 1246.61 916.331C1245.9 916.425 1180.29 923.906 1141.63 923.906Z" fill="#C4DEFD"/>
<path d="M1228.54 943.594C1189.33 943.594 1134.11 934.219 1133.49 934.087C1133.25 934.045 1133.02 933.906 1132.88 933.7C1132.73 933.494 1132.67 933.239 1132.72 932.991C1132.76 932.742 1132.9 932.52 1133.1 932.374C1133.31 932.228 1133.56 932.17 1133.81 932.212C1134.51 932.325 1202.94 943.987 1241.25 941.287C1241.37 941.279 1241.5 941.295 1241.61 941.334C1241.73 941.373 1241.84 941.435 1241.93 941.516C1242.03 941.597 1242.1 941.695 1242.16 941.806C1242.21 941.916 1242.24 942.036 1242.25 942.159C1242.26 942.282 1242.25 942.406 1242.21 942.523C1242.17 942.64 1242.11 942.748 1242.02 942.841C1241.94 942.935 1241.85 943.011 1241.73 943.066C1241.62 943.121 1241.5 943.154 1241.38 943.162C1237.39 943.481 1233.07 943.594 1228.54 943.594Z" fill="#C4DEFD"/>
<path d="M773.681 171.075C773.499 171.07 773.325 170.996 773.196 170.867C773.067 170.737 772.992 170.564 772.987 170.381V28.725C773.015 28.5582 773.1 28.4066 773.229 28.2972C773.358 28.1878 773.521 28.1277 773.69 28.1277C773.859 28.1277 774.023 28.1878 774.152 28.2972C774.281 28.4066 774.366 28.5582 774.394 28.725V170.381C774.389 170.567 774.311 170.743 774.178 170.873C774.045 171.003 773.867 171.075 773.681 171.075V171.075Z" fill="black"/>
<path d="M773.681 210.487C782.162 210.487 789.038 206.71 789.038 202.05C789.038 197.39 782.162 193.612 773.681 193.612C765.2 193.612 758.325 197.39 758.325 202.05C758.325 206.71 765.2 210.487 773.681 210.487Z" fill="white"/>
<path d="M816.619 183.225C789.244 176.006 778.762 170.513 773.681 162.431C768.6 170.494 758.119 175.988 730.744 183.225C702.375 190.725 698.419 201.975 698.344 201.975H849C849 201.975 844.969 190.706 816.619 183.225Z" fill="#F09400"/>
<path d="M588.9 1002.49C564.769 997.444 555.525 993.6 551.044 987.956C546.562 993.581 537.319 997.444 513.187 1002.49C488.175 1007.72 484.669 1015.61 484.612 1015.61H617.475C617.475 1015.61 613.912 1007.72 588.9 1002.49Z" fill="#E4D0C0"/>
<path d="M788.625 332.006C790.143 335.756 804.468 333.056 814.987 332.531C814.987 332.531 829.087 321.281 825.581 320.531C821.419 319.845 817.161 319.991 813.056 320.962C812.006 321.469 802.462 324.562 795.356 326.4C791.231 327.469 787.556 329.344 788.625 332.006Z" fill="#F88D7A"/>
<path d="M795.45 334.669C791.512 334.669 788.7 334.106 787.95 332.287C787.901 332.199 787.871 332.101 787.863 332C787.854 331.9 787.868 331.798 787.902 331.703C787.935 331.608 787.989 331.52 788.059 331.448C788.129 331.375 788.214 331.318 788.308 331.28C788.402 331.242 788.503 331.225 788.604 331.23C788.705 331.234 788.804 331.26 788.894 331.306C788.985 331.351 789.064 331.416 789.128 331.494C789.191 331.573 789.237 331.665 789.263 331.762C790.181 334.05 799.144 333.206 806.344 332.531C809.231 332.269 812.231 331.987 814.931 331.837C815.117 331.832 815.298 331.9 815.434 332.026C815.571 332.152 815.653 332.327 815.662 332.512C815.668 332.698 815.6 332.879 815.474 333.015C815.348 333.152 815.173 333.234 814.987 333.244C812.306 333.375 809.362 333.656 806.456 333.919C802.425 334.294 798.581 334.669 795.45 334.669Z" fill="black"/>
<path d="M821.269 340.162C821.159 340.163 821.052 340.138 820.954 340.089C820.856 340.04 820.771 339.969 820.706 339.881C819.062 337.406 817.088 335.166 814.837 333.225C814.657 333.176 814.502 333.059 814.408 332.897C814.313 332.736 814.285 332.544 814.331 332.362C814.376 332.187 814.487 332.036 814.641 331.942C814.795 331.847 814.98 331.816 815.156 331.856C816.656 332.212 820.331 336.994 821.831 339.037C821.886 339.111 821.925 339.195 821.947 339.284C821.97 339.373 821.974 339.466 821.96 339.556C821.946 339.647 821.914 339.734 821.866 339.812C821.818 339.891 821.755 339.959 821.681 340.012C821.564 340.106 821.419 340.158 821.269 340.162V340.162Z" fill="black"/>
<path d="M907.519 386.044C907.394 386.044 907.271 386.012 907.162 385.95L896.888 379.744C896.76 379.633 896.676 379.482 896.65 379.315C896.624 379.149 896.658 378.978 896.746 378.835C896.833 378.691 896.969 378.583 897.129 378.529C897.289 378.476 897.462 378.481 897.619 378.544L907.894 384.75C908.022 384.832 908.12 384.952 908.175 385.094C908.23 385.235 908.238 385.391 908.198 385.537C908.158 385.684 908.073 385.814 907.954 385.908C907.835 386.003 907.689 386.057 907.538 386.063L907.519 386.044Z" fill="black"/>
<path d="M991.031 388.481C990.846 388.472 990.671 388.39 990.545 388.253C990.419 388.116 990.351 387.936 990.356 387.75C991.05 371.381 990.356 368.288 990.356 368.175C990.34 368.005 990.385 367.834 990.484 367.695C990.583 367.556 990.729 367.456 990.895 367.415C991.061 367.375 991.236 367.395 991.388 367.472C991.541 367.55 991.66 367.679 991.725 367.837C991.725 367.969 992.456 371.025 991.725 387.806C991.716 387.985 991.639 388.155 991.51 388.28C991.382 388.405 991.211 388.477 991.031 388.481V388.481Z" fill="black"/>
<path d="M1028.08 381.15C1029.57 381.15 1030.78 379.941 1030.78 378.45C1030.78 376.959 1029.57 375.75 1028.08 375.75C1026.59 375.75 1025.38 376.959 1025.38 378.45C1025.38 379.941 1026.59 381.15 1028.08 381.15Z" fill="white"/>
<path d="M1029.21 394.087C1030.7 394.087 1031.91 392.879 1031.91 391.388C1031.91 389.896 1030.7 388.688 1029.21 388.688C1027.72 388.688 1026.51 389.896 1026.51 391.388C1026.51 392.879 1027.72 394.087 1029.21 394.087Z" fill="white"/>
<path d="M1092.75 340.744C1090.87 341.794 1089 342.825 1086.88 343.875C1074.97 349.837 1074.99 336.863 1086.02 328.519C1086.82 327.905 1087.65 327.335 1088.51 326.812L1092.75 340.744Z" fill="black"/>
<path d="M1100.61 389.4C1100.47 389.403 1100.33 389.363 1100.21 389.286C1100.09 389.209 1100 389.099 1099.95 388.969C1098.54 385.556 1093.87 376.163 1088.92 366.225C1085.17 358.725 1081.42 351.019 1078.39 344.813C1078.35 344.729 1078.33 344.638 1078.32 344.546C1078.32 344.453 1078.33 344.361 1078.36 344.274C1078.39 344.187 1078.44 344.107 1078.5 344.038C1078.57 343.97 1078.64 343.914 1078.72 343.875C1078.81 343.836 1078.9 343.813 1078.99 343.809C1079.08 343.804 1079.18 343.818 1079.26 343.85C1079.35 343.881 1079.43 343.929 1079.5 343.991C1079.57 344.054 1079.62 344.129 1079.66 344.213C1082.62 350.419 1086.49 358.144 1090.2 365.606C1095.17 375.563 1099.84 384.975 1101.26 388.444C1101.3 388.529 1101.32 388.62 1101.32 388.712C1101.32 388.805 1101.3 388.896 1101.27 388.982C1101.23 389.068 1101.18 389.145 1101.12 389.211C1101.05 389.276 1100.97 389.328 1100.89 389.363C1100.8 389.394 1100.7 389.407 1100.61 389.4V389.4Z" fill="black"/>
<path d="M1018.05 282.525C1020.59 281.739 1023.04 280.69 1025.36 279.394C1025.36 279.394 1026.36 285.019 1022.85 286.444C1019.34 287.869 1018.31 284.625 1018.05 282.525Z" fill="white"/>
<path d="M1041.54 274.556C1041.38 274.545 1041.23 274.481 1041.11 274.373C1040.99 274.264 1040.92 274.119 1040.89 273.961C1040.86 273.803 1040.89 273.64 1040.97 273.5C1041.05 273.359 1041.17 273.249 1041.32 273.188L1046.7 271.313C1046.79 271.264 1046.89 271.235 1047 271.229C1047.1 271.223 1047.2 271.24 1047.3 271.278C1047.4 271.316 1047.48 271.374 1047.55 271.449C1047.62 271.524 1047.68 271.614 1047.71 271.712C1047.75 271.81 1047.76 271.914 1047.75 272.017C1047.73 272.12 1047.7 272.22 1047.65 272.308C1047.59 272.397 1047.52 272.473 1047.44 272.531C1047.35 272.589 1047.25 272.627 1047.15 272.644L1041.77 274.519L1041.54 274.556Z" fill="black"/>
<path d="M1016.25 279.919H1016.06C1015.35 279.825 1014.66 279.58 1014.05 279.202C1013.43 278.824 1012.91 278.321 1012.5 277.725C1012.25 277.062 1012.14 276.352 1012.18 275.643C1012.23 274.934 1012.43 274.244 1012.76 273.619C1014.03 270.748 1014.67 267.642 1014.64 264.506C1014.62 264.213 1014.52 263.93 1014.36 263.686C1014.19 263.443 1013.96 263.247 1013.7 263.119C1013.1 262.899 1012.45 262.832 1011.82 262.923C1011.18 263.015 1010.58 263.262 1010.06 263.644C1009.91 263.706 1009.73 263.711 1009.57 263.658C1009.41 263.605 1009.28 263.497 1009.19 263.353C1009.1 263.209 1009.07 263.039 1009.09 262.872C1009.12 262.706 1009.2 262.554 1009.33 262.444C1010.05 261.931 1010.88 261.609 1011.76 261.508C1012.64 261.406 1013.52 261.528 1014.34 261.862C1014.82 262.098 1015.22 262.453 1015.52 262.893C1015.82 263.334 1016 263.844 1016.04 264.375C1016.12 267.721 1015.48 271.045 1014.17 274.125C1013.92 274.568 1013.76 275.058 1013.71 275.564C1013.65 276.07 1013.7 276.582 1013.85 277.069C1014.17 277.687 1014.96 278.137 1016.51 278.531C1016.7 278.556 1016.86 278.653 1016.98 278.801C1017.09 278.948 1017.14 279.135 1017.11 279.319C1017.09 279.503 1016.99 279.669 1016.84 279.782C1016.7 279.894 1016.51 279.944 1016.33 279.919H1016.25Z" fill="black"/>
<path d="M1030.56 264C1030.44 264.03 1030.32 264.03 1030.2 264C1028.14 262.941 1025.75 262.675 1023.51 263.25C1023.41 263.295 1023.31 263.318 1023.21 263.32C1023.1 263.321 1023 263.3 1022.91 263.258C1022.81 263.216 1022.73 263.153 1022.66 263.076C1022.59 262.998 1022.54 262.906 1022.51 262.807C1022.49 262.708 1022.48 262.603 1022.49 262.501C1022.51 262.399 1022.55 262.301 1022.6 262.215C1022.66 262.129 1022.74 262.056 1022.82 262.002C1022.91 261.947 1023.01 261.913 1023.11 261.9C1025.72 261.206 1028.5 261.521 1030.89 262.781C1031.02 262.863 1031.12 262.983 1031.17 263.125C1031.23 263.267 1031.24 263.422 1031.2 263.568C1031.16 263.715 1031.07 263.845 1030.95 263.939C1030.84 264.034 1030.69 264.088 1030.54 264.094L1030.56 264Z" fill="black"/>
<path d="M1045.48 267.525C1033.48 272.231 1030.48 258.15 1035.79 253.519C1032.48 254.263 1029.32 255.529 1026.41 257.269C1022.31 259.35 1016.31 259.556 1013.91 254.006C1017.66 248.381 1023.66 244.181 1032.34 246.15C1044.13 248.888 1046.25 260.1 1045.48 267.525Z" fill="#FFC36C"/>
<path d="M555.037 581.531C555.037 581.831 554.906 582.15 554.831 582.469C554.681 583.106 554.512 583.819 554.362 584.55L553.837 586.856L553.387 588.956C553.2 589.875 552.994 590.831 552.825 591.656C552.656 592.481 552.581 592.819 552.469 593.381C552.281 594.319 552.112 595.256 551.981 595.969L551.812 596.925C551.812 597.244 551.7 597.544 551.662 597.806C551.625 598.069 551.662 598.238 551.662 598.425C551.655 598.537 551.655 598.65 551.662 598.763C551.654 598.862 551.654 598.963 551.662 599.063C551.654 599.144 551.654 599.225 551.662 599.306C551.654 599.343 551.654 599.382 551.662 599.419H478.65C478.65 596.513 478.65 593.531 478.65 590.475C478.65 588.394 478.65 586.275 478.65 584.138C478.65 583.275 478.65 582.394 478.65 581.531H555.037Z" fill="#C15D31"/>
<path d="M740.981 389.119C740.828 389.117 740.679 389.065 740.558 388.972C740.436 388.879 740.347 388.749 740.305 388.602C740.263 388.455 740.27 388.298 740.324 388.154C740.378 388.011 740.477 387.889 740.606 387.806C744.075 385.706 748.2 382.181 749.269 373.144C749.278 373.051 749.306 372.96 749.351 372.878C749.396 372.796 749.457 372.724 749.53 372.666C749.604 372.609 749.688 372.566 749.779 372.542C749.869 372.518 749.964 372.512 750.056 372.525C750.149 372.534 750.24 372.562 750.322 372.607C750.404 372.652 750.476 372.713 750.534 372.787C750.591 372.86 750.634 372.945 750.658 373.035C750.682 373.126 750.688 373.22 750.675 373.313C749.794 380.813 746.925 385.631 741.3 389.006C741.205 389.069 741.095 389.108 740.981 389.119V389.119Z" fill="black"/>
<path d="M749.981 373.95C749.889 373.945 749.798 373.922 749.714 373.881C749.63 373.841 749.556 373.784 749.494 373.714C749.433 373.644 749.387 373.563 749.358 373.474C749.329 373.386 749.317 373.293 749.325 373.2C749.606 368.438 755.531 365.156 759.881 362.775L760.444 362.456C764.381 360.281 766.969 358.031 767.363 356.438C767.419 356.256 767.435 356.065 767.409 355.877C767.383 355.689 767.316 355.509 767.213 355.35C767.111 355.193 767.075 355.003 767.114 354.82C767.152 354.637 767.262 354.477 767.419 354.375C767.575 354.273 767.766 354.238 767.949 354.276C768.132 354.315 768.292 354.425 768.394 354.581C768.603 354.902 768.742 355.263 768.8 355.642C768.858 356.02 768.835 356.406 768.731 356.775C768.038 359.513 763.669 362.269 761.119 363.675L760.538 363.994C756.488 366.225 750.938 369.281 750.713 373.275C750.703 373.461 750.621 373.635 750.484 373.761C750.348 373.887 750.167 373.955 749.981 373.95Z" fill="black"/>
<path d="M626.213 1014.73C624.694 1016.01 607.256 1016.25 602.963 1013.48C598.669 1010.7 558.956 978.319 552.131 972.506C545.306 966.694 542.756 963.469 555.094 943.969C561.675 969.225 596.006 994.894 597.075 995.344C598.65 996.037 604.069 995.606 607.819 995.213C609.612 999.164 611.934 1002.85 614.719 1006.18C616.8 1008.11 627.75 1013.47 626.213 1014.73Z" fill="#8EBF8C"/>
<path d="M877.95 1016.59H786.844C784.564 1010.97 783.197 1005.03 782.794 998.981C802.744 1002.37 839.55 1005.39 841.106 1004.79C845.429 1002.73 849.97 1001.16 854.644 1000.11C856.44 1001.93 858.485 1003.49 860.719 1004.74C871.2 1010.31 877.819 1011.71 877.95 1016.59Z" fill="#8EBF8C"/>
<path d="M718.763 740.85H718.575C718.486 740.826 718.403 740.785 718.33 740.728C718.257 740.672 718.196 740.601 718.15 740.521C718.105 740.441 718.076 740.352 718.065 740.261C718.055 740.169 718.062 740.076 718.088 739.988C736.05 677.213 739.369 664.988 737.175 651.581C737.142 651.483 737.131 651.379 737.142 651.276C737.153 651.173 737.186 651.074 737.24 650.986C737.293 650.897 737.365 650.821 737.451 650.763C737.537 650.705 737.634 650.666 737.736 650.65C737.838 650.633 737.943 650.639 738.042 650.667C738.142 650.695 738.234 650.744 738.313 650.812C738.392 650.879 738.455 650.962 738.498 651.056C738.541 651.15 738.563 651.253 738.563 651.356C740.813 665.044 737.475 677.344 719.438 740.363C719.391 740.504 719.3 740.628 719.179 740.715C719.058 740.803 718.912 740.85 718.763 740.85V740.85Z" fill="black"/>
<path d="M756.769 513.9L754.5 511.875C751.875 509.587 751.181 508.969 751.181 508.125H752.119C752.119 508.556 753.056 509.381 755.119 511.181L757.387 513.188L756.769 513.9Z" fill="#845959"/>
<path d="M763.088 536.719L762.188 536.494C763.181 532.538 758.438 525.769 746.513 514.556L747.15 513.881C759.431 525.506 764.194 532.331 763.088 536.719Z" fill="#845959"/>
<path d="M756.056 540.244C755.925 536.494 751.856 530.456 742.931 520.875L743.606 520.237C752.981 530.119 756.919 536.081 757.069 540.206L756.056 540.244Z" fill="#845959"/>
<path d="M555.731 579.15C555.622 579.149 555.515 579.124 555.417 579.075C555.32 579.026 555.235 578.956 555.169 578.869C550.069 572.212 542.981 562.781 537.281 555.187C532.125 548.306 527.663 542.381 527.231 541.912C526.069 540.656 523.875 541.35 523.856 541.35C523.692 541.37 523.526 541.333 523.386 541.244C523.246 541.155 523.142 541.02 523.091 540.862C523.04 540.705 523.045 540.534 523.106 540.38C523.167 540.226 523.28 540.099 523.425 540.019C524.247 539.736 525.129 539.676 525.982 539.843C526.835 540.011 527.628 540.402 528.281 540.975C528.731 541.462 532.256 546.15 538.425 554.362C544.05 561.862 551.213 571.387 556.313 578.044C556.395 578.147 556.446 578.272 556.459 578.403C556.473 578.535 556.449 578.667 556.39 578.785C556.331 578.904 556.239 579.002 556.126 579.07C556.012 579.138 555.882 579.172 555.75 579.169L555.731 579.15Z" fill="black"/>
<path d="M523.875 418.125C523.782 418.143 523.687 418.143 523.594 418.125L518.081 415.669C517.927 415.581 517.812 415.439 517.757 415.271C517.702 415.102 517.712 414.92 517.785 414.758C517.857 414.597 517.987 414.468 518.15 414.397C518.312 414.326 518.495 414.318 518.662 414.375L524.175 416.831C524.316 416.901 524.43 417.016 524.499 417.158C524.568 417.3 524.588 417.461 524.556 417.615C524.524 417.769 524.441 417.909 524.321 418.011C524.202 418.114 524.051 418.173 523.894 418.181L523.875 418.125Z" fill="black"/>
<path d="M554.381 414.375C554.254 414.377 554.129 414.344 554.019 414.279C553.909 414.214 553.819 414.121 553.759 414.008C553.699 413.896 553.671 413.769 553.679 413.642C553.686 413.515 553.728 413.392 553.8 413.288C555.3 411.056 554.738 410.325 553.219 408.413L552.45 407.419C550.781 405.169 547.181 399.525 549.694 395.625C549.807 395.497 549.962 395.414 550.132 395.391C550.301 395.369 550.473 395.407 550.616 395.5C550.759 395.594 550.864 395.735 550.911 395.899C550.959 396.063 550.946 396.238 550.875 396.394C548.775 399.656 552.413 405.038 553.575 406.594L554.325 407.569C555.9 409.575 557.025 411.019 554.963 414.094C554.896 414.184 554.808 414.257 554.707 414.306C554.605 414.355 554.494 414.379 554.381 414.375V414.375Z" fill="black"/>
<path d="M537.075 405C536.893 404.972 536.728 404.874 536.616 404.727C536.504 404.581 536.454 404.396 536.475 404.212C537.056 399.844 539.569 398.025 541.725 397.781C541.907 397.77 542.087 397.827 542.23 397.941C542.372 398.056 542.466 398.219 542.494 398.4C542.515 398.586 542.462 398.773 542.346 398.921C542.23 399.068 542.061 399.164 541.875 399.187C541.088 399.187 538.444 399.919 537.863 404.4C537.851 404.491 537.821 404.58 537.775 404.66C537.729 404.739 537.668 404.809 537.595 404.865C537.521 404.921 537.438 404.962 537.348 404.985C537.259 405.008 537.166 405.013 537.075 405V405Z" fill="black"/>
<path d="M550.312 423.562C549.218 423.458 548.161 423.109 547.22 422.541C546.279 421.973 545.477 421.201 544.875 420.281C544.76 420.135 544.709 419.948 544.732 419.764C544.755 419.579 544.85 419.411 544.997 419.297C545.143 419.182 545.33 419.131 545.514 419.154C545.699 419.177 545.867 419.272 545.981 419.419C547.856 421.894 550.106 422.775 551.812 421.725C551.969 421.662 552.142 421.657 552.302 421.711C552.462 421.764 552.598 421.872 552.685 422.016C552.773 422.16 552.807 422.33 552.781 422.496C552.755 422.663 552.671 422.815 552.544 422.925C551.874 423.341 551.101 423.562 550.312 423.562V423.562Z" fill="black"/>
<path d="M539.625 438.262C539.194 439.875 538.462 443.531 537.75 447.919C530.906 441.431 531.356 431.475 531.356 431.475C533.506 434.389 536.347 436.722 539.625 438.262V438.262Z" fill="black"/>
<path d="M1056.11 268.725L1055.51 267.994C1060.44 263.944 1072.39 261.637 1079.12 263.437L1078.88 264.337C1072.37 262.631 1060.88 264.844 1056.11 268.725Z" fill="#845959"/>
<path d="M1057.13 274.819L1056.79 273.956C1063.72 271.083 1071.46 270.843 1078.56 273.281L1078.2 274.144C1071.33 271.794 1063.83 272.034 1057.13 274.819V274.819Z" fill="#845959"/>
<path d="M1078.71 283.65C1072.74 278.475 1064.14 278.025 1058.23 280.012L1057.95 279.131C1064.1 277.125 1073.1 277.537 1079.33 282.881L1078.71 283.65Z" fill="#845959"/>
<path d="M934.988 588.431C934.836 588.43 934.689 588.38 934.567 588.289C934.446 588.198 934.357 588.07 934.313 587.925L916.669 526.5C915.751 523.274 913.811 520.432 911.139 518.404C908.468 516.375 905.211 515.268 901.856 515.25H892.688C892.586 515.267 892.481 515.261 892.382 515.233C892.282 515.206 892.19 515.157 892.111 515.09C892.032 515.023 891.969 514.94 891.926 514.846C891.882 514.752 891.86 514.65 891.86 514.547C891.86 514.444 891.882 514.341 891.926 514.248C891.969 514.154 892.032 514.071 892.111 514.004C892.19 513.937 892.282 513.888 892.382 513.86C892.481 513.833 892.586 513.827 892.688 513.844H901.856C905.506 513.854 909.054 515.048 911.968 517.245C914.882 519.442 917.005 522.525 918.019 526.031L935.663 587.456C935.688 587.545 935.696 587.638 935.685 587.729C935.674 587.821 935.645 587.91 935.6 587.99C935.555 588.07 935.494 588.141 935.421 588.197C935.348 588.254 935.264 588.295 935.175 588.319L934.988 588.431Z" fill="black"/>
<path d="M908.437 588.431C908.319 588.433 908.202 588.405 908.098 588.349C907.993 588.293 907.905 588.212 907.841 588.112C907.777 588.013 907.74 587.898 907.733 587.78C907.725 587.662 907.749 587.544 907.8 587.437L923.85 550.894C923.887 550.809 923.94 550.732 924.007 550.668C924.073 550.603 924.152 550.553 924.238 550.519C924.324 550.485 924.416 550.468 924.509 550.47C924.601 550.471 924.693 550.491 924.778 550.528C924.863 550.565 924.94 550.618 925.004 550.685C925.068 550.752 925.119 550.83 925.153 550.916C925.187 551.003 925.203 551.095 925.202 551.187C925.2 551.28 925.18 551.371 925.143 551.456L909 588.019C908.951 588.131 908.873 588.228 908.774 588.301C908.675 588.373 908.559 588.418 908.437 588.431V588.431Z" fill="black"/>
<path d="M388.537 728.962C388.439 728.985 388.336 728.985 388.237 728.962C388.153 728.924 388.076 728.869 388.013 728.801C387.95 728.733 387.902 728.653 387.87 728.565C387.839 728.478 387.825 728.385 387.83 728.292C387.835 728.199 387.859 728.108 387.9 728.025C388.087 727.594 392.775 717.544 397.369 712.837C397.498 712.703 397.675 712.626 397.862 712.622C398.048 712.619 398.228 712.689 398.362 712.819C398.497 712.948 398.574 713.125 398.578 713.312C398.581 713.498 398.51 713.678 398.381 713.813C393.956 718.35 389.231 728.494 389.175 728.606C389.112 728.719 389.019 728.812 388.907 728.875C388.794 728.938 388.666 728.968 388.537 728.962V728.962Z" fill="black"/>
<path d="M389.925 728.963C389.786 728.956 389.653 728.91 389.54 728.829C389.428 728.748 389.341 728.636 389.292 728.507C389.242 728.377 389.231 728.236 389.26 728.101C389.289 727.965 389.357 727.841 389.456 727.744C395.212 722.55 399.937 719.288 403.106 718.369C403.276 718.341 403.45 718.377 403.596 718.468C403.742 718.559 403.85 718.699 403.9 718.864C403.951 719.029 403.94 719.206 403.87 719.363C403.799 719.52 403.675 719.646 403.518 719.719C401.456 720.338 397.5 722.437 390.393 728.831C390.257 728.929 390.092 728.975 389.925 728.963V728.963Z" fill="black"/>
<path d="M377.569 745.687C377.449 745.684 377.332 745.651 377.228 745.591C377.124 745.53 377.038 745.445 376.976 745.342C376.914 745.239 376.88 745.122 376.875 745.002C376.87 744.882 376.896 744.763 376.95 744.656C379.498 740.591 382.561 736.873 386.062 733.594C386.2 733.496 386.367 733.45 386.535 733.464C386.703 733.478 386.861 733.551 386.98 733.67C387.099 733.789 387.172 733.947 387.186 734.115C387.2 734.283 387.154 734.45 387.056 734.587C383.661 737.783 380.682 741.393 378.187 745.331C378.126 745.441 378.036 745.532 377.927 745.595C377.818 745.658 377.694 745.69 377.569 745.687V745.687Z" fill="black"/>
<path d="M383.588 754.575H383.419C383.328 754.553 383.243 754.513 383.168 754.458C383.092 754.402 383.029 754.332 382.982 754.252C382.935 754.171 382.904 754.082 382.892 753.989C382.88 753.897 382.887 753.802 382.913 753.713C382.913 753.6 385.613 743.288 387.15 734.963C387.185 734.779 387.291 734.616 387.446 734.51C387.601 734.405 387.791 734.365 387.975 734.4C388.159 734.435 388.322 734.541 388.427 734.696C388.533 734.851 388.572 735.041 388.538 735.225C387 743.513 384.319 753.881 384.281 753.975C384.259 754.142 384.176 754.296 384.048 754.406C383.92 754.517 383.756 754.577 383.588 754.575V754.575Z" fill="black"/>
<path d="M391.95 729.244C390.604 730.076 389.068 730.553 387.488 730.631C386.569 730.631 386.513 729.169 387.488 726.638C389.137 727.193 390.656 728.079 391.95 729.244Z" fill="black"/>
<path d="M409.969 760.912C408.42 760.908 406.874 760.807 405.338 760.612C405.247 760.601 405.159 760.573 405.079 760.527C404.999 760.482 404.928 760.422 404.872 760.35C404.815 760.277 404.773 760.195 404.749 760.106C404.724 760.018 404.717 759.925 404.728 759.834C404.739 759.743 404.768 759.655 404.813 759.575C404.858 759.495 404.919 759.425 404.991 759.369C405.063 759.312 405.146 759.27 405.234 759.245C405.323 759.221 405.415 759.214 405.506 759.225C434.288 762.788 443.138 731.1 447.375 715.969C447.94 713.381 448.796 710.865 449.925 708.469C450.03 708.315 450.191 708.208 450.374 708.173C450.557 708.138 450.746 708.177 450.9 708.281C451.054 708.386 451.161 708.547 451.196 708.73C451.231 708.913 451.192 709.102 451.088 709.256C450.062 711.546 449.271 713.933 448.725 716.381C444.619 731.081 436.256 760.912 409.969 760.912Z" fill="black"/>
<path d="M398.325 978.169C398.142 978.164 397.969 978.089 397.84 977.96C397.711 977.831 397.636 977.658 397.631 977.475C396.881 950.138 384.225 934.35 376.856 929.438C376.78 929.386 376.714 929.32 376.664 929.243C376.613 929.166 376.578 929.079 376.56 928.989C376.543 928.898 376.544 928.805 376.562 928.715C376.581 928.625 376.617 928.539 376.669 928.462C376.72 928.386 376.787 928.321 376.864 928.27C376.941 928.219 377.027 928.184 377.117 928.167C377.208 928.149 377.301 928.15 377.391 928.169C377.482 928.187 377.567 928.223 377.644 928.275C385.144 933.394 398.269 949.519 399.056 977.437C399.056 977.62 398.987 977.796 398.861 977.929C398.735 978.061 398.564 978.14 398.381 978.15L398.325 978.169Z" fill="black"/>
<path d="M1009.8 562.5C1009.8 577.688 995.569 589.988 977.925 589.988C960.281 589.988 946.05 577.688 946.05 562.5C946.051 560.489 946.303 558.486 946.8 556.538H1008.86C1009.42 558.478 1009.74 560.481 1009.8 562.5V562.5Z" fill="white"/>
<path d="M1034.47 600.825C1030.93 608.006 1047.6 616.875 1047.6 611.419C1047.75 604.238 1036.5 596.55 1034.47 600.825Z" fill="#4B764A"/>
<path d="M1015.87 544.762C1011.6 539.569 999 549.3 1003.18 551.175C1008.71 553.669 1018.44 547.856 1015.87 544.762Z" fill="#4B764A"/>
<path d="M966.731 551.644C964.856 545.194 949.425 549.3 952.537 552.637C956.643 557.062 967.875 555.488 966.731 551.644Z" fill="#8EBF8C"/>
<path d="M972.75 545.288C971.794 539.306 957.581 541.144 959.962 544.519C963.131 548.944 973.35 548.85 972.75 545.288Z" fill="#8EBF8C"/>
<path d="M956.419 537.788C952.481 531.319 937.106 538.819 941.419 541.744C947.138 545.625 958.763 541.631 956.419 537.788Z" fill="#4B764A"/>
<path d="M1031.44 529.294C1026.54 523.35 1012.14 534.487 1016.92 536.644C1023.21 539.475 1034.34 532.838 1031.44 529.294Z" fill="#8EBF8C"/>
<path d="M981.637 533.662C975.169 531.787 970.256 546.9 974.756 546.112C980.7 545.081 985.462 534.787 981.637 533.662Z" fill="#4B764A"/>
<path d="M1021.5 604.406C1029 607.219 1036.16 589.706 1030.76 590.25C1023.69 590.962 1017.13 602.737 1021.5 604.406Z" fill="#8EBF8C"/>
<path d="M1028.83 550.762C1034.83 545.869 1025.48 535.125 1023.56 538.875C1021.03 543.75 1025.98 553.125 1028.83 550.762Z" fill="#4B764A"/>
<path d="M991.706 565.256C994.669 572.756 1006.37 550.556 1000.97 551.1C993.825 551.813 990.263 561.6 991.706 565.256Z" fill="#8EBF8C"/>
<path d="M1013.1 568.5C1019.27 563.381 1007.61 548.475 1005.39 553.5C1002.47 560.006 1009.44 571.538 1013.1 568.5Z" fill="#8EBF8C"/>
<path d="M1033.82 660C1041.21 660.244 1042.31 642.825 1037.74 644.888C1031.7 647.681 1029.43 659.906 1033.82 660Z" fill="#4B764A"/>
<path d="M1031.42 574.219C1023.92 577.106 1043.59 591.094 1044.54 585.825C1045.63 578.737 1034.74 572.944 1031.42 574.219Z" fill="#8EBF8C"/>
<path d="M1018.57 554.363C1013.12 559.313 1035.3 564.262 1034.25 559.444C1032.88 553.125 1020.97 552.15 1018.57 554.363Z" fill="#8EBF8C"/>
<path d="M998.493 540.263C1001.85 548.831 1012.39 523.725 1007.47 523.125C1000.99 522.319 996.993 536.456 998.493 540.263Z" fill="#4B764A"/>
<path d="M1034.08 540C1029.54 544.125 1048.01 548.25 1047.21 544.238C1046.01 538.931 1036.09 538.125 1034.08 540Z" fill="#4B764A"/>
<path d="M1034.62 616.987C1031.19 609.75 1018.61 630.375 1024.03 630.862C1031.12 631.481 1036.09 620.194 1034.62 616.987Z" fill="#8EBF8C"/>
<path d="M1037.21 626.719C1030.09 630.469 1048.87 644.1 1050.64 637.219C1052.4 630.338 1040.25 625.144 1037.21 626.719Z" fill="#8EBF8C"/>
<path d="M1018.14 582.656C1020.75 590.156 1029 568.2 1024.86 565.781C1018.65 562.162 1016.17 576.919 1018.14 582.656Z" fill="#4B764A"/>
<path d="M986.569 552.731C986.429 552.729 986.293 552.685 986.177 552.605C986.062 552.525 985.973 552.414 985.921 552.284C985.869 552.153 985.857 552.011 985.885 551.874C985.914 551.737 985.982 551.611 986.081 551.513C997.331 540.656 1011.94 534.881 1023.28 536.794C1026.77 537.369 1030.06 538.784 1032.88 540.917C1035.69 543.05 1037.95 545.838 1039.44 549.038C1039.53 549.204 1039.54 549.397 1039.49 549.575C1039.43 549.753 1039.3 549.9 1039.13 549.984C1038.97 550.069 1038.77 550.084 1038.6 550.026C1038.42 549.968 1038.27 549.842 1038.19 549.675C1036.8 546.66 1034.7 544.034 1032.05 542.029C1029.41 540.024 1026.31 538.702 1023.04 538.181C1012.29 536.306 997.838 542.138 987.056 552.525C986.928 552.655 986.752 552.73 986.569 552.731V552.731Z" fill="black"/>
<path d="M1049.33 660.75C1049.21 660.777 1049.1 660.777 1048.99 660.75C1040.14 655.837 1034.91 634.875 1034.16 622.237C1033.99 619.331 1033.89 616.5 1033.82 613.781C1033.75 600.952 1031.94 588.191 1028.44 575.85C1022.66 554.756 1009.5 552.937 991.275 550.406L989.4 550.144C989.309 550.132 989.22 550.103 989.141 550.057C989.061 550.011 988.991 549.949 988.935 549.876C988.879 549.803 988.838 549.719 988.815 549.63C988.792 549.54 988.787 549.447 988.8 549.356C988.812 549.265 988.841 549.177 988.887 549.097C988.933 549.017 988.995 548.947 989.068 548.891C989.141 548.835 989.225 548.794 989.314 548.771C989.403 548.748 989.496 548.743 989.588 548.756L991.463 549.019C1010.21 551.606 1023.77 553.481 1029.79 575.475C1033.33 587.919 1035.16 600.787 1035.23 613.725C1035.23 616.444 1035.39 619.35 1035.56 622.144C1036.44 636.825 1042.09 655.294 1049.68 659.494C1049.81 659.574 1049.91 659.693 1049.96 659.833C1050.02 659.973 1050.03 660.127 1049.99 660.273C1049.95 660.418 1049.87 660.548 1049.75 660.644C1049.64 660.74 1049.49 660.797 1049.34 660.806L1049.33 660.75Z" fill="black"/>
<path d="M958.219 570.169H958.013C957.835 570.113 957.686 569.989 957.598 569.824C957.51 569.659 957.491 569.466 957.544 569.287C960.938 558.394 964.8 552.413 969.356 551.269C970.57 550.995 971.829 550.999 973.04 551.281C974.252 551.564 975.383 552.117 976.35 552.9C973.969 546.263 967.088 537.431 959.475 531.375C959.328 531.261 959.233 531.093 959.21 530.908C959.187 530.723 959.239 530.537 959.353 530.391C959.468 530.244 959.636 530.149 959.82 530.126C960.005 530.103 960.191 530.154 960.338 530.269C969.075 537.169 976.819 547.669 978.394 554.644C978.429 554.791 978.416 554.946 978.355 555.085C978.294 555.224 978.189 555.339 978.056 555.412C977.937 555.501 977.792 555.548 977.644 555.548C977.495 555.548 977.351 555.501 977.231 555.412C974.569 552.975 972.056 552.056 969.731 552.656C965.738 553.744 962.1 559.481 958.894 569.737C958.837 569.869 958.743 569.98 958.623 570.057C958.502 570.134 958.362 570.173 958.219 570.169V570.169Z" fill="black"/>
<path d="M980.662 554.587C976.387 549.394 963.787 559.125 967.969 561C973.462 563.494 983.194 557.681 980.662 554.587Z" fill="#4B764A"/>
<path d="M956.719 576.45C964.706 575.531 964.369 561.056 960.056 562.631C954 564.825 951.581 577.05 956.719 576.45Z" fill="#8EBF8C"/>
<path d="M988.406 539.025C981.75 540 983.569 555.806 987.338 553.2C992.306 549.787 992.363 538.444 988.406 539.025Z" fill="#8EBF8C"/>
<path d="M957.563 527.569C953.1 533.512 967.856 541.144 967.8 537.094C967.706 531.769 961.688 522.075 957.563 527.569Z" fill="#8EBF8C"/>
<path d="M1058.17 665.794C1062.13 658.838 1042.95 650.044 1043.17 655.481C1043.77 664.238 1055.4 670.669 1058.17 665.794Z" fill="#8EBF8C"/>
<path d="M1039.24 548.044C1031.42 546.337 1040.06 568.894 1043.74 564.919C1048.61 559.612 1042.71 548.794 1039.24 548.044Z" fill="#8EBF8C"/>
<path d="M1087.67 1018.24C1087.51 1018.24 1087.35 1018.19 1087.22 1018.08C1087.09 1017.98 1087.01 1017.84 1086.97 1017.68L1009.72 610.238C1009.03 606.592 1007.09 603.301 1004.23 600.933C1001.37 598.565 997.78 597.267 994.069 597.263H791.325C787.613 597.263 784.017 598.56 781.159 600.929C778.301 603.298 776.359 606.59 775.669 610.238L698.419 1017.68C698.364 1017.84 698.252 1017.98 698.104 1018.06C697.955 1018.15 697.78 1018.18 697.61 1018.15C697.441 1018.12 697.289 1018.03 697.182 1017.89C697.076 1017.75 697.022 1017.58 697.031 1017.41L774.281 609.975C775.04 606.01 777.156 602.433 780.267 599.86C783.378 597.286 787.288 595.877 791.325 595.875H994.05C998.087 595.877 1002 597.286 1005.11 599.86C1008.22 602.433 1010.34 606.01 1011.09 609.975L1088.34 1017.41C1088.36 1017.5 1088.36 1017.6 1088.34 1017.69C1088.33 1017.78 1088.29 1017.87 1088.24 1017.94C1088.19 1018.02 1088.12 1018.09 1088.04 1018.14C1087.96 1018.19 1087.87 1018.22 1087.78 1018.24H1087.67Z" fill="black"/>
<path d="M1381.61 1018.46H192.638C192.389 1018.46 192.151 1018.36 191.975 1018.19C191.799 1018.01 191.7 1017.77 191.7 1017.53C191.7 1017.28 191.799 1017.04 191.975 1016.86C192.151 1016.69 192.389 1016.59 192.638 1016.59H1381.61C1381.86 1016.59 1382.1 1016.69 1382.28 1016.86C1382.45 1017.04 1382.55 1017.28 1382.55 1017.53C1382.55 1017.77 1382.45 1018.01 1382.28 1018.19C1382.1 1018.36 1381.86 1018.46 1381.61 1018.46Z" fill="#E4D0C0"/>
<path d="M908.454 430.878C910.636 431.395 912.524 432.757 913.702 434.665C914.88 436.573 915.252 438.872 914.736 441.054L888.21 553.178C887.694 555.361 886.332 557.249 884.423 558.427C882.515 559.605 880.217 559.977 878.034 559.46V559.46L908.454 430.878Z" fill="#E4D0C0"/>
<path d="M1015.26 587.737H770.137C767.072 587.737 764.587 590.222 764.587 593.288V593.306C764.587 596.371 767.072 598.856 770.137 598.856H1015.26C1018.32 598.856 1020.81 596.371 1020.81 593.306V593.288C1020.81 590.222 1018.32 587.737 1015.26 587.737Z" fill="#E4D0C0"/>
</g>
<defs>
<clipPath id="clip0_2208_247">
<rect width="1500" height="1125" rx="50" fill="white"/>
</clipPath>
</defs>
</svg>
