<svg width="768" height="695" viewBox="0 0 768 695" fill="none" xmlns="http://www.w3.org/2000/svg">
<g opacity="0.3">
<path d="M179.213 694.448C173.909 694.448 168.747 693.881 163.785 692.751C153.38 690.379 143.767 685.508 135.213 678.275C126.019 670.502 117.955 659.911 111.244 646.797C97.7548 620.437 91.0063 588.87 84.4794 558.34C83.197 552.346 81.8715 546.147 80.5255 540.133C71.3414 499.141 59.6992 463.234 44.9362 430.36C15.4861 364.784 -25.9304 308.819 -74.8382 268.516C-131.399 221.909 -192.212 198.692 -246.075 203.143C-277.733 205.761 -319.562 230.652 -338.256 273.163C-349.35 298.392 -350.245 326.39 -340.841 354.125L-341.028 354.243C-345.959 339.697 -348.107 325.114 -347.411 310.901C-346.773 297.862 -343.753 285.116 -338.432 273.018C-329.971 253.775 -316.016 236.72 -298.077 223.695C-281.5 211.661 -263.037 204.262 -246.087 202.861C-217.899 200.534 -187.919 205.699 -156.982 218.219C-128.937 229.57 -101.264 246.41 -74.7315 268.273C-25.795 308.598 15.6461 364.594 45.1127 430.21C59.8839 463.105 71.5322 499.032 80.7224 540.046C82.0705 546.061 83.396 552.262 84.6763 558.257C91.1971 588.764 97.9415 620.309 111.412 646.629C124.439 672.087 142.073 687.51 163.82 692.466C193.937 699.332 230.509 684.973 261.648 654.053C306.522 609.497 337.665 544.643 367.784 481.927C373.063 470.934 378.521 459.567 383.926 448.59C397.956 420.087 416.958 383.153 439.541 350.249C462.624 316.616 486.081 291.906 511.253 274.703C526.66 264.173 542.989 257.079 559.785 253.618C575.299 250.42 591.72 250.222 608.592 253.024C637.534 257.833 668.713 271.416 703.915 294.546C773.226 340.096 842.464 395.383 909.703 458.874C973.611 519.221 1036.29 587.508 1096 661.831L1095.86 662.037C972.089 507.968 840.19 384.412 703.824 294.797C626.782 244.169 565.621 237.861 511.345 274.952C456.128 312.684 417.555 380.778 384.096 448.744C378.693 459.717 373.235 471.084 367.956 482.078C337.829 544.816 306.676 609.689 261.771 654.276C247.26 668.685 230.936 679.924 214.564 686.776C205.916 690.395 197.318 692.762 189.009 693.811C185.697 694.238 182.428 694.448 179.213 694.448Z" fill="#FFE492"/>
<path d="M184.399 678.817C170.873 678.817 158.344 675.314 147.148 668.401C134.662 660.693 123.888 648.748 115.122 632.902C114.347 631.498 113.577 630.047 112.835 628.584C99.4893 602.339 92.4413 571.182 85.6271 541.049C84.2483 534.959 82.8243 528.66 81.3798 522.548C72.7764 486.156 62.4167 454.081 49.7055 424.495C48.1399 420.853 46.519 417.202 44.8836 413.647C15.0006 348.634 -26.7524 293.378 -75.8612 253.851C-132.831 208.039 -193.816 185.782 -247.582 191.182C-279.01 194.372 -320.646 219.671 -339.421 261.855C-350.663 287.115 -351.935 315.169 -343.104 342.985L-343.292 343.097C-347.921 328.517 -349.824 313.907 -348.943 299.677C-348.135 286.607 -344.991 273.833 -339.597 261.71C-331.049 242.5 -317.136 225.426 -299.365 212.334C-282.94 200.233 -264.557 192.622 -247.601 190.903C-219.447 188.076 -189.435 192.748 -158.399 204.788C-130.286 215.694 -102.482 232.121 -75.7586 253.611C-26.6211 293.16 15.1545 348.449 45.056 413.499C46.6913 417.057 48.3144 420.71 49.8799 424.355C62.5993 453.961 72.9652 486.052 81.5727 522.465C83.0192 528.577 84.4432 534.876 85.8221 540.968C92.6342 571.081 99.6761 602.216 113.003 628.425C113.744 629.882 114.513 631.333 115.287 632.734C133.4 665.49 158.289 678.817 184.462 678.817C184.606 678.817 184.748 678.817 184.891 678.817C184.727 678.814 184.563 678.817 184.399 678.817ZM189.982 678.621C214.315 676.922 239.423 664.204 260.963 645.285C307.427 604.307 340.821 541.016 373.117 479.809C374.447 477.286 375.776 474.769 377.106 472.252C380.026 466.726 383.487 460.184 387.021 453.589C402.871 424.015 422.054 389.603 444.146 358.631C467.652 325.673 491.135 301.217 515.936 283.861C531.175 273.208 547.28 265.703 563.803 261.556C579.112 257.713 595.291 256.628 611.884 258.327C640.551 261.266 671.373 272.407 706.115 292.39C739.987 311.842 767.83 330.153 793.739 350.015C830.443 378.18 865.404 410.633 894.764 438.661C963.02 504.012 1029.99 578.218 1093.82 659.219L1093.68 659.423C1029.86 578.432 962.895 504.232 894.647 438.89C865.291 410.864 830.336 378.418 793.641 350.261C767.738 330.404 739.903 312.099 706.037 292.652C630.355 249.12 569.977 246.405 516.03 284.112C460.039 323.29 420.166 392.221 387.187 453.757C383.651 460.352 380.192 466.891 377.272 472.419C375.943 474.934 374.613 477.454 373.283 479.977C340.977 541.203 307.571 604.516 261.074 645.525C249.545 655.65 237.277 663.693 224.609 669.428C212.817 674.762 201.193 677.845 189.982 678.621Z" fill="#FFE492"/>
<path d="M190.12 663.542C188.493 663.542 186.876 663.494 185.272 663.396C171.758 662.584 159.252 658.367 148.103 650.857C135.909 642.644 125.344 630.478 116.703 614.696C115.936 613.289 115.171 611.835 114.432 610.373C101.237 584.256 93.895 553.515 86.7977 523.79C85.3183 517.594 83.7877 511.186 82.2365 504.968C73.2083 468.698 62.5757 436.88 49.7271 407.693C48.1369 404.084 46.4913 400.465 44.8313 396.937C14.5153 332.491 -27.5742 277.943 -76.8841 239.192C-134.26 194.176 -195.417 172.876 -249.089 179.225C-279.309 182.856 -320.824 206.712 -340.563 250.506C-351.967 275.808 -353.627 303.937 -345.364 331.851L-345.555 331.955C-349.884 317.331 -351.536 302.687 -350.469 288.431C-349.488 275.32 -346.213 262.513 -340.737 250.361C-332.099 231.197 -318.23 214.117 -300.63 200.963C-284.358 188.803 -266.06 180.986 -249.108 178.949C-220.987 175.625 -190.942 179.8 -159.809 191.36C-131.627 201.826 -103.693 217.837 -76.7815 238.952C-27.4428 277.728 14.6692 332.306 45.0037 396.789C46.6636 400.319 48.3113 403.939 49.9015 407.553C62.7563 436.757 73.3951 468.595 82.4273 504.884C83.9785 511.105 85.5091 517.513 86.9885 523.709C94.0838 553.417 101.419 584.136 114.598 610.222C115.337 611.685 116.098 613.136 116.865 614.537C151.975 678.665 214.195 671.78 260.281 636.512C308.684 599.145 344.655 537.041 379.442 476.981L379.799 476.365C383.168 470.543 386.652 464.526 390.12 458.584C426.71 395.902 466.929 331.483 520.625 293.011C535.7 282.233 551.584 274.318 567.83 269.487C582.942 264.994 598.875 263.021 615.185 263.623C643.621 264.673 674.087 273.375 708.324 290.226C744.305 307.872 771.381 324.093 796.118 342.822C831.363 369.561 865.504 403.35 895.625 433.162C962.689 499.894 1028.64 575.069 1091.65 656.592L1091.51 656.793C1028.51 575.278 962.56 500.112 895.504 433.385C865.386 403.579 831.252 369.796 796.018 343.065C771.291 324.341 744.223 308.126 708.254 290.485C634.041 253.959 574.451 254.838 520.72 293.254C467.058 331.701 426.856 396.091 390.28 458.752C386.812 464.693 383.328 470.713 379.959 476.532L379.602 477.149C362.266 507.078 344.341 538.026 324.984 565.669C303.23 596.734 282.098 619.985 260.38 636.749C237.658 654.136 212.906 663.542 190.12 663.542Z" fill="#FFE492"/>
<path d="M1089.33 654.162C1027.15 572.122 962.221 495.99 896.359 427.882C893.568 425.019 890.773 422.141 887.969 419.256C859.44 389.89 829.94 359.526 798.395 335.871C767.792 312.986 736.776 298.992 710.472 288.323C637.863 258.69 579.059 263.163 525.41 302.397C470.336 342.792 427.662 409.859 393.374 463.75C391.316 466.985 389.262 470.225 387.204 473.468C385.685 475.863 384.165 478.257 382.644 480.649C363.121 511.365 345.362 538.827 325.741 563.886C303.324 592.512 281.718 613.477 259.684 627.981C239.034 641.575 216.974 648.767 196.456 648.77C192.717 648.77 189.034 648.533 185.415 648.05C172.201 646.289 159.968 641.341 149.056 633.342C137.149 624.615 126.794 612.218 118.272 596.494C117.511 595.085 116.752 593.628 116.017 592.163C102.978 566.183 95.3513 535.874 87.9769 506.565C86.3888 500.252 84.7453 493.721 83.0833 487.383C73.6243 451.228 62.7166 419.663 49.7408 390.884C48.126 387.303 46.4537 383.717 44.7712 380.22C14.0202 316.34 -28.4037 262.502 -77.9127 224.524C-135.695 180.303 -197.022 159.966 -250.6 167.256C-287.228 172.338 -324.682 201.882 -341.683 239.098C-353.266 264.453 -355.32 292.671 -347.628 320.702L-347.821 320.8C-351.848 306.123 -353.252 291.435 -351.992 277.143C-350.833 263.984 -347.423 251.135 -341.858 238.95C-333.129 219.841 -319.306 202.761 -301.882 189.56C-285.767 177.35 -267.563 169.329 -250.621 166.979C-222.533 163.156 -192.457 166.837 -161.228 177.917C-132.978 187.941 -104.911 203.54 -77.8101 224.278C-28.2703 262.279 14.1761 316.148 44.9456 380.067C46.6302 383.566 48.3025 387.155 49.9173 390.736C62.9013 419.532 73.813 451.113 83.2782 487.286C84.9402 493.626 86.5837 500.154 88.1718 506.47C95.5421 535.763 103.165 566.052 116.188 592.001C116.922 593.464 117.679 594.918 118.439 596.324C155.091 663.958 217.387 655.51 259.595 627.727C309.954 594.577 348.489 533.954 382.491 480.465C384.011 478.07 385.529 475.676 387.05 473.284C389.106 470.041 391.162 466.801 393.22 463.566C412.792 432.805 432.121 402.913 453.37 375.367C477.805 343.688 501.34 319.74 525.315 302.152C540.232 291.242 555.89 282.917 571.855 277.411C586.776 272.262 602.465 269.404 618.486 268.912C646.739 268.047 676.85 274.31 710.533 288.055C736.846 298.73 767.876 312.729 798.496 335.628C830.055 359.291 859.561 389.664 888.096 419.035C890.899 421.921 893.695 424.798 896.486 427.662C962.354 495.775 1027.29 571.915 1089.48 653.964L1089.33 654.162Z" fill="#FFE492"/>
<path d="M1087.16 651.533C1024.62 567.4 960.718 490.3 897.217 422.379C893.417 418.316 889.531 414.127 885.772 410.077C858.85 381.075 831.012 351.084 800.776 328.676C770.583 306.38 739.307 294.67 712.693 286.158C641.851 263.281 583.831 271.347 530.103 311.54C478.856 350.018 438.708 407.878 399.881 463.832L395.617 469.974C392.25 474.828 388.768 479.843 385.335 484.763C346.469 540.396 307.562 592.538 258.993 619.207C247.207 625.679 235.105 630.164 223.02 632.544C210.042 635.098 197.435 635.134 185.549 632.651C172.639 629.952 160.683 624.283 150.013 615.802C138.402 606.573 128.253 593.95 119.853 578.287C119.096 576.87 118.343 575.41 117.615 573.948C104.735 548.121 96.8334 518.259 89.1923 489.379C87.4872 482.935 85.7227 476.271 83.9417 469.799C74.0436 433.755 62.8651 402.444 49.7661 374.078C48.1288 370.534 46.4319 366.975 44.7227 363.506C13.5388 300.193 -29.2196 247.063 -78.9317 209.858C-137.122 166.438 -198.622 147.059 -252.107 155.295C-288.4 161.002 -325.685 190.752 -342.772 227.645C-354.548 253.064 -357.008 281.391 -349.888 309.565L-350.083 309.657C-353.809 294.915 -354.96 280.171 -353.505 265.837C-352.164 252.623 -348.612 239.723 -342.949 227.499C-334.126 208.455 -320.352 191.391 -303.112 178.152C-287.157 165.897 -269.052 157.683 -252.132 155.021C-224.077 150.701 -193.97 153.885 -162.643 164.485C-134.323 174.069 -106.127 189.251 -78.8353 209.616C-29.0945 246.84 13.6886 300.003 44.891 363.353C46.6002 366.824 48.2991 370.386 49.9365 373.93C63.0436 402.31 74.2282 433.638 84.1305 469.701C85.9114 476.173 87.6761 482.84 89.3811 489.284C97.0181 518.147 104.916 547.996 117.781 573.791C118.507 575.248 119.26 576.705 120.015 578.123C155.785 644.816 215.219 642.943 258.913 618.95C307.443 592.303 346.334 540.181 385.183 484.573C388.616 479.653 392.098 474.638 395.465 469.785L399.729 463.642C418.788 436.177 438.494 407.775 459.897 381.354C484.138 351.43 507.069 328.514 530 311.295C544.766 300.249 560.201 291.513 575.878 285.334C590.616 279.524 606.06 275.778 621.781 274.202C649.912 271.38 679.662 275.204 712.738 285.884C739.365 294.402 770.657 306.115 800.871 328.431C831.123 350.847 858.969 380.846 885.897 409.857C889.656 413.906 893.542 418.092 897.342 422.159C960.849 490.085 1024.76 567.191 1087.3 651.332L1087.16 651.533Z" fill="#FFE492"/>
<path d="M1084.98 648.904C1022.98 563.836 960.095 485.771 898.07 416.878C893.408 411.701 888.63 406.318 884.009 401.113C858.539 372.423 832.202 342.756 803.15 321.487C773.099 299.573 741.681 290.238 714.908 283.997C646.03 267.696 588.796 279.356 534.789 320.689C487.658 356.911 448.962 408.246 411.539 457.89C407.601 463.114 403.528 468.515 399.56 473.748C394.9 479.893 391.34 484.562 388.018 488.882C370.227 512.007 349.044 538.635 326.814 560.783C303.257 584.251 280.844 600.494 258.295 610.441C246.437 615.671 234.387 618.97 222.476 620.242C209.686 621.61 197.304 620.605 185.674 617.253C173.073 613.622 161.396 607.234 150.963 598.267C139.649 588.544 129.712 575.695 121.426 560.083C120.68 558.668 119.931 557.205 119.204 555.737C106.495 530.084 98.3288 500.682 90.4291 472.249C88.5969 465.654 86.703 458.836 84.7927 452.213C74.4494 416.27 62.998 385.216 49.7821 357.271C48.1201 353.758 46.3986 350.233 44.6648 346.792C13.0479 284.045 -30.047 231.624 -79.9602 195.192C-138.555 152.571 -200.227 134.154 -253.618 143.33C-283.998 148.666 -323.676 173.248 -343.838 216.132C-355.825 241.629 -358.701 270.085 -352.154 298.421L-352.349 298.504C-355.773 283.688 -356.668 268.879 -355.01 254.49C-353.479 241.208 -349.78 228.253 -344.01 215.982C-335.093 197.015 -321.37 179.98 -304.321 166.712C-288.526 154.421 -270.529 146.02 -253.643 143.054C-225.621 138.237 -195.481 140.924 -164.059 151.044C-135.672 160.187 -107.344 174.956 -79.8637 194.947C-29.9218 231.398 13.1977 283.85 44.8331 346.633C46.5669 350.074 48.2904 353.604 49.9524 357.121C63.1745 385.079 74.632 416.15 84.9815 452.11C86.8938 458.736 88.7877 465.554 90.62 472.148C98.5134 500.568 106.678 529.953 119.372 555.578C120.099 557.043 120.846 558.503 121.593 559.915C151.35 615.994 202.431 634.783 258.231 610.17C308.764 587.882 349.986 537.929 387.877 488.676C391.199 484.356 394.757 479.686 399.417 473.541C403.385 468.308 407.458 462.908 411.395 457.683C429.819 433.244 448.868 407.973 469.187 384.309C492.164 357.548 513.591 336.655 534.691 320.44C549.314 309.249 564.524 300.103 579.903 293.26C594.469 286.777 609.669 282.147 625.08 279.493C653.141 274.665 682.536 276.046 714.943 283.716C741.73 289.961 773.17 299.3 803.246 321.233C832.317 342.516 858.66 372.191 884.138 400.89C888.759 406.094 893.538 411.478 898.199 416.655C960.229 485.556 1023.12 563.627 1085.13 648.701L1084.98 648.904Z" fill="#FFE492"/>
<path d="M1082.8 646.275C1021.34 560.266 959.477 481.232 898.922 411.374C893.77 405.432 888.481 399.195 883.363 393.164C858.987 364.435 833.785 334.729 805.525 314.292C775.453 292.64 743.963 285.733 717.125 281.831C651.37 272.016 593.259 287.717 539.476 329.831C496.652 363.517 459.943 408.581 424.442 452.163C417.27 460.965 409.857 470.069 402.649 478.745C398.24 484.056 394.333 488.72 390.701 493.001C373.812 512.889 351.347 538.389 327.34 559.228C303.219 580.165 280.404 594.05 257.594 601.671C232.715 609.985 207.886 610.047 185.792 601.853C173.507 597.295 162.107 590.19 151.907 580.732C140.895 570.52 131.169 557.447 122.997 541.883C122.256 540.465 121.513 539 120.791 537.532C108.263 512.074 99.8419 483.155 91.7001 455.191C89.7304 448.426 87.695 441.432 85.6411 434.636C74.8443 398.787 63.12 367.985 49.7974 340.473C48.1108 336.99 46.3647 333.495 44.6062 330.085C12.5564 267.905 -30.8729 216.19 -80.9872 180.537C-139.986 138.716 -201.831 121.259 -255.129 131.376C-291.25 138.381 -327.315 167.797 -344.871 204.569C-357.087 230.158 -360.389 258.762 -354.418 287.287L-354.615 287.363C-357.736 272.457 -358.372 257.57 -356.507 243.119C-354.783 229.762 -350.926 216.74 -345.043 204.416C-336.031 185.538 -322.362 168.542 -305.512 155.263C-289.883 142.947 -272 134.362 -255.158 131.097C-227.169 125.783 -196.996 127.977 -165.478 137.614C-137.021 146.316 -108.562 160.672 -80.8928 180.286C-30.7498 215.961 12.7042 267.704 44.7745 329.923C46.5329 333.334 48.279 336.831 49.9677 340.316C63.2965 367.845 75.0269 398.662 85.8298 434.527C87.8837 441.323 89.9192 448.32 91.8889 455.085C100.027 483.035 108.443 511.94 120.959 537.373C121.682 538.841 122.422 540.3 123.163 541.718C152.41 597.435 202.645 619.745 257.545 601.401C307.593 584.675 351.055 539.315 390.566 492.792C394.195 488.511 398.104 483.85 402.512 478.539C409.718 469.862 417.133 460.761 424.302 451.959C459.811 408.368 496.527 363.293 539.372 329.594C553.866 318.243 568.855 308.69 583.921 301.194C598.331 294.027 613.287 288.51 628.372 284.795C656.427 277.888 685.465 276.83 717.143 281.558C744 285.462 775.516 292.372 805.619 314.049C833.9 334.5 859.113 364.217 883.497 392.957C888.614 398.988 893.904 405.223 899.056 411.165C959.614 481.028 1021.49 560.068 1082.95 646.082L1082.8 646.275Z" fill="#FFE492"/>
<path d="M1080.63 643.647C1019.71 556.689 958.865 476.692 899.776 405.874C894.347 399.366 888.76 392.475 883.359 385.811C859.874 356.839 835.59 326.879 807.899 307.1C777.7 285.633 746.185 281.187 719.339 279.669C656.068 275.829 598.766 295.228 544.163 338.978C505.869 369.805 471.733 408.822 438.719 446.551C427.368 459.526 416.645 471.78 405.739 483.745C401.303 488.615 397.263 492.991 393.385 497.118C368.363 523.729 347.545 542.969 327.868 557.666C303.182 576.105 279.967 587.632 256.896 592.901C247.946 594.944 239.029 595.962 230.274 595.962C214.753 595.962 199.736 592.769 185.911 586.445C160.891 575 140.253 553.882 124.571 523.676C123.832 522.245 123.095 520.779 122.381 519.317C110.044 494.079 101.387 465.674 93.0155 438.201C90.8939 431.24 88.7025 424.046 86.4926 417.049C75.2342 381.284 63.235 350.738 49.8159 323.664C48.1046 320.212 46.3339 316.748 44.5509 313.369C12.0681 251.755 -31.6977 200.749 -82.0131 165.869C-141.416 124.852 -203.431 108.353 -256.637 119.41C-292.908 127.104 -327.933 155.962 -345.864 192.929C-358.329 218.625 -362.067 247.399 -356.679 276.142L-356.878 276.211C-359.691 261.202 -360.065 246.226 -357.986 231.7C-356.062 218.254 -352.042 205.159 -346.034 192.776C-336.928 174.002 -323.318 157.061 -306.674 143.783C-291.213 131.447 -273.454 122.695 -256.668 119.134C-228.712 113.323 -198.507 115.02 -166.894 124.177C-138.367 132.441 -109.779 146.384 -81.9187 165.618C-31.5746 200.521 12.2159 251.554 44.7191 313.204C46.5022 316.587 48.2729 320.05 49.9862 323.505C63.4135 350.593 75.4188 381.156 86.6814 416.935C88.8912 423.931 91.0847 431.129 93.2042 438.089C101.572 465.548 110.224 493.943 122.552 519.158C123.266 520.618 124 522.083 124.739 523.512C154.023 579.92 202.18 605.111 256.861 592.622C308.915 580.733 355.02 537.561 393.258 496.895C397.134 492.768 401.174 488.394 405.61 483.524C416.513 471.56 427.236 459.308 438.587 446.333C471.605 408.595 505.75 369.574 544.058 338.735C558.444 327.209 573.209 317.245 587.945 309.118C602.218 301.248 616.929 294.843 631.67 290.085C659.782 281.012 688.463 277.512 719.347 279.387C746.216 280.906 777.759 285.357 807.993 306.849C835.707 326.642 860.001 356.616 883.495 385.599C888.897 392.263 894.482 399.154 899.91 405.659C959.003 476.483 1019.85 556.488 1080.77 643.451L1080.63 643.647Z" fill="#FFE492"/>
<path d="M1078.46 641.018C1017.24 551.867 959.077 473.151 900.638 400.371C895.061 393.427 889.573 386.336 883.76 378.828C861.04 349.48 837.546 319.135 810.281 299.909C779.704 278.45 746.807 276.664 721.563 277.506C661.173 279.259 604.68 302.359 548.858 348.126C515.365 375.719 484.442 408.855 454.536 440.902C438.819 457.745 423.974 473.65 408.836 488.746C404.342 493.231 400.167 497.317 396.075 501.238C370.712 525.507 349.209 542.939 328.399 556.1C303.141 572.075 279.526 581.243 256.205 584.129C244.222 585.611 232.321 585.332 220.833 583.3C208.67 581.148 196.962 577.021 186.036 571.034C161.818 557.764 141.671 535.708 126.153 505.474C125.42 504.04 124.69 502.572 123.98 501.11C111.849 476.131 102.975 448.268 94.3924 421.322C92.1025 414.133 89.7347 406.698 87.3525 399.469C75.6221 363.783 63.3521 333.491 49.8407 306.863C48.1028 303.442 46.3074 300.009 44.5038 296.66C11.5881 235.613 -32.5122 185.316 -83.0286 151.209C-129.655 119.86 -177.738 103.502 -221.83 103.502C-234.295 103.502 -246.431 104.808 -258.137 107.451C-293.971 115.701 -328.776 144.662 -346.812 181.233C-359.541 207.049 -363.733 236.018 -358.934 265.006L-359.135 265.068C-361.64 249.941 -361.745 234.862 -359.447 220.252C-357.317 206.708 -353.123 193.527 -346.984 181.077C-337.784 162.42 -324.237 145.549 -307.806 132.284C-292.296 119.762 -275.133 111.079 -258.174 107.178C-230.251 100.871 -200.012 102.073 -168.303 110.747C-139.709 118.567 -110.987 132.095 -82.9383 150.955C-32.3932 185.082 11.7338 235.406 44.67 296.49C46.4756 299.839 48.2731 303.274 50.011 306.699C63.5285 333.34 75.8047 363.646 87.5413 399.349C89.9235 406.578 92.2933 414.013 94.5832 421.205C103.162 448.139 112.032 475.992 124.152 500.951C124.862 502.41 125.593 503.878 126.323 505.31C155.342 561.844 202.674 590.467 256.189 583.847C310.339 577.146 359.329 536.054 395.96 501.004C400.052 497.082 404.225 492.997 408.719 488.514C423.855 473.424 438.698 457.516 454.413 440.676C484.323 408.626 515.25 375.482 548.755 347.881C577.495 324.317 605.698 307.145 634.978 295.379C663.215 284.031 691.539 278.092 721.563 277.222C738.692 276.65 752.667 277.643 765.545 280.345C782.171 283.833 796.835 290.149 810.38 299.655C837.669 318.898 861.173 349.259 883.905 378.622C889.716 386.129 895.207 393.218 900.78 400.162C959.22 472.944 1017.39 551.666 1078.61 640.822L1078.46 641.018Z" fill="#FFE492"/>
<path d="M1076.28 638.388C1015.62 548.26 958.446 468.607 901.487 394.867C895.852 387.571 890.296 380.056 884.413 372.099C862.373 342.287 839.583 311.456 812.652 292.713C781.823 271.355 748.961 272.209 723.777 275.337C666.787 282.172 611.102 308.973 553.541 357.266C525.181 381.175 498.178 408.536 472.064 434.999C451.421 455.917 431.924 475.676 411.923 493.735C407.403 497.821 402.971 501.728 398.754 505.345C373.342 527.125 350.499 543.209 328.92 554.517C303.081 568.059 279.066 574.874 255.503 575.348C243.514 575.588 231.66 574.115 220.279 570.964C208.347 567.66 196.865 562.494 186.15 555.606C162.763 540.572 143.105 517.578 127.722 487.261C127 485.829 126.273 484.358 125.565 482.887C113.663 458.213 104.595 430.938 95.8259 404.562C93.3452 397.099 90.7784 389.38 88.1992 381.875C75.9887 346.256 63.4457 316.22 49.8543 290.048C48.0918 286.657 46.2718 283.255 44.4436 279.937C11.095 219.456 -33.3418 169.868 -84.0593 136.534C-144.269 97.1272 -206.63 82.5478 -259.652 95.4806C-295.022 104.258 -329.595 133.294 -347.732 169.449C-360.749 195.402 -365.406 224.588 -361.204 253.859L-361.405 253.912C-363.596 238.654 -363.428 223.458 -360.902 208.747C-358.557 195.092 -354.185 181.816 -347.902 169.29C-338.611 150.767 -325.133 133.98 -308.923 120.743C-293.592 108.224 -276.567 99.3934 -259.689 95.2043C-231.796 88.403 -201.527 89.1063 -169.724 97.3003C-141.06 104.685 -112.209 117.799 -83.9711 136.28C-33.2228 169.631 11.2386 219.249 44.6057 279.766C46.436 283.085 48.258 286.489 50.0205 289.883C63.6201 316.07 76.1672 346.119 88.3839 381.752C90.9651 389.257 93.5299 396.977 96.0126 404.442C104.778 430.807 113.841 458.071 125.736 482.728C126.444 484.196 127.17 485.667 127.89 487.096C157.215 544.889 202.534 576.135 255.498 575.064C298.474 574.199 343.96 551.967 398.643 505.103C402.858 501.486 407.288 497.581 411.808 493.495C431.803 475.439 451.3 455.685 471.939 434.767C498.057 408.302 525.064 380.935 553.432 357.02C582.454 332.67 610.203 314.239 638.266 300.667C666.696 286.919 694.661 278.538 723.758 275.05C748.969 271.916 781.87 271.064 812.747 292.456C839.706 311.222 862.508 342.067 884.559 371.892C890.44 379.849 895.996 387.362 901.628 394.655C958.592 468.397 1015.77 548.057 1076.43 638.19L1076.28 638.388Z" fill="#FFE492"/>
<path d="M1074.1 635.76C1014.01 544.652 957.83 464.055 902.344 389.367C896.711 381.784 891.149 373.905 885.262 365.563C863.845 335.218 841.697 303.841 815.032 285.522C783.911 264.241 751.102 267.744 725.996 273.172C672.375 284.545 619.068 314.173 558.231 366.412C535.414 386.093 513.117 407.683 491.554 428.561C465.365 453.919 440.627 477.873 415.014 498.734C410.4 502.497 405.832 506.108 401.439 509.463C375.572 529.205 352.023 543.427 329.446 552.938C316.801 558.266 304.317 562.126 292.343 564.412C279.57 566.848 266.941 567.576 254.806 566.577C230.186 564.548 207.127 555.668 186.273 540.184C163.749 523.461 144.581 499.533 129.301 469.057C128.583 467.614 127.863 466.14 127.159 464.678C115.511 440.367 106.281 413.739 97.3578 387.991C94.6556 380.196 91.863 372.136 89.054 364.294C76.3511 328.732 63.5352 298.951 49.8741 273.245C48.0869 269.882 46.2403 266.51 44.3895 263.226C10.6079 203.309 -34.1633 154.43 -85.0819 121.875C-145.693 83.2742 -208.225 69.6549 -261.159 83.5226C-317.837 98.6016 -373.067 163.754 -363.464 242.721L-363.667 242.766C-366.07 223.012 -364.662 203.552 -359.485 184.92C-354.758 167.904 -347 151.89 -336.427 137.327C-326.596 123.786 -314.802 112.095 -301.375 102.579C-288.604 93.5278 -274.711 86.8409 -261.2 83.2463C-233.34 75.9482 -203.038 76.1576 -171.138 83.8715C-142.404 90.8179 -113.422 103.519 -84.9958 121.623C-34.0485 154.201 10.7495 203.108 44.5516 263.058C46.4044 266.346 48.251 269.717 50.0403 273.083C63.7076 298.801 76.5295 328.599 89.2387 364.174C92.0477 372.016 94.8403 380.076 97.5425 387.873C106.464 413.613 115.689 440.23 127.331 464.527C128.033 465.989 128.751 467.463 129.469 468.903C158.837 527.472 203.354 562.059 254.818 566.301C298.387 569.887 346.314 551.219 401.339 509.223C405.73 505.868 410.295 502.259 414.91 498.497C440.517 477.641 465.25 453.69 491.435 428.335C513 407.454 535.3 385.861 558.12 366.177C618.982 313.916 672.313 284.277 725.963 272.896C742.833 269.248 756.8 268.082 769.922 269.229C786.696 270.694 801.479 275.941 815.122 285.271C841.818 303.609 863.978 335.006 885.408 365.368C891.295 373.707 896.855 381.586 902.485 389.166C957.975 463.86 1014.16 544.46 1074.25 635.573L1074.1 635.76Z" fill="#FFE492"/>
<path d="M1071.93 633.13C1012.41 541.029 957.219 459.495 903.204 383.863C897.615 376.037 892.091 367.84 886.244 359.158C865.407 328.233 843.861 296.252 817.412 278.326C785.615 256.868 751.279 263.87 728.219 271.003C665.629 290.126 609.538 334.585 562.926 375.557C546.173 390.343 529.463 406.005 513.3 421.151C480.879 451.535 450.257 480.234 418.113 503.733C413.386 507.19 408.683 510.503 404.132 513.581C377.759 531.384 353.505 543.742 329.982 551.356C303.316 559.988 277.794 562.159 254.117 557.805C229.795 553.332 207.011 542.213 186.402 524.756C164.786 506.448 146.108 481.584 130.884 450.854C130.174 449.411 129.457 447.935 128.758 446.467C117.399 422.602 108.055 396.706 99.0164 371.661C96.0555 363.453 92.9922 354.969 89.9144 346.711C76.5261 310.703 63.8108 282.022 49.9013 256.441C48.0896 253.108 46.2203 249.77 44.3429 246.514C10.1243 187.166 -34.9835 138.996 -86.1031 107.211C-147.117 69.4199 -209.821 56.7578 -262.664 71.5605C-319.546 87.7056 -373.647 151.973 -365.722 231.582L-365.926 231.619C-367.891 211.868 -366.19 192.427 -360.872 173.837C-355.997 156.804 -348.193 140.774 -337.676 126.194C-327.868 112.597 -316.135 100.82 -302.803 91.183C-290.108 82.0067 -276.241 75.1272 -262.705 71.2842C-234.876 63.4894 -204.544 63.2047 -172.549 70.4358C-143.746 76.9441 -114.632 89.2322 -86.0169 106.957C-34.8665 138.759 10.2659 186.957 44.5009 246.341C46.3783 249.6 48.2496 252.941 50.0634 256.273C63.9811 281.865 76.7005 310.564 90.0949 346.585C93.1727 354.843 96.2361 363.33 99.1969 371.538C108.233 396.575 117.575 422.463 128.926 446.316C129.626 447.784 130.34 449.258 131.05 450.701C160.646 510.436 204.36 548.375 254.142 557.529C298.79 565.74 347.821 551.28 404.039 513.33C408.588 510.255 413.291 506.945 418.015 503.487C450.151 479.993 480.768 451.301 513.183 420.92C529.346 405.774 546.058 390.108 562.813 375.32C594.157 347.771 620.232 327.418 644.867 311.267C673.867 292.256 701.116 278.996 728.172 270.73C744.664 265.628 759.039 263.317 772.12 263.669C788.962 264.121 803.807 268.832 817.503 278.075C843.986 296.023 865.544 328.023 886.393 358.968C892.241 367.648 897.763 375.844 903.35 383.664C957.369 459.299 1012.56 540.84 1072.09 632.943L1071.93 633.13Z" fill="#FFE492"/>
<path d="M1069.75 630.499C1010.81 537.402 956.607 454.927 904.055 378.357C898.544 370.328 893.09 361.846 887.316 352.865C867.03 321.317 846.054 288.695 819.786 271.132C787.64 249.724 753.396 259.567 730.434 268.835C673.725 291.528 623.143 334.736 567.612 384.701C557.597 393.746 547.467 403.081 537.67 412.112C499.99 446.842 461.029 482.752 421.201 508.729C416.362 511.888 411.52 514.905 406.811 517.696C380.26 533.414 354.588 544.203 330.505 549.766C303.224 556.067 277.288 555.819 253.413 549.031C229.431 542.213 206.924 528.854 186.517 509.323C165.865 489.558 147.673 463.763 132.449 432.653C131.745 431.207 131.035 429.728 130.339 428.26C119.323 404.954 109.919 379.9 100.826 355.673C97.5489 346.943 94.1613 337.917 90.7572 329.135C76.8457 293.163 63.8658 264.727 49.9091 239.643C48.0768 236.35 46.1809 233.04 44.2768 229.808C9.63138 171.019 -35.8087 123.558 -87.1336 92.5484C-148.547 55.5668 -211.422 43.8648 -264.179 59.5996C-319.255 76.2052 -374.355 138.218 -367.992 220.442L-368.195 220.47C-369.724 200.719 -367.73 181.3 -362.27 162.752C-357.249 145.7 -349.398 129.656 -338.938 115.059C-319.638 88.1333 -292.406 67.8187 -264.224 59.3233C-236.428 51.0345 -206.063 50.2531 -173.972 57.0013C-145.098 63.0742 -115.855 74.9465 -87.0515 92.2917C-35.6979 123.318 9.76886 170.81 44.4368 229.627C46.343 232.861 48.2389 236.171 50.0732 239.467C64.0361 264.565 77.0222 293.013 90.9378 328.998C94.3418 337.783 97.7314 346.809 101.008 355.539C110.1 379.761 119.502 404.809 130.512 428.104C131.205 429.572 131.915 431.048 132.619 432.494C163.079 494.735 204.862 534.938 253.452 548.755C298.445 561.548 350.012 551.013 406.725 517.439C411.432 514.648 416.27 511.634 421.106 508.478C460.92 482.509 499.877 446.604 537.549 411.881C547.346 402.849 557.476 393.514 567.493 384.469C591.801 362.597 620.086 337.51 648.157 316.565C677.521 294.656 704.413 278.958 730.371 268.57C746.712 261.976 761.085 258.554 774.307 258.113C790.982 257.555 806.309 261.853 819.87 270.884C831.637 278.751 843.481 290.492 856.077 306.78C867.2 321.161 877.502 337.186 887.466 352.681C893.238 361.659 898.692 370.141 904.201 378.167C956.755 454.74 1010.96 537.218 1069.9 630.318L1069.75 630.499Z" fill="#FFE492"/>
<path d="M1067.58 627.87C1009.21 533.768 956.003 450.352 904.912 372.855C899.502 364.65 894.142 355.912 888.469 346.663C868.712 314.46 848.284 281.159 822.166 263.942C797.759 247.903 768.479 248.796 732.654 266.672C682.564 291.524 637.789 333.094 590.383 377.109C584.48 382.59 578.378 388.255 572.304 393.851C569.926 396.047 567.546 398.249 565.168 400.449C519.999 442.225 473.293 485.424 424.297 513.729C419.343 516.593 414.366 519.314 409.501 521.814C382.367 535.749 355.97 544.619 331.044 548.174C303.133 552.154 276.781 549.491 252.725 540.259C229.117 531.197 206.887 515.596 186.654 493.889C167.042 472.849 149.339 446.124 134.034 414.45C133.337 413.002 132.633 411.52 131.941 410.049C121.344 387.474 111.971 363.431 102.904 340.18C99.233 330.764 95.4351 321.027 91.6207 311.549C77.1716 275.603 63.929 247.412 49.9395 222.836C48.0805 219.571 46.1621 216.294 44.2333 213.093C9.14883 154.873 -36.6278 108.118 -88.1537 77.8846C-149.966 41.7151 -213.015 30.9703 -265.683 47.6373C-319.747 64.8876 -374.77 127.408 -370.25 209.303L-370.455 209.325C-371.544 189.572 -369.259 170.175 -363.657 151.675C-358.488 134.603 -350.593 118.539 -340.188 103.932C-320.97 76.9496 -293.833 56.3336 -265.731 47.3666C-237.965 38.581 -207.569 37.3028 -175.384 43.571C-146.44 49.203 -117.064 60.6622 -88.0717 77.6278C-36.517 107.881 9.28836 154.661 44.3872 212.912C46.3159 216.113 48.2385 219.395 50.0975 222.66C64.0931 247.25 77.3439 275.449 91.7971 311.409C95.6136 320.887 99.4095 330.627 103.082 340.043C112.145 363.288 121.518 387.326 132.112 409.893C132.803 411.364 133.505 412.843 134.203 414.291C165.323 478.693 206.325 522.155 252.779 539.983C298.635 557.582 351.339 551.378 409.427 521.547C414.288 519.046 419.263 516.328 424.214 513.467C473.194 485.173 519.892 441.982 565.051 400.211C567.431 398.009 569.809 395.81 572.187 393.614C578.261 388.018 584.363 382.353 590.266 376.874C637.682 332.851 682.47 291.27 732.582 266.407C748.767 258.33 763.136 253.8 776.508 252.553C793.245 250.993 808.636 254.741 822.254 263.688C833.951 271.4 845.647 283.194 858.009 299.746C868.915 314.351 878.936 330.686 888.627 346.482C894.3 355.728 899.658 364.463 905.066 372.666C956.159 450.165 1009.37 533.584 1067.74 627.688L1067.58 627.87Z" fill="#FFE492"/>
<path d="M1065.4 625.241C1012.13 537.552 958.419 450.784 905.764 367.352C900.403 358.907 895.09 349.834 889.466 340.23C871.174 308.99 850.44 273.582 824.538 256.75C799.846 240.739 770.515 243.276 734.866 264.503C692.479 289.66 654.969 326.65 615.256 365.811C602.819 378.074 589.959 390.759 576.987 402.994C554.345 424.397 529.852 447.045 504.177 467.672C476.68 489.764 451.56 506.462 427.379 518.725C422.298 521.301 417.185 523.726 412.176 525.928C384.468 538.105 357.353 545.034 331.584 546.525C303.057 548.171 276.289 543.114 252.02 531.482C207.203 509.736 168.034 464.236 135.6 396.246C134.909 394.794 134.211 393.31 133.523 391.839C123.463 370.26 114.255 347.495 105.35 325.478C101.158 315.115 96.8242 304.399 92.4641 293.969C77.4651 258.031 63.9557 230.089 49.9498 206.035C48.0642 202.798 46.1211 199.552 44.1698 196.384C8.65851 138.725 -37.4547 92.6817 -89.1817 63.2214C-151.394 27.8613 -214.613 18.0794 -267.196 35.6757C-321.588 53.9809 -375.231 115.673 -372.517 198.165L-372.722 198.176C-373.372 178.417 -370.791 159.043 -365.052 140.589C-359.734 123.496 -351.793 107.415 -341.448 92.7961C-331.702 79.0233 -320.15 66.9807 -307.114 57.0006C-294.459 47.3136 -281.046 40.0462 -267.247 35.4022C-239.512 26.1226 -209.083 24.3476 -176.804 30.1331C-147.791 35.3324 -118.285 46.3758 -89.1037 62.9619C-37.3459 92.4389 8.79388 138.51 44.3257 196.197C46.277 199.368 48.2242 202.616 50.1098 205.854C64.1219 229.922 77.6374 257.875 92.6425 293.824C97.0027 304.256 101.336 314.973 105.528 325.338C114.433 347.353 123.64 370.115 133.696 391.685C134.381 393.159 135.081 394.641 135.77 396.092C168.179 464.03 207.314 509.493 252.087 531.217C298.207 553.32 353.543 551.4 412.113 525.66C417.117 523.458 422.23 521.036 427.307 518.463C481.371 491.048 530.837 446.274 576.868 402.762C589.84 390.527 602.698 377.845 615.135 365.582C654.856 326.413 692.374 289.415 734.782 264.247C770.486 242.986 799.875 240.449 824.624 256.496C836.225 264.034 847.744 275.851 859.84 292.616C870.505 307.399 880.225 324.002 889.626 340.055C895.251 349.658 900.561 358.728 905.92 367.168C958.577 450.603 1012.29 537.371 1065.56 625.062L1065.4 625.241Z" fill="#FFE492"/>
<path d="M1063.23 622.612C1010.77 534.437 958.079 446.704 906.621 361.848C901.428 353.311 896.276 344.079 890.82 334.305C872.977 302.336 852.752 266.1 826.915 249.553C801.928 233.57 772.543 237.75 737.083 262.329C699.931 288.044 665.796 324.353 632.786 359.471C616.234 377.078 599.117 395.286 581.677 412.134C554.149 438.753 530.988 459.059 508.785 476.042C481.407 496.981 455.79 512.577 430.472 523.718C425.275 526.006 420.022 528.133 414.862 530.039C387.974 539.966 361.571 544.99 336.313 544.992C334.91 544.992 333.514 544.976 332.119 544.945C302.917 544.298 275.734 536.813 251.326 522.702C239.544 515.853 228.006 507.16 217.035 496.861C206.723 487.183 196.589 475.782 186.914 462.978C169.508 439.942 153.237 412.156 137.175 378.038C136.486 376.57 135.799 375.099 135.115 373.623C125.796 353.493 116.979 332.45 108.454 312.099C103.531 300.352 98.4427 288.203 93.3172 276.378C77.5364 239.947 64.1687 213.065 49.9679 189.223C48.0576 186.016 46.0899 182.801 44.114 179.664C8.17178 122.577 -38.2758 77.2427 -90.2039 48.5556C-152.814 14.0076 -216.206 5.18571 -268.702 23.7114C-322.075 42.5999 -375.648 104.761 -374.776 187.021L-374.981 187.024C-375.388 148.708 -364.224 112.274 -342.698 81.6607C-332.968 67.8236 -321.478 55.6946 -308.543 45.6028C-295.957 35.7846 -282.571 28.3275 -268.753 23.4379C-241.051 13.6615 -210.59 11.3926 -178.216 16.6952C-149.133 21.4592 -119.496 32.0895 -90.128 48.2932C-38.1671 76.9999 8.30722 122.362 44.2719 179.483C46.2479 182.623 48.2197 185.84 50.1299 189.047C64.3369 212.903 77.7109 239.793 93.4957 276.239C98.6212 288.067 103.712 300.215 108.632 311.962C117.158 332.31 125.972 353.35 135.29 373.475C135.973 374.951 136.658 376.422 137.348 377.887C171.478 450.388 208.787 497.674 251.406 522.445C310.435 556.572 372.846 545.266 414.808 529.771C419.965 527.865 425.213 525.741 430.409 523.453C488.638 497.827 541.773 450.38 581.558 411.908C598.996 395.065 616.111 376.858 632.661 359.253C665.679 324.13 699.82 287.81 736.991 262.084C752.858 251.085 767.219 244.331 780.892 241.44C797.755 237.873 813.269 240.519 827.001 249.304C838.572 256.714 849.98 268.625 861.879 285.717C872.362 300.776 881.829 317.736 890.984 334.141C896.438 343.912 901.588 353.141 906.779 361.673C958.238 446.528 1010.93 534.262 1063.39 622.436L1063.23 622.612Z" fill="#FFE492"/>
<path d="M1061.05 619.982L907.479 356.347C902.464 347.738 897.483 338.369 892.209 328.453C874.808 295.727 855.083 258.637 829.296 242.363C804.358 226.629 774.081 232.618 739.304 260.166C705.871 286.649 675.379 321.866 645.89 355.926C626.668 378.127 606.792 401.082 586.37 421.285C524.989 482.008 471.345 517.874 417.552 534.158C395.236 540.912 373.222 544.311 351.873 544.311C345.401 544.311 338.995 543.999 332.657 543.374C302.766 540.426 275.169 530.519 250.635 513.93C227.896 498.552 207.094 476.845 187.048 447.564C171.039 424.182 155.694 396.307 138.756 359.839C129.816 340.593 121.159 320.596 112.788 301.259C93.8408 257.498 74.2498 212.247 49.9949 172.422C12.7909 111.338 -36.043 63.4362 -91.2274 33.8922C-154.233 0.159161 -217.797 -7.70546 -270.208 11.7496C-320.95 30.585 -376.023 89.98 -377.037 175.882L-377.242 175.877C-376.789 137.48 -365.276 101.051 -343.949 70.5277C-324.666 42.929 -298.496 21.9585 -270.261 11.4789C-242.59 1.20852 -212.095 -1.55721 -179.629 3.26259C-150.476 7.58841 -120.708 17.8085 -91.1514 33.6327C-63.8455 48.2511 -37.9122 67.4941 -14.0698 90.8284C9.97165 114.358 31.5796 141.747 50.1509 172.238C74.416 212.077 94.0132 257.339 112.964 301.111C121.336 320.446 129.992 340.439 138.93 359.682C163.643 412.893 198.684 478.481 250.727 513.673C310.411 554.032 374.365 546.938 417.507 533.879C471.273 517.606 524.892 481.754 586.249 421.053C606.662 400.859 626.537 377.904 645.756 355.708C675.251 321.643 705.752 286.417 739.201 259.921C774.038 232.325 804.38 226.33 829.382 242.107C840.928 249.393 852.231 261.408 863.939 278.843C874.244 294.189 883.462 311.523 892.376 328.285C897.649 338.201 902.629 347.565 907.641 356.172L1061.22 619.807L1061.05 619.982Z" fill="#FFE492"/>
<path d="M1059.82 599.716C1020.71 526.311 987.156 466.745 954.223 412.265C938.237 385.8 921.911 359.75 905.697 334.839C900.793 327.303 895.934 319.288 890.791 310.801C877.864 289.471 864.496 267.414 849.114 251.046C840.855 242.241 832.904 235.936 824.807 231.772C799.953 218.865 770.792 227.399 738.137 257.141C721.236 272.511 705.848 290.001 693.024 305.083C679.447 321.049 666.054 338.656 653.101 355.683C634.484 380.159 615.234 405.467 594.539 427.202C581.947 440.467 569.182 452.32 556.598 462.434C531.422 482.667 504.4 499.34 476.281 511.988C458.908 519.716 441.451 525.557 424.398 529.347C409.701 532.601 394.977 534.479 380.632 534.929C359.164 535.604 338.247 533.028 318.463 527.265C297.428 521.136 277.521 511.354 259.296 498.187C243.046 486.446 227.696 471.663 212.371 452.989C183.813 418.221 161.036 378.019 144.383 346.878C136.202 331.509 128.214 315.836 120.489 300.679C98.2451 257.027 77.2342 215.798 50.9419 179.073C29.498 149.317 5.03189 123.638 -21.7837 102.746C-42.3904 86.69 -64.8026 73.559 -88.3968 63.7157C-94.0168 61.3741 -99.7435 59.1917 -105.413 57.2353C-129.821 48.8265 -157.3 43.3508 -187.082 40.9591C-217.109 38.4919 -243.087 40.6269 -266.497 47.4924C-279.731 51.3438 -292.553 57.386 -304.612 65.4488C-347.184 93.9155 -374.52 141.703 -377.738 193.284L-377.994 193.253C-377.136 179.503 -374.619 165.959 -370.513 152.992C-366.613 140.676 -361.255 128.798 -354.591 117.688C-341.999 96.7008 -324.755 78.5267 -304.725 65.1334C-292.648 57.0567 -279.805 51.0061 -266.55 47.1492C-243.116 40.2781 -217.117 38.1403 -187.066 40.6102C-157.267 43.002 -129.774 48.4832 -105.349 56.8976C-99.6737 58.8568 -93.945 61.0392 -88.3209 63.3836C-64.7083 73.2325 -42.2775 86.3746 -21.6544 102.444C5.17963 123.351 29.6664 149.052 51.1204 178.827C77.4292 215.574 98.4442 256.815 120.696 300.478C128.42 315.635 136.407 331.305 144.586 346.672C161.231 377.798 183.998 417.981 212.539 452.727C227.848 471.381 243.181 486.15 259.413 497.877C295.081 523.645 335.861 535.995 380.624 534.58C394.956 534.131 409.67 532.252 424.355 529.001C441.396 525.211 458.84 519.375 476.199 511.653C504.301 499.013 531.307 482.352 556.467 462.129C569.043 452.024 581.799 440.177 594.381 426.923C615.064 405.199 634.31 379.897 652.92 355.43C665.876 338.4 679.27 320.787 692.853 304.815C705.683 289.724 721.08 272.229 737.994 256.848C752.533 243.606 766.611 234.457 779.839 229.654C796.088 223.754 811.249 224.357 824.898 231.446C833.019 235.624 840.992 241.945 849.271 250.77C864.677 267.163 878.053 289.233 890.99 310.578C896.131 319.062 900.99 327.077 905.89 334.607C922.108 359.521 938.437 385.574 954.424 412.045C987.359 466.531 1020.91 526.101 1060.02 599.512L1059.82 599.716Z" fill="#FFE492"/>
<path d="M1058.58 579.443C1022.32 504.796 988.287 442.331 954.541 388.481C938.083 362.178 921.05 336.892 903.916 313.329C899.369 307.078 894.881 300.581 890.129 293.704C875.898 273.11 861.182 251.816 844.699 237.083C836.377 229.612 828.404 224.41 820.317 221.178C789.355 208.798 757.904 232.252 736.969 254.107C722.136 269.546 708.59 287.003 694.87 305.024C682.86 320.798 671.561 337.766 659.598 355.728C641.844 382.392 623.484 409.963 602.707 433.113C590.377 446.925 577.51 458.867 564.462 468.607C540.158 486.753 513.544 500.844 483.099 511.689C466.06 517.756 448.611 522.079 431.236 524.533C416.576 526.578 401.942 527.31 387.739 526.698C366.609 525.8 345.955 521.759 326.348 514.689C305.756 507.263 286.107 496.412 267.95 482.438C252.042 470.198 236.682 455.01 220.992 436.01C192.496 401.551 168.085 363.35 150.004 333.917C143.311 323.022 136.725 312.059 130.354 301.454C104.983 259.223 81.0191 219.33 51.887 185.723C30.1149 160.605 5.67123 139.367 -20.7606 122.6C-40.7599 109.912 -61.9576 100.407 -85.562 93.5384C-91.0096 91.9559 -96.5517 90.5298 -102.032 89.2991C-126.104 83.9211 -151.796 81.8866 -182.879 79.7823C-205.285 78.1887 -234.616 77.1393 -262.794 83.2289C-276.139 86.0589 -289.039 90.9736 -301.139 97.8307C-343.739 121.98 -372.638 164.167 -378.444 210.684L-378.748 210.615C-377.209 198.279 -374.09 186.181 -369.484 174.652C-365.093 163.667 -359.323 153.134 -352.337 143.338C-339.059 124.729 -321.397 108.857 -301.258 97.4428C-289.136 90.5717 -276.211 85.6486 -262.843 82.8131C-234.639 76.7151 -205.285 77.7673 -182.865 79.3608C-151.771 81.4651 -126.072 83.4997 -101.983 88.8804C-96.4983 90.114 -90.9522 91.5401 -85.4984 93.1225C-61.8714 99.9992 -40.6533 109.513 -20.6313 122.214C5.82718 138.999 30.2913 160.254 52.086 185.397C81.2386 219.029 105.212 258.933 130.592 301.181C136.961 311.783 143.547 322.746 150.24 333.638C168.317 363.059 192.717 401.247 221.197 435.689C236.869 454.669 252.213 469.84 268.102 482.067C303.804 509.543 344.061 524.415 387.749 526.274C401.94 526.883 416.559 526.154 431.205 524.108C448.564 521.658 465.998 517.341 483.021 511.276C513.441 500.442 540.033 486.362 564.317 468.233C577.348 458.504 590.199 446.578 602.514 432.781C623.272 409.65 641.624 382.09 659.373 355.44C671.339 337.47 682.641 320.499 694.658 304.717C708.385 286.685 721.937 269.223 736.785 253.767C750.355 239.598 763.742 229.405 776.572 223.467C792.129 216.266 806.878 215.359 820.408 220.768C828.523 224.014 836.525 229.232 844.872 236.726C861.383 251.487 876.111 272.8 890.355 293.411C895.105 300.285 899.594 306.779 904.137 313.028C921.278 336.599 938.315 361.893 954.779 388.205C988.532 442.068 1022.57 504.545 1058.83 579.208L1058.58 579.443Z" fill="#FFE492"/>
<path d="M1057.34 559.171C1023.41 482.269 989.888 418.657 954.865 364.701C937.932 338.559 920.193 314.042 902.141 291.824C898.284 287.073 894.312 282.033 890.47 277.16C874.608 257.027 858.205 236.21 840.297 223.124C831.89 216.939 823.89 212.837 815.841 210.585C784.944 201.936 755.266 227.829 735.811 251.071C722.623 266.762 710.569 284.545 698.91 301.745L696.727 304.966C686.142 320.569 676.213 337.683 665.699 355.804C648.958 384.658 631.649 414.493 610.882 439.024C598.799 453.403 585.829 465.434 572.332 474.784C548.799 491.085 522.61 502.717 489.918 511.391C473.012 515.876 455.572 518.678 438.078 519.716C423.454 520.551 408.911 520.132 394.847 518.466C352.272 513.445 312.49 496.025 276.608 466.69C261.096 454.008 245.726 438.421 229.621 419.031C202.366 386.286 178.125 352.628 155.635 320.96C152.619 316.715 149.636 312.498 146.675 308.315C115.957 264.92 86.9435 223.93 52.8459 192.383C30.5855 171.786 6.16647 154.991 -19.7299 142.46C-38.7422 133.261 -59.3469 127.015 -82.7174 123.365C-87.9845 122.547 -93.3418 121.874 -98.6418 121.367C-111.975 120.111 -126.116 119.907 -141.088 119.692C-153.114 119.519 -165.548 119.34 -178.67 118.612C-204.012 117.085 -232.734 115.358 -259.088 118.975C-272.685 120.842 -285.663 124.626 -297.662 130.225C-340.246 150.096 -370.708 186.686 -379.147 228.106L-379.494 227.974C-377.27 217.054 -373.552 206.401 -368.445 196.312C-363.562 186.664 -357.381 177.471 -350.077 168.99C-336.106 152.769 -318.021 139.206 -297.781 129.761C-285.756 124.149 -272.751 120.356 -259.127 118.486C-232.746 114.867 -204.01 116.597 -178.658 118.124C-165.544 118.849 -153.11 119.031 -141.088 119.204C-126.11 119.419 -111.964 119.622 -98.6192 120.881C-93.3152 121.392 -87.9517 122.064 -82.6805 122.882C-59.2812 126.535 -38.652 132.79 -19.6129 142.002C6.31418 154.547 30.7599 171.362 53.045 191.981C87.1733 223.556 116.201 264.565 146.931 307.98C149.892 312.163 152.877 316.377 155.892 320.625C178.378 352.287 202.61 385.937 229.857 418.671C245.945 438.039 261.299 453.612 276.792 466.277C312.628 495.575 352.358 512.971 394.878 517.986C408.925 519.649 423.454 520.068 438.061 519.233C455.537 518.195 472.961 515.396 489.848 510.917C522.507 502.251 548.666 490.633 572.168 474.354C585.636 465.024 598.581 453.015 610.644 438.661C631.384 414.161 648.683 384.343 665.414 355.505C675.932 337.376 685.867 320.254 696.46 304.639L698.644 301.418C710.308 284.21 722.369 266.416 735.57 250.709C755.088 227.391 784.87 201.422 815.911 210.11C823.997 212.373 832.028 216.49 840.465 222.7C858.412 235.814 874.833 256.653 890.713 276.809C894.552 281.682 898.524 286.722 902.379 291.469C920.44 313.698 938.188 338.23 955.13 364.386C990.167 418.364 1023.7 481.998 1057.64 558.925L1057.34 559.171Z" fill="#FFE492"/>
<path d="M1056.1 538.894C1024.94 460.831 990.989 394.222 955.183 340.922C937.775 314.945 919.331 291.192 900.364 270.322C897.624 267.307 894.819 264.179 892.105 261.154C874.178 241.168 855.639 220.499 835.895 209.168C827.418 204.254 819.396 201.254 811.363 199.992C780.552 195.158 752.639 223.449 734.646 248.034C723.474 263.222 713.389 280.112 703.637 296.447C701.95 299.274 700.264 302.095 698.575 304.906C689.298 320.345 680.625 337.592 671.443 355.85C655.833 386.89 639.691 418.985 619.049 444.94C606.927 460.181 594.218 471.964 580.192 480.967C550.854 499.797 521.536 506.765 496.727 511.102C479.947 514.033 462.514 515.317 444.909 514.909C430.331 514.532 415.876 512.961 401.948 510.243C360.65 502.202 321.39 482.253 285.259 450.948C270.226 437.926 254.847 421.935 238.241 402.061C221.468 382.034 205.837 362.763 190.719 344.126C180.445 331.458 170.74 319.494 161.262 308.015C125.437 264.623 92.6219 226.472 53.8031 199.049C31.0646 182.987 6.6702 170.629 -18.7029 162.321C-36.8884 156.365 -56.3276 153.466 -79.8766 153.189C-84.957 153.139 -90.1317 153.22 -95.2552 153.432C-103.038 153.776 -111.089 154.493 -119.611 155.255C-135.964 156.714 -154.502 158.369 -174.471 157.443C-182.075 157.088 -189.833 156.589 -197.337 156.103C-216.636 154.856 -236.592 153.566 -255.393 154.719C-269.2 155.567 -282.258 158.224 -294.2 162.617C-336.712 178.26 -368.735 209.258 -379.865 245.536L-380.244 245.321C-377.331 235.821 -373.013 226.617 -367.414 217.962C-362.036 209.651 -355.446 201.801 -347.829 194.631C-333.152 180.816 -314.647 169.561 -294.311 162.078C-282.34 157.674 -269.254 155.009 -255.416 154.161C-236.594 153.005 -216.63 154.297 -197.32 155.545C-189.819 156.031 -182.061 156.53 -174.458 156.885C-154.508 157.811 -135.984 156.159 -119.639 154.699C-111.114 153.937 -103.06 153.22 -95.2696 152.877C-90.14 152.665 -84.9611 152.584 -79.8746 152.634C-56.2927 152.908 -36.8248 155.816 -18.6085 161.78C6.79535 170.099 31.2226 182.471 53.9899 198.555C71.5249 210.941 89.2939 226.634 108.312 246.527C125.339 264.335 141.901 283.821 161.533 307.599C171.011 319.081 180.716 331.045 190.992 343.713C206.107 362.347 221.738 381.618 238.508 401.642C255.097 421.497 270.459 437.471 285.475 450.48C321.557 481.743 360.761 501.664 402.001 509.693C415.913 512.409 430.349 513.977 444.911 514.354C462.496 514.761 479.91 513.48 496.669 510.55C521.447 506.221 550.727 499.261 580.013 480.464C594 471.486 606.677 459.734 618.766 444.532C639.373 418.622 655.503 386.552 671.101 355.537C680.289 337.269 688.966 320.013 698.253 304.557C699.941 301.747 701.626 298.925 703.312 296.101C713.071 279.755 723.162 262.853 734.349 247.646C746.055 231.651 758.064 219.347 770.043 211.075C784.231 201.276 798.147 197.363 811.402 199.445C819.474 200.712 827.535 203.726 836.046 208.66C855.845 220.022 874.406 240.716 892.355 260.727C895.07 263.752 897.875 266.88 900.612 269.892C919.593 290.779 938.052 314.554 955.474 340.551C974.486 368.853 993.107 401.098 1010.81 436.391C1026.47 467.585 1041.82 501.985 1056.45 538.631L1056.1 538.894Z" fill="#FFE492"/>
<path d="M1054.86 518.613C1026.02 438.312 992.598 370.528 955.506 317.141C937.623 291.329 918.475 268.343 898.594 248.819C897.649 247.889 896.703 246.96 895.755 246.028C875.082 225.699 853.706 204.678 831.505 195.215C822.904 191.547 814.855 189.647 806.9 189.401C776.212 188.458 750.043 219.113 733.495 244.992C723.757 260.133 715.112 276.727 706.753 292.774C704.687 296.743 702.549 300.846 700.44 304.842C692.402 320.063 684.932 337.37 677.024 355.694C662.639 389.025 647.765 423.49 627.23 450.851C615.35 466.681 602.538 478.553 588.062 487.149C559.544 504.081 530.586 508.527 503.543 510.81C486.867 512.216 469.441 511.976 451.748 510.098C437.217 508.507 422.854 505.786 409.055 502.013C369.163 491.129 330.424 468.651 293.92 435.203C279.301 421.81 264.351 405.885 246.875 385.088C213.662 345.669 188.999 317.906 166.909 295.069C122.973 249.647 89.4393 222.925 54.7857 205.717C31.5855 194.196 7.21573 186.278 -17.6506 182.181C-34.9025 179.34 -53.2111 179.594 -77.0125 183.013C-81.8897 183.722 -86.8798 184.556 -91.8453 185.497C-96.5358 186.398 -101.3 187.431 -106.346 188.522C-124.974 192.555 -146.09 197.126 -170.257 196.272C-182.994 195.823 -196.005 194.592 -208.587 193.403C-222.886 192.053 -237.672 190.654 -251.69 190.465C-265.745 190.275 -278.883 191.804 -290.729 195.014C-333.099 206.487 -366.688 231.898 -380.577 262.985L-380.971 262.658C-377.364 254.582 -372.447 246.826 -366.36 239.606C-360.483 232.634 -353.486 226.129 -345.562 220.265C-330.169 208.873 -311.239 199.926 -290.819 194.397C-278.941 191.182 -265.774 189.647 -251.686 189.837C-237.656 190.026 -222.862 191.425 -208.556 192.778C-195.978 193.967 -182.974 195.198 -170.246 195.647C-146.123 196.498 -125.03 191.933 -106.422 187.905C-101.374 186.811 -96.6056 185.782 -91.913 184.877C-86.9414 183.937 -81.9472 183.102 -77.0659 182.391C-53.2275 178.969 -34.8881 178.712 -17.5993 181.562C7.30191 185.664 31.7065 193.593 54.9396 205.131C89.6404 222.361 123.209 249.112 167.184 294.572C189.282 317.418 213.953 345.189 247.175 384.619C264.638 405.399 279.571 421.307 294.174 434.687C330.63 468.088 369.311 490.534 409.143 501.402C422.924 505.17 437.27 507.885 451.781 509.476C469.453 511.351 486.857 511.591 503.512 510.188C530.514 507.907 559.423 503.473 587.875 486.58C602.298 478.017 615.064 466.184 626.904 450.41C647.393 423.107 662.253 388.679 676.622 355.384C684.536 337.049 692.011 319.729 700.06 304.485C702.169 300.491 704.307 296.389 706.374 292.42C714.739 276.359 723.39 259.753 733.144 244.588C743.943 227.697 755.265 214.338 766.794 204.877C780.299 193.794 793.798 188.383 806.908 188.782C814.908 189.027 822.998 190.939 831.641 194.623C853.916 204.12 875.323 225.169 896.024 245.528C896.971 246.46 897.919 247.392 898.863 248.319C918.766 267.866 937.937 290.879 955.841 316.72C992.963 370.154 1026.42 437.991 1055.27 518.348L1054.86 518.613Z" fill="#FFE492"/>
<path d="M513.754 510.52C512.603 510.52 511.468 510.518 510.352 510.509C493.763 510.414 476.343 508.656 458.58 505.279C444.102 502.474 429.829 498.603 416.158 493.778C396.625 486.896 377.021 477.005 357.888 464.382C339.411 452.192 320.803 437.076 302.578 419.452C284.721 402.185 268.042 382.945 255.505 368.111C226.172 333.499 198.262 304.569 172.553 282.122C130.913 245.769 93.8051 223.607 55.77 212.379C32.8242 205.606 8.20621 202.033 -15.4967 202.033C-15.864 202.033 -16.2292 202.033 -16.5965 202.036C-36.959 202.131 -56.2915 207.277 -74.1466 212.826C-78.7941 214.28 -83.6015 215.868 -88.4357 217.551C-91.0846 218.483 -93.7376 219.443 -96.5446 220.459C-116.343 227.634 -138.784 235.764 -166.047 235.097C-182.65 234.689 -199.609 232.35 -216.009 230.087C-226.599 228.625 -237.547 227.115 -247.991 226.202C-262.348 224.949 -275.56 225.351 -287.264 227.402C-329.408 234.781 -364.563 254.607 -381.304 280.44L-381.689 279.979C-373.102 266.731 -360.186 255.261 -343.299 245.883C-327.172 236.93 -307.817 230.299 -287.329 226.713C-275.595 224.659 -262.348 224.251 -247.958 225.51C-237.504 226.423 -226.549 227.935 -215.956 229.398C-199.566 231.661 -182.617 234 -166.036 234.404C-138.843 235.071 -116.441 226.953 -96.6759 219.792C-93.8669 218.773 -91.2139 217.813 -88.5629 216.881C-83.7246 215.198 -78.9131 213.607 -74.2615 212.153C-56.3756 206.596 -37.0103 201.442 -16.5985 201.344C7.4819 201.23 32.5411 204.813 55.8788 211.704C75.5088 217.5 94.5396 226.032 114.055 237.787C132.85 249.109 152.075 263.421 172.828 281.542C198.558 304.006 226.488 332.958 255.839 367.592C268.366 382.417 285.033 401.644 302.872 418.891C339.852 454.653 378.01 479.623 416.285 493.111C429.938 497.931 444.192 501.796 458.65 504.598C476.39 507.97 493.785 509.728 510.352 509.82C536.275 509.965 566.376 508.776 595.733 492.687C610.593 484.543 623.448 472.635 635.034 456.283C655.383 427.565 668.871 390.706 681.919 355.059C688.631 336.723 694.969 319.403 701.861 304.41C704.069 299.607 706.297 294.659 708.452 289.873C715.731 273.702 723.258 256.985 731.929 241.532C741.839 223.755 752.474 209.334 763.536 198.673C776.362 186.312 789.436 179.397 802.397 178.119C810.397 177.329 818.517 178.135 827.221 180.586C850.491 187.133 873.555 206.155 897.102 226.744C917.633 244.694 938.067 267.565 956.195 292.887C976.33 320.932 995.25 353.833 1012.43 390.676C1027.73 423.499 1041.75 459.629 1054.09 498.065L1053.62 498.344C1027.11 415.802 994.214 346.84 955.828 293.375C937.727 268.09 917.325 245.253 896.825 227.332C873.319 206.781 850.3 187.794 827.116 181.269C818.459 178.833 810.385 178.032 802.434 178.816C778.619 181.169 753.724 203.591 732.337 241.957C723.682 257.382 716.162 274.085 708.889 290.238C706.734 295.027 704.504 299.978 702.296 304.781C695.416 319.746 689.082 337.052 682.379 355.371C675.977 372.862 669.358 390.949 661.762 408.336C653.15 428.048 644.53 443.889 635.406 456.769C623.768 473.193 610.856 485.154 595.926 493.337C582.76 500.554 568.608 505.324 552.663 507.925C539.16 510.116 525.597 510.52 513.754 510.52Z" fill="#FFE492"/>
<path d="M546.656 511.918C536.194 511.918 526.144 511.069 517.153 510.21C500.621 508.63 483.209 505.351 465.403 500.461C450.987 496.445 436.805 491.427 423.25 485.541C386.134 469.458 349.49 442.685 311.226 403.7C294.538 386.701 278.806 368.409 264.128 351.134C235.147 317.127 206.237 289.554 178.194 269.175C136.952 239.204 98.3652 223.271 56.7579 219.034C33.0509 216.62 8.05124 217.606 -15.5409 221.881C-35.2878 225.459 -53.9042 234.094 -71.2833 242.628C-75.6312 244.775 -80.256 247.119 -85.0266 249.594C-86.2187 250.217 -87.4211 250.85 -88.6399 251.489C-108.656 262.016 -131.304 273.928 -160.37 273.928C-160.861 273.928 -161.349 273.925 -161.844 273.917C-181.508 273.646 -201.586 269.828 -221.004 266.133C-228.703 264.668 -236.664 263.155 -244.303 261.93C-259.224 259.541 -272.147 258.835 -283.811 259.778C-326.237 263.211 -362.048 277.098 -382.058 297.887L-382.4 297.276C-372.508 287 -358.205 278.078 -341.041 271.475C-324.159 264.98 -304.381 260.671 -283.846 259.011C-272.149 258.065 -259.193 258.771 -244.239 261.165C-236.592 262.39 -228.629 263.906 -220.928 265.368C-201.528 269.058 -181.469 272.873 -161.841 273.144C-132.17 273.557 -109.152 261.447 -88.8471 250.766C-87.6303 250.127 -86.4259 249.494 -85.2338 248.869C-80.4592 246.39 -75.8322 244.046 -71.4803 241.9C-54.0724 233.349 -35.4212 224.703 -15.6209 221.114C8.00818 216.833 33.0489 215.845 56.7949 218.261C77.4138 220.36 97.0726 225.317 116.893 233.41C137.307 241.746 157.444 253.22 178.455 268.491C206.532 288.898 235.48 316.505 264.491 350.545C279.164 367.815 294.885 386.095 311.558 403.077C349.772 442.01 386.36 468.743 423.416 484.802C436.95 490.677 451.114 495.689 465.51 499.699C483.291 504.583 500.679 507.86 517.186 509.434C544.964 512.085 574.514 513.447 603.585 498.776C618.881 491.053 631.826 479.069 643.156 462.137C663.343 431.977 675.906 390.837 686.992 354.539C692.569 336.275 697.838 319.025 703.651 304.32C705.748 299.015 707.859 293.531 709.901 288.228C716.286 271.636 722.889 254.481 730.705 238.459C739.747 219.794 749.695 204.313 760.27 192.446C772.417 178.818 785.07 170.401 797.876 167.434C805.88 165.578 814.03 165.283 822.787 166.522C847.256 169.991 872.114 187.132 895.332 205.142C916.772 221.77 937.937 243.862 956.543 269.03C977.24 296.944 996.31 330.175 1013.22 367.793C1028.34 401.433 1041.69 438.429 1052.9 477.758L1052.37 478.034C1028.55 394.437 995.28 322.352 956.147 269.571C937.578 244.451 916.452 222.4 895.055 205.806C871.892 187.838 847.098 170.739 822.732 167.284C814.026 166.05 805.927 166.346 797.974 168.188C774.329 173.666 750.608 198.77 731.179 238.877C723.378 254.866 716.783 272.005 710.404 288.58C708.362 293.885 706.251 299.369 704.152 304.68C698.351 319.352 693.088 336.585 687.516 354.829C676.411 391.183 663.827 432.39 643.575 462.651C632.181 479.675 619.164 491.726 603.782 499.493C590.432 506.23 576.033 510.132 559.755 511.413C555.354 511.775 550.971 511.918 546.656 511.918Z" fill="#FFE492"/>
<path d="M567.312 514.94C567.162 514.94 567.015 514.94 566.865 514.94C552.079 514.89 537.562 512.429 523.959 509.911C507.452 506.858 490.05 502.055 472.234 495.642C457.883 490.42 443.791 484.25 430.352 477.306C394.719 458.923 359.618 430.531 319.884 387.951C305.575 372.621 291.493 356.113 277.873 340.152C276.17 338.154 274.465 336.158 272.76 334.163C243.63 300.165 213.716 273.945 183.851 256.234C142.956 231.984 101.712 221.993 57.7611 225.691C33.6622 227.72 8.68512 233.265 -14.4699 241.727C-32.7396 248.406 -49.0189 259.12 -68.4048 272.432C-72.334 275.142 -76.53 278.067 -81.6063 281.639L-81.8895 281.84C-91.683 288.778 -102.783 296.64 -115.234 302.618C-129.533 309.483 -143.406 312.788 -157.631 312.749C-179.814 312.673 -202.452 307.058 -224.343 301.624C-229.706 300.293 -235.255 298.917 -240.61 297.673C-255.968 294.109 -268.968 292.309 -280.354 292.172C-322.277 291.669 -359.625 300.12 -382.819 315.353L-383.086 314.599C-371.725 307.136 -356.4 301.08 -338.768 297.084C-321.104 293.079 -300.901 291.092 -280.348 291.337C-268.929 291.474 -255.896 293.277 -240.505 296.849C-235.146 298.094 -229.598 299.47 -224.232 300.801C-202.368 306.227 -179.758 311.836 -157.629 311.911C-157.531 311.911 -157.43 311.911 -157.332 311.911C-125.678 311.911 -101.563 294.831 -82.1726 281.098L-81.8874 280.897C-76.8091 277.322 -72.6131 274.397 -68.6817 271.687C-49.2631 258.352 -32.955 247.619 -14.6279 240.921C8.5661 232.442 33.5842 226.888 57.7242 224.856C79.2316 223.048 99.5183 224.427 119.747 229.076C141.546 234.086 162.596 242.718 184.097 255.469C214.019 273.214 243.985 299.475 273.162 333.529C274.867 335.525 276.572 337.523 278.275 339.521C291.889 355.477 305.967 371.979 320.264 387.298C359.947 429.825 394.996 458.177 430.569 476.53C443.99 483.465 458.062 489.625 472.392 494.841C490.183 501.246 507.56 506.04 524.041 509.088C553.561 514.553 582.461 518.343 611.453 504.902C627.187 497.607 640.22 485.547 651.294 468.032C671.3 436.392 682.228 392.55 691.871 353.866C696.385 335.757 700.649 318.649 705.459 304.273C707.31 298.741 709.167 293.02 710.962 287.486C716.576 270.183 722.38 252.293 729.498 235.425C737.691 215.864 746.951 199.32 757.018 186.253C768.494 171.361 780.723 161.448 793.366 156.793C801.206 153.907 809.206 152.501 817.803 152.501C817.99 152.501 818.177 152.501 818.366 152.504C845.093 152.693 872.598 169.21 893.576 183.577C915.923 198.885 937.822 220.196 956.906 245.207C978.167 272.993 997.387 306.55 1014.03 344.95C1028.97 379.408 1041.65 417.272 1051.72 457.494L1051.14 457.764C1036.15 397.917 1007.56 312.567 956.479 245.813C937.44 220.857 915.592 199.596 893.299 184.325C872.383 169.997 844.962 153.528 818.364 153.341C809.604 153.271 801.485 154.672 793.528 157.602C770.102 166.229 747.552 194.015 730.032 235.841C722.93 252.67 717.132 270.54 711.524 287.824C709.729 293.361 707.87 299.085 706.019 304.619C701.222 318.958 696.962 336.044 692.454 354.134C682.794 392.888 671.845 436.813 651.762 468.576C640.614 486.209 627.493 498.349 611.653 505.692C598.227 511.912 583.717 514.94 567.312 514.94Z" fill="#FFE492"/>
<path d="M583.73 518.87C580.546 518.87 577.292 518.73 573.959 518.451C559.375 517.231 545.201 513.573 530.756 509.61C514.011 505.016 497.099 498.87 479.055 490.822C464.779 484.397 450.779 477.079 437.444 469.067C403.615 448.772 370.027 418.896 328.536 372.199C318.232 360.603 307.932 348.441 297.97 336.677C292.547 330.275 286.941 323.652 281.387 317.186C251.91 282.959 220.997 258.098 189.505 243.29C147.896 223.723 105.131 220.139 58.7638 232.335C34.2668 238.78 9.31232 248.885 -13.3996 261.559C-31.6446 271.74 -47.5381 286.037 -64.3653 301.175L-65.5287 302.221C-68.1571 304.593 -70.8143 306.999 -73.5042 309.433C-75.0534 310.837 -76.6128 312.249 -78.1866 313.672C-87.9985 322.594 -98.5963 331.902 -110.749 339.066C-124.86 347.383 -138.817 351.474 -153.422 351.575C-177.736 351.737 -202.537 344.051 -226.518 336.61C-229.941 335.547 -233.482 334.45 -236.919 333.409C-253.032 328.525 -265.735 325.715 -276.902 324.559C-318.107 320.298 -356.993 323.301 -383.593 332.801L-383.764 331.924C-357.094 322.399 -318.127 319.385 -276.85 323.655C-265.653 324.813 -252.918 327.632 -236.774 332.524C-233.335 333.568 -229.793 334.665 -226.369 335.728C-202.68 343.077 -178.193 350.67 -154.201 350.67C-153.943 350.67 -153.684 350.67 -153.424 350.668C-122.391 350.456 -100.301 332.689 -78.5538 312.919C-76.9801 311.495 -75.4207 310.083 -73.8715 308.679C-71.1815 306.243 -68.5265 303.84 -65.896 301.465L-64.7326 300.418C-47.8767 285.256 -31.9565 270.933 -13.6519 260.718C9.10098 248.02 34.0986 237.898 58.6387 231.442C105.123 219.216 148.003 222.81 189.725 242.43C221.294 257.277 252.279 282.194 281.822 316.496C287.376 322.966 292.984 329.586 298.407 335.991C308.365 347.751 318.663 359.911 328.961 371.499C370.402 418.142 403.944 447.976 437.713 468.238C451.029 476.237 465.008 483.546 479.265 489.959C497.282 497.997 514.169 504.134 530.889 508.719C556.27 515.682 587.859 524.351 619.315 510.999C635.488 504.137 648.608 492.002 659.423 473.901C679.235 440.745 688.422 394.113 696.528 352.973C700.049 335.1 703.375 318.218 707.257 304.208C708.77 298.749 710.286 293.104 711.751 287.642C716.667 269.325 721.752 250.387 728.281 232.375C735.645 211.904 744.215 194.296 753.754 180.04C764.564 163.887 776.37 152.481 788.845 146.137C796.851 142.065 805.057 139.556 813.931 138.465C825.815 137.003 838.465 138.566 852.602 143.232C864.564 147.184 877.388 153.318 891.809 161.989C915.064 175.974 937.696 196.506 957.258 221.365C979.086 249.019 998.455 282.909 1014.83 322.087C1029.58 357.366 1041.59 396.097 1050.54 437.209L1049.9 437.466C1031.01 350.67 997.947 274.159 956.803 222.029C937.294 197.238 914.726 176.764 891.538 162.821C860.469 144.139 835.83 136.685 813.99 139.369C805.176 140.452 797.028 142.944 789.077 146.986C759.397 162.076 739.958 201.968 728.878 232.774C722.365 250.741 717.287 269.658 712.377 287.952C710.91 293.416 709.393 299.065 707.881 304.527C704.011 318.495 700.69 335.357 697.173 353.207C689.049 394.437 679.843 441.167 659.94 474.473C649.038 492.717 635.814 504.949 619.512 511.867C608.463 516.556 596.68 518.87 583.73 518.87Z" fill="#FFE492"/>
<path d="M597.957 523.374C576.259 523.374 555.398 515.792 537.551 509.306C520.76 503.205 503.857 495.58 485.875 485.999C471.678 478.38 457.769 469.913 444.534 460.829C404.862 433.629 369.494 394.588 337.186 356.448C330.589 348.662 323.925 340.635 317.482 332.874C308.536 322.095 299.284 310.952 290.014 300.212C260.096 265.648 228.184 242.14 195.166 230.343C152.452 215.086 108.163 217.907 59.7684 238.973C34.8508 249.818 9.9209 264.484 -12.3273 281.385C-29.4868 294.419 -44.0057 310.873 -59.376 328.294C-60.4656 329.527 -61.5572 330.767 -62.6549 332.006L-63.2499 332.681C-66.9863 336.92 -70.85 341.302 -74.7669 345.7C-84.1521 356.286 -94.4872 367.235 -106.441 375.599C-120.318 385.308 -134.307 390.15 -149.214 390.402C-175.379 390.845 -202.047 380.84 -227.835 371.164C-229.642 370.486 -231.442 369.811 -233.233 369.144C-250.239 362.797 -262.644 359.035 -273.453 356.942C-313.624 349.167 -354.054 346.722 -384.376 350.236L-384.438 349.262C-354.066 345.74 -313.577 348.187 -273.353 355.974C-262.513 358.072 -250.081 361.843 -233.044 368.2C-231.253 368.867 -229.453 369.543 -227.644 370.224C-201.905 379.88 -175.289 389.86 -149.224 389.425C-116.852 388.878 -94.0543 366.18 -75.2266 344.947C-71.3096 340.549 -67.446 336.167 -63.7096 331.93L-63.1145 331.255C-62.0168 330.013 -60.9252 328.777 -59.8357 327.543C-44.4386 310.092 -29.8951 293.609 -12.6781 280.531C9.61105 263.599 34.5881 248.908 59.5488 238.043C82.4926 228.058 104.043 222.292 125.429 220.416C149.286 218.326 172.809 221.348 195.346 229.4C228.469 241.233 260.476 264.808 290.478 299.467C299.754 310.212 309.008 321.359 317.956 332.14C324.399 339.901 331.059 347.925 337.654 355.708C369.929 393.806 405.254 432.806 444.855 459.955C458.07 469.025 471.959 477.482 486.136 485.09C504.091 494.657 520.968 502.27 537.733 508.362C563.476 517.717 595.513 529.361 627.169 517.109C643.781 510.679 656.987 498.469 667.543 479.781C687.151 445.066 694.488 395.565 700.962 351.888C703.563 334.339 706.02 317.764 709.048 304.153C710.168 299.118 711.293 293.916 712.38 288.884C716.636 269.203 721.037 248.849 727.055 229.333C733.602 207.936 741.484 189.259 750.479 173.829C760.627 156.416 772.011 143.517 784.314 135.488C792.304 130.274 800.536 126.66 809.486 124.436C821.542 121.441 834.92 121.542 849.249 124.735C861.796 127.531 875.516 132.803 890.029 140.408C914.191 153.07 937.558 172.821 957.602 197.526C979.996 225.052 999.517 259.268 1015.62 299.227C1030.18 335.327 1041.52 374.929 1049.35 416.931L1048.65 417.171C1032.07 328.171 999.569 250.424 957.122 198.251C937.141 173.628 913.853 153.941 889.772 141.321C858.558 124.964 832.337 119.753 809.615 125.399C800.731 127.606 792.556 131.195 784.624 136.37C755.352 155.473 737.521 197.671 727.718 229.71C721.714 249.176 717.319 269.502 713.07 289.158C711.982 294.19 710.856 299.395 709.735 304.435C706.717 318.001 704.263 334.554 701.665 352.08C698.551 373.093 695.022 396.907 689.898 419.234C684.028 444.815 676.902 464.814 668.114 480.376C663.031 489.374 657.192 497.032 650.755 503.138C643.832 509.705 635.963 514.723 627.366 518.049C617.53 521.859 607.658 523.374 597.957 523.374Z" fill="#FFE492"/>
<path d="M610.786 528.317C603.613 528.317 596.097 527.368 588.158 525.473C572.523 521.742 557.557 514.971 544.351 509.002C527.707 501.475 510.328 492.111 492.7 481.174C478.594 472.372 464.775 462.755 451.631 452.585C413.903 423.429 381.4 384.661 345.842 340.694C342.682 336.787 339.473 332.801 336.37 328.944C324.152 313.765 311.518 298.069 298.647 283.238C268.233 248.269 235.323 226.118 200.832 217.399C157.324 206.401 110.202 215.89 60.7788 245.607C35.418 260.856 10.5107 280.079 -11.2491 301.203C-27.6331 317.108 -41.1199 335.86 -55.3987 355.714C-56.8493 357.732 -58.3062 359.755 -59.7712 361.787C-63.4173 366.85 -67.3445 372.283 -71.3395 377.723C-79.7172 389.168 -89.9271 402.21 -102.125 412.126C-115.78 423.228 -129.805 428.823 -144.997 429.228C-172.807 429.973 -201.117 417.448 -228.494 405.335L-229.537 404.875C-242.941 398.947 -257.122 392.958 -269.995 389.322C-309.234 378.239 -350.13 370.545 -385.145 367.656L-385.097 366.612C-350.046 369.504 -309.113 377.204 -269.839 388.297C-256.929 391.945 -242.724 397.943 -229.299 403.879L-228.256 404.339C-200.938 416.424 -172.686 428.918 -145.011 428.179C-113.049 427.325 -90.9756 403.067 -71.8832 376.978C-67.8883 371.541 -63.9651 366.107 -60.319 361.047C-58.854 359.018 -57.3972 356.992 -55.9465 354.977C-41.6431 335.09 -28.1317 316.304 -11.6944 300.346C10.1065 279.181 35.061 259.921 60.469 244.644C83.6569 230.703 106.475 221.097 128.287 216.096C153.208 210.383 177.664 210.473 200.975 216.364C235.598 225.116 268.629 247.345 299.146 282.435C312.027 297.279 324.667 312.981 336.891 328.168C339.994 332.023 343.203 336.008 346.363 339.915C381.886 383.84 414.355 422.566 452.014 451.672C465.14 461.825 478.939 471.428 493.025 480.22C510.627 491.14 527.978 500.49 544.598 508.005C570.65 519.788 603.073 534.449 635.045 523.215C652.098 517.224 665.39 504.941 675.682 485.662C695.074 449.339 700.686 394.591 705.196 350.598C706.952 333.463 708.61 317.279 710.859 304.106C711.567 299.953 712.283 295.674 712.974 291.536C716.565 270.035 720.281 247.8 725.852 226.299C734.455 192.84 750.798 148.08 779.801 124.852C787.809 118.439 796.072 113.716 805.059 110.418C828.573 101.663 856.57 104.495 888.269 118.832C913.339 130.171 937.44 149.141 957.966 173.692C980.927 201.087 1000.6 235.632 1016.44 276.376C1023.7 295.063 1030.12 315.023 1035.52 335.701C1040.68 355.452 1044.94 375.962 1048.17 396.662L1047.42 396.879C1033.17 305.669 1001.22 226.685 957.458 174.476C937.007 150.017 912.998 131.12 888.025 119.823C856.474 105.55 828.626 102.726 805.26 111.425C796.339 114.699 788.139 119.385 780.191 125.751C751.387 148.817 735.138 193.348 726.578 226.643C721.019 248.088 717.312 270.292 713.723 291.764C713.032 295.903 712.318 300.185 711.608 304.34C709.367 317.468 707.709 333.63 705.957 350.741C703.688 372.878 701.116 397.968 696.721 421.648C691.672 448.859 684.993 470 676.304 486.276C671.346 495.561 665.548 503.392 659.072 509.549C652.096 516.183 644.075 521.122 635.236 524.226C627.478 526.955 619.375 528.317 610.786 528.317Z" fill="#FFE492"/>
<path d="M622.601 533.536C614.004 533.536 604.937 532.021 595.252 528.981C579.56 524.061 564.462 515.895 551.142 508.689C534.372 499.619 517.003 488.737 499.517 476.343C485.503 466.366 471.776 455.599 458.718 444.338C422.786 413.373 391.968 373.464 359.339 331.216C357.724 329.126 356.11 327.032 354.491 324.939C339.317 305.314 323.629 285.019 307.274 266.264C276.33 230.851 242.423 210.054 206.495 204.45C161.367 197.408 112.679 213.487 61.7807 252.232C36.3214 271.612 10.7657 296.04 -10.1796 321.015C-25.9952 339.873 -38.6797 361.092 -52.109 383.558C-53.6992 386.218 -55.2935 388.886 -56.9001 391.56C-60.1092 396.91 -63.9276 403.253 -67.9246 409.742C-75.3277 421.79 -85.4146 437.101 -97.82 448.619C-111.258 461.097 -125.313 467.457 -140.79 468.057C-153.511 468.49 -167.55 465.819 -183.71 459.888C-197.585 454.798 -211.006 448.144 -225.857 440.609C-239.414 433.646 -253.721 426.454 -266.558 421.704C-304.58 407.632 -344.743 395.311 -385.928 385.074L-385.78 383.977C-344.571 394.217 -304.385 406.549 -266.342 420.627C-253.471 425.391 -239.143 432.594 -225.57 439.562C-200.677 452.197 -169.696 467.926 -140.812 466.941C-107.79 465.657 -86.5677 438.346 -68.5545 409.022C-64.5596 402.539 -60.7432 396.198 -57.5361 390.851C-55.9295 388.177 -54.3353 385.509 -52.7471 382.852C-39.2953 360.35 -26.5882 339.095 -10.7213 320.175C10.2671 295.15 35.872 270.674 61.3806 251.258C112.433 212.395 161.289 196.275 206.59 203.342C223.958 206.052 241.02 212.345 257.295 222.046C274.758 232.453 291.751 247.047 307.803 265.413C324.177 284.187 339.875 304.494 355.057 324.133C356.676 326.229 358.293 328.319 359.908 330.409C392.505 372.621 423.297 412.491 459.159 443.397C472.199 454.641 485.905 465.395 499.899 475.355C517.36 487.73 534.702 498.597 551.447 507.654C577.764 521.887 610.518 539.601 642.904 529.328C660.447 523.763 673.828 511.405 683.803 491.55C703.023 453.628 706.446 395.699 709.197 349.153C710.182 332.505 711.112 316.782 712.652 304.067C712.971 301.443 713.289 298.806 713.607 296.154C716.483 272.206 719.458 247.44 724.631 223.271C732.014 188.508 746.791 141.371 775.271 114.221C783.215 106.647 791.505 100.82 800.615 96.4047C813.277 90.2118 827.388 87.3009 842.553 87.7474C856.399 88.1549 871.182 91.356 886.491 97.2587C912.463 107.269 937.299 125.457 958.31 149.855C981.838 177.116 1001.66 211.996 1017.23 253.521C1024.38 272.575 1030.56 292.945 1035.62 314.066C1040.46 334.294 1044.29 355.265 1046.98 376.394L1046.17 376.584C1034.42 284.511 1002.2 202.181 957.778 150.704C936.856 126.412 912.127 108.299 886.265 98.3276C854.377 86.0311 824.856 85.7297 800.888 97.4512C791.848 101.833 783.622 107.616 775.739 115.131C747.456 142.094 732.763 188.988 725.417 223.578C720.259 247.683 717.288 272.413 714.415 296.33C714.097 298.982 713.779 301.622 713.461 304.245C711.924 316.913 710.997 332.617 710.014 349.239C707.254 395.919 703.821 454.016 684.479 492.181C679.669 501.751 673.918 509.761 667.387 515.982C660.359 522.674 652.185 527.53 643.091 530.416C636.525 532.492 629.725 533.536 622.601 533.536Z" fill="#FFE492"/>
<path d="M633.706 538.971C623.911 538.971 613.533 536.816 602.348 532.49C586.524 526.37 571.332 516.811 557.932 508.38C540.996 497.725 523.635 485.319 506.332 471.516C492.418 460.38 478.784 448.46 465.804 436.094C433.842 405.651 406.526 368.357 377.605 328.872C372.878 322.417 367.988 315.744 363.138 309.183C346.087 286.13 331.527 267.122 315.898 249.291C284.402 213.409 249.5 193.965 212.159 191.498C165.237 188.397 114.977 211.059 62.7784 258.853C36.8471 282.597 11.3139 311.706 -9.11627 340.82C-24.5072 362.753 -36.5392 386.629 -49.277 411.906C-50.8549 415.037 -52.4389 418.18 -54.0332 421.325C-56.873 426.937 -60.6319 434.333 -64.512 441.748C-80.8406 473.028 -102.174 505.232 -136.585 506.879C-137.658 506.926 -138.735 506.948 -139.811 506.948C-166.682 506.948 -194.115 492.483 -222.18 476.333L-223.932 475.317C-237.833 467.246 -250.965 459.624 -263.12 454.076C-308.928 433.167 -353.229 415.517 -386.707 402.478L-386.467 401.337C-352.981 414.381 -308.667 432.033 -262.843 452.951C-250.655 458.513 -237.509 466.146 -223.589 474.226L-221.839 475.241C-192.746 491.984 -164.334 506.918 -136.616 505.695C-102.586 504.065 -81.4315 472.11 -65.224 441.065C-61.346 433.655 -57.5911 426.265 -54.7514 420.655C-53.1571 417.507 -51.5751 414.367 -49.9972 411.236C-37.2389 385.92 -25.1884 362.005 -9.74823 340.002C10.723 310.827 36.3075 281.659 62.29 257.867C86.4053 235.786 110.529 218.832 133.99 207.47C160.908 194.434 187.223 188.663 212.2 190.312C249.734 192.79 284.813 212.329 316.456 248.379C332.108 266.237 346.682 285.265 363.749 308.337C368.602 314.898 373.491 321.574 378.221 328.029C407.113 367.475 434.402 404.733 466.302 435.115C479.264 447.467 492.878 459.367 506.771 470.486C524.049 484.273 541.383 496.658 558.295 507.297C584.842 524 617.88 544.787 650.763 535.429C668.737 530.313 682.202 517.883 691.923 497.429C710.901 457.779 712.042 396.59 712.959 347.423C713.258 331.381 713.541 316.227 714.446 304.017L714.467 303.738C716.496 276.396 718.595 248.125 723.407 220.23C727.574 195.899 733.379 174.025 740.656 155.209C748.864 133.995 758.984 116.625 770.737 103.578C778.599 94.8481 786.917 87.9128 796.165 82.3786C821.15 67.3387 851.768 65.0167 884.708 75.6694C897.965 79.9561 911.042 86.4504 923.578 94.9681C936.187 103.536 947.989 113.982 958.657 126.011C982.756 153.141 1002.73 188.35 1018.03 230.662C1031.78 268.693 1041.38 312.077 1045.79 356.119L1044.93 356.278C1035.49 262.015 1003.84 178.417 958.101 126.923C936.71 102.805 911.261 85.4792 884.51 76.8303C851.756 66.2391 821.331 68.5359 796.52 83.4726C787.344 88.965 779.094 95.8444 771.291 104.504C749.348 128.866 733.085 168.979 724.258 220.506C719.459 248.328 717.364 276.561 715.337 303.863L715.316 304.143C714.413 316.308 714.13 331.44 713.831 347.459C712.909 396.777 711.765 458.15 692.654 498.079C687.967 507.942 682.257 516.125 675.687 522.398C668.602 529.163 660.278 533.939 650.942 536.598C645.381 538.178 639.65 538.971 633.706 538.971Z" fill="#FFE492"/>
<path d="M-135.945 545.804C-147.961 545.804 -161.046 542.62 -175.813 536.117C-190.485 529.656 -204.996 520.736 -218.493 512.062C-220.937 510.483 -223.362 508.906 -225.771 507.34C-237.762 499.546 -249.088 492.183 -259.674 486.448C-301.882 463.588 -342.115 443.042 -381.024 423.177L-387.471 419.883L-387.147 418.708L-380.7 422.002C-341.788 441.872 -301.55 462.419 -259.333 485.284C-248.719 491.033 -237.378 498.404 -225.373 506.21C-222.966 507.776 -220.541 509.353 -218.099 510.929C-190.393 528.735 -160.957 545.991 -132.408 544.453C-97.3132 542.466 -76.2818 505.281 -61.8819 473.111C-58.1927 464.883 -54.6389 456.684 -51.9551 450.46C-50.4737 447.03 -49.0025 443.603 -47.5354 440.184C-35.368 411.843 -23.8756 385.073 -8.76172 359.833C11.1884 326.521 36.7482 292.657 63.2129 264.483C87.7653 238.344 112.541 217.692 136.856 203.101C164.744 186.364 191.985 177.679 217.819 177.286C256.694 176.499 292.8 194.689 325.121 231.347C343.037 251.693 359.101 273.701 372.455 292.548C379.72 302.804 386.986 313.317 394.013 323.484C418.888 359.478 444.61 396.694 473.457 426.838C486.342 440.307 499.868 453.357 513.654 465.623C530.716 480.769 548.041 494.673 565.154 506.947C591.901 526.131 625.189 550.007 658.632 541.534C677.039 536.87 690.587 524.367 700.052 503.31C718.777 461.863 717.513 397.322 716.496 345.462C716.196 330.127 715.911 315.639 716.253 303.976C717.023 277.684 718.182 247.127 722.198 217.198C725.581 191.837 730.69 168.894 737.383 149.006C744.955 126.509 754.656 107.648 766.216 92.946C773.875 83.2031 782.46 74.9338 791.729 68.3642C804.955 58.959 819.796 53.0452 835.843 50.7902C850.871 48.6775 866.715 49.7883 882.935 54.089C896.615 57.7171 910.097 63.6839 923.01 71.8276C936.002 80.0216 948.116 90.2305 959.011 102.17C971.573 115.918 983.123 132.152 993.339 150.424C1003.02 167.735 1011.6 187.042 1018.84 207.806C1032.39 246.652 1041.3 290.932 1044.61 335.851L1043.7 335.976C1036.57 239.516 1005.5 154.655 958.433 103.149C936.878 79.5332 910.005 62.548 882.759 55.3225C849.069 46.389 817.74 51.2842 792.155 69.4777C782.961 75.9944 774.446 84.1995 766.846 93.8642C745.063 121.566 730.346 163.136 723.105 217.424C719.097 247.272 717.942 277.776 717.175 304.027C716.834 315.648 717.117 330.113 717.419 345.429C717.92 371.013 718.488 400.012 716.584 428.047C714.374 460.577 709.224 485.41 700.84 503.966C696.277 514.119 690.61 522.478 683.999 528.808C676.858 535.645 668.38 540.342 658.802 542.767C653.97 543.993 649.142 544.548 644.343 544.548C615.602 544.548 587.753 524.571 564.725 508.055C547.588 495.761 530.235 481.838 513.152 466.669C499.345 454.387 485.8 441.317 472.896 427.829C443.99 397.624 418.242 360.368 393.342 324.341C386.317 314.177 379.053 303.667 371.792 293.416C358.457 274.592 342.416 252.614 324.532 232.307C292.385 195.845 256.491 177.76 217.834 178.536C157.126 179.462 100.552 226.318 63.7833 265.465C37.3719 293.583 11.8634 327.375 -8.04358 360.62C-23.1123 385.785 -34.5883 412.513 -46.7373 440.809C-48.2043 444.228 -49.6776 447.655 -51.159 451.088C-53.8448 457.314 -57.4007 465.519 -61.0919 473.755C-67.1367 487.26 -76.6265 506.919 -89.1961 521.655C-95.3003 528.81 -101.796 534.434 -108.504 538.372C-115.983 542.762 -124.014 545.229 -132.369 545.701C-133.553 545.77 -134.745 545.804 -135.945 545.804Z" fill="#FFE492"/>
<path d="M-132.09 584.659C-144.12 584.659 -157.178 581.229 -171.867 574.23C-187.076 566.985 -202.111 556.798 -214.812 547.786C-218.715 545.012 -222.609 542.199 -226.377 539.478C-236.907 531.873 -246.854 524.686 -256.233 518.82C-289.914 497.749 -323.375 477.178 -355.737 457.282C-366.442 450.701 -377.509 443.897 -388.236 437.288L-387.834 436.08C-377.107 442.688 -366.039 449.492 -355.335 456.073C-322.973 475.969 -289.508 496.543 -255.825 517.617C-246.421 523.5 -236.461 530.692 -225.919 538.309C-222.154 541.03 -218.259 543.84 -214.361 546.614C-188.019 565.296 -157.465 585.072 -128.208 583.211C-92.2865 580.872 -72.1107 540.268 -58.5439 505.156C-55.066 496.161 -51.703 487.13 -49.1628 480.267C-47.8579 476.745 -46.5611 473.226 -45.2664 469.715C-33.6283 438.136 -22.6366 408.311 -7.77716 379.668C11.5492 342.416 37.0885 303.86 64.1318 271.104C101.793 225.683 160.002 170.279 223.433 164.27C263.772 160.346 300.9 177.186 333.781 214.327C348.554 231.022 363.164 250.279 381.154 276.772C390.246 290.16 399.268 304.036 407.992 317.452C430.692 352.357 454.161 388.451 480.607 418.578C493.419 433.177 506.852 447.374 520.534 460.776C537.1 476.988 554.42 492.41 572.008 506.616C599.025 528.303 632.649 555.299 666.494 547.658C685.051 543.555 699.073 530.62 708.175 509.214C726.642 465.892 722.68 395.015 719.784 343.264C718.972 328.741 718.204 315.024 718.055 303.958C717.718 279.365 717.747 246.938 720.983 214.187C726.568 157.435 740.264 113.072 761.691 82.3362C769.201 71.5077 777.815 62.0998 787.288 54.3719C800.765 43.3648 815.971 35.9606 832.486 32.3688C848.045 28.9863 864.419 29.0393 881.156 32.5279C895.279 35.5364 909.166 40.9898 922.433 48.7316C935.829 56.5516 948.253 66.5149 959.362 78.3453C972.204 92.0149 983.937 108.305 994.231 126.767C1003.99 144.262 1012.54 163.843 1019.64 184.97C1032.98 224.633 1041.2 269.806 1043.43 315.604L1042.46 315.691C1037.66 217.028 1007.16 130.9 958.763 79.3919C936.82 56.0241 909.207 39.8455 881.01 33.8396C846.248 26.5973 814.015 34.0908 787.793 55.5106C778.395 63.1743 769.854 72.5069 762.403 83.2489C741.117 113.781 727.507 157.893 721.951 214.366C718.724 247.027 718.697 279.39 719.031 303.936C719.183 314.962 719.949 328.663 720.759 343.167C722.255 369.917 723.95 400.24 722.981 429.842C721.851 464.312 717.285 490.493 709.02 509.881C704.574 520.338 698.952 528.878 692.306 535.264C685.102 542.188 676.472 546.798 666.656 548.97C651.431 552.405 635.045 549.319 616.56 539.531C600.492 531.022 585.097 518.664 571.516 507.763C553.901 493.538 536.559 478.093 519.968 461.859C506.265 448.438 492.813 434.221 479.983 419.602C453.482 389.414 429.986 353.281 407.264 318.339C398.543 304.926 389.524 291.059 380.44 277.682C362.48 251.236 347.898 232.015 333.159 215.359C300.474 178.431 263.581 161.691 223.499 165.59C160.341 171.577 102.325 226.81 64.7761 272.095C37.7861 304.784 12.3001 343.259 -6.98514 380.433C-21.8036 408.994 -32.7789 438.778 -44.3985 470.309C-45.6932 473.823 -46.99 477.342 -48.2949 480.864C-50.8372 487.733 -54.2022 496.772 -57.6842 505.776C-71.37 541.2 -91.7489 582.167 -128.165 584.536C-129.46 584.617 -130.771 584.659 -132.09 584.659Z" fill="#FFE492"/>
<path d="M-128.155 623.516C-161.026 623.516 -195.515 596.056 -226.09 571.712C-235.485 564.232 -244.359 557.166 -252.792 551.191L-389 454.691L-388.526 453.455L-252.318 549.954C-243.863 555.943 -234.978 563.018 -225.571 570.509C-193.814 595.794 -157.819 624.453 -124.006 621.969C-87.2926 619.276 -67.9519 575.253 -55.2038 537.206C-51.0345 524.761 -47.0088 512.099 -43.1143 499.853C-32.4632 466.363 -21.451 431.731 -6.79465 399.499C4.84341 373.907 19.3007 347.068 35.0137 321.886C52.2513 294.259 70.7076 268.913 89.8657 246.552C110.989 221.901 132.468 201.508 153.703 185.943C177.19 168.729 200.329 157.491 222.481 152.537C266.856 142.615 307.216 157.672 342.436 197.294C371.705 230.217 396.582 270.93 420.64 310.304C441.581 344.575 463.234 380.011 487.753 410.303C516.075 445.289 546.727 477.576 578.861 506.263C605.936 530.435 639.631 560.52 674.358 553.758C703.688 548.048 720.646 521.356 726.198 472.154C730.922 430.302 726.428 380.655 722.819 340.766C721.588 327.172 720.426 314.331 719.856 303.918C716.708 246.516 718.715 199.13 725.989 159.056C730.528 134.053 737.225 111.765 745.894 92.8125C755.577 71.6411 768.009 53.9917 782.844 40.3556C795.678 28.5587 810.141 19.9908 825.836 14.8891C840.775 10.033 856.505 8.40593 872.587 10.0525C904.216 13.2899 935.156 29.075 959.704 54.4969C972.828 68.0855 984.743 84.4344 995.117 103.086C1004.95 120.763 1013.47 140.62 1020.44 162.109C1033.56 202.591 1041.1 248.659 1042.24 295.331L1041.21 295.378C1038.79 195.99 1008.09 106.357 959.081 55.6104C907.038 1.71905 833.159 -4.21151 783.414 41.5138C734.137 86.8094 713.68 172.609 720.876 303.815C721.444 314.194 722.605 327.018 723.834 340.596C727.452 380.572 731.956 430.324 727.21 472.366C724.625 495.265 719.429 513.668 711.77 527.066C707.461 534.599 702.268 540.756 696.332 545.36C690.014 550.261 682.67 553.552 674.502 555.142C671.164 555.793 667.768 556.119 664.315 556.119C651.731 556.119 638.326 551.791 623.639 543.022C607.093 533.142 591.125 518.886 578.295 507.433C546.118 478.704 515.422 446.375 487.06 411.338C462.485 380.982 440.809 345.505 419.845 311.197C395.818 271.874 370.973 231.211 341.777 198.371C306.793 159.02 266.71 144.061 222.641 153.915C133.496 173.848 41.6679 295.574 -5.92874 400.236C-20.5461 432.378 -31.544 466.963 -42.1808 500.408C-46.0772 512.66 -50.105 525.331 -54.2784 537.786C-62.7423 563.046 -71.1015 581.134 -80.5851 594.703C-86.5047 603.17 -92.927 609.846 -99.6734 614.543C-107.175 619.765 -115.345 622.734 -123.959 623.368C-125.35 623.465 -126.752 623.516 -128.155 623.516Z" fill="#FFE492"/>
</g>
</svg>
