<svg width="1152" height="424" viewBox="0 0 1152 424" fill="none" xmlns="http://www.w3.org/2000/svg">
<g opacity="0.3">
<path d="M389.204 423.622C383.521 423.622 377.99 423.276 372.674 422.587C361.526 421.14 351.227 418.17 342.061 413.758C332.21 409.018 323.571 402.558 316.38 394.56C301.927 378.483 294.697 359.23 287.703 340.611C286.329 336.955 284.909 333.174 283.467 329.506C273.627 304.505 261.153 282.606 245.336 262.556C213.782 222.561 169.407 188.429 117.005 163.848C56.4039 135.423 -8.75264 121.263 -66.4632 123.978C-100.383 125.574 -145.199 140.755 -165.229 166.682C-177.116 182.069 -178.074 199.145 -167.999 216.061L-168.199 216.132C-173.482 207.261 -175.784 198.367 -175.038 189.698C-174.355 181.746 -171.119 173.972 -165.418 166.594C-156.352 154.858 -141.401 144.456 -122.18 136.512C-104.419 129.172 -84.6375 124.66 -66.4764 123.806C-36.2746 122.386 -4.15356 125.537 28.9941 133.172C59.042 140.095 88.692 150.366 117.12 163.7C169.552 188.294 213.953 222.446 245.525 262.464C261.351 282.527 273.831 304.439 283.678 329.453C285.123 333.121 286.543 336.904 287.915 340.56C294.901 359.166 302.127 378.405 316.56 394.458C330.518 409.984 349.411 419.39 372.712 422.413C404.98 426.601 444.165 417.843 477.528 398.985C525.607 371.811 558.974 332.257 591.245 294.007C596.902 287.302 602.749 280.369 608.54 273.675C623.573 256.291 643.932 233.765 668.128 213.697C692.86 193.184 717.992 178.114 744.963 167.622C761.47 161.2 778.965 156.873 796.962 154.762C813.584 152.812 831.178 152.691 849.255 154.4C880.264 157.332 913.671 165.617 951.387 179.724C1025.65 207.504 1099.83 241.224 1171.87 279.947C1240.35 316.752 1307.51 358.4 1371.48 403.729L1371.33 403.855C1238.72 309.889 1097.4 234.532 951.29 179.877C868.744 148.999 803.214 145.152 745.061 167.773C685.9 190.786 644.572 232.316 608.722 273.768C602.934 280.461 597.086 287.394 591.43 294.098C559.15 332.362 525.772 371.928 477.66 399.121C462.112 407.91 444.622 414.764 427.081 418.943C417.814 421.15 408.603 422.594 399.699 423.234C396.151 423.494 392.649 423.622 389.204 423.622Z" fill="#FFE492"/>
<path d="M394.76 414.088C380.269 414.088 366.845 411.952 354.848 407.736C341.471 403.034 329.927 395.749 320.535 386.084C319.704 385.228 318.88 384.343 318.084 383.451C303.786 367.444 296.234 348.442 288.933 330.064C287.456 326.35 285.93 322.508 284.383 318.781C275.165 296.585 264.065 277.022 250.446 258.978C248.768 256.757 247.031 254.53 245.279 252.362C213.262 212.711 168.526 179.01 115.909 154.903C54.8703 126.963 -10.4709 113.388 -68.0782 116.682C-101.751 118.627 -146.361 134.057 -166.477 159.785C-178.522 175.191 -179.885 192.301 -170.423 209.266L-170.625 209.334C-175.585 200.442 -177.623 191.531 -176.68 182.852C-175.814 174.881 -172.446 167.09 -166.666 159.696C-157.507 147.98 -142.6 137.567 -123.56 129.582C-105.961 122.202 -86.2656 117.56 -68.0979 116.512C-37.9335 114.787 -5.77731 117.637 27.4759 124.98C57.5964 131.632 87.3871 141.65 116.019 154.757C168.667 178.878 213.427 212.598 245.464 252.272C247.216 254.442 248.955 256.67 250.632 258.893C264.26 276.949 275.367 296.522 284.589 318.73C286.139 322.457 287.665 326.299 289.142 330.015C296.441 348.381 303.986 367.37 318.264 383.354C319.058 384.243 319.883 385.128 320.711 385.982C340.119 405.96 366.786 414.088 394.829 414.088C394.983 414.088 395.134 414.088 395.288 414.088C395.112 414.086 394.936 414.088 394.76 414.088ZM400.742 413.969C426.813 412.932 453.715 405.176 476.794 393.637C526.577 368.644 562.357 330.044 596.96 292.714C598.384 291.175 599.809 289.64 601.233 288.105C604.362 284.735 608.07 280.745 611.856 276.723C628.839 258.685 649.392 237.698 673.062 218.808C698.247 198.707 723.408 183.792 749.98 173.206C766.308 166.709 783.563 162.132 801.267 159.603C817.669 157.259 835.004 156.597 852.782 157.633C883.496 159.426 916.521 166.22 953.745 178.408C990.036 190.272 1019.87 201.439 1047.63 213.553C1086.95 230.731 1124.41 250.524 1155.87 267.618C1229 307.475 1300.76 352.733 1369.15 402.136L1369 402.26C1300.62 352.864 1228.87 307.61 1155.74 267.758C1124.29 250.665 1086.84 230.876 1047.52 213.703C1019.77 201.592 989.946 190.428 953.661 178.568C872.572 152.018 807.882 150.362 750.081 173.359C690.091 197.254 647.369 239.295 612.034 276.825C608.246 280.847 604.54 284.835 601.411 288.207C599.987 289.741 598.562 291.278 597.138 292.816C562.524 330.158 526.731 368.772 476.913 393.783C464.56 399.959 451.416 404.864 437.843 408.362C425.208 411.615 412.754 413.496 400.742 413.969Z" fill="#FFE492"/>
<path d="M400.887 404.772C399.144 404.772 397.411 404.743 395.692 404.684C381.213 404.188 367.814 401.617 355.868 397.036C342.803 392.027 331.483 384.607 322.226 374.982C321.403 374.124 320.583 373.237 319.792 372.345C305.654 356.417 297.788 337.668 290.184 319.538C288.599 315.76 286.959 311.851 285.297 308.059C275.624 285.938 264.231 266.532 250.465 248.731C248.761 246.531 246.998 244.323 245.22 242.171C212.738 202.866 167.642 169.598 114.81 145.964C53.3355 118.508 -12.1905 105.518 -69.6966 109.39C-102.075 111.605 -146.555 126.154 -167.704 152.864C-179.923 168.296 -181.701 185.451 -172.848 202.476L-173.053 202.539C-177.691 193.62 -179.461 184.689 -178.318 175.994C-177.267 167.998 -173.758 160.187 -167.891 152.776C-158.636 141.087 -143.776 130.67 -124.919 122.648C-107.485 115.232 -87.8796 110.464 -69.7163 109.222C-39.5871 107.194 -7.39572 109.741 25.9608 116.791C56.156 123.174 86.0852 132.939 114.92 145.817C167.783 169.467 212.903 202.754 245.404 242.081C247.183 244.234 248.948 246.442 250.652 248.646C264.425 266.457 275.824 285.875 285.501 308.008C287.163 311.802 288.803 315.71 290.388 319.489C297.99 337.608 305.85 356.343 319.97 372.253C320.761 373.145 321.577 374.03 322.399 374.885C360.016 413.996 426.681 409.797 476.06 388.287C527.92 365.497 566.461 327.62 603.732 290.99L604.115 290.614C607.725 287.063 611.458 283.394 615.173 279.77C654.377 241.54 697.468 202.251 755.001 178.788C771.153 172.214 788.171 167.387 805.578 164.44C821.769 161.7 838.84 160.496 856.315 160.864C886.783 161.504 919.425 166.811 956.107 177.089C994.659 187.851 1023.67 197.744 1050.17 209.167C1087.94 225.475 1124.51 246.083 1156.79 264.265C1228.64 304.965 1299.31 350.813 1366.81 400.534L1366.66 400.657C1299.16 350.941 1228.5 305.097 1156.66 264.401C1124.39 246.222 1087.82 225.618 1050.07 209.315C1023.57 197.896 994.571 188.006 956.033 177.247C876.518 154.97 812.672 155.506 755.102 178.936C697.607 202.384 654.533 241.656 615.344 279.872C611.629 283.496 607.896 287.167 604.286 290.716L603.904 291.092C585.33 309.346 566.124 328.221 545.384 345.08C522.077 364.027 499.435 378.207 476.165 388.432C451.82 399.036 425.3 404.772 400.887 404.772Z" fill="#FFE492"/>
<path d="M1364.33 399.051C1297.71 349.015 1228.14 302.583 1157.58 261.044C1154.59 259.298 1151.59 257.543 1148.59 255.783C1118.02 237.873 1086.41 219.354 1052.62 204.926C1019.83 190.969 986.595 182.435 958.411 175.927C880.616 157.854 817.611 160.583 760.13 184.511C701.122 209.148 655.399 250.052 618.662 282.92C616.457 284.893 614.256 286.869 612.051 288.847C610.424 290.307 608.795 291.767 607.166 293.226C586.248 311.96 567.221 328.709 546.198 343.992C522.18 361.451 499.031 374.237 475.422 383.083C453.297 391.374 429.662 395.761 407.678 395.762C403.672 395.762 399.726 395.618 395.848 395.323C381.69 394.249 368.583 391.231 356.892 386.353C344.135 381.03 333.039 373.47 323.909 363.88C323.094 363.02 322.28 362.132 321.493 361.238C307.522 345.393 299.351 326.908 291.45 309.032C289.748 305.182 287.987 301.199 286.206 297.333C276.072 275.282 264.385 256.031 250.482 238.479C248.752 236.295 246.96 234.108 245.158 231.975C212.21 193.015 166.756 160.179 113.71 137.017C51.8007 110.046 -13.9077 97.643 -71.3127 102.089C-110.557 105.189 -150.686 123.207 -168.902 145.905C-181.313 161.369 -183.513 178.579 -175.271 195.675L-175.478 195.735C-179.793 186.783 -181.297 177.825 -179.947 169.109C-178.705 161.083 -175.051 153.246 -169.089 145.815C-159.737 134.16 -144.927 123.743 -126.258 115.692C-108.991 108.246 -89.487 103.354 -71.3347 101.92C-41.2406 99.5885 -9.01625 101.834 24.4436 108.591C54.7114 114.705 84.7835 124.218 113.82 136.867C166.899 160.043 212.377 192.898 245.345 231.881C247.149 234.016 248.941 236.205 250.671 238.389C264.583 255.951 276.274 275.213 286.415 297.274C288.196 301.141 289.957 305.122 291.659 308.974C299.555 326.84 307.722 345.313 321.676 361.139C322.463 362.031 323.274 362.918 324.087 363.776C363.358 405.025 430.104 399.873 475.327 382.928C529.283 362.711 570.571 325.737 607.001 293.114C608.63 291.653 610.257 290.193 611.886 288.734C614.089 286.756 616.292 284.78 618.497 282.807C639.467 264.047 660.176 245.815 682.943 229.015C709.124 209.694 734.34 195.088 760.028 184.361C776.011 177.708 792.787 172.63 809.893 169.272C825.88 166.132 842.689 164.389 859.854 164.089C890.126 163.561 922.388 167.381 958.477 175.764C986.669 182.275 1019.92 190.812 1052.72 204.778C1086.54 219.211 1118.15 237.735 1148.72 255.648C1151.73 257.408 1154.72 259.163 1157.71 260.91C1228.29 302.452 1297.86 348.889 1364.49 398.93L1364.33 399.051Z" fill="#FFE492"/>
<path d="M1362 397.447C1295 346.135 1226.53 299.112 1158.49 257.687C1154.42 255.209 1150.26 252.654 1146.23 250.184C1117.39 232.496 1087.56 214.205 1055.16 200.538C1022.81 186.94 989.303 179.798 960.788 174.606C884.885 160.654 822.721 165.573 765.155 190.087C710.248 213.555 667.231 248.843 625.631 282.969L621.062 286.715C617.455 289.675 613.724 292.734 610.046 295.735C568.404 329.665 526.717 361.466 474.679 377.732C462.051 381.679 449.085 384.414 436.136 385.866C422.231 387.424 408.724 387.446 395.989 385.931C382.156 384.285 369.346 380.828 357.915 375.655C345.474 370.026 334.6 362.327 325.6 352.775C324.789 351.91 323.982 351.02 323.202 350.128C309.402 334.377 300.936 316.164 292.749 298.55C290.922 294.62 289.032 290.555 287.123 286.608C276.518 264.625 264.541 245.529 250.507 228.229C248.752 226.067 246.934 223.897 245.103 221.781C211.691 183.166 165.879 150.763 112.616 128.072C50.2685 101.59 -15.6245 89.7706 -72.9306 94.7935C-111.816 98.2744 -151.763 116.419 -170.072 138.92C-182.689 154.423 -185.324 171.699 -177.696 188.882L-177.905 188.938C-181.897 179.948 -183.13 170.955 -181.572 162.213C-180.134 154.154 -176.329 146.286 -170.261 138.831C-160.808 127.216 -146.05 116.809 -127.579 108.734C-110.484 101.26 -91.0851 96.2506 -72.957 94.6267C-42.8981 91.9918 -10.6407 93.934 22.9247 100.399C53.2672 106.244 83.4778 115.503 112.719 127.924C166.013 150.627 211.852 183.051 245.283 221.687C247.114 223.805 248.935 225.977 250.689 228.138C264.733 245.447 276.716 264.554 287.326 286.549C289.234 290.496 291.125 294.562 292.951 298.492C301.134 316.096 309.596 334.3 323.38 350.033C324.158 350.921 324.965 351.81 325.774 352.675C364.099 393.35 427.778 392.208 474.593 377.575C526.59 361.323 568.259 329.534 609.883 295.619C613.561 292.618 617.292 289.56 620.9 286.6L625.468 282.853C645.889 266.103 667.003 248.78 689.934 232.666C715.906 214.416 740.476 200.44 765.045 189.937C780.865 183.2 797.404 177.873 814.2 174.104C829.991 170.56 846.538 168.276 863.383 167.314C893.523 165.594 925.398 167.926 960.836 174.44C989.365 179.634 1022.89 186.778 1055.26 200.389C1087.68 214.06 1117.51 232.356 1146.36 250.05C1150.39 252.52 1154.56 255.073 1158.63 257.553C1226.67 298.981 1295.15 346.007 1362.16 397.325L1362 397.447Z" fill="#FFE492"/>
<path d="M1359.67 395.846C1293.25 343.963 1225.87 296.351 1159.41 254.334C1154.42 251.177 1149.3 247.893 1144.34 244.719C1117.06 227.221 1088.84 209.127 1057.71 196.155C1025.51 182.79 991.849 177.097 963.165 173.291C889.366 163.349 828.043 170.46 770.179 195.669C719.681 217.761 678.222 249.07 638.125 279.347C633.906 282.533 629.542 285.827 625.29 289.019C620.298 292.767 616.484 295.614 612.924 298.249C593.862 312.353 571.165 328.593 547.348 342.101C522.108 356.414 498.095 366.321 473.934 372.387C461.229 375.577 448.318 377.589 435.556 378.365C421.854 379.199 408.586 378.586 396.125 376.542C382.625 374.328 370.114 370.431 358.935 364.962C346.813 359.032 336.166 351.196 327.289 341.674C326.489 340.811 325.686 339.919 324.908 339.024C311.291 323.378 302.541 305.446 294.077 288.105C292.114 284.082 290.085 279.924 288.038 275.885C276.956 253.963 264.687 235.024 250.527 217.98C248.746 215.837 246.902 213.687 245.044 211.589C211.169 173.32 164.995 141.349 111.517 119.129C48.7365 93.1341 -17.3412 81.9018 -74.5461 87.4984C-107.096 90.7528 -149.609 105.745 -171.21 131.9C-184.053 147.451 -187.136 164.806 -180.121 182.087L-180.329 182.138C-183.999 173.102 -184.957 164.07 -183.181 155.294C-181.541 147.194 -177.577 139.292 -171.395 131.808C-161.841 120.241 -147.138 109.851 -128.871 101.759C-111.948 94.2626 -92.6654 89.1392 -74.5725 87.3298C-44.5488 84.392 -12.2563 86.0311 21.4103 92.203C51.8253 97.7792 82.1766 106.787 111.62 118.979C165.129 141.211 211.329 173.201 245.224 211.492C247.082 213.59 248.928 215.744 250.709 217.888C264.876 234.94 277.152 253.89 288.241 275.822C290.289 279.863 292.319 284.021 294.282 288.043C302.739 305.376 311.487 323.298 325.088 338.927C325.866 339.82 326.667 340.711 327.467 341.572C359.35 375.774 414.08 387.233 473.866 372.222C528.008 358.629 572.174 328.162 612.773 298.123C616.332 295.488 620.144 292.641 625.136 288.893C629.388 285.701 633.752 282.407 637.971 279.221C657.71 264.316 678.12 248.903 699.891 234.47C724.509 218.149 747.467 205.407 770.073 195.517C785.742 188.692 802.038 183.114 818.515 178.94C834.122 174.986 850.408 172.162 866.92 170.544C896.986 167.599 928.48 168.441 963.202 173.119C991.902 176.928 1025.59 182.624 1057.81 196.001C1088.96 208.981 1117.19 227.08 1144.48 244.583C1149.43 247.757 1154.55 251.041 1159.55 254.198C1226.01 296.22 1293.39 343.836 1359.83 395.722L1359.67 395.846Z" fill="#FFE492"/>
<path d="M1357.34 394.242C1291.49 341.786 1225.2 293.584 1160.32 250.978C1154.8 247.354 1149.14 243.55 1143.65 239.871C1117.54 222.35 1090.53 204.232 1060.25 191.767C1028.03 178.562 994.295 174.35 965.54 171.97C895.087 165.984 832.826 175.56 775.201 201.245C729.318 221.79 689.986 249.274 651.949 275.854C644.266 281.223 636.323 286.775 628.6 292.067C623.876 295.306 619.69 298.151 615.799 300.762C597.704 312.891 573.633 328.443 547.912 341.153C522.067 353.922 497.623 362.391 473.183 367.039C446.527 372.11 419.924 372.147 396.252 367.15C383.09 364.37 370.876 360.037 359.947 354.268C348.148 348.04 337.728 340.067 328.972 330.574C328.178 329.71 327.382 328.816 326.608 327.921C313.185 312.394 304.163 294.756 295.439 277.701C293.329 273.575 291.148 269.31 288.947 265.165C277.379 243.301 264.818 224.515 250.543 207.735C248.736 205.611 246.865 203.48 244.981 201.4C210.642 163.476 164.11 131.936 110.416 110.191C47.2033 84.6849 -19.0591 74.0381 -76.1651 80.2083C-114.866 84.4806 -153.507 102.421 -172.317 124.848C-185.406 140.455 -188.944 157.9 -182.546 175.298L-182.757 175.344C-186.101 166.253 -186.783 157.173 -184.784 148.36C-182.938 140.213 -178.805 132.271 -172.502 124.755C-162.846 113.241 -148.201 102.876 -130.147 94.7768C-113.402 87.2653 -94.2404 82.0296 -76.1959 80.0381C-46.2073 76.7972 -13.8796 78.1351 19.8902 84.0125C50.38 89.3198 80.872 98.0755 110.518 110.038C164.242 131.796 210.8 163.354 245.162 201.301C247.046 203.381 248.916 205.514 250.726 207.64C265.007 224.43 277.575 243.225 289.15 265.099C291.35 269.243 293.531 273.511 295.642 277.636C304.36 294.683 313.378 312.312 326.789 327.824C327.563 328.719 328.356 329.609 329.15 330.474C360.486 364.455 414.31 378.062 473.13 366.874C526.754 356.673 573.321 329.008 615.654 300.634C619.543 298.023 623.731 295.18 628.453 291.941C636.174 286.649 644.119 281.099 651.8 275.73C689.846 249.145 729.184 221.653 775.089 201.1C790.619 194.178 806.678 188.351 822.821 183.779C838.261 179.408 854.285 176.043 870.447 173.778C900.506 169.565 931.618 168.92 965.56 171.803C994.335 174.185 1028.1 178.399 1060.36 191.619C1090.66 204.093 1117.67 222.217 1143.8 239.745C1149.28 243.424 1154.95 247.226 1160.47 250.85C1225.35 293.459 1291.64 341.665 1357.5 394.125L1357.34 394.242Z" fill="#FFE492"/>
<path d="M1355.01 392.638C1289.75 339.603 1224.55 290.813 1161.24 247.622C1155.42 243.652 1149.44 239.45 1143.65 235.385C1118.49 217.715 1092.47 199.443 1062.8 187.38C1030.44 174.287 996.679 171.576 967.915 170.65C900.124 168.307 838.729 180.139 780.225 206.822C739.196 225.623 702.621 249.419 667.249 272.43C655.087 280.343 643.598 287.817 631.914 295.114C627.161 298.085 622.832 300.754 618.677 303.271C591.867 319.501 569.562 331.235 548.479 340.199C522.03 351.445 497.157 358.474 472.438 361.688C462.849 362.934 453.295 363.555 443.914 363.555C427.285 363.555 411.195 361.608 396.382 357.751C369.575 350.771 347.463 337.891 330.661 319.468C329.869 318.595 329.08 317.702 328.315 316.81C315.096 301.417 305.821 284.093 296.851 267.337C294.578 263.092 292.23 258.704 289.862 254.437C277.8 232.624 264.943 213.994 250.566 197.482C248.732 195.376 246.835 193.264 244.925 191.203C210.122 153.625 163.229 122.517 109.32 101.244C45.6736 76.2274 -20.7713 66.1644 -77.7784 72.9082C-116.64 77.601 -154.167 95.201 -173.379 117.747C-186.734 133.419 -190.739 150.968 -184.966 168.498L-185.18 168.541C-188.194 159.387 -188.594 150.253 -186.367 141.393C-184.305 133.193 -179.998 125.206 -173.561 117.654C-163.804 106.204 -149.222 95.8717 -131.389 87.7729C-114.824 80.2495 -95.7966 74.9116 -77.8113 72.7397C-47.8579 69.1959 -15.4951 70.2308 18.3759 75.8155C48.9404 80.8555 79.5709 89.3593 109.421 101.09C163.361 122.377 210.28 153.502 245.105 191.102C247.015 193.165 248.913 195.278 250.748 197.385C265.135 213.906 277.998 232.546 290.065 254.367C292.432 258.634 294.782 263.024 297.053 267.269C306.019 284.017 315.289 301.334 328.497 316.713C329.262 317.603 330.049 318.497 330.841 319.368C362.217 353.771 413.813 369.135 472.401 361.518C528.173 354.267 577.571 327.937 618.541 303.135C622.694 300.617 627.022 297.95 631.775 294.98C643.458 287.683 654.946 280.211 667.108 272.297C702.485 249.281 739.069 225.482 780.113 206.673C795.526 199.644 811.346 193.567 827.135 188.61C842.427 183.81 858.19 179.904 873.983 177.002C904.104 171.468 934.833 169.334 967.924 170.478C996.712 171.404 1030.51 174.119 1062.9 187.227C1092.6 199.298 1118.62 217.579 1143.8 235.256C1149.59 239.32 1155.57 243.523 1161.38 247.491C1224.7 290.685 1289.9 339.48 1355.17 392.519L1355.01 392.638Z" fill="#FFE492"/>
<path d="M1352.68 391.036C1287.09 336.663 1224.77 288.654 1162.16 244.266C1156.18 240.031 1150.3 235.706 1144.07 231.127C1119.73 213.228 1094.56 194.721 1065.35 182.995C1032.59 169.907 997.339 168.818 970.292 169.332C905.588 170.401 845.059 184.489 785.249 212.402C749.364 229.231 716.232 249.441 684.19 268.986C667.35 279.258 651.445 288.959 635.225 298.166C630.41 300.901 625.937 303.393 621.553 305.784C594.378 320.586 571.339 331.218 549.043 339.245C521.98 348.988 496.679 354.579 471.691 356.339C458.853 357.243 446.102 357.073 433.793 355.834C420.761 354.522 408.217 352.004 396.51 348.353C370.562 340.259 348.976 326.807 332.349 308.368C331.565 307.493 330.782 306.598 330.021 305.706C317.024 290.472 307.516 273.478 298.32 257.044C295.867 252.659 293.33 248.125 290.777 243.716C278.209 221.951 265.063 203.476 250.586 187.236C248.724 185.149 246.8 183.056 244.868 181.013C209.601 143.781 162.351 113.105 108.226 92.3034C58.2688 73.1834 6.75118 63.2073 -40.4905 63.2073C-53.8459 63.2073 -66.8495 64.0039 -79.3914 65.6158C-117.785 70.6473 -155.076 88.3103 -174.4 110.615C-188.039 126.36 -192.531 144.028 -187.389 161.708L-187.604 161.745C-190.288 152.52 -190.4 143.323 -187.938 134.412C-185.656 126.152 -181.163 118.113 -174.585 110.52C-164.727 99.1409 -150.213 88.8515 -132.608 80.7613C-115.991 73.1239 -97.6009 67.8285 -79.431 65.449C-49.5128 61.6021 -17.1148 62.3358 16.8595 67.626C47.4966 72.3954 78.27 80.6456 108.322 92.1486C162.478 112.962 209.757 143.655 245.046 180.909C246.981 182.952 248.906 185.047 250.769 187.136C265.252 203.384 278.405 221.868 290.98 243.643C293.532 248.052 296.071 252.586 298.525 256.973C307.716 273.4 317.22 290.387 330.206 305.609C330.967 306.499 331.749 307.395 332.532 308.268C363.624 342.748 414.337 360.205 471.674 356.167C529.692 352.081 582.182 327.019 621.43 305.641C625.813 303.25 630.285 300.758 635.1 298.024C651.317 288.821 667.221 279.119 684.058 268.848C716.104 249.301 749.241 229.087 785.139 212.252C815.932 197.881 846.149 187.408 877.521 180.232C907.775 173.311 938.122 169.689 970.292 169.158C988.644 168.809 1003.62 169.415 1017.41 171.063C1035.23 173.19 1050.94 177.042 1065.45 182.84C1094.69 194.576 1119.87 213.093 1144.23 231.001C1150.46 235.58 1156.34 239.904 1162.31 244.138C1224.93 288.528 1287.25 336.54 1352.84 390.916L1352.68 391.036Z" fill="#FFE492"/>
<path d="M1350.35 389.431C1285.36 334.462 1224.1 285.882 1163.07 240.908C1157.04 236.459 1151.08 231.875 1144.78 227.022C1121.16 208.84 1096.75 190.036 1067.89 178.605C1034.86 165.579 999.651 166.099 972.668 168.007C911.607 172.176 851.944 188.522 790.272 217.975C759.886 232.557 730.954 249.245 702.975 265.385C680.857 278.142 659.968 290.193 638.538 301.208C633.694 303.699 628.946 306.082 624.428 308.288C597.201 321.572 572.726 331.381 549.605 338.278C521.92 346.537 496.19 350.694 470.944 350.983C458.098 351.129 445.398 350.231 433.203 348.309C420.42 346.294 408.117 343.143 396.637 338.942C371.58 329.773 350.517 315.749 334.035 297.259C333.261 296.385 332.483 295.488 331.725 294.591C318.972 279.543 309.257 262.908 299.861 246.821C297.203 242.27 294.453 237.562 291.689 232.985C278.607 211.26 265.168 192.942 250.605 176.979C248.717 174.911 246.767 172.836 244.808 170.813C209.077 133.926 161.466 103.682 107.126 83.3521C42.6157 59.318 -24.2007 50.4261 -81.0099 58.3138C-118.906 63.667 -155.949 81.3759 -175.381 103.427C-189.328 119.255 -194.318 137.056 -189.816 154.908L-190.031 154.94C-192.379 145.635 -192.199 136.367 -189.493 127.395C-186.98 119.066 -182.295 110.969 -175.564 103.33C-165.609 92.0329 -151.168 81.7946 -133.8 73.7214C-117.374 66.0857 -99.1336 60.7002 -81.0494 58.1453C-51.1642 53.9972 -18.7332 54.4261 15.3422 59.4236C46.054 63.9274 76.9659 71.9257 107.221 83.1972C161.594 103.538 209.231 133.8 244.982 170.709C246.943 172.733 248.895 174.809 250.783 176.879C265.355 192.85 278.798 211.177 291.887 232.91C294.653 237.487 297.401 242.195 300.061 246.748C309.453 262.828 319.163 279.456 331.907 294.494C332.666 295.39 333.444 296.287 334.215 297.158C365.635 332.406 414.192 351.463 470.939 350.809C516.985 350.282 565.719 336.722 624.309 308.14C628.825 305.934 633.571 303.553 638.414 301.061C659.838 290.048 680.727 278.001 702.841 265.243C730.825 249.102 759.76 232.411 790.155 217.825C821.25 202.974 850.981 191.733 881.049 183.456C911.51 175.071 941.472 169.96 972.648 167.832C999.66 165.921 1034.91 165.402 1067.99 178.448C1096.88 189.893 1121.31 208.705 1144.94 226.896C1151.24 231.749 1157.19 236.331 1163.22 240.779C1224.26 285.754 1285.52 334.338 1350.51 389.31L1350.35 389.431Z" fill="#FFE492"/>
<path d="M1348.02 387.826C1283.63 332.26 1223.44 283.104 1163.99 237.552C1157.96 232.927 1152 228.122 1145.69 223.034C1122.74 204.527 1099.01 185.39 1070.44 174.217C1037.1 161.239 1001.95 163.375 975.046 166.685C917.595 173.622 860.48 191.691 795.297 223.552C770.85 235.555 746.96 248.723 723.857 261.456C695.797 276.922 669.292 291.531 641.85 304.255C636.905 306.549 632.012 308.752 627.305 310.798C599.59 322.839 574.358 331.513 550.169 337.314C536.62 340.563 523.245 342.917 510.415 344.311C496.73 345.797 483.199 346.241 470.198 345.632C443.819 344.394 419.113 338.978 396.768 329.535C372.636 319.336 352.099 304.742 335.727 286.154C334.958 285.274 334.186 284.376 333.432 283.484C320.952 268.657 311.063 252.416 301.502 236.713C298.607 231.959 295.615 227.043 292.605 222.26C278.995 200.571 265.264 182.408 250.627 166.73C248.712 164.679 246.733 162.622 244.75 160.619C208.556 124.076 160.586 94.2649 106.03 74.4096C41.0892 50.8674 -25.9097 42.561 -82.6244 51.0189C-143.351 60.2155 -202.526 99.9517 -192.237 148.113L-192.455 148.141C-195.029 136.093 -193.521 124.224 -187.975 112.861C-182.909 102.483 -174.597 92.716 -163.269 83.8343C-152.736 75.5755 -140.1 68.4453 -125.713 62.6411C-112.03 57.121 -97.1449 53.0427 -82.6684 50.8504C-52.8183 46.3993 -20.3521 46.527 13.8266 51.2317C44.6132 55.4683 75.6658 63.2147 106.123 74.2564C160.709 94.1253 208.707 123.953 244.924 160.517C246.909 162.522 248.888 164.578 250.805 166.631C265.448 182.316 279.186 200.49 292.803 222.187C295.813 226.97 298.805 231.885 301.7 236.641C311.259 252.34 321.143 268.573 333.617 283.392C334.369 284.284 335.138 285.182 335.907 286.061C367.373 321.782 415.07 342.876 470.211 345.463C516.892 347.651 568.242 336.265 627.197 310.651C631.902 308.605 636.793 306.405 641.738 304.11C669.174 291.39 695.673 276.782 723.73 261.319C746.835 248.583 770.727 235.414 795.178 223.409C860.387 191.535 917.529 173.458 975.01 166.517C993.086 164.292 1008.05 163.581 1022.11 164.28C1040.08 165.174 1055.92 168.374 1070.54 174.064C1099.14 185.249 1122.88 204.398 1145.84 222.915C1152.15 228.001 1158.11 232.806 1164.14 237.429C1223.6 282.985 1283.79 332.143 1348.18 387.712L1348.02 387.826Z" fill="#FFE492"/>
<path d="M1345.69 386.226C1281.92 330.054 1222.78 280.326 1164.91 234.198C1158.92 229.425 1153 224.426 1146.74 219.131C1124.41 200.27 1101.33 180.765 1072.99 169.832C1038.92 156.745 1002.13 161.015 977.423 165.366C910.363 177.029 850.265 204.144 800.323 229.133C782.373 238.151 764.469 247.703 747.153 256.94C712.415 275.471 679.606 292.974 645.166 307.306C640.101 309.415 635.062 311.436 630.186 313.313C601.93 324.171 575.942 331.708 550.74 336.351C522.169 341.616 494.823 342.94 469.455 340.285C443.395 337.557 418.984 330.775 396.903 320.128C373.743 308.962 353.731 293.798 337.419 275.056C336.658 274.176 335.891 273.276 335.141 272.38C322.971 257.825 312.959 242.031 303.275 226.757C300.103 221.751 296.821 216.576 293.523 211.539C279.178 189.579 265.555 172.086 250.652 156.484C248.711 154.452 246.708 152.416 244.696 150.43C208.033 114.234 159.703 84.8552 104.932 65.4696C39.5601 42.4211 -27.6234 34.6985 -84.2414 43.7266C-145.186 53.5734 -203.151 92.7701 -194.661 141.323L-194.879 141.345C-196.985 129.299 -195.162 117.442 -189.464 106.105C-184.241 95.7164 -175.88 85.9394 -164.611 77.0475C-154.103 68.7547 -141.532 61.5717 -127.247 55.6943C-113.645 50.0977 -98.7883 45.9019 -84.2854 43.5581C-54.4683 38.8041 -21.9691 38.6305 12.3107 43.0407C43.1721 47.01 74.3654 54.5045 105.024 65.3147C159.829 84.7105 208.185 114.106 244.866 150.324C246.877 152.312 248.882 154.35 250.825 156.382C265.737 171.991 279.365 189.494 293.716 211.463C297.014 216.499 300.296 221.676 303.469 226.682C313.15 241.951 323.16 257.74 335.321 272.288C336.071 273.184 336.836 274.082 337.597 274.962C369.307 311.395 416.144 334.534 469.482 340.117C517.319 345.124 569.853 336.305 630.087 313.16C634.961 311.284 640 309.265 645.06 307.157C679.492 292.828 712.297 275.328 747.027 256.799C764.344 247.562 782.25 238.008 800.202 228.988C833.785 212.186 861.723 199.773 888.117 189.922C919.189 178.328 948.384 170.241 977.373 165.199C995.043 162.088 1010.45 160.678 1024.46 160.893C1042.5 161.168 1058.41 164.042 1073.08 169.679C1101.46 180.625 1124.56 200.142 1146.9 219.015C1153.16 224.309 1159.08 229.308 1165.06 234.077C1222.94 280.207 1282.08 329.938 1345.85 386.111L1345.69 386.226Z" fill="#FFE492"/>
<path d="M1343.36 384.619C1280.2 327.839 1222.13 277.538 1165.83 230.838C1159.92 225.941 1154.08 220.768 1147.89 215.291C1126.15 196.05 1103.68 176.154 1075.54 165.442C1041.09 152.385 1004.4 158.389 979.802 164.042C919.042 177.882 864.847 204.234 805.349 234.707C794.618 240.224 783.765 245.917 773.268 251.425C732.896 272.607 691.152 294.508 648.479 310.351C643.295 312.278 638.107 314.118 633.061 315.82C604.614 325.407 577.107 331.987 551.305 335.38C522.075 339.223 494.287 339.071 468.706 334.932C443.011 330.774 418.896 322.626 397.031 310.714C374.904 298.66 355.413 282.927 339.101 263.953C338.347 263.071 337.586 262.169 336.841 261.274C325.037 247.06 314.962 231.779 305.219 217.003C301.708 211.679 298.078 206.174 294.431 200.818C279.526 178.879 265.619 161.536 250.665 146.237C248.702 144.229 246.67 142.21 244.63 140.239C207.51 104.384 158.824 75.4372 103.833 56.5249C38.0322 33.9699 -29.3337 26.8329 -85.8594 36.4295C-144.869 46.5572 -203.905 84.3785 -197.088 134.527L-197.306 134.544C-198.944 122.498 -196.807 110.654 -190.957 99.3419C-185.577 88.9419 -177.166 79.1564 -165.959 70.2542C-145.28 53.8321 -116.103 41.4423 -85.9077 36.261C-56.1258 31.2057 -23.5915 30.7291 10.7917 34.8448C41.7278 38.5487 73.0596 45.7895 103.921 56.3683C158.943 75.2908 207.657 104.256 244.802 140.128C246.844 142.101 248.875 144.12 250.841 146.13C265.801 161.437 279.715 178.787 294.625 200.734C298.272 206.093 301.903 211.597 305.414 216.922C315.155 231.694 325.229 246.971 337.025 261.179C337.768 262.074 338.529 262.974 339.283 263.856C371.919 301.817 416.687 326.336 468.748 334.763C516.954 342.566 572.205 336.14 632.969 315.664C638.012 313.962 643.196 312.123 648.378 310.198C691.036 294.36 732.775 272.462 773.138 251.284C783.635 245.776 794.489 240.082 805.221 234.566C831.266 221.226 861.571 205.926 891.648 193.151C923.109 179.79 951.922 170.215 979.734 163.88C997.242 159.858 1012.64 157.771 1026.81 157.502C1044.67 157.162 1061.1 159.783 1075.63 165.291C1088.23 170.089 1100.92 177.25 1114.42 187.184C1126.34 195.955 1137.38 205.728 1148.05 215.179C1154.23 220.654 1160.08 225.827 1165.98 230.722C1222.29 277.424 1280.36 327.727 1343.52 384.508L1343.36 384.619Z" fill="#FFE492"/>
<path d="M1341.03 383.016C1278.49 325.624 1221.48 274.749 1166.74 227.484C1160.94 222.48 1155.2 217.151 1149.12 211.51C1127.95 191.869 1106.07 171.559 1078.08 161.059C1051.93 151.277 1020.56 151.821 982.176 162.723C928.508 177.881 880.535 203.234 829.742 230.078C823.418 233.421 816.879 236.877 810.372 240.289C807.824 241.629 805.274 242.972 802.726 244.313C754.33 269.792 704.288 296.14 651.792 313.403C646.485 315.149 641.152 316.809 635.939 318.334C606.867 326.833 578.585 332.242 551.878 334.41C521.973 336.838 493.739 335.214 467.965 329.583C442.67 324.056 418.852 314.541 397.174 301.302C376.161 288.47 357.193 272.17 340.795 252.853C340.048 251.969 339.294 251.066 338.553 250.169C327.198 236.4 317.156 221.736 307.441 207.556C303.508 201.813 299.439 195.874 295.352 190.094C279.871 168.17 265.682 150.977 250.693 135.988C248.702 133.997 246.646 131.998 244.58 130.046C206.989 94.5379 157.942 66.0221 102.736 47.583C36.5086 25.5234 -31.0443 18.9702 -87.4754 29.1353C-145.401 39.6561 -204.354 77.7872 -199.511 127.734L-199.731 127.748C-200.898 115.7 -198.449 103.871 -192.447 92.5872C-186.91 82.1753 -178.45 72.3779 -167.302 63.4689C-146.712 47.0127 -117.635 34.4391 -87.5259 28.9702C-57.777 23.6119 -25.2097 22.8323 9.27462 26.6553C40.2854 30.0902 71.7601 37.0791 102.824 47.4263C158.061 65.8774 207.138 94.4085 244.745 129.935C246.811 131.888 248.871 133.889 250.863 135.881C265.858 150.878 280.055 168.077 295.541 190.009C299.63 195.789 303.697 201.729 307.632 207.472C317.343 221.649 327.385 236.31 338.736 250.073C339.476 250.97 340.228 251.872 340.976 252.756C374.319 292.034 418.25 318.541 468.022 329.415C517.154 340.148 573.623 336.364 635.86 318.17C641.068 316.645 646.399 314.987 651.704 313.243C704.182 295.987 754.216 269.644 802.601 244.169C805.151 242.826 807.699 241.484 810.247 240.145C816.754 236.732 823.292 233.277 829.617 229.935C880.42 203.086 928.407 177.726 982.099 162.562C999.44 157.636 1014.84 154.873 1029.16 154.112C1047.1 153.161 1063.59 155.447 1078.18 160.904C1090.71 165.607 1103.24 172.8 1116.49 182.895C1128.17 191.803 1138.91 201.765 1149.29 211.399C1155.37 217.038 1161.11 222.366 1166.9 227.369C1221.65 274.635 1278.66 325.512 1341.19 382.906L1341.03 383.016Z" fill="#FFE492"/>
<path d="M1338.69 381.412C1281.62 327.931 1224.07 275.012 1167.66 224.127C1161.91 218.976 1156.22 213.443 1150.19 207.586C1130.6 188.532 1108.38 166.937 1080.63 156.672C1054.17 146.906 1022.75 148.454 984.55 161.4C939.135 176.743 898.946 199.303 856.396 223.187C843.071 230.667 829.292 238.403 815.393 245.865C791.134 258.918 764.891 272.731 737.382 285.312C707.921 298.786 681.006 308.97 655.098 316.449C649.655 318.02 644.176 319.499 638.81 320.842C609.123 328.268 580.07 332.495 552.461 333.404C521.896 334.408 493.216 331.324 467.213 324.229C419.195 310.966 377.227 283.216 342.477 241.749C341.736 240.864 340.989 239.958 340.252 239.061C329.473 225.901 319.607 212.016 310.066 198.588C305.574 192.268 300.931 185.732 296.26 179.371C280.189 157.453 265.715 140.411 250.709 125.74C248.688 123.766 246.606 121.786 244.516 119.854C206.468 84.6885 157.06 56.6068 101.638 38.6391C34.9826 17.0731 -32.7528 11.1071 -89.0915 21.8391C-147.369 33.0033 -204.845 70.6289 -201.936 120.94L-202.156 120.947C-202.853 108.896 -200.087 97.08 -193.938 85.8255C-188.24 75.4 -179.732 65.5923 -168.648 56.6766C-158.205 48.2765 -145.828 40.9319 -131.862 34.845C-118.302 28.937 -103.931 24.5046 -89.1465 21.6723C-59.4305 16.0127 -26.8281 14.9301 7.75739 18.4586C38.843 21.6297 70.4562 28.365 101.722 38.4808C157.177 56.4587 206.613 84.5574 244.683 119.74C246.773 121.674 248.86 123.655 250.88 125.63C265.893 140.309 280.374 157.358 296.451 179.283C301.123 185.645 305.766 192.181 310.257 198.503C319.798 211.929 329.662 225.812 340.437 238.968C341.171 239.867 341.921 240.77 342.659 241.655C377.383 283.09 419.314 310.818 467.285 324.067C516.699 337.548 575.988 336.377 638.742 320.679C644.104 319.336 649.582 317.858 655.021 316.289C712.947 299.569 765.946 272.261 815.266 245.724C829.164 238.261 842.941 230.527 856.266 223.048C898.825 199.158 939.023 176.593 984.46 161.243C1022.71 148.277 1054.2 146.729 1080.72 156.517C1093.15 161.114 1105.49 168.321 1118.45 178.546C1129.88 187.562 1140.29 197.688 1150.37 207.478C1156.39 213.335 1162.08 218.867 1167.82 224.015C1224.24 274.901 1281.79 327.821 1338.86 381.303L1338.69 381.412Z" fill="#FFE492"/>
<path d="M1336.36 379.81C1280.16 326.033 1223.71 272.525 1168.57 220.772C1163.01 215.565 1157.49 209.934 1151.64 203.974C1132.52 184.476 1110.86 162.375 1083.17 152.283C1056.4 142.535 1024.92 145.085 986.924 160.076C947.117 175.759 910.544 197.904 875.176 219.322C857.442 230.06 839.103 241.165 820.416 251.441C790.922 267.676 766.106 280.06 742.317 290.418C712.984 303.189 685.537 312.7 658.411 319.495C652.842 320.891 647.214 322.188 641.685 323.351C612.877 329.405 584.588 332.469 557.525 332.471C556.022 332.471 554.527 332.46 553.032 332.442C521.744 332.047 492.619 327.482 466.467 318.876C453.844 314.699 441.482 309.397 429.727 303.116C418.678 297.213 407.82 290.26 397.454 282.45C378.805 268.401 361.372 251.454 344.163 230.646C343.424 229.751 342.688 228.854 341.955 227.953C331.97 215.676 322.524 202.842 313.389 190.43C308.115 183.266 302.663 175.856 297.172 168.644C280.264 146.425 265.941 130.03 250.726 115.488C248.679 113.533 246.571 111.572 244.454 109.659C205.944 74.8416 156.179 47.1922 100.541 29.6961C33.4587 8.62542 -34.4612 3.245 -90.7076 14.5437C-147.893 26.0637 -205.293 63.9752 -204.359 114.145L-204.579 114.147C-205.014 90.7787 -193.053 68.5574 -169.989 49.8867C-159.564 41.4476 -147.253 34.0501 -133.394 27.8952C-119.909 21.9071 -105.567 17.359 -90.7626 14.3769C-61.0818 8.41436 -28.4442 7.03053 6.24239 10.2646C37.4027 13.1701 69.1566 19.6535 100.622 29.5361C156.295 47.0442 206.089 74.7106 244.623 109.548C246.74 111.463 248.853 113.425 250.899 115.381C266.121 129.931 280.451 146.331 297.363 168.559C302.855 175.773 308.309 183.182 313.581 190.346C322.715 202.757 332.159 215.589 342.142 227.863C342.874 228.763 343.609 229.66 344.347 230.554C380.916 274.772 420.89 303.611 466.553 318.719C529.799 339.533 596.668 332.637 641.628 323.187C647.152 322.025 652.776 320.729 658.342 319.334C720.731 303.705 777.661 274.767 820.289 251.303C838.973 241.031 857.31 229.926 875.042 219.189C910.419 197.768 946.998 175.616 986.825 159.926C1003.83 153.218 1019.21 149.099 1033.86 147.335C1051.93 145.16 1068.55 146.774 1083.26 152.132C1095.66 156.651 1107.88 163.916 1120.63 174.34C1131.87 183.524 1142.01 193.868 1151.82 203.873C1157.66 209.832 1163.18 215.461 1168.74 220.665C1223.88 272.418 1280.33 325.926 1336.54 379.703L1336.36 379.81Z" fill="#FFE492"/>
<path d="M1334.03 378.205L1169.49 217.415C1164.12 212.164 1158.78 206.45 1153.13 200.402C1134.48 180.443 1113.35 157.822 1085.72 147.897C1059 138.3 1026.56 141.953 989.3 158.755C953.48 174.906 920.809 196.385 889.213 217.158C868.619 230.699 847.322 244.699 825.442 257.02C759.676 294.055 702.201 315.929 644.565 325.861C620.655 329.98 597.068 332.054 574.194 332.054C567.26 332.054 560.397 331.863 553.606 331.482C521.579 329.684 492.011 323.642 465.724 313.524C441.361 304.146 419.074 290.906 397.595 273.048C380.443 258.787 364.001 241.786 345.853 219.545C336.275 207.807 327 195.611 318.03 183.817C297.73 157.128 276.74 129.529 250.752 105.24C210.891 67.9854 158.568 38.77 99.442 20.7513C31.9353 0.177629 -36.1693 -4.61897 -92.3234 7.24657C-146.69 18.7342 -205.698 54.959 -206.784 107.35L-207.004 107.347C-206.518 83.9292 -194.183 61.7113 -171.332 43.0951C-150.672 26.2628 -122.633 13.473 -92.3806 7.08147C-62.7328 0.81763 -30.06 -0.86918 4.72555 2.0704C35.9606 4.7087 67.8552 10.9419 99.5234 20.593C128.78 29.5087 156.566 41.2449 182.111 55.4764C207.87 69.8271 231.021 86.5317 250.919 105.128C276.918 129.425 297.915 157.031 318.219 183.727C327.189 195.519 336.464 207.713 346.04 219.449C372.518 251.902 410.062 291.904 465.823 313.368C529.77 337.982 598.293 333.655 644.517 325.691C702.124 315.766 759.573 293.9 825.312 256.879C847.184 244.563 868.478 230.563 889.07 217.025C920.673 196.249 953.352 174.765 989.191 158.605C1026.52 141.774 1059.03 138.118 1085.81 147.74C1098.18 152.185 1110.29 159.512 1122.84 170.145C1133.88 179.505 1143.76 190.077 1153.31 200.3C1158.96 206.348 1164.29 212.059 1169.66 217.308L1334.21 378.098L1334.03 378.205Z" fill="#FFE492"/>
<path d="M1332.71 365.844C1290.81 321.074 1254.86 284.746 1219.57 251.519C1202.45 235.377 1184.95 219.49 1167.58 204.296C1162.33 199.701 1157.12 194.812 1151.61 189.636C1137.76 176.627 1123.44 163.175 1106.96 153.192C1098.11 147.822 1089.59 143.976 1080.91 141.437C1054.28 133.564 1023.04 138.77 988.052 156.909C969.944 166.283 953.456 176.95 939.715 186.148C925.169 195.886 910.819 206.625 896.941 217.01C876.995 231.937 856.369 247.372 834.196 260.628C820.704 268.719 807.028 275.948 793.545 282.116C766.571 294.456 737.617 304.625 707.49 312.339C688.876 317.052 670.172 320.615 651.901 322.926C636.154 324.911 620.378 326.057 605.009 326.331C582.007 326.743 559.596 325.171 538.399 321.657C515.861 317.919 494.532 311.953 475.006 303.922C457.594 296.761 441.148 287.745 424.728 276.356C394.131 255.151 369.726 230.632 351.884 211.639C343.119 202.266 334.56 192.707 326.283 183.462C302.45 156.839 279.938 131.694 251.768 109.296C228.792 91.1474 202.579 75.4861 173.847 62.744C151.769 52.9516 127.756 44.9431 102.476 38.9397C96.4545 37.5116 90.3188 36.1806 84.2445 34.9874C58.0922 29.8589 28.6511 26.5193 -3.25891 25.0606C-35.4305 23.5559 -63.2646 24.858 -88.3463 29.0452C-102.526 31.3942 -116.264 35.0793 -129.184 39.9967C-174.797 57.3585 -204.086 86.504 -207.533 117.963L-207.808 117.944C-206.889 109.558 -204.192 101.297 -199.793 93.3891C-195.613 85.8776 -189.873 78.6334 -182.733 71.8572C-169.241 59.0572 -150.766 47.9729 -129.305 39.8044C-116.365 34.8784 -102.605 31.1882 -88.4035 28.8359C-63.2954 24.6452 -35.4393 23.3414 -3.24133 24.8478C28.6862 26.3065 58.1428 29.6495 84.3127 34.7814C90.3935 35.9763 96.5315 37.3074 102.557 38.7372C127.857 44.744 151.89 52.7593 173.986 62.5602C202.737 75.3108 228.973 90.9857 251.959 109.146C280.147 131.558 302.664 156.71 326.505 183.34C334.78 192.584 343.339 202.142 352.101 211.513C369.935 230.497 394.329 255.005 424.908 276.196C441.311 287.573 457.74 296.581 475.131 303.733C513.346 319.449 557.04 326.981 605 326.118C620.356 325.844 636.121 324.698 651.855 322.715C670.113 320.404 688.804 316.845 707.402 312.135C737.512 304.426 766.447 294.264 793.404 281.931C806.878 275.767 820.546 268.542 834.027 260.458C856.187 247.209 876.808 231.777 896.747 216.855C910.628 206.468 924.979 195.726 939.533 185.985C953.28 176.782 969.777 166.111 987.898 156.73C1003.48 148.654 1018.56 143.074 1032.73 140.145C1050.14 136.547 1066.39 136.914 1081.01 141.238C1089.71 143.786 1098.25 147.641 1107.12 153.023C1123.63 163.022 1137.96 176.482 1151.82 189.5C1157.33 194.674 1162.54 199.563 1167.79 204.155C1185.16 219.35 1202.66 235.239 1219.79 251.384C1255.08 284.615 1291.03 320.947 1332.93 365.72L1332.71 365.844Z" fill="#FFE492"/>
<path d="M1331.38 353.481C1292.53 307.954 1256.07 269.857 1219.92 237.014C1202.28 220.972 1184.03 205.55 1165.67 191.179C1160.8 187.367 1156 183.404 1150.9 179.21C1135.66 166.65 1119.89 153.663 1102.23 144.677C1093.31 140.121 1084.77 136.948 1076.11 134.977C1042.93 127.426 1009.23 141.731 986.803 155.06C970.911 164.476 956.397 175.123 941.696 186.114C928.829 195.734 916.722 206.083 903.906 217.038C884.883 233.3 865.211 250.116 842.95 264.235C829.74 272.659 815.954 279.942 801.974 285.882C775.934 296.95 747.418 305.544 714.798 312.158C696.542 315.859 677.847 318.495 659.231 319.991C643.523 321.239 627.844 321.685 612.627 321.312C589.987 320.764 567.858 318.299 546.85 313.988C524.787 309.459 503.735 302.841 484.281 294.318C467.237 286.853 450.779 277.59 433.968 266.002C403.437 244.985 377.282 221.687 357.91 203.736C350.738 197.091 343.682 190.405 336.855 183.937C309.672 158.18 283.997 133.85 252.784 113.353C229.456 98.0337 203.267 85.0805 174.947 74.8541C153.519 67.1162 130.807 61.3188 105.516 57.1298C99.6796 56.1647 93.7417 55.295 87.8697 54.5443C62.0779 51.2643 34.5516 50.0235 1.24779 48.7401C-22.7589 47.7681 -54.1852 47.1281 -84.376 50.8422C-98.6745 52.5681 -112.496 55.5656 -125.46 59.7477C-171.103 74.4762 -202.066 100.206 -208.287 128.577L-208.613 128.534C-206.964 121.011 -203.622 113.632 -198.687 106.601C-193.982 99.9009 -187.8 93.4771 -180.315 87.5026C-166.089 76.1528 -147.165 66.4728 -125.587 59.5111C-112.599 55.3205 -98.7515 52.3179 -84.4288 50.5886C-54.2094 46.8694 -22.7589 47.5111 1.26317 48.483C34.5779 49.7664 62.1131 51.0073 87.9225 54.289C93.7988 55.0413 99.7411 55.9111 105.585 56.8762C130.899 61.0703 153.633 66.8728 175.085 74.6192C203.434 84.8558 229.645 97.8192 252.997 113.154C284.232 133.666 309.918 158.003 337.111 183.77C343.934 190.236 350.991 196.922 358.162 203.566C377.53 221.51 403.674 244.8 434.188 265.806C450.98 277.382 467.419 286.635 484.444 294.092C522.696 310.849 565.829 319.92 612.638 321.053C627.842 321.425 643.506 320.98 659.198 319.733C677.796 318.238 696.476 315.605 714.714 311.906C747.308 305.299 775.8 296.711 801.818 285.654C815.78 279.721 829.549 272.447 842.743 264.032C864.985 249.925 884.647 233.116 903.664 216.863C916.485 205.903 928.594 195.552 941.47 185.927C956.177 174.929 970.698 164.279 986.605 154.852C1001.15 146.211 1015.49 139.995 1029.23 136.372C1045.9 131.981 1061.71 131.428 1076.2 134.727C1084.9 136.706 1093.47 139.889 1102.41 144.459C1120.1 153.462 1135.88 166.461 1151.15 179.031C1156.24 183.224 1161.05 187.184 1165.91 190.995C1184.28 205.372 1202.53 220.798 1220.17 236.846C1256.34 269.697 1292.8 307.801 1331.66 353.338L1331.38 353.481Z" fill="#FFE492"/>
<path d="M1330.06 341.115C1293.7 294.213 1257.78 255.416 1220.26 222.509C1202.12 206.565 1183.11 191.612 1163.77 178.061C1159.64 175.164 1155.38 172.09 1151.26 169.118C1134.27 156.839 1116.69 144.143 1097.51 136.162C1088.5 132.39 1079.93 129.888 1071.3 128.514C1038.2 123.239 1006.4 139.031 985.557 153.207C971.428 162.776 958.512 173.622 946.021 184.112L943.682 186.077C932.34 195.593 921.702 206.031 910.437 217.083C892.5 234.681 873.955 252.877 851.704 267.838C838.758 276.608 824.862 283.946 810.401 289.648C785.187 299.59 757.127 306.684 722.099 311.975C703.987 314.71 685.3 316.419 666.556 317.052C650.888 317.561 635.306 317.306 620.238 316.289C574.621 313.227 531.998 302.603 493.552 284.712C476.932 276.977 460.464 267.471 443.208 255.644C414.007 235.673 388.035 215.146 363.938 195.831C360.706 193.243 357.51 190.671 354.338 188.119C321.425 161.653 290.34 136.654 253.806 117.413C229.956 104.851 203.792 94.6075 176.046 86.965C155.676 81.3547 133.599 77.5454 108.559 75.319C102.916 74.8203 97.176 74.4101 91.4975 74.1003C77.2122 73.3343 62.0607 73.2101 46.0189 73.079C33.134 72.9735 19.8116 72.8645 5.75274 72.4203C-21.3999 71.4892 -52.1733 70.4356 -80.4097 72.6415C-94.9786 73.7803 -108.884 76.0884 -121.74 79.5028C-167.366 91.622 -200.003 113.939 -209.045 139.2L-209.417 139.12C-207.034 132.459 -203.05 125.962 -197.579 119.809C-192.346 113.925 -185.725 108.318 -177.898 103.145C-162.929 93.2526 -143.553 84.9803 -121.867 79.2203C-108.982 75.7973 -95.0489 73.4841 -80.4515 72.3437C-52.1864 70.136 -21.3977 71.1913 5.76593 72.1224C19.816 72.5649 33.1384 72.6756 46.0189 72.7811C62.0673 72.9122 77.2232 73.0364 91.5217 73.8041C97.2046 74.1156 102.951 74.5258 108.599 75.0245C133.67 77.2526 155.772 81.0671 176.172 86.6858C203.951 94.3369 230.143 104.592 254.02 117.168C290.586 136.425 321.687 161.437 354.612 187.915C357.785 190.466 360.983 193.037 364.213 195.627C388.305 214.938 414.269 235.46 443.461 255.425C460.699 267.237 477.15 276.735 493.75 284.46C532.145 302.329 574.713 312.938 620.271 315.997C635.321 317.011 650.888 317.266 666.539 316.758C685.263 316.124 703.932 314.417 722.024 311.685C757.017 306.4 785.044 299.314 810.225 289.386C824.655 283.695 838.525 276.371 851.45 267.617C873.671 252.674 892.206 234.488 910.132 216.9C921.401 205.843 932.045 195.401 943.396 185.877L945.735 183.913C958.233 173.418 971.155 162.565 985.3 152.985C1006.21 138.764 1038.12 122.926 1071.38 128.225C1080.04 129.605 1088.65 132.116 1097.69 135.903C1116.92 143.901 1134.51 156.611 1151.52 168.904C1155.64 171.876 1159.89 174.95 1164.02 177.845C1183.37 191.403 1202.39 206.364 1220.54 222.317C1258.08 255.237 1294.01 294.048 1330.38 340.965L1330.06 341.115Z" fill="#FFE492"/>
<path d="M1328.73 328.748C1295.35 281.138 1258.97 240.513 1220.6 208.006C1201.95 192.163 1182.19 177.676 1161.87 164.947C1158.93 163.109 1155.93 161.201 1153.02 159.356C1133.81 147.167 1113.95 134.561 1092.8 127.65C1083.71 124.653 1075.12 122.823 1066.51 122.054C1033.5 119.106 1003.59 136.36 984.315 151.354C972.344 160.617 961.539 170.918 951.09 180.881C949.283 182.605 947.476 184.326 945.667 186.04C935.728 195.456 926.435 205.975 916.597 217.111C899.872 236.042 882.577 255.616 860.461 271.446C847.472 280.741 833.855 287.928 818.827 293.419C787.394 304.903 755.981 309.153 729.4 311.798C711.421 313.586 692.744 314.369 673.881 314.12C658.261 313.89 642.774 312.932 627.851 311.274C583.603 306.37 541.539 294.203 502.827 275.111C486.719 267.169 470.242 257.415 452.45 245.295C434.478 233.08 417.731 221.327 401.533 209.96C390.525 202.234 380.127 194.937 369.973 187.936C331.588 161.471 296.429 138.203 254.837 121.478C230.474 111.683 204.337 104.146 177.152 99.0783C157.667 95.4459 136.839 93.6774 111.608 93.5089C106.165 93.4783 100.621 93.5276 95.1312 93.657C86.7926 93.8663 78.166 94.3038 69.036 94.7685C51.5146 95.6587 31.652 96.6681 10.257 96.103C2.10968 95.8868 -6.20252 95.5821 -14.2421 95.2859C-34.9204 94.5251 -56.3022 93.7387 -76.4462 94.4417C-91.2394 94.9591 -105.23 96.5795 -118.025 99.2587C-163.574 108.799 -197.884 127.705 -209.809 149.831L-210.215 149.7C-207.094 143.906 -202.468 138.292 -196.469 133.014C-190.707 127.945 -183.645 123.157 -175.485 118.784C-159.76 110.358 -139.932 103.494 -118.144 98.9302C-105.318 96.2442 -91.2965 94.6187 -76.4704 94.1012C-56.3044 93.3966 -34.9138 94.1846 -14.2245 94.9455C-6.18713 95.2417 2.12507 95.5464 10.2702 95.7625C31.6454 96.3276 51.4926 95.32 69.0052 94.4298C78.1396 93.9651 86.7684 93.5276 95.1158 93.3183C100.612 93.1889 106.161 93.1395 111.61 93.1702C136.877 93.337 157.735 95.1106 177.253 98.7481C204.471 103.822 230.644 111.368 255.037 121.177C273.825 128.731 292.863 138.302 313.24 150.435C331.483 161.296 349.228 173.18 370.263 187.683C380.417 194.685 390.816 201.982 401.825 209.708C418.021 221.073 434.768 232.826 452.736 245.039C470.51 257.148 486.97 266.891 503.058 274.825C541.717 293.892 583.722 306.042 627.908 310.939C642.813 312.595 658.281 313.552 673.883 313.781C692.724 314.03 711.382 313.249 729.338 311.461C755.887 308.821 787.258 304.576 818.636 293.112C833.622 287.637 847.204 280.469 860.157 271.197C882.236 255.395 899.518 235.836 916.23 216.92C926.074 205.778 935.372 195.254 945.322 185.827C947.131 184.113 948.936 182.392 950.743 180.67C961.198 170.7 972.01 160.392 983.996 151.117C996.538 141.363 1009.41 133.858 1022.24 128.813C1037.44 122.837 1052.35 120.45 1066.55 121.72C1075.2 122.493 1083.84 124.331 1092.96 127.34C1114.17 134.27 1134.06 146.891 1153.29 159.095C1156.2 160.94 1159.2 162.849 1162.14 164.685C1182.47 177.424 1202.25 191.924 1220.92 207.78C1241.29 225.041 1261.24 244.707 1280.21 266.232C1296.98 285.257 1313.43 306.237 1329.1 328.588L1328.73 328.748Z" fill="#FFE492"/>
<path d="M1327.4 316.38C1296.5 267.405 1260.69 226.063 1220.95 193.503C1201.79 177.76 1181.27 163.742 1159.97 151.834C1158.96 151.267 1157.95 150.7 1156.93 150.132C1134.78 137.733 1111.88 124.913 1088.09 119.141C1078.88 116.904 1070.25 115.745 1061.73 115.595C1028.85 115.02 1000.81 133.716 983.079 149.5C972.646 158.734 963.384 168.855 954.427 178.642C952.214 181.063 949.923 183.565 947.663 186.002C939.052 195.286 931.047 205.84 922.575 217.017C907.162 237.345 891.225 258.365 869.223 275.052C856.495 284.707 842.768 291.948 827.258 297.19C796.702 307.517 765.676 310.229 736.701 311.621C718.834 312.479 700.163 312.332 681.206 311.187C665.637 310.217 650.248 308.557 635.464 306.256C592.722 299.618 551.216 285.909 512.104 265.509C496.441 257.34 480.423 247.628 461.699 234.943C426.113 210.903 399.689 193.97 376.02 180.041C328.946 152.339 293.017 136.041 255.888 125.546C231.031 118.52 204.92 113.691 178.278 111.192C159.793 109.459 140.177 109.614 114.675 111.699C109.45 112.132 104.103 112.64 98.7829 113.214C93.7573 113.764 88.6526 114.394 83.2467 115.059C63.2873 117.519 40.6634 120.307 14.7705 119.786C1.12274 119.512 -12.8174 118.761 -26.2981 118.036C-41.6188 117.212 -57.4606 116.36 -72.4801 116.244C-87.5393 116.128 -101.616 117.061 -114.307 119.018C-159.704 126.016 -195.692 141.514 -210.574 160.474L-210.996 160.275C-207.131 155.349 -201.863 150.618 -195.341 146.215C-189.044 141.963 -181.548 137.995 -173.058 134.419C-156.565 127.471 -136.283 122.014 -114.404 118.642C-101.677 116.681 -87.5701 115.745 -72.4758 115.861C-57.443 115.977 -41.5924 116.829 -26.2651 117.655C-12.7888 118.38 1.14471 119.131 14.7815 119.405C40.6282 119.924 63.2279 117.139 83.1653 114.683C88.5734 114.016 93.6825 113.388 98.7103 112.836C104.037 112.263 109.388 111.754 114.618 111.32C140.159 109.233 159.809 109.076 178.332 110.814C205.012 113.316 231.16 118.152 256.053 125.189C293.233 135.697 329.199 152.012 376.315 179.738C399.992 193.672 426.426 210.61 462.02 234.658C480.731 247.332 496.731 257.034 512.377 265.194C551.436 285.565 592.881 299.255 635.559 305.883C650.323 308.181 665.694 309.837 681.242 310.807C700.176 311.951 718.823 312.098 736.668 311.241C765.599 309.851 796.573 307.146 827.058 296.843C842.511 291.621 856.189 284.404 868.874 274.783C890.827 258.132 906.748 237.134 922.144 216.828C930.623 205.645 938.632 195.081 947.256 185.784C949.516 183.349 951.807 180.846 954.021 178.426C962.984 168.63 972.252 158.503 982.703 149.253C994.274 138.952 1006.4 130.804 1018.76 125.034C1033.23 118.274 1047.69 114.974 1061.74 115.217C1070.31 115.367 1078.98 116.533 1088.24 118.78C1112.1 124.572 1135.04 137.41 1157.22 149.827C1158.23 150.395 1159.25 150.964 1160.26 151.529C1181.59 163.451 1202.12 177.486 1221.31 193.246C1261.08 225.835 1296.92 267.209 1327.84 316.218L1327.4 316.38Z" fill="#FFE492"/>
<path d="M747.64 311.444C746.407 311.444 745.191 311.443 743.995 311.438C726.221 311.38 707.557 310.307 688.525 308.248C673.013 306.537 657.721 304.176 643.073 301.233C622.144 297.036 601.14 291.003 580.64 283.305C560.843 275.87 540.906 266.651 521.38 255.902C502.247 245.371 484.376 233.637 470.944 224.59C439.515 203.48 409.612 185.836 382.066 172.145C337.452 149.974 297.693 136.457 256.941 129.609C232.356 125.478 205.98 123.299 180.584 123.299C180.19 123.299 179.799 123.299 179.405 123.301C157.588 123.359 136.875 126.498 117.744 129.882C112.765 130.768 107.614 131.737 102.435 132.763C99.5964 133.332 96.7539 133.917 93.7465 134.537C72.534 138.913 48.4899 143.871 19.2796 143.465C1.49004 143.216 -16.6799 141.79 -34.2518 140.409C-45.5978 139.517 -57.3285 138.597 -68.5185 138.04C-83.9008 137.276 -98.0563 137.521 -110.596 138.772C-155.751 143.272 -193.417 155.364 -211.354 171.119L-211.767 170.838C-202.567 162.758 -188.728 155.763 -170.635 150.043C-153.355 144.583 -132.618 140.539 -110.666 138.351C-98.0937 137.099 -83.9007 136.85 -68.4833 137.618C-57.2824 138.174 -45.545 139.097 -34.1946 139.989C-16.6337 141.369 1.5252 142.796 19.2906 143.043C48.4262 143.449 72.4284 138.498 93.6058 134.13C96.6154 133.509 99.4579 132.923 102.298 132.355C107.482 131.328 112.637 130.358 117.621 129.471C136.785 126.082 157.533 122.939 179.403 122.879C205.204 122.809 232.053 124.995 257.058 129.197C278.09 132.733 298.48 137.936 319.389 145.105C339.527 152.011 360.126 160.74 382.361 171.791C409.929 185.492 439.854 203.15 471.302 224.273C484.723 233.315 502.581 245.041 521.694 255.56C561.316 277.371 602.2 292.6 643.209 300.826C657.837 303.766 673.11 306.123 688.6 307.832C707.607 309.889 726.245 310.961 743.995 311.017C771.77 311.106 804.021 310.381 835.476 300.568C851.397 295.601 865.17 288.338 877.584 278.365C899.386 260.85 913.838 238.37 927.818 216.629C935.009 205.446 941.8 194.883 949.184 185.739C951.55 182.809 953.937 179.791 956.246 176.872C964.046 167.01 972.11 156.814 981.4 147.39C992.018 136.547 1003.41 127.752 1015.26 121.25C1029.01 113.711 1043.01 109.494 1056.9 108.714C1065.47 108.232 1074.17 108.724 1083.5 110.219C1108.43 114.212 1133.14 125.814 1158.37 138.37C1180.37 149.318 1202.26 163.267 1221.69 178.711C1243.26 195.815 1263.53 215.882 1281.93 238.352C1298.33 258.37 1313.35 280.406 1326.57 303.848L1326.07 304.018C1297.67 253.676 1262.42 211.616 1221.29 179.008C1201.9 163.587 1180.04 149.659 1158.08 138.729C1132.89 126.195 1108.23 114.615 1083.39 110.636C1074.11 109.15 1065.46 108.661 1056.94 109.139C1031.42 110.574 1004.75 124.249 981.837 147.648C972.565 157.056 964.507 167.243 956.714 177.095C954.406 180.016 952.016 183.036 949.65 185.965C942.279 195.092 935.493 205.647 928.31 216.82C921.451 227.487 914.359 238.518 906.221 249.123C896.994 261.145 887.758 270.806 877.982 278.661C865.513 288.678 851.678 295.974 835.683 300.964C821.575 305.366 806.413 308.275 789.329 309.861C774.861 311.198 760.33 311.444 747.64 311.444Z" fill="#FFE492"/>
<path d="M782.894 312.298C771.684 312.298 760.916 311.78 751.283 311.256C733.57 310.293 714.915 308.293 695.837 305.311C680.391 302.861 665.195 299.801 650.673 296.211C610.906 286.402 571.644 270.073 530.646 246.296C512.766 235.928 495.911 224.773 480.183 214.236C449.133 193.496 418.157 176.679 388.112 164.25C343.924 145.971 302.58 136.253 258.001 133.67C232.6 132.197 205.815 132.798 180.537 135.406C159.38 137.588 139.434 142.854 120.813 148.059C116.155 149.368 111.2 150.798 106.088 152.308C104.811 152.687 103.523 153.074 102.217 153.464C80.7713 159.884 56.5052 167.149 25.3625 167.149C24.8371 167.149 24.3139 167.147 23.784 167.142C2.71444 166.977 -18.797 164.648 -39.6028 162.395C-47.8513 161.501 -56.3811 160.579 -64.5658 159.831C-80.5527 158.374 -94.3983 157.944 -106.896 158.519C-152.353 160.613 -190.722 169.082 -212.161 181.762L-212.528 181.389C-201.929 175.122 -186.604 169.68 -168.214 165.653C-150.126 161.692 -128.935 159.064 -106.934 158.051C-94.4005 157.474 -80.5197 157.905 -64.4977 159.365C-56.3042 160.112 -47.7721 161.036 -39.5215 161.928C-18.7355 164.179 2.75621 166.505 23.7862 166.67C55.5775 166.922 80.2393 159.537 101.995 153.023C103.298 152.633 104.589 152.247 105.866 151.865C110.982 150.354 115.939 148.924 120.602 147.615C139.254 142.4 159.237 137.127 180.452 134.938C205.769 132.327 232.598 131.724 258.04 133.198C280.132 134.478 301.195 137.501 322.432 142.437C344.304 147.522 365.879 154.519 388.391 163.833C418.474 176.279 449.489 193.116 480.573 213.877C496.293 224.41 513.138 235.559 531.002 245.916C571.945 269.661 611.147 285.966 650.851 295.76C665.351 299.343 680.527 302.4 695.951 304.846C715.003 307.825 733.632 309.823 751.318 310.783C781.08 312.4 812.742 313.231 843.889 304.282C860.278 299.573 874.148 292.264 886.288 281.937C907.916 263.542 921.377 238.451 933.255 216.313C939.23 205.174 944.875 194.653 951.103 185.685C953.35 182.449 955.612 179.105 957.8 175.87C964.641 165.751 971.716 155.288 980.089 145.516C989.778 134.133 1000.44 124.691 1011.77 117.453C1024.78 109.142 1038.34 104.008 1052.06 102.199C1060.63 101.067 1069.37 100.887 1078.75 101.642C1104.97 103.758 1131.6 114.213 1156.48 125.196C1179.45 135.338 1202.12 148.812 1222.06 164.162C1244.24 181.186 1264.67 201.453 1282.79 224.396C1298.99 244.914 1313.29 267.477 1325.3 291.464L1324.73 291.632C1299.22 240.647 1263.56 196.682 1221.64 164.492C1201.74 149.171 1179.11 135.722 1156.18 125.602C1131.36 114.643 1104.8 104.214 1078.69 102.107C1069.36 101.355 1060.69 101.535 1052.16 102.659C1026.83 106 1001.41 121.31 980.597 145.772C972.239 155.523 965.173 165.976 958.338 176.085C956.151 179.321 953.889 182.665 951.64 185.905C945.425 194.853 939.786 205.363 933.815 216.49C921.917 238.662 908.434 263.794 886.736 282.25C874.528 292.633 860.582 299.983 844.1 304.72C829.797 308.829 814.369 311.208 796.929 311.99C792.213 312.211 787.517 312.298 782.894 312.298Z" fill="#FFE492"/>
<path d="M805.021 314.14C804.861 314.14 804.702 314.14 804.542 314.14C788.7 314.109 773.146 312.608 758.571 311.073C740.885 309.21 722.24 306.281 703.151 302.37C687.775 299.185 672.677 295.421 658.277 291.187C620.099 279.975 582.491 262.659 539.919 236.689C524.587 227.34 509.499 217.272 494.906 207.537C493.082 206.318 491.255 205.101 489.428 203.884C458.217 183.149 426.166 167.158 394.168 156.356C350.352 141.566 306.161 135.472 259.071 137.728C233.251 138.965 206.49 142.347 181.681 147.508C162.106 151.581 144.664 158.116 123.893 166.235C119.683 167.888 115.187 169.672 109.749 171.85L109.445 171.973C98.9521 176.204 87.0587 180.999 73.7188 184.645C58.398 188.832 43.5345 190.848 28.2929 190.824C4.52588 190.778 -19.7292 187.353 -43.1841 184.039C-48.9308 183.227 -54.8753 182.388 -60.6131 181.629C-77.0683 179.455 -90.9974 178.358 -103.196 178.274C-148.114 177.968 -188.13 183.122 -212.981 192.412L-213.267 191.952C-201.094 187.401 -184.674 183.707 -165.783 181.27C-146.857 178.827 -125.211 177.615 -103.19 177.765C-90.9556 177.849 -76.9913 178.948 -60.501 181.127C-54.7588 181.886 -48.8142 182.725 -43.0654 183.537C-19.6391 186.846 4.58524 190.267 28.2951 190.313C28.4007 190.313 28.5084 190.313 28.6139 190.313C62.5288 190.313 88.3668 179.896 109.142 171.52L109.447 171.398C114.888 169.217 119.384 167.433 123.596 165.78C144.402 157.648 161.875 151.101 181.511 147.016C206.362 141.845 233.167 138.458 259.032 137.219C282.076 136.116 303.811 136.957 325.486 139.792C348.841 142.848 371.395 148.112 394.432 155.889C426.492 166.712 458.597 182.729 489.859 203.498C491.686 204.715 493.512 205.934 495.337 207.152C509.924 216.884 525.007 226.948 540.326 236.291C582.843 262.228 620.396 279.52 658.51 290.713C672.89 294.943 687.967 298.7 703.32 301.881C722.383 305.787 741.001 308.712 758.659 310.57C790.287 313.903 821.252 316.215 852.316 308.017C869.173 303.568 883.137 296.213 895.002 285.53C916.437 266.233 928.145 239.495 938.478 215.901C943.315 204.856 947.883 194.422 953.036 185.655C955.019 182.281 957.008 178.792 958.932 175.416C964.947 164.863 971.166 153.952 978.793 143.665C987.571 131.734 997.492 121.644 1008.28 113.675C1020.57 104.592 1033.68 98.5464 1047.22 95.7072C1055.62 93.9472 1064.19 93.0894 1073.41 93.0894C1073.61 93.0894 1073.81 93.0894 1074.01 93.0911C1102.64 93.2068 1132.11 103.28 1154.59 112.043C1178.53 121.379 1202 134.376 1222.44 149.631C1245.22 166.577 1265.82 187.043 1283.65 210.463C1299.65 231.479 1313.24 254.572 1324.03 279.103L1323.41 279.268C1307.35 242.768 1276.72 190.713 1221.99 150C1201.59 134.78 1178.18 121.813 1154.29 112.499C1131.88 103.76 1102.5 93.7157 1074.01 93.6017C1064.62 93.5591 1055.92 94.4136 1047.4 96.2008C1022.3 101.462 998.136 118.409 979.364 143.918C971.755 154.182 965.543 165.081 959.534 175.622C957.611 178.999 955.619 182.49 953.636 185.866C948.496 194.611 943.932 205.032 939.102 216.065C928.752 239.701 917.022 266.49 895.503 285.862C883.559 296.616 869.501 304.021 852.529 308.499C838.145 312.293 822.597 314.14 805.021 314.14Z" fill="#FFE492"/>
<path d="M822.615 316.536C819.203 316.536 815.716 316.451 812.146 316.281C796.52 315.537 781.333 313.305 765.856 310.888C747.915 308.087 729.796 304.339 710.463 299.43C695.166 295.511 680.167 291.048 665.879 286.162C629.634 273.784 593.646 255.562 549.192 227.082C538.151 220.01 527.115 212.592 516.442 205.418C510.632 201.513 504.626 197.474 498.674 193.53C467.092 172.655 433.971 157.492 400.229 148.461C355.648 136.527 309.828 134.342 260.149 141.78C233.902 145.71 207.165 151.874 182.831 159.603C163.282 165.812 146.253 174.532 128.224 183.765L126.978 184.403C124.161 185.85 121.315 187.317 118.432 188.801C116.773 189.658 115.102 190.519 113.416 191.387C102.903 196.829 91.548 202.505 78.5268 206.875C63.4083 211.947 48.4547 214.442 32.8064 214.504C6.75516 214.602 -19.8171 209.915 -45.5121 205.377C-49.1791 204.728 -52.9735 204.059 -56.6559 203.424C-73.92 200.446 -87.5304 198.732 -99.4942 198.027C-143.643 195.428 -185.307 197.259 -213.807 203.053L-213.99 202.519C-185.415 196.71 -143.665 194.871 -99.4392 197.475C-87.4425 198.182 -73.7969 199.901 -56.4998 202.885C-52.8152 203.521 -49.0208 204.19 -45.3516 204.839C-19.9709 209.321 6.26493 213.952 31.971 213.952C32.248 213.952 32.525 213.952 32.8042 213.95C66.053 213.821 89.7211 202.985 113.022 190.927C114.708 190.059 116.379 189.198 118.039 188.342C120.921 186.856 123.766 185.39 126.584 183.942L127.831 183.304C145.891 174.056 162.948 165.321 182.56 159.091C206.938 151.346 233.722 145.172 260.015 141.235C309.82 133.778 355.762 135.971 400.465 147.937C434.289 156.992 467.488 172.189 499.14 193.11C505.092 197.055 511.1 201.093 516.91 204.999C527.579 212.172 538.613 219.588 549.647 226.655C594.048 255.103 629.986 273.299 666.167 285.656C680.435 290.534 695.413 294.992 710.687 298.904C729.991 303.806 748.084 307.549 765.999 310.345C793.194 314.592 827.038 319.879 860.742 311.736C878.07 307.55 892.127 300.15 903.715 289.11C924.942 268.888 934.785 240.447 943.471 215.356C947.243 204.456 950.807 194.16 954.966 185.615C956.586 182.286 958.211 178.842 959.781 175.511C965.048 164.34 970.496 152.789 977.491 141.804C985.381 129.319 994.564 118.58 1004.78 109.886C1016.37 100.034 1029.02 93.0771 1042.38 89.2081C1050.96 86.7247 1059.75 85.1945 1069.26 84.529C1081.99 83.6371 1095.55 84.5903 1110.69 87.4362C1123.51 89.8464 1137.25 93.5877 1152.7 98.8762C1177.62 107.406 1201.87 119.928 1222.83 135.089C1246.21 151.955 1266.97 172.624 1284.51 196.519C1300.31 218.035 1313.18 241.658 1322.77 266.732L1322.08 266.888C1301.84 213.952 1266.42 167.288 1222.34 135.494C1201.43 120.374 1177.25 107.887 1152.41 99.3835C1119.12 87.9894 1092.72 83.443 1069.32 85.0805C1059.88 85.7409 1051.15 87.2609 1042.63 89.7256C1010.83 98.929 990.002 123.259 978.131 142.047C971.153 153.006 965.712 164.543 960.451 175.7C958.879 179.033 957.255 182.478 955.634 185.809C951.488 194.328 947.929 204.612 944.161 215.499C935.457 240.645 925.593 269.145 904.269 289.459C892.588 300.585 878.42 308.046 860.953 312.265C849.115 315.125 836.489 316.536 822.615 316.536Z" fill="#FFE492"/>
<path d="M837.859 319.284C814.611 319.284 792.259 314.66 773.137 310.704C755.148 306.983 737.037 302.333 717.77 296.49C702.56 291.843 687.657 286.678 673.477 281.138C630.97 264.549 593.076 240.738 558.46 217.477C551.392 212.728 544.252 207.833 537.349 203.099C527.764 196.525 517.851 189.729 507.919 183.179C475.864 162.098 441.672 147.761 406.295 140.566C360.53 131.261 313.078 132.981 261.226 145.829C234.528 152.444 207.818 161.388 183.98 171.696C165.595 179.645 150.039 189.681 133.571 200.306C132.403 201.058 131.234 201.814 130.058 202.57L129.42 202.981C125.417 205.567 121.277 208.239 117.08 210.922C107.025 217.378 95.9513 224.055 83.1433 229.157C68.2755 235.078 53.2867 238.032 37.3152 238.185C9.28102 238.456 -19.2918 232.353 -46.9214 226.452C-48.8582 226.038 -50.7862 225.627 -52.7054 225.22C-70.9259 221.349 -84.2175 219.055 -95.7987 217.778C-138.839 213.036 -182.157 211.545 -214.645 213.688L-214.711 213.094C-182.17 210.946 -138.789 212.438 -95.691 217.187C-84.0768 218.467 -70.7566 220.767 -52.5032 224.644C-50.584 225.051 -48.656 225.463 -46.717 225.878C-19.1401 231.768 9.37777 237.855 37.3042 237.589C71.9886 237.256 96.4152 223.412 116.588 210.462C120.785 207.78 124.924 205.107 128.927 202.524L129.565 202.112C130.741 201.354 131.911 200.6 133.078 199.848C149.575 189.204 165.157 179.152 183.604 171.175C207.486 160.849 234.247 151.889 260.991 145.262C285.573 139.172 308.663 135.655 331.577 134.512C357.138 133.237 382.341 135.08 406.488 139.991C441.977 147.208 476.27 161.586 508.416 182.724C518.355 189.278 528.269 196.076 537.857 202.651C544.76 207.385 551.896 212.278 558.961 217.026C593.542 240.261 631.39 264.047 673.82 280.605C687.98 286.137 702.861 291.295 718.05 295.935C737.288 301.77 755.37 306.413 773.333 310.129C800.914 315.834 835.24 322.936 869.158 315.463C886.956 311.541 901.105 304.095 912.416 292.697C933.424 271.524 941.285 241.334 948.221 214.695C951.009 203.993 953.641 193.884 956.885 185.582C958.086 182.512 959.29 179.339 960.456 176.27C965.015 164.267 969.731 151.853 976.179 139.95C983.194 126.9 991.638 115.509 1001.28 106.098C1012.15 95.4784 1024.35 87.6112 1037.53 82.7141C1046.09 79.5346 1054.91 77.3303 1064.5 75.9737C1077.42 74.1473 1091.75 74.2086 1107.1 76.1558C1120.54 77.8614 1135.24 81.0767 1150.79 85.715C1176.68 93.4375 1201.72 105.484 1223.19 120.551C1247.19 137.339 1268.1 158.207 1285.36 182.578C1300.95 204.595 1313.11 228.748 1321.49 254.365L1320.75 254.512C1302.99 200.231 1268.16 152.813 1222.68 120.993C1201.27 105.975 1176.32 93.9686 1150.52 86.2716C1117.07 76.2954 1088.98 73.1175 1064.64 76.5609C1055.12 77.9073 1046.36 80.0963 1037.86 83.252C1006.5 94.9031 987.393 120.639 976.889 140.18C970.456 152.052 965.747 164.449 961.194 176.437C960.029 179.506 958.822 182.68 957.622 185.754C954.388 194.028 951.759 204.124 948.975 214.813C945.638 227.628 941.857 242.153 936.368 255.77C930.078 271.371 922.443 283.569 913.027 293.06C907.582 298.547 901.325 303.218 894.428 306.942C887.011 310.947 878.58 314.008 869.369 316.037C858.829 318.36 848.253 319.284 837.859 319.284Z" fill="#FFE492"/>
<path d="M851.599 322.298C843.913 322.298 835.861 321.719 827.355 320.563C810.603 318.288 794.568 314.158 780.419 310.517C762.585 305.927 743.965 300.216 725.078 293.545C709.964 288.177 695.158 282.311 681.075 276.109C640.652 258.327 605.827 234.682 567.729 207.867C564.343 205.484 560.905 203.053 557.581 200.701C544.489 191.443 530.954 181.87 517.163 172.825C484.576 151.498 449.316 137.988 412.36 132.67C365.745 125.962 315.256 131.75 262.303 149.874C235.131 159.174 208.444 170.899 185.13 183.782C167.576 193.482 153.126 204.919 137.827 217.028C136.273 218.259 134.712 219.493 133.142 220.732C129.235 223.819 125.028 227.134 120.747 230.451C111.771 237.431 100.832 245.385 87.7624 251.433C73.1319 258.204 58.1058 261.617 41.8287 261.864C12.0314 262.318 -18.3001 254.679 -47.6335 247.292L-48.7503 247.011C-63.1126 243.396 -78.3058 239.743 -92.0986 237.525C-134.141 230.766 -177.958 226.073 -215.474 224.311L-215.423 223.675C-177.868 225.438 -134.011 230.134 -91.9316 236.9C-78.0991 239.125 -62.8795 242.783 -48.4953 246.403L-47.3785 246.684C-18.1088 254.054 12.1611 261.675 41.8133 261.224C76.058 260.703 99.7085 245.908 120.165 229.996C124.445 226.681 128.648 223.367 132.555 220.281C134.125 219.043 135.686 217.808 137.24 216.579C152.565 204.449 167.042 192.992 184.653 183.259C208.011 170.35 234.748 158.604 261.971 149.287C286.816 140.785 311.264 134.926 334.633 131.876C361.335 128.391 387.538 128.446 412.514 132.039C449.61 137.377 485 150.934 517.697 172.335C531.499 181.389 545.041 190.965 558.139 200.228C561.463 202.579 564.902 205.009 568.287 207.392C606.348 234.182 641.136 257.801 681.486 275.552C695.549 281.745 710.333 287.602 725.425 292.963C744.286 299.624 762.875 305.326 780.683 309.91C808.596 317.096 843.335 326.037 877.591 319.186C895.862 315.532 910.103 308.041 921.13 296.282C941.908 274.129 947.92 240.739 952.752 213.908C954.634 203.457 956.411 193.586 958.82 185.552C959.578 183.019 960.346 180.41 961.087 177.886C964.934 164.773 968.915 151.212 974.884 138.099C984.102 117.692 1001.61 90.393 1032.69 76.2262C1041.27 72.3147 1050.12 69.4347 1059.75 67.4227C1084.94 62.0832 1114.94 63.8108 1148.9 72.5547C1175.76 79.4704 1201.59 91.0398 1223.58 106.013C1248.18 122.722 1269.26 143.79 1286.23 168.64C1294.01 180.037 1300.89 192.211 1306.68 204.822C1312.2 216.868 1316.76 229.377 1320.23 242.002L1319.42 242.134C1304.15 186.505 1269.92 138.333 1223.03 106.492C1201.12 91.5742 1175.4 80.0491 1148.64 73.1589C1114.84 64.4542 1085 62.7317 1059.96 68.0372C1050.41 70.0338 1041.62 72.8917 1033.1 76.7742C1002.24 90.8423 984.834 118.002 975.662 138.308C969.707 151.387 965.734 164.929 961.889 178.025C961.148 180.55 960.383 183.161 959.623 185.695C957.222 193.702 955.446 203.559 953.568 213.995C951.137 227.496 948.382 242.798 943.673 257.241C938.263 273.837 931.107 286.73 921.797 296.657C916.485 302.32 910.273 307.096 903.334 310.851C895.86 314.897 887.266 317.91 877.795 319.803C869.483 321.467 860.802 322.298 851.599 322.298Z" fill="#FFE492"/>
<path d="M864.261 325.482C855.05 325.482 845.335 324.558 834.959 322.704C818.145 319.703 801.969 314.723 787.697 310.328C769.729 304.796 751.12 298.159 732.385 290.6C717.37 284.515 702.662 277.948 688.672 271.08C650.173 252.195 617.153 227.855 582.194 202.088C580.464 200.813 578.733 199.536 576.999 198.26C560.742 186.29 543.933 173.912 526.409 162.474C493.255 140.876 456.926 128.192 418.432 124.774C370.08 120.479 317.914 130.285 263.38 153.916C236.102 165.735 208.721 180.634 186.279 195.866C169.334 207.368 155.743 220.309 141.355 234.011C139.651 235.633 137.943 237.261 136.221 238.891C132.783 242.154 128.692 246.023 124.409 249.981C116.477 257.329 105.67 266.667 92.3785 273.691C77.9811 281.301 62.9219 285.181 46.3393 285.547C32.7091 285.81 17.6676 284.181 0.352852 280.564C-14.5128 277.46 -28.8926 273.402 -44.8048 268.806C-59.3297 264.559 -74.6592 260.173 -88.4125 257.276C-129.151 248.694 -172.183 241.179 -216.31 234.935L-216.151 234.267C-171.998 240.512 -128.942 248.033 -88.1816 256.619C-74.391 259.524 -59.0395 263.918 -44.497 268.168C-17.8258 275.873 15.368 285.467 46.3151 284.866C81.6964 284.083 104.435 267.426 123.734 249.541C128.015 245.587 132.104 241.72 135.54 238.459C137.261 236.828 138.969 235.201 140.671 233.581C155.084 219.856 168.699 206.893 185.699 195.354C208.186 180.091 235.62 165.164 262.951 153.322C317.65 129.62 369.996 119.788 418.533 124.098C437.142 125.751 455.422 129.589 472.86 135.506C491.571 141.853 509.778 150.753 526.976 161.955C544.52 173.405 561.34 185.79 577.606 197.768C579.34 199.046 581.073 200.321 582.803 201.596C617.729 227.341 650.72 251.657 689.144 270.507C703.115 277.364 717.801 283.923 732.794 289.998C751.502 297.545 770.083 304.173 788.025 309.696C816.222 318.377 851.315 329.181 886.014 322.915C904.811 319.521 919.147 311.984 929.835 299.875C950.428 276.747 954.095 241.415 957.043 213.027C958.098 202.874 959.094 193.284 960.745 185.529C961.086 183.929 961.427 182.321 961.767 180.704C964.85 166.098 968.037 150.993 973.58 136.253C981.489 115.051 997.322 86.3022 1027.84 69.7439C1036.35 65.1243 1045.23 61.5703 1054.99 58.8775C1068.56 55.1005 1083.68 53.3252 1099.92 53.5975C1114.76 53.846 1130.6 55.7983 1147 59.3983C1174.83 65.5039 1201.44 76.5967 1223.95 91.4767C1249.16 108.103 1270.4 129.376 1287.08 154.702C1294.74 166.323 1301.37 178.746 1306.78 191.628C1311.97 203.965 1316.07 216.755 1318.96 229.642L1318.09 229.758C1305.5 173.603 1270.98 123.39 1223.38 91.9941C1200.96 77.1788 1174.47 66.132 1146.76 60.0503C1112.59 52.5507 1080.96 52.3669 1055.28 59.5158C1045.6 62.1881 1036.78 65.7149 1028.34 70.2988C998.035 86.743 982.292 115.344 974.422 136.44C968.895 151.141 965.711 166.224 962.634 180.811C962.293 182.428 961.952 184.038 961.611 185.638C959.965 193.364 958.971 202.942 957.918 213.08C954.961 241.55 951.283 276.983 930.559 300.26C925.406 306.096 919.244 310.981 912.246 314.775C904.716 318.857 895.958 321.819 886.215 323.579C879.18 324.845 871.894 325.482 864.261 325.482Z" fill="#FFE492"/>
<path d="M876.16 328.796C865.664 328.796 854.545 327.481 842.561 324.843C825.607 321.11 809.33 315.281 794.972 310.138C776.827 303.64 758.226 296.074 739.687 287.655C724.779 280.864 710.171 273.594 696.263 266.052C662.019 247.485 632.751 224.739 601.765 200.658C596.699 196.72 591.461 192.651 586.264 188.649C567.995 174.589 552.395 162.996 535.65 152.121C501.904 130.237 464.509 118.378 424.5 116.874C374.227 114.983 320.376 128.804 264.449 157.953C236.665 172.435 209.308 190.188 187.419 207.944C170.928 221.321 158.037 235.883 144.389 251.299C142.698 253.209 141.001 255.126 139.293 257.044C136.25 260.467 132.223 264.978 128.066 269.5C110.571 288.578 87.7139 308.218 50.8443 309.223C49.6945 309.252 48.5404 309.265 47.3884 309.265C18.598 309.265 -10.7948 300.443 -40.8647 290.593L-42.7422 289.973C-57.6364 285.051 -71.7063 280.402 -84.7297 277.018C-133.809 264.266 -181.275 253.502 -217.145 245.549L-216.887 244.853C-181.009 252.809 -133.53 263.575 -84.4329 276.332C-71.3743 279.725 -57.2891 284.38 -42.375 289.308L-40.4998 289.927C-9.32848 300.138 21.113 309.247 50.8113 308.501C87.272 307.507 109.938 288.018 127.303 269.083C131.458 264.564 135.481 260.057 138.524 256.635C140.232 254.715 141.927 252.801 143.617 250.891C157.287 235.451 170.198 220.865 186.741 207.446C208.675 189.652 236.087 171.863 263.926 157.352C289.764 143.885 315.61 133.544 340.747 126.615C369.588 118.664 397.783 115.144 424.544 116.15C464.759 117.662 502.344 129.578 536.247 151.565C553.017 162.457 568.632 174.062 586.919 188.133C592.118 192.135 597.357 196.206 602.424 200.143C633.38 224.201 662.619 246.925 696.798 265.454C710.685 272.988 725.271 280.246 740.157 287.027C758.67 295.435 777.242 302.99 795.361 309.478C823.804 319.665 859.203 332.343 894.435 326.635C913.693 323.515 928.119 315.934 938.535 303.459C958.868 279.277 960.091 241.958 961.073 211.972C961.394 202.188 961.698 192.945 962.667 185.498L962.689 185.328C964.863 168.652 967.112 151.41 972.268 134.397C976.733 119.558 982.952 106.217 990.75 94.7408C999.543 81.8029 1010.39 71.2089 1022.98 63.2514C1031.4 57.9272 1040.32 53.6974 1050.22 50.322C1076.99 41.1493 1109.8 39.7331 1145.09 46.2301C1159.3 48.8446 1173.31 52.8054 1186.74 58.0003C1200.25 63.2259 1212.89 69.597 1224.32 76.9331C1250.14 93.4795 1271.55 114.954 1287.94 140.76C1302.67 163.954 1312.96 190.414 1317.68 217.275L1316.76 217.372C1306.64 159.881 1272.74 108.896 1223.73 77.4897C1200.81 62.7799 1173.54 52.2131 1144.88 46.9382C1109.79 40.4786 1077.19 41.8795 1050.6 50.9893C1040.77 54.3391 1031.93 58.5348 1023.57 63.8165C1000.06 78.6744 982.638 103.139 973.18 134.566C968.038 151.534 965.793 168.753 963.621 185.405L963.599 185.575C962.632 192.995 962.329 202.223 962.008 211.994C961.021 242.072 959.794 279.504 939.318 303.856C934.297 309.871 928.178 314.862 921.139 318.688C913.548 322.814 904.629 325.727 894.626 327.349C888.669 328.312 882.528 328.796 876.16 328.796Z" fill="#FFE492"/>
<path d="M51.5277 332.965C38.6538 332.965 24.6345 331.023 8.81252 327.057C-6.90833 323.116 -22.4555 317.676 -36.9167 312.386C-39.535 311.423 -42.1335 310.461 -44.7145 309.506C-57.562 304.752 -69.6972 300.262 -81.0389 296.764C-126.262 282.822 -169.369 270.291 -211.057 258.175L-217.965 256.166L-217.618 255.45L-210.71 257.458C-169.019 269.578 -125.906 282.109 -80.6739 296.054C-69.3015 299.561 -57.1509 304.056 -44.288 308.817C-41.7092 309.772 -39.1107 310.733 -36.4946 311.695C-6.80942 322.555 24.729 333.079 55.3177 332.141C92.9194 330.929 115.453 308.25 130.882 288.629C134.834 283.612 138.642 278.611 141.518 274.815C143.105 272.723 144.681 270.633 146.253 268.548C159.29 251.263 171.603 234.936 187.796 219.542C209.172 199.225 236.557 178.571 264.912 161.388C291.219 145.446 317.764 132.851 343.816 123.952C373.696 113.744 402.883 108.447 430.563 108.207C472.214 107.727 510.899 118.822 545.529 141.179C564.725 153.588 581.937 167.011 596.244 178.505C604.029 184.76 611.813 191.172 619.343 197.373C645.994 219.326 673.553 242.023 704.461 260.408C718.267 268.623 732.759 276.582 747.53 284.063C765.81 293.3 784.373 301.78 802.708 309.266C831.367 320.967 867.031 335.528 902.863 330.361C922.585 327.516 937.101 319.891 947.243 307.048C967.305 281.77 965.951 242.406 964.861 210.777C964.54 201.424 964.234 192.589 964.601 185.475C965.426 169.44 966.668 150.803 970.97 132.549C974.595 117.082 980.069 103.089 987.241 90.9595C995.353 77.2386 1005.75 65.7356 1018.13 56.7688C1026.34 50.8267 1035.54 45.7833 1045.47 41.7765C1059.64 36.0403 1075.54 32.4335 1092.73 31.0582C1108.83 29.7697 1125.81 30.4471 1143.19 33.0701C1157.85 35.2829 1172.29 38.922 1186.13 43.8888C1200.05 48.8863 1213.03 55.1127 1224.7 62.3944C1238.16 70.7791 1250.53 80.6803 1261.48 91.8242C1271.85 102.382 1281.04 114.158 1288.8 126.822C1303.32 150.514 1312.87 177.52 1316.42 204.915L1315.43 204.992C1307.8 146.161 1274.51 94.4046 1224.08 62.9918C1200.99 48.5884 1172.19 38.2292 1143 33.8224C1106.9 28.3739 1073.34 31.3595 1045.93 42.4556C1036.07 46.4301 1026.95 51.4344 1018.81 57.3288C995.469 74.2242 979.7 99.5774 971.942 132.687C967.648 150.891 966.411 169.496 965.588 185.506C965.224 192.594 965.527 201.416 965.85 210.757C966.387 226.36 966.995 244.047 964.955 261.145C962.588 280.985 957.07 296.131 948.087 307.448C943.198 313.641 937.126 318.738 930.042 322.599C922.392 326.769 913.308 329.634 903.046 331.113C897.868 331.86 892.696 332.199 887.554 332.199C856.76 332.199 826.921 320.015 802.248 309.942C783.887 302.444 765.295 293.952 746.991 284.701C732.198 277.21 717.687 269.239 703.861 261.012C672.889 242.59 645.302 219.869 618.624 197.896C611.096 191.697 603.314 185.286 595.534 179.034C581.246 167.554 564.059 154.149 544.898 141.765C510.455 119.526 471.996 108.497 430.578 108.97C365.534 109.535 304.919 138.112 265.523 161.988C237.225 179.137 209.895 199.746 188.566 220.022C172.421 235.37 160.125 251.671 147.108 268.929C145.536 271.014 143.958 273.104 142.371 275.198C139.493 278.995 135.683 284 131.728 289.023C125.251 297.259 115.084 309.249 101.616 318.236C95.0761 322.601 88.1159 326.03 80.9293 328.432C72.916 331.11 64.3115 332.614 55.3595 332.902C54.091 332.944 52.8138 332.965 51.5277 332.965Z" fill="#FFE492"/>
<path d="M55.6611 356.661C42.7718 356.661 28.7811 354.569 13.0427 350.3C-3.25195 345.881 -19.3619 339.668 -32.9701 334.172C-37.1515 332.48 -41.3241 330.764 -45.3604 329.105C-56.6426 324.466 -67.3005 320.083 -77.3495 316.506C-113.436 303.655 -149.288 291.108 -183.962 278.974C-195.431 274.96 -207.289 270.81 -218.782 266.78L-218.351 266.043C-206.858 270.073 -195 274.223 -183.531 278.237C-148.857 290.371 -113.001 302.919 -76.912 315.772C-66.8367 319.36 -56.1656 323.746 -44.8701 328.392C-40.836 330.051 -36.6635 331.765 -32.4865 333.457C-4.26323 344.851 28.4733 356.912 59.8205 355.777C98.3081 354.351 119.925 329.586 134.461 308.172C138.187 302.686 141.791 297.178 144.512 292.992C145.91 290.844 147.3 288.698 148.687 286.557C161.156 267.297 172.933 249.106 188.854 231.638C209.561 208.917 236.925 185.403 265.9 165.425C306.252 137.723 368.618 103.932 436.58 100.267C479.801 97.874 519.581 108.145 554.811 130.797C570.639 140.979 586.292 152.723 605.568 168.882C615.309 177.047 624.976 185.51 634.323 193.692C658.644 214.98 683.79 236.994 712.125 255.369C725.852 264.272 740.245 272.931 754.904 281.105C772.654 290.992 791.211 300.398 810.056 309.062C839.002 322.289 875.027 338.754 911.29 334.094C931.173 331.592 946.197 323.702 955.949 310.647C975.735 284.225 971.489 240.998 968.388 209.435C967.517 200.577 966.695 192.211 966.534 185.462C966.174 170.463 966.204 150.686 969.671 130.711C975.655 96.0987 990.33 69.0417 1013.29 50.2961C1021.33 43.6919 1030.56 37.954 1040.71 33.2408C1055.15 26.5276 1071.44 22.0118 1089.14 19.8212C1105.81 17.7582 1123.35 17.7906 1141.29 19.9182C1156.42 21.7531 1171.3 25.0791 1185.51 29.8008C1199.87 34.5702 1213.18 40.6467 1225.08 47.8621C1238.84 56.1991 1251.41 66.1344 1262.44 77.394C1272.89 88.0646 1282.05 100.007 1289.66 112.892C1303.95 137.083 1312.77 164.633 1315.15 192.565L1314.11 192.618C1308.97 132.444 1276.29 79.9149 1224.44 48.5004C1200.93 34.2484 1171.34 24.3812 1141.13 20.7182C1103.88 16.3012 1069.35 20.8714 1041.25 33.9353C1031.19 38.6093 1022.03 44.3012 1014.05 50.8527C991.244 69.474 976.662 96.3778 970.709 130.82C967.251 150.74 967.222 170.478 967.581 185.449C967.743 192.174 968.563 200.529 969.432 209.375C971.034 225.69 972.85 244.184 971.813 262.238C970.601 283.261 965.71 299.229 956.855 311.054C952.091 317.432 946.067 322.64 938.946 326.535C931.228 330.758 921.981 333.569 911.464 334.894C895.152 336.989 877.595 335.107 857.79 329.137C840.574 323.947 824.079 316.41 809.528 309.762C790.655 301.086 772.074 291.666 754.297 281.765C739.616 273.58 725.203 264.909 711.457 255.993C683.062 237.581 657.888 215.544 633.543 194.233C624.199 186.053 614.535 177.595 604.803 169.437C585.56 153.307 569.936 141.585 554.145 131.426C519.124 108.904 479.597 98.6944 436.651 101.072C368.981 104.723 306.821 138.41 266.59 166.029C237.672 185.966 210.366 209.432 189.703 232.104C173.826 249.523 162.067 267.689 149.617 286.919C148.23 289.062 146.84 291.209 145.442 293.357C142.718 297.546 139.113 303.059 135.382 308.55C120.719 330.155 98.8841 355.141 59.8667 356.586C58.4795 356.635 57.0747 356.661 55.6611 356.661Z" fill="#FFE492"/>
<path d="M59.8777 380.359C24.6591 380.359 -12.2941 363.612 -45.0526 348.764C-55.1192 344.203 -64.6273 339.893 -73.6628 336.249L-219.6 277.394L-219.092 276.64L-73.1549 335.494C-64.0953 339.147 -54.5762 343.462 -44.4964 348.031C-10.4716 363.452 28.0952 380.931 64.3228 379.416C103.659 377.774 124.381 350.924 138.04 327.719C142.507 320.129 146.821 312.407 150.993 304.938C162.405 284.512 174.204 263.391 189.907 243.733C202.377 228.124 217.867 211.755 234.702 196.397C253.171 179.547 272.946 164.088 293.472 150.451C316.105 135.416 339.118 122.979 361.869 113.486C387.035 102.987 411.826 96.1326 435.56 93.1113C483.105 87.0602 526.348 96.2432 564.084 120.408C595.444 140.488 622.098 165.319 647.874 189.333C670.311 210.235 693.511 231.847 719.782 250.322C750.127 271.66 782.969 291.351 817.398 308.848C846.406 323.59 882.509 341.939 919.717 337.815C951.141 334.332 969.311 318.053 975.26 288.044C980.321 262.519 975.506 232.24 971.639 207.911C970.32 199.62 969.076 191.789 968.464 185.438C965.092 150.429 967.242 121.528 975.036 97.0875C979.898 81.8381 987.074 68.2449 996.362 56.6858C1006.74 43.7734 1020.06 33.0091 1035.95 24.6925C1049.7 17.4976 1065.2 12.2721 1082.01 9.16061C1098.02 6.1989 1114.87 5.20656 1132.11 6.21082C1165.99 8.18529 1199.14 17.8125 1225.45 33.3172C1239.51 41.6049 1252.27 51.576 1263.39 62.9513C1273.92 73.7326 1283.05 85.8432 1290.52 98.9496C1304.58 123.639 1312.66 151.736 1313.87 180.201L1312.77 180.23C1310.18 119.613 1277.29 64.9462 1224.78 33.9964C1169.02 1.12826 1089.86 -2.48876 1036.56 25.3989C983.765 53.0245 961.847 105.353 969.557 185.375C970.166 191.705 971.41 199.527 972.727 207.808C976.603 232.189 981.429 262.533 976.344 288.174C973.574 302.14 968.007 313.363 959.801 321.535C955.184 326.129 949.62 329.884 943.26 332.693C936.491 335.682 928.623 337.689 919.871 338.659C916.294 339.055 912.656 339.255 908.956 339.255C895.473 339.255 881.111 336.615 865.374 331.266C847.646 325.241 830.538 316.546 816.792 309.561C782.316 292.039 749.428 272.322 719.039 250.953C692.709 232.439 669.485 210.802 647.023 189.877C621.28 165.894 594.659 141.094 563.378 121.065C525.895 97.0654 482.949 87.942 435.732 93.9522C340.219 106.109 241.832 180.349 190.835 244.182C175.173 263.786 163.39 284.878 151.993 305.277C147.819 312.749 143.503 320.477 139.032 328.073C129.963 343.479 121.007 354.511 110.846 362.786C104.503 367.951 97.6222 372.022 90.3938 374.887C82.3564 378.072 73.6024 379.883 64.3734 380.269C62.8829 380.329 61.3814 380.359 59.8777 380.359Z" fill="#FFE492"/>
</g>
</svg>
