<svg width="57" height="44" viewBox="0 0 57 44" fill="none" xmlns="http://www.w3.org/2000/svg">
<path d="M29.511 14.4866C29.7402 14.7766 30.1166 14.971 30.1536 15.4189C29.5675 15.0516 29.0848 14.7263 28.5683 14.4368C28.3678 14.3245 28.1252 14.0202 27.8548 14.2638C27.5833 14.5083 28.0043 14.6409 28.1841 14.7811C28.6002 15.1057 29.1021 15.3639 29.4383 15.7511C29.5199 15.845 29.6638 15.9191 29.5791 16.0887C29.1736 16.0791 29.0189 15.7777 28.7405 15.6314C28.4265 15.4665 28.1658 15.2422 27.8721 15.0528C27.7604 14.9808 27.6212 14.8791 27.4704 14.9954C27.3246 15.108 27.4325 15.2261 27.5343 15.3082C27.8385 15.5534 28.1679 15.7799 28.471 16.0259C28.7393 16.2435 29.0754 16.4339 29.1145 16.8211C28.3268 16.7978 27.9173 16.2132 27.2347 16.0977C27.0588 16.3283 27.252 16.4365 27.4068 16.5349C28.4164 17.1767 29.321 17.8892 30.0223 18.7491C30.2497 19.0279 30.7118 19.1542 30.9276 19.418C31.55 20.1788 32.101 20.9737 32.0985 21.9162C32.0974 22.3379 31.8142 22.5493 31.2847 22.5502C28.891 22.5545 26.4973 22.5575 24.1037 22.5468C23.4438 22.5439 23.2245 22.3821 23.2156 21.8814C23.1955 20.7434 23.0445 19.5861 23.2588 18.4724C23.4701 17.3742 23.7939 16.2252 25.0002 15.4239C25.101 15.357 25.2018 15.2813 25.2688 15.1942C26.0376 14.1949 27.0276 13.3407 28.1354 12.5615C28.2743 12.4638 28.446 12.3228 28.2641 12.1846C28.0695 12.0368 27.9271 12.2208 27.7829 12.3009C27.2991 12.5698 26.8935 12.9378 26.2754 13.0462C26.1057 12.8298 26.2902 12.7099 26.4027 12.5838C26.7524 12.1919 27.2224 11.8825 27.631 11.5309C27.7916 11.3928 28.1673 11.2634 27.8652 11.0371C27.5927 10.833 27.4294 11.1066 27.2728 11.2254C26.8636 11.5358 26.3801 11.7848 26.0205 12.1366C25.9425 12.2129 25.8404 12.2964 25.6356 12.2345C25.6748 11.9588 25.9366 11.779 26.1546 11.5932C26.5141 11.2869 26.9035 11.0016 27.28 10.7073C27.4289 10.5908 27.5099 10.457 27.3516 10.3172C27.1994 10.1828 27.0351 10.2659 26.8916 10.3428C26.3871 10.6132 25.9232 10.9207 25.4916 11.2582C25.364 11.3579 25.267 11.4966 25.0579 11.5215C24.9001 11.3369 25.0796 11.2337 25.1791 11.1196C25.3925 10.8745 25.6167 10.635 25.8309 10.3903C25.9583 10.2448 26.1467 10.0777 25.8848 9.92834C25.6372 9.78707 25.4582 9.95728 25.3021 10.0844C24.7739 10.5146 24.2845 10.9671 23.9589 11.5121C23.8901 11.6271 23.8676 11.7736 23.6579 11.8265C23.3683 11.7268 23.379 11.4561 23.1792 11.3043C23.0558 11.2105 22.9356 11.0852 22.7439 11.149C22.5211 11.2231 22.6079 11.3692 22.6743 11.4921C22.9226 11.9516 22.698 12.3939 22.5921 12.839C22.5404 13.0561 22.4285 13.2654 22.453 13.4918C22.5853 14.7191 21.8344 15.7172 21.0555 16.7086C20.9128 16.8902 20.7141 16.9685 20.4366 16.9672C19.2111 16.9613 17.9855 16.9684 16.76 16.9607C16.2309 16.9575 15.9461 16.7464 15.9459 16.3255C15.945 14.4334 15.9368 12.5413 15.9451 10.6492C15.9468 10.2442 16.2035 10.0877 16.8261 10.0858C18.5879 10.0804 20.3496 10.0847 22.1114 10.083C23.1657 10.0819 23.1999 10.0572 23.202 9.22586C23.2054 7.91027 23.1998 6.59468 23.2009 5.27908C23.2015 4.60438 23.3379 4.49587 24.1864 4.49536C26.5227 4.49394 28.8589 4.49361 31.1951 4.49518C31.9437 4.49568 32.101 4.61933 32.1059 5.20084C32.1178 6.61871 32.1237 8.03662 32.1405 9.45446C32.1467 9.97828 32.2663 10.0737 32.9426 10.0758C34.7809 10.0814 36.6192 10.0787 38.4576 10.0746C39.1513 10.0731 39.3463 10.2079 39.3472 10.7498C39.3501 12.5975 39.3487 14.4453 39.3427 16.293C39.3411 16.7773 39.1146 16.9626 38.4738 16.9657C36.693 16.9742 34.9121 16.9641 33.1312 16.9682C32.8138 16.9689 32.6291 16.8824 32.5704 16.6307C32.4581 16.1484 32.0572 15.6895 32.3962 15.1726C32.4551 15.0828 32.4025 14.9924 32.2702 14.9626C32.1237 14.9296 32.0177 14.9995 31.9167 15.0725C31.7215 15.2135 31.7577 15.4748 31.4884 15.5728C31.3116 15.5728 31.25 15.4695 31.1953 15.3815C30.8659 14.8516 30.3498 14.4347 29.8229 14.0258C29.673 13.9095 29.508 13.6912 29.2603 13.8472C29.0247 13.9957 29.2385 14.1686 29.3538 14.3172C29.393 14.3676 29.4424 14.4134 29.511 14.4866Z" fill="#407BFF"/>
<path d="M32.5964 30.5156C32.5968 29.6147 32.6174 28.7576 32.5884 27.9014C32.5758 27.5284 32.792 27.4595 33.2069 27.463C33.6136 27.4665 33.9306 27.4817 33.9022 27.8982C33.8752 28.2924 33.8964 28.6886 33.8964 29.09C34.5023 29.2147 35.0744 29.0625 35.6417 29.1191C35.9113 29.146 35.9294 28.9709 35.9307 28.8156C35.9336 28.4759 35.9475 28.1359 35.933 27.7966C35.9203 27.4977 36.1509 27.4491 36.4503 27.4724C36.7586 27.4965 37.2213 27.3478 37.2273 27.7812C37.2445 29.0218 37.243 30.2626 37.2325 31.5032C37.2293 31.8815 36.8282 31.7806 36.5476 31.7871C36.2708 31.7936 35.9376 31.837 35.9379 31.4884C35.9383 31.1044 35.9237 30.7202 35.9343 30.3364C35.9411 30.0898 35.7981 30.0073 35.4903 29.9871C33.9198 29.8843 33.9336 29.8795 33.8849 31.0959C33.8733 31.3847 34.1027 31.8247 33.3225 31.7977C32.6053 31.7728 32.601 31.7958 32.5969 31.2245C32.5954 31.003 32.5965 30.7814 32.5964 30.5156Z" fill="black"/>
<path d="M8.20526 30.0721C8.20543 30.6462 8.20543 31.176 8.20543 31.6846C7.97067 31.8429 7.73109 31.7741 7.51088 31.791C7.13067 31.8203 6.94333 31.708 6.96653 31.3908C6.99021 31.0672 6.95379 30.741 6.97488 30.4172C6.99415 30.1212 6.8633 29.9984 6.45777 29.9855C4.87144 29.9348 4.86376 29.9259 4.87085 31.1762C4.87294 31.5441 4.88949 31.834 4.20526 31.8061C3.6942 31.7853 3.54796 31.6533 3.55703 31.2803C3.58143 30.277 3.5671 29.2732 3.57156 28.2696C3.57545 27.3924 3.64803 27.3494 4.86625 27.5332C4.86625 27.9151 4.88067 28.3099 4.86142 28.7037C4.84752 28.9879 4.99624 29.0887 5.36066 29.106C6.95778 29.1817 6.95723 29.1885 6.97087 28.0046C6.97758 27.4216 7.0905 27.374 8.20509 27.5321C8.20509 28.355 8.20509 29.1914 8.20526 30.0721Z" fill="black"/>
<path d="M17.6976 30.8077C17.0114 30.734 16.6027 30.8644 16.4616 31.4164C16.3516 31.8467 16.0382 31.8925 15.0469 31.7183C15.1275 31.222 15.4114 30.7689 15.6133 30.3017C15.9643 29.4893 16.365 28.6898 16.7206 27.8787C16.8443 27.5966 16.9826 27.3985 17.4363 27.4564C17.8776 27.5127 18.4111 27.2638 18.6463 27.8353C19.1267 29.0027 19.6909 30.1496 20.2164 31.3061C20.2721 31.4288 20.2996 31.5592 20.3391 31.6827C19.4433 31.9563 19.0261 31.8458 18.8329 31.2114C18.6705 30.6783 18.1769 30.8338 17.6976 30.8077ZM17.7313 28.5169C17.3888 28.9358 17.2632 29.4024 17.1671 29.8497C17.3344 29.9657 17.4719 29.9491 17.603 29.9519C18.2671 29.9665 18.3106 29.9264 18.1259 29.438C18.0141 29.1426 17.8881 28.8504 17.7313 28.5169Z" fill="black"/>
<path d="M45.5164 27.4689C46.3121 27.469 47.0515 27.469 47.7738 27.469C47.9659 28.2454 47.9098 28.3011 47.0024 28.3075C46.8304 28.3087 46.6573 28.3189 46.4867 28.3074C46.0558 28.2784 45.8757 28.3962 45.8763 28.7564C45.8769 29.1259 46.1176 29.169 46.488 29.1522C46.6975 29.1426 46.9084 29.1549 47.1184 29.1496C47.4719 29.1408 47.7399 29.1596 47.7446 29.5366C47.7491 29.909 47.5282 29.9986 47.1192 29.9817C46.9476 29.9746 46.773 29.9931 46.6038 29.9763C46.0597 29.9222 45.8514 30.0824 45.877 30.5183C45.8963 30.8461 46.0324 30.9745 46.4503 30.9521C46.7355 30.9367 47.0236 30.9568 47.3098 30.9488C47.6692 30.9387 47.8869 31.003 47.8654 31.3417C47.8467 31.635 47.7919 31.8111 47.327 31.7954C46.5833 31.7702 45.8369 31.7818 45.092 31.7933C44.7289 31.799 44.568 31.6894 44.5692 31.4061C44.5742 30.2115 44.5642 29.0168 44.5705 27.8221C44.5734 27.2821 45.1257 27.5309 45.5164 27.4689Z" fill="black"/>
<path d="M10.4344 27.696C10.4967 27.4508 10.7113 27.4719 10.8967 27.471C11.6815 27.4672 12.4667 27.4792 13.2513 27.466C13.6557 27.4592 13.7195 27.6233 13.7196 27.8825C13.7197 28.1402 13.6602 28.3171 13.2558 28.3059C12.8927 28.2957 12.5284 28.3128 12.1648 28.3086C11.7311 28.3037 11.7513 28.5319 11.7439 28.7633C11.736 29.0076 11.8161 29.1658 12.1889 29.1507C12.4752 29.1391 12.7637 29.1608 13.05 29.1489C13.424 29.1334 13.6113 29.2222 13.6053 29.5463C13.5998 29.8473 13.4591 29.9877 13.0708 29.9806C12.8794 29.9771 12.6879 29.9801 12.4965 29.9804C11.7632 29.9817 11.6798 30.064 11.7428 30.6312C11.7677 30.8557 11.8907 30.9494 12.1718 30.9467C12.4972 30.9436 12.8234 30.9582 13.1479 30.9455C13.5576 30.9294 13.7228 31.0464 13.7258 31.3809C13.729 31.7335 13.524 31.8027 13.1303 31.7945C12.4225 31.7796 11.7128 31.7739 11.0058 31.7972C10.5425 31.8124 10.4107 31.6674 10.4162 31.3294C10.4356 30.1326 10.4267 28.9355 10.4344 27.696Z" fill="black"/>
<path d="M41.0309 27.3867C41.4202 27.429 41.7644 27.4531 42.0952 27.518C42.7689 27.6502 42.8258 27.787 42.504 28.2643C42.3781 28.4512 42.2285 28.4803 41.9948 28.4149C41.6905 28.3298 41.387 28.2365 41.053 28.2464C40.7832 28.2543 40.5532 28.3202 40.4841 28.5416C40.423 28.7376 40.5453 28.89 40.7653 28.9846C41.1323 29.1425 41.5095 29.2863 41.877 29.4435C42.5475 29.7303 42.8648 30.166 42.776 30.7617C42.6988 31.2788 42.2332 31.6373 41.4669 31.7981C40.8156 31.9348 40.1762 31.883 39.5486 31.7305C39.0268 31.6038 38.953 31.4122 39.1342 30.7826C39.4145 30.6799 39.6426 30.833 39.8849 30.8926C40.2159 30.9741 40.5454 31.0414 40.8958 31.015C41.1594 30.9951 41.3891 30.9279 41.4546 30.7041C41.5132 30.5041 41.3818 30.3546 41.1711 30.2594C40.8251 30.1032 40.4607 29.9713 40.1141 29.8158C39.5346 29.5557 39.152 29.1952 39.1509 28.6456C39.1494 27.8935 39.7485 27.4784 41.0309 27.3867Z" fill="black"/>
<path d="M50.1075 31.1204C49.5272 30.3121 49.4506 29.5005 49.8258 28.6617C50.3893 27.4022 52.1533 27.1343 53.648 27.6228C53.8434 27.6866 53.8964 27.7975 53.8189 27.9448C53.7269 28.1196 53.6277 28.2922 53.5112 28.5025C52.6954 28.2911 51.8244 27.9463 51.2388 28.6902C50.7777 29.2762 50.7638 29.9547 51.2011 30.5518C51.7871 31.352 52.7449 30.9203 53.5643 30.8613C53.8892 31.479 53.7658 31.6731 52.9727 31.796C51.8804 31.9652 50.8762 31.8928 50.1075 31.1204Z" fill="black"/>
<path d="M37.6672 7.66307C37.6152 7.71788 37.588 7.75289 37.5577 7.75458C36.8831 7.79236 36.3182 7.90213 36.4225 8.58882C36.4428 8.72285 36.2276 8.7987 36.041 8.80356C35.7926 8.81002 35.5436 8.80145 35.295 8.80533C34.9352 8.81094 34.7552 8.68224 34.7852 8.40156C34.8287 7.99385 34.6247 7.78333 34.0622 7.82328C33.6822 7.85027 33.4851 7.71886 33.5144 7.40855C33.5283 7.2616 33.5297 7.11236 33.5139 6.96562C33.4786 6.63781 33.6703 6.49779 34.0858 6.53164C34.6071 6.57409 34.8427 6.40001 34.7799 5.99427C34.7289 5.66446 34.9286 5.53312 35.3447 5.55782C35.535 5.56912 35.7281 5.56686 35.9186 5.55681C36.3074 5.53632 36.4916 5.66342 36.4679 5.96991C36.4367 6.37486 36.6481 6.58672 37.2138 6.52803C37.5881 6.4892 37.7384 6.64692 37.725 6.92063C37.7134 7.15634 37.702 7.39205 37.6672 7.66307Z" fill="#407BFF"/>
<path d="M29.4415 31.5586C29.1475 31.9421 28.7091 31.7943 28.3564 31.749C28.0567 31.7105 28.1493 31.4336 28.1473 31.2523C28.1384 30.47 28.1452 29.6876 28.1438 28.9052C28.1428 28.3233 28.1408 28.309 27.3815 28.3188C26.911 28.3249 26.5861 28.2692 26.6457 27.8187C26.6761 27.5892 26.7767 27.4661 27.0979 27.4676C28.2261 27.473 29.3544 27.4771 30.4825 27.4669C30.8843 27.4632 30.9553 27.6265 30.9534 27.8851C30.9515 28.1334 30.9154 28.3031 30.5028 28.3205C29.4565 28.3647 29.458 28.3778 29.456 29.1695C29.4541 29.9518 29.4508 30.7341 29.4415 31.5586Z" fill="black"/>
<path d="M21.915 28.6542C21.9152 28.4037 21.9136 28.1973 21.9159 27.991C21.9211 27.5232 22.4793 27.2798 23.0384 27.4998C23.2808 27.5952 23.2302 27.7735 23.2316 27.9279C23.2393 28.7827 23.2536 29.6378 23.231 30.4923C23.2218 30.8386 23.3765 30.9767 23.826 30.9522C24.1869 30.9325 24.5519 30.9612 24.9137 30.947C25.314 30.9312 25.4468 31.0654 25.4431 31.3665C25.4395 31.6531 25.3524 31.8034 24.9313 31.7947C24.1109 31.7776 23.2891 31.7778 22.4687 31.7954C22.0379 31.8047 21.9044 31.6682 21.9103 31.3513C21.927 30.4672 21.9155 29.5827 21.915 28.6542Z" fill="black"/>
<path d="M41.0792 34.268C41.7037 34.2183 42.2752 34.2527 42.8423 34.3113C43.8883 34.4194 44.5915 35.0278 44.6244 35.8458C44.635 36.1101 44.6526 36.3807 44.5961 36.6392C44.4228 37.4317 43.5984 37.955 42.4912 37.9944C42.0912 38.0086 41.6888 37.9855 41.2892 38.0025C40.8812 38.0197 40.7598 37.8741 40.7638 37.58C40.7768 36.6077 40.7681 35.6353 40.7707 34.6629C40.7711 34.5028 40.7447 34.3263 41.0792 34.268ZM43.1989 34.901C42.7756 34.7385 42.3253 34.7053 41.859 34.7126C41.5666 34.7171 41.4559 34.7978 41.4586 35.0295C41.4677 35.7966 41.4561 36.5638 41.4467 37.3309C41.4446 37.5004 41.548 37.575 41.7563 37.5777C42.486 37.5875 43.4162 37.4601 43.7704 36.863C44.1703 36.189 43.9779 35.3939 43.1989 34.901Z" fill="black"/>
<path d="M30.1125 37.3278C29.4581 37.9876 28.5534 38.2126 27.54 37.9906C26.7214 37.8113 26.1631 37.2664 26.0674 36.5049C26.0308 36.2137 26.0261 35.9094 26.0931 35.6231C26.32 34.6543 27.1681 34.1648 28.4665 34.2166C29.6054 34.262 30.3809 34.8834 30.4825 35.8419C30.5363 36.3501 30.4692 36.8444 30.1125 37.3278ZM28.9519 37.5014C29.7504 37.2455 30.0083 36.2156 29.6501 35.4077C29.3267 34.6782 27.9778 34.4321 27.2328 34.9584C26.6869 35.3441 26.5526 36.4233 26.9734 37.0431C27.304 37.5299 27.8997 37.6829 28.9519 37.5014Z" fill="black"/>
<path d="M8.69631 37.4642C8.49929 37.2069 8.30545 36.9853 8.15146 36.7483C7.96369 36.4593 7.64275 36.4623 7.31584 36.4998C6.94226 36.5428 7.06627 36.7877 7.05355 36.9623C7.03531 37.2126 7.04539 37.4643 7.04498 37.7154C7.04469 37.891 6.95698 37.9951 6.7053 37.988C6.48339 37.9817 6.40362 37.8823 6.40344 37.7301C6.40222 36.6666 6.40481 35.6031 6.40234 34.5397C6.40185 34.3244 6.56917 34.2639 6.80559 34.2513C7.38176 34.2206 7.95455 34.2628 8.51767 34.3418C8.97863 34.4064 9.33016 34.6179 9.44356 34.9871C9.56792 35.3919 9.53532 35.7831 9.11195 36.0946C8.98816 36.1857 8.84763 36.2632 8.65127 36.3869C9.02477 36.8844 9.40166 37.3863 9.78866 37.9018C9.09777 38.1822 8.95395 37.7714 8.69631 37.4642ZM8.36963 34.8139C7.15585 34.5502 7.00534 34.6408 7.05082 35.608C7.05359 35.6668 7.0547 35.7258 7.0598 35.7845C7.06646 35.8612 7.10544 35.9236 7.19186 35.9686C7.47143 36.1141 8.41548 35.986 8.63238 35.7716C8.92007 35.4872 8.85471 35.1525 8.36963 34.8139Z" fill="black"/>
<path d="M37.1572 35.3076C37.1876 35.6831 37.0322 35.9718 36.6696 36.1474C36.3022 36.3253 36.3644 36.4984 36.5521 36.7288C36.8644 37.1121 37.1555 37.5056 37.4699 37.9136C36.9991 38.0821 36.7253 37.9734 36.5214 37.6871C36.3095 37.3897 36.0676 37.1042 35.8731 36.8005C35.685 36.5067 35.3806 36.4487 35.0141 36.4979C34.6058 36.5527 34.764 36.8153 34.7437 36.9995C34.7194 37.2194 34.7372 37.442 34.7349 37.6635C34.7331 37.8377 34.7061 37.9939 34.4012 37.9876C34.1378 37.9822 34.0938 37.8516 34.0938 37.6896C34.0937 36.584 34.0938 35.4785 34.0938 34.3337C34.9218 34.1892 35.7107 34.2219 36.4734 34.4285C36.9539 34.5588 37.164 34.875 37.1572 35.3076ZM34.7446 35.7518C34.8701 36.1877 35.3171 36.0075 35.6307 35.9986C36.1926 35.9826 36.5115 35.7063 36.4903 35.33C36.4675 34.9252 36.007 34.7223 35.2405 34.7104C34.5811 34.7001 34.7682 35.0521 34.7409 35.3193C34.7289 35.4365 34.7401 35.555 34.7446 35.7518Z" fill="black"/>
<path d="M13.1059 37.7581C13.096 36.7415 13.1142 35.7656 13.0826 34.7906C13.0692 34.3764 13.2875 34.2323 13.7902 34.246C14.3448 34.2611 14.9006 34.2495 15.4555 34.262C15.6437 34.2663 15.8624 34.2848 15.8581 34.4944C15.8539 34.7027 15.6487 34.7131 15.4499 34.7147C15.067 34.7177 14.6835 34.7269 14.3012 34.7153C13.966 34.7051 13.8264 34.7998 13.8083 35.0704C13.7598 35.7945 13.7678 35.8117 14.7155 35.8126C14.9452 35.8129 15.1751 35.8133 15.4046 35.8195C15.5976 35.8247 15.7428 35.8842 15.7466 36.0531C15.7504 36.2216 15.6115 36.2901 15.4164 36.2941C15.0528 36.3015 14.6883 36.3114 14.3253 36.2994C13.9632 36.2874 13.82 36.3919 13.8066 36.6824C13.7675 37.5256 13.7532 37.5232 14.8285 37.5272C15.0956 37.5281 15.3638 37.5376 15.6291 37.5601C15.7751 37.5725 15.8637 37.6555 15.8651 37.7761C15.8662 37.8724 15.8215 37.968 15.6884 37.973C14.8693 38.0038 14.0487 38.049 13.2335 37.941C13.1846 37.9346 13.1534 37.8483 13.1059 37.7581Z" fill="black"/>
<path d="M48.6824 35.0875C48.62 35.4567 48.8793 35.6355 49.2325 35.7602C49.5968 35.8889 49.9685 36.0049 50.3308 36.1367C50.8204 36.3149 51.0284 36.6438 51.0077 37.0365C50.986 37.4469 50.7259 37.769 50.2071 37.9278C49.5586 38.1264 48.898 38.1077 48.2411 37.9587C47.925 37.887 47.8151 37.7288 48.0003 37.4698C48.4691 37.4774 48.9208 37.6317 49.4011 37.5902C49.7968 37.5559 50.1822 37.5145 50.2927 37.1589C50.4106 36.7798 50.1033 36.5877 49.7059 36.4523C49.3918 36.3452 49.0658 36.2557 48.7638 36.1314C48.1586 35.882 47.8915 35.4808 48.0144 34.9994C48.1351 34.5267 48.6068 34.3301 49.1527 34.2383C49.6279 34.1583 50.1027 34.23 50.5637 34.3374C50.742 34.3789 50.8732 34.4541 50.8178 34.6263C50.7569 34.8152 50.5921 34.8544 50.381 34.8009C50.0866 34.7263 49.7878 34.6988 49.4794 34.7026C49.1285 34.707 48.8396 34.7833 48.6824 35.0875Z" fill="black"/>
<path d="M21.5925 34.7033C20.3963 34.7408 19.8747 35.2536 19.9149 36.3032C19.9473 37.1515 20.5533 37.6007 21.6553 37.5837C21.8631 37.5805 22.0705 37.5487 22.2775 37.5271C22.4317 37.511 22.5934 37.4824 22.6474 37.6435C22.6985 37.7962 22.6183 37.9115 22.4284 37.9565C21.3614 38.2091 19.8482 38.1234 19.3627 36.9667C19.1988 36.5762 19.1556 36.1719 19.2316 35.7484C19.4623 34.4617 20.9648 33.9596 22.5161 34.3335C22.7079 34.3798 22.8783 34.4535 22.7775 34.6518C22.6891 34.8256 22.5254 34.8457 22.3119 34.8045C22.0914 34.7619 21.8651 34.7372 21.5925 34.7033Z" fill="black"/>
</svg>
