<svg width="57" height="44" viewBox="0 0 57 44" fill="none" xmlns="http://www.w3.org/2000/svg">
<g clip-path="url(#clip0_107_53608)">
<path d="M0 3.58865V13.8345C0 16.9551 3.86077 18.6194 6.22013 16.435L17.4807 6.18913C19.9473 3.95272 18.3387 0 14.9605 0H3.69991C1.66228 0 0 1.61229 0 3.58865Z" fill="#5986EF"/>
<path d="M53.3001 0H42.0395C38.715 0 37.0527 3.95272 39.5193 6.18913L50.7799 16.435C53.1392 18.5674 57 16.9551 57 13.8345V3.58865C57 1.61229 55.3377 0 53.3001 0Z" fill="#5986EF"/>
<path d="M31.047 25.0167L50.7799 43.0119C53.1392 45.1443 57 43.532 57 40.4115V30.0616C57 29.0734 56.571 28.1372 55.8203 27.4611L31.047 4.83699C29.5992 3.53676 27.4008 3.53676 25.953 4.83699L1.17968 27.4611C0.428975 28.1372 0 29.0734 0 30.0616V40.4115C0 43.532 3.86077 45.1963 6.22013 43.0119L25.953 25.0167C27.4008 23.7164 29.5992 23.7164 31.047 25.0167Z" fill="#5986EF"/>
</g>
<defs>
<clipPath id="clip0_107_53608">
<rect width="57" height="44" fill="white"/>
</clipPath>
</defs>
</svg>
