<svg width="596" height="96" viewBox="0 0 596 96" fill="none" xmlns="http://www.w3.org/2000/svg">
<g clip-path="url(#clip0_9_23799)">
<path d="M2.4534 7.37401V28.4273C2.4534 34.8395 10.2666 38.2594 15.0413 33.7708L37.8297 12.7175C42.8215 8.1221 39.566 0 32.7295 0H9.94103C5.81741 0 2.4534 3.31296 2.4534 7.37401Z" fill="white"/>
<path d="M110.319 0H87.5303C80.8022 0 77.4382 8.1221 82.43 12.7175L105.218 33.7708C109.993 38.1525 117.806 34.8395 117.806 28.4273V7.37401C117.806 3.31296 114.442 0 110.319 0Z" fill="white"/>
<path d="M65.2844 51.4043L105.218 88.3812C109.993 92.7629 117.806 89.4499 117.806 83.0378V61.7707C117.806 59.7402 116.938 57.8165 115.419 56.4272L65.2844 9.93888C62.3545 7.26714 57.9053 7.26714 54.9753 9.93888L4.84076 56.4272C3.32153 57.8165 2.4534 59.7402 2.4534 61.7707V83.0378C2.4534 89.4499 10.2666 92.8698 15.0413 88.3812L54.9753 51.4043C57.9053 48.7326 62.3545 48.7326 65.2844 51.4043Z" fill="white"/>
</g>
<path d="M163.645 77.2059L150.688 29.5909H164.048L171.426 61.5822H171.86L179.548 29.5909H192.661L200.473 61.3962H200.876L208.13 29.5909H221.459L208.532 77.2059H194.552L186.368 47.2605H185.779L177.595 77.2059H163.645Z" fill="white"/>
<path d="M241.71 49.6785V77.2059H228.504V13.7193H241.338V37.9917H241.896C242.97 35.1811 244.706 32.9802 247.103 31.3889C249.501 29.7769 252.508 28.9709 256.124 28.9709C259.431 28.9709 262.314 29.6942 264.773 31.1409C267.253 32.5668 269.175 34.6231 270.539 37.3097C271.924 39.9757 272.606 43.1686 272.585 46.8885V77.2059H259.379V49.2445C259.4 46.3099 258.656 44.0263 257.147 42.3936C255.659 40.761 253.572 39.9447 250.885 39.9447C249.087 39.9447 247.496 40.327 246.111 41.0917C244.747 41.8563 243.673 42.9723 242.887 44.4396C242.123 45.8862 241.73 47.6325 241.71 49.6785Z" fill="white"/>
<path d="M282.977 77.2059V29.5909H296.183V77.2059H282.977ZM289.611 23.453C287.648 23.453 285.964 22.8021 284.558 21.5001C283.174 20.1774 282.481 18.5965 282.481 16.7572C282.481 14.9386 283.174 13.3783 284.558 12.0763C285.964 10.7536 287.648 10.0923 289.611 10.0923C291.575 10.0923 293.248 10.7536 294.633 12.0763C296.038 13.3783 296.741 14.9386 296.741 16.7572C296.741 18.5965 296.038 20.1774 294.633 21.5001C293.248 22.8021 291.575 23.453 289.611 23.453Z" fill="white"/>
<path d="M332.088 29.5909V39.5107H303.414V29.5909H332.088ZM309.924 18.1832H323.129V62.5742C323.129 63.7935 323.315 64.7442 323.687 65.4261C324.059 66.0875 324.576 66.5524 325.237 66.8211C325.919 67.0898 326.705 67.2241 327.593 67.2241C328.213 67.2241 328.833 67.1724 329.453 67.0691C330.073 66.9451 330.548 66.8521 330.879 66.7901L332.956 76.6169C332.295 76.8236 331.365 77.0612 330.166 77.3299C328.967 77.6192 327.511 77.7949 325.795 77.8569C322.613 77.9809 319.823 77.5572 317.425 76.5859C315.049 75.6146 313.199 74.1059 311.877 72.06C310.554 70.014 309.903 67.4308 309.924 64.3102V18.1832Z" fill="white"/>
<path d="M361.878 78.1359C356.981 78.1359 352.765 77.1439 349.231 75.1599C345.717 73.1553 343.01 70.324 341.109 66.6661C339.208 62.9875 338.257 58.6373 338.257 53.6154C338.257 48.7175 339.208 44.4189 341.109 40.7197C343.01 37.0204 345.686 34.1375 349.138 32.0709C352.61 30.0042 356.681 28.9709 361.351 28.9709C364.493 28.9709 367.417 29.4772 370.124 30.4899C372.852 31.4819 375.229 32.9802 377.254 34.9848C379.3 36.9894 380.891 39.5107 382.028 42.5486C383.165 45.5659 383.733 49.0998 383.733 53.1504V56.7773H343.527V48.5935H371.302C371.302 46.6922 370.889 45.0079 370.062 43.5406C369.236 42.0733 368.089 40.9263 366.621 40.0997C365.175 39.2524 363.49 38.8287 361.568 38.8287C359.564 38.8287 357.787 39.2937 356.237 40.2237C354.707 41.133 353.509 42.3626 352.641 43.9126C351.773 45.4419 351.328 47.1469 351.308 49.0275V56.8083C351.308 59.1643 351.742 61.1999 352.61 62.9152C353.498 64.6305 354.749 65.9531 356.361 66.8831C357.973 67.8131 359.884 68.2781 362.095 68.2781C363.563 68.2781 364.906 68.0714 366.125 67.6581C367.345 67.2448 368.388 66.6248 369.256 65.7981C370.124 64.9715 370.786 63.9588 371.24 62.7602L383.454 63.5662C382.834 66.5008 381.563 69.0634 379.641 71.254C377.74 73.424 375.28 75.1186 372.263 76.3379C369.267 77.5365 365.805 78.1359 361.878 78.1359Z" fill="white"/>
<path d="M392.351 95.0615V29.5909H405.37V37.5887H405.959C406.538 36.3074 407.375 35.0055 408.47 33.6828C409.586 32.3395 411.033 31.2235 412.81 30.3349C414.608 29.4256 416.84 28.9709 419.506 28.9709C422.978 28.9709 426.181 29.8802 429.116 31.6989C432.051 33.4968 434.396 36.2144 436.153 39.8517C437.909 43.4683 438.788 48.0045 438.788 53.4604C438.788 58.7716 437.93 63.2562 436.215 66.9141C434.52 70.5514 432.206 73.3103 429.271 75.1909C426.357 77.0509 423.092 77.9809 419.475 77.9809C416.913 77.9809 414.732 77.5572 412.934 76.7099C411.157 75.8626 409.7 74.7983 408.563 73.517C407.427 72.215 406.559 70.9027 405.959 69.58H405.556V95.0615H392.351ZM405.277 53.3984C405.277 56.2297 405.67 58.6993 406.455 60.8072C407.241 62.9152 408.377 64.5582 409.865 65.7361C411.353 66.8934 413.162 67.4721 415.29 67.4721C417.44 67.4721 419.258 66.8831 420.746 65.7051C422.234 64.5065 423.36 62.8532 424.125 60.7452C424.91 58.6166 425.303 56.1677 425.303 53.3984C425.303 50.6498 424.921 48.2318 424.156 46.1446C423.391 44.0573 422.265 42.4246 420.777 41.2467C419.289 40.0687 417.46 39.4797 415.29 39.4797C413.141 39.4797 411.322 40.048 409.834 41.1847C408.367 42.3213 407.241 43.9333 406.455 46.0206C405.67 48.1078 405.277 50.5671 405.277 53.3984Z" fill="white"/>
<path d="M461.169 78.1049C458.131 78.1049 455.424 77.5779 453.047 76.5239C450.671 75.4492 448.79 73.8683 447.406 71.781C446.042 69.673 445.36 67.0484 445.36 63.9072C445.36 61.2619 445.845 59.0403 446.817 57.2423C447.788 55.4444 449.111 53.9977 450.785 52.9024C452.458 51.8071 454.36 50.9804 456.488 50.4225C458.638 49.8645 460.89 49.4718 463.246 49.2445C466.016 48.9552 468.247 48.6865 469.942 48.4385C471.637 48.1698 472.866 47.7772 473.631 47.2605C474.396 46.7439 474.778 45.9792 474.778 44.9666V44.7806C474.778 42.8173 474.158 41.2983 472.918 40.2237C471.699 39.149 469.963 38.6117 467.71 38.6117C465.334 38.6117 463.443 39.1387 462.037 40.1927C460.632 41.226 459.702 42.528 459.247 44.0986L447.034 43.1066C447.654 40.2133 448.873 37.7127 450.691 35.6048C452.51 33.4762 454.856 31.8435 457.728 30.7069C460.622 29.5496 463.97 28.9709 467.772 28.9709C470.417 28.9709 472.949 29.2809 475.367 29.9009C477.806 30.5209 479.965 31.4819 481.846 32.7838C483.747 34.0858 485.245 35.7598 486.341 37.8057C487.436 39.831 487.984 42.2593 487.984 45.0906V77.2059H475.46V70.603H475.088C474.323 72.091 473.3 73.4033 472.019 74.5399C470.738 75.6559 469.198 76.5342 467.4 77.1749C465.602 77.7949 463.525 78.1049 461.169 78.1049ZM464.951 68.9911C466.894 68.9911 468.609 68.6087 470.097 67.8441C471.585 67.0588 472.753 66.0048 473.6 64.6822C474.447 63.3595 474.871 61.8612 474.871 60.1873V55.1344C474.458 55.403 473.889 55.651 473.166 55.8783C472.463 56.085 471.668 56.2813 470.779 56.4673C469.89 56.6327 469.002 56.7877 468.113 56.9323C467.224 57.0563 466.419 57.17 465.695 57.2733C464.145 57.5006 462.792 57.8623 461.634 58.3583C460.477 58.8543 459.578 59.5259 458.937 60.3732C458.297 61.1999 457.976 62.2332 457.976 63.4732C457.976 65.2711 458.627 66.6454 459.929 67.5961C461.252 68.5261 462.926 68.9911 464.951 68.9911Z" fill="white"/>
<path d="M519.743 78.1359C514.865 78.1359 510.67 77.1026 507.157 75.0359C503.664 72.9486 500.978 70.0554 499.097 66.3561C497.237 62.6569 496.307 58.3996 496.307 53.5844C496.307 48.7072 497.247 44.4293 499.128 40.7507C501.029 37.0514 503.726 34.1685 507.219 32.1019C510.711 30.0146 514.865 28.9709 519.681 28.9709C523.834 28.9709 527.472 29.7252 530.592 31.2339C533.713 32.7425 536.182 34.8608 538.001 37.5887C539.82 40.3167 540.822 43.5199 541.008 47.1985H528.546C528.195 44.8219 527.265 42.9103 525.756 41.4637C524.268 39.9964 522.315 39.2627 519.898 39.2627C517.852 39.2627 516.064 39.8207 514.535 40.9367C513.026 42.032 511.848 43.6336 511.001 45.7416C510.153 47.8495 509.73 50.4018 509.73 53.3984C509.73 56.4363 510.143 59.0196 510.97 61.1482C511.817 63.2768 513.005 64.8992 514.535 66.0151C516.064 67.1311 517.852 67.6891 519.898 67.6891C521.406 67.6891 522.76 67.3791 523.958 66.7591C525.178 66.1391 526.18 65.2401 526.965 64.0622C527.771 62.8635 528.298 61.4272 528.546 59.7533H541.008C540.801 63.3905 539.809 66.5938 538.032 69.3631C536.276 72.1117 533.847 74.2609 530.747 75.8109C527.647 77.3609 523.979 78.1359 519.743 78.1359Z" fill="white"/>
<path d="M571.163 78.1359C566.265 78.1359 562.049 77.1439 558.515 75.1599C555.002 73.1553 552.294 70.324 550.393 66.6661C548.492 62.9875 547.541 58.6373 547.541 53.6154C547.541 48.7175 548.492 44.4189 550.393 40.7197C552.294 37.0204 554.971 34.1375 558.422 32.0709C561.894 30.0042 565.965 28.9709 570.636 28.9709C573.777 28.9709 576.701 29.4772 579.408 30.4899C582.136 31.4819 584.513 32.9802 586.538 34.9848C588.584 36.9894 590.176 39.5107 591.312 42.5486C592.449 45.5659 593.017 49.0998 593.017 53.1504V56.7773H552.811V48.5935H580.586C580.586 46.6922 580.173 45.0079 579.346 43.5406C578.52 42.0733 577.373 40.9263 575.906 40.0997C574.459 39.2524 572.775 38.8287 570.853 38.8287C568.848 38.8287 567.071 39.2937 565.521 40.2237C563.991 41.133 562.793 42.3626 561.925 43.9126C561.057 45.4419 560.613 47.1469 560.592 49.0275V56.8083C560.592 59.1643 561.026 61.1999 561.894 62.9152C562.783 64.6305 564.033 65.9531 565.645 66.8831C567.257 67.8131 569.168 68.2781 571.38 68.2781C572.847 68.2781 574.19 68.0714 575.41 67.6581C576.629 67.2448 577.673 66.6248 578.54 65.7981C579.408 64.9715 580.07 63.9588 580.524 62.7602L592.738 63.5662C592.118 66.5008 590.847 69.0634 588.925 71.254C587.024 73.424 584.565 75.1186 581.547 76.3379C578.551 77.5365 575.089 78.1359 571.163 78.1359Z" fill="white"/>
<defs>
<clipPath id="clip0_9_23799">
<rect width="115.353" height="90.4118" fill="white" transform="translate(2.4534)"/>
</clipPath>
</defs>
</svg>
