<svg width="407" height="67" viewBox="0 0 407 67" fill="none" xmlns="http://www.w3.org/2000/svg">
<g clip-path="url(#clip0_107_72561)">
<path d="M0 6.77445V21.1492C0 25.5273 5.33468 27.8623 8.59477 24.7977L24.1543 10.4229C27.5625 7.28523 25.3397 1.73962 20.6719 1.73962H5.1124C2.29688 1.73962 0 4.00165 0 6.77445Z" fill="#043873"/>
<path d="M73.6473 1.73962H58.0879C53.4941 1.73962 51.1972 7.28523 54.6055 10.4229L70.165 24.7977C73.4251 27.7894 78.7597 25.5273 78.7597 21.1492V6.77445C78.7597 4.00165 76.4629 1.73962 73.6473 1.73962Z" fill="#043873"/>
<path d="M42.8997 36.8374L70.1659 62.0845C73.426 65.0762 78.7607 62.8142 78.7607 58.4361V43.9153C78.7607 42.5289 78.1679 41.2155 77.1306 40.2669L42.8997 8.52563C40.8992 6.70142 37.8614 6.70142 35.8609 8.52563L1.63004 40.2669C0.592742 41.2155 0 42.5289 0 43.9153V58.4361C0 62.8142 5.33468 65.1492 8.59476 62.0845L35.8609 36.8374C37.8614 35.0132 40.8992 35.0132 42.8997 36.8374Z" fill="#043873"/>
</g>
<path d="M110.059 54.4178L101.212 21.9073H110.334L115.372 43.7503H115.668L120.917 21.9073H129.87L135.204 43.6233H135.479L140.432 21.9073H149.533L140.707 54.4178H131.161L125.573 33.9718H125.171L119.584 54.4178H110.059ZM163.359 35.6227V54.4178H154.343V11.0705H163.106V27.6432H163.486C164.22 25.7242 165.406 24.2214 167.042 23.1349C168.679 22.0343 170.732 21.484 173.202 21.484C175.459 21.484 177.428 21.9779 179.107 22.9656C180.8 23.9392 182.112 25.3432 183.044 27.1776C183.989 28.9978 184.455 31.1779 184.441 33.7178V54.4178H175.424V35.3264C175.438 33.3227 174.93 31.7635 173.9 30.6487C172.884 29.534 171.459 28.9767 169.625 28.9767C168.397 28.9767 167.31 29.2377 166.365 29.7598C165.434 30.2819 164.7 31.0438 164.164 32.0457C163.642 33.0334 163.374 34.2258 163.359 35.6227ZM191.536 54.4178V21.9073H200.553V54.4178H191.536ZM196.066 17.7165C194.725 17.7165 193.575 17.272 192.616 16.3831C191.67 15.48 191.198 14.4005 191.198 13.1447C191.198 11.903 191.67 10.8376 192.616 9.94868C193.575 9.04561 194.725 8.59407 196.066 8.59407C197.406 8.59407 198.549 9.04561 199.495 9.94868C200.454 10.8376 200.934 11.903 200.934 13.1447C200.934 14.4005 200.454 15.48 199.495 16.3831C198.549 17.272 197.406 17.7165 196.066 17.7165ZM225.068 21.9073V28.6803H205.49V21.9073H225.068ZM209.935 14.1183H218.951V44.4276C218.951 45.2601 219.078 45.9092 219.332 46.3749C219.586 46.8264 219.939 47.1439 220.391 47.3273C220.856 47.5108 221.392 47.6025 221.999 47.6025C222.422 47.6025 222.846 47.5672 223.269 47.4967C223.692 47.412 224.017 47.3485 224.243 47.3062L225.661 54.0157C225.209 54.1568 224.574 54.3191 223.756 54.5025C222.937 54.7001 221.943 54.82 220.771 54.8623C218.598 54.947 216.694 54.6577 215.057 53.9945C213.434 53.3313 212.171 52.3013 211.268 50.9043C210.365 49.5074 209.921 47.7436 209.935 45.6129V14.1183ZM245.408 55.0528C242.064 55.0528 239.186 54.3755 236.773 53.0209C234.374 51.6522 232.526 49.7191 231.227 47.2215C229.929 44.7098 229.28 41.7396 229.28 38.3107C229.28 34.9666 229.929 32.0316 231.227 29.5058C232.526 26.98 234.353 25.0116 236.709 23.6006C239.08 22.1895 241.86 21.484 245.049 21.484C247.193 21.484 249.19 21.8297 251.038 22.5211C252.901 23.1984 254.524 24.2214 255.907 25.5901C257.304 26.9589 258.39 28.6803 259.166 30.7546C259.942 32.8147 260.33 35.2276 260.33 37.9933V40.4696H232.878V34.8819H251.843C251.843 33.5837 251.561 32.4337 250.996 31.4319C250.432 30.43 249.649 29.6469 248.647 29.0825C247.659 28.504 246.509 28.2147 245.197 28.2147C243.828 28.2147 242.615 28.5322 241.556 29.1671C240.512 29.788 239.694 30.6276 239.101 31.6859C238.508 32.73 238.205 33.8942 238.191 35.1782V40.4908C238.191 42.0994 238.487 43.4893 239.08 44.6605C239.687 45.8316 240.54 46.7347 241.641 47.3697C242.742 48.0046 244.047 48.3221 245.557 48.3221C246.558 48.3221 247.476 48.181 248.308 47.8988C249.141 47.6166 249.853 47.1933 250.446 46.6289C251.038 46.0644 251.49 45.373 251.8 44.5546L260.14 45.1049C259.716 47.1086 258.849 48.8583 257.536 50.354C256.238 51.8356 254.559 52.9927 252.499 53.8252C250.453 54.6436 248.089 55.0528 245.408 55.0528ZM266.214 66.6093V21.9073H275.104V27.3681H275.506C275.901 26.4932 276.473 25.6043 277.22 24.7012C277.982 23.784 278.97 23.022 280.184 22.4153C281.411 21.7944 282.935 21.484 284.755 21.484C287.126 21.484 289.313 22.1049 291.317 23.3466C293.321 24.5742 294.922 26.4297 296.121 28.9132C297.321 31.3825 297.921 34.4797 297.921 38.2049C297.921 41.8313 297.335 44.8933 296.164 47.3908C295.007 49.8743 293.426 51.758 291.423 53.0421C289.433 54.312 287.204 54.947 284.734 54.947C282.985 54.947 281.496 54.6577 280.268 54.0792C279.055 53.5007 278.06 52.774 277.284 51.8991C276.508 51.0102 275.915 50.1142 275.506 49.2111H275.231V66.6093H266.214ZM275.04 38.1626C275.04 40.0957 275.308 41.7819 275.845 43.2212C276.381 44.6605 277.157 45.7822 278.173 46.5865C279.189 47.3767 280.424 47.7718 281.877 47.7718C283.344 47.7718 284.586 47.3697 285.602 46.5654C286.618 45.747 287.387 44.6181 287.909 43.1789C288.445 41.7255 288.713 40.0534 288.713 38.1626C288.713 36.2859 288.452 34.635 287.93 33.2098C287.408 31.7846 286.639 30.6699 285.623 29.8656C284.607 29.0613 283.359 28.6592 281.877 28.6592C280.409 28.6592 279.168 29.0472 278.152 29.8233C277.15 30.5994 276.381 31.7 275.845 33.1251C275.308 34.5503 275.04 36.2294 275.04 38.1626ZM313.202 55.0317C311.128 55.0317 309.279 54.6718 307.657 53.9522C306.034 53.2185 304.75 52.139 303.805 50.7138C302.873 49.2746 302.408 47.4825 302.408 45.3378C302.408 43.5316 302.739 42.0147 303.402 40.7871C304.066 39.5595 304.969 38.5718 306.112 37.8239C307.255 37.0761 308.553 36.5117 310.006 36.1307C311.474 35.7497 313.012 35.4816 314.62 35.3264C316.511 35.1288 318.035 34.9454 319.192 34.7761C320.349 34.5926 321.189 34.3245 321.711 33.9718C322.233 33.619 322.494 33.0969 322.494 32.4055V32.2785C322.494 30.938 322.071 29.9009 321.224 29.1671C320.391 28.4334 319.206 28.0665 317.668 28.0665C316.045 28.0665 314.754 28.4263 313.795 29.146C312.835 29.8515 312.2 30.7405 311.89 31.8129L303.551 31.1356C303.974 29.1601 304.806 27.4527 306.048 26.0135C307.29 24.5601 308.891 23.4453 310.853 22.6693C312.828 21.8791 315.114 21.484 317.71 21.484C319.517 21.484 321.245 21.6957 322.896 22.119C324.561 22.5423 326.036 23.1984 327.32 24.0874C328.618 24.9763 329.641 26.1193 330.389 27.5162C331.137 28.899 331.511 30.557 331.511 32.4902V54.4178H322.96V49.9095H322.706C322.183 50.9255 321.485 51.8215 320.61 52.5976C319.735 53.3596 318.684 53.9593 317.456 54.3967C316.229 54.82 314.811 55.0317 313.202 55.0317ZM315.784 48.8089C317.111 48.8089 318.282 48.5479 319.298 48.0258C320.314 47.4896 321.111 46.77 321.69 45.8669C322.268 44.9638 322.557 43.9408 322.557 42.7979V39.3479C322.275 39.5313 321.887 39.7006 321.393 39.8558C320.914 39.9969 320.37 40.131 319.764 40.258C319.157 40.3709 318.55 40.4767 317.943 40.5755C317.337 40.6601 316.786 40.7377 316.292 40.8083C315.234 40.9635 314.31 41.2104 313.52 41.5491C312.729 41.8877 312.116 42.3463 311.678 42.9249C311.241 43.4893 311.022 44.1948 311.022 45.0414C311.022 46.269 311.467 47.2074 312.356 47.8565C313.259 48.4914 314.402 48.8089 315.784 48.8089ZM353.195 55.0528C349.865 55.0528 347 54.3473 344.602 52.9362C342.217 51.5111 340.382 49.5356 339.098 47.0098C337.828 44.4841 337.194 41.5773 337.194 38.2896C337.194 34.9595 337.836 32.0386 339.12 29.527C340.418 27.0012 342.259 25.0328 344.644 23.6217C347.029 22.1966 349.865 21.484 353.152 21.484C355.989 21.484 358.472 21.999 360.603 23.0291C362.733 24.0592 364.42 25.5055 365.661 27.3681C366.903 29.2306 367.587 31.4178 367.714 33.9294H359.206C358.966 32.3067 358.331 31.0015 357.301 30.0138C356.285 29.0119 354.952 28.511 353.301 28.511C351.904 28.511 350.683 28.892 349.639 29.654C348.609 30.4018 347.805 31.4954 347.226 32.9346C346.648 34.3739 346.358 36.1166 346.358 38.1626C346.358 40.2368 346.64 42.0006 347.205 43.454C347.783 44.9074 348.595 46.0151 349.639 46.777C350.683 47.539 351.904 47.92 353.301 47.92C354.331 47.92 355.255 47.7083 356.073 47.285C356.906 46.8617 357.59 46.2479 358.126 45.4436C358.677 44.6252 359.037 43.6445 359.206 42.5015H367.714C367.573 44.985 366.896 47.1721 365.683 49.0629C364.483 50.9396 362.825 52.4071 360.709 53.4654C358.592 54.5237 356.087 55.0528 353.195 55.0528ZM388.303 55.0528C384.959 55.0528 382.081 54.3755 379.668 53.0209C377.269 51.6522 375.421 49.7191 374.122 47.2215C372.824 44.7098 372.175 41.7396 372.175 38.3107C372.175 34.9666 372.824 32.0316 374.122 29.5058C375.421 26.98 377.248 25.0116 379.604 23.6006C381.975 22.1895 384.755 21.484 387.944 21.484C390.088 21.484 392.085 21.8297 393.934 22.5211C395.796 23.1984 397.419 24.2214 398.802 25.5901C400.199 26.9589 401.285 28.6803 402.061 30.7546C402.837 32.8147 403.225 35.2276 403.225 37.9933V40.4696H375.773V34.8819H394.738C394.738 33.5837 394.456 32.4337 393.891 31.4319C393.327 30.43 392.544 29.6469 391.542 29.0825C390.554 28.504 389.404 28.2147 388.092 28.2147C386.723 28.2147 385.51 28.5322 384.451 29.1671C383.407 29.788 382.589 30.6276 381.996 31.6859C381.403 32.73 381.1 33.8942 381.086 35.1782V40.4908C381.086 42.0994 381.382 43.4893 381.975 44.6605C382.582 45.8316 383.435 46.7347 384.536 47.3697C385.637 48.0046 386.942 48.3221 388.452 48.3221C389.453 48.3221 390.371 48.181 391.203 47.8988C392.036 47.6166 392.748 47.1933 393.341 46.6289C393.934 46.0644 394.385 45.373 394.695 44.5546L403.035 45.1049C402.611 47.1086 401.744 48.8583 400.431 50.354C399.133 51.8356 397.454 52.9927 395.394 53.8252C393.348 54.6436 390.984 55.0528 388.303 55.0528Z" fill="#043873"/>
<defs>
<clipPath id="clip0_107_72561">
<rect width="78.7607" height="61.7313" fill="white" transform="translate(0 1.73962)"/>
</clipPath>
</defs>
</svg>
