<svg width="214" height="47" viewBox="0 0 214 47" fill="none" xmlns="http://www.w3.org/2000/svg">
<g clip-path="url(#clip0_9_23116)">
<path d="M213.499 21.4141V17.6268H208.848V11.7389L208.691 11.7876L204.322 13.1392L204.236 13.1657V17.627H197.34V15.1417C197.34 13.9844 197.596 13.0988 198.1 12.5082C198.601 11.9247 199.317 11.628 200.231 11.628C200.888 11.628 201.568 11.7845 202.253 12.093L202.424 12.1705V8.18192L202.343 8.15192C201.705 7.91985 200.836 7.80298 199.76 7.80298C198.403 7.80298 197.17 8.10151 196.095 8.69315C195.019 9.28563 194.173 10.1314 193.58 11.2068C192.99 12.2809 192.69 13.5215 192.69 14.8944V17.6268H189.451V21.4141H192.69V37.3696H197.34V21.4141H204.236V31.5536C204.236 35.7294 206.184 37.8456 210.026 37.8456C210.657 37.8456 211.322 37.7708 212 37.6244C212.691 37.474 213.162 37.3238 213.438 37.1633L213.5 37.1267V33.3043L213.31 33.4308C213.058 33.6008 212.744 33.7397 212.375 33.8431C212.005 33.9483 211.696 34.001 211.457 34.001C210.557 34.001 209.891 33.7558 209.478 33.2718C209.06 32.7835 208.848 31.9296 208.848 30.735V21.4141H213.499ZM179.067 34.0016C177.379 34.0016 176.048 33.4358 175.111 32.3212C174.167 31.2011 173.689 29.604 173.689 27.575C173.689 25.4815 174.167 23.843 175.111 22.7031C176.049 21.5706 177.367 20.9958 179.029 20.9958C180.641 20.9958 181.925 21.5448 182.844 22.6283C183.768 23.7174 184.237 25.3427 184.237 27.4606C184.237 29.6045 183.796 31.2513 182.926 32.3529C182.063 33.4462 180.764 34.0016 179.067 34.0016ZM179.273 17.1512C176.054 17.1512 173.496 18.1051 171.673 19.9865C169.85 21.8681 168.926 24.4719 168.926 27.7264C168.926 30.8175 169.828 33.3039 171.607 35.1153C173.386 36.9273 175.807 37.8452 178.803 37.8452C181.924 37.8452 184.43 36.8779 186.253 34.9705C188.076 33.0652 188.999 30.4859 188.999 27.3075C188.999 24.168 188.132 21.6631 186.423 19.8638C184.712 18.0636 182.307 17.1512 179.273 17.1512ZM161.429 17.1512C159.239 17.1512 157.427 17.7176 156.043 18.8344C154.651 19.9579 153.945 21.4314 153.945 23.2145C153.945 24.1413 154.097 24.9646 154.397 25.6629C154.699 26.3635 155.166 26.9804 155.787 27.4981C156.402 28.0116 157.353 28.5495 158.613 29.0968C159.672 29.5374 160.462 29.9101 160.963 30.2038C161.454 30.4917 161.802 30.7811 161.998 31.063C162.189 31.3388 162.286 31.7163 162.286 32.1821C162.286 33.5085 161.304 34.1539 159.282 34.1539C158.533 34.1539 157.677 33.9956 156.74 33.6835C155.81 33.3761 154.932 32.926 154.137 32.3489L153.944 32.2089V36.7352L154.015 36.7686C154.673 37.0756 155.502 37.3346 156.48 37.5383C157.456 37.7423 158.343 37.846 159.113 37.846C161.49 37.846 163.404 37.2769 164.8 36.1534C166.206 35.0222 166.918 33.5139 166.918 31.6692C166.918 30.3384 166.534 29.1972 165.779 28.2768C165.028 27.3639 163.725 26.5258 161.908 25.785C160.46 25.1975 159.533 24.7099 159.15 24.3355C158.781 23.9738 158.594 23.4624 158.594 22.8147C158.594 22.2406 158.825 21.7806 159.3 21.4081C159.778 21.0337 160.444 20.8433 161.279 20.8433C162.053 20.8433 162.846 20.9671 163.634 21.2096C164.422 21.4521 165.114 21.7768 165.692 22.1741L165.882 22.3054V18.0118L165.809 17.9801C165.276 17.7491 164.573 17.5514 163.72 17.391C162.87 17.2316 162.1 17.1512 161.429 17.1512ZM141.823 34.0016C140.135 34.0016 138.804 33.4358 137.867 32.3212C136.923 31.2011 136.446 29.6045 136.446 27.575C136.446 25.4815 136.924 23.843 137.868 22.7031C138.805 21.5706 140.123 20.9958 141.785 20.9958C143.397 20.9958 144.68 21.5448 145.6 22.6283C146.524 23.7174 146.993 25.3427 146.993 27.4606C146.993 29.6045 146.552 31.2513 145.682 32.3529C144.819 33.4462 143.521 34.0016 141.823 34.0016ZM142.03 17.1512C138.809 17.1512 136.251 18.1051 134.429 19.9865C132.607 21.8681 131.682 24.4719 131.682 27.7264C131.682 30.8188 132.585 33.3039 134.364 35.1153C136.143 36.9273 138.564 37.8452 141.559 37.8452C144.68 37.8452 147.187 36.8779 149.009 34.9705C150.832 33.0652 151.755 30.4859 151.755 27.3075C151.755 24.168 150.889 21.6631 149.179 19.8638C147.468 18.0636 145.062 17.1512 142.03 17.1512ZM124.624 21.0458V17.6268H120.031V37.3692H124.624V27.2702C124.624 25.5529 125.009 24.1422 125.769 23.0766C126.519 22.0237 127.519 21.4902 128.739 21.4902C129.153 21.4902 129.618 21.5591 130.121 21.6956C130.618 21.8312 130.979 21.9785 131.192 22.1335L131.385 22.2749V17.593L131.31 17.5607C130.883 17.377 130.277 17.2843 129.512 17.2843C128.357 17.2843 127.325 17.6593 126.44 18.3976C125.663 19.0465 125.102 19.9363 124.673 21.0458H124.624ZM111.805 17.1512C109.698 17.1512 107.818 17.608 106.22 18.5086C104.618 19.4113 103.379 20.7 102.536 22.3387C101.696 23.9734 101.27 25.8829 101.27 28.0124C101.27 29.8778 101.683 31.5896 102.5 33.0983C103.317 34.6095 104.473 35.7917 105.937 36.6117C107.399 37.4306 109.088 37.8458 110.959 37.8458C113.141 37.8458 115.005 37.4046 116.499 36.5344L116.56 36.4994V32.2448L116.367 32.3873C115.69 32.8858 114.933 33.2837 114.12 33.5704C113.308 33.8568 112.568 34.0016 111.919 34.0016C110.116 34.0016 108.669 33.4314 107.619 32.3073C106.567 31.1817 106.033 29.6011 106.033 27.6122C106.033 25.6109 106.59 23.9897 107.686 22.7935C108.78 21.6008 110.229 20.9958 111.994 20.9958C113.504 20.9958 114.975 21.5127 116.367 22.5335L116.56 22.6749V18.192L116.498 18.1566C115.974 17.8601 115.259 17.6153 114.373 17.4297C113.489 17.2445 112.626 17.1512 111.805 17.1512ZM98.1069 17.627H93.5137V37.3692H98.1069V17.627ZM95.8573 9.21668C95.1013 9.21668 94.4419 9.47688 93.9002 9.99248C93.3563 10.5095 93.0804 11.1606 93.0804 11.9289C93.0804 12.6851 93.353 13.3242 93.8918 13.8275C94.4271 14.3294 95.0885 14.5838 95.8575 14.5838C96.6262 14.5838 97.2901 14.3294 97.8318 13.8284C98.377 13.3242 98.6535 12.6853 98.6535 11.9289C98.6535 11.1874 98.3844 10.5431 97.8543 10.0133C97.3245 9.48458 96.6524 9.21668 95.8573 9.21668ZM84.3969 16.1704V37.3692H89.0845V9.82103H82.5967L74.3503 30.283L66.3477 9.82103H59.5957V37.369H64.0008V16.1683H64.152L72.6026 37.3692H75.927L84.2457 16.1704H84.3969Z" fill="#706D6E"/>
<path d="M22.1077 22.4629H0.5V0.616211H22.1077V22.4629Z" fill="#F1511B"/>
<path d="M45.9647 22.4622H24.3574V0.615479H45.9647V22.4622Z" fill="#80CC28"/>
<path d="M22.1071 46.5921H0.5V24.7456H22.1071V46.5921Z" fill="#00ADEF"/>
<path d="M45.9647 46.5918H24.3574V24.7454H45.9647V46.5918Z" fill="#FBBC09"/>
</g>
<defs>
<clipPath id="clip0_9_23116">
<rect width="213" height="46" fill="white" transform="translate(0.5 0.60376)"/>
</clipPath>
</defs>
</svg>
