<svg width="496" height="496" viewBox="0 0 496 496" fill="none" xmlns="http://www.w3.org/2000/svg">
<path d="M256.796 163.301C258.791 166.57 262.066 168.761 262.388 173.81C257.288 169.67 253.087 166.003 248.593 162.74C246.848 161.473 244.737 158.043 242.384 160.789C240.022 163.546 243.685 165.04 245.25 166.621C248.87 170.28 253.238 173.191 256.164 177.555C256.873 178.614 258.125 179.449 257.388 181.361C253.86 181.253 252.514 177.855 250.091 176.206C247.359 174.347 245.09 171.819 242.535 169.684C241.563 168.872 240.351 167.725 239.039 169.037C237.771 170.305 238.709 171.637 239.595 172.562C242.242 175.326 245.109 177.88 247.746 180.653C250.081 183.106 253.005 185.252 253.345 189.617C246.492 189.354 242.928 182.764 236.988 181.462C235.458 184.062 237.139 185.282 238.486 186.391C247.271 193.626 255.143 201.658 261.246 211.351C263.224 214.493 267.245 215.917 269.123 218.891C274.539 227.468 279.334 236.429 279.312 247.052C279.302 251.807 276.838 254.189 272.23 254.2C251.401 254.249 230.572 254.282 209.743 254.162C204.001 254.129 202.092 252.305 202.015 246.66C201.84 233.832 200.527 220.786 202.391 208.232C204.23 195.852 207.047 182.9 217.544 173.867C218.421 173.112 219.298 172.259 219.882 171.277C226.572 160.013 235.186 150.383 244.826 141.6C246.035 140.498 247.529 138.909 245.946 137.351C244.252 135.685 243.013 137.759 241.759 138.662C237.549 141.694 234.019 145.842 228.64 147.064C227.164 144.624 228.769 143.273 229.748 141.852C232.791 137.433 236.881 133.946 240.437 129.983C241.834 128.425 245.104 126.967 242.474 124.416C240.103 122.115 238.683 125.199 237.32 126.538C233.759 130.038 229.552 132.845 226.423 136.81C225.744 137.67 224.855 138.611 223.073 137.913C223.414 134.806 225.692 132.779 227.59 130.685C230.718 127.232 234.106 124.016 237.382 120.697C238.678 119.385 239.383 117.876 238.006 116.3C236.681 114.785 235.251 115.722 234.003 116.589C229.613 119.637 225.576 123.104 221.82 126.908C220.71 128.032 219.866 129.595 218.046 129.876C216.673 127.795 218.235 126.632 219.101 125.345C220.958 122.583 222.908 119.882 224.773 117.124C225.881 115.484 227.52 113.601 225.242 111.917C223.087 110.324 221.53 112.243 220.171 113.677C215.575 118.526 211.316 123.627 208.483 129.77C207.885 131.066 207.689 132.718 205.864 133.314C203.344 132.191 203.437 129.139 201.698 127.427C200.624 126.37 199.579 124.958 197.91 125.677C195.972 126.512 196.727 128.159 197.304 129.545C199.465 134.725 197.511 139.71 196.589 144.728C196.14 147.176 195.166 149.535 195.379 152.087C196.53 165.922 189.996 177.173 183.218 188.349C181.977 190.396 180.248 191.279 177.833 191.264C167.169 191.197 156.504 191.277 145.84 191.191C141.236 191.154 138.757 188.775 138.756 184.03C138.748 162.701 138.677 141.372 138.749 120.043C138.764 115.478 140.998 113.714 146.415 113.692C161.746 113.631 177.076 113.68 192.406 113.66C201.581 113.648 201.878 113.369 201.897 103.998C201.926 89.1678 201.878 74.3375 201.888 59.5071C201.892 51.9014 203.079 50.6782 210.463 50.6724C230.792 50.6565 251.122 50.6527 271.451 50.6704C277.964 50.676 279.333 52.0699 279.376 58.6252C279.48 74.6084 279.531 90.5921 279.677 106.575C279.732 112.48 280.772 113.556 286.657 113.579C302.653 113.642 318.65 113.611 334.647 113.566C340.683 113.549 342.38 115.068 342.388 121.177C342.414 142.006 342.402 162.835 342.349 183.664C342.335 189.123 340.364 191.212 334.788 191.247C319.292 191.343 303.795 191.229 288.298 191.275C285.536 191.283 283.929 190.308 283.419 187.471C282.441 182.034 278.953 176.86 281.902 171.034C282.415 170.022 281.957 169.002 280.806 168.667C279.531 168.295 278.609 169.083 277.73 169.906C276.031 171.495 276.346 174.441 274.003 175.546C272.464 175.545 271.929 174.381 271.453 173.389C268.586 167.415 264.095 162.716 259.51 158.107C258.206 156.796 256.77 154.334 254.615 156.093C252.565 157.767 254.425 159.717 255.428 161.391C255.769 161.96 256.199 162.476 256.796 163.301Z" fill="#FF3131"/>
<path d="M283.648 343.994C283.652 333.838 283.831 324.175 283.579 314.525C283.469 310.32 285.35 309.543 288.96 309.582C292.5 309.622 295.258 309.793 295.011 314.488C294.776 318.932 294.96 323.399 294.96 327.923C300.233 329.329 305.211 327.613 310.148 328.251C312.493 328.555 312.651 326.581 312.663 324.83C312.688 321.001 312.809 317.168 312.683 313.343C312.572 309.974 314.578 309.425 317.184 309.689C319.867 309.96 323.893 308.284 323.945 313.17C324.095 327.154 324.082 341.141 323.99 355.126C323.963 359.391 320.473 358.253 318.031 358.327C315.622 358.399 312.723 358.889 312.725 354.96C312.728 350.631 312.602 346.3 312.694 341.973C312.753 339.194 311.509 338.264 308.83 338.036C295.164 336.877 295.285 336.823 294.86 350.535C294.76 353.79 296.756 358.751 289.967 358.446C283.726 358.166 283.688 358.425 283.653 351.985C283.639 349.487 283.649 346.99 283.648 343.994Z" fill="black"/>
<path d="M71.4043 338.998C71.4058 345.47 71.4058 351.443 71.4058 357.176C69.363 358.96 67.2781 358.185 65.362 358.376C62.0534 358.705 60.4232 357.439 60.6252 353.864C60.8312 350.216 60.5143 346.539 60.6978 342.889C60.8655 339.553 59.7269 338.168 56.198 338.022C42.3942 337.451 42.3273 337.35 42.389 351.445C42.4072 355.592 42.5512 358.86 36.5973 358.546C32.1502 358.312 30.8776 356.824 30.9565 352.618C31.1688 341.308 31.0442 329.992 31.0829 318.679C31.1168 308.792 31.7484 308.306 42.349 310.378C42.349 314.684 42.4745 319.134 42.307 323.573C42.1861 326.777 43.4802 327.914 46.6512 328.108C60.549 328.962 60.5442 329.039 60.6629 315.692C60.7213 309.121 61.7039 308.584 71.4028 310.366C71.4028 319.643 71.4028 329.071 71.4043 338.998Z" fill="black"/>
<path d="M154.002 347.281C148.03 346.451 144.474 347.92 143.246 354.142C142.289 358.994 139.562 359.509 130.936 357.546C131.637 351.951 134.108 346.844 135.864 341.576C138.918 332.419 142.405 323.407 145.5 314.263C146.576 311.083 147.78 308.85 151.727 309.502C155.568 310.137 160.21 307.332 162.257 313.773C166.438 326.934 171.347 339.862 175.919 352.9C176.404 354.283 176.643 355.752 176.987 357.145C169.192 360.229 165.562 358.983 163.88 351.832C162.467 345.822 158.172 347.575 154.002 347.281ZM154.295 321.458C151.314 326.179 150.221 331.44 149.386 336.482C150.841 337.789 152.038 337.602 153.179 337.634C158.957 337.798 159.336 337.346 157.728 331.841C156.755 328.511 155.659 325.217 154.295 321.458Z" fill="black"/>
<path d="M396.066 309.647C402.99 309.647 409.425 309.647 415.709 309.647C417.381 318.4 416.892 319.027 408.997 319.1C407.501 319.113 405.994 319.228 404.51 319.099C400.76 318.772 399.193 320.1 399.198 324.16C399.203 328.325 401.297 328.811 404.521 328.621C406.343 328.514 408.179 328.652 410.006 328.593C413.082 328.494 415.414 328.706 415.455 332.955C415.495 337.153 413.572 338.164 410.013 337.973C408.52 337.893 407.001 338.101 405.528 337.912C400.794 337.302 398.981 339.107 399.204 344.021C399.372 347.717 400.556 349.165 404.193 348.911C406.674 348.738 409.181 348.964 411.672 348.874C414.799 348.761 416.693 349.486 416.506 353.303C416.344 356.61 415.867 358.595 411.822 358.418C405.35 358.135 398.855 358.264 392.373 358.395C389.213 358.458 387.814 357.223 387.824 354.03C387.867 340.563 387.78 327.096 387.835 313.629C387.86 307.54 392.666 310.345 396.066 309.647Z" fill="black"/>
<path d="M90.7911 312.214C91.333 309.45 93.2006 309.688 94.8134 309.678C101.643 309.634 108.476 309.77 115.302 309.621C118.822 309.545 119.377 311.394 119.378 314.317C119.379 317.221 118.861 319.216 115.342 319.089C112.182 318.974 109.012 319.167 105.849 319.12C102.074 319.064 102.25 321.636 102.185 324.245C102.117 327 102.814 328.783 106.058 328.613C108.549 328.482 111.06 328.726 113.551 328.592C116.806 328.417 118.435 329.419 118.383 333.072C118.335 336.465 117.111 338.048 113.732 337.967C112.067 337.928 110.4 337.962 108.735 337.966C102.354 337.98 101.628 338.907 102.176 345.301C102.393 347.833 103.463 348.889 105.909 348.858C108.74 348.823 111.579 348.988 114.403 348.844C117.968 348.663 119.406 349.982 119.432 353.753C119.459 357.728 117.676 358.508 114.25 358.415C108.091 358.247 101.916 358.183 95.7628 358.445C91.7313 358.617 90.5846 356.983 90.6323 353.173C90.8009 339.681 90.7241 326.187 90.7911 312.214Z" fill="black"/>
<path d="M357.04 308.722C360.427 309.198 363.422 309.47 366.301 310.202C372.163 311.692 372.658 313.234 369.858 318.615C368.762 320.721 367.46 321.049 365.427 320.312C362.779 319.353 360.138 318.301 357.232 318.412C354.884 318.502 352.882 319.245 352.281 321.74C351.749 323.95 352.814 325.667 354.728 326.734C357.922 328.514 361.204 330.135 364.402 331.907C370.237 335.141 372.998 340.052 372.224 346.767C371.553 352.596 367.501 356.637 360.833 358.45C355.166 359.991 349.602 359.407 344.141 357.688C339.6 356.259 338.958 354.1 340.535 347.002C342.974 345.845 344.958 347.571 347.067 348.243C349.947 349.161 352.815 349.92 355.864 349.622C358.157 349.398 360.156 348.64 360.727 346.118C361.236 343.863 360.093 342.177 358.259 341.105C355.248 339.344 352.077 337.857 349.062 336.104C344.019 333.172 340.689 329.109 340.68 322.913C340.667 314.435 345.88 309.755 357.04 308.722Z" fill="black"/>
<path d="M436.02 350.81C430.97 341.698 430.304 332.549 433.569 323.095C438.472 308.896 453.822 305.876 466.829 311.383C468.528 312.103 468.99 313.353 468.316 315.013C467.515 316.984 466.652 318.929 465.638 321.3C458.539 318.917 450.96 315.03 445.865 323.416C441.852 330.021 441.731 337.67 445.536 344.401C450.635 353.421 458.97 348.555 466.1 347.89C468.928 354.853 467.854 357.041 460.952 358.426C451.448 360.333 442.709 359.517 436.02 350.81Z" fill="black"/>
<path d="M327.769 86.3835C327.316 87.0013 327.08 87.3959 326.816 87.415C320.945 87.8409 316.03 89.0783 316.938 96.8192C317.115 98.3301 315.242 99.1851 313.618 99.2398C311.457 99.3127 309.29 99.2161 307.126 99.2598C303.996 99.323 302.429 97.8722 302.69 94.7082C303.069 90.1122 301.294 87.7391 296.399 88.1894C293.092 88.4937 291.377 87.0124 291.632 83.5143C291.753 81.8577 291.765 80.1754 291.628 78.5213C291.32 74.8259 292.989 73.2476 296.605 73.6291C301.14 74.1077 303.191 72.1453 302.644 67.5715C302.2 63.8536 303.938 62.3731 307.559 62.6516C309.215 62.7789 310.895 62.7534 312.553 62.6402C315.936 62.4091 317.539 63.842 317.333 67.297C317.061 71.8617 318.901 74.25 323.823 73.5884C327.081 73.1507 328.389 74.9286 328.272 78.0141C328.171 80.6712 328.072 83.3283 327.769 86.3835Z" fill="#FF3131"/>
<path d="M256.187 355.755C253.628 360.078 249.814 358.412 246.744 357.901C244.136 357.467 244.942 354.345 244.924 352.302C244.847 343.483 244.906 334.663 244.894 325.844C244.885 319.284 244.868 319.122 238.26 319.234C234.167 319.302 231.339 318.674 231.858 313.596C232.123 311.009 232.998 309.621 235.793 309.638C245.61 309.699 255.429 309.745 265.245 309.63C268.741 309.588 269.359 311.429 269.342 314.344C269.326 317.143 269.012 319.056 265.422 319.253C256.317 319.75 256.33 319.898 256.313 328.823C256.296 337.642 256.267 346.461 256.187 355.755Z" fill="black"/>
<path d="M190.693 323.01C190.694 320.186 190.681 317.86 190.701 315.534C190.746 310.261 195.603 307.517 200.468 309.997C202.577 311.072 202.137 313.082 202.149 314.823C202.217 324.459 202.341 334.098 202.144 343.73C202.064 347.634 203.41 349.191 207.321 348.915C210.462 348.692 213.638 349.016 216.786 348.856C220.27 348.678 221.426 350.19 221.393 353.585C221.362 356.816 220.604 358.51 216.94 358.411C209.801 358.219 202.649 358.221 195.51 358.42C191.762 358.525 190.6 356.985 190.652 353.414C190.797 343.447 190.697 333.477 190.693 323.01Z" fill="black"/>
<path d="M357.458 386.289C362.892 385.729 367.866 386.116 372.8 386.777C381.903 387.995 388.022 394.854 388.308 404.074C388.401 407.055 388.554 410.104 388.062 413.018C386.554 421.953 379.38 427.85 369.745 428.295C366.265 428.455 362.764 428.195 359.286 428.386C355.736 428.581 354.679 426.939 354.714 423.624C354.827 412.663 354.752 401.701 354.774 390.74C354.778 388.936 354.548 386.945 357.458 386.289ZM375.903 393.424C372.22 391.593 368.302 391.219 364.244 391.3C361.7 391.351 360.737 392.261 360.76 394.873C360.839 403.519 360.738 412.168 360.657 420.816C360.638 422.727 361.538 423.567 363.35 423.598C369.701 423.708 377.795 422.273 380.877 415.541C384.356 407.943 382.683 398.981 375.903 393.424Z" fill="black"/>
<path d="M262.033 420.786C256.338 428.224 248.466 430.761 239.648 428.258C232.524 426.236 227.666 420.094 226.833 411.511C226.515 408.228 226.474 404.797 227.057 401.569C229.031 390.648 236.411 385.131 247.71 385.715C257.62 386.227 264.368 393.232 265.252 404.036C265.72 409.765 265.137 415.337 262.033 420.786ZM251.934 422.743C258.882 419.858 261.126 408.248 258.009 399.142C255.195 390.919 243.457 388.144 236.974 394.077C232.224 398.424 231.055 410.59 234.717 417.577C237.594 423.065 242.778 424.789 251.934 422.743Z" fill="black"/>
<path d="M75.6705 422.319C73.9561 419.419 72.2694 416.921 70.9294 414.249C69.2954 410.991 66.5027 411.025 63.658 411.448C60.4072 411.932 61.4863 414.693 61.3756 416.661C61.2169 419.483 61.3046 422.32 61.301 425.151C61.2985 427.13 60.5353 428.304 58.3452 428.224C56.4142 428.153 55.7201 427.032 55.7185 425.317C55.7079 413.329 55.7305 401.34 55.709 389.352C55.7046 386.926 57.1607 386.243 59.218 386.101C64.2316 385.755 69.2159 386.231 74.116 387.121C78.1272 387.85 81.1862 390.234 82.1729 394.395C83.2551 398.958 82.9714 403.369 79.2873 406.88C78.2101 407.907 76.9873 408.78 75.2786 410.175C78.5287 415.783 81.8083 421.441 85.1759 427.252C79.1639 430.413 77.9125 425.783 75.6705 422.319ZM72.8278 392.443C62.2658 389.47 60.9561 390.492 61.3519 401.395C61.3759 402.058 61.3857 402.722 61.43 403.384C61.4879 404.249 61.8272 404.953 62.5792 405.46C65.0119 407.1 73.2268 405.656 75.1142 403.239C77.6177 400.033 77.0489 396.26 72.8278 392.443Z" fill="black"/>
<path d="M323.341 398.008C323.606 402.241 322.254 405.495 319.098 407.474C315.901 409.479 316.442 411.431 318.076 414.028C320.793 418.348 323.326 422.785 326.062 427.384C321.965 429.284 319.583 428.058 317.808 424.831C315.964 421.478 313.86 418.26 312.167 414.836C310.53 411.525 307.882 410.871 304.693 411.425C301.139 412.043 302.516 415.003 302.339 417.08C302.128 419.559 302.283 422.068 302.263 424.565C302.247 426.528 302.012 428.289 299.359 428.219C297.067 428.158 296.684 426.685 296.684 424.859C296.683 412.396 296.684 399.934 296.684 387.029C303.889 385.4 310.754 385.769 317.39 388.098C321.572 389.566 323.4 393.131 323.341 398.008ZM302.347 403.014C303.439 407.929 307.329 405.897 310.057 405.797C314.947 405.617 317.722 402.502 317.538 398.26C317.339 393.696 313.332 391.41 306.663 391.275C300.924 391.159 302.552 395.127 302.315 398.139C302.21 399.46 302.308 400.797 302.347 403.014Z" fill="black"/>
<path d="M114.036 425.642C113.949 414.182 114.108 403.181 113.833 392.19C113.717 387.521 115.616 385.897 119.99 386.051C124.817 386.221 129.653 386.091 134.481 386.231C136.119 386.279 138.022 386.488 137.985 388.851C137.948 391.199 136.163 391.316 134.433 391.334C131.101 391.369 127.764 391.472 124.437 391.341C121.52 391.226 120.305 392.294 120.148 395.344C119.726 403.506 119.796 403.701 128.042 403.711C130.041 403.714 132.041 403.719 134.039 403.788C135.718 403.847 136.981 404.517 137.015 406.422C137.048 408.321 135.839 409.094 134.141 409.139C130.978 409.222 127.806 409.334 124.647 409.199C121.496 409.064 120.25 410.242 120.133 413.516C119.793 423.021 119.668 422.994 129.025 423.039C131.349 423.05 133.683 423.156 135.992 423.41C137.263 423.549 138.033 424.485 138.046 425.845C138.056 426.93 137.666 428.008 136.508 428.065C129.381 428.411 122.24 428.921 115.147 427.704C114.721 427.631 114.449 426.659 114.036 425.642Z" fill="black"/>
<path d="M423.614 395.534C423.071 399.695 425.328 401.711 428.402 403.117C431.571 404.567 434.806 405.876 437.958 407.361C442.219 409.369 444.029 413.078 443.849 417.504C443.66 422.131 441.397 425.761 436.882 427.552C431.239 429.79 425.491 429.579 419.774 427.899C417.024 427.091 416.067 425.308 417.679 422.388C421.758 422.474 425.689 424.214 429.869 423.745C433.311 423.36 436.665 422.893 437.627 418.884C438.652 414.61 435.978 412.445 432.52 410.918C429.787 409.711 426.951 408.703 424.323 407.301C419.056 404.49 416.732 399.967 417.802 394.54C418.852 389.212 422.957 386.996 427.707 385.96C431.842 385.059 435.974 385.867 439.985 387.078C441.537 387.546 442.678 388.393 442.196 390.335C441.667 392.464 440.232 392.906 438.395 392.303C435.834 391.461 433.234 391.151 430.55 391.195C427.496 391.244 424.983 392.104 423.614 395.534Z" fill="black"/>
<path d="M187.887 391.199C177.478 391.622 172.939 397.403 173.289 409.235C173.571 418.797 178.844 423.861 188.433 423.67C190.242 423.633 192.046 423.275 193.848 423.031C195.189 422.85 196.597 422.527 197.067 424.344C197.512 426.064 196.813 427.365 195.161 427.871C185.876 430.719 172.709 429.753 168.484 416.714C167.058 412.312 166.682 407.754 167.343 402.98C169.351 388.475 182.425 382.815 195.924 387.03C197.593 387.552 199.075 388.383 198.198 390.618C197.43 392.578 196.005 392.805 194.147 392.34C192.228 391.86 190.259 391.581 187.887 391.199Z" fill="black"/>
</svg>
