<svg width="192" height="50" viewBox="0 0 192 50" fill="none" xmlns="http://www.w3.org/2000/svg">
<g clip-path="url(#clip0_9_23123)">
<path d="M61.4961 38.9931L63.8865 33.4372C66.4696 35.3663 69.9009 36.3694 73.2937 36.3694C75.7997 36.3694 77.3804 35.4049 77.3804 33.9387C77.3419 29.849 62.3828 33.0513 62.2672 22.7883C62.2286 17.5797 66.8551 13.5671 73.4093 13.5671C77.3033 13.5671 81.1973 14.5317 83.9732 16.7309L81.7371 22.4025C79.1925 20.782 76.031 19.6246 73.0238 19.6246C70.9804 19.6246 69.631 20.5891 69.631 21.8238C69.6696 25.8364 84.7443 23.6372 84.8985 33.4372C84.8985 38.7616 80.3877 42.5041 73.9106 42.5041C69.1684 42.5041 64.8118 41.3852 61.4961 38.9931ZM153.217 31.4309C152.021 33.5143 149.785 34.9419 147.202 34.9419C143.385 34.9419 140.301 31.8553 140.301 28.0356C140.301 24.2159 143.385 21.1293 147.202 21.1293C149.785 21.1293 152.021 22.5568 153.217 24.6403L159.809 20.975C157.342 16.5765 152.6 13.5671 147.202 13.5671C139.221 13.5671 132.744 20.049 132.744 28.0356C132.744 36.0222 139.221 42.5041 147.202 42.5041C152.638 42.5041 157.342 39.5332 159.809 35.0962L153.217 31.4309ZM88.2142 1.56787H96.4648V41.9639H88.2142V1.56787ZM163.048 1.56787V41.9639H171.299V29.849L181.091 41.9639H191.655L179.202 27.5726L190.73 14.1458H180.629L171.299 25.2962V1.56787H163.048ZM120.985 31.508C119.79 33.4757 117.323 34.9419 114.547 34.9419C110.73 34.9419 107.645 31.8553 107.645 28.0356C107.645 24.2159 110.73 21.1293 114.547 21.1293C117.323 21.1293 119.79 22.6726 120.985 24.6789V31.508ZM120.985 14.1458V17.4254C119.636 15.149 116.282 13.5671 112.773 13.5671C105.525 13.5671 99.819 19.9718 99.819 27.997C99.819 36.0222 105.525 42.5041 112.773 42.5041C116.282 42.5041 119.636 40.9222 120.985 38.6458V41.9254H129.236V14.1458H120.985Z" fill="black"/>
<path d="M10.4889 31.4696C10.4889 34.2862 8.21416 36.5625 5.3997 36.5625C2.58525 36.5625 0.310547 34.2862 0.310547 31.4696C0.310547 28.6531 2.58525 26.3767 5.3997 26.3767H10.4889V31.4696ZM13.0334 31.4696C13.0334 28.6531 15.3081 26.3767 18.1226 26.3767C20.9371 26.3767 23.2118 28.6531 23.2118 31.4696V44.2019C23.2118 47.0184 20.9371 49.2948 18.1226 49.2948C15.3081 49.2948 13.0334 47.0184 13.0334 44.2019V31.4696Z" fill="#E01E5A"/>
<path d="M18.1221 11.0208C15.3076 11.0208 13.0329 8.74441 13.0329 5.92787C13.0329 3.11134 15.3076 0.834961 18.1221 0.834961C20.9365 0.834961 23.2112 3.11134 23.2112 5.92787V11.0208H18.1221ZM18.1221 13.6058C20.9365 13.6058 23.2112 15.8822 23.2112 18.6987C23.2112 21.5153 20.9365 23.7917 18.1221 23.7917H5.36064C2.54618 23.7917 0.271484 21.5153 0.271484 18.6987C0.271484 15.8822 2.54618 13.6058 5.36064 13.6058H18.1221Z" fill="#36C5F0"/>
<path d="M38.5178 18.6987C38.5178 15.8822 40.7925 13.6058 43.607 13.6058C46.4214 13.6058 48.6961 15.8822 48.6961 18.6987C48.6961 21.5153 46.4214 23.7917 43.607 23.7917H38.5178V18.6987ZM35.9732 18.6987C35.9732 21.5153 33.6985 23.7917 30.8841 23.7917C28.0696 23.7917 25.7949 21.5153 25.7949 18.6987V5.92787C25.7949 3.11134 28.0696 0.834961 30.8841 0.834961C33.6985 0.834961 35.9732 3.11134 35.9732 5.92787V18.6987Z" fill="#2EB67D"/>
<path d="M30.8841 39.1087C33.6985 39.1087 35.9732 41.3851 35.9732 44.2017C35.9732 47.0182 33.6985 49.2946 30.8841 49.2946C28.0696 49.2946 25.7949 47.0182 25.7949 44.2017V39.1087H30.8841ZM30.8841 36.5623C28.0696 36.5623 25.7949 34.2859 25.7949 31.4694C25.7949 28.6528 28.0696 26.3765 30.8841 26.3765H43.6455C46.46 26.3765 48.7347 28.6528 48.7347 31.4694C48.7347 34.2859 46.46 36.5623 43.6455 36.5623H30.8841Z" fill="#ECB22E"/>
</g>
<defs>
<clipPath id="clip0_9_23123">
<rect width="192" height="49" fill="white" transform="translate(0 0.603516)"/>
</clipPath>
</defs>
</svg>
