<svg width="299" height="29" viewBox="0 0 299 29" fill="none" xmlns="http://www.w3.org/2000/svg">
<path d="M280.718 18.5622C280.309 18.5804 279.895 18.5929 279.494 18.6201C279.234 18.6372 279.122 18.5872 278.949 18.561C278.891 18.5519 278.829 18.5338 278.775 18.536C278.37 18.5542 277.965 18.5747 277.56 18.5951C277.436 18.6395 277.357 18.6986 277.167 18.7202C276.981 18.7406 276.762 18.7406 276.555 18.7509C276.283 18.7634 276.01 18.7759 275.737 18.7873C275.601 18.7929 275.489 18.8145 275.444 18.8555C275.435 18.8623 275.526 18.8793 275.576 18.8896C275.741 18.9237 275.902 18.9623 276.084 18.9885C276.258 19.0135 276.473 18.9725 276.659 19.0044C277.076 19.076 277.08 19.0749 277.399 19.0612C277.672 19.0487 277.944 19.0351 278.217 19.026C278.271 19.0237 278.333 19.0408 278.391 19.0498C278.564 19.0749 278.676 19.1317 278.932 19.1101C279.127 19.093 279.341 19.0896 279.544 19.0805C279.713 19.1135 279.871 19.151 280.052 19.1772C280.222 19.2022 280.272 19.2215 280.181 19.2545C280.098 19.2852 279.982 19.2977 279.829 19.2999C279.693 19.3011 279.556 19.3113 279.42 19.317C279.35 19.3204 279.284 19.3227 279.217 19.3261C278.957 19.3386 278.957 19.3386 278.482 19.2658C278.296 19.2374 278.085 19.2772 277.907 19.2499C277.787 19.2317 277.684 19.2045 277.568 19.1851C277.519 19.1772 277.44 19.176 277.378 19.1783C277.171 19.1863 276.965 19.1919 276.766 19.2067C276.626 19.217 276.543 19.2488 276.56 19.2806C276.564 19.2931 276.663 19.3113 276.721 19.3124C276.853 19.3147 276.994 19.2988 277.122 19.3068C277.246 19.3147 277.374 19.3375 277.465 19.3625C277.651 19.4148 277.862 19.3681 278.039 19.3818C278.225 19.3966 278.378 19.442 278.556 19.4693C278.601 19.4761 278.688 19.4648 278.759 19.4614C278.961 19.4534 279.164 19.4466 279.366 19.4386C279.536 19.4716 279.718 19.5012 279.871 19.5387C280.148 19.6069 280.445 19.633 280.805 19.6C281.007 19.5819 281.206 19.5887 281.367 19.633C281.532 19.6785 281.722 19.6739 281.933 19.6648C282.127 19.6558 282.326 19.6307 282.524 19.6626C282.954 19.733 282.958 19.7365 283.467 19.7092C283.62 19.7012 283.735 19.699 283.851 19.7251C283.959 19.749 284.074 19.7694 284.186 19.7922C284.389 19.7842 284.595 19.7763 284.798 19.7672C285.058 19.7547 285.203 19.7706 285.265 19.8342C285.302 19.8729 285.319 19.9081 285.409 19.9343C285.517 19.9661 285.633 19.9649 285.79 19.9559C285.939 19.9479 286.046 19.9354 286.108 19.8945C286.133 19.8774 286.182 19.8615 286.228 19.8479C286.265 19.8376 286.323 19.8217 286.356 19.824C286.418 19.8285 286.501 19.841 286.521 19.8558C286.724 19.9934 286.724 19.9945 286.931 20.0343C287.158 20.0786 287.394 20.1184 287.6 20.1684C287.786 20.2128 287.972 20.1934 288.175 20.1934C288.328 20.1934 288.427 20.223 288.415 20.2526C288.406 20.2696 288.348 20.2946 288.299 20.2969C287.894 20.3196 287.485 20.3389 287.075 20.3549C287.026 20.3571 286.964 20.3367 286.906 20.3264C286.79 20.306 286.687 20.2741 286.563 20.2673C286.439 20.2605 286.294 20.2776 286.158 20.2832C286.021 20.2889 285.877 20.3037 285.753 20.2946C285.629 20.2855 285.529 20.2526 285.414 20.231C285.36 20.2207 285.286 20.206 285.24 20.2094C284.938 20.2366 284.715 20.1991 284.5 20.1491C284.455 20.1389 284.376 20.1321 284.318 20.1343C283.839 20.1537 283.363 20.1764 282.884 20.198C282.69 20.2071 282.532 20.1673 282.491 20.1002C282.47 20.0627 282.429 20.0252 282.429 19.9877C282.429 19.9195 282.202 19.882 282.037 19.8899C281.764 19.9013 281.487 19.9104 281.218 19.9274C280.999 19.9411 280.813 19.9274 280.664 19.8865C280.491 19.8399 280.292 19.849 280.094 19.8615C279.945 19.8706 279.904 19.9081 279.912 20.0025C279.92 20.0786 279.85 20.1025 279.581 20.115C279.242 20.1309 278.899 20.1468 278.556 20.1593C278.502 20.1616 278.44 20.1423 278.387 20.1321C278.271 20.1116 278.167 20.0786 278.043 20.0718C277.919 20.0638 277.775 20.0809 277.638 20.0877C277.502 20.0934 277.357 20.1093 277.233 20.1014C277.109 20.0934 277.006 20.0593 276.894 20.0377C276.841 20.0275 276.774 20.0127 276.721 20.015C276.448 20.0241 276.175 20.0377 275.902 20.0502C275.596 20.0639 275.596 20.0639 275.162 19.9934C274.964 19.9615 274.766 19.9866 274.571 19.9957C274.365 20.0047 274.17 20.0093 274.009 19.9638C273.902 19.9343 273.782 19.9161 273.654 19.9218C273.311 19.9354 272.972 19.9525 272.629 19.9661C272.571 19.9684 272.492 19.9627 272.447 19.9525C272.228 19.9047 272.013 19.8672 271.707 19.8911C271.442 19.9115 271.157 19.9127 270.892 19.932C270.748 19.9422 270.682 19.9786 270.711 20.007C270.727 20.0218 270.814 20.0388 270.872 20.0388C271.004 20.04 271.149 20.0229 271.273 20.0297C271.529 20.0434 271.657 20.1389 271.992 20.1127C272.19 20.0968 272.397 20.0911 272.604 20.0866C272.657 20.0854 272.715 20.107 272.773 20.1184C272.939 20.1491 273.083 20.1889 273.323 20.1684C273.521 20.1525 273.732 20.148 273.935 20.1389C274.257 20.1241 274.257 20.1252 274.675 20.1946C274.873 20.2276 275.071 20.2014 275.266 20.1934C275.41 20.1878 275.547 20.1764 275.663 20.1923C275.84 20.2162 275.968 20.2707 276.187 20.2673C276.394 20.2639 276.597 20.248 276.803 20.2423C276.932 20.2389 277.051 20.2571 277.155 20.2878C277.262 20.3185 277.378 20.3321 277.518 20.3253C277.721 20.3162 277.928 20.3048 278.134 20.2992C278.192 20.298 278.258 20.3083 278.312 20.3174C278.428 20.3378 278.539 20.3617 278.651 20.3833C278.854 20.3765 279.06 20.3742 279.259 20.3605C279.412 20.3503 279.519 20.3549 279.643 20.3776C279.8 20.4083 279.928 20.4629 280.185 20.4367C280.313 20.4242 280.462 20.4276 280.59 20.4163C280.747 20.4015 280.854 20.4072 280.966 20.4413C281.177 20.5061 281.441 20.5072 281.714 20.4822C282.012 20.4549 282.235 20.4867 282.458 20.5368C282.694 20.589 282.694 20.5879 282.876 20.7141C282.929 20.7505 283.082 20.7675 283.21 20.7607C283.425 20.7493 283.611 20.755 283.768 20.7982C283.934 20.8448 284.132 20.8391 284.335 20.8266C284.603 20.8096 284.872 20.7948 285.091 20.8607C285.199 20.8926 285.314 20.9005 285.459 20.8926C285.868 20.8721 286.282 20.8596 286.683 20.8346C286.927 20.8187 287.067 20.855 287.232 20.8857C287.456 20.9278 287.699 20.9653 287.699 21.0551C287.699 21.0699 287.757 21.0869 287.807 21.0983C287.914 21.1222 288.03 21.1426 288.142 21.1654C288.307 21.1995 288.468 21.2279 288.696 21.2097C288.894 21.1949 289.105 21.1904 289.307 21.1802C289.51 21.1699 289.696 21.1642 289.878 21.2074C290.089 21.2563 290.312 21.3029 290.552 21.3393C290.721 21.3655 290.944 21.3211 291.126 21.3564C291.238 21.378 291.345 21.403 291.465 21.4212C291.515 21.4291 291.593 21.4234 291.659 21.4212C291.796 21.4166 291.936 21.4132 292.069 21.4018C292.222 21.3893 292.337 21.3916 292.453 21.4178C292.561 21.4416 292.668 21.4746 292.792 21.4814C292.978 21.4916 293.185 21.4462 293.371 21.4985C293.466 21.5246 293.586 21.5496 293.71 21.5576C293.834 21.5655 293.978 21.5485 294.111 21.5496C294.168 21.5496 294.239 21.5678 294.272 21.5826C294.292 21.5905 294.264 21.6121 294.235 21.6235C294.197 21.6371 294.144 21.6553 294.09 21.6576C293.681 21.6781 293.272 21.6951 292.862 21.7145C292.618 21.7258 292.618 21.7258 292.127 21.6542C292.011 21.6371 291.883 21.6406 291.738 21.6485C291.544 21.6587 291.345 21.6781 291.143 21.6576C290.878 21.5803 290.552 21.5735 290.204 21.603C290.06 21.6155 289.927 21.6155 289.82 21.5939C289.593 21.5507 289.353 21.511 289.15 21.4598C288.993 21.42 288.919 21.4166 288.853 21.4712C288.832 21.4882 288.811 21.5064 288.816 21.5223C288.84 21.5792 288.886 21.6349 288.911 21.6917C288.919 21.7076 288.886 21.7258 288.865 21.7429C288.799 21.7906 288.712 21.7872 288.568 21.7474C288.423 21.7076 288.249 21.6815 288.018 21.6997C287.819 21.7156 287.604 21.7133 287.406 21.7304C287.1 21.7554 286.885 21.719 286.666 21.6701C286.621 21.6599 286.542 21.6542 286.484 21.6565C285.868 21.6826 285.257 21.7122 284.641 21.7383C284.508 21.744 284.389 21.727 284.285 21.6963C284.178 21.6656 284.058 21.6497 283.925 21.6553C283.38 21.6792 282.834 21.7008 282.289 21.7304C282.065 21.7429 281.888 21.7281 281.735 21.6883C281.619 21.6587 281.512 21.6496 281.367 21.6531C281.21 21.6565 281.098 21.6678 281.02 21.7008C280.945 21.7326 280.999 21.752 281.164 21.777C281.342 21.8042 281.507 21.8395 281.677 21.8713C281.813 21.8668 281.95 21.8577 282.082 21.8588C282.14 21.8588 282.194 21.8793 282.251 21.8906C282.417 21.9236 282.57 21.9566 282.805 21.9384C283.004 21.9225 283.215 21.9191 283.417 21.9088C283.698 21.8963 283.698 21.8963 284.153 21.9679C284.269 21.9861 284.393 21.985 284.541 21.9748C284.67 21.9668 284.802 21.9827 284.893 22.0168C284.93 22.0305 284.918 22.0532 284.839 22.1282C284.839 22.1839 284.926 22.1589 284.955 22.1225C285 22.0703 284.913 22.0532 284.748 22.0816C284.632 22.1021 284.575 22.1316 284.603 22.1555C284.62 22.168 284.699 22.1839 284.839 22.1282C285.203 22.06 285.48 22.0521 285.744 22.0339C285.901 22.0236 286.001 22.0282 286.125 22.0577C286.273 22.093 286.422 22.1305 286.666 22.1123C286.931 22.0919 287.212 22.0896 287.48 22.0725C287.728 22.0566 287.857 22.1066 288.014 22.1362C288.204 22.1714 288.415 22.1316 288.588 22.1521C288.77 22.1726 288.898 22.2226 289.109 22.2317C289.415 22.201 289.609 22.2578 289.841 22.2953C290.023 22.3238 290.237 22.2987 290.432 22.2862C290.651 22.2726 290.833 22.2851 290.986 22.326C291.159 22.3726 291.354 22.3624 291.552 22.3522C292.015 22.3294 292.031 22.326 292.3 22.3885C292.494 22.434 292.68 22.4136 292.875 22.4079C293.044 22.4386 293.21 22.4715 293.387 22.4988C293.433 22.5056 293.52 22.4943 293.59 22.4909C293.792 22.4818 293.999 22.4727 294.202 22.4636C294.338 22.4579 294.483 22.4408 294.607 22.4477C294.731 22.4556 294.834 22.4886 294.946 22.5102C295.057 22.5318 295.173 22.5534 295.28 22.5761C295.446 22.6102 295.603 22.6386 295.834 22.6216C296.033 22.6068 296.239 22.6023 296.446 22.592C296.706 22.5795 296.698 22.5829 297.182 22.6511C297.442 22.6887 297.711 22.6432 297.975 22.6386C298.108 22.6364 298.236 22.6489 298.327 22.6818C298.364 22.6955 298.352 22.7182 298.364 22.7375C297.682 22.7682 296.996 22.7944 296.322 22.8319C296.062 22.8467 295.925 22.8057 295.785 22.7716C295.553 22.7171 295.247 22.7966 295.028 22.7262C294.896 22.6841 294.706 22.6602 294.478 22.6807C294.346 22.6921 294.206 22.6909 294.069 22.7012C293.722 22.7262 293.404 22.7273 293.127 22.6489C293.032 22.6216 292.895 22.6068 292.796 22.5807C292.68 22.5523 292.569 22.5363 292.432 22.542C291.816 22.5693 291.205 22.5966 290.593 22.6261C290.539 22.6284 290.485 22.6455 290.44 22.658C290.324 22.6898 290.361 22.7148 290.547 22.7353C290.609 22.7421 290.659 22.7569 290.717 22.7682C290.829 22.7898 290.932 22.8239 291.056 22.8319C291.18 22.8399 291.325 22.8239 291.461 22.8183C291.597 22.8126 291.742 22.7955 291.866 22.8023C291.99 22.8103 292.093 22.8433 292.209 22.8637C292.263 22.874 292.329 22.891 292.383 22.8899C292.656 22.883 292.924 22.8705 293.197 22.8603C293.367 22.891 293.511 22.9353 293.714 22.9456C293.842 22.9524 293.978 22.9399 294.111 22.9422C294.168 22.9433 294.243 22.9603 294.272 22.9751C294.288 22.9842 294.235 23.007 294.193 23.0183C294.036 23.0615 293.821 23.0536 293.627 23.0672C293.416 23.082 293.226 23.0774 293.065 23.0331C292.957 23.0035 292.837 22.9876 292.705 22.9933C292.362 23.0081 292.023 23.0252 291.68 23.0377C291.622 23.0399 291.552 23.0297 291.498 23.0217C291.064 22.9524 291.064 22.9501 290.758 22.9649C290.308 22.9865 290.308 22.9865 290.006 22.9262C289.948 22.9149 289.886 22.8933 289.836 22.8944C289.357 22.9126 288.882 22.9308 288.406 22.9569C288.249 22.9649 288.142 22.9649 288.026 22.9353C287.927 22.9103 287.811 22.8819 287.687 22.8751C287.559 22.8683 287.418 22.8853 287.282 22.891C287.146 22.8967 287.001 22.9115 286.881 22.9024C286.757 22.8933 286.65 22.8615 286.542 22.8387C286.43 22.8148 286.311 22.816 286.158 22.8251C285.686 22.8512 285.682 22.8478 285.215 22.7773C285.161 22.7694 285.091 22.7603 285.033 22.7626C284.69 22.7762 284.351 22.7932 284.008 22.8069C283.876 22.8126 283.748 22.7978 283.657 22.7648C283.62 22.7512 283.632 22.7284 283.607 22.6841C283.578 22.6739 283.611 22.6921 283.62 22.7091C283.682 22.7069 283.756 22.7091 283.802 22.7C283.917 22.6784 283.975 22.65 283.946 22.6261C283.93 22.6136 283.851 22.5977 283.802 22.5977C283.711 22.5977 283.632 22.6227 283.607 22.6841C283.347 22.7216 283.07 22.7296 282.801 22.7478C282.644 22.7591 282.545 22.7535 282.421 22.7239C282.272 22.6875 282.119 22.6523 281.875 22.6705C281.611 22.6909 281.33 22.6943 281.057 22.7103C280.743 22.7285 280.606 22.6261 280.342 22.6284C280.069 22.6307 279.796 22.65 279.523 22.6637C279.284 22.675 279.284 22.675 278.788 22.6011C278.606 22.5738 278.391 22.6136 278.213 22.5852C278.093 22.567 277.99 22.5397 277.874 22.5204C277.824 22.5125 277.746 22.5125 277.684 22.5147C277.341 22.5284 276.994 22.5375 276.663 22.5625C276.287 22.592 276.002 22.5602 275.733 22.4931C275.394 22.5056 275.051 22.5125 274.716 22.5341C274.472 22.55 274.332 22.5125 274.166 22.4818C274.108 22.4715 274.059 22.4545 273.997 22.4499C273.935 22.4454 273.86 22.4545 273.794 22.4579C273.521 22.4704 273.24 22.4761 272.976 22.4966C272.649 22.5227 272.525 22.4295 272.273 22.4181C272.104 22.4738 272.013 22.55 271.678 22.5557C271.405 22.5602 271.132 22.5784 270.859 22.5909C270.723 22.5966 270.587 22.6034 270.45 22.6091C270.231 22.6193 270.128 22.6636 270.173 22.7319C270.198 22.7694 270.219 22.8069 270.239 22.8444C270.281 22.9115 270.177 22.9683 270.004 22.9763C269.524 22.9979 269.049 23.0206 268.569 23.0399C268.441 23.0456 268.317 23.0263 268.214 22.9956C268.106 22.9649 267.987 22.9513 267.854 22.9569C267.375 22.9785 266.899 23.0013 266.42 23.0206C266.366 23.0229 266.296 23.0115 266.242 23.0024C266.127 22.9819 266.015 22.9581 265.903 22.9365C265.63 22.9467 265.362 22.9535 265.093 22.9672C264.659 22.9876 264.659 22.9888 264.341 22.9262C264.283 22.9149 264.225 22.8933 264.171 22.8944C263.965 22.899 263.762 22.9103 263.555 22.9206C262.948 22.9501 262.948 22.9501 262.77 22.916C262.609 22.8842 262.464 22.8455 262.22 22.8637C261.956 22.8842 261.675 22.891 261.402 22.9024C261.199 22.9103 260.997 22.9194 260.794 22.9217C260.74 22.9228 260.683 22.9012 260.625 22.8899C260.459 22.8546 260.298 22.8262 260.071 22.8455C259.938 22.8569 259.798 22.8592 259.662 22.8649C259.306 22.8808 259.306 22.8808 258.723 22.8126C258.665 22.8057 258.595 22.7978 258.537 22.8012C258.058 22.8217 257.582 22.8444 257.103 22.8637C257.045 22.866 256.975 22.8592 256.917 22.8535C256.264 22.7876 256.264 22.7876 255.569 22.8194C255.305 22.8308 255.297 22.8353 255.02 22.7751C254.896 22.7489 254.792 22.7364 254.648 22.7444C254.102 22.7716 253.552 22.7898 253.011 22.8217C252.767 22.8353 252.626 22.8012 252.461 22.7705C252.403 22.7603 252.341 22.7375 252.291 22.7387C251.746 22.7603 251.2 22.7864 250.655 22.808C250.605 22.8103 250.543 22.7876 250.485 22.7773C250.373 22.7569 250.266 22.7262 250.142 22.7194C250.014 22.7125 249.873 22.7296 249.733 22.7353C249.39 22.75 249.39 22.7489 248.993 22.6818C248.939 22.6728 248.869 22.6602 248.815 22.6625C248.269 22.6853 247.72 22.7046 247.178 22.7375C246.868 22.7557 246.657 22.7228 246.438 22.675C246.393 22.6648 246.314 22.6602 246.256 22.6625C245.641 22.6887 245.029 22.7182 244.413 22.7444C244.285 22.75 244.161 22.7307 244.057 22.7012C243.892 22.6546 243.698 22.6602 243.491 22.6705C243.016 22.6943 243.012 22.6932 242.731 22.6386C242.673 22.6273 242.623 22.6125 242.561 22.6068C242.503 22.6011 242.429 22.6045 242.367 22.6068C242.094 22.6182 241.821 22.6307 241.548 22.6432C241.276 22.6557 240.999 22.6625 240.73 22.6818C240.399 22.7057 240.242 22.6318 240.011 22.5977C239.672 22.6125 239.324 22.6216 238.99 22.6455C238.733 22.6636 238.614 22.6136 238.444 22.5875C238.386 22.5784 238.324 22.5591 238.27 22.5613C237.655 22.5863 237.039 22.6136 236.427 22.6443C236.278 22.6511 236.179 22.642 236.055 22.6148C235.778 22.5534 235.766 22.5557 235.303 22.5784C235.1 22.5886 234.906 22.5977 234.732 22.5511C234.579 22.5091 234.393 22.4988 234.174 22.5125C233.905 22.5295 233.628 22.5386 233.356 22.55C233.083 22.5625 232.81 22.5795 232.537 22.5852C232.318 22.5909 232.186 22.5375 232.012 22.5102C231.959 22.5022 231.884 22.5011 231.822 22.5034C231.549 22.5136 231.268 22.5215 231.004 22.5409C230.681 22.5647 230.504 22.5022 230.276 22.4659C230.227 22.4579 230.144 22.4624 230.082 22.4659C229.602 22.4863 229.127 22.509 228.647 22.5306C228.478 22.5 228.304 22.4704 228.135 22.4397C227.862 22.4511 227.589 22.4636 227.316 22.4749C227.11 22.484 226.899 22.4875 226.705 22.5045C226.453 22.5272 226.329 22.4738 226.159 22.4477C226.101 22.4386 226.039 22.4192 225.986 22.4215C225.642 22.434 225.299 22.4477 224.96 22.467C224.638 22.4863 224.51 22.384 224.245 22.3851C223.972 22.3863 223.691 22.4011 223.427 22.4215C223.121 22.4454 222.906 22.409 222.687 22.3601C222.641 22.3499 222.563 22.3442 222.505 22.3465C222.162 22.3601 221.823 22.3772 221.48 22.3908C221.422 22.3931 221.352 22.3874 221.294 22.3806C220.641 22.3135 220.641 22.3124 220.356 22.326C220.153 22.3351 219.946 22.3465 219.74 22.3522C219.682 22.3545 219.612 22.3442 219.558 22.3351C219.128 22.2658 219.128 22.2646 218.818 22.2783C218.545 22.2908 218.272 22.3033 217.999 22.3158C217.83 22.2851 217.656 22.2556 217.487 22.2249C217.148 22.2396 216.801 22.251 216.466 22.2715C216.309 22.2806 216.206 22.2771 216.086 22.2487C215.937 22.2146 215.788 22.1748 215.54 22.1942C215.275 22.2146 214.994 22.2169 214.726 22.2339C214.403 22.2544 214.271 22.151 214.011 22.1521C213.738 22.1532 213.457 22.168 213.192 22.1885C212.886 22.2123 212.671 22.176 212.452 22.1271C212.407 22.1169 212.328 22.1112 212.27 22.1135C211.518 22.1464 210.77 22.1794 210.018 22.2146C209.555 22.2362 209.555 22.2374 208.674 22.1748C208.612 22.1703 208.546 22.1657 208.484 22.168C208.211 22.1783 207.93 22.1862 207.666 22.2055C207.343 22.2294 207.165 22.168 206.938 22.1305C206.888 22.1225 206.81 22.1271 206.744 22.1294C206.537 22.1373 206.335 22.1476 206.128 22.1567C205.855 22.1692 205.582 22.1817 205.309 22.1942C205.14 22.1646 204.966 22.1339 204.797 22.1044C204.458 22.1191 204.111 22.1271 203.776 22.151C203.52 22.1692 203.4 22.1214 203.23 22.0941C203.172 22.085 203.11 22.0657 203.057 22.0668C202.441 22.0919 201.825 22.118 201.213 22.1498C200.961 22.1635 200.845 22.1123 200.676 22.0862C200.618 22.0782 200.552 22.0634 200.498 22.0657C200.089 22.0816 199.68 22.1009 199.27 22.1203C199.039 22.1316 199.039 22.1316 198.535 22.0612C198.477 22.0532 198.411 22.0452 198.353 22.0475C197.055 22.1044 195.761 22.1646 194.463 22.2214C194.331 22.2271 194.211 22.2101 194.108 22.1794C194 22.1487 193.88 22.1328 193.748 22.1385C193.202 22.1623 192.653 22.1839 192.111 22.2135C191.888 22.226 191.71 22.2112 191.557 22.1714C191.441 22.1419 191.334 22.1305 191.189 22.1373C190.916 22.151 190.644 22.1623 190.371 22.1748C190.098 22.1873 189.825 22.1999 189.552 22.2124C189.28 22.2249 189.003 22.2317 188.734 22.251C188.403 22.2749 188.242 22.2044 188.015 22.1692C187.606 22.1862 187.196 22.2033 186.791 22.2214C186.245 22.2453 185.7 22.2715 185.154 22.2942C185.105 22.2965 185.043 22.276 184.985 22.2658C184.815 22.2374 184.691 22.1976 184.439 22.2101C183.216 22.2703 181.984 22.3215 180.756 22.3806C180.5 22.3931 180.388 22.3442 180.215 22.3181C180.157 22.3101 180.091 22.2942 180.037 22.2965C179.355 22.3249 178.673 22.3567 177.991 22.3874C177.714 22.3999 177.714 22.3999 177.251 22.3294C177.197 22.3215 177.127 22.3112 177.069 22.3135C176.18 22.3522 175.296 22.3931 174.407 22.4329C174.275 22.4386 174.155 22.4227 174.047 22.392C173.944 22.3613 173.82 22.3442 173.692 22.3499C172.873 22.3863 172.051 22.4215 171.237 22.4613C171.018 22.4727 170.836 22.4624 170.679 22.4215C170.567 22.392 170.455 22.3795 170.315 22.3863C169.087 22.442 167.859 22.4954 166.632 22.5545C166.396 22.5659 166.231 22.5443 166.082 22.5068C165.962 22.4772 165.859 22.4715 165.71 22.4761C165.553 22.4818 165.458 22.4943 165.371 22.5284C165.26 22.5727 165.189 22.6284 164.925 22.6318C164.652 22.6352 164.375 22.6489 164.106 22.6682C163.85 22.6875 163.73 22.6364 163.569 22.6057C163.449 22.5841 163.337 22.5807 163.184 22.5909C163.044 22.6 162.957 22.6193 162.874 22.6557C162.693 22.733 162.676 22.733 162.453 22.6841C162.333 22.658 162.225 22.6375 162.093 22.642C161.548 22.6648 161.002 22.6898 160.456 22.7159C160.142 22.7307 160.138 22.733 159.902 22.6762C159.787 22.6477 159.675 22.6341 159.539 22.6409C158.038 22.7091 156.538 22.7751 155.037 22.8467C154.806 22.858 154.649 22.8342 154.483 22.8001C154.43 22.7887 154.376 22.7728 154.314 22.7682C154.252 22.7637 154.182 22.7682 154.115 22.7705C153.024 22.8194 151.929 22.866 150.842 22.9206C150.594 22.9331 150.461 22.8967 150.292 22.8671C150.234 22.8569 150.184 22.841 150.122 22.8364C150.06 22.833 149.986 22.841 149.92 22.8444C148.829 22.8933 147.733 22.9399 146.646 22.9945C146.386 23.007 146.274 22.9592 146.105 22.9342C146.047 22.9251 145.985 22.9081 145.931 22.9103C145.588 22.9228 145.249 22.9399 144.906 22.9547C144.087 22.9922 143.269 23.0274 142.45 23.0661C142.136 23.0809 142 22.9797 141.735 22.9842C141.392 22.9899 141.053 23.0126 140.71 23.0286C140.437 23.0411 140.165 23.0524 139.892 23.0661C139.623 23.0786 139.623 23.0786 138.954 23.0126C138.896 23.007 138.825 22.999 138.768 23.0013C137.813 23.0433 136.854 23.0854 135.903 23.1309C135.684 23.1411 135.502 23.1354 135.345 23.0934C135.233 23.0638 135.118 23.049 134.981 23.0558C133.547 23.1206 132.117 23.1854 130.682 23.2491C130.629 23.2514 130.558 23.24 130.505 23.2309C130.389 23.2104 130.277 23.1866 130.166 23.165C130.083 23.1911 129.975 23.215 129.922 23.2445C129.847 23.2843 129.748 23.2957 129.591 23.3025C129.434 23.3093 129.335 23.3071 129.211 23.2775C129.062 23.2411 128.909 23.2127 128.665 23.2241C127.165 23.2957 125.664 23.3605 124.164 23.431C123.916 23.4423 123.8 23.3923 123.626 23.3662C123.568 23.3582 123.502 23.3457 123.449 23.348C122.833 23.3741 122.221 23.4026 121.605 23.4298C119.898 23.5071 118.191 23.581 116.488 23.6629C116.178 23.6777 115.967 23.6492 115.748 23.6004C115.702 23.5901 115.624 23.5844 115.566 23.5867C113.177 23.6936 110.788 23.8016 108.402 23.9096C108.274 23.9152 108.15 23.897 108.047 23.8675C107.939 23.8368 107.82 23.822 107.687 23.8277C106.596 23.8766 105.505 23.9255 104.414 23.9755C104.141 23.988 104.137 23.9891 103.856 23.9346C103.798 23.9232 103.736 23.9016 103.69 23.9039C103.595 23.9096 103.504 23.938 103.438 23.9766C103.372 24.0175 103.269 24.0289 103.116 24.0369C102.959 24.0448 102.855 24.0414 102.735 24.0141C102.582 23.98 102.442 23.9471 102.194 23.9584C99.0565 24.1039 95.9191 24.2438 92.7817 24.3881C92.5296 24.3995 92.4138 24.3518 92.2402 24.3256C92.1823 24.3177 92.1245 24.3063 92.0625 24.304C91.9964 24.3017 91.9261 24.3086 91.86 24.312C86.7426 24.5427 81.6253 24.7746 76.508 25.0054C76.2021 25.019 76.2062 25.019 75.8714 25.1236C75.8301 25.1361 75.7763 25.1532 75.7184 25.1554C74.1518 25.2282 72.5811 25.2987 71.0103 25.3692C70.3283 25.3999 69.6463 25.4317 68.9642 25.4612C68.7204 25.4715 68.7204 25.4715 68.1375 25.5943C68.0879 25.6045 68.03 25.6181 67.9721 25.6204C65.244 25.7443 62.5158 25.8682 59.7835 25.9899C59.5686 25.9989 59.395 26.0194 59.2958 26.074C59.2255 26.1126 59.1346 26.1354 58.9982 26.1422C57.0885 26.2286 55.1789 26.3161 53.265 26.4002C53.0377 26.4105 52.9012 26.4423 52.7896 26.49C52.7524 26.5059 52.7193 26.5241 52.6656 26.5355C52.616 26.5457 52.5416 26.5491 52.4796 26.5525C50.8427 26.6264 49.2059 26.7026 47.5648 26.7731C47.321 26.7833 47.2217 26.8254 47.1018 26.8697C47.0605 26.8845 47.0315 26.905 46.9778 26.9152C46.9241 26.9243 46.8455 26.9243 46.7794 26.9266C45.4153 26.9879 44.0513 27.0505 42.6872 27.1118C42.4227 27.1062 42.3648 27.1721 42.2366 27.2119C42.1912 27.2255 42.1582 27.2437 42.1044 27.2528C42.0466 27.2619 41.9721 27.2608 41.9018 27.263C40.8105 27.3119 39.7193 27.3642 38.6239 27.4097C38.3718 27.4199 38.3221 27.4779 38.1857 27.5177C38.1403 27.5302 38.0948 27.5495 38.0411 27.5529C37.3591 27.5859 36.6771 27.6166 35.995 27.6461C35.7677 27.6564 35.7677 27.6552 35.3667 27.7678C35.3212 27.7803 35.2675 27.7939 35.2096 27.7973C34.1886 27.8451 33.1635 27.8905 32.1384 27.9371C32.0061 27.9428 31.9152 27.9701 31.8491 28.0088C31.7829 28.0474 31.6879 28.0724 31.5556 28.0781C30.7371 28.1156 29.9186 28.1543 29.1002 28.1884C28.8728 28.1975 28.7241 28.2259 28.6249 28.277C28.5505 28.3157 28.4595 28.335 28.3148 28.3418C27.4964 28.3782 26.678 28.418 25.8554 28.4498C25.6157 28.4589 25.4916 28.4976 25.3924 28.5453C25.3139 28.584 25.2229 28.5976 25.07 28.6044C23.5695 28.6704 22.0649 28.7363 20.5686 28.809C20.3164 28.8215 20.1883 28.7818 20.0229 28.7533C19.7873 28.7136 19.5683 28.6704 19.5683 28.5817C19.5683 28.568 19.498 28.5521 19.4484 28.5408C19.0805 28.4555 19.0805 28.4555 19.0226 28.3646C18.9896 28.3089 18.9524 28.252 18.9234 28.1952C18.8697 28.102 18.7374 28.0781 18.3571 28.0952C18.2207 28.1008 18.0843 28.1088 17.9479 28.1133C17.7453 28.1213 17.5924 28.0838 17.5552 28.0156C17.5345 27.9781 17.5098 27.9405 17.4891 27.903C17.6958 27.8939 17.6916 27.8928 18.0553 27.7553C18.2083 27.6973 18.2083 27.6973 17.9149 27.6393C17.8033 27.6177 17.6958 27.5938 17.5759 27.5734C17.5221 27.5643 17.4519 27.5586 17.394 27.5609C17.0509 27.5745 16.712 27.5904 16.3731 27.6063C15.8274 27.6313 15.8274 27.6313 15.2735 27.5154C15.228 27.5063 15.1577 27.4893 15.166 27.4802C15.2115 27.4381 15.323 27.4199 15.4636 27.4154C15.6703 27.4085 15.8728 27.3972 16.0753 27.3881C16.2118 27.3824 16.3482 27.3756 16.4846 27.3699C16.6127 27.3267 16.745 27.2846 16.8649 27.2403C17.0551 27.1721 17.055 27.1698 16.7946 27.1221C16.6292 27.0902 16.4515 27.0618 16.282 27.0323C16.0795 27.0414 15.8728 27.0516 15.6703 27.0595C15.414 27.0698 15.3106 27.0482 15.2445 26.9743C15.1866 26.9095 15.2569 26.8538 15.4553 26.8402C15.6579 26.8265 15.8481 26.8174 15.9514 26.7594C16.0506 26.7037 16.2242 26.6821 16.4392 26.6776C16.5756 26.6742 16.712 26.6662 16.8484 26.6594C17.0261 26.6503 17.1212 26.5923 17.084 26.5275C17.0633 26.4855 17.022 26.4502 16.8608 26.4411C16.1457 26.4014 16.1374 26.4025 15.7819 26.3252C15.7488 26.3184 15.7241 26.2979 15.7365 26.2877C15.7571 26.2706 15.8026 26.2456 15.8522 26.2422C16.3276 26.2172 16.8029 26.1945 17.2783 26.1774C17.4354 26.1717 17.5511 26.1638 17.6048 26.1217C17.6792 26.0637 17.6462 26.0103 17.5015 25.9705C17.456 25.958 17.3816 25.9421 17.332 25.9432C16.7863 25.9637 16.2449 25.9898 15.6992 26.0103C15.6496 26.0126 15.5587 25.9933 15.5381 25.9785C15.4967 25.9512 15.5587 25.9148 15.7034 25.9023C15.8935 25.8853 16.0878 25.8841 16.2159 25.8273C16.3937 25.7466 16.6127 25.6727 16.8111 25.5954C16.8442 25.5818 16.898 25.5556 16.8856 25.5533C16.7823 25.5283 16.6624 25.509 16.5549 25.4851C16.373 25.4453 16.373 25.3896 16.4143 25.3362C16.4474 25.293 16.5714 25.276 16.7243 25.276C16.7905 25.276 16.8731 25.276 16.9269 25.2657C17.0674 25.2407 17.1129 25.2089 17.0426 25.185C17.0013 25.1714 16.9269 25.1521 16.8773 25.1543C15.9928 25.1918 15.104 25.2282 14.2235 25.2748C13.9631 25.2885 13.8433 25.2453 13.6862 25.2146C13.5664 25.1907 13.4547 25.1816 13.3059 25.1986C13.1653 25.2146 13.029 25.2055 12.9422 25.168C12.8719 25.1373 12.9959 25.1111 13.3307 25.0816C13.3927 25.0759 13.463 25.0725 13.5084 25.0611C13.9879 24.9383 13.9879 24.9372 14.3186 24.9213C14.641 24.9065 14.6411 24.9054 14.8106 24.8394C14.8891 24.8087 14.9758 24.778 15.0502 24.7462C15.0792 24.7337 15.1288 24.711 15.1123 24.7042C15.0214 24.6689 14.8973 24.661 14.7526 24.6689C14.4302 24.6882 14.05 24.6723 13.8805 24.7803C13.8144 24.8212 13.711 24.8326 13.5622 24.8394C12.0659 24.9054 10.5695 24.9759 9.06899 25.0395C8.82511 25.0497 8.71357 25.0918 8.6185 25.1384C8.53583 25.1771 8.44487 25.1884 8.2878 25.1952C8.13072 25.2021 8.00665 25.2055 7.91572 25.168C7.86198 25.1452 7.90746 25.1134 8.03147 25.0816C8.20921 25.0361 8.17613 24.9793 8.11826 24.9258C8.07692 24.8906 7.94878 24.8656 7.81238 24.8679C7.60983 24.8724 7.41561 24.8849 7.24613 24.8394C7.14693 24.8133 7.0229 24.7951 6.91129 24.7724C6.69635 24.7258 6.48139 24.678 6.17964 24.7087C5.97297 24.6973 5.82829 24.6564 5.66295 24.6246C5.386 24.5723 5.3612 24.5643 5.55961 24.5086C5.78282 24.4461 5.60918 24.3643 5.73319 24.3029C5.86546 24.2369 6.0474 24.179 6.20861 24.1176C6.24994 24.1017 6.28716 24.0869 6.3285 24.071C6.23342 24.0482 6.14663 24.0198 6.03503 24.0039C5.89035 23.9835 5.81595 23.9584 5.82421 23.888C5.79528 23.8777 5.80759 23.9039 5.84066 23.9107C5.87787 23.9175 5.96887 23.9118 6.01434 23.9039C6.13008 23.8823 6.18789 23.8539 6.15895 23.83C6.14242 23.8175 6.06394 23.8016 6.01434 23.8016C5.9234 23.8016 5.84488 23.8266 5.82008 23.888C5.35712 23.9346 4.87755 23.9573 4.39806 23.9755C4.34845 23.9778 4.28649 23.955 4.22862 23.9437C4.03847 23.905 4.03845 23.9061 3.48042 23.8948C3.42255 23.8936 3.34405 23.8777 3.31512 23.8618C3.19525 23.7925 3.19941 23.7163 3.14154 23.6424C3.24901 23.5947 3.3564 23.5481 3.46801 23.5015C3.69122 23.4071 3.98063 23.3241 4.15424 23.2207C4.11704 23.165 4.06743 23.1093 4.24931 23.0638C4.766 23.007 4.7619 23.007 4.90244 22.9524C5.30339 22.7978 5.70019 22.6421 6.11768 22.4897C6.22929 22.4499 6.2293 22.4283 6.03089 22.4113C5.96889 22.4067 5.90266 22.4056 5.83653 22.4079C5.62985 22.4158 5.42317 22.4363 5.22063 22.4317C5.01809 22.4283 4.86928 22.3783 4.70394 22.3476C4.53446 22.3158 4.36499 22.2828 4.19552 22.2499C4.00124 22.2533 3.807 22.2851 3.61272 22.2339C3.46391 22.1942 3.27792 22.1657 3.10844 22.1328C3.23658 22.0464 3.47636 21.9804 3.66237 21.9043C3.83185 21.8349 3.83589 21.8361 4.29058 21.7827C4.50553 21.7576 4.57993 21.6292 4.39806 21.5917C4.17898 21.5462 3.94755 21.5041 3.72434 21.4609C3.53006 21.4643 3.33169 21.4951 3.14568 21.4439C3.001 21.4052 2.83563 21.3791 2.59588 21.3939C2.1908 21.4189 1.77745 21.4314 1.36823 21.4518C1.22769 21.4587 1.0747 21.4541 1.0127 21.4155C0.971365 21.3882 1.09125 21.3507 1.22765 21.3427C1.43433 21.3314 1.62032 21.3177 1.72366 21.2609C1.82286 21.204 2.00472 21.187 2.21967 21.179C2.27754 21.1767 2.34372 21.1631 2.37266 21.1495C2.52146 21.0835 2.68682 21.0267 3.0051 21.029C3.13738 21.0062 3.2076 20.9778 3.16627 20.9505C3.14146 20.9358 3.0547 20.9164 3.0051 20.9187C2.66202 20.9301 2.31894 20.9414 1.98413 20.9619C1.82705 20.971 1.70711 20.9733 1.60791 20.9392C1.53764 20.9164 1.57484 20.8857 1.70711 20.8528C1.82285 20.8243 1.85595 20.7914 1.84769 20.7527C1.82702 20.6629 1.70299 20.6368 1.30617 20.6425C1.02095 20.647 0.950677 20.6322 0.888674 20.5549C0.872139 20.5367 0.830877 20.5117 0.859811 20.4992C1.03755 20.4219 1.1533 20.3264 1.48812 20.2901C1.62039 20.2764 1.76088 20.2764 1.84355 20.2469C1.92622 20.2173 2.00066 20.1832 2.08746 20.1548C2.19494 20.1207 2.26927 20.0889 2.21967 20.0673C2.13699 20.0286 2.00477 20.0252 1.85182 20.0388C1.71955 20.0502 1.57901 20.0513 1.44261 20.0582C1.19873 20.0707 1.00036 20.0411 0.971426 19.9911C0.892888 19.8592 0.810193 19.7285 0.739922 19.5966C0.731655 19.5807 0.752266 19.5603 0.785335 19.5466C0.901074 19.4989 1.02513 19.4534 1.145 19.4068C1.28554 19.3534 1.50879 19.3636 1.69894 19.3534C1.96762 19.3386 1.96752 19.3397 2.32714 19.2306C2.46768 19.1874 2.71157 19.2045 2.85625 19.1658C2.90172 19.1533 2.97199 19.1328 2.95959 19.1215C2.94305 19.1067 2.86043 19.0953 2.79842 19.0885C2.74055 19.0817 2.6703 19.0783 2.6083 19.0817C1.85599 19.1146 1.10784 19.1499 0.35553 19.1817C0.22739 19.1874 0.086845 19.1624 0.0413759 19.1272C-0.00409319 19.0942 0.00826711 19.0544 0 19.0169C0.119873 18.9703 0.256228 18.9271 0.359567 18.8771C0.438104 18.8384 0.529059 18.8214 0.686134 18.8191C0.892811 18.8157 1.09538 18.802 1.32685 18.7918C1.75674 18.6258 2.17834 18.4519 2.6413 18.2859C2.82731 18.2189 2.78191 18.1507 2.81911 18.079C2.85631 18.0131 3.13325 18.0233 3.31926 18.004C3.46806 17.9881 3.5176 17.9517 3.45973 17.9267C3.42666 17.9119 3.3523 17.8949 3.29443 17.8949C3.15802 17.8949 3.02162 17.9051 2.88521 17.9108C2.74881 17.9165 2.59174 17.9131 2.48013 17.9324C2.37266 17.9506 2.30235 17.9892 2.23208 18.0222C2.15354 18.0586 2.05027 18.0711 1.8932 18.0734C1.69066 18.0756 1.48812 18.0859 1.28558 18.0938C1.06237 18.0495 0.83084 18.0063 0.615895 17.9597C0.57456 17.9506 0.566248 17.9245 0.570382 17.9074C0.578649 17.8631 0.516662 17.8358 0.380255 17.8142C0.264515 17.796 0.169435 17.7698 0.0619629 17.7471C0.144634 17.7164 0.235604 17.6869 0.301741 17.6539C0.446416 17.5845 0.628312 17.5345 0.942462 17.5368C1.06647 17.4925 1.16565 17.4379 1.32685 17.4072C1.4798 17.3777 1.74022 17.4072 1.85596 17.3401C1.91383 17.3072 2.00068 17.2697 2.11229 17.256C2.29003 17.2344 2.52151 17.2458 2.62485 17.1821C2.68685 17.1458 2.77775 17.1128 2.89763 17.1037C3.03403 17.0935 3.17454 17.0912 3.27374 17.0696C3.32748 17.0582 3.38536 17.04 3.38536 17.0241C3.38536 17.0139 3.30275 16.998 3.24488 16.9912C3.19114 16.9832 3.12079 16.9775 3.05879 16.9798C2.85211 16.9866 2.64957 16.9991 2.44289 17.0059C2.38502 17.0082 2.31891 17.0002 2.2569 16.9934C2.07503 16.9752 2.0874 16.9525 2.23208 16.9116C2.37675 16.8718 2.48015 16.8206 2.60002 16.774C2.7323 16.7661 2.89761 16.7695 2.98855 16.7479C3.14149 16.7126 3.24894 16.6615 3.37294 16.6172C3.50935 16.6103 3.64988 16.6081 3.77802 16.5956C3.83176 16.591 3.85658 16.566 3.90205 16.5512C3.98472 16.5228 4.05505 16.4819 4.16665 16.4682C4.34853 16.4478 4.57174 16.4557 4.67921 16.3932C4.74121 16.3568 4.83625 16.3182 4.95199 16.3159C5.27441 16.3114 5.41082 16.2488 5.57616 16.1897C5.70017 16.1454 5.96472 16.1681 6.10113 16.1238C6.19207 16.0954 6.25824 16.0601 6.34918 16.0328C6.38639 16.0215 6.46489 16.0158 6.5269 16.0124C6.86585 15.9953 7.20892 15.9828 7.54787 15.9646C7.60161 15.9612 7.65125 15.9442 7.69259 15.9305C7.77939 15.901 7.83307 15.8601 7.94054 15.8407C8.04801 15.8214 8.20093 15.8214 8.33321 15.8157C8.75896 15.7987 8.79206 15.8032 8.98634 15.7066C9.14342 15.6282 9.52789 15.6839 9.65603 15.5975C9.73043 15.5475 9.86678 15.5065 10.1107 15.5008C10.4537 15.4929 10.7927 15.4713 11.1358 15.4565C11.4417 15.4429 11.4375 15.4429 11.7682 15.3371C11.917 15.2894 12.1361 15.2962 12.3304 15.2871C12.5371 15.278 12.7272 15.2644 12.8264 15.2076C12.9256 15.1519 13.1075 15.1337 13.3183 15.1257C13.5126 15.1177 13.7317 15.1234 13.8846 15.078C14.2567 14.9688 14.2525 14.9677 14.513 14.9563C14.9222 14.9381 15.3314 14.92 15.7406 14.9006C16.0134 14.8881 16.2986 14.8859 16.5549 14.8608C16.7409 14.8427 16.8236 14.779 16.9434 14.7347C17.2824 14.7176 17.6213 14.7006 17.9603 14.6846C18.4356 14.6619 18.9151 14.6414 19.3946 14.6198C19.6013 14.5766 19.6303 14.4812 19.9775 14.4766C20.1842 14.4743 20.3867 14.4596 20.5934 14.4505C20.9365 14.4346 21.2754 14.4141 21.6185 14.4061C21.8789 14.4004 21.9243 14.3391 22.0607 14.3004C22.1062 14.2868 22.1476 14.2674 22.2013 14.264C22.7387 14.2322 23.2925 14.2254 23.8175 14.1788C23.8712 14.1742 23.9208 14.1504 23.9332 14.1333C23.9415 14.1242 23.8712 14.1072 23.8258 14.0992C23.772 14.0901 23.7018 14.081 23.6439 14.0833C21.9367 14.1595 20.2296 14.2368 18.5225 14.3129C18.2827 14.3243 18.2827 14.3231 17.6999 14.4482C17.6503 14.4584 17.5924 14.4698 17.5304 14.4732C17.2576 14.4868 16.9806 14.4948 16.7119 14.5119C16.4929 14.5255 16.311 14.5118 16.154 14.4709C16.0424 14.4414 15.9266 14.4323 15.786 14.4346C15.6289 14.438 15.5257 14.4505 15.4347 14.4812C15.3149 14.5232 15.2528 14.5778 15.0007 14.5892C13.8392 14.638 12.6776 14.6926 11.5202 14.7449C11.359 14.729 11.2804 14.7051 11.3218 14.6767C11.3466 14.6596 11.3962 14.6369 11.4458 14.6346C11.9211 14.6108 12.4006 14.5903 12.876 14.5676C12.9421 14.5641 13.033 14.5664 13.0702 14.555C13.2521 14.5039 13.3183 14.4209 13.6614 14.4152C13.8598 14.4118 14.0623 14.3948 14.2525 14.3789C14.3062 14.3743 14.3558 14.3504 14.3682 14.3334C14.3724 14.3243 14.3062 14.3072 14.2566 14.2993C14.0747 14.2663 13.864 14.3061 13.6821 14.2834C13.6201 14.2754 13.5332 14.264 13.5208 14.2504C13.5126 14.2379 13.5828 14.2174 13.6325 14.2049C13.6779 14.1936 13.7399 14.1833 13.8019 14.1799C14.3475 14.1538 14.8932 14.1265 15.4389 14.106C15.6621 14.0981 15.8191 14.0696 15.9183 14.0174C15.9927 13.9787 16.0837 13.9582 16.2242 13.9526C17.179 13.9105 18.1339 13.8639 19.0929 13.8252C19.3326 13.8162 19.4567 13.7786 19.5559 13.7298C19.6344 13.6911 19.7254 13.6775 19.8783 13.6706C21.2465 13.6115 22.6064 13.5456 23.9746 13.4888C24.2268 13.4785 24.3012 13.4297 24.4293 13.3876C24.4748 13.3728 24.5037 13.3546 24.5615 13.3455C24.6194 13.3364 24.6938 13.3376 24.7641 13.3353C25.8553 13.2864 26.9467 13.2341 28.0421 13.1887C28.2983 13.1784 28.3479 13.1216 28.4801 13.0818C28.5256 13.0693 28.567 13.0488 28.6207 13.0454C29.4392 13.0068 30.2576 12.9704 31.076 12.9329C31.6217 12.9079 32.1673 12.8829 32.7129 12.859C32.9816 12.8476 32.9816 12.8465 33.3453 12.7385C33.3867 12.726 33.4446 12.7112 33.4983 12.7078C35.0691 12.635 36.6357 12.5657 38.2064 12.4941C38.3387 12.4884 38.4337 12.4622 38.4999 12.4236C38.566 12.3849 38.6612 12.3588 38.7893 12.3531C40.017 12.2963 41.2446 12.2406 42.4764 12.1872C42.6996 12.1781 42.8567 12.1508 42.9559 12.0996C43.0303 12.061 43.1212 12.0405 43.2617 12.0348C44.4894 11.9803 45.7171 11.9223 46.9489 11.87C47.1845 11.8598 47.3002 11.8211 47.416 11.7756C47.4573 11.7597 47.4904 11.7336 47.54 11.7313C48.1518 11.6995 48.7594 11.6665 49.3753 11.6449C49.6316 11.6358 49.7184 11.5881 49.8217 11.5426C49.9044 11.5062 49.9995 11.4937 50.1566 11.4892C50.4997 11.4789 50.8386 11.4596 51.1734 11.4403C51.223 11.4369 51.285 11.4119 51.2892 11.396C51.2974 11.3664 51.2023 11.3459 51.0453 11.3357C49.4084 11.4096 47.7674 11.4835 46.1305 11.5574C45.8618 11.5699 45.8618 11.5699 45.4981 11.6779C45.4567 11.6904 45.3988 11.7052 45.3409 11.7086C43.7702 11.7802 42.2036 11.8507 40.6329 11.9223C40.5006 11.928 40.4055 11.9541 40.3394 11.9928C40.2733 12.0314 40.1781 12.0576 40.05 12.0632C38.5495 12.1315 37.049 12.2008 35.5444 12.2656C35.3212 12.2747 35.1642 12.3008 35.065 12.3531C34.9906 12.3918 34.8996 12.4122 34.7591 12.4179C33.3247 12.4816 31.8945 12.5486 30.456 12.61C30.3113 12.6157 30.2039 12.5827 30.2122 12.5521C30.2163 12.5361 30.2782 12.51 30.3278 12.5077C31.076 12.4702 31.8201 12.4316 32.5724 12.4031C32.8246 12.394 32.8989 12.344 33.0271 12.302C33.0684 12.2872 33.1015 12.2679 33.1552 12.2599C33.2131 12.2508 33.2875 12.252 33.3578 12.2497C35.1311 12.169 36.9044 12.0871 38.6818 12.011C38.9381 11.9996 38.9876 11.9439 39.1199 11.9041C39.1654 11.8905 39.2067 11.87 39.2605 11.8677C39.8061 11.8404 40.3517 11.8166 40.8974 11.7927C41.8522 11.7495 42.807 11.7063 43.766 11.6631C44.043 11.6506 44.043 11.6506 44.3985 11.5437C44.4398 11.5312 44.4977 11.5153 44.5515 11.5131C47.0771 11.3982 49.6027 11.2834 52.1283 11.1697C52.2606 11.1641 52.3556 11.1379 52.4218 11.0993C52.4879 11.0618 52.5829 11.0345 52.7111 11.0276C56.1254 10.873 59.5356 10.7184 62.9499 10.5661C63.1731 10.5559 63.3302 10.532 63.4294 10.4786C63.4996 10.4399 63.5947 10.4195 63.7352 10.4126C67.4885 10.2433 71.2418 10.0739 74.9992 9.90338C77.5248 9.7897 80.0504 9.67375 82.576 9.56235C82.8075 9.55212 82.9315 9.51687 83.0472 9.47026C83.0844 9.45435 83.1216 9.4282 83.1712 9.42592C83.7127 9.39751 84.2542 9.37136 84.7957 9.34522C84.9652 9.37591 85.1346 9.40547 85.3041 9.43617C85.4322 9.39297 85.5563 9.34863 85.6845 9.30543C86.5029 9.27247 87.3089 9.22131 88.1356 9.2054C88.1894 9.20426 88.2472 9.22586 88.3051 9.23723C88.6895 9.30885 88.9086 9.30316 89.1525 9.20767C89.2393 9.17357 89.3137 9.14288 89.4459 9.13719C89.8551 9.11673 90.2686 9.10309 90.6737 9.07922C90.8928 9.06671 91.0746 9.07808 91.2316 9.119C91.3433 9.14856 91.459 9.16107 91.5955 9.15425C92.3478 9.12015 93.0959 9.08717 93.8482 9.0508C93.902 9.04852 93.9515 9.02919 93.9928 9.01555C94.0796 8.986 94.1541 8.95417 94.2368 8.92348C94.3484 8.94281 94.4724 8.95759 94.5633 8.98259C94.6791 9.01215 94.7865 9.01214 94.9436 9.00419C97.9445 8.86664 100.95 8.7325 103.951 8.59381C104.207 8.58245 104.319 8.63019 104.492 8.6552C104.55 8.6643 104.608 8.67566 104.67 8.67793C104.736 8.68021 104.806 8.67339 104.872 8.66998C107.125 8.56767 109.378 8.46649 111.631 8.36418C111.928 8.35054 111.928 8.35054 112.371 8.42102C112.424 8.43012 112.495 8.44035 112.553 8.43694C113.578 8.3926 114.603 8.34486 115.624 8.29939C115.756 8.29371 115.868 8.31189 115.988 8.33804C116.223 8.38919 116.24 8.3892 116.413 8.31417C116.496 8.27893 116.583 8.25732 116.719 8.24709C116.868 8.23572 116.988 8.23915 117.104 8.25961C117.269 8.28803 117.389 8.33577 117.641 8.32326C118.732 8.26983 119.828 8.2255 120.915 8.17094C121.163 8.15843 121.295 8.19708 121.46 8.2255C121.518 8.23573 121.572 8.25165 121.634 8.25506C121.696 8.25847 121.77 8.2505 121.836 8.24709C123.201 8.18571 124.569 8.12547 125.929 8.05954C126.185 8.04703 126.297 8.0959 126.47 8.12091C126.528 8.13001 126.594 8.14593 126.648 8.14366C127.466 8.10842 128.289 8.07089 129.107 8.03338C129.401 8.01974 129.401 8.02087 129.847 8.09022C129.901 8.09931 129.971 8.10841 130.029 8.10613C130.984 8.06407 131.943 8.02087 132.898 7.97768C133.191 7.96404 133.191 7.96404 134.039 8.02315C134.101 8.0277 134.167 8.03453 134.229 8.03225C135.32 7.98337 136.416 7.93562 137.507 7.88333C137.726 7.8731 137.908 7.88219 138.065 7.92311C138.176 7.95267 138.292 7.96518 138.429 7.95836C139.656 7.90266 140.888 7.84923 142.112 7.79012C142.347 7.77875 142.5 7.80375 142.665 7.83672C142.719 7.84809 142.773 7.864 142.835 7.86855C142.897 7.8731 142.967 7.86855 143.033 7.86514C144.261 7.80944 145.493 7.75715 146.716 7.6969C146.964 7.68439 147.097 7.72304 147.262 7.75146C147.32 7.76169 147.382 7.78215 147.431 7.78102C147.911 7.76169 148.39 7.74465 148.866 7.71623C149.122 7.70031 149.234 7.7526 149.407 7.7776C149.465 7.78556 149.531 7.80262 149.585 7.80035C150.61 7.75601 151.635 7.70941 152.656 7.66167C152.801 7.65484 152.908 7.66507 153.024 7.69462C153.177 7.73441 153.355 7.75032 153.578 7.73782C154.053 7.71167 154.533 7.69349 155.012 7.67189C155.293 7.65939 155.293 7.65939 156.153 7.7185C156.215 7.72305 156.281 7.72987 156.343 7.72759C157.162 7.69122 157.984 7.65598 158.799 7.61619C159.018 7.60482 159.2 7.61505 159.357 7.65598C159.468 7.68553 159.58 7.69804 159.72 7.69122C160.473 7.65712 161.221 7.62301 161.973 7.58891C162.246 7.57641 162.519 7.5548 162.792 7.5548C162.99 7.55594 163.135 7.6105 163.313 7.63778C163.362 7.64574 163.445 7.63666 163.511 7.63438C164.466 7.59119 165.425 7.5514 166.376 7.50251C166.624 7.49001 166.756 7.52866 166.921 7.55708C166.979 7.56731 167.041 7.58777 167.091 7.58663C167.434 7.57413 167.773 7.55708 168.116 7.5423C168.525 7.52411 168.938 7.51047 169.343 7.48546C169.674 7.465 169.798 7.56389 170.063 7.5673C170.265 7.57071 170.472 7.55139 170.674 7.5423C171.084 7.52411 171.493 7.50365 171.902 7.48774C172.047 7.48205 172.158 7.46386 172.204 7.42293C172.212 7.41497 172.142 7.39793 172.096 7.3877C171.547 7.27175 171.547 7.27174 170.993 7.29675C170.65 7.31267 170.311 7.32858 169.968 7.34223C169.91 7.3445 169.844 7.33541 169.786 7.32858C169.62 7.30926 169.637 7.28653 169.777 7.2456C169.918 7.20468 170.025 7.15466 170.145 7.10806C170.315 7.13761 170.48 7.16716 170.65 7.19672C170.786 7.19103 170.922 7.18422 171.059 7.17854C171.741 7.14898 172.423 7.11829 173.105 7.091C173.155 7.08873 173.217 7.11147 173.274 7.12284C173.44 7.1558 173.589 7.18421 173.828 7.17171C174.44 7.13874 175.056 7.11487 175.668 7.08645C175.936 7.07395 175.936 7.07395 176.408 7.14443C176.461 7.15239 176.532 7.16148 176.59 7.15921C177.205 7.13306 177.817 7.10464 178.433 7.07736C178.565 7.07168 178.694 7.08646 178.789 7.11942C178.826 7.13306 178.818 7.15579 178.975 7.34223C179.462 7.49342 179.797 7.47751 180.136 7.46387C180.281 7.45818 180.409 7.45249 180.504 7.42976C180.554 7.41725 180.616 7.39906 180.616 7.38429C180.616 7.37292 180.525 7.35473 180.467 7.35245C180.058 7.32972 179.669 7.37747 179.268 7.3877C179.082 7.39225 178.921 7.35246 178.888 7.28766C178.88 7.26947 178.867 7.25015 178.855 7.23196C178.842 7.21377 178.834 7.19445 178.822 7.17626C178.661 7.17058 178.565 7.19104 178.495 7.22969C178.437 7.26152 178.355 7.29789 178.243 7.31494C178.131 7.33313 177.978 7.32973 177.842 7.33541C177.71 7.3411 177.565 7.35587 177.441 7.34791C177.317 7.33882 177.218 7.30585 177.102 7.28539C177.048 7.27516 176.982 7.26038 176.929 7.26266C176.453 7.28198 175.982 7.3013 175.511 7.32631C175.263 7.33995 175.139 7.29221 174.982 7.26266C174.858 7.23992 174.734 7.2456 174.713 7.29789C174.659 7.42293 174.849 7.47522 175.271 7.45135C175.618 7.43089 175.932 7.42749 176.205 7.50479C176.242 7.51502 176.329 7.51957 176.383 7.51729C176.722 7.50365 177.057 7.4866 177.396 7.47296C177.458 7.47068 177.524 7.47522 177.582 7.47977C178.425 7.54116 178.425 7.5423 178.71 7.52866C178.847 7.52184 178.979 7.51615 178.966 7.34336C179.227 7.15807 179.64 7.14557 180.041 7.11828C180.302 7.10123 180.413 7.15125 180.583 7.1774C180.64 7.18649 180.702 7.20468 180.756 7.2024C181.645 7.16489 182.529 7.1251 183.414 7.08304C183.563 7.07622 183.67 7.08304 183.786 7.11259C183.935 7.15011 184.1 7.17399 184.336 7.16034C184.807 7.13306 185.287 7.11601 185.766 7.09328C186.01 7.08191 186.01 7.0819 186.502 7.15238C186.556 7.16034 186.626 7.16943 186.684 7.16716C187.163 7.14783 187.639 7.12397 188.114 7.10351C188.246 7.09782 188.366 7.11374 188.469 7.14443C188.573 7.17512 188.697 7.19103 188.825 7.18535C189.304 7.16489 189.78 7.14216 190.255 7.1217C190.313 7.11942 190.383 7.12738 190.437 7.13534C190.941 7.20582 190.941 7.20581 191.173 7.19444C191.512 7.17739 191.859 7.16944 192.194 7.1467C192.52 7.12397 192.69 7.1899 192.913 7.22627C193.525 7.20013 194.141 7.17853 194.748 7.1467C194.996 7.13306 195.129 7.17057 195.294 7.20013C195.352 7.21036 195.41 7.23196 195.463 7.23082C195.67 7.22628 195.873 7.21377 196.075 7.20468C196.278 7.19559 196.484 7.18649 196.687 7.1774C196.918 7.21037 197.071 7.28766 197.402 7.26152C197.6 7.2456 197.811 7.24219 198.014 7.2331C198.216 7.22401 198.423 7.21491 198.626 7.20582C198.762 7.20013 198.902 7.19672 199.035 7.18649C199.279 7.16944 199.399 7.22514 199.572 7.25015C199.63 7.25811 199.696 7.27174 199.75 7.26947C200.159 7.25356 200.572 7.23992 200.973 7.21377C201.283 7.19331 201.494 7.22742 201.713 7.27516C201.759 7.28539 201.837 7.29107 201.895 7.2888C202.375 7.26948 202.85 7.2456 203.325 7.22513C203.453 7.21945 203.578 7.23764 203.681 7.26719C203.788 7.29789 203.908 7.31268 204.04 7.30699C204.516 7.28653 204.995 7.26379 205.471 7.24333C205.529 7.24105 205.599 7.25015 205.653 7.25924C206.116 7.32972 206.116 7.33086 206.388 7.31722C206.454 7.31381 206.525 7.31153 206.591 7.30812C206.93 7.2922 207.281 7.28653 207.612 7.25924C207.992 7.22855 208.269 7.2672 208.538 7.332C208.877 7.31836 209.224 7.3104 209.555 7.28766C209.803 7.27061 209.935 7.31381 210.1 7.34223C210.158 7.35246 210.22 7.37292 210.27 7.37064C210.749 7.35132 211.229 7.33427 211.7 7.30585C211.956 7.28994 212.068 7.34109 212.241 7.36723C212.299 7.37633 212.361 7.39225 212.415 7.38997C212.688 7.38088 212.961 7.36723 213.234 7.35473C213.552 7.33995 213.552 7.34109 213.973 7.41043C214.172 7.4434 214.37 7.41725 214.565 7.40929C214.771 7.4002 214.965 7.39338 215.131 7.43999C215.234 7.46954 215.358 7.48773 215.486 7.48318C215.759 7.47295 216.036 7.46273 216.305 7.44568C216.52 7.43203 216.706 7.44112 216.863 7.48318C216.974 7.51274 217.09 7.52753 217.227 7.52071C217.838 7.49342 218.454 7.46499 219.066 7.43885C219.12 7.43657 219.194 7.44681 219.244 7.45704C219.359 7.4775 219.471 7.50023 219.583 7.52297C219.851 7.51274 220.128 7.5082 220.393 7.49229C220.674 7.47637 220.93 7.47069 221.149 7.53321C221.195 7.54685 221.261 7.56617 221.315 7.56503C221.521 7.56048 221.724 7.54912 221.926 7.54002C222.129 7.53093 222.336 7.52184 222.538 7.51274C222.774 7.54116 222.923 7.62301 223.253 7.59686C223.452 7.58095 223.662 7.57754 223.865 7.56844C224.068 7.55935 224.274 7.54912 224.477 7.54116C224.543 7.53889 224.617 7.5332 224.675 7.53775C224.737 7.54229 224.791 7.55821 224.845 7.56958C225.01 7.60255 225.163 7.63552 225.399 7.61619C225.597 7.60028 225.808 7.59687 226.01 7.58663C226.287 7.57413 226.287 7.57413 226.746 7.64575C226.932 7.6753 227.143 7.63666 227.321 7.66167C227.441 7.67872 227.544 7.70713 227.66 7.72646C227.709 7.73441 227.788 7.73782 227.846 7.73554C228.118 7.72531 228.395 7.71509 228.664 7.69804C228.883 7.68439 229.065 7.69803 229.218 7.73896C229.33 7.76851 229.441 7.78103 229.582 7.7742C230.264 7.74237 230.946 7.71508 231.624 7.67984C231.855 7.66734 232.041 7.68667 232.169 7.72759C232.388 7.79807 232.698 7.71509 232.926 7.77193C233.066 7.80717 233.207 7.84809 233.463 7.83104C233.934 7.80149 234.414 7.78556 234.889 7.7651C235.059 7.79579 235.228 7.82649 235.402 7.85719C235.675 7.84468 235.947 7.83217 236.22 7.8208C236.423 7.81171 236.629 7.80148 236.832 7.79352C236.898 7.79125 236.968 7.7867 237.03 7.79238C237.092 7.79807 237.142 7.81285 237.2 7.82422C237.485 7.87992 237.485 7.88106 237.956 7.85832C238.159 7.84809 238.353 7.84127 238.523 7.88674C238.68 7.9288 238.866 7.93676 239.081 7.92425C239.486 7.90152 239.895 7.88447 240.308 7.86855C240.436 7.86287 240.556 7.88219 240.664 7.91175C240.825 7.95836 241.023 7.95381 241.226 7.94131C241.495 7.92539 241.759 7.90948 241.986 7.97314C242.032 7.98678 242.102 8.0061 242.152 8.00496C242.491 7.99586 242.834 7.98905 243.165 7.96745C243.495 7.94585 243.656 8.01633 243.884 8.05043C244.223 8.03565 244.566 8.02087 244.905 8.0061C244.971 8.00269 245.049 7.99246 245.107 7.99815C245.351 8.02202 245.492 8.10727 245.827 8.08113C246.021 8.06635 246.232 8.06181 246.434 8.0584C246.488 8.05726 246.558 8.07658 246.595 8.09135C246.616 8.09931 246.595 8.12091 246.571 8.13228C246.496 8.16411 246.405 8.19367 246.339 8.22664C246.331 8.23119 246.409 8.25164 246.455 8.26073C246.566 8.28119 246.695 8.27779 246.843 8.2687C246.972 8.26074 247.104 8.27665 247.195 8.31076C247.232 8.3244 247.22 8.34713 247.141 8.42216C247.141 8.47786 247.228 8.45285 247.257 8.41647C247.302 8.36418 247.215 8.34713 247.05 8.37555C246.934 8.39601 246.877 8.42557 246.905 8.44944C246.922 8.46195 247 8.47786 247.141 8.42216C247.505 8.35395 247.778 8.34145 248.05 8.32895C248.121 8.32554 248.203 8.31416 248.253 8.32099C248.431 8.34827 248.596 8.38124 248.77 8.41193C248.968 8.40511 249.154 8.38805 249.348 8.43239C249.621 8.49491 249.634 8.48923 249.898 8.47672C250.035 8.4699 250.171 8.46423 250.307 8.45854C250.444 8.45286 250.551 8.46991 250.671 8.49605C250.915 8.54948 250.936 8.54948 251.097 8.47672C251.192 8.43239 251.258 8.41761 251.378 8.43808C251.775 8.50742 251.779 8.51196 252.118 8.4915C252.399 8.47445 252.663 8.4699 252.87 8.5347C253.011 8.58017 253.056 8.56994 253.168 8.5222C253.465 8.39601 253.602 8.39828 254.16 8.48923C254.42 8.53242 254.689 8.48582 254.953 8.48014C255.177 8.47559 255.334 8.50287 255.35 8.57448C255.363 8.61882 255.4 8.65065 255.549 8.66543C255.607 8.67111 255.677 8.67907 255.735 8.6768C256.078 8.66315 256.417 8.64724 256.76 8.63132C256.933 8.62336 257.029 8.56995 256.995 8.49947C256.958 8.42444 257.024 8.39715 257.272 8.37555C257.421 8.36304 257.541 8.36533 257.661 8.38579C257.793 8.40852 257.756 8.42899 257.64 8.46991C257.363 8.56994 257.396 8.63132 257.752 8.70066C257.876 8.72454 257.975 8.74614 258.004 8.78138C258.021 8.79957 258.004 8.82344 258.041 8.83708C258.244 8.91325 258.525 8.96213 258.839 8.99851C259.141 8.96782 259.347 9.01896 259.579 9.05989C259.761 9.09172 259.976 9.06444 260.17 9.05307C260.389 9.04057 260.571 9.04966 260.728 9.09172C260.84 9.12128 260.955 9.13491 261.092 9.12923C261.365 9.11672 261.642 9.10877 261.91 9.09058C262.142 9.07467 262.315 9.09741 262.46 9.13606C262.642 9.18494 262.844 9.15197 263.035 9.15879C263.291 9.16674 263.419 9.26791 263.754 9.24063C263.952 9.22472 264.159 9.21903 264.366 9.21449C264.419 9.21335 264.485 9.23268 264.531 9.24632C264.75 9.30884 265.006 9.30543 265.287 9.28724C265.482 9.27474 265.672 9.26337 265.862 9.30657C266.176 9.37933 266.523 9.44299 266.854 9.51006C266.899 9.56235 266.866 9.62372 267.102 9.65442C267.226 9.67033 267.342 9.69421 267.437 9.72036C267.553 9.75105 267.66 9.75901 267.809 9.75105C268.077 9.73514 268.359 9.73172 268.623 9.71126C268.867 9.69307 269.02 9.73059 269.169 9.76583C269.289 9.79425 269.4 9.80789 269.545 9.78742C269.694 9.7681 269.801 9.7806 269.921 9.81129C270.091 9.85335 270.103 9.84881 270.665 9.86132C270.723 9.86245 270.793 9.8795 270.826 9.89427C270.843 9.90223 270.806 9.92498 270.777 9.93635C270.74 9.94999 270.682 9.9659 270.628 9.96931C270.016 9.99886 269.4 10.025 268.788 10.0546C268.726 10.058 268.66 10.0659 268.615 10.0773C268.565 10.0898 268.503 10.1069 268.503 10.1228C268.503 10.1341 268.586 10.1478 268.644 10.1557C268.826 10.1819 269.041 10.1421 269.218 10.1717C269.338 10.191 269.437 10.2183 269.557 10.2364C269.607 10.2444 269.685 10.2433 269.747 10.241C269.954 10.233 270.157 10.2217 270.363 10.2149C270.421 10.2137 270.487 10.2251 270.541 10.2342C270.938 10.3024 270.938 10.3024 271.281 10.2876C271.417 10.2819 271.562 10.2649 271.69 10.2717C271.814 10.2785 271.922 10.3092 272.033 10.3285C272.265 10.3695 272.484 10.4092 272.5 10.4979C272.509 10.532 272.645 10.5616 272.781 10.5638C272.914 10.5661 273.054 10.5536 273.191 10.5468C273.513 10.5332 273.513 10.5332 273.931 10.6025C274.046 10.6218 274.17 10.6241 274.319 10.6127C274.377 10.6082 274.447 10.6127 274.509 10.6184C274.712 10.6355 274.712 10.6571 274.58 10.698C274.394 10.7582 274.41 10.7639 274.931 10.8151C275.129 10.8344 275.282 10.8708 275.448 10.9026C275.716 10.9538 275.712 10.9538 275.534 11.0208C275.493 11.0356 275.456 11.0515 275.415 11.0674C275.295 11.1118 275.2 11.1595 274.952 11.1641C274.679 11.1686 274.406 11.1868 274.133 11.1993C273.869 11.2118 273.798 11.2391 273.823 11.3164C273.852 11.4096 273.906 11.4198 274.381 11.4187C274.518 11.4187 274.637 11.4278 274.741 11.4585C274.691 11.4949 274.6 11.5233 274.468 11.5301C274.129 11.5471 273.786 11.5619 273.447 11.5767C273.174 11.5892 272.901 11.6017 272.629 11.6142C272.459 11.6222 272.352 11.6813 272.397 11.7472C272.422 11.7847 272.442 11.8222 272.463 11.8598C272.509 11.9348 272.595 11.9541 272.872 11.9507C272.943 11.9496 273.009 11.9405 273.075 11.9427C273.344 11.9507 273.472 12.045 273.794 12.0257C274.063 12.0098 274.344 12.0064 274.609 11.9859C274.852 11.9678 274.989 12.0087 275.158 12.0394C275.216 12.0496 275.278 12.0712 275.328 12.0701C275.671 12.0576 276.014 12.0451 276.349 12.0235C276.506 12.0144 276.601 12.0212 276.725 12.0485C277.022 12.1144 277.031 12.111 277.473 12.0905C277.795 12.0746 277.8 12.0769 278.213 12.1462C278.329 12.1656 278.453 12.1655 278.602 12.1565C278.796 12.1451 278.998 12.1269 279.201 12.144C279.263 12.1485 279.341 12.1621 279.362 12.1769C279.375 12.1872 279.317 12.2122 279.267 12.2201C278.903 12.2792 278.478 12.269 278.081 12.2929C277.957 12.2997 277.833 12.2781 277.729 12.2474C277.622 12.2167 277.506 12.2042 277.366 12.2099C277.093 12.2224 276.816 12.2304 276.547 12.2485C276.316 12.2645 276.154 12.2383 275.993 12.2031C275.939 12.1917 275.878 12.1701 275.824 12.1712C275.212 12.194 274.596 12.2167 273.989 12.2485C273.745 12.2622 273.604 12.2258 273.439 12.1951C273.381 12.1849 273.323 12.1633 273.269 12.1644C273.063 12.169 272.86 12.1815 272.653 12.1906C271.901 12.2247 271.153 12.2588 270.401 12.2906C270.351 12.2929 270.289 12.269 270.231 12.2588C270.119 12.2383 270.004 12.219 269.888 12.1997C269.681 12.2087 269.479 12.2201 269.272 12.2269C269.123 12.2315 268.991 12.2474 268.97 12.2906C268.958 12.319 269.094 12.3452 269.239 12.3429C269.38 12.3406 269.52 12.327 269.636 12.3418C270.21 12.4145 270.21 12.4156 270.57 12.4009C270.884 12.3872 270.851 12.3759 271.128 12.4384C271.248 12.4657 271.355 12.4816 271.492 12.4748C271.831 12.4588 272.174 12.4429 272.517 12.4293C272.571 12.427 272.641 12.4384 272.695 12.4475C273.1 12.5157 273.1 12.518 273.435 12.5009C273.873 12.4804 273.889 12.4748 274.183 12.5441C274.385 12.5918 274.571 12.5589 274.766 12.5566C274.989 12.6009 275.233 12.6407 275.435 12.6907C275.675 12.7499 275.927 12.7396 276.2 12.7226C276.402 12.7101 276.601 12.7055 276.766 12.7521C276.923 12.7953 277.113 12.7999 277.328 12.7885C277.523 12.7783 277.721 12.7567 277.924 12.7817C277.977 12.7885 278.06 12.8056 278.056 12.8158C278.052 12.8317 277.998 12.8544 277.944 12.8613C277.564 12.9079 277.147 12.9067 276.746 12.9283C276.692 12.9317 276.622 12.9192 276.568 12.9101C276.452 12.8897 276.34 12.8658 276.229 12.8442C276.026 12.851 275.82 12.8533 275.621 12.8669C275.468 12.8772 275.353 12.876 275.241 12.8488C275.138 12.8238 275.026 12.7931 274.902 12.7851C274.778 12.7771 274.633 12.7942 274.497 12.801C274.361 12.8078 274.203 12.8044 274.096 12.8226C273.989 12.8408 273.922 12.8806 273.852 12.9124C273.774 12.9477 273.666 12.959 273.509 12.9624C273.364 12.9658 273.249 12.9613 273.141 12.9295C273.096 12.9158 273.034 12.9056 272.972 12.8965C272.914 12.8885 272.848 12.876 272.794 12.8783C272.178 12.9044 271.566 12.9329 270.95 12.9602C270.644 12.9738 270.649 12.9738 270.012 12.9067C269.954 12.901 269.884 12.8931 269.826 12.8954C269.483 12.909 269.144 12.9249 268.801 12.9408C268.454 12.9567 268.458 12.9545 267.867 12.8829C267.759 12.8692 267.602 12.8874 267.474 12.8851C267.205 12.8794 267.073 12.784 266.759 12.8021C266.49 12.8181 266.209 12.8215 265.94 12.8419C265.697 12.8601 265.556 12.8203 265.391 12.7896C265.333 12.7794 265.271 12.7567 265.221 12.759C264.605 12.784 263.994 12.8124 263.175 12.8158C262.973 12.8158 263.063 12.8397 263.196 12.8476C263.386 12.8601 263.448 12.8363 263.345 12.7908C263.27 12.759 263.163 12.743 263.076 12.751C263.03 12.7555 262.973 12.7771 263.175 12.8158C263.39 12.859 263.378 12.8829 263.415 12.8965C263.506 12.9295 263.634 12.9431 263.766 12.9386C263.973 12.9306 264.175 12.9192 264.382 12.9124C264.44 12.9101 264.51 12.9181 264.564 12.9272C265.019 12.9977 265.023 13.0022 265.506 12.9749C265.659 12.967 265.771 12.967 265.891 12.9886C266.056 13.0181 266.176 13.0681 266.428 13.0522C266.763 13.0306 267.106 13.0181 267.449 13.0056C267.503 13.0034 267.561 13.0238 267.623 13.0329C267.792 13.0602 267.916 13.1114 268.168 13.0898C268.363 13.0727 268.574 13.0681 268.78 13.0647C268.834 13.0636 268.917 13.0818 268.941 13.0966C268.991 13.1227 268.929 13.1534 268.788 13.175C268.731 13.1841 268.652 13.1818 268.586 13.1852C268.313 13.1977 268.04 13.2114 267.767 13.2216C267.623 13.2273 267.486 13.2444 267.47 13.2864C267.457 13.3148 267.606 13.3398 267.747 13.3376C267.953 13.3342 268.16 13.3251 268.359 13.3103C268.71 13.2853 269.016 13.2921 269.301 13.3637C269.504 13.4137 269.491 13.3955 269.706 13.5433C269.76 13.5808 269.921 13.5842 270.062 13.582C270.401 13.5763 270.558 13.5933 270.529 13.6286C270.491 13.6718 270.372 13.6854 270.219 13.6911C269.946 13.7002 269.673 13.715 269.4 13.7275C269.334 13.7309 269.26 13.7377 269.198 13.7354C269.136 13.7332 269.078 13.7195 269.024 13.7093C268.908 13.6877 268.809 13.6547 268.685 13.6468C268.561 13.6388 268.416 13.6559 268.28 13.6627C268.144 13.6684 267.999 13.6854 267.875 13.6775C267.751 13.6695 267.648 13.6354 267.536 13.6149C267.482 13.6047 267.416 13.5888 267.362 13.5899C267.09 13.599 266.817 13.6138 266.544 13.6252C266.209 13.6399 266.209 13.64 265.804 13.5695C265.688 13.549 265.568 13.5501 265.416 13.5592C265.085 13.5774 265.081 13.574 264.477 13.5081C264.419 13.5013 264.349 13.4933 264.291 13.4967C263.675 13.5229 263.063 13.5513 262.452 13.5786C261.927 13.6024 261.927 13.6024 261.637 13.7161C261.422 13.8002 261.418 13.8002 261.629 13.8389C261.799 13.8707 261.952 13.9173 262.138 13.9344C262.311 13.9503 262.526 13.8991 262.716 13.9514C262.811 13.9776 262.935 14.006 263.055 14.0105C263.245 14.0162 263.448 13.9833 263.63 14.0333C263.721 14.0583 263.857 14.0844 263.973 14.0856C264.175 14.0878 264.382 14.0696 264.585 14.0617C264.647 14.0594 264.717 14.0594 264.775 14.0651C264.837 14.0719 264.891 14.0856 264.944 14.0969C265.11 14.1356 265.287 14.1538 265.502 14.1344C265.854 14.1026 266.168 14.1185 266.441 14.1913C266.478 14.2015 266.569 14.2027 266.627 14.1981C266.775 14.1867 266.904 14.1856 267.015 14.2072C267.061 14.2163 267.127 14.2322 267.119 14.2424C267.106 14.2595 267.056 14.2822 267.003 14.2879C266.614 14.3266 266.197 14.3311 265.796 14.3516C265.742 14.3538 265.676 14.3391 265.622 14.3288C265.506 14.3084 265.407 14.2743 265.283 14.2663C265.159 14.2584 265.015 14.2731 264.878 14.2788C264.742 14.2845 264.597 14.3016 264.473 14.2947C264.349 14.2868 264.233 14.2584 264.134 14.2333C264.018 14.2049 263.907 14.2015 263.754 14.2129C263.555 14.2277 263.349 14.2299 263.146 14.2379C263.035 14.2163 262.923 14.1924 262.807 14.172C262.753 14.1617 262.687 14.1492 262.63 14.1504C262.357 14.1595 262.084 14.1731 261.811 14.1856C261.538 14.1981 261.538 14.1981 261.075 14.1276C261.022 14.1197 260.951 14.1106 260.893 14.1129C260.55 14.1265 260.211 14.1435 259.868 14.1572C259.736 14.1629 259.616 14.1469 259.509 14.1163C259.405 14.0856 259.281 14.0685 259.153 14.0742C258.608 14.0981 258.062 14.1208 257.516 14.1492C257.297 14.1606 257.111 14.1504 256.962 14.1094C256.789 14.0628 256.594 14.0742 256.392 14.0833C255.933 14.106 255.929 14.1049 255.635 14.0469C255.578 14.0355 255.52 14.0139 255.466 14.0151C254.991 14.0321 254.511 14.048 254.04 14.0753C253.792 14.0901 253.66 14.0503 253.494 14.0208C253.436 14.0105 253.374 13.9889 253.325 13.9912C252.982 14.0037 252.639 14.0151 252.304 14.0378C251.969 14.0606 251.841 13.9548 251.589 13.956C251.246 13.9571 250.907 13.9833 250.568 13.9992C250.295 14.0117 250.022 14.0242 249.749 14.0367C249.476 14.0492 249.204 14.0594 248.931 14.0742C248.786 14.0821 248.679 14.0719 248.559 14.0435C248.406 14.006 248.224 13.9764 248.059 13.9423C247.807 13.8935 247.807 13.8934 247.501 13.9071C247.435 13.9105 247.364 13.9128 247.298 13.9162C246.798 13.9412 246.798 13.9389 246.161 13.8673C246.132 13.8639 246.058 13.8764 246.029 13.8855C245.942 13.9151 245.864 13.9469 245.785 13.9776C245.674 13.9594 245.537 13.9492 245.463 13.923C245.252 13.8491 244.921 13.9503 244.706 13.8775C244.628 13.8502 244.491 13.8264 244.367 13.8196C244.239 13.8127 244.095 13.8287 243.962 13.8355C243.619 13.8525 243.619 13.8514 243.326 13.9526C243.177 14.0026 242.962 13.9935 242.768 14.0048C242.565 14.0174 242.371 14.0242 242.201 13.9776C242.048 13.9355 241.863 13.9253 241.643 13.9389C241.375 13.956 241.098 13.9662 240.825 13.9764C240.767 13.9787 240.697 13.973 240.639 13.9662C240.006 13.8991 240.006 13.898 239.701 13.9128C239.564 13.9196 239.424 13.9219 239.291 13.9321C239.068 13.9503 238.899 13.9264 238.738 13.89C238.684 13.8787 238.622 13.8571 238.568 13.8582C238.295 13.8639 238.027 13.8741 237.758 13.8844C237.551 13.8923 237.345 13.8969 237.146 13.9128C236.815 13.9389 236.654 13.865 236.427 13.8309C236.088 13.8457 235.745 13.8559 235.406 13.8764C235.249 13.8855 235.146 13.8821 235.026 13.8548C234.873 13.8207 234.732 13.782 234.484 13.7991C234.153 13.8218 233.806 13.8298 233.467 13.8434C233.24 13.8082 233.075 13.7366 232.748 13.7627C232.55 13.7786 232.339 13.782 232.136 13.7911C231.863 13.8036 231.591 13.815 231.318 13.8287C231.024 13.8423 231.028 13.8389 230.578 13.7718C230.318 13.732 230.049 13.7764 229.784 13.7832C229.578 13.7889 229.474 13.8412 229.524 13.9082C229.573 13.9753 229.462 14.0276 229.272 14.0367C228.796 14.0583 228.317 14.081 227.841 14.1003C227.784 14.1026 227.713 14.0947 227.66 14.0867C227.151 14.0151 227.151 14.0162 226.924 14.0265C226.585 14.0435 226.238 14.0526 225.903 14.0742C225.671 14.089 225.502 14.0651 225.353 14.0265C225.237 13.9969 225.13 13.9901 224.981 13.9969C223.344 14.0731 221.707 14.1435 220.075 14.222C219.831 14.2333 219.69 14.2004 219.525 14.1697C219.467 14.1595 219.413 14.1379 219.355 14.1379C219.219 14.1379 219.082 14.1481 218.946 14.1549C218.334 14.1822 217.723 14.2152 217.107 14.2356C216.846 14.2447 216.776 14.297 216.664 14.3402C216.578 14.3732 216.478 14.3868 216.325 14.3914C216.177 14.3959 216.069 14.3902 215.953 14.3607C215.805 14.322 215.635 14.2981 215.404 14.314C215.135 14.3322 214.862 14.3402 214.585 14.3527C214.445 14.3584 214.337 14.3788 214.292 14.4198C214.283 14.4266 214.37 14.4437 214.42 14.4539C214.585 14.488 214.742 14.5278 214.928 14.5516C215.118 14.5755 215.325 14.5482 215.523 14.5414C215.594 14.5391 215.66 14.5323 215.726 14.5335C215.788 14.5346 215.862 14.5403 215.908 14.5505C216.123 14.6017 216.35 14.6369 216.648 14.6062C216.904 14.621 217.036 14.7153 217.363 14.6903C217.561 14.6755 217.768 14.6687 217.975 14.663C218.028 14.6619 218.086 14.6824 218.144 14.6926C218.31 14.721 218.442 14.7665 218.69 14.7472C218.954 14.7267 219.235 14.7233 219.504 14.7074C219.653 14.6983 219.76 14.7062 219.876 14.7358C220.025 14.7733 220.194 14.8017 220.426 14.7835C220.624 14.7676 220.835 14.7642 221.038 14.754C221.302 14.7415 221.302 14.7426 221.773 14.8131C221.827 14.8211 221.897 14.8301 221.955 14.8279C222.298 14.8142 222.637 14.7972 222.98 14.7835C223.113 14.7779 223.241 14.7926 223.332 14.8256C223.369 14.8392 223.357 14.862 223.369 14.8813C222.687 14.912 222.005 14.9381 221.327 14.9757C221.071 14.9904 220.955 14.9438 220.785 14.9177C220.728 14.9086 220.666 14.8893 220.612 14.8915C220.132 14.9109 219.657 14.9313 219.182 14.9563C219.033 14.9643 218.921 14.9597 218.81 14.9268C218.524 14.8392 218.177 14.887 217.855 14.8995C217.607 14.9086 217.528 14.9438 217.557 15.0189C217.594 15.1075 217.743 15.1348 218.123 15.1189C218.26 15.1132 218.396 15.1052 218.533 15.1007C218.665 15.0962 218.785 15.1109 218.892 15.1416C218.996 15.1723 219.12 15.1882 219.248 15.1837C219.521 15.1735 219.798 15.1632 220.062 15.1462C220.281 15.1325 220.463 15.1439 220.616 15.186C220.785 15.2326 220.984 15.2223 221.182 15.2121C221.645 15.1894 221.649 15.1905 221.939 15.2473C221.997 15.2587 222.055 15.2803 222.108 15.2792C222.584 15.2621 223.063 15.2473 223.53 15.2201C223.774 15.2064 223.915 15.2428 224.076 15.2724C224.134 15.2826 224.192 15.3053 224.245 15.303C224.588 15.2905 224.931 15.278 225.266 15.2564C225.423 15.2462 225.518 15.253 225.647 15.2803C225.952 15.3474 225.961 15.3451 226.395 15.3235C226.527 15.3167 226.672 15.3042 226.796 15.3133C226.92 15.3224 227.019 15.3553 227.135 15.3758C227.188 15.3849 227.254 15.3974 227.312 15.3951C227.585 15.386 227.858 15.3724 228.131 15.3599C228.387 15.3474 228.387 15.3485 228.867 15.419C229.061 15.4486 229.263 15.4235 229.458 15.4145C229.669 15.4042 229.859 15.4042 230.02 15.4486C230.181 15.4929 230.375 15.4906 230.582 15.4815C230.776 15.4724 230.975 15.4474 231.173 15.4781C231.628 15.5486 231.628 15.5497 231.909 15.5361C232.318 15.5168 232.723 15.4986 233.137 15.4815C233.19 15.4792 233.261 15.4929 233.314 15.502C233.43 15.5224 233.529 15.5565 233.653 15.5645C233.777 15.5736 233.922 15.56 234.054 15.5531C234.48 15.5315 234.509 15.5236 234.794 15.5986C235.034 15.66 235.332 15.5713 235.555 15.6418C235.683 15.6816 235.856 15.7134 236.096 15.6941C236.295 15.6782 236.501 15.6736 236.708 15.6645C237.034 15.6498 237.034 15.6509 237.448 15.7191C237.502 15.7282 237.572 15.7396 237.626 15.7373C237.898 15.7282 238.175 15.7202 238.44 15.6998C238.75 15.6759 238.948 15.7191 239.18 15.7612C239.362 15.7941 239.577 15.7668 239.771 15.7555C239.982 15.7441 240.172 15.7475 240.329 15.7919C240.494 15.8373 240.689 15.8316 240.895 15.8225C241.09 15.8146 241.288 15.7884 241.486 15.8203C241.912 15.8908 241.912 15.8908 242.222 15.8771C242.495 15.8646 242.768 15.851 243.041 15.8419C243.094 15.8396 243.16 15.8544 243.214 15.8646C243.33 15.8851 243.429 15.9192 243.553 15.9271C243.677 15.9351 243.822 15.9203 243.958 15.9146C244.095 15.9089 244.239 15.8919 244.363 15.8987C244.487 15.9055 244.603 15.934 244.702 15.959C244.818 15.9885 244.925 15.9919 245.083 15.9806C245.281 15.9658 245.488 15.9624 245.69 15.9544C245.802 15.976 245.917 15.9976 246.025 16.0215C246.137 16.0465 246.256 16.0442 246.409 16.0363C246.918 16.009 246.922 16.0124 247.348 16.0829C247.542 16.1147 247.745 16.0886 247.939 16.0806C248.146 16.0715 248.34 16.067 248.501 16.1124C248.658 16.1556 248.852 16.1613 249.059 16.1477C249.191 16.1386 249.332 16.1329 249.468 16.1295C249.53 16.1283 249.605 16.1329 249.65 16.142C249.869 16.1897 250.084 16.2329 250.386 16.2022C250.65 16.2113 250.783 16.3045 251.101 16.2864C251.37 16.2704 251.651 16.267 251.915 16.2466C252.159 16.2284 252.333 16.2602 252.457 16.3C252.68 16.3705 252.994 16.275 253.217 16.3443C253.346 16.3841 253.511 16.416 253.759 16.3989C254.032 16.3807 254.118 16.4046 254.197 16.4762C254.242 16.5171 254.234 16.5501 254.152 16.5819C254.069 16.6149 253.978 16.6092 253.846 16.5717C253.693 16.5296 253.511 16.5217 253.292 16.5308C253.077 16.5398 252.945 16.4807 252.767 16.458C252.589 16.4341 252.378 16.4739 252.192 16.4432C251.754 16.3716 251.754 16.3716 251.457 16.3853C251.254 16.3944 251.043 16.3989 250.845 16.4148C250.609 16.4341 250.456 16.3989 250.295 16.3671C250.237 16.3557 250.179 16.3341 250.13 16.3352C249.654 16.3523 249.175 16.3682 248.703 16.3966C248.455 16.4114 248.323 16.3705 248.158 16.3421C248.1 16.3318 248.038 16.3114 247.988 16.3136C247.579 16.3296 247.174 16.35 246.765 16.3693C246.686 16.4 246.6 16.4296 246.525 16.4626C246.447 16.4967 246.339 16.5114 246.182 16.5103C245.922 16.5103 245.665 16.558 245.405 16.4978C245.136 16.4364 245.116 16.4398 244.855 16.4546C244.525 16.4739 244.173 16.4694 243.863 16.5137C243.809 16.5217 243.752 16.5433 243.752 16.5592C243.747 16.5694 243.834 16.5842 243.888 16.5933C244.07 16.6206 244.281 16.5808 244.462 16.6092C244.582 16.6274 244.682 16.6547 244.801 16.674C244.851 16.6819 244.925 16.6808 244.992 16.6797C245.062 16.6785 245.128 16.6706 245.194 16.6717C245.256 16.6729 245.322 16.6797 245.372 16.6899C245.599 16.7331 245.839 16.7729 246.042 16.8241C246.24 16.8741 246.426 16.84 246.624 16.8377C247.418 16.9173 247.418 16.9184 247.951 16.8934C248.084 16.8877 248.22 16.8809 248.356 16.882C248.414 16.882 248.468 16.9025 248.526 16.9138C248.691 16.9479 248.848 16.9786 249.08 16.9605C249.278 16.9445 249.489 16.9411 249.691 16.9309C249.964 16.9184 249.964 16.9184 250.427 16.99C250.543 17.0082 250.667 17.0059 250.816 16.9968C250.944 16.9889 251.076 17.0059 251.167 17.0389C251.204 17.0525 251.192 17.0753 251.204 17.0946C250.795 17.1128 250.382 17.1253 249.985 17.1526C249.729 17.1696 249.613 17.1207 249.443 17.0946C249.386 17.0855 249.324 17.0662 249.27 17.0685C248.865 17.0855 248.46 17.1048 248.055 17.1276C248.005 17.1298 247.943 17.156 247.939 17.1719C247.931 17.2015 248.034 17.2299 248.183 17.2287C248.381 17.2276 248.575 17.2083 248.753 17.2549C248.902 17.2958 249.088 17.314 249.307 17.2958C249.439 17.2856 249.58 17.2856 249.712 17.2765C250.064 17.2492 250.382 17.2549 250.646 17.3322C250.849 17.3526 251.047 17.3333 251.242 17.3231C251.386 17.3151 251.527 17.3072 251.63 17.3288C251.849 17.3742 252.064 17.4197 252.366 17.389C252.692 17.4209 252.94 17.4879 253.213 17.5425C253.341 17.5686 253.441 17.5834 253.589 17.5664C253.651 17.5595 253.726 17.5595 253.792 17.5561C253.928 17.5504 254.073 17.5334 254.197 17.5402C254.321 17.5482 254.424 17.5811 254.536 17.6016C254.59 17.6118 254.652 17.6289 254.705 17.6277C254.912 17.6221 255.115 17.6107 255.317 17.6016C255.52 17.5936 255.722 17.5857 255.925 17.5777C256.094 17.6073 256.268 17.6368 256.437 17.6664C256.71 17.6539 256.983 17.6414 257.252 17.63C257.554 17.6164 257.553 17.6175 257.987 17.688C258.182 17.7198 258.388 17.6994 258.574 17.6846C258.884 17.6607 259.091 17.7039 259.31 17.7494C259.356 17.7585 259.438 17.7642 259.492 17.7596C259.707 17.7437 259.893 17.7562 260.05 17.7983C260.162 17.8278 260.273 17.8415 260.41 17.8358C260.885 17.8142 261.36 17.7914 261.836 17.7721C261.894 17.7698 261.96 17.7801 262.014 17.7892C262.435 17.8585 262.439 17.8619 262.749 17.8437C263.026 17.8278 263.283 17.821 263.502 17.8835C263.547 17.8972 263.617 17.9165 263.667 17.9154C264.006 17.904 264.349 17.8915 264.684 17.8722C264.837 17.8631 264.944 17.8665 265.064 17.8926C265.217 17.9256 265.354 17.9654 265.606 17.9506C266.304 17.9085 266.308 17.9153 267.135 17.9938C267.193 17.9995 267.271 17.9904 267.338 17.9858C267.478 17.9745 267.581 17.9904 267.705 18.0165C267.982 18.0756 267.991 18.0722 268.255 18.0597C268.458 18.0495 268.669 18.0472 268.867 18.0302C269.173 18.0052 269.375 18.0495 269.603 18.0916C269.785 18.1245 269.995 18.0972 270.19 18.087C270.401 18.0756 270.591 18.079 270.748 18.1222C270.855 18.1518 270.971 18.1677 271.107 18.162C271.583 18.1416 272.058 18.1188 272.533 18.0984C272.591 18.0961 272.662 18.1052 272.715 18.1131C273.187 18.1836 273.187 18.187 273.654 18.1609C273.802 18.1529 273.926 18.1507 274.038 18.1745C274.146 18.1973 274.261 18.2189 274.373 18.2405C274.575 18.2325 274.782 18.2302 274.981 18.2166C275.133 18.2064 275.241 18.2109 275.361 18.2348C275.518 18.2655 275.65 18.3189 275.898 18.2928C276.026 18.2802 276.175 18.2837 276.303 18.2723C276.456 18.2575 276.56 18.2666 276.679 18.2962C276.828 18.3314 276.981 18.3678 277.221 18.3496C277.485 18.3291 277.767 18.3257 278.035 18.3098C278.184 18.3007 278.287 18.3098 278.407 18.3394C278.556 18.3769 278.726 18.4008 278.957 18.386C279.428 18.3576 279.432 18.3632 279.891 18.4348C280.007 18.453 280.131 18.4508 280.28 18.4417C280.408 18.4337 280.54 18.4508 280.631 18.4837C280.718 18.5201 280.71 18.5428 280.718 18.5622ZM243.884 8.30962C243.747 8.3153 243.611 8.32212 243.413 8.22322C243.4 8.20617 243.408 8.18572 243.38 8.17094C243.313 8.14024 243.21 8.11865 243.086 8.11524C242.863 8.11069 242.594 8.14933 242.598 8.17889C242.602 8.2039 242.673 8.22549 242.809 8.24595C242.867 8.25391 242.912 8.26756 242.966 8.27665C243.123 8.3028 243.247 8.35396 243.475 8.32781C243.454 8.29257 243.433 8.25733 243.475 8.32781C243.454 8.37101 243.516 8.4017 243.665 8.41421C243.706 8.41762 243.768 8.41534 243.801 8.40852C243.929 8.38351 243.95 8.34941 243.855 8.25961C243.838 8.27439 243.851 8.30052 243.888 8.30734C243.925 8.31416 244.016 8.30849 244.062 8.30053C244.177 8.27893 244.235 8.25051 244.206 8.22664C244.19 8.21413 244.111 8.19822 244.062 8.19822C243.975 8.19822 243.896 8.22323 243.884 8.30962ZM277.308 21.4928C277.006 21.5144 276.659 21.5064 276.357 21.5507C276.303 21.5587 276.25 21.5792 276.245 21.5951C276.241 21.6053 276.324 21.6201 276.374 21.6281C276.485 21.6462 276.609 21.6406 276.754 21.6349C276.973 21.6269 277.101 21.6792 277.271 21.7053C277.324 21.7133 277.395 21.719 277.452 21.7167C277.787 21.7031 278.118 21.6883 278.453 21.6724C278.511 21.669 278.573 21.661 278.622 21.6508C278.788 21.6178 278.771 21.5962 278.61 21.5712C278.432 21.5439 278.292 21.4985 278.11 21.4769C277.849 21.4462 277.585 21.4871 277.308 21.4928ZM253.833 22.3226C253.631 22.3317 253.432 22.3408 253.23 22.3499C253.164 22.3533 253.093 22.3544 253.031 22.359C252.903 22.3669 252.808 22.3908 252.746 22.4283C252.841 22.4579 252.957 22.4749 253.085 22.4715C253.288 22.4647 253.486 22.4499 253.689 22.4465C253.908 22.442 254.036 22.4931 254.205 22.5193C254.259 22.5272 254.325 22.5284 254.387 22.5295C254.693 22.5341 254.879 22.4749 254.821 22.392C254.78 22.3272 254.623 22.2885 254.433 22.2965C254.234 22.3044 254.032 22.3135 253.833 22.3226ZM278.721 19.8126C278.771 19.7933 278.825 19.7797 278.85 19.7626C278.924 19.7046 278.895 19.6614 278.759 19.616C278.593 19.5603 278.391 19.5978 278.205 19.6035C278.159 19.6046 278.11 19.6285 278.085 19.6432C278.068 19.6535 278.068 19.6751 278.093 19.6808C278.296 19.7262 278.511 19.7683 278.721 19.8126ZM242.863 16.4546C242.664 16.4637 242.462 16.4705 242.263 16.483C242.214 16.4864 242.168 16.508 242.139 16.5228C242.086 16.5501 242.144 16.5876 242.313 16.591C242.507 16.5956 242.71 16.5762 242.912 16.5671C243.169 16.5558 243.322 16.5137 243.227 16.4773C243.136 16.4421 243.012 16.4353 242.863 16.4546ZM25.2766 14.0253C25.4089 14.0196 25.5453 14.0151 25.6776 14.0071C25.8016 13.9992 25.8967 13.9742 25.9587 13.9366C25.8554 13.9071 25.7396 13.8912 25.6115 13.8946C25.4089 13.9014 25.2105 13.9105 25.0121 13.9219C24.8881 13.9287 24.7683 13.9537 24.7394 13.9923C24.7104 14.0219 24.9873 14.039 25.2766 14.0253ZM225.382 13.8502C225.436 13.8605 225.489 13.8809 225.543 13.8809C225.675 13.8809 225.812 13.8741 225.936 13.8628C225.99 13.8582 226.031 13.8377 226.056 13.8218C226.072 13.8116 226.068 13.7934 226.043 13.7843C225.924 13.7298 225.444 13.7491 225.365 13.8116C225.357 13.823 225.378 13.8377 225.382 13.8502ZM212.341 7.62528C212.353 7.64347 212.357 7.66166 212.374 7.67984C212.407 7.71395 212.498 7.73896 212.63 7.75601C212.733 7.72759 212.787 7.69577 212.783 7.66167C212.779 7.64348 212.766 7.62528 212.75 7.60709C212.717 7.57299 212.626 7.54799 212.494 7.53093C212.39 7.55822 212.341 7.59004 212.341 7.62528ZM288.274 22.5204C288.237 22.5352 288.2 22.55 288.158 22.5636C288.27 22.5966 288.373 22.6068 288.452 22.5886C288.501 22.5773 288.53 22.5602 288.568 22.5454C288.456 22.5125 288.357 22.5034 288.274 22.5204ZM285.703 22.675C285.757 22.6852 285.806 22.6989 285.864 22.7057C285.959 22.7171 286.046 22.6977 286.112 22.6568C286.058 22.6466 286.009 22.633 285.951 22.6261C285.856 22.6148 285.769 22.6341 285.703 22.675ZM287.332 22.467C287.303 22.4943 287.361 22.517 287.513 22.5363C287.551 22.5216 287.6 22.5079 287.625 22.492C287.666 22.4659 287.596 22.442 287.447 22.4238C287.406 22.4374 287.369 22.4522 287.332 22.467ZM278.606 21.2415C278.577 21.2688 278.635 21.2916 278.788 21.3109C278.825 21.2961 278.874 21.2825 278.899 21.2666C278.94 21.2404 278.87 21.2165 278.721 21.1984C278.68 21.212 278.643 21.2268 278.606 21.2415ZM266.718 13.1977C266.68 13.2125 266.643 13.2273 266.602 13.2409C266.713 13.2739 266.817 13.2841 266.895 13.2659C266.945 13.2546 266.974 13.2375 267.011 13.2227C266.899 13.1898 266.8 13.1807 266.718 13.1977ZM255.33 8.93029C255.429 8.93825 255.512 8.92234 255.582 8.88028C255.528 8.87005 255.478 8.85641 255.421 8.84959C255.325 8.83822 255.239 8.85755 255.173 8.89847C255.226 8.90984 255.28 8.92006 255.33 8.93029ZM249.282 8.66315C249.245 8.67793 249.208 8.69271 249.167 8.70635C249.278 8.73932 249.381 8.74955 249.46 8.73136C249.51 8.71999 249.539 8.70294 249.576 8.68816C249.464 8.65519 249.365 8.64724 249.282 8.66315ZM208.273 7.62414C208.236 7.63892 208.199 7.6537 208.158 7.66734C208.269 7.70031 208.372 7.71053 208.451 7.69235C208.501 7.68098 208.53 7.66393 208.567 7.64915C208.455 7.61618 208.356 7.60823 208.273 7.62414ZM4.07977 16.8729C4.02603 16.8627 3.97234 16.8525 3.92274 16.8411C3.80287 16.8718 3.76568 16.9002 3.83181 16.9218C3.87315 16.9355 3.9351 16.9434 3.98884 16.9536C4.11285 16.923 4.14177 16.8957 4.07977 16.8729Z" fill="#FFE492"/>
<path d="M23.6385 5.65201C23.1631 5.67361 22.6919 5.70089 22.2166 5.71453C21.9644 5.72135 21.8735 5.77023 21.7702 5.8157C21.6875 5.85208 21.5924 5.86344 21.4395 5.87026C20.1498 5.92597 18.8643 5.98508 17.5787 6.04306C17.4175 6.02828 17.339 6.00441 17.3762 5.97599C17.3968 5.95894 17.4465 5.93507 17.4961 5.93279C18.3765 5.89073 19.2528 5.84753 20.1374 5.81456C20.3895 5.80547 20.4598 5.75545 20.588 5.71453C20.6293 5.70089 20.6624 5.68042 20.7161 5.67247C20.7699 5.66337 20.8484 5.66451 20.9187 5.66224C22.3406 5.59744 23.7626 5.53379 25.1845 5.46899C25.3457 5.48377 25.4243 5.50764 25.3871 5.53606C25.3664 5.55311 25.3168 5.57698 25.2672 5.57926C24.7215 5.60313 24.18 5.627 23.6385 5.65201Z" fill="#FFE492"/>
<path d="M283.21 11.7055C282.996 11.7191 282.723 11.7385 282.5 11.6725C282.392 11.6407 282.276 11.6305 282.136 11.6373C281.933 11.6487 281.727 11.6578 281.52 11.6646C281.466 11.6657 281.396 11.6532 281.342 11.643C281.226 11.6225 281.127 11.5884 281.003 11.5793C280.879 11.5702 280.73 11.5952 280.602 11.5895C280.433 11.5816 280.362 11.5509 280.408 11.5225C280.433 11.5066 280.482 11.4838 280.536 11.4804C281.301 11.4384 281.305 11.4384 281.52 11.4793C281.685 11.5111 281.838 11.5463 282.074 11.527C282.272 11.5111 282.483 11.5077 282.686 11.4975C282.967 11.4838 282.967 11.485 283.421 11.5566C283.537 11.5748 283.661 11.5736 283.81 11.5634C283.938 11.5554 284.062 11.5736 284.165 11.6043C284.099 11.643 284.004 11.668 283.876 11.6748C283.669 11.6862 283.467 11.6941 283.21 11.7055Z" fill="#FFE492"/>
<path d="M276.469 11.3552C276.989 11.3313 277.514 11.3109 278.035 11.2836C278.25 11.2722 278.42 11.2847 278.569 11.3234C278.73 11.3654 278.912 11.362 279.11 11.3541C279.234 11.3495 279.354 11.3677 279.437 11.3995C279.47 11.412 279.461 11.4348 279.474 11.4529C279.019 11.4734 278.56 11.495 278.101 11.5132C278.048 11.5155 277.982 11.5041 277.932 11.495C277.82 11.4757 277.725 11.4416 277.605 11.4348C277.349 11.4188 277.093 11.4495 276.832 11.4552C276.708 11.4575 276.589 11.4404 276.506 11.4098C276.473 11.395 276.481 11.3734 276.469 11.3552Z" fill="#FFE492"/>
<path d="M87.1619 1.58145C87.7034 1.55644 88.2448 1.53258 88.7863 1.50757C88.9475 1.52348 89.0219 1.54621 88.9889 1.57463C88.9682 1.59169 88.9186 1.61556 88.869 1.61783C87.786 1.66899 86.703 1.71786 85.6242 1.76674C85.463 1.75083 85.3886 1.7281 85.4216 1.69968C85.4423 1.68262 85.4919 1.65875 85.5415 1.65648C86.0789 1.63033 86.6204 1.60646 87.1619 1.58145Z" fill="#FFE492"/>
<path d="M3.86965 7.89822C3.62577 7.90049 3.36954 7.94255 3.09673 7.91072C3.04299 7.90504 2.96857 7.88684 2.9727 7.87661C2.98097 7.85956 3.03058 7.83796 3.08431 7.83114C3.31993 7.80272 3.61344 7.79931 3.73331 7.71974C3.79118 7.67881 3.89865 7.66518 4.04333 7.65722C4.19627 7.64813 4.30371 7.65153 4.42358 7.6754C4.58066 7.70609 4.71295 7.76293 4.96096 7.73338C4.97336 7.75157 5.00223 7.77203 4.98982 7.78908C4.97742 7.80613 4.92378 7.82205 4.87417 7.83455C4.82871 7.84592 4.76664 7.85615 4.70877 7.85956C4.43596 7.8732 4.16313 7.88458 3.86965 7.89822Z" fill="#FFE492"/>
<path d="M219.523 7.66984C219.726 7.66075 219.937 7.6562 220.135 7.64029C220.292 7.62778 220.391 7.63573 220.515 7.66302C220.726 7.71076 220.738 7.70622 221.255 7.71304C221.313 7.71418 221.383 7.73122 221.416 7.746C221.437 7.75396 221.408 7.77557 221.383 7.78693C221.346 7.80171 221.292 7.82103 221.243 7.82103C220.916 7.82444 220.586 7.89152 220.267 7.81422C220.106 7.77557 219.928 7.75737 219.709 7.77442C219.577 7.78465 219.436 7.7892 219.3 7.79375C219.168 7.7983 219.031 7.78579 218.949 7.75169C218.829 7.70167 218.899 7.68235 219.114 7.68576C219.25 7.68803 219.387 7.67553 219.523 7.66984Z" fill="#FFE492"/>
<path d="M294.085 15.5056C294.345 15.4942 294.606 15.4806 294.87 15.4715C294.924 15.4692 294.99 15.4817 295.04 15.4897C295.238 15.5238 295.209 15.5817 295.217 15.6329C295.222 15.6863 294.763 15.7295 294.568 15.6931C294.353 15.6522 294.159 15.6056 293.862 15.6306C293.746 15.6397 293.609 15.6192 293.535 15.5863C293.423 15.5385 293.485 15.5192 293.696 15.5226C293.82 15.5249 293.953 15.5124 294.085 15.5056Z" fill="#FFE492"/>
<path d="M162.247 0.0329822C162.516 0.0204777 162.785 0.00116201 163.053 2.52383e-05C163.211 -0.00111153 163.289 0.0363948 163.252 0.0636773C163.231 0.0807289 163.182 0.104602 163.132 0.106875C162.595 0.134158 162.057 0.156897 161.52 0.181906C161.363 0.165991 161.284 0.142123 161.322 0.11484C161.342 0.0977888 161.392 0.0750528 161.441 0.0716425C161.71 0.0557277 161.979 0.0454867 162.247 0.0329822Z" fill="#FFE492"/>
<path d="M288.859 11.8052C289.119 11.7939 289.384 11.7768 289.644 11.7711C289.78 11.7689 289.888 11.795 289.904 11.8246C289.913 11.8382 289.847 11.8621 289.793 11.8678C289.421 11.9064 289.02 11.911 288.631 11.9303C288.507 11.936 288.375 11.9178 288.301 11.8859C288.189 11.8371 288.251 11.8189 288.462 11.8223C288.594 11.8234 288.726 11.8109 288.859 11.8052Z" fill="#FFE492"/>
<path d="M225.968 7.82317C226.1 7.81749 226.236 7.80271 226.364 7.80725C226.501 7.81294 226.588 7.8459 226.629 7.87887C226.674 7.91638 226.67 7.95163 226.629 7.98346C226.563 8.03802 226.497 8.03575 226.344 7.99937C226.108 7.94254 226.092 7.94935 225.624 7.95162C225.571 7.95162 225.505 7.93457 225.463 7.91979C225.401 7.89706 225.434 7.86182 225.579 7.84136C225.686 7.82658 225.835 7.82885 225.968 7.82317Z" fill="#FFE492"/>
<path d="M279.491 11.4324C279.685 11.4233 279.88 11.4085 280.074 11.4085C280.21 11.4073 280.318 11.4335 280.33 11.4619C280.334 11.4755 280.272 11.4983 280.223 11.5051C279.987 11.5358 279.723 11.5381 279.466 11.5483C279.346 11.5529 279.214 11.5347 279.14 11.5028C279.028 11.4551 279.094 11.4335 279.297 11.4403C279.359 11.4426 279.425 11.4358 279.491 11.4324Z" fill="#FFE492"/>
<path d="M248.222 10.0377C247.933 10.0514 247.66 10.0343 247.681 10.0048C247.71 9.9661 247.829 9.94108 247.953 9.93426C248.152 9.92289 248.35 9.9138 248.553 9.90698C248.681 9.90243 248.797 9.91948 248.9 9.94904C248.838 9.98542 248.743 10.0116 248.619 10.0195C248.491 10.0275 248.354 10.032 248.222 10.0377Z" fill="#FFE492"/>
<path d="M246.776 9.89231C246.971 9.88322 247.165 9.86844 247.359 9.86844C247.495 9.86731 247.603 9.89345 247.615 9.92187C247.62 9.93551 247.558 9.95825 247.508 9.96507C247.272 9.99576 247.008 9.99803 246.751 10.0083C246.632 10.0128 246.499 9.99462 246.425 9.96279C246.313 9.91505 246.379 9.89346 246.582 9.90028C246.644 9.90255 246.71 9.89572 246.776 9.89231Z" fill="#FFE492"/>
<path d="M223.222 7.81436C223.416 7.80527 223.61 7.79048 223.804 7.78934C223.941 7.78821 224.048 7.81436 224.061 7.84278C224.065 7.85642 224.003 7.87802 223.953 7.88598C223.718 7.91667 223.453 7.91895 223.197 7.92918C223.077 7.93372 222.945 7.91553 222.87 7.8837C222.759 7.83596 222.825 7.81435 223.027 7.82118C223.089 7.82345 223.155 7.81664 223.222 7.81436Z" fill="#FFE492"/>
<path d="M222.029 7.74696C222.235 7.73786 222.302 7.73218 222.368 7.73218C222.492 7.73218 222.62 7.74582 222.694 7.77879C222.806 7.82653 222.74 7.84018 222.537 7.84246C222.277 7.84473 222.02 7.8686 221.76 7.87315C221.624 7.87542 221.516 7.84813 221.508 7.81971C221.504 7.80607 221.566 7.7822 221.615 7.77765C221.789 7.7606 221.979 7.75037 222.029 7.74696Z" fill="#FFE492"/>
<path d="M245.661 1.05944C245.529 1.06513 245.388 1.08104 245.264 1.07536C245.099 1.0674 245.033 1.03671 245.074 1.00829C245.099 0.992379 245.145 0.969644 245.194 0.966233C245.459 0.950318 245.727 0.940079 245.992 0.928711C246.149 0.945763 246.219 0.969633 246.178 0.998052C246.153 1.01397 246.108 1.03557 246.058 1.04011C245.93 1.05148 245.794 1.05376 245.661 1.05944Z" fill="#FFE492"/>
<path d="M84.5808 1.71539C84.7089 1.71426 84.8246 1.72903 84.9238 1.75745C84.8618 1.79383 84.7709 1.8177 84.6469 1.82793C84.5849 1.83248 84.5146 1.83588 84.4485 1.83702C84.3203 1.8393 84.2046 1.82338 84.1053 1.79496C84.1673 1.75858 84.2624 1.73471 84.3823 1.72448C84.4443 1.71994 84.5146 1.7188 84.5808 1.71539Z" fill="#FFE492"/>
<path d="M286.937 11.8011C286.933 11.7681 287.185 11.7306 287.413 11.7317C287.533 11.7329 287.657 11.7488 287.727 11.7795C287.834 11.8261 287.772 11.8443 287.57 11.8408C287.446 11.8386 287.314 11.8579 287.19 11.8545C287.049 11.8533 286.966 11.8283 286.937 11.8011Z" fill="#FFE492"/>
<path d="M226.758 7.9607C226.754 7.94819 226.734 7.93342 226.746 7.92205C226.825 7.85953 227.3 7.84021 227.424 7.89477C227.445 7.905 227.453 7.92205 227.436 7.93228C227.412 7.94819 227.366 7.96865 227.316 7.9732C227.188 7.98457 227.056 7.99026 226.924 7.99139C226.866 7.99139 226.812 7.97207 226.758 7.9607Z" fill="#FFE492"/>
<path d="M6.0411 7.71629C5.55334 7.74016 5.54508 7.73788 5.63188 7.68104C5.71042 7.62989 5.85511 7.5992 6.06593 7.5992C6.12793 7.5992 6.19404 7.59693 6.24778 7.60148C6.30565 7.60716 6.38837 7.61852 6.40077 7.63216C6.42557 7.6583 6.35523 7.68672 6.23123 7.70605C6.17749 7.71514 6.10724 7.71288 6.0411 7.71629Z" fill="#FFE492"/>
<path d="M91.0352 1.55485C90.8905 1.57418 90.7666 1.56736 90.6756 1.53098C90.5847 1.49461 90.7294 1.45141 90.9815 1.44118C91.0477 1.4389 91.1179 1.42981 91.1799 1.43436C91.2419 1.43777 91.304 1.4514 91.3412 1.46504C91.4073 1.48778 91.366 1.51848 91.2337 1.54463C91.18 1.55486 91.1013 1.55258 91.0352 1.55485Z" fill="#FFE492"/>
<path d="M286.946 11.7156C286.983 11.7008 287.02 11.686 287.062 11.6724C287.215 11.6917 287.281 11.7144 287.239 11.7406C287.215 11.7565 287.165 11.7701 287.128 11.7849C286.975 11.7656 286.913 11.7417 286.946 11.7156Z" fill="#FFE492"/>
<path d="M12.1327 20.6575C12.1327 20.6439 12.1906 20.6223 12.236 20.6178C12.3228 20.6098 12.4303 20.6257 12.5047 20.6575C12.608 20.703 12.5461 20.7269 12.3559 20.7144C12.2236 20.7053 12.1327 20.6825 12.1327 20.6575Z" fill="#FFE492"/>
<path d="M228.303 6.90261C228.357 6.91285 228.41 6.92308 228.46 6.93445C228.39 6.97651 228.303 6.99469 228.212 6.98332C228.154 6.9765 228.104 6.96286 228.051 6.95263C228.121 6.91056 228.204 6.89466 228.303 6.90261Z" fill="#FFE492"/>
<path d="M226.854 6.85144C226.936 6.83438 227.036 6.84349 227.151 6.87646C227.114 6.89123 227.081 6.90829 227.036 6.91965C226.957 6.93784 226.854 6.92874 226.742 6.89463C226.775 6.88099 226.812 6.86621 226.854 6.85144Z" fill="#FFE492"/>
<path d="M225.686 6.90155C225.739 6.91178 225.793 6.92201 225.843 6.93338C225.772 6.97544 225.69 6.99362 225.595 6.98226C225.537 6.97543 225.487 6.96179 225.433 6.95156C225.504 6.9095 225.586 6.89245 225.686 6.90155Z" fill="#FFE492"/>
<path d="M225.715 6.8414C225.777 6.86414 225.744 6.89142 225.624 6.92211C225.57 6.91188 225.508 6.90393 225.467 6.89029C225.401 6.86869 225.434 6.84026 225.558 6.80957C225.607 6.82094 225.661 6.83117 225.715 6.8414Z" fill="#FFE492"/>
</svg>
