<svg width="682" height="692" viewBox="0 0 682 692" fill="none" xmlns="http://www.w3.org/2000/svg">
<g opacity="0.2">
<path d="M353.37 691.908C347.18 691.908 339.786 689.778 329.941 684.955C303.812 671.875 277.018 632.593 248.729 591.052C233.152 568.239 217.076 544.643 200.916 525.306C177.321 490.37 137.318 466.296 98.6019 442.962C70.3127 425.928 43.6022 409.807 22.915 389.905L22.8734 389.861C7.33725 374.392 0.0676639 359.444 0.649232 344.192C1.77083 314.426 32.8016 287.919 68.7757 257.241L72.2236 254.286C98.8926 231.43 132.374 200.838 180.852 155.169L184.965 151.432C228.333 111.976 282.336 62.8732 352.29 33.1075C492.406 -35.8534 615.034 17.5511 653.75 75.4313C694.127 143.089 690.638 214.917 640.457 350.101C587.908 491.022 471.511 599.96 423.906 640.241C404.423 653.538 392.21 665.314 383.321 673.918C372.022 684.781 364.669 691.908 353.37 691.908ZM26.5705 385.733C46.8008 405.201 73.2621 421.148 101.26 438.052C140.433 461.647 180.977 486.068 205.07 521.787C221.271 541.123 237.43 564.849 253.05 587.749C280.965 628.683 307.343 667.356 332.184 679.827C356.735 691.777 362.509 686.215 379.665 669.703C388.721 660.969 401.142 648.975 420.749 635.592C467.773 595.745 583.339 487.632 635.43 347.972C684.905 214.743 688.519 144.218 649.263 78.473C611.669 22.3309 491.908 -29.4657 354.45 38.1915C285.202 67.6965 231.573 116.451 188.496 155.603L184.425 159.34C135.905 205.053 102.382 235.688 75.6299 258.588L72.1821 261.543C37.2049 291.352 7.04648 317.12 6.00797 344.322C5.50948 357.923 12.239 371.437 26.5705 385.733Z" fill="#A7CEFC"/>
<path d="M344.937 652.539C336.38 652.539 327.324 649.671 314.862 644.587L314.612 644.5C290.685 631.942 271.743 601.655 251.72 569.629C238.053 547.729 223.888 525.133 206.856 505.448C182.846 473.51 152.646 448.654 123.484 424.625C103.877 408.503 85.3502 393.251 69.1909 376.391L68.9001 376.043C36 329.157 59.595 308.473 102.382 270.886C107.034 266.801 111.936 262.499 117.046 257.893C127.098 250.115 137.816 241.424 149.198 232.212C199.753 191.235 269.042 135.137 366.787 89.5973C486.258 41.7549 578.561 76.344 617.111 131.834C655.744 189.671 640.747 259.284 597.337 375.565C549.774 493.151 462.954 569.282 416.304 610.172L411.111 614.734C376.425 641.675 361.553 652.539 344.937 652.539ZM316.939 639.372C350.96 653.191 356.735 649.888 407.788 610.345L412.856 605.913C459.132 565.327 545.287 489.762 592.353 373.523C635.056 259.197 649.969 190.888 612.749 135.18C575.446 81.4715 485.552 48.1426 368.864 94.8552C271.826 140.047 202.868 195.928 152.48 236.688C141.098 245.9 130.38 254.591 120.41 262.325C115.426 266.801 110.524 271.103 105.871 275.231C63.0429 312.862 43.4357 330.07 73.1372 372.567C89.0473 389.123 107.408 404.201 126.808 420.192C156.26 444.396 186.668 469.469 210.969 501.798C228.167 521.657 242.457 544.47 256.248 566.544C275.814 597.831 294.341 627.423 316.939 639.372Z" fill="#A7CEFC"/>
<path d="M337.626 619.689C326.701 619.689 316.565 615.605 303.937 608.652C282.834 595.355 265.885 567.849 247.94 538.779C237.306 521.484 226.256 503.625 213.627 487.243C195.973 461.518 175.036 439.531 154.848 418.238C138.273 400.77 122.612 384.301 110.275 367.311L110.108 367.05C85.101 322.988 110.939 302.434 157.88 265.108L158.42 264.673L167.102 258.459C216.535 223.219 284.246 174.942 377.006 139.961C486.507 103.417 556.212 140.657 582.674 183.589C610.963 229.389 604.026 290.876 558.746 395.816C525.763 468.949 471.927 534.694 398.774 591.227C370.485 611.303 353.245 619.689 337.626 619.689ZM114.636 363.965C126.766 380.608 142.261 396.946 158.669 414.197C179.024 435.62 200.085 457.825 217.906 483.766C230.659 500.235 241.75 518.269 252.468 535.693C270.04 564.242 286.656 591.184 306.595 603.742C335.341 619.646 349.673 619.342 395.658 586.621C468.022 530.653 521.277 465.646 553.845 393.426C598.251 290.485 605.313 230.562 578.146 186.587C550.687 142.047 478.407 111.977 378.71 145.219C286.697 179.939 219.318 227.955 170.134 263.066L161.12 269.54C113.847 307.127 92.2044 324.335 114.636 363.965Z" fill="#A7CEFC"/>
<path d="M333.722 589.79C321.509 589.79 310.044 585.401 297.249 576.798L297.166 576.754C277.891 562.936 262.355 536.951 245.905 509.488C238.303 496.756 230.41 483.633 221.853 471.119C210.429 452.781 197.759 435.834 185.505 419.496C170.467 399.42 156.219 380.431 146.914 362.007C130.672 323.116 154.433 302.779 195.475 273.796C237.763 246.42 303.106 207.399 383.197 184.368C459.673 167.899 516.957 181.109 544.665 221.521C574.574 265.062 567.138 334.109 524.268 410.979C479.363 501.449 408.37 554.506 387.683 568.585C365.666 582.838 349.092 589.79 333.722 589.79ZM300.157 572.061C324.084 588.096 342.861 590.964 384.775 563.805C405.13 549.943 475.209 497.582 519.533 408.241C561.322 333.284 568.883 266.452 540.261 224.823C513.842 186.324 458.51 173.939 384.401 189.887C305.142 212.7 240.256 251.417 198.341 278.576C156.094 308.385 137.692 326.114 151.691 359.617C160.705 377.389 174.788 396.161 189.701 416.063C202.038 432.532 214.791 449.522 226.256 467.99C234.855 480.504 242.748 493.758 250.391 506.533C266.592 533.431 281.838 558.895 300.157 572.061Z" fill="#A7CEFC"/>
<path d="M331.52 562.504C318.559 562.504 306.637 557.854 294.258 548.555L293.925 548.251C246.528 498.062 190.489 383.127 179.73 360.618L179.564 360.097C171.173 327.854 190.116 308.909 227.959 285.226C263.601 264.282 319.888 236.645 385.855 223.739C446.587 213.745 492.074 227.216 514.007 261.674C538.35 299.957 530.914 358.141 493.652 421.323C460.835 482.245 412.482 526.09 378.17 546.774C360.224 557.289 345.269 562.504 331.52 562.504ZM297.581 544.123C321.301 561.808 342.445 561.2 375.469 541.863C409.159 521.57 456.64 478.464 489 418.455C524.642 358.011 532.285 300.609 509.521 264.803C488.834 232.256 445.216 219.611 386.769 229.301C321.591 242.077 265.927 269.453 230.659 290.137C194.436 312.776 177.363 329.592 184.674 358.402C215.58 423.061 261.399 505.71 297.581 544.123Z" fill="#A7CEFC"/>
<path d="M329.276 537.344C315.402 537.344 303.397 532.521 294.299 523.178C257.91 486.286 220.025 408.461 208.85 361.661C207.023 350.841 209.64 340.282 216.535 330.201C237.804 299.132 300.821 272.321 385.148 258.502C432.712 253.679 468.188 267.019 485.137 296.09C504.328 329.028 497.432 376.957 466.236 427.537C425.65 491.544 377.09 532.39 336.338 536.91C333.929 537.214 331.561 537.344 329.276 537.344ZM403.675 263.152C397.943 263.152 392.003 263.456 385.855 264.108C303.106 277.665 241.377 303.607 220.98 333.503C214.915 342.368 212.631 351.45 214.168 360.531C225.134 406.375 262.355 482.94 298.121 519.181C307.551 528.827 320.594 533.042 335.798 531.348C374.971 527.002 422.078 487.068 461.749 424.495C491.326 376.522 498.388 329.636 480.567 299.045C466.9 275.623 439.94 263.152 403.675 263.152Z" fill="#A7CEFC"/>
<path d="M330.564 513.445C317.687 513.445 306.346 509.1 297.498 500.67C265.927 470.73 236.724 407.418 235.063 365.225V365.138C234.855 326.247 296.667 294.308 381.991 289.268C418.339 288.355 445.299 301.044 457.969 325.117C472.508 352.71 466.526 390.993 441.561 430.188C410.696 477.813 372.063 508.752 338.166 512.967C335.549 513.271 333.015 513.445 330.564 513.445ZM240.463 365.051C242.124 405.984 270.455 467.428 301.154 496.498C310.5 505.406 323.045 509.143 337.502 507.361C369.862 503.32 407.082 473.294 437.074 427.016C460.877 389.646 466.776 353.449 453.234 327.768C441.561 305.65 416.387 293.917 382.199 294.83C301.278 299.653 240.297 329.853 240.463 365.051Z" fill="#A7CEFC"/>
<path d="M332.434 490.804C321.177 490.804 311.124 487.198 303.023 480.115C274.568 455.39 254.338 405.331 258.783 370.742C263.601 337.543 315.403 313.731 376.55 316.468C403.385 318.076 423.159 329.635 432.298 348.972C442.766 371.133 437.989 400.551 419.129 429.622C396.864 463.646 367.494 486.285 340.576 490.196C337.793 490.63 335.093 490.804 332.434 490.804ZM366.871 321.9C312.619 321.9 268.296 342.888 264.142 371.568C259.987 403.854 279.761 452.565 306.471 475.813C315.278 483.461 326.785 486.502 339.828 484.634C365.293 480.94 393.25 459.17 414.685 426.45C432.422 399.117 437.075 371.785 427.479 351.449C419.254 334.024 401.059 323.595 376.301 322.074C373.144 321.987 369.987 321.9 366.871 321.9Z" fill="#A7CEFC"/>
<path d="M334.593 469.166C325.537 469.166 317.312 466.428 310.416 461.083C286.53 442.529 273.113 405.202 280.507 377.87C288.026 350.842 327.074 334.59 369.321 340.847C388.056 343.759 401.806 353.492 408.037 368.267C415.098 384.996 411.609 406.202 398.482 426.451C383.403 449.568 363.173 464.864 342.984 468.384C340.159 468.905 337.335 469.166 334.593 469.166ZM285.7 379.434C278.97 404.246 291.765 439.574 313.615 456.564C321.383 462.604 331.228 464.777 342.112 462.865C360.597 459.606 380.038 444.832 394.079 423.322C406.126 404.724 409.407 385.518 403.135 370.57C397.693 357.62 385.397 349.06 368.573 346.453C329.567 340.63 292.388 355.448 285.7 379.434Z" fill="#A7CEFC"/>
<path d="M336.879 448.22C330.606 448.22 324.541 446.525 319.224 442.875C301.445 430.838 293.137 405.288 300.655 385.951C308.216 366.701 335.176 356.315 360.806 362.833C372.645 365.832 381.286 373.175 385.149 383.43C389.386 394.728 387.226 408.46 379.25 421.061C368.242 438.356 351.916 448.22 336.879 448.22ZM322.132 438.182C337.46 448.567 361.055 439.529 374.764 417.976C381.743 406.939 383.737 395.076 380.123 385.516C376.924 376.999 369.613 370.872 359.518 368.309C336.38 362.442 312.204 371.307 305.64 388.08C299.035 405.07 306.43 427.536 322.132 438.182Z" fill="#A7CEFC"/>
<path d="M338.79 427.666C335.383 427.666 332.06 426.84 329.028 425.102C318.643 419.149 314.447 405.461 319.723 394.554C324.915 383.778 339.164 378.607 351.418 383.039C357.317 385.168 361.637 389.427 363.506 395.076C365.5 401.029 364.545 407.981 360.848 414.108C355.572 422.756 347.056 427.666 338.79 427.666ZM342.113 387.08C334.594 387.08 327.491 390.861 324.458 397.118C320.512 405.331 323.669 415.673 331.562 420.148C339.413 424.667 350.504 420.583 356.237 411.067C359.103 406.33 359.851 401.333 358.355 396.901C357.026 392.903 353.911 389.861 349.59 388.297C347.139 387.471 344.605 387.08 342.113 387.08Z" fill="#A7CEFC"/>
</g>
</svg>
