<svg xmlns="http://www.w3.org/2000/svg" xmlns:xlink="http://www.w3.org/1999/xlink" viewBox="0 0 750 500"><defs><clipPath id="freepik--clip-path--inject-9"><polygon points="268.43 125.42 283.9 128.62 289.17 134.09 296.04 135.15 298.23 141.67 296.63 146.08 291.94 148.23 280.46 146.35 280.15 144.95 285.57 141.16 281.83 134.25 271.56 132.84 266.09 128.15 268.43 125.42" style="fill:#fff"></polygon></clipPath><clipPath id="freepik--clip-path-2--inject-9"><path d="M312.44,143.5l-12-9.84L296.05,124l-12.86-7-6-3.79-3.06,7.61-8.06-3.48-2-12.39,7.95-3.76,4.8,3.33.91-6.75L288.34,95l.11,0,25.62,5.08,5.59,5.79-2.24,6.9,3.76,13.66,4.52,5.37,1.65,5.63ZM301.22,133l11.39,9.31,13.52-5.46-1.36-4.66-4.52-5.38-3.87-14,2.14-6.61-4.95-5.14-25.2-5-9.68,2.5-1,7.7L272,102.33l-6.74,3.19L267,116.63l6.62,2.86,3.12-7.78,6.95,4.42,13.12,7.14Z" style="fill:#263238;clip-path:url(#freepik--clip-path-16--inject-9)"></path></clipPath><clipPath id="freepik--clip-path-3--inject-9"><polygon points="334.52 104.1 328.93 103.87 325.22 108.75 329.95 118.4 334.52 117.38 334.52 104.1" style="fill:#fff;clip-path:url(#freepik--clip-path-2--inject-9)"></polygon></clipPath><clipPath id="freepik--clip-path-4--inject-9"><path d="M329.67,119l-5-10.28,4.05-5.33,6.33.26v14.16Zm-3.86-10.16,4.41,9L334,117v-12.4l-4.85-.2Z" style="fill:#263238;clip-path:url(#freepik--clip-path-3--inject-9)"></path></clipPath><clipPath id="freepik--clip-path-5--inject-9"><polygon points="368.69 103.52 355.33 99.85 351.94 96.18 349.36 97.86 353.38 104.34 357.52 113.01 363.26 113.95 364 112.31 359.67 107.74 369.59 109.22 368.69 103.52" style="fill:#fff;clip-path:url(#freepik--clip-path-4--inject-9)"></polygon></clipPath><clipPath id="freepik--clip-path-6--inject-9"><path d="M363.56,114.5l-6.38-1-4.25-8.9-4.25-6.85L352,95.53l3.59,3.87,13.53,3.73,1.05,6.69L361,108.45l3.57,3.76Zm-5.7-1.94,5.1.83.45-1-5.1-5.38,10.68,1.6-.74-4.71-13.18-3.63-3.21-3.46L350,98l3.77,6.07Z" style="fill:#263238;clip-path:url(#freepik--clip-path-5--inject-9)"></path></clipPath><clipPath id="freepik--clip-path-7--inject-9"><polygon points="294.23 253.22 293.14 254.93 304.38 255.75 309.69 259.74 316.53 258.96 318.13 254.55 309.74 254.94 294.23 253.22" style="fill:#fff;clip-path:url(#freepik--clip-path-6--inject-9)"></polygon></clipPath><clipPath id="freepik--clip-path-8--inject-9"><path d="M309.55,260.26l-5.35-4-11.94-.87,1.72-2.69,15.81,1.76,9.07-.43-2,5.41ZM294,254.5l10.56.77,5.27,4,6.33-.72,1.24-3.42-7.65.35-15.28-1.68Z" style="fill:#263238;clip-path:url(#freepik--clip-path-7--inject-9)"></path></clipPath><clipPath id="freepik--clip-path-9--inject-9"><path d="M292,148.75l-12-2-.46-2.06,5.34-3.72-3.41-6.3-10.17-1.39-6-5.11,2.86-3.34,15.91,3.3,5.26,5.45,7,1.08,2.34,7L297,146.45Zm-11.14-2.83,11,1.79,4.36-2,1.47-4.06-2-6.06-6.74-1-5.29-5.48-15-3.11-1.83,2.13,5,4.26,10.38,1.43,4.08,7.53-5.52,3.85Z" style="fill:#263238;clip-path:url(#freepik--clip-path--inject-9)"></path></clipPath><clipPath id="freepik--clip-path-10--inject-9"><path d="M393.08,268.15l-12.26-2.07L366,264.2l-10.89,2.42-10.67.15-10.7,5-6.25,1.76-3.86.86-6.45,5.86-6.4,4.37L300,280.71l.27-10.39-6.52-1.13-7,1.56-1.76-2.93-.7-6.48-3.24-3-4.77,1.79L275.6,264l-5.9,1.68L263,260.51l-4-8,3.09-11L272.48,240l3.36,1.84,4.21-.94,4.57-4.33,4.89.39,8.74,9.49,2.39-.9-2.5-7.93-3.05-3.75-.78-6.83,11.76-8.51-1.13-13.4,4.61-5.82,2.77-9.1,3.36-1.48,6.91-7.07-.27-2.89-5.54,1.6-1.68-2.58-3.87.86-5.66,2.73,1.79-5.19,11.53-6.25,2.11-3.79,6.63,6.64,3.87,2.46,4.61-2.49L333,168.62,324.43,165l-10.54-7.62-10.12-4-8.75.47-5.15-3.28-5.94-.16-.39,1.56,1.56,10.35,2.19,3.2-.67,11.95-8.27-4.06,0-5.15-8.17-1.88-4-3.16-.19-9.18,8.55-9.65-1.17-8.59L269.52,137l-3.16-2.62-2.23-5-2.53.2-.16,5.94L257.73,137l-4.49-11.92L250,124l-5.39-1-5,4.06,8.51,5.11,2.73,5.67-14.76-6.68-10.89-7.54-2.82-9.34-9.76-.78-6,6.13a55.59,55.59,0,0,1-4.65,4c-1.6,1.1-8.13,3.28-8.13,3.28l-.08,6.29-8,2.15,1.56,3.71,13.47-.78,8.32,5.9,2.73,12.3-1.44,11.76,3.28,11.44-6,19.41,3.59,26.13,6.44,14.06,7.07,10.24,5.43-.47-3-5.24-3.75-3.59L220,232.82l3-1.41L230.73,243l6,10.47,2,9.14,8.47,6.6,13.91,6.14,19.37.86,6.79,4,5.47,4.69,7.19,2.46,8.2.39,7.65-2.07s.43,3.6.82,5.35-3.2,8.83-3.2,8.83l-2.31,7.89,4.53,7.11,8.44,1.45,13.39,8.82,5.39,1,1.17,5.27,1.16,2.32a151.11,151.11,0,0,0,66-51.08l-.38-2.59,5.66-19.33-5.27-2.15Z" style="fill:#fff;clip-path:url(#freepik--clip-path-9--inject-9)"></path></clipPath><clipPath id="freepik--clip-path-11--inject-9"><path d="M345,334.37l-1.4-2.85-1.1-4.95-5.25-1-13.31-8.77-8.55-1.47-4.77-7.48,2.37-8.11c1.39-2.76,3.45-7.42,3.19-8.58-.3-1.35-.61-3.73-.75-4.82l-7.18,1.94-8.42-.43-7.35-2.55L287,280.58l-6.62-3.91-19.43-.9-14-6.19-8.62-6.72-2-9.24-6-10.4-7.47-11.17-2.17,1,3.22,6.8,3.77,3.64,3.4,5.92-6.5.56-7.23-10.47-6.53-14.28L207.18,199l6-19.37-3.26-11.4,1.45-11.77-2.68-12-8-5.69-13.66.79L185.1,135l8.2-2.19.08-6.27.33-.11c.07,0,6.48-2.18,8-3.22a54.31,54.31,0,0,0,4.59-3.93l6.17-6.29,10.34.83,2.85,9.5,10.76,7.44,13.42,6.06-2.07-4.28-9-5.41,5.73-4.66,5.62,1.06,3.49,1.23L258,136.35l2.94-1.23.16-6.06,3.34-.26,2.32,5.25,2.86,2.37,4.1-1.31,1.28,9.41-8.58,9.67.19,8.75,3.75,2.95,8.43,1.94,0,5.24,7.33,3.59.61-11-2.17-3.26L283,151.92l.52-2L290,150l5.14,3.27,8.7-.47L314.18,157l10.5,7.58,8.62,3.67,3.56,4.67-5.38,2.91-4.2-2.68-6.17-6.18-1.86,3.34-11.48,6.23-1.34,3.87,4.69-2.25,4.21-.93,1.66,2.56,5.77-1.67.35,3.72-7.23,7.34-3.15,1.4-2.79,9-4.49,5.66,1.14,13.48-11.75,8.51.73,6.4,3,3.8,2.65,8.38L298.11,247l-8.84-9.6-4.46-.36-4.51,4.28-4.54,1-3.38-1.85L262.52,242l-2.95,10.52,3.85,7.69,6.39,4.93,5.35-1.52.62-3.8,5.32-2,3.61,3.31.71,6.56,1.51,2.52,6.78-1.5,7,1.22-.27,10.46L310.71,284l6.2-4.23,6.49-5.9,4-.89,6.23-1.75,10.83-5,10.61-.15L366,263.69l14.89,1.89L393,267.63l18.21-9.6,5.91,2.41-5.76,19.66.4,2.68-.12.17A151.68,151.68,0,0,1,345.4,334.2Zm-.44-3.13.93,1.86a150.78,150.78,0,0,0,65.25-50.58l-.37-2.49,0-.11,5.54-18.9-4.64-1.89-18.11,9.54-12.43-2.1L366,264.71l-10.92,2.41-10.55.15L334,272.19,327.64,274l-3.77.84-6.34,5.77-6.67,4.56-11.4-4.08.27-10.32-6-1-7.28,1.62-2-3.45-.69-6.29-2.87-2.64-4.21,1.59-.63,3.86-6.45,1.83-7-5.48-4.07-8.14,3.22-11.51,10.84-1.64,3.34,1.83,3.9-.87,4.63-4.39,5.3.43,8.65,9.38,1.63-.61-2.33-7.39L294.61,234l-.83-7.27,11.77-8.51-1.13-13.32,4.68-5.9,2.81-9.22,3.48-1.54,6.69-6.84-.2-2.05-5.32,1.53-1.69-2.6-3.48.78-6.69,3.23,2.25-6.52,11.57-6.27,2.36-4.24,7.07,7.07,3.57,2.28,3.84-2.09L332.67,169l-8.53-3.63-10.49-7.59-10-4-8.8.47L289.72,151l-5.4-.14-.27,1.07,1.53,10.14,2.22,3.25-.72,12.88-9.23-4.54,0-5.07-8-1.88-4.2-3.31-.21-9.61L274,144.2l-1.06-7.77-3.48,1.11L266,134.67l-2.13-4.82-1.74.13-.15,5.81-4.49,1.89-4.59-12.18-3-1.06-5.09-1L240.52,127l8,4.82,3.39,7-16-7.25-11.12-7.68L222,114.71l-9.19-.73-5.85,6a56,56,0,0,1-4.72,4c-1.45,1-6.54,2.75-7.91,3.22l-.08,6.32-7.82,2.09,1.2,2.86,13.3-.77,8.62,6.11,2.79,12.58-1.44,11.74,3.29,11.49-6,19.44,3.56,26,6.41,14,6.86,9.92,4.36-.37-2.58-4.49-3.8-3.7-3.69-7.79,3.85-1.8,8,11.92,6.09,10.63,2,9,8.28,6.45,13.76,6.07,19.4.86,6.91,4.09,5.46,4.68,7,2.41,8.05.38,8.14-2.2.07.57s.43,3.59.81,5.31-2.63,7.95-3.25,9.16l-2.2,7.58,4.29,6.73,8.4,1.49,13.32,8.77,5.61,1.06Z" style="fill:#263238;clip-path:url(#freepik--clip-path-10--inject-9)"></path></clipPath><clipPath id="freepik--clip-path-12--inject-9"><path d="M398.8,121.18l-5.35-5.82-6.64-6.64-3.74-10.23,6.56-.35-.43-3.6-4.65.67L388,92.59l3.67-3.4-.78-3.51L385.45,81l-2.58-7.37a151.81,151.81,0,0,0-183.18-3.51l9.38,3.94-3.51,7.42-6.37,2.89L200.6,94,198,95.69l-2.66,4.64,1.76,6.25,6.13-.62-1.13,6.52,6-1.33,7.31-15.27L215.2,90l9.69-2.89,1.52-4.77,10-3.32-.27-6.21,7.3-2s4.65-4,5.71-4.21,6.36.43,6.36.43l6.21,3,7.38-1.63,5.47-5.28,8.24-1.09a8.91,8.91,0,0,0,4.18.55c1.76-.39,6.49-4,6.49-4L305,62.7,310,64.93l1.17,5.27,5.43-.47,1.05-3.55,5,1.09.27,2.89L313,75.32l7.69,6.4,14.22,4.22,6.84,5.86,7.88-1,1-3.91,2.66-1.33-10.7-5-5.78.55L341,78.68l-5.54-5L341.4,72l8.67,2.5,3.63,8.05,4.88,3.71L364,95.71l9,3.91,2.58,11.6,9.25,3.48.51,3.94,0,4.8,3.51,5.86,1.41,3,6.21-.27,1.48-6.6Z" style="fill:#fff;clip-path:url(#freepik--clip-path-11--inject-9)"></path></clipPath><clipPath id="freepik--clip-path-13--inject-9"><path d="M389.9,132.82l-1.55-3.31-3.56-5.93,0-4.94-.47-3.58-9.22-3.47L372.56,100l-8.91-3.87-5.45-9.54-4.91-3.73-3.58-8-8.31-2.4-4.9,1.4,5.39,4.89-2.83,1.61,3.6-.34,11.76,5.5L351,87.23l-1,4-8.45,1.09-6.92-5.94-14.29-4.28-8.28-6.89,10.29-5.35-.2-2.19L318,66.76l-1,3.44-6.21.53-1.21-5.45-4.69-2.12-11.3-4c-1,.77-4.81,3.58-6.47,3.95a8.89,8.89,0,0,1-4.34-.53l-8,1.06-5.45,5.25-7.69,1.71-6.29-3.09a39.93,39.93,0,0,0-6.11-.43c-.59.13-3.25,2.2-5.49,4.11l-.19.11-6.92,1.88.27,6.19-10.08,3.36-1.52,4.77-9.57,2.86L215.9,96l-7.46,15.6-6.94,1.54,1.14-6.61-5.89.6-1.93-6.85,2.82-4.94,2.41-1.57-1.41-9.7,6.54-3,3.22-6.78-9.72-4.08.72-.52a152.28,152.28,0,0,1,183.78,3.52l.11.09,2.59,7.38,5.49,4.71.88,4L388.37,93l-2,1.48,3.23-.46.56,4.63-6.42.34,3.48,9.49,6.56,6.57,5.53,6-.95,4.51-1.57,7Zm-4.11-9.51,3.44,5.74,1.29,2.75,5.49-.25,1.41-6.22.84-4-5.18-5.63-6.74-6.81-4-10.87,6.71-.35-.31-2.56L382.7,96l5-3.79L391.15,89,390.47,86,385,81.28l-2.57-7.35A151.31,151.31,0,0,0,200.71,70l9,3.8-3.82,8.06-6.19,2.81,1.4,9.59L198.39,96l-2.49,4.36,1.58,5.64,6.37-.64-1.11,6.43,5-1.11,7.14-14.94-.2-6.12,9.8-2.93L226,82l9.85-3.28-.28-6.23,7.58-2.07c1-.82,4.75-4,5.84-4.25s6,.35,6.53.42l.16.05,6.06,3L268.82,68l5.48-5.29,8.53-1.13.12,0a8.33,8.33,0,0,0,3.89.53c1.36-.3,5-2.94,6.29-3.93l.22-.17,11.85,4.16,5.19,2.34,1.13,5.09,4.65-.4,1.09-3.67,5.85,1.27.34,3.59-9.55,5,7,5.86,14.3,4.29,6.66,5.72,7.33-1,.95-3.79,1.94-1-9.64-4.51-8,.76,5.69-3.24-5.7-5.17,6.9-2,9,2.61,3.67,8.14L359,86l5.35,9.35,9.06,3.94L376,110.85l9.29,3.48.54,4.25Z" style="fill:#263238;clip-path:url(#freepik--clip-path-12--inject-9)"></path></clipPath><clipPath id="freepik--clip-path-14--inject-9"><path d="M395.51,84.75l.45,2-.51,6,2.14,4.68,4.18.55,1.49,6.68-4.61-.82,3.16,19.21-2.5,8.67,5,9.22,5.5,3.21,4.22,19,7.85,13.75,7.42,10.15,8.55.32,1.25-7.66.95-1.15a154,154,0,0,0-2.95-18.67A151.07,151.07,0,0,0,395.51,84.75Z" style="fill:#fff;clip-path:url(#freepik--clip-path-13--inject-9)"></path></clipPath><clipPath id="freepik--clip-path-15--inject-9"><path d="M438.27,187.9l-9.23-.34-7.57-10.35-7.93-13.93-4.17-18.77-5.44-3.17-5.16-9.52,2.53-8.76L398,103.26l4.57.82-1.25-5.61-4.1-.54-2.32-5.05.51-6.07-.8-3.6,1.21,1.19a152.5,152.5,0,0,1,44.68,94.13l0,.21-1,1.21Zm-8.71-1.32,7.87.29,1.2-7.35.9-1.1a154.15,154.15,0,0,0-2.92-18.4,150.66,150.66,0,0,0-40.24-73.71l.09.43-.5,6,2,4.31,4.26.56,1.72,7.75-4.65-.83,3.06,18.63-2.47,8.59,4.83,8.91,5.57,3.24L414.5,163l7.81,13.68Z" style="fill:#263238;clip-path:url(#freepik--clip-path-14--inject-9)"></path></clipPath><clipPath id="freepik--clip-path-16--inject-9"><polygon points="313.82 100.59 288.35 95.54 278.24 98.16 277.26 105.38 272.03 101.75 264.69 105.23 266.56 116.98 273.9 120.15 276.99 112.45 283.43 116.56 296.44 123.63 300.81 133.35 312.52 142.92 326.74 137.18 325.22 131.99 320.73 126.72 316.9 112.81 319.09 106.05 313.82 100.59" style="fill:#fff;clip-path:url(#freepik--clip-path-15--inject-9)"></polygon></clipPath></defs><g id="freepik--background-simple--inject-9"><path d="M219.1,43.6C130.37,87.16,49.46,178.18,61.52,276c6.65,53.92,49.65,98.84,97.08,133.91,42.5,31.42,90.56,61.91,144.61,71.52,91.62,16.29,149.12-51.1,233.1-57.73,67.71-5.36,122.62-40.5,137.28-124.84S634.3,157.44,554.12,134.48,441.52,96.33,372.2,35.41C340.34,7.41,296.94,12,262.36,25,247.53,30.56,233.05,36.75,219.1,43.6Z" style="fill:#407BFF"></path><path d="M219.1,43.6C130.37,87.16,49.46,178.18,61.52,276c6.65,53.92,49.65,98.84,97.08,133.91,42.5,31.42,90.56,61.91,144.61,71.52,91.62,16.29,149.12-51.1,233.1-57.73,67.71-5.36,122.62-40.5,137.28-124.84S634.3,157.44,554.12,134.48,441.52,96.33,372.2,35.41C340.34,7.41,296.94,12,262.36,25,247.53,30.56,233.05,36.75,219.1,43.6Z" style="fill:#fff;opacity:0.7000000000000001"></path></g><g id="freepik--Icons--inject-9"><g style="opacity:0.30000000000000004"><path d="M545.09,82.53a22.44,22.44,0,1,1,22.44-22.44A22.46,22.46,0,0,1,545.09,82.53Zm0-43.88a21.44,21.44,0,1,0,21.44,21.44A21.47,21.47,0,0,0,545.09,38.65Z"></path><path d="M550.5,73.29H539.68V65.5h-7.79V54.68h7.79V46.89H550.5v7.79h7.79V65.5H550.5Zm-9.82-1h8.82V64.5h7.79V55.68H549.5V47.89h-8.82v7.79h-7.79V64.5h7.79Z"></path><path d="M118.78,66.35a15.93,15.93,0,1,1,15.93-15.93A15.94,15.94,0,0,1,118.78,66.35Zm0-30.85a14.93,14.93,0,1,0,14.93,14.92A14.93,14.93,0,0,0,118.78,35.5Z"></path><path d="M122.73,59.85h-7.9V54.37h-5.48v-7.9h5.48V41h7.9v5.48h5.48v7.9h-5.48Zm-6.9-1h5.9V53.37h5.48v-5.9h-5.48V42h-5.9v5.48h-5.48v5.9h5.48Z"></path><path d="M474.45,303.37a15.92,15.92,0,1,1,15.92-15.92A15.94,15.94,0,0,1,474.45,303.37Zm0-30.84a14.92,14.92,0,1,0,14.92,14.92A14.93,14.93,0,0,0,474.45,272.53Z"></path><path d="M478.4,296.88h-7.9V291.4H465v-7.9h5.48V278h7.9v5.48h5.48v7.9H478.4Zm-6.9-1h5.9V290.4h5.48v-5.9H477.4V279h-5.9v5.48H466v5.9h5.48Z"></path><path d="M66.07,401.37A15.92,15.92,0,1,1,82,385.45,15.94,15.94,0,0,1,66.07,401.37Zm0-30.84A14.92,14.92,0,1,0,81,385.45,14.93,14.93,0,0,0,66.07,370.53Z"></path><path d="M70,394.88h-7.9V389.4H56.64v-7.9h5.48V376H70v5.48H75.5v7.9H70Zm-6.9-1H69V388.4H74.5v-5.9H69V377h-5.9v5.48H57.64v5.9h5.48Z"></path><path d="M402.4,461.93a16.1,16.1,0,1,1,16.1-16.1A16.11,16.11,0,0,1,402.4,461.93Zm0-31.2a15.1,15.1,0,1,0,15.1,15.1A15.11,15.11,0,0,0,402.4,430.73Z"></path><path d="M406.39,455.36h-8v-5.54h-5.55v-8h5.55V436.3h8v5.54h5.54v8h-5.54Zm-7-1h6v-5.54h5.54v-6h-5.54V437.3h-6v5.54h-5.55v6h5.55Z"></path><path d="M663.55,157.23l-13.79-13.78a9.13,9.13,0,0,1,12.91-12.91l.88.88.87-.88a9.14,9.14,0,0,1,12.91,0,9.16,9.16,0,0,1,0,12.91Zm-7.34-28.36a8.12,8.12,0,0,0-5.75,13.87l13.09,13.08,13.07-13.08a8.13,8.13,0,0,0-11.49-11.5l-1.58,1.59L662,131.24A8.09,8.09,0,0,0,656.21,128.87Z"></path><path d="M663.54,164.67a24,24,0,1,1,24-24A24.07,24.07,0,0,1,663.54,164.67Zm0-47.08a23,23,0,1,0,23,23A23.07,23.07,0,0,0,663.54,117.59Z"></path><path d="M474.54,173.45l-9.74-9.74a6.53,6.53,0,0,1,9.24-9.24l.5.51.51-.51a6.53,6.53,0,0,1,9.24,9.24Zm-5.12-19.89A5.53,5.53,0,0,0,465.5,163l9,9,9-9a5.53,5.53,0,0,0-3.91-9.44,5.46,5.46,0,0,0-3.91,1.62l-1.22,1.21-1.21-1.21A5.46,5.46,0,0,0,469.42,153.56Z"></path><path d="M474.54,178.59a17,17,0,1,1,17-17A17,17,0,0,1,474.54,178.59Zm0-32.92a16,16,0,1,0,16,16A16,16,0,0,0,474.54,145.67Z"></path><path d="M506,425.93l-6-6a4.15,4.15,0,1,1,5.87-5.87l.16.16.17-.16a4.14,4.14,0,0,1,5.87,0,4.17,4.17,0,0,1,0,5.87Zm-3.1-12.12a3.15,3.15,0,0,0-2.23,5.38l5.33,5.33,5.33-5.33a3.16,3.16,0,0,0,0-4.46,3.22,3.22,0,0,0-4.45,0l-.88.88-.87-.88A3.16,3.16,0,0,0,502.94,413.81Z"></path><path d="M506,429A10.46,10.46,0,1,1,516.5,418.5,10.47,10.47,0,0,1,506,429ZM506,409a9.46,9.46,0,1,0,9.46,9.46A9.47,9.47,0,0,0,506,409Z"></path><path d="M177.61,460.09l-9.75-9.74a6.53,6.53,0,0,1,4.62-11.15,6.49,6.49,0,0,1,4.62,1.91l.51.51.51-.51a6.53,6.53,0,1,1,9.23,9.24Zm-5.13-19.89a5.54,5.54,0,0,0-3.91,9.45l9,9,9-9a5.54,5.54,0,0,0-3.92-9.45,5.49,5.49,0,0,0-3.9,1.62L177.61,443l-1.21-1.22A5.54,5.54,0,0,0,172.48,440.2Z"></path><path d="M177.61,465.24a17,17,0,1,1,17-17A17,17,0,0,1,177.61,465.24Zm0-32.92a16,16,0,1,0,16,16A16,16,0,0,0,177.61,432.32Z"></path><path d="M91.09,250.43l-15.2-15.18a10,10,0,1,1,14.19-14.19l1,1,1-1a10,10,0,1,1,14.18,14.19ZM83,219.12a9,9,0,0,0-6.39,15.42L91.09,249l14.47-14.48a9,9,0,0,0,0-12.77,9,9,0,0,0-12.76,0l-1.71,1.71-1.72-1.71A8.94,8.94,0,0,0,83,219.12Z"></path><path d="M91.08,258.67a26.5,26.5,0,1,1,26.5-26.5A26.53,26.53,0,0,1,91.08,258.67Zm0-52a25.5,25.5,0,1,0,25.5,25.5A25.53,25.53,0,0,0,91.08,206.67Z"></path></g></g><g id="freepik--Plants--inject-9"><path d="M157.1,378.33c1.32-3.19,1-10.93,1-10.93s-5,1.76-5.34,1.91c-3.52,1.77-9.29,7.25-8.61,11.61a5.22,5.22,0,0,0,6.62,4.07C153.78,384.2,156,381.05,157.1,378.33Z" style="fill:#263238"></path><path d="M179.47,375.23c.42-3.29-1.72-10.16-1.89-10.71a92.75,92.75,0,0,0,11.51-4.41c2.19-1,4.35-2.06,6.51-3.16-.91.65-1.72,1.23-1.82,1.33-2.93,2.63-7,9.44-5.24,13.47a5.22,5.22,0,0,0,7.46,2.17c2.7-1.55,4-5.17,4.35-8.09s-1.33-8.86-1.8-10.41l2.47-1.28c3.95-2.08,7.87-4.17,11.79-6.1,1.38-.68,2.76-1.3,4.15-1.93l-1.59,1.15c-2.92,2.64-7,9.45-5.23,13.48a5.22,5.22,0,0,0,7.46,2.17c2.7-1.56,4-5.17,4.35-8.09s-1.17-8.28-1.72-10.13c1.43-.6,2.87-1.2,4.28-1.72,1-.33,1.9-.71,2.89-1l2.92-.87c1.88-.49,3.81-1,5.65-1.44,1.28-.31,2.51-.58,3.74-.86-1.38.67-4.06,2-4.27,2.16-3.29,2.16-8.39,8.27-7.22,12.52a5.23,5.23,0,0,0,7.05,3.28c2.9-1.13,4.72-4.51,5.52-7.34.89-3.11-.11-9.95-.24-10.81,2-.45,4-.87,5.92-1.23,1.68-.33,3.28-.63,4.82-.9l-.06-2.76c-1.67.33-3.43.69-5.29,1.1-2.08.45-4.29,1-6.55,1.53a54.07,54.07,0,0,0-2.95-6c2.4-2.31,5.15-8.15,5.5-8.9,1.95.75,3.84,1.5,5.62,2.23,1.22.5,2.39,1,3.51,1.48l-.06-2.93-2.48-1c-2-.77-4.11-1.55-6.31-2.33.16-.84,1.41-7.65.64-10.8-.71-2.86-2.4-6.3-5.26-7.53a5.21,5.21,0,0,0-7.16,3c-1.32,4.2,3.55,10.5,6.76,12.77.19.14,2.41,1.36,3.83,2.12-.9-.32-1.77-.64-2.7-.95-1.83-.63-3.68-1.21-5.66-1.84l-2.94-.81c-1-.3-2-.48-3.07-.73-2.4-.52-4.85-.94-7.34-1.3.55-1.6,2.42-7.33,2.16-10.27s-1.41-6.6-4-8.24a5.22,5.22,0,0,0-7.54,1.9c-1.94,3.95,1.92,10.91,4.75,13.65.18.17,2.43,1.91,3.69,2.84-1.5-.21-3-.42-4.51-.58-4.38-.46-8.83-.79-13.27-1.13l-4.07-.35c.2-.57,2.57-7.33,2.27-10.62-.26-2.94-1.41-6.6-4.05-8.24a5.21,5.21,0,0,0-7.53,1.9c-1.95,3.95,1.91,10.91,4.74,13.65.22.2,3.46,2.7,4.32,3.29-3-.25-6-.54-8.88-.94a90.37,90.37,0,0,1-11.7-2.32c.1-.26,2.6-7.31,2.3-10.68-.26-2.93-1.41-6.6-4-8.24a5.22,5.22,0,0,0-7.54,1.9c-1.94,4,1.92,10.91,4.75,13.65.22.21,3.72,2.9,4.39,3.34-.23-.07-.46-.1-.69-.17a67,67,0,0,1-11.11-4.4c-2-1-3.82-2-5.59-3,.6-1.27,3.29-7.08,3.35-10.15s-.68-6.7-3.12-8.63a5.22,5.22,0,0,0-7.7,1.06c-2.37,3.72.71,11.06,3.22,14.09.14.17,1.71,1.69,2.87,2.78-.79-.48-1.61-1-2.36-1.45-2.81-1.79-5.28-3.6-7.45-5.23-1.23-.93-2.32-1.8-3.33-2.62-.06-1.55-.37-7.79-1.7-10.49s-3.7-5.64-6.76-6.23a5.23,5.23,0,0,0-6.34,4.49c-.39,4.4,5.72,9.49,9.35,11,.32.13,5.46,1.64,5.46,1.55v-.09c1,.81,2,1.67,3.14,2.59,2.14,1.67,4.58,3.55,7.36,5.41a94,94,0,0,0,9.28,5.57,67.39,67.39,0,0,0,11.15,4.7l.14,0c-1.29,0-4.9.13-5.18.17-3.9.58-11.08,4-11.8,8.35a5.22,5.22,0,0,0,5,5.92c3.11.2,6.17-2.11,8.09-4.34,2.17-2.52,4.17-9.43,4.33-10a92.11,92.11,0,0,0,12,2.67c2.37.38,4.76.68,7.17.95-1.12,0-2.12.08-2.25.11-3.9.58-11.09,4-11.81,8.34a5.23,5.23,0,0,0,5,5.93c3.11.19,6.17-2.12,8.09-4.35s3.78-8.12,4.24-9.67l2.77.29c4.44.44,8.87.87,13.2,1.42,1.52.19,3,.43,4.52.67-1,0-1.83.08-2,.1-3.89.58-11.08,4-11.8,8.34a5.23,5.23,0,0,0,5,5.93c3.11.19,6.17-2.12,8.09-4.35s3.59-7.55,4.15-9.4c1.53.3,3.06.59,4.52.94,1,.26,2,.45,3,.77l2.92.88c1.83.62,3.73,1.26,5.5,1.92,1.24.44,2.41.89,3.59,1.34-1.51-.21-4.49-.55-4.75-.55a20.31,20.31,0,0,0-9.8,2.9,6.41,6.41,0,0,0-1.16.1,5.22,5.22,0,0,0-4.3,6.47c1.21,4.24,8.75,6.8,12.69,6.92.23,0,2.76-.19,4.35-.34-.92.23-1.82.44-2.77.69-1.87.49-3.73,1-5.74,1.6l-2.89.93c-1,.3-2,.73-3,1.09-2.28.89-4.56,1.9-6.83,3-.43-1.64-2-7.45-3.87-9.76s-4.82-4.72-7.93-4.64a5.23,5.23,0,0,0-5.24,5.74c.56,4.38,7.62,8,11.5,8.77.24,0,3.07.25,4.64.33-1.36.66-2.72,1.3-4.08,2-3.91,2-7.8,4.21-11.7,6.37-1.19.67-2.38,1.31-3.58,2-.15-.58-1.9-7.53-4-10.12-1.84-2.3-4.82-4.72-7.93-4.63a5.22,5.22,0,0,0-5.24,5.74c.56,4.37,7.62,8,11.5,8.77.29.05,4.37.34,5.41.36-2.63,1.43-5.27,2.84-7.92,4.12a92.9,92.9,0,0,1-11,4.52c-.06-.28-1.86-7.54-4-10.19-1.83-2.3-4.81-4.72-7.92-4.63a5.22,5.22,0,0,0-5.24,5.74c.56,4.37,7.62,8,11.49,8.77.31.05,4.7.36,5.5.36l-.66.24A67.61,67.61,0,0,1,165,366.24c-2.19.29-4.3.44-6.35.54-.19-1.38-1.16-7.71-2.8-10.3s-4.27-5.22-7.37-5.48a5.21,5.21,0,0,0-5.83,5.13c.07,4.41,6.69,8.83,10.46,10,.2.06,2.35.46,3.93.73-.93,0-1.88.08-2.77.1-3.34.05-6.4-.1-9.1-.25-1.54-.11-2.93-.23-4.23-.36-.9-1.26-4.6-6.29-7.21-7.81s-6.19-2.66-9.06-1.46a5.22,5.22,0,0,0-2.82,7.24c2.11,3.88,10,4.76,13.89,4,.33-.06,5.45-1.64,5.41-1.71l-.06-.07c1.25.15,2.59.29,4,.42,2.71.22,5.78.44,9.13.45A93.26,93.26,0,0,0,165.1,367,67.29,67.29,0,0,0,177,364.72l.14-.05c-1.08.72-4,2.82-4.23,3-2.93,2.64-7,9.45-5.24,13.48a5.23,5.23,0,0,0,7.47,2.17C177.83,381.76,179.11,378.15,179.47,375.23Z" style="fill:#263238"></path><path d="M157.29,300c.05-.07-5.17-1.31-5.51-1.35-3.91-.47-11.74.93-13.58,4.94a5.22,5.22,0,0,0,3.28,7c2.94,1,6.51-.41,9-2.06C153.29,306.63,157.29,300,157.29,300Z" style="fill:#263238"></path><path d="M123.51,135.15c3.27-1.13,8.84-6.51,8.85-6.51s-4.67-2.6-5-2.72c-3.66-1.47-11.59-2.14-14.4,1.26a5.21,5.21,0,0,0,1.36,7.65C116.92,136.57,120.73,136.11,123.51,135.15Z" style="fill:#263238"></path><path d="M140.69,149.83c2.73-1.88,6.46-8,6.75-8.53A90.27,90.27,0,0,0,158.38,147c2.19,1,4.43,1.89,6.69,2.78-1.09-.25-2.07-.47-2.21-.49-3.91-.44-11.74,1-13.55,5a5.22,5.22,0,0,0,3.33,7c3,1,6.5-.46,8.93-2.12s5.74-6.87,6.59-8.26c.87.34,1.73.68,2.6,1,4.18,1.57,8.35,3.13,12.39,4.77,1.43.58,2.81,1.2,4.19,1.82-1-.22-1.78-.4-1.91-.41-3.91-.44-11.74,1-13.55,5a5.21,5.21,0,0,0,3.33,7c2.95,1,6.5-.45,8.93-2.11s5.42-6.37,6.44-8c1.4.67,2.8,1.35,4.13,2.07.89.51,1.79.94,2.66,1.5l2.59,1.6c1.61,1.08,3.28,2.18,4.82,3.28,1.08.75,2.1,1.48,3.12,2.22-1.41-.59-4.2-1.7-4.44-1.76-3.8-1-11.76-.79-14.16,2.91a5.23,5.23,0,0,0,2.23,7.45c2.77,1.42,6.5.53,9.15-.74,2.92-1.41,7.37-6.69,7.93-7.36,1.69,1.23,3.32,2.44,4.85,3.61q2,1.56,3.86,3l2-1.88c-1.36-1-2.8-2.1-4.34-3.23-1.71-1.25-3.57-2.56-5.49-3.88a56.14,56.14,0,0,0,2.51-6.17c3.32.26,9.52-1.56,10.31-1.8.74,2,1.43,3.87,2.06,5.68.43,1.25.84,2.45,1.22,3.61l2.16-2c-.3-.82-.6-1.65-.92-2.51-.74-2-1.57-4.11-2.44-6.27.73-.43,6.66-4,8.5-6.69,1.67-2.42,3.12-6,2.14-8.93a5.21,5.21,0,0,0-7-3.35c-4,1.8-5.49,9.62-5.06,13.54,0,.23.58,2.7.95,4.26-.36-.88-.7-1.74-1.08-2.64-.74-1.79-1.54-3.56-2.38-5.46-.45-.9-.89-1.82-1.34-2.74s-1-1.84-1.5-2.78c-1.2-2.14-2.52-4.25-3.9-6.34,1.57-.66,7.1-3.06,9.12-5.22s4-5.43,3.47-8.5a5.22,5.22,0,0,0-6.42-4.37c-4.25,1.17-6.89,8.68-7.06,12.61,0,.25.19,3.09.33,4.64-.84-1.25-1.67-2.51-2.56-3.75-2.57-3.58-5.28-7.13-8-10.68l-2.44-3.27c.56-.23,7.19-2.94,9.46-5.35,2-2.14,4-5.43,3.47-8.5a5.22,5.22,0,0,0-6.42-4.38c-4.25,1.17-6.89,8.68-7.06,12.62,0,.29.28,4.38.4,5.41-1.79-2.4-3.55-4.82-5.19-7.26a94.39,94.39,0,0,1-6-10.29c.26-.11,7.2-2.91,9.52-5.38,2-2.14,4-5.43,3.47-8.5a5.21,5.21,0,0,0-6.42-4.37c-4.25,1.17-6.89,8.67-7.06,12.61,0,.31.3,4.7.42,5.49-.11-.2-.24-.41-.33-.61A67.68,67.68,0,0,1,184.36,90c-.59-2.12-1-4.18-1.43-6.2,1.34-.39,7.47-2.24,9.81-4.23s4.56-5,4.38-8.07a5.22,5.22,0,0,0-5.9-5c-4.36.7-7.8,7.87-8.4,11.76,0,.22-.13,2.4-.17,4-.17-.91-.35-1.85-.49-2.73-.53-3.29-.81-6.34-1-9-.12-1.53-.2-2.93-.25-4.23,1.12-1.07,5.58-5.44,6.72-8.23s1.76-6.51.17-9.19A5.22,5.22,0,0,0,180.2,47c-3.54,2.63-3.3,10.58-2,14.31.1.32,2.39,5.17,2.45,5.12l.07-.07c0,1.26.07,2.6.15,4.07.17,2.72.38,5.78.84,9.1a91.13,91.13,0,0,0,2,10.63,67.5,67.5,0,0,0,3.89,11.47,1.39,1.39,0,0,0,.06.13c-.86-1-3.35-3.59-3.57-3.77-3-2.52-10.34-5.63-14.07-3.28a5.22,5.22,0,0,0-1.1,7.69c1.92,2.45,5.68,3.21,8.62,3.16,3.32,0,9.82-3.13,10.34-3.38a92,92,0,0,0,6,10.78c1.29,2,2.65,4,4,6-.77-.81-1.46-1.53-1.57-1.62-3-2.53-10.34-5.64-14.08-3.29a5.22,5.22,0,0,0-1.09,7.69c1.91,2.46,5.68,3.21,8.62,3.17s8.58-2.57,10.05-3.26c.54.76,1.07,1.52,1.62,2.27,2.61,3.62,5.24,7.21,7.7,10.81.87,1.27,1.68,2.56,2.49,3.84-.68-.72-1.26-1.32-1.36-1.41-3-2.52-10.35-5.63-14.08-3.28a5.22,5.22,0,0,0-1.1,7.69c1.92,2.45,5.68,3.21,8.62,3.16s8-2.32,9.79-3.13c.8,1.34,1.59,2.68,2.3,4,.47.92,1,1.77,1.39,2.72s.86,1.85,1.28,2.77c.75,1.79,1.53,3.63,2.22,5.39.49,1.22.93,2.4,1.37,3.58-.85-1.28-2.56-3.74-2.73-3.93a20.27,20.27,0,0,0-8.69-5.4,6.28,6.28,0,0,0-.83-.8,5.23,5.23,0,0,0-7.7,1.07c-2.36,3.73.72,11.06,3.24,14.09.15.18,2,1.94,3.15,3-.78-.54-1.54-1.07-2.36-1.61-1.6-1.08-3.24-2.12-5-3.24l-2.62-1.54c-.87-.54-1.85-1-2.78-1.5-2.18-1.12-4.45-2.15-6.76-3.14.95-1.41,4.23-6.46,4.73-9.37s.34-6.74-1.79-9a5.22,5.22,0,0,0-7.77-.11c-2.9,3.33-1,11,1.07,14.42.13.21,1.86,2.47,2.83,3.69-1.39-.58-2.78-1.17-4.2-1.72-4.12-1.57-8.34-3-12.54-4.51l-3.84-1.38c.34-.5,4.37-6.42,4.94-9.69.5-2.89.33-6.73-1.8-9a5.21,5.21,0,0,0-7.76-.11c-2.9,3.33-1,11,1.07,14.42.15.25,2.64,3.5,3.32,4.29-2.82-1-5.62-2.06-8.34-3.19a91.65,91.65,0,0,1-10.7-5.26c.16-.23,4.39-6.39,5-9.73.5-2.9.33-6.74-1.79-9a5.22,5.22,0,0,0-7.77-.1c-2.9,3.32-1,11,1.07,14.41.16.27,2.84,3.76,3.37,4.35-.2-.11-.42-.21-.61-.33a67.4,67.4,0,0,1-9.61-7.11c-1.66-1.45-3.17-2.92-4.61-4.39.9-1.06,5-6,5.85-8.93s1.07-6.66-.8-9.15a5.21,5.21,0,0,0-7.71-1c-3.25,3-2.17,10.87-.52,14.44.09.2,1.22,2.08,2.06,3.43-.64-.67-1.31-1.35-1.91-2-2.26-2.45-4.17-4.84-5.85-7-.95-1.22-1.78-2.34-2.54-3.4.34-1.51,1.65-7.61,1.06-10.57s-2.12-6.4-4.92-7.75a5.22,5.22,0,0,0-7.29,2.7c-1.51,4.14,3.09,10.64,6.2,13.06.27.21,4.85,3,4.87,2.91a.51.51,0,0,1,0-.09c.71,1,1.49,2.13,2.37,3.31,1.64,2.17,3.51,4.61,5.72,7.12a91.66,91.66,0,0,0,7.52,7.78A69.56,69.56,0,0,0,146.9,141l.13.07c-1.25-.33-4.78-1.14-5.05-1.17-3.92-.45-11.74,1-13.56,5a5.22,5.22,0,0,0,3.33,7C134.7,152.93,138.26,151.49,140.69,149.83Z" style="fill:#263238"></path><path d="M182.24,83.3c.08,0-2.45-4.74-2.65-5-2.24-3.24-8.49-8.17-12.71-6.89a5.23,5.23,0,0,0-3.09,7.13c1.2,2.88,4.63,4.6,7.48,5.33C174.62,84.71,182.23,83.3,182.24,83.3Z" style="fill:#263238"></path><path d="M423.74,39.53c.77,3.16,5.33,8.86,5.33,8.86s2.84-4.14,3-4.43c1.69-3.3,3-10.68.07-13.61a4.92,4.92,0,0,0-7.29.61C423,33.23,423.08,36.84,423.74,39.53Z" style="fill:#263238"></path><path d="M408.48,54.36c1.52,2.73,7,6.75,7.4,7.07a87.72,87.72,0,0,0-6.28,9.77c-1.1,2-2.15,4-3.18,6,.33-1,.62-1.89.65-2,.75-3.63.08-11.1-3.53-13.15a4.92,4.92,0,0,0-6.88,2.51c-1.18,2.68-.14,6.14,1.21,8.56s5.94,6,7.17,6.9l-1.17,2.36c-1.84,3.77-3.65,7.55-5.55,11.2-.67,1.28-1.37,2.52-2.07,3.77.29-.89.53-1.64.55-1.76.76-3.63.09-11.09-3.53-13.15A4.93,4.93,0,0,0,386.4,85c-1.18,2.69-.14,6.15,1.21,8.57s5.5,5.63,6.95,6.73c-.76,1.25-1.52,2.51-2.3,3.69-.56.8-1,1.6-1.65,2.37l-1.73,2.29c-1.15,1.41-2.33,2.88-3.49,4.23-.79,1-1.57,1.84-2.35,2.74.67-1.28,1.95-3.8,2-4,1.29-3.47,1.76-11-1.5-13.53a4.92,4.92,0,0,0-7.18,1.44c-1.57,2.47-1.07,6.05-.1,8.65,1.06,2.86,5.63,7.49,6.2,8.07-1.3,1.48-2.57,2.91-3.8,4.23s-2.15,2.31-3.16,3.37l1.58,2.07c1.09-1.19,2.22-2.44,3.41-3.79,1.32-1.5,2.71-3.12,4.12-4.8a53.69,53.69,0,0,0,5.57,2.89c-.54,3.09.63,9,.78,9.82-1.9.52-3.75,1-5.51,1.43-1.2.3-2.37.58-3.49.84l1.68,2.19,2.43-.64c1.93-.52,4-1.11,6.09-1.74.34.72,3.19,6.59,5.53,8.55,2.13,1.78,5.33,3.45,8.19,2.79a4.91,4.91,0,0,0,3.75-6.28c-1.34-3.93-8.54-6-12.25-5.93-.22,0-2.59.3-4.08.52.86-.26,1.69-.5,2.57-.78,1.75-.54,3.47-1.13,5.33-1.76l2.68-1c.9-.32,1.82-.77,2.74-1.16,2.11-.94,4.2-2,6.29-3.1.48,1.52,2.25,6.92,4.09,9s4.74,4.22,7.67,4a4.92,4.92,0,0,0,4.66-5.64c-.73-4.09-7.54-7.22-11.21-7.72-.23,0-2.91-.09-4.38-.1,1.25-.68,2.5-1.35,3.74-2.07,3.58-2.1,7.15-4.33,10.71-6.54,1.09-.68,2.19-1.34,3.28-2,.16.54,2.13,7,4.19,9.33,1.84,2.08,4.75,4.22,7.67,4A4.9,4.9,0,0,0,448,120.5c-.72-4.09-7.53-7.22-11.21-7.72-.28,0-4.13-.12-5.11-.1,2.41-1.46,4.82-2.91,7.26-4.23a88,88,0,0,1,10.18-4.76c.07.26,2.1,7,4.21,9.4,1.83,2.08,4.74,4.22,7.67,4a4.93,4.93,0,0,0,4.66-5.64c-.73-4.09-7.54-7.22-11.21-7.72-.29,0-4.44-.13-5.19-.1.2-.07.4-.18.61-.25a63,63,0,0,1,10.88-2.85c2.05-.37,4-.61,6-.8.24,1.29,1.44,7.2,3.11,9.56s4.25,4.72,7.18,4.82a4.92,4.92,0,0,0,5.25-5.1c-.27-4.14-6.7-8-10.3-8.9-.19,0-2.24-.33-3.73-.51.87-.07,1.77-.16,2.6-.22,3.14-.2,6-.2,8.58-.18,1.45,0,2.76.08,4,.14.9,1.14,4.62,5.71,7.13,7s5.95,2.22,8.6,1a4.92,4.92,0,0,0,2.31-6.94c-2.15-3.55-9.63-4-13.24-3.16-.31.07-5.06,1.79-5,1.85l.05.07c-1.18-.08-2.44-.15-3.83-.21-2.55-.08-5.45-.14-8.6,0a86.42,86.42,0,0,0-10.14.93,64.51,64.51,0,0,0-11.09,2.65l-.13,0c1-.72,3.65-2.83,3.84-3,2.63-2.61,6.19-9.21,4.31-12.91a4.92,4.92,0,0,0-7.12-1.7c-2.47,1.58-3.5,5-3.72,7.81-.24,3.11,2.09,9.48,2.27,10a89,89,0,0,0-10.62,4.68c-2,1-4,2.14-6,3.27.83-.65,1.56-1.24,1.66-1.33,2.63-2.61,6.18-9.21,4.3-12.91a4.91,4.91,0,0,0-7.11-1.7c-2.47,1.58-3.51,5-3.72,7.8s1.66,8.27,2.17,9.71c-.75.45-1.51.88-2.27,1.32-3.61,2.14-7.21,4.29-10.81,6.28-1.26.71-2.53,1.35-3.81,2,.74-.58,1.35-1.08,1.44-1.16,2.63-2.61,6.19-9.21,4.31-12.91a4.91,4.91,0,0,0-7.12-1.7c-2.47,1.58-3.51,5-3.72,7.8s1.48,7.74,2.08,9.45c-1.32.63-2.64,1.26-3.95,1.81-.91.36-1.75.76-2.68,1.07l-2.7,1c-1.74.54-3.54,1.12-5.25,1.6-1.19.35-2.33.67-3.48,1,1.27-.68,3.73-2.08,3.92-2.22a19.13,19.13,0,0,0,5.83-7.67,6.22,6.22,0,0,0,.82-.72,4.91,4.91,0,0,0-.34-7.31c-3.28-2.54-10.43-.28-13.49,1.81-.18.13-2,1.69-3.11,2.69.57-.69,1.13-1.35,1.71-2.07,1.16-1.41,2.27-2.86,3.47-4.4.56-.77,1.11-1.55,1.68-2.33s1.09-1.65,1.64-2.48c1.24-2,2.41-4,3.54-6.06,1.24,1,5.69,4.53,8.38,5.26s6.28.9,8.6-.9a4.92,4.92,0,0,0,.78-7.28c-2.87-3-10.27-1.86-13.62-.25-.2.1-2.47,1.52-3.7,2.33.66-1.25,1.34-2.5,2-3.79,1.84-3.72,3.58-7.55,5.33-11.36.54-1.17,1.09-2.32,1.63-3.48.44.36,5.64,4.66,8.65,5.47,2.67.72,6.28.9,8.6-.9a4.91,4.91,0,0,0,.78-7.27c-2.87-3-10.27-1.87-13.61-.26-.26.13-3.52,2.18-4.32,2.74,1.2-2.55,2.42-5.08,3.72-7.53a88,88,0,0,1,5.86-9.58c.21.17,5.62,4.68,8.7,5.51,2.67.72,6.28.9,8.6-.9a4.91,4.91,0,0,0,.78-7.27c-2.87-3-10.27-1.87-13.61-.26-.27.13-3.77,2.34-4.38,2.79.13-.18.24-.37.36-.55a63.24,63.24,0,0,1,7.52-8.38c1.49-1.44,3-2.73,4.51-4,.92.94,5.18,5.21,7.87,6.26S443,57,445.5,55.5a4.92,4.92,0,0,0,1.57-7.15c-2.52-3.31-10-3-13.5-1.75-.19.07-2.05,1-3.4,1.64.69-.54,1.39-1.11,2.05-1.62,2.5-1.9,4.91-3.49,7-4.88,1.23-.78,2.35-1.46,3.41-2.09,1.38.46,7,2.22,9.82,1.92s6.19-1.43,7.7-3.94a4.91,4.91,0,0,0-1.9-7.06c-3.76-1.78-10.25,2-12.79,4.67-.21.23-3.22,4.28-3.15,4.31l.08,0c-1,.59-2.13,1.22-3.31,1.94C437,42.86,434.5,44.4,432,46.25A88.07,88.07,0,0,0,424,52.63,64.2,64.2,0,0,0,416.22,61l-.08.12c.42-1.15,1.48-4.38,1.54-4.64.75-3.63.08-11.09-3.53-13.15a4.94,4.94,0,0,0-6.88,2.51C406.09,48.48,407.13,51.94,408.48,54.36Z" style="fill:#263238"></path><path d="M467.24,99.12c0,.08,4.66-1.89,4.94-2,3.23-1.83,8.4-7.25,7.56-11.32a4.91,4.91,0,0,0-6.41-3.52c-2.8.88-4.72,3.94-5.65,6.55C466.58,91.85,467.24,99.12,467.24,99.12Z" style="fill:#263238"></path></g><g id="freepik--earth-globe--inject-9"><circle cx="288.99" cy="192.8" r="151.72" transform="translate(-51.69 260.81) rotate(-45)" style="fill:#407BFF"></circle><path d="M288.69,345.08A152.37,152.37,0,0,1,140.39,225.8C122.19,143.87,174.05,62.4,256,44.2s163.41,33.67,181.6,115.6A152.22,152.22,0,0,1,322,341.4,153.38,153.38,0,0,1,288.69,345.08Zm.59-303.55a152.68,152.68,0,0,0-33.08,3.65c-81.4,18.08-132.91,99-114.84,180.41A151.17,151.17,0,1,0,289.28,41.53Z" style="fill:#263238"></path><path d="M283.23,336.83a143.23,143.23,0,0,1-24.82-3.17l.22-1a143,143,0,0,0,24.64,3.14Z" style="fill:#263238"></path><path d="M252.35,332.2c-4.24-1.11-8.48-2.44-12.6-3.95l.34-.93c4.1,1.49,8.31,2.81,12.51,3.92Z" style="fill:#263238"></path><path d="M234.54,326.24a144.21,144.21,0,0,1-84.19-172.87l1,.27a143.2,143.2,0,0,0,83.6,171.67Z" style="fill:#263238"></path><path d="M157.34,136.67l-.92-.4a145.31,145.31,0,0,1,13.31-24.36l.83.56A144.1,144.1,0,0,0,157.34,136.67Z" style="fill:#263238"></path><polygon points="268.43 125.42 283.9 128.62 289.17 134.09 296.04 135.15 298.23 141.67 296.63 146.08 291.94 148.23 280.46 146.35 280.15 144.95 285.57 141.16 281.83 134.25 271.56 132.84 266.09 128.15 268.43 125.42" style="fill:#fff"></polygon><path d="M292,148.75l-12-2-.46-2.06,5.34-3.72-3.41-6.3-10.17-1.39-6-5.11,2.86-3.34,15.91,3.3,5.26,5.45,7,1.08,2.34,7L297,146.45Zm-11.14-2.83,11,1.79,4.36-2,1.47-4.06-2-6.06-6.74-1-5.29-5.48-15-3.11-1.83,2.13,5,4.26,10.38,1.43,4.08,7.53-5.52,3.85Z" style="fill:#263238"></path><path d="M393.08,268.15l-12.26-2.07L366,264.2l-10.89,2.42-10.67.15-10.7,5-6.25,1.76-3.86.86-6.45,5.86-6.4,4.37L300,280.71l.27-10.39-6.52-1.13-7,1.56-1.76-2.93-.7-6.48-3.24-3-4.77,1.79L275.6,264l-5.9,1.68L263,260.51l-4-8,3.09-11L272.48,240l3.36,1.84,4.21-.94,4.57-4.33,4.89.39,8.74,9.49,2.39-.9-2.5-7.93-3.05-3.75-.78-6.83,11.76-8.51-1.13-13.4,4.61-5.82,2.77-9.1,3.36-1.48,6.91-7.07-.27-2.89-5.54,1.6-1.68-2.58-3.87.86-5.66,2.73,1.79-5.19,11.53-6.25,2.11-3.79,6.63,6.64,3.87,2.46,4.61-2.49L333,168.62,324.43,165l-10.54-7.62-10.12-4-8.75.47-5.15-3.28-5.94-.16-.39,1.56,1.56,10.35,2.19,3.2-.67,11.95-8.27-4.06,0-5.15-8.17-1.88-4-3.16-.19-9.18,8.55-9.65-1.17-8.59L269.52,137l-3.16-2.62-2.23-5-2.53.2-.16,5.94L257.73,137l-4.49-11.92L250,124l-5.39-1-5,4.06,8.51,5.11,2.73,5.67-14.76-6.68-10.89-7.54-2.82-9.34-9.76-.78-6,6.13a55.59,55.59,0,0,1-4.65,4c-1.6,1.1-8.13,3.28-8.13,3.28l-.08,6.29-8,2.15,1.56,3.71,13.47-.78,8.32,5.9,2.73,12.3-1.44,11.76,3.28,11.44-6,19.41,3.59,26.13,6.44,14.06,7.07,10.24,5.43-.47-3-5.24-3.75-3.59L220,232.82l3-1.41L230.73,243l6,10.47,2,9.14,8.47,6.6,13.91,6.14,19.37.86,6.79,4,5.47,4.69,7.19,2.46,8.2.39,7.65-2.07s.43,3.6.82,5.35-3.2,8.83-3.2,8.83l-2.31,7.89,4.53,7.11,8.44,1.45,13.39,8.82,5.39,1,1.17,5.27,1.16,2.32a151.11,151.11,0,0,0,66-51.08l-.38-2.59,5.66-19.33-5.27-2.15Z" style="fill:#fff"></path><path d="M345,334.37l-1.4-2.85-1.1-4.95-5.25-1-13.31-8.77-8.55-1.47-4.77-7.48,2.37-8.11c1.39-2.76,3.45-7.42,3.19-8.58-.3-1.35-.61-3.73-.75-4.82l-7.18,1.94-8.42-.43-7.35-2.55L287,280.58l-6.62-3.91-19.43-.9-14-6.19-8.62-6.72-2-9.24-6-10.4-7.47-11.17-2.17,1,3.22,6.8,3.77,3.64,3.4,5.92-6.5.56-7.23-10.47-6.53-14.28L207.18,199l6-19.37-3.26-11.4,1.45-11.77-2.68-12-8-5.69-13.66.79L185.1,135l8.2-2.19.08-6.27.33-.11c.07,0,6.48-2.18,8-3.22a54.31,54.31,0,0,0,4.59-3.93l6.17-6.29,10.34.83,2.85,9.5,10.76,7.44,13.42,6.06-2.07-4.28-9-5.41,5.73-4.66,5.62,1.06,3.49,1.23L258,136.35l2.94-1.23.16-6.06,3.34-.26,2.32,5.25,2.86,2.37,4.1-1.31,1.28,9.41-8.58,9.67.19,8.75,3.75,2.95,8.43,1.94,0,5.24,7.33,3.59.61-11-2.17-3.26L283,151.92l.52-2L290,150l5.14,3.27,8.7-.47L314.18,157l10.5,7.58,8.62,3.67,3.56,4.67-5.38,2.91-4.2-2.68-6.17-6.18-1.86,3.34-11.48,6.23-1.34,3.87,4.69-2.25,4.21-.93,1.66,2.56,5.77-1.67.35,3.72-7.23,7.34-3.15,1.4-2.79,9-4.49,5.66,1.14,13.48-11.75,8.51.73,6.4,3,3.8,2.65,8.38L298.11,247l-8.84-9.6-4.46-.36-4.51,4.28-4.54,1-3.38-1.85L262.52,242l-2.95,10.52,3.85,7.69,6.39,4.93,5.35-1.52.62-3.8,5.32-2,3.61,3.31.71,6.56,1.51,2.52,6.78-1.5,7,1.22-.27,10.46L310.71,284l6.2-4.23,6.49-5.9,4-.89,6.23-1.75,10.83-5,10.61-.15L366,263.69l14.89,1.89L393,267.63l18.21-9.6,5.91,2.41-5.76,19.66.4,2.68-.12.17A151.68,151.68,0,0,1,345.4,334.2Zm-.44-3.13.93,1.86a150.78,150.78,0,0,0,65.25-50.58l-.37-2.49,0-.11,5.54-18.9-4.64-1.89-18.11,9.54-12.43-2.1L366,264.71l-10.92,2.41-10.55.15L334,272.19,327.64,274l-3.77.84-6.34,5.77-6.67,4.56-11.4-4.08.27-10.32-6-1-7.28,1.62-2-3.45-.69-6.29-2.87-2.64-4.21,1.59-.63,3.86-6.45,1.83-7-5.48-4.07-8.14,3.22-11.51,10.84-1.64,3.34,1.83,3.9-.87,4.63-4.39,5.3.43,8.65,9.38,1.63-.61-2.33-7.39L294.61,234l-.83-7.27,11.77-8.51-1.13-13.32,4.68-5.9,2.81-9.22,3.48-1.54,6.69-6.84-.2-2.05-5.32,1.53-1.69-2.6-3.48.78-6.69,3.23,2.25-6.52,11.57-6.27,2.36-4.24,7.07,7.07,3.57,2.28,3.84-2.09L332.67,169l-8.53-3.63-10.49-7.59-10-4-8.8.47L289.72,151l-5.4-.14-.27,1.07,1.53,10.14,2.22,3.25-.72,12.88-9.23-4.54,0-5.07-8-1.88-4.2-3.31-.21-9.61L274,144.2l-1.06-7.77-3.48,1.11L266,134.67l-2.13-4.82-1.74.13-.15,5.81-4.49,1.89-4.59-12.18-3-1.06-5.09-1L240.52,127l8,4.82,3.39,7-16-7.25-11.12-7.68L222,114.71l-9.19-.73-5.85,6a56,56,0,0,1-4.72,4c-1.45,1-6.54,2.75-7.91,3.22l-.08,6.32-7.82,2.09,1.2,2.86,13.3-.77,8.62,6.11,2.79,12.58-1.44,11.74,3.29,11.49-6,19.44,3.56,26,6.41,14,6.86,9.92,4.36-.37-2.58-4.49-3.8-3.7-3.69-7.79,3.85-1.8,8,11.92,6.09,10.63,2,9,8.28,6.45,13.76,6.07,19.4.86,6.91,4.09,5.46,4.68,7,2.41,8.05.38,8.14-2.2.07.57s.43,3.59.81,5.31-2.63,7.95-3.25,9.16l-2.2,7.58,4.29,6.73,8.4,1.49,13.32,8.77,5.61,1.06Z" style="fill:#263238"></path><path d="M398.8,121.18l-5.35-5.82-6.64-6.64-3.74-10.23,6.56-.35-.43-3.6-4.65.67L388,92.59l3.67-3.4-.78-3.51L385.45,81l-2.58-7.37a151.81,151.81,0,0,0-183.18-3.51l9.38,3.94-3.51,7.42-6.37,2.89L200.6,94,198,95.69l-2.66,4.64,1.76,6.25,6.13-.62-1.13,6.52,6-1.33,7.31-15.27L215.2,90l9.69-2.89,1.52-4.77,10-3.32-.27-6.21,7.3-2s4.65-4,5.71-4.21,6.36.43,6.36.43l6.21,3,7.38-1.63,5.47-5.28,8.24-1.09a8.91,8.91,0,0,0,4.18.55c1.76-.39,6.49-4,6.49-4L305,62.7,310,64.93l1.17,5.27,5.43-.47,1.05-3.55,5,1.09.27,2.89L313,75.32l7.69,6.4,14.22,4.22,6.84,5.86,7.88-1,1-3.91,2.66-1.33-10.7-5-5.78.55L341,78.68l-5.54-5L341.4,72l8.67,2.5,3.63,8.05,4.88,3.71L364,95.71l9,3.91,2.58,11.6,9.25,3.48.51,3.94,0,4.8,3.51,5.86,1.41,3,6.21-.27,1.48-6.6Z" style="fill:#fff"></path><path d="M389.9,132.82l-1.55-3.31-3.56-5.93,0-4.94-.47-3.58-9.22-3.47L372.56,100l-8.91-3.87-5.45-9.54-4.91-3.73-3.58-8-8.31-2.4-4.9,1.4,5.39,4.89-2.83,1.61,3.6-.34,11.76,5.5L351,87.23l-1,4-8.45,1.09-6.92-5.94-14.29-4.28-8.28-6.89,10.29-5.35-.2-2.19L318,66.76l-1,3.44-6.21.53-1.21-5.45-4.69-2.12-11.3-4c-1,.77-4.81,3.58-6.47,3.95a8.89,8.89,0,0,1-4.34-.53l-8,1.06-5.45,5.25-7.69,1.71-6.29-3.09a39.93,39.93,0,0,0-6.11-.43c-.59.13-3.25,2.2-5.49,4.11l-.19.11-6.92,1.88.27,6.19-10.08,3.36-1.52,4.77-9.57,2.86L215.9,96l-7.46,15.6-6.94,1.54,1.14-6.61-5.89.6-1.93-6.85,2.82-4.94,2.41-1.57-1.41-9.7,6.54-3,3.22-6.78-9.72-4.08.72-.52a152.28,152.28,0,0,1,183.78,3.52l.11.09,2.59,7.38,5.49,4.71.88,4L388.37,93l-2,1.48,3.23-.46.56,4.63-6.42.34,3.48,9.49,6.56,6.57,5.53,6-.95,4.51-1.57,7Zm-4.11-9.51,3.44,5.74,1.29,2.75,5.49-.25,1.41-6.22.84-4-5.18-5.63-6.74-6.81-4-10.87,6.71-.35-.31-2.56L382.7,96l5-3.79L391.15,89,390.47,86,385,81.28l-2.57-7.35A151.31,151.31,0,0,0,200.71,70l9,3.8-3.82,8.06-6.19,2.81,1.4,9.59L198.39,96l-2.49,4.36,1.58,5.64,6.37-.64-1.11,6.43,5-1.11,7.14-14.94-.2-6.12,9.8-2.93L226,82l9.85-3.28-.28-6.23,7.58-2.07c1-.82,4.75-4,5.84-4.25s6,.35,6.53.42l.16.05,6.06,3L268.82,68l5.48-5.29,8.53-1.13.12,0a8.33,8.33,0,0,0,3.89.53c1.36-.3,5-2.94,6.29-3.93l.22-.17,11.85,4.16,5.19,2.34,1.13,5.09,4.65-.4,1.09-3.67,5.85,1.27.34,3.59-9.55,5,7,5.86,14.3,4.29,6.66,5.72,7.33-1,.95-3.79,1.94-1-9.64-4.51-8,.76,5.69-3.24-5.7-5.17,6.9-2,9,2.61,3.67,8.14L359,86l5.35,9.35,9.06,3.94L376,110.85l9.29,3.48.54,4.25Z" style="fill:#263238"></path><path d="M395.51,84.75l.45,2-.51,6,2.14,4.68,4.18.55,1.49,6.68-4.61-.82,3.16,19.21-2.5,8.67,5,9.22,5.5,3.21,4.22,19,7.85,13.75,7.42,10.15,8.55.32,1.25-7.66.95-1.15a154,154,0,0,0-2.95-18.67A151.07,151.07,0,0,0,395.51,84.75Z" style="fill:#fff"></path><path d="M438.27,187.9l-9.23-.34-7.57-10.35-7.93-13.93-4.17-18.77-5.44-3.17-5.16-9.52,2.53-8.76L398,103.26l4.57.82-1.25-5.61-4.1-.54-2.32-5.05.51-6.07-.8-3.6,1.21,1.19a152.5,152.5,0,0,1,44.68,94.13l0,.21-1,1.21Zm-8.71-1.32,7.87.29,1.2-7.35.9-1.1a154.15,154.15,0,0,0-2.92-18.4,150.66,150.66,0,0,0-40.24-73.71l.09.43-.5,6,2,4.31,4.26.56,1.72,7.75-4.65-.83,3.06,18.63-2.47,8.59,4.83,8.91,5.57,3.24L414.5,163l7.81,13.68Z" style="fill:#263238"></path><polygon points="313.82 100.59 288.35 95.54 278.24 98.16 277.26 105.38 272.03 101.75 264.69 105.23 266.56 116.98 273.9 120.15 276.99 112.45 283.43 116.56 296.44 123.63 300.81 133.35 312.52 142.92 326.74 137.18 325.22 131.99 320.73 126.72 316.9 112.81 319.09 106.05 313.82 100.59" style="fill:#fff"></polygon><path d="M312.44,143.5l-12-9.84L296.05,124l-12.86-7-6-3.79-3.06,7.61-8.06-3.48-2-12.39,7.95-3.76,4.8,3.33.91-6.75L288.34,95l.11,0,25.62,5.08,5.59,5.79-2.24,6.9,3.76,13.66,4.52,5.37,1.65,5.63ZM301.22,133l11.39,9.31,13.52-5.46-1.36-4.66-4.52-5.38-3.87-14,2.14-6.61-4.95-5.14-25.2-5-9.68,2.5-1,7.7L272,102.33l-6.74,3.19L267,116.63l6.62,2.86,3.12-7.78,6.95,4.42,13.12,7.14Z" style="fill:#263238"></path><polygon points="334.52 104.1 328.93 103.87 325.22 108.75 329.95 118.4 334.52 117.38 334.52 104.1" style="fill:#fff"></polygon><path d="M329.67,119l-5-10.28,4.05-5.33,6.33.26v14.16Zm-3.86-10.16,4.41,9L334,117v-12.4l-4.85-.2Z" style="fill:#263238"></path><polygon points="368.69 103.52 355.33 99.85 351.94 96.18 349.36 97.86 353.38 104.34 357.52 113.01 363.26 113.95 364 112.31 359.67 107.74 369.59 109.22 368.69 103.52" style="fill:#fff"></polygon><path d="M363.56,114.5l-6.38-1-4.25-8.9-4.25-6.85L352,95.53l3.59,3.87,13.53,3.73,1.05,6.69L361,108.45l3.57,3.76Zm-5.7-1.94,5.1.83.45-1-5.1-5.38,10.68,1.6-.74-4.71-13.18-3.63-3.21-3.46L350,98l3.77,6.07Z" style="fill:#263238"></path><polygon points="294.23 253.22 293.14 254.93 304.38 255.75 309.69 259.74 316.53 258.96 318.13 254.55 309.74 254.94 294.23 253.22" style="fill:#fff"></polygon><path d="M309.55,260.26l-5.35-4-11.94-.87,1.72-2.69,15.81,1.76,9.07-.43-2,5.41ZM294,254.5l10.56.77,5.27,4,6.33-.72,1.24-3.42-7.65.35-15.28-1.68Z" style="fill:#263238"></path><polygon points="327 252.95 320.08 256.69 321.76 259.27 330.9 257.24 332.04 254.04 328.95 255.09 327 252.95" style="fill:#fff"></polygon><path d="M321.53,259.84l-2.16-3.33,7.73-4.19,2,2.2,3.75-1.29-1.57,4.44Zm-.73-3,1.19,1.83,8.53-1.89.7-2-2.42.82-1.91-2.1Z" style="fill:#263238"></path></g><g id="freepik--Text--inject-9"><path d="M224.15,464.31h-4.74V434.16h4.74v12.92h5.39V434.16h4.82v30.15h-4.82V451.39h-5.39Z" style="fill:#263238"></path><path d="M242.54,446.87h6.51v4.31h-6.51V460h8.19v4.3H237.8V434.16h12.93v4.31h-8.19Z" style="fill:#263238"></path><path d="M269,464.31h-4.78l-.82-5.47h-5.82l-.81,5.47H252.4l4.83-30.15h6.93Zm-10.81-9.56h4.56l-2.28-15.25Z" style="fill:#263238"></path><path d="M271.18,434.16h4.74V460h7.8v4.3H271.18Z" style="fill:#263238"></path><path d="M282.25,434.16H296.9v4.31h-5v25.84h-4.73V438.47h-5Z" style="fill:#263238"></path><path d="M303.7,464.31H299V434.16h4.74v12.92h5.38V434.16h4.83v30.15h-4.83V451.39H303.7Z" style="fill:#263238"></path><path d="M324,434.16h7.49c4.74,0,7.07,2.63,7.07,7.45v15.25c0,4.83-2.33,7.45-7.07,7.45H324Zm4.74,4.31V460h2.67c1.5,0,2.41-.78,2.41-2.93V441.4c0-2.16-.91-2.93-2.41-2.93Z" style="fill:#263238"></path><path d="M356.89,464.31h-4.78l-.82-5.47h-5.81l-.82,5.47h-4.35l4.82-30.15h6.94Zm-10.81-9.56h4.56l-2.28-15.25Z" style="fill:#263238"></path><path d="M361.41,454.32l-6-20.16h5L364,447.9l3.61-13.74h4.53l-6,20.16v10h-4.74Z" style="fill:#263238"></path><path d="M231.68,426.68h-2.39l-9.42-52.36h1.64l9.13,50.11,9.05-49.81h2l8.52,49.51,8.83-49.81h1.5l-9.28,52.36h-2.17l-8.45-48.47Z" style="fill:#263238"></path><path d="M266.24,387.18c0-7.33,3.14-13.24,11.07-13.24s11.22,5.91,11.22,13.24v26.63c0,7.33-3.14,13.24-11.22,13.24s-11.07-5.91-11.07-13.24Zm1.65,26.71c0,6.43,2.46,11.67,9.42,11.67s9.57-5.24,9.57-11.67V387.11c0-6.43-2.54-11.67-9.57-11.67s-9.42,5.24-9.42,11.67Z" style="fill:#263238"></path><path d="M304.84,374.32c7.78,0,10.77,4.56,10.77,11.74v4.71c0,6.44-2.55,10-8.31,11,5.84.9,8.31,4.71,8.31,10.47v8.23c0,2,.22,4.56,1.42,6.21h-1.8c-1-1.65-1.27-4-1.27-6.21v-8.23c0-7.7-4.64-9.72-11.44-9.72h-6.43v24.16h-1.65V374.32ZM302.52,401c7.25,0,11.44-1.87,11.44-9.95v-4.79c0-6.36-2.47-10.32-9.2-10.32h-8.67V401Z" style="fill:#263238"></path><path d="M322.86,426.68V374.32h1.65v50.79h17.58v1.57Z" style="fill:#263238"></path><path d="M358.69,374.32c8,0,11.37,5.61,11.37,13.09v26.25c0,7.41-3.37,13-11.3,13h-11V374.32Zm0,50.79c7,0,9.72-4.86,9.72-11.37V387.33c0-6.58-2.76-11.44-9.72-11.44h-9.28v49.22Z" style="fill:#263238"></path></g><g id="freepik--Character--inject-9"><ellipse cx="382.26" cy="239.65" rx="10.26" ry="16.58" style="fill:#263238"></ellipse><path d="M382.26,256.73c-5.93,0-10.76-7.66-10.76-17.08s4.83-17.08,10.76-17.08S393,230.23,393,239.65,388.19,256.73,382.26,256.73Zm0-33.16c-5.38,0-9.76,7.21-9.76,16.08s4.38,16.08,9.76,16.08,9.75-7.21,9.75-16.08S387.64,223.57,382.26,223.57Z" style="fill:#263238"></path><path d="M391.28,239.65c0,5-2.51,9.06-5.6,9.06s-5.61-4.05-5.61-9.06,2.51-9.06,5.61-9.06S391.28,234.65,391.28,239.65Z" style="fill:#fff"></path><path d="M385.68,249.21c-3.37,0-6.11-4.29-6.11-9.56s2.74-9.56,6.11-9.56,6.1,4.29,6.1,9.56S389,249.21,385.68,249.21Zm0-18.12c-2.82,0-5.11,3.84-5.11,8.56s2.29,8.56,5.11,8.56,5.1-3.84,5.1-8.56S388.49,231.09,385.68,231.09Z" style="fill:#263238"></path><path d="M387.39,264.1s-1,7.18,1.36,8.89,7.87,5.47,9.92,4.78,1.71-6.15,1-7.52S387.39,264.1,387.39,264.1Z" style="fill:#fff"></path><path d="M398.12,278.35c-1.83,0-5-1.63-9.66-5-2.56-1.84-1.68-8.61-1.57-9.37l.09-.64.6.25c2.76,1.14,11.85,5,12.56,6.39a10.8,10.8,0,0,1,.08,6.74,2.38,2.38,0,0,1-1.39,1.48A2.26,2.26,0,0,1,398.12,278.35ZM387.8,264.81c-.23,2.25-.34,6.64,1.24,7.77,6.79,4.85,8.88,4.92,9.47,4.72a1.44,1.44,0,0,0,.79-.91,9.93,9.93,0,0,0-.05-5.91C398.82,269.73,393.2,267.06,387.8,264.81Z" style="fill:#263238"></path><path d="M388.07,255.55s-4.1,8.55-1.71,10.26,14.36,6.15,17.1,6.15,3.42-6.15.68-8.55S388.07,255.55,388.07,255.55Z" style="fill:#fff"></path><path d="M403.46,272.46c-2.88,0-14.92-4.48-17.39-6.25-2.66-1.89,1.11-10,1.55-10.88l.2-.42.44.18c.55.22,13.44,5.53,16.21,8,2,1.72,2.31,5.13,1.5,7.3A2.8,2.8,0,0,1,403.46,272.46ZM388.32,256.2c-1.47,3.19-3.1,8.18-1.67,9.2,2.24,1.6,14.19,6.06,16.81,6.06.89,0,1.37-.92,1.57-1.47.7-1.87.38-4.8-1.22-6.2C401.44,261.72,390.64,257.16,388.32,256.2Z" style="fill:#263238"></path><path d="M403.8,250.42s-14.36-3.42-15.39-1-3.76,5.13-1.37,7.52,18.81,11.28,20.52,9.57,1-14.36,0-15A12.3,12.3,0,0,0,403.8,250.42Z" style="fill:#fff"></path><path d="M406.8,267.18c-4.43,0-18.38-8.18-20.11-9.91-2.1-2.1-.73-4.48.37-6.39a17.42,17.42,0,0,0,.89-1.68c1.11-2.57,12.44-.1,15.94.73a12.1,12.1,0,0,1,3.95,1.1c.2.14.68.46,1,4,.32,3.24.51,10.39-1,11.86A1.58,1.58,0,0,1,406.8,267.18ZM391.26,249c-1.34,0-2.22.17-2.39.56a17.11,17.11,0,0,1-.94,1.79c-1.26,2.19-2,3.73-.53,5.18,2.75,2.75,18.55,10.77,19.81,9.58,1.51-1.51.75-13.43,0-14.31a11.92,11.92,0,0,0-3.5-.91h-.06A63.27,63.27,0,0,0,391.26,249Z" style="fill:#263238"></path><path d="M426.57,295.08s-8.5-26-10.87-31.65S410,236.5,410,233.67s-4.9-2.85-9.92-2.84c-2.54,0-12.75-2.83-14.17.95s2.84,5.19,4.25,5.19,10.87,2.36,10.87,2.36,2.36,15.12,2.36,17-9.45,25.51-4.25,34,15.59,21.26,15.59,21.26l14.64-10.87Z" style="fill:#fff"></path><path d="M414.67,312.3l-.3-.38c-.1-.12-10.47-12.87-15.63-21.31-4.2-6.87.76-22.87,3.14-30.56a34.92,34.92,0,0,0,1-3.71c0-1.68-2-14.39-2.3-16.6-2.83-.7-9.36-2.27-10.43-2.27a6,6,0,0,1-4.4-2.23,3.83,3.83,0,0,1-.32-3.64c1.22-3.25,7.58-2.27,11.79-1.62a24.28,24.28,0,0,0,2.84.35c.33,0,.69,0,1,0,3.65,0,7.22.11,8.69,1.57a2.45,2.45,0,0,1,.72,1.77c0,2.72,3.25,23.85,5.63,29.56,2.3,5.53,10.5,30.56,10.86,31.66l3,6Zm-23.89-82c-2.12,0-3.9.39-4.37,1.64a2.81,2.81,0,0,0,.2,2.72,5.07,5.07,0,0,0,3.58,1.8c1.44,0,10,2.14,11,2.38l.32.08.05.33c.1.62,2.37,15.17,2.37,17.08a23.07,23.07,0,0,1-1.09,4c-2.33,7.55-7.2,23.27-3.23,29.75,4.62,7.57,13.5,18.67,15.25,20.83l13.92-10.33-2.68-5.36c-.08-.26-8.52-26-10.85-31.61-2.41-5.79-5.7-27.2-5.7-30a1.42,1.42,0,0,0-.43-1.06c-1.31-1.3-5.39-1.29-9-1.28h0a24.9,24.9,0,0,1-3-.36A43.78,43.78,0,0,0,390.78,230.31Z" style="fill:#263238"></path><path d="M549.58,473.45s1.5-21.44,0-26.93-22.44-77.29-22.44-77.29-55.35,37.4-65.32,34.4-59.34-93.25-59.34-93.25l24.43-17.95,40.39,55.85s18.95-16.46,24.44-22.44,23.93-39.39,23.93-42.89,12-5,20-6,27.93-5,27.93-5,22.44-3.49,25.93-3.49,9.47-.5,16.46,0,49.36,9,53.35,9.48,8,19.45,8.48,28.92,16.46,95.25,21.94,126.66,6,38.4,6,38.4" style="fill:#fff"></path><path d="M550.08,473.48l-1-.07c0-.21,1.47-21.42,0-26.76-1.4-5.14-20.13-69.39-22.24-76.63-6.21,4.17-55.53,37-65.19,34.09-10.05-3-57.61-89.8-59.63-93.49l-.21-.38L427,291.73l40.37,55.81c2.8-2.44,19-16.63,24-22,5.7-6.21,23.8-39.41,23.8-42.55,0-3.63,9.24-5.08,20.39-6.48,7.87-1,27.69-4.94,27.89-5,.94-.14,22.54-3.5,26-3.5,1,0,2.19,0,3.56-.08A120.19,120.19,0,0,1,606,268c4.51.33,23.73,4,37.75,6.61,7.95,1.51,14.22,2.69,15.64,2.87,4.61.58,8.45,20.7,8.91,29.39.36,6.78,8.69,53,15.39,90.08,2.57,14.24,5,27.69,6.55,36.53,5.42,31.08,6,38.38,6,38.45l-1,.07c0-.07-.57-7.36-6-38.35-1.54-8.84-4-22.29-6.54-36.52-6.7-37.14-15-83.36-15.41-90.2-.53-10.15-4.71-28-8-28.46-1.44-.18-7.73-1.37-15.69-2.87-14-2.65-33.19-6.28-37.64-6.6a118.27,118.27,0,0,0-12.83-.08c-1.38,0-2.59.08-3.59.08-3.41,0-25.63,3.45-25.86,3.49s-20,4-27.94,5c-6.81.85-19.51,2.44-19.51,5.48,0,3.81-18.67,37.34-24.06,43.23s-24.29,22.31-24.48,22.48l-.41.36L426.8,293.13l-23.68,17.4c17.12,31.26,51.14,90.31,58.84,92.63,9.63,2.88,64.35-34,64.9-34.35l.57-.38.19.66c.21.71,21,71.87,22.45,77.3S550.15,472.6,550.08,473.48Z" style="fill:#263238"></path><path d="M571.53,404.13l45.87-95.24-9.47-13.47,12-9V270.69c-6.52-1.17-11.86-2.05-14-2.2-7-.5-13,0-16.46,0S563.55,272,563.55,272s-14.95,3-24.14,4.44l-4.29,13.52,13.47,9-14,8.48Z" style="fill:#fff"></path><path d="M571.47,405.4l-.41-1.09-37-97.13,13.65-8.29-13.13-8.75L539,276l.3-.05c9.08-1.43,24-4.41,24.12-4.44.94-.14,22.54-3.5,26-3.5,1,0,2.19,0,3.56-.08A120.19,120.19,0,0,1,606,268c1.9.14,6.49.86,14,2.2l.41.08V286.7l-11.78,8.83L618,308.84l-.12.26Zm-36.23-97.8,36.34,95.27,45.25-93.94-9.59-13.62,12.16-9.11V271.1c-7.25-1.29-11.67-2-13.5-2.11a118.27,118.27,0,0,0-12.83-.08c-1.38,0-2.59.08-3.59.08-3.41,0-25.63,3.45-25.86,3.49s-14.71,2.94-23.83,4.39l-4.08,12.86,13.81,9.2Z" style="fill:#263238"></path><path d="M584.62,473.62s-.12-1.92-.26-4.64l1-.05c.14,2.72.26,4.63.26,4.64Z" style="fill:#263238"></path><path d="M584,462c-.13-3.36-.2-6-.2-7.81,0-6.06-12.67-49.48-12.79-49.92l1-.28c.52,1.8,12.83,44,12.83,50.2,0,1.81.07,4.42.2,7.77Z" style="fill:#263238"></path><polygon points="526.69 369.43 509.73 332.03 510.64 331.62 525.17 363.65 513.2 317.99 514.16 317.73 527.63 369.1 526.69 369.43" style="fill:#263238"></polygon><path d="M401.21,243.3h-.11a88.54,88.54,0,0,1-10.25-1.61,2.08,2.08,0,1,1,.86-4.06,87.28,87.28,0,0,0,9.59,1.52,2.08,2.08,0,0,1-.09,4.16Z" style="fill:#8f8f8f"></path><path d="M401.21,243.8h-.13a86.75,86.75,0,0,1-10.33-1.62,2.58,2.58,0,1,1,1.07-5,86.33,86.33,0,0,0,9.51,1.51,2.6,2.6,0,0,1,1.78.85,2.57,2.57,0,0,1-1.9,4.31Zm-9.93-5.72a1.57,1.57,0,0,0-.33,3.11,88.11,88.11,0,0,0,10.18,1.6l.08.51v-.5a1.58,1.58,0,0,0,.07-3.16,85.22,85.22,0,0,1-9.66-1.53Z" style="fill:#263238"></path><path d="M462.55,418.9c-.52,0-1,0-1.57,0-9.84-.6-18.91-6.79-27.73-18.9-19.13-26.31-24.11-99.45-23.08-119.08.86-16.27-1.66-31.09-6.12-36a4.26,4.26,0,0,0-2.94-1.63,2,2,0,0,1-1.9-2.1,2,2,0,0,1,2.09-1.9,8.13,8.13,0,0,1,5.72,2.95c6.41,7.09,7.86,25.39,7.15,38.91-1,18.64,4.06,91.4,22.32,116.51,8.06,11.09,16.16,16.74,24.74,17.27,9.9.59,21-5.58,32.94-18.4,19.91-21.32,31.3-59.13,36.32-79.76a2,2,0,0,1,3.89.94c-5.11,21-16.75,59.57-37.29,81.55C484.86,412.28,473.25,418.9,462.55,418.9Z" style="fill:#263238"></path><path d="M532.43,319.25a2.12,2.12,0,0,1-.49-.06,2.09,2.09,0,0,1-1.53-2.51c2.51-10.31,3.66-17.28,3.67-17.35a2.08,2.08,0,0,1,4.1.67c0,.07-1.18,7.19-3.73,17.66A2.08,2.08,0,0,1,532.43,319.25Z" style="fill:#8f8f8f"></path><path d="M532.43,319.75a2.6,2.6,0,0,1-2.5-3.19c2.46-10.11,3.61-17,3.66-17.31a2.58,2.58,0,0,1,5.09.83c0,.06-1.2,7.24-3.74,17.7A2.59,2.59,0,0,1,532.43,319.75Zm3.71-21.66a1.59,1.59,0,0,0-1.56,1.32c-.05.3-1.21,7.24-3.68,17.39a1.57,1.57,0,0,0,1.16,1.9,1.62,1.62,0,0,0,1.91-1.16c2.56-10.54,3.71-17.55,3.72-17.61a1.58,1.58,0,0,0-1.3-1.82Z" style="fill:#263238"></path><path d="M407.2,262.48s-3.31-3.31-7.56-12.28-9-19.84-12.28-12.76,3.31,14.18,5.67,20.32-.47,17,2.83,22.67,11.34,12.28,12.76,12.28" style="fill:#fff"></path><path d="M408.62,293.21c-1.85,0-10.05-7.15-13.19-12.53-1.86-3.18-1.85-7.9-1.84-12.46,0-3.71,0-7.56-1-10.28a42.7,42.7,0,0,0-2.57-5.17c-2.62-4.76-5.59-10.16-3.08-15.54.79-1.7,1.76-2.57,2.88-2.57h0c3.08,0,6.24,6.7,9.59,13.8l.71,1.52c4.16,8.77,7.43,12.12,7.46,12.15l-.7.7c-.14-.13-3.42-3.47-7.66-12.42l-.72-1.52c-2.78-5.9-6.23-13.23-8.68-13.23h0c-.7,0-1.36.67-2,2-2.29,4.91.43,9.85,3.06,14.63a45.52,45.52,0,0,1,2.63,5.29c1.11,2.9,1.1,6.84,1.09,10.64,0,4.43,0,9,1.7,12,3.33,5.69,11.22,12,12.33,12Z" style="fill:#263238"></path><polygon points="593.47 298.91 570.53 388.18 559.56 305.89 563.05 280.96 589.98 279.96 593.47 298.91" style="fill:#407BFF"></polygon><path d="M570.37,390.79l-11.32-84.9v-.07l3.55-25.34,27.78-1L594,298.93ZM560.06,305.9l10.63,79.66L593,298.89l-3.4-18.41-26.07,1Z" style="fill:#263238"></path><path d="M544.1,163.77s-23.44-5-23.94-8.48,20-9,20-9-14-4.49-4-10,53.36-8,73.8,4.49,19.45,42.89,19.45,52.36-10,25.44-13,28.93-15,7-15,7-12-1-16.46-12-1-34.91-1-34.91-18.45-2.49-26.43-7.48-11-10-11-10Z" style="fill:#263238"></path><path d="M601.5,229.6h-.09c-.13,0-12.33-1.16-16.88-12.28-4.19-10.23-1.59-31.09-1.1-34.67-3.06-.45-18.79-2.9-26.13-7.48s-10.48-9.12-11-10l-2.31-.92c-4.06-.87-23.76-5.25-24.28-8.89-.48-3.35,13.42-7.6,18.82-9.11-2.23-.92-6.19-2.9-6.45-5.57-.16-1.68,1.13-3.28,3.84-4.77,9.86-5.42,53.79-8,74.31,4.49,19.84,12.11,19.73,40.75,19.69,51.53v1.26c0,9.63-10,25.7-13.08,29.25s-14.71,7-15.2,7.14Zm-34.88-97.24c-13.6,0-25.67,1.9-30.26,4.42-2.32,1.28-3.44,2.56-3.32,3.81.24,2.48,5.29,4.63,7.22,5.25l1.62.52-1.64.44c-9.84,2.64-19.86,6.51-19.58,8.42.31,2.17,14,6,23.54,8.06l.09,0,2.64,1.06.09.14c0,.05,3,5,10.81,9.81s26,7.38,26.23,7.41l.5.06-.07.5c0,.24-3.42,23.93,1,34.65,4.12,10.06,14.86,11.53,15.95,11.65,1.12-.33,11.9-3.62,14.63-6.8,3-3.49,12.84-19.23,12.84-28.6v-1.27c0-10.62.15-38.85-19.22-50.66C599,134.74,581.84,132.36,566.62,132.36Z" style="fill:#263238"></path><path d="M544.1,163.77s-27.43,44.38-27.93,55.85-1,29.34,2,30.42a66.44,66.44,0,0,0,30.92,3.49l7,18.45s1,32.92,3.49,33.91,10.47,4,19,1.5a42.52,42.52,0,0,0,15-8.48l9-31.41S599,253.53,599,249V235.58s9-3.49,12.47-10,3-14-3-14S593,217.13,593,217.13s-6-17-2.49-26.93,7.48-15,7.48-15-8,.5-15.46.5-14-3-10.47-5,9-4.49,9-4.49Z" style="fill:#fff"></path><path d="M571.57,308.86a33.06,33.06,0,0,1-12.2-2.5c-2.58-1-3.56-26.38-3.8-34.28l-6.81-18A68.3,68.3,0,0,1,518,250.51c-1.68-.61-3.47-4.68-2.33-30.91.5-11.47,26.88-54.28,28-56.09l.16-.26L583,165.9l-1.8.82c-.06,0-5.51,2.51-8.94,4.47-.54.31-.78.61-.7.91.33,1.25,4.86,3.14,10.93,3.14,7.38,0,15.35-.49,15.42-.5l1.13-.07-.7.88s-4,5-7.4,14.82c-3,8.68,1.32,23,2.3,26,2.11-1.17,9.88-5.26,15.18-5.26a5.13,5.13,0,0,1,4.68,2.49c1.67,2.81,1.17,7.72-1.25,12.21-3.2,5.95-10.74,9.38-12.41,10.08V249c0,4.38,3.44,18.19,3.48,18.33l0,.13,0,.13-9,31.55-.1.1a43.68,43.68,0,0,1-15.16,8.59A25.08,25.08,0,0,1,571.57,308.86ZM549.41,253l7.16,19c.47,15.7,1.8,32.52,3.19,33.47,6.54,2.61,13,3.12,18.61,1.47A42.45,42.45,0,0,0,593,298.64l8.9-31.15c-.38-1.52-3.48-14.13-3.48-18.45v-13.8l.32-.13c.09,0,8.85-3.5,12.21-9.74,2.26-4.2,2.77-8.71,1.27-11.23a4.15,4.15,0,0,0-3.82-2c-5.78,0-15.12,5.37-15.21,5.42l-.52.3-.2-.56c-.25-.7-6-17.24-2.5-27.26a60,60,0,0,1,6.93-14.24c-2.43.13-8.61.44-14.43.44s-11.34-1.78-11.9-3.88c-.11-.45-.12-1.3,1.18-2,2.24-1.28,5.33-2.78,7.25-3.69l-34.66-2.34c-2.24,3.64-27.23,44.59-27.7,55.35-1.09,25.12.58,29.54,1.67,29.93A66.66,66.66,0,0,0,549,253Z" style="fill:#263238"></path><polygon points="549.09 253.53 569.41 249.95 556.07 271.98 549.09 253.53" style="fill:#263238"></polygon><path d="M556,273.12l-7.56-20,22-3.87Zm-6.19-19.2,6.4,16.93,12.24-20.21Z" style="fill:#263238"></path><path d="M537.32,220l-13.16-9.86h1.49s3.48-.07,10.22-3.93,16.28-12.32,16.37-12.4l.67.74c-.09.09-9.59,8.56-16.54,12.53a32,32,0,0,1-9.44,3.9l11,8.23Z" style="fill:#263238"></path><path d="M540.86,231.5a13.57,13.57,0,0,1-5.45-.95l.42-.91c.09,0,8.41,3.74,20.95-4.94l.57.82C550.38,230.35,544.69,231.5,540.86,231.5Z" style="fill:#263238"></path><rect x="556.07" y="221.77" width="1" height="6.17" transform="translate(203.47 710.3) rotate(-75.97)" style="fill:#263238"></rect><path d="M574.52,208.15c-4,0-6.9-1-8.68-3a7.45,7.45,0,0,1-1.79-5.5l1,.13a6.61,6.61,0,0,0,1.56,4.72c1.58,1.79,4.25,2.69,7.92,2.69Z" style="fill:#263238"></path><path d="M542.44,194.31c-2.68,0-4.61-.62-5.76-1.86a4.1,4.1,0,0,1-1-3.34l1,.18-.49-.09.49.09a3.09,3.09,0,0,0,.82,2.49c1.2,1.29,3.66,1.78,7.11,1.41l.11,1A22.07,22.07,0,0,1,542.44,194.31Z" style="fill:#263238"></path><path d="M568.53,221.12A17.46,17.46,0,1,1,586,203.67,17.47,17.47,0,0,1,568.53,221.12Zm0-33.91A16.46,16.46,0,1,0,585,203.67,16.47,16.47,0,0,0,568.53,187.21Z" style="fill:#263238"></path><path d="M536.37,204.17A16.21,16.21,0,1,1,552.58,188,16.23,16.23,0,0,1,536.37,204.17Zm0-31.42A15.21,15.21,0,1,0,551.58,188,15.22,15.22,0,0,0,536.37,172.75Z" style="fill:#263238"></path><rect x="554.32" y="188.24" width="1" height="4.91" transform="translate(155.24 620.26) rotate(-66.04)" style="fill:#263238"></rect><rect x="593.22" y="200.57" width="1" height="18.15" transform="translate(229.02 722.92) rotate(-74.05)" style="fill:#263238"></rect><path d="M605.9,231.64a3.15,3.15,0,0,1-2.45-1.18l-3.28-4.17a3.11,3.11,0,0,1,4.89-3.86l3.28,4.16a3.11,3.11,0,0,1-2.44,5Z" style="fill:#407BFF"></path><path d="M605.9,232.14a3.58,3.58,0,0,1-2.84-1.38l-3.29-4.16a3.62,3.62,0,0,1,.6-5.08,3.65,3.65,0,0,1,2.66-.75,3.58,3.58,0,0,1,2.42,1.35l3.28,4.16a3.61,3.61,0,0,1-2.83,5.86Zm-3.29-10.39a2.62,2.62,0,0,0-2.6,2.31,2.56,2.56,0,0,0,.55,1.92l3.28,4.17a2.69,2.69,0,0,0,3.68.43,2.64,2.64,0,0,0,.43-3.68l-3.29-4.16a2.61,2.61,0,0,0-1.74-1Z" style="fill:#263238"></path><path d="M610.12,230.52l-2.59-3.28a2.08,2.08,0,1,0-3.26,2.57l2.59,3.28a2.4,2.4,0,0,1,.17,2.73c-4.45,7.36-19.9,32.34-31.88,44.75-12.94,13.4-20.63,20.74-24.21,21.19-3.77.48-19.06-5.66-20.54-8.19-.09-3,5.05-24.25,8.78-38.56a3.25,3.25,0,0,0,.26-.82c-1.51,0-2.92-.22-4.14-.29-2.28,8.75-9.54,36.62-9,40.35.76,5.36,19.57,11.66,24.64,11.66a3.94,3.94,0,0,0,.52,0c4.93-.61,11.9-7.11,26.69-22.43,12.28-12.72,27.94-38,32.45-45.48A6.6,6.6,0,0,0,610.12,230.52Z" style="fill:#8f8f8f"></path><path d="M550.93,306.41c-4.81,0-24.31-6.29-25.14-12.09-.37-2.58,2.59-15.84,9-40.55l.11-.39.41,0c.45,0,.94.07,1.44.12.86.08,1.74.17,2.67.17h.46l0,.45a1.72,1.72,0,0,1-.19.77,1.19,1.19,0,0,0-.08.22C536,269.09,531,290,530.9,293.42c1.76,2.44,16.54,8.28,20,7.85s11.35-8,23.91-21c12-12.38,27.37-37.31,31.81-44.66a1.88,1.88,0,0,0-.14-2.16l-2.59-3.28a2.59,2.59,0,0,1,.43-3.62,2.65,2.65,0,0,1,1.9-.54,2.58,2.58,0,0,1,1.72,1l2.59,3.28a7.08,7.08,0,0,1,.5,8c-4.51,7.46-20.2,32.82-32.51,45.57-14.88,15.41-21.91,21.95-27,22.58a4.85,4.85,0,0,1-.58,0Zm-15.25-52c-6.25,24-9.24,37.36-8.9,39.76.7,4.86,19.08,11.23,24.15,11.23h0a3.24,3.24,0,0,0,.46,0c4.77-.6,11.69-7.06,26.39-22.28,12.24-12.68,27.88-38,32.38-45.4a6.07,6.07,0,0,0-.44-6.88l-2.59-3.28a1.56,1.56,0,0,0-1-.59,1.53,1.53,0,0,0-1.16.33,1.57,1.57,0,0,0-.26,2.21l2.59,3.28a2.88,2.88,0,0,1,.21,3.3c-4.46,7.37-19.92,32.38-32,44.83C562.2,294.7,554.75,301.79,551,302.26c-3.94.49-19.44-5.73-21-8.44l-.07-.11v-.13c-.09-3.25,5.35-25.46,8.8-38.7,0-.06,0-.13.07-.2-.74,0-1.45-.1-2.1-.16Z" style="fill:#263238"></path><path d="M587,196.28a1,1,0,0,1-1-1c0-9.84-9-10.41-9.44-10.43a1,1,0,0,1,.1-2c.12,0,11.34.71,11.34,12.43A1,1,0,0,1,587,196.28Z" style="fill:#263238"></path><path d="M553.27,176.54a1,1,0,0,1-.9-.57c-.13-.26-2.94-6-10.34-4.64a1,1,0,0,1-.37-2,11.3,11.3,0,0,1,12.52,5.75,1,1,0,0,1-.49,1.33A1,1,0,0,1,553.27,176.54Z" style="fill:#263238"></path><path d="M588.48,354.26s-21.94-5-26.43-5-13.46,6.48-18.45,12-12,11-15,11-16.95,1.49-21.94,4-10,16-10,17.45,1.49,4,4,2,10-13,10-13l8-1s-6,5.49-7,9.48-5,9-3,12,7-3,7.48-5.49,6-9,6-9l7-6-4.88,11.38a3,3,0,0,0,1.38,3.88l8,4.19,8-5s7.48-1,9.47-3.49,2-6.48,2-6.48-1-1,1-3,10-14.47,10-14.47l21.94,5Z" style="fill:#fff"></path><path d="M510.12,404.46a2.15,2.15,0,0,1-1.84-1c-1.49-2.22-.08-5.28,1.29-8.24a25.83,25.83,0,0,0,1.63-4.12c.77-3.06,4.24-6.86,6-8.68l-6.27.79c-1,1.5-7.57,11-9.94,12.89a2.75,2.75,0,0,1-3.06.62,3.5,3.5,0,0,1-1.74-3c0-1.76,5-15.3,10.24-17.9s19.16-4,22.17-4c2.58,0,9.27-5,14.59-10.81s14.23-12.13,18.82-12.13,25.64,4.79,26.54,5l.44.1-2.61,21.44-22.14-5c-1.25,1.95-8,12.39-9.85,14.25-1.26,1.26-1.2,2-1,2.3l.12.14,0,.2c0,.17,0,4.19-2.11,6.79s-8.71,3.52-9.69,3.66l-8.13,5.08-8.24-4.31a3.56,3.56,0,0,1-1.61-4.52l4-9.41-5.35,4.58c-1.44,1.72-5.43,6.76-5.82,8.7s-3.55,6.16-6,6.65A2.44,2.44,0,0,1,510.12,404.46Zm10-23.46L519,382.06c0,.06-5.88,5.43-6.83,9.23a26.17,26.17,0,0,1-1.69,4.3c-1.25,2.71-2.55,5.51-1.37,7.27a1.17,1.17,0,0,0,1.33.56c2.06-.41,4.89-4.11,5.24-5.87.52-2.59,5.87-8.93,6.1-9.2l8.67-7.44-5.73,13.36a2.54,2.54,0,0,0,1.15,3.24l7.74,4.05,7.93-4.9c.07,0,7.3-1,9.15-3.31,1.64-2.06,1.85-5.28,1.88-6-.28-.45-.69-1.66,1.15-3.5s9.83-14.25,9.91-14.38l.19-.29,21.74,4.94,2.37-19.45c-3.12-.7-21.85-4.87-25.88-4.87-4.2,0-13,6.23-18.08,11.8s-12.07,11.14-15.33,11.14c-2.87,0-16.8,1.48-21.72,3.93-4.76,2.39-9.69,15.66-9.69,17a2.5,2.5,0,0,0,1.17,2.11,1.86,1.86,0,0,0,2-.51c2.41-1.92,9.8-12.74,9.88-12.85l.12-.19Z" style="fill:#263238"></path><path d="M542.49,397.36c-2.54-.62-10.83-2.83-10.83-5.33s5.57-10.12,6.21-11l.81.59c-2.42,3.33-6,8.85-6,10.41,0,1.18,5.22,3.18,10.06,4.36Z" style="fill:#263238"></path><path d="M546.87,390.16l-.35-.94a15,15,0,0,0,5-3.67l.75.66A15.72,15.72,0,0,1,546.87,390.16Z" style="fill:#263238"></path><polygon points="568.85 370.64 571.28 352.99 577.51 353.33 574.39 372.03 568.85 370.64" style="fill:#263238"></polygon><path d="M574.8,372.65,568.3,371l2.54-18.56,7.25.41Zm-5.39-2.38,4.58,1.14,2.93-17.61-5.21-.29Z" style="fill:#263238"></path><path d="M582.94,355.05c-.53,3.21-4.7,5.2-9.33,4.44s-7.94-4-7.41-7.19,4.7-5.19,9.32-4.43S583.46,351.85,582.94,355.05Z" style="fill:#fff"></path><path d="M575.58,360.15a13.08,13.08,0,0,1-2.05-.17,11.1,11.1,0,0,1-5.91-2.81,5.22,5.22,0,0,1,1.49-9,11.79,11.79,0,0,1,12.4,2,5.22,5.22,0,0,1-1.48,9A10.43,10.43,0,0,1,575.58,360.15Zm-2-11.94a9.46,9.46,0,0,0-4,.84,4.24,4.24,0,0,0-1.22,7.41,10.79,10.79,0,0,0,11.28,1.85,4.64,4.64,0,0,0,2.84-3.34h0a4.66,4.66,0,0,0-1.63-4.07,10.1,10.1,0,0,0-5.37-2.53A11.13,11.13,0,0,0,573.55,348.21Z" style="fill:#263238"></path><path d="M646.33,304.4s-10.47,14.46-10.47,29.92,12.46,32.41,12.46,32.41L588,348.28l-10,33.91s51.36,21.94,80.78,29.92,33.91,12,44.39,2-4.49-38.9-6.49-42.39-24.43-68.82-27.42-79.79-5.49-14.46-10-14-12,1-12,1" style="fill:#fff"></path><path d="M690.85,420.52c-4.54,0-10.23-1.65-19.12-4.23-3.76-1.09-8-2.33-13.07-3.7-29.11-7.89-80.33-29.72-80.85-29.94l-.41-.17.13-.43,10.12-34.39,59.44,18.17c-2.8-4.16-11.73-18.43-11.73-31.51,0-15.44,10.46-30.07,10.56-30.22l.81.59c-.1.14-10.37,14.52-10.37,29.63s12.24,31.95,12.37,32.12l.89,1.21-61.3-18.74-9.7,33c4.91,2.09,52.64,22.22,80.31,29.73,5,1.37,9.31,2.61,13.08,3.7,18.06,5.24,22.35,6.48,30.82-1.59,10.73-10.21-6.39-41.46-6.57-41.77-2-3.56-24.37-68.53-27.48-79.91-2.89-10.63-5.29-14.06-9.43-13.6-4.45.5-11.92,1-12,1l-.07-1c.08,0,7.52-.51,12-1,4.78-.53,7.44,3.08,10.51,14.33,2.94,10.79,25.46,76.31,27.38,79.67.18.32,17.85,32.09,6.39,43C699,418.76,695.54,420.52,690.85,420.52Z" style="fill:#263238"></path><line x1="679" y1="372.1" x2="688.22" y2="373.71" style="fill:#fff"></line><rect x="683.11" y="368.23" width="1" height="9.35" transform="translate(198.39 981.96) rotate(-80.07)" style="fill:#263238"></rect><line x1="648.32" y1="366.73" x2="672.78" y2="371.01" style="fill:#fff"></line><rect x="660.05" y="356.46" width="1" height="24.83" transform="translate(183.33 955.95) rotate(-80.07)" style="fill:#263238"></rect></g></svg>