<svg width="140" height="32" viewBox="0 0 140 32" fill="none" xmlns="http://www.w3.org/2000/svg">
<path d="M23.7684 17.7054C24.1699 18.2191 24.8292 18.5636 24.894 19.3573C23.8674 18.7064 23.0218 18.13 22.1173 17.6172C21.766 17.4181 21.341 16.8789 20.8674 17.3105C20.3919 17.7439 21.1293 17.9787 21.4442 18.2272C22.1731 18.8023 23.0521 19.2599 23.6411 19.9458C23.784 20.1123 24.036 20.2435 23.8877 20.5441C23.1774 20.5271 22.9065 19.993 22.4188 19.7338C21.8689 19.4416 21.4122 19.0442 20.8977 18.7086C20.7021 18.581 20.4582 18.4008 20.1942 18.6069C19.9388 18.8063 20.1277 19.0156 20.306 19.161C20.8388 19.5955 21.4159 19.997 21.9468 20.4327C22.4167 20.8183 23.0054 21.1556 23.0738 21.8418C21.6942 21.8005 20.9769 20.7646 19.7812 20.5599C19.4732 20.9686 19.8116 21.1604 20.0827 21.3347C21.8511 22.4718 23.4356 23.7344 24.6641 25.258C25.0623 25.7519 25.8718 25.9757 26.2498 26.4431C27.3399 27.7912 28.3051 29.1997 28.3007 30.8696C28.2988 31.6169 27.8027 31.9914 26.8752 31.9931C22.6825 32.0007 18.4896 32.006 14.2971 31.987C13.1411 31.9818 12.757 31.6952 12.7415 30.8079C12.7063 28.7916 12.4418 26.7409 12.8171 24.7676C13.1872 22.8219 13.7543 20.786 15.8674 19.3661C16.0439 19.2475 16.2204 19.1134 16.3378 18.959C17.6845 17.1885 19.4185 15.675 21.359 14.2943C21.6023 14.1212 21.903 13.8714 21.5843 13.6265C21.2435 13.3646 20.994 13.6906 20.7415 13.8326C19.8941 14.3091 19.1836 14.9611 18.1009 15.1532C17.8037 14.7697 18.1269 14.5572 18.3239 14.3339C18.9364 13.6394 19.7597 13.0913 20.4755 12.4683C20.7567 12.2235 21.4149 11.9942 20.8856 11.5933C20.4083 11.2317 20.1223 11.7164 19.848 11.9269C19.1312 12.477 18.2843 12.9182 17.6545 13.5414C17.5178 13.6767 17.339 13.8246 16.9803 13.7148C17.0489 13.2265 17.5075 12.9079 17.8894 12.5786C18.519 12.0359 19.2011 11.5304 19.8606 11.0088C20.1214 10.8025 20.2633 10.5654 19.9861 10.3177C19.7195 10.0795 19.4316 10.2268 19.1803 10.363C18.2967 10.8421 17.4841 11.3871 16.728 11.9851C16.5046 12.1618 16.3347 12.4074 15.9683 12.4516C15.6921 12.1245 16.0065 11.9416 16.1806 11.7394C16.5546 11.3052 16.9471 10.8807 17.3224 10.4472C17.5455 10.1894 17.8755 9.8934 17.4168 9.62871C16.9831 9.37838 16.6696 9.67997 16.3961 9.90527C15.4709 10.6675 14.6136 11.4693 14.0433 12.4349C13.923 12.6386 13.8835 12.8983 13.5162 12.9919C13.0089 12.8154 13.0276 12.3357 12.6776 12.0667C12.4614 11.9005 12.2511 11.6785 11.9151 11.7915C11.525 11.9228 11.6769 12.1817 11.7932 12.3995C12.2282 13.2137 11.8349 13.9973 11.6493 14.786C11.5588 15.1707 11.3628 15.5415 11.4056 15.9427C11.6374 18.1173 10.3222 19.8857 8.95777 21.6424C8.70787 21.9642 8.35981 22.103 7.87374 22.1006C5.72716 22.0901 3.58038 22.1027 1.43385 22.0892C0.507158 22.0834 0.00817843 21.7095 0.0078314 20.9636C0.00627723 17.611 -0.00804805 14.2585 0.00638781 10.906C0.00948086 10.1884 0.459114 9.91111 1.54969 9.90773C4.63551 9.89817 7.72141 9.9058 10.8073 9.9027C12.6541 9.90085 12.7138 9.857 12.7176 8.384C12.7235 6.05295 12.7138 3.72188 12.7158 1.39082C12.7168 0.195335 12.9556 0.00306198 14.442 0.00215362C18.5341 -0.000347299 22.6262 -0.000942585 26.7184 0.00183404C28.0294 0.00272384 28.305 0.221818 28.3136 1.25219C28.3345 3.76447 28.3448 6.27682 28.3743 8.78904C28.3852 9.71719 28.5946 9.88633 29.7791 9.88996C32.9991 9.89982 36.2192 9.89503 39.4392 9.88791C40.6542 9.88523 40.9958 10.124 40.9974 11.0842C41.0026 14.3582 41.0001 17.6321 40.9895 20.9061C40.9868 21.7641 40.5901 22.0925 39.4676 22.0979C36.3484 22.1131 33.2289 22.0951 30.1095 22.1023C29.5536 22.1036 29.23 21.9504 29.1273 21.5044C28.9306 20.6499 28.2283 19.8367 28.8221 18.9208C28.9253 18.7618 28.8332 18.6015 28.6015 18.5487C28.3448 18.4903 28.1592 18.6142 27.9822 18.7435C27.6403 18.9933 27.7036 19.4564 27.2321 19.63C26.9223 19.6299 26.8145 19.447 26.7187 19.2911C26.1417 18.3521 25.2377 17.6134 24.3148 16.889C24.0522 16.6829 23.7631 16.296 23.3293 16.5724C22.9167 16.8355 23.2911 17.142 23.4931 17.4051C23.5617 17.4946 23.6482 17.5757 23.7684 17.7054Z" fill="#5750F1"/>
<path d="M37.9027 5.2423C37.8164 5.32658 37.7713 5.38042 37.721 5.38303C36.6008 5.44113 35.6629 5.60992 35.8361 6.66593C35.8698 6.87204 35.5126 6.98868 35.2027 6.99615C34.7903 7.00609 34.3768 6.99292 33.9641 6.99888C33.3668 7.0075 33.0678 6.80959 33.1176 6.37796C33.1899 5.75097 32.8512 5.42723 31.9173 5.48867C31.2862 5.53018 30.959 5.32809 31.0077 4.8509C31.0308 4.62491 31.0331 4.39541 31.0068 4.16975C30.9482 3.66563 31.2665 3.45032 31.9565 3.50237C32.8219 3.56766 33.2131 3.29995 33.1088 2.676C33.0241 2.1688 33.3558 1.96683 34.0466 2.00482C34.3625 2.0222 34.6831 2.01872 34.9995 2.00327C35.6449 1.97175 35.9508 2.16721 35.9115 2.63854C35.8597 3.26126 36.2106 3.58707 37.1499 3.49682C37.7714 3.4371 38.021 3.67965 37.9986 4.10056C37.9794 4.46303 37.9605 4.82552 37.9027 5.2423Z" fill="#5750F1"/>
<path d="M102.569 13.8929C102.57 12.3282 102.606 10.8395 102.556 9.35249C102.534 8.70464 102.909 8.58489 103.63 8.59104C104.336 8.59705 104.887 8.62342 104.837 9.3468C104.791 10.0316 104.827 10.7198 104.827 11.4169C105.88 11.6335 106.873 11.369 107.859 11.4674C108.327 11.5142 108.358 11.2101 108.361 10.9403C108.366 10.3503 108.39 9.75971 108.365 9.17039C108.343 8.65132 108.743 8.56683 109.263 8.60739C109.799 8.64916 110.602 8.39099 110.613 9.14374C110.642 11.2984 110.64 13.4535 110.622 15.6082C110.616 16.2653 109.919 16.09 109.432 16.1013C108.951 16.1125 108.373 16.188 108.373 15.5825C108.374 14.9156 108.349 14.2483 108.367 13.5817C108.379 13.1535 108.13 13.0101 107.596 12.9751C104.868 12.7964 104.892 12.7881 104.807 14.9008C104.787 15.4023 105.186 16.1666 103.831 16.1197C102.585 16.0765 102.577 16.1165 102.57 15.1242C102.568 14.7394 102.57 14.3546 102.569 13.8929Z" fill="black"/>
<path d="M60.2048 13.1247C60.2051 14.1219 60.2051 15.0421 60.2051 15.9254C59.7974 16.2004 59.3812 16.0809 58.9988 16.1103C58.3384 16.1611 58.013 15.9661 58.0533 15.4153C58.0945 14.8532 58.0312 14.2866 58.0678 13.7242C58.1013 13.2102 57.874 12.9969 57.1697 12.9744C54.4145 12.8864 54.4011 12.8709 54.4134 15.0425C54.4171 15.6814 54.4458 16.185 53.2574 16.1366C52.3698 16.1005 52.1158 15.8712 52.1315 15.2232C52.1739 13.4807 52.149 11.7372 52.1568 9.99409C52.1635 8.47067 52.2896 8.39586 54.4055 8.71512C54.4055 9.37849 54.4305 10.0641 54.3971 10.7481C54.3729 11.2418 54.6312 11.4169 55.2642 11.4469C58.0381 11.5784 58.0372 11.5902 58.0609 9.53386C58.0725 8.52139 58.2686 8.43868 60.2045 8.71325C60.2045 10.1426 60.2045 11.5952 60.2048 13.1247Z" fill="black"/>
<path d="M76.6918 14.4007C75.5 14.2728 74.79 14.4992 74.545 15.458C74.354 16.2054 73.8097 16.2848 72.0879 15.9823C72.228 15.1203 72.721 14.3334 73.0717 13.5218C73.6813 12.1109 74.3772 10.7224 74.9949 9.31347C75.2097 8.82349 75.45 8.47945 76.2379 8.58002C77.0045 8.67787 77.9311 8.24556 78.3395 9.23807C79.174 11.2658 80.1539 13.2578 81.0665 15.2664C81.1634 15.4795 81.211 15.7059 81.2797 15.9205C79.7237 16.3958 78.9992 16.2038 78.6636 15.102C78.3815 14.176 77.5242 14.4461 76.6918 14.4007ZM76.7503 10.422C76.1554 11.1495 75.9373 11.96 75.7705 12.7369C76.0609 12.9383 76.2999 12.9095 76.5276 12.9144C77.6809 12.9397 77.7565 12.87 77.4356 12.0219C77.2415 11.5087 77.0227 11.0012 76.7503 10.422Z" fill="black"/>
<path d="M125.006 8.6016C126.388 8.60162 127.672 8.60162 128.927 8.60162C129.26 9.95019 129.163 10.0468 127.587 10.058C127.288 10.0601 126.988 10.0778 126.691 10.0578C125.943 10.0075 125.63 10.2121 125.631 10.8377C125.632 11.4795 126.05 11.5543 126.694 11.5251C127.057 11.5085 127.424 11.5298 127.788 11.5207C128.402 11.5054 128.868 11.5381 128.876 12.1928C128.884 12.8396 128.5 12.9953 127.79 12.9659C127.492 12.9535 127.189 12.9857 126.895 12.9565C125.95 12.8625 125.588 13.1407 125.632 13.8978C125.666 14.4672 125.902 14.6903 126.628 14.6512C127.123 14.6246 127.624 14.6594 128.121 14.6455C128.745 14.628 129.123 14.7398 129.086 15.3279C129.053 15.8374 128.958 16.1432 128.151 16.1159C126.859 16.0723 125.563 16.0923 124.269 16.1124C123.638 16.1222 123.359 15.9319 123.361 15.4399C123.37 13.365 123.352 11.29 123.363 9.21505C123.368 8.27699 124.327 8.70912 125.006 8.6016Z" fill="black"/>
<path d="M64.073 8.99745C64.1812 8.5716 64.5539 8.60823 64.8758 8.60666C66.239 8.6 67.6028 8.62095 68.9654 8.59801C69.6679 8.58618 69.7787 8.87116 69.7788 9.32145C69.779 9.76897 69.6758 10.0763 68.9733 10.0567C68.3426 10.0391 67.7099 10.0687 67.0784 10.0615C66.3251 10.0529 66.3602 10.4492 66.3473 10.8511C66.3336 11.2756 66.4728 11.5503 67.1202 11.5241C67.6174 11.5039 68.1186 11.5415 68.6158 11.5209C69.2654 11.4939 69.5907 11.6483 69.5803 12.2112C69.5707 12.7339 69.3265 12.9778 68.6519 12.9654C68.3196 12.9593 67.987 12.9646 67.6545 12.9652C66.3809 12.9674 66.236 13.1103 66.3454 14.0954C66.3887 14.4854 66.6023 14.6481 67.0905 14.6434C67.6556 14.6381 68.2222 14.6634 68.7859 14.6413C69.4975 14.6134 69.7844 14.8165 69.7896 15.3975C69.7951 16.01 69.4392 16.1302 68.7553 16.1158C67.526 16.09 66.2934 16.0801 65.0653 16.1206C64.2607 16.1471 64.0318 15.8952 64.0413 15.3082C64.075 13.2295 64.0596 11.1503 64.073 8.99745Z" fill="black"/>
<path d="M117.217 8.45898C117.893 8.53245 118.491 8.57431 119.065 8.68705C120.236 8.91664 120.334 9.15418 119.775 9.98329C119.557 10.3078 119.297 10.3584 118.891 10.2448C118.363 10.097 117.835 9.93498 117.255 9.95206C116.787 9.96587 116.387 10.0804 116.267 10.4648C116.161 10.8053 116.374 11.0699 116.756 11.2343C117.393 11.5085 118.048 11.7582 118.687 12.0313C119.851 12.5295 120.402 13.2861 120.248 14.3208C120.114 15.2189 119.305 15.8415 117.974 16.1209C116.843 16.3583 115.732 16.2683 114.642 16.0035C113.736 15.7834 113.608 15.4507 113.923 14.3571C114.41 14.1788 114.806 14.4447 115.226 14.5482C115.801 14.6897 116.374 14.8067 116.982 14.7608C117.44 14.7262 117.839 14.6094 117.953 14.2208C118.055 13.8734 117.826 13.6137 117.46 13.4484C116.859 13.1771 116.227 12.948 115.625 12.6779C114.618 12.2262 113.953 11.6001 113.952 10.6455C113.949 9.33919 114.99 8.61825 117.217 8.45898Z" fill="black"/>
<path d="M132.983 14.9426C131.975 13.5387 131.842 12.1291 132.493 10.6724C133.472 8.48469 136.536 8.01942 139.132 8.8679C139.471 8.97877 139.563 9.17136 139.429 9.42719C139.269 9.73084 139.097 10.0305 138.894 10.3958C137.477 10.0287 135.965 9.42977 134.948 10.7219C134.147 11.7396 134.123 12.918 134.882 13.9551C135.9 15.345 137.563 14.5951 138.987 14.4927C139.551 15.5655 139.337 15.9027 137.959 16.1161C136.062 16.4099 134.318 16.2842 132.983 14.9426Z" fill="black"/>
<path d="M97.0869 15.7045C96.5762 16.3705 95.8148 16.1139 95.2021 16.0352C94.6817 15.9683 94.8425 15.4874 94.839 15.1725C94.8235 13.8138 94.8353 12.4549 94.8329 11.096C94.8311 10.0853 94.8276 10.0604 93.5089 10.0775C92.6918 10.0881 92.1275 9.99124 92.231 9.20894C92.2838 8.81028 92.4586 8.59643 93.0163 8.5991C94.9758 8.60849 96.9356 8.61555 98.895 8.59776C99.5928 8.59143 99.716 8.87507 99.7127 9.32418C99.7096 9.75541 99.6468 10.0502 98.9302 10.0804C97.1129 10.1571 97.1155 10.1799 97.1121 11.5549C97.1087 12.9137 97.103 14.2725 97.0869 15.7045Z" fill="black"/>
<path d="M84.0143 10.6598C84.0146 10.2247 84.0119 9.8663 84.0159 9.50794C84.0249 8.69552 84.9944 8.2728 85.9655 8.65487C86.3865 8.82049 86.2985 9.13022 86.301 9.39837C86.3145 10.883 86.3392 12.3682 86.2999 13.8523C86.284 14.4539 86.5526 14.6938 87.3334 14.6511C87.9602 14.6169 88.5942 14.6667 89.2226 14.642C89.9179 14.6147 90.1485 14.8477 90.142 15.3707C90.1358 15.8685 89.9845 16.1295 89.2532 16.1143C87.8283 16.0848 86.4008 16.085 84.9759 16.1157C84.2277 16.1318 83.9958 15.8946 84.0062 15.3443C84.0351 13.8087 84.0151 12.2726 84.0143 10.6598Z" fill="black"/>
<path d="M117.302 20.4097C118.387 20.3233 119.379 20.3831 120.364 20.4848C122.181 20.6725 123.402 21.7293 123.459 23.1499C123.478 23.6091 123.508 24.079 123.41 24.528C123.109 25.9046 121.677 26.8133 119.754 26.8817C119.06 26.9064 118.361 26.8664 117.667 26.8958C116.958 26.9258 116.747 26.6728 116.754 26.162C116.777 24.4733 116.762 22.7843 116.766 21.0954C116.767 20.8175 116.721 20.5108 117.302 20.4097ZM120.983 21.509C120.248 21.2269 119.466 21.1692 118.656 21.1817C118.149 21.1896 117.956 21.3298 117.961 21.7322C117.977 23.0645 117.957 24.397 117.94 25.7294C117.937 26.0239 118.116 26.1533 118.478 26.1581C119.745 26.175 121.361 25.9539 121.976 24.9168C122.671 23.7461 122.337 22.3652 120.983 21.509Z" fill="black"/>
<path d="M98.2552 25.7255C97.1185 26.8715 95.5472 27.2623 93.7872 26.8768C92.3653 26.5653 91.3957 25.6189 91.2295 24.2964C91.1659 23.7906 91.1577 23.262 91.2741 22.7647C91.6682 21.082 93.1412 20.2319 95.3963 20.3219C97.3744 20.4008 98.7214 21.4801 98.8977 23.1447C98.9912 24.0274 98.8748 24.8859 98.2552 25.7255ZM96.2394 26.0271C97.6262 25.5826 98.0741 23.7938 97.452 22.3906C96.8903 21.1237 94.5475 20.6962 93.2536 21.6103C92.3054 22.2801 92.0722 24.1545 92.8031 25.231C93.3773 26.0766 94.4119 26.3423 96.2394 26.0271Z" fill="black"/>
<path d="M61.0565 25.9621C60.7143 25.5152 60.3777 25.1303 60.1102 24.7187C59.7841 24.2167 59.2267 24.2219 58.6589 24.2871C58.01 24.3617 58.2254 24.7871 58.2033 25.0903C58.1716 25.5252 58.1891 25.9622 58.1884 26.3984C58.1879 26.7034 58.0356 26.8843 57.5985 26.8719C57.213 26.8609 57.0745 26.6883 57.0742 26.424C57.072 24.5769 57.0766 22.7297 57.0723 20.8826C57.0714 20.5088 57.362 20.4036 57.7727 20.3817C58.7734 20.3284 59.7682 20.4018 60.7463 20.5389C61.5469 20.6512 62.1574 21.0186 62.3544 21.6597C62.5704 22.3628 62.5138 23.0423 61.7784 23.5833C61.5634 23.7415 61.3194 23.8761 60.9783 24.091C61.627 24.955 62.2816 25.8269 62.9538 26.7221C61.7538 27.2092 61.504 26.4957 61.0565 25.9621ZM60.4891 21.3589C58.381 20.9009 58.1196 21.0583 58.1986 22.7382C58.2034 22.8404 58.2053 22.9427 58.2142 23.0447C58.2257 23.178 58.2934 23.2863 58.4435 23.3645C58.9291 23.6172 60.5688 23.3948 60.9455 23.0224C61.4452 22.5284 61.3317 21.947 60.4891 21.3589Z" fill="black"/>
<path d="M110.489 22.2165C110.542 22.8687 110.272 23.3701 109.642 23.6751C109.004 23.984 109.112 24.2847 109.438 24.6848C109.98 25.3505 110.486 26.0341 111.032 26.7427C110.214 27.0353 109.739 26.8465 109.384 26.3493C109.016 25.8328 108.596 25.3369 108.258 24.8094C107.932 24.2991 107.403 24.1984 106.767 24.2839C106.057 24.3791 106.332 24.835 106.297 25.155C106.255 25.537 106.286 25.9237 106.282 26.3083C106.278 26.6108 106.232 26.8821 105.702 26.8713C105.245 26.8619 105.168 26.6349 105.168 26.3536C105.168 24.4335 105.168 22.5133 105.168 20.525C106.606 20.274 107.976 20.3308 109.301 20.6897C110.136 20.9158 110.5 21.4651 110.489 22.2165ZM106.298 22.9879C106.516 23.7451 107.293 23.4321 107.837 23.4166C108.813 23.3889 109.367 22.9089 109.33 22.2553C109.291 21.5522 108.491 21.1999 107.16 21.1792C106.014 21.1613 106.339 21.7727 106.292 22.2367C106.271 22.4403 106.291 22.6462 106.298 22.9879Z" fill="black"/>
<path d="M68.7133 26.4736C68.6961 24.708 68.7277 23.0129 68.6729 21.3195C68.6496 20.6001 69.0287 20.3499 69.9018 20.3736C70.8652 20.3997 71.8305 20.3797 72.7942 20.4014C73.1212 20.4088 73.5009 20.441 73.4935 20.805C73.4861 21.1668 73.1298 21.1848 72.7845 21.1876C72.1194 21.1929 71.4534 21.2089 70.7893 21.1887C70.2072 21.171 69.9647 21.3355 69.9333 21.8055C69.8491 23.063 69.863 23.0931 71.5089 23.0946C71.9079 23.095 72.3072 23.0958 72.7059 23.1065C73.041 23.1155 73.2932 23.2188 73.2998 23.5123C73.3065 23.8049 73.0652 23.924 72.7264 23.9309C72.0949 23.9437 71.4618 23.961 70.8313 23.9401C70.2023 23.9193 69.9537 24.1008 69.9303 24.6053C69.8624 26.0697 69.8375 26.0656 71.7052 26.0725C72.1691 26.0742 72.6349 26.0905 73.0957 26.1296C73.3494 26.1512 73.5032 26.2954 73.5057 26.5048C73.5076 26.6721 73.4299 26.8382 73.1987 26.8469C71.7761 26.9003 70.3509 26.9788 68.935 26.7913C68.85 26.7801 68.7958 26.6303 68.7133 26.4736Z" fill="black"/>
<path d="M130.505 21.8352C130.397 22.4764 130.847 22.7868 131.461 23.0035C132.093 23.227 132.739 23.4286 133.368 23.6575C134.219 23.9669 134.58 24.5382 134.544 25.2202C134.506 25.9331 134.055 26.4924 133.153 26.7684C132.027 27.1132 130.88 27.0807 129.739 26.8219C129.19 26.6974 128.999 26.4226 129.321 25.9727C130.135 25.986 130.919 26.2541 131.754 26.1819C132.441 26.1224 133.11 26.0505 133.302 25.4328C133.507 24.7744 132.973 24.4407 132.283 24.2055C131.737 24.0196 131.171 23.8642 130.647 23.6481C129.596 23.2151 129.132 22.5182 129.345 21.6821C129.555 20.8611 130.374 20.5196 131.322 20.3601C132.147 20.2212 132.972 20.3457 133.773 20.5323C134.083 20.6045 134.31 20.735 134.214 21.0341C134.109 21.3622 133.822 21.4303 133.456 21.3373C132.944 21.2077 132.425 21.1599 131.89 21.1666C131.28 21.1742 130.778 21.3067 130.505 21.8352Z" fill="black"/>
<path d="M83.4526 21.1671C81.3751 21.2323 80.469 22.123 80.5388 23.946C80.5952 25.4194 81.6477 26.1996 83.5617 26.1701C83.9226 26.1645 84.2828 26.1093 84.6424 26.0718C84.9101 26.0438 85.1911 25.994 85.2849 26.2739C85.3737 26.539 85.2342 26.7394 84.9045 26.8175C83.0512 27.2563 80.4231 27.1074 79.5798 25.0984C79.2951 24.4202 79.2201 23.7179 79.3521 22.9823C79.7528 20.7475 82.3624 19.8755 85.0567 20.5249C85.39 20.6052 85.6858 20.7333 85.5107 21.0777C85.3573 21.3796 85.0729 21.4146 84.7021 21.343C84.3191 21.269 83.9261 21.226 83.4526 21.1671Z" fill="black"/>
</svg>
